<svg xmlns="http://www.w3.org/2000/svg"><defs><font id="Font" horiz-adv-x="620"><font-face font-family="Font" font-weight="250" panose-1="2 11 2 0 3 0 0 0 0 0" ascent="800" descent="-200" x-height="500" cap-height="710" bbox="-62 -215 1075 928" underline-thickness="19" underline-position="-161" unicode-range="U+000D-FB02"/><glyph glyph-name=".notdef" horiz-adv-x="500"/><glyph glyph-name="glyph1" horiz-adv-x="0"/><glyph glyph-name="uni000D" horiz-adv-x="260"/><glyph glyph-name="space" horiz-adv-x="260"/><glyph glyph-name="exclam" unicode="!" horiz-adv-x="232" d="M105 508v202h22V508l-4-345h-15zM117-4q-7 0-10 4v102h19V0q-3-4-9-4z"/><glyph glyph-name="quotedbl" unicode="&quot;" horiz-adv-x="379" d="M79 710h19V485H79v225zm202 0h19V485h-19v225z"/><glyph glyph-name="numbersign" unicode="#" horiz-adv-x="749" d="M450 224H222L152 0h-20l70 224H37v19h171l73 231H117v19h170l68 217h19l-68-217h229l68 217h18l-68-217h160v-19H547l-72-231h157v-19H469L399 0h-19zm-222 19h228l73 231H300z"/><glyph glyph-name="dollar" unicode="$" horiz-adv-x="498" d="M234-8q-61 2-112 31T41 94l16 13q29-41 77.5-68.5T242 11q91 0 144 42t53 116q0 33-12.5 59.5t-34 48-51 38.5-63.5 32l-75 32q-81 35-113.5 80T57 562q0 33 14 60.5t38 48 56.5 32.5 68.5 14v81h19v-80q48-2 91.5-21.5T418 639l-16-13q-27 38-67.5 55.5T244 699q-32 0-62.5-9.5T128 662t-37-43.5T77 562q0-54 30.5-95T214 394l75-32q37-16 68.5-34.5t54-41.5 35-51.5T459 170q0-37-13-68.5T407 46 342.5 7.5 253-8v-80h-19v80z"/><glyph glyph-name="percent" unicode="%" horiz-adv-x="1040" d="M234 339q37 0 69.5 14t56.5 38 38 56.5 14 69.5-14 69.5-38 56.5-56.5 38-69.5 14-69.5-14-56.5-38-38-56.5T56 517t14-69.5 38-56.5 56.5-38 69.5-14zm0-19q-41 0-77 15.5T94.5 378t-42 62.5T37 517q0 40 15.5 76t42 63 62.5 42.5 77 15.5q40 0 76-15.5t63-42.5 42.5-63 15.5-76q0-41-15.5-76.5T373 378t-63-42.5-76-15.5zm530 390h22L276 0h-22zm42-695q37 0 69.5 14T932 67t38 56.5 14 69.5-14 69.5-38 56.5-56.5 38-69.5 14-69.5-14-56.5-38-38-56.5-14-69.5 14-69.5T680 67t56.5-38T806 15zm0-19q-41 0-77 15.5T666.5 54t-42 62.5T609 193q0 40 15.5 76t42 63 62.5 42.5 77 15.5q40 0 76-15.5t63-42.5 42.5-63 15.5-76q0-41-15.5-76.5T945 54t-63-42.5T806-4z"/><glyph glyph-name="ampersand" unicode="&amp;" horiz-adv-x="712" d="M264-8q-41 0-76 14t-60 38.5T89 102t-14 72q0 42 14 73t36 54 48 40 49 32l45 28q-39 40-67.5 81T171 574q0 32 12.5 58.5T217 678t49 29.5 58 10.5q32 0 59-10.5t47-29.5 31-44.5 11-55.5-15.5-55.5T418 476t-49.5-37.5T320 410l-24-14 206-211 110 156 15-10-112-159L683 0h-25L504 157l-1-2Q447 76 390.5 34T264-8zm0 19q63 0 115 37.5T487 164l4 6-210 217-43-27q-21-14-46-29.5t-46.5-37-36-50.5T95 174q0-33 12.5-62.5t35-52T196 24t68-13zm-73 563q0-43 24.5-81t67.5-83l22 13q27 15 53 32t47 36 34 40.5 13 46.5q0 24-9 46t-25.5 38.5-40 26.5-53.5 10q-27 0-51-9.5t-42-26-29-39.5-11-50z"/><glyph glyph-name="quotesingle" unicode="'" horiz-adv-x="177" d="M79 710h19V485H79v225z"/><glyph glyph-name="parenleft" unicode="(" horiz-adv-x="222" d="M160-116Q132-56 113-6T82.5 92.5t-16.5 99T61 301t5 109.5 16.5 99T113 608t47 110l18-8q-27-56-45.5-107.5t-30.5-101-17-99T80 301q0-53 5-102t17-98.5 30.5-101T178-108l-18-8z"/><glyph glyph-name="parenright" unicode=")" horiz-adv-x="223" d="m62-116-18 8Q71-52 89.5-.5t30.5 101 17 98.5 5 102q0 52-5 101.5t-17 99-30.5 101T44 710l18 8q28-60 47-110t30.5-98.5 16.5-99 5-109.5-5-109.5-16.5-99T109-6 62-116z"/><glyph glyph-name="asterisk" unicode="*" horiz-adv-x="416" d="m111 443 82 113-135 48 6 19 135-47v134h19V577l135 44 6-18-134-44 83-113-17-12-82 113-82-114z"/><glyph glyph-name="plus" unicode="+" horiz-adv-x="590" d="M75 280h211v201h19V280h210v-19H305V54h-19v207H75v19z"/><glyph glyph-name="comma" unicode="," horiz-adv-x="181" d="M83 0v103h19V-1L48-138H29z"/><glyph glyph-name="hyphen" unicode="-" horiz-adv-x="379" d="M76 280h227v-19H76v19z"/><glyph glyph-name="period" unicode="." horiz-adv-x="169" d="M75 103h19V0H75v103z"/><glyph glyph-name="slash" unicode="/" horiz-adv-x="440" d="M385 710h20L57 0H36z"/><glyph glyph-name="zero" unicode="0" horiz-adv-x="590" d="M496 355q0 87-15 151.5T439.5 614 376 678t-81 21-81-21-63.5-64T109 506.5 94 355t15-151.5T150.5 96 214 32t81-21 81 21 63.5 64T481 203.5 496 355zM295-8q-48 0-88.5 22.5t-70 67.5-46 113T74 355t16.5 160 46 113 70 67.5T295 718t88.5-22.5 70-67.5 46-113T516 355t-16.5-160-46-113-70-67.5T295-8z"/><glyph glyph-name="one" unicode="1" horiz-adv-x="590" d="M389 681 91 542v20l317 148V0h-19v681z"/><glyph glyph-name="two" unicode="2" horiz-adv-x="590" d="M377 333q48 51 73 98.5t25 93.5q0 39-14 71t-38.5 55-56.5 35.5-68 12.5-68-12.5-56.5-35.5-38.5-55-14-71v-2h-20q0 44 15.5 80t42.5 61.5 63 39.5 76 14 76-14 63-39.5 42.5-61T495 525q0-56-30-107t-88-114L110 19h400V0H65z"/><glyph glyph-name="three" unicode="3" horiz-adv-x="590" d="M268-8q-63 0-111 23T79 80l17 11q28-38 72.5-59T268 11q41 0 78.5 13t66 38.5 45 62.5 16.5 86q0 51-17 88.5T410 362t-69.5 37-84.5 12h-39l197 280H104v19h346L253 430h3q52 0 95.5-14.5t75-42T476 305t18-94q0-51-17.5-91.5t-48-69T357 7 268-8z"/><glyph glyph-name="four" unicode="4" horiz-adv-x="590" d="M405 208H7l417 510V227h153v-19H424V0h-19v208zm0 456L48 227h357v437z"/><glyph glyph-name="five" unicode="5" horiz-adv-x="590" d="M277-8q-63 0-110 22.5T90 78l16 12q28-38 71.5-58.5T277 11q41 0 78.5 13.5t66 39.5 45 64 16.5 87-16.5 87-45 64-66 39.5T277 419q-38 0-73.5-11T142 377l-15 13v320h338v-19H146V403q28 17 61.5 26t69.5 9q48 0 89-15.5t71.5-45 48-70.5 17.5-92-17.5-92-48-70.5-71.5-45T277-8z"/><glyph glyph-name="six" unicode="6" horiz-adv-x="590" d="M302-8q-48 0-89 17.5t-71 48-46.5 71T79 215q0 32 8.5 62.5T111 332l233 378h22L174 399q56 39 128 39 48 0 89-17.5t71-48 46.5-71T525 215t-16.5-86.5-46.5-71-71-48T302-8zm0 19q44 0 81.5 16T448 71t42 65 15 79-15 79-42 65-64.5 44-81.5 16-81.5-16-64.5-44-42-65-15-79 15-79 42-65 64.5-44T302 11z"/><glyph glyph-name="seven" unicode="7" horiz-adv-x="590" d="M501 691H79v19h454L156 0h-23z"/><glyph glyph-name="eight" unicode="8" horiz-adv-x="590" d="M295-8q-48 0-89 17.5t-71 48-46.5 71T72 215q0 39 12 73.5t33.5 63 51.5 49 67 29.5q-42 17-68 54.5T142 569q0 31 12 58t32.5 47 48.5 32 60 12q33 0 61-12t48.5-32 32-47 11.5-58q0-47-26-84.5T354 430q36-9 66.5-29.5t52-49 33.5-63 12-73.5q0-46-16.5-86.5t-46.5-71-71-48T295-8zm0 19q44 0 81.5 16T441 71t42 65 15 79-15 79-42 65-64.5 44-81.5 16-81.5-16-64.5-44-42-65-15-79 15-79 42-65 64.5-44T295 11zm0 427q28 0 52.5 10.5t42.5 28 28.5 41.5 10.5 51-10.5 50.5T390 661t-42.5 28-52.5 10q-29 0-53-10t-42-28-28-41.5-10-50.5 10-51 28-41.5 42-28 53-10.5z"/><glyph glyph-name="nine" unicode="9" horiz-adv-x="590" d="M416 311q-56-39-128-39-48 0-89 17.5t-71 48-46.5 71T65 495t16.5 86.5 46.5 71 71 48 89 17.5 89-17.5 71-48 46.5-71T511 495q0-32-8.5-62.5T479 378L246 0h-22zm-128-20q44 0 81.5 16t64.5 44 42 65 15 79-15 79-42 65-64.5 44-81.5 16-81.5-16-64.5-44-42-65-15-79 15-79 42-65 64.5-44 81.5-16z"/><glyph glyph-name="colon" unicode=":" horiz-adv-x="169" d="M75 500h19V397H75v103zm0-397h19V0H75v103z"/><glyph glyph-name="semicolon" unicode=";" horiz-adv-x="214" d="M105 500h19V397h-19v103zm0-500v103h19V-1L70-138H51z"/><glyph glyph-name="equal" unicode="=" horiz-adv-x="590" d="M70 161h449v-19H70v19zm0 238h449v-19H70v19z"/><glyph glyph-name="question" unicode="?" horiz-adv-x="539" d="M249 291h10q44 0 81.5 16t64.5 44 42 65 15 79-15 79-42 65-64.5 44-81.5 16-81.5-16-64.5-44-42-65-15-79v-1H36q0 46 16.5 87T99 652.5t71 48 89 17.5 89-17.5 71-48 46.5-71T482 495q0-45-16-85t-44.5-70-68-48-85.5-20v-71h-19v90zM259-4q-7 0-10 4v102h19V0q-3-4-9-4z"/><glyph glyph-name="at" unicode="@" horiz-adv-x="837" d="M392 165q-40 0-70 13.5T272 215t-30 53-10 62q0 44 16.5 84.5t45 71.5 68 49.5T448 554q43 0 77.5-17.5T581 491l9 42h18l-52-248q-5-24-1-43t14.5-32 26.5-20 35-7q27 0 53 15t46.5 43.5 33 70T776 406q0 72-24.5 127T684 625t-102.5 56T453 700q-83 0-152-28t-119.5-76T103 483 75 344q0-72 24-133t68-105.5 106-70T412 10q53 0 105 10t97 32l7-18Q574 13 518.5 2.5T412-8q-82 0-147.5 26.5T152.5 92 81 204 56 346q0 79 30 147t83.5 118 127 78.5T456 718q78 0 140.5-22T703 633.5t68-98T795 407q0-58-14.5-103T743 228t-53-47-60-16q-35 0-59 17t-33 45q-30-32-69-47t-77-15zm142 84q-1 13 2 31l40 187q-20 34-55.5 51.5T447 536q-42 0-77.5-16.5t-62-44.5-41.5-65.5-15-79.5q0-30 9.5-57t28-47 45.5-31.5 62-11.5q37 0 74.5 17t63.5 49z"/><glyph glyph-name="A" unicode="A" horiz-adv-x="672" d="M336 718 668 0h-21L532 249H140L25 0H4zM149 268h374L336 674z"/><glyph glyph-name="B" unicode="B" horiz-adv-x="626" d="M113 710h215q49 0 85.5-14.5T474 657t36-55.5 12-66.5q0-60-28.5-103T408 370q32-5 61.5-18.5t52.5-36 36.5-55T572 186q0-47-16-81.5t-45.5-58-71-35T347 0H113v710zM349 19q94 0 148.5 42T552 186q0 37-12.5 68T502 308t-63.5 36-90.5 13H132V19h217zm-14 357q41 0 72 12t52 33 32 50 11 63q0 33-11 61.5T458.5 645t-53 33.5T333 691H132V376h203z"/><glyph glyph-name="C" unicode="C" horiz-adv-x="679" d="M419-8q-77 0-143 27.5T161 96 84 211.5 56 355t28 143.5 77 115T276 690t143 28q65 0 122.5-19.5T645 642l-13-15q-89 72-213 72-71 0-133.5-26t-109-72T103 492 76 355t27-137 73.5-109 109-72T419 11q61 0 115.5 18.5T634 83l11-15q-47-37-104-56.5T419-8z"/><glyph glyph-name="D" unicode="D" horiz-adv-x="751" d="M309 19q82 0 149.5 25T574 114t74.5 106.5T675 355t-26.5 134.5T574 596t-115.5 70T309 691H132V19h177zM113 710h197q86 0 157-26.5t121.5-74T667 497t28-142-28-142.5T588.5 100 467 26.5 310 0H113v710z"/><glyph glyph-name="E" unicode="E" horiz-adv-x="547" d="M113 710h389v-19H132V376h310v-19H132V19h370V0H113v710z"/><glyph glyph-name="F" unicode="F" horiz-adv-x="511" d="M113 710h384v-19H132V376h295v-19H132V0h-19v710z"/><glyph glyph-name="G" unicode="G" horiz-adv-x="746" d="M419-8q-77 0-143 27.5T161 96 84 211.5 56 355t28 143.5 77 115T276 690t143 28q145 0 242-73l-12-16q-93 70-230 70-71 0-133.5-26t-109-72T103 492 76 355t27-137 73.5-109 109-72T419 11q60 0 124.5 15T658 73v284H426l9 19h242V62Q625 26 555.5 9T419-8z"/><glyph glyph-name="H" unicode="H" horiz-adv-x="766" d="M113 710h19V376h502v334h19V0h-19v357H132V0h-19v710z"/><glyph glyph-name="I" unicode="I" horiz-adv-x="245" d="M113 710h19V0h-19v710z"/><glyph glyph-name="J" unicode="J" horiz-adv-x="521" d="M222-8q-41 0-77 12T83 40t-41 60.5T27 187h19q0-84 45.5-130T222 11t130.5 46T398 187v523h19V187q0-50-15-86.5T360.5 40t-62-36T222-8z"/><glyph glyph-name="K" unicode="K" horiz-adv-x="581" d="m133 346 386 364h27L160 348 584 0h-30zm-20 364h19V0h-19v710z"/><glyph glyph-name="L" unicode="L" horiz-adv-x="517" d="M113 710h19V19h370V0H113v710z"/><glyph glyph-name="M" unicode="M" horiz-adv-x="880" d="m113 718 327-415 327 415V0h-19v662L440 274 132 662V0h-19v718z"/><glyph glyph-name="N" unicode="N" horiz-adv-x="792" d="M132 665V0h-19v718L660 45v665h19V-8z"/><glyph glyph-name="O" unicode="O" horiz-adv-x="838" d="M419 11q71 0 133.5 26t109 72T735 218t27 137-27 137-73.5 109-109 72T419 699t-133.5-26-109-72T103 492 76 355t27-137 73.5-109 109-72T419 11zm0-19q-77 0-143 27.5T161 96 84 211.5 56 355t28 143.5 77 115T276 690t143 28q76 0 142.5-28T677 613.5t77-115T782 355t-28-143.5T677 96 561.5 19.5 419-8z"/><glyph glyph-name="P" unicode="P" horiz-adv-x="561" d="M113 710h195q55 0 96-15t67.5-41 39.5-60 13-73-13-73-39.5-60-67-41-95.5-15H132V0h-19v710zm199-359q48 0 84 13t60 36 36 54 12 67-12 67-36 54-60 36-84 13H132V351h180z"/><glyph glyph-name="Q" unicode="Q" horiz-adv-x="850" d="M670 90q-48-47-112.5-72.5T419-8q-77 0-143 27.5T161 96 84 211.5 56 355t28 143.5 77 115T276 690t143 28q76 0 142.5-28T677 613.5t77-115T782 355q0-75-26-139t-72-112l98-98-14-14zM419 11q69 0 130 24t107 69l-94 95 14 14 94-95q43 45 67.5 105.5T762 355q0 74-27 137t-73.5 109-109 72T419 699t-133.5-26-109-72T103 492 76 355t27-137 73.5-109 109-72T419 11z"/><glyph glyph-name="R" unicode="R" horiz-adv-x="596" d="M274 352H132V0h-19v710h186q54 0 94-13.5t65.5-37.5 38-56.5T509 531t-12.5-71.5-38-56.5-65.5-37.5-94-13.5h-2L589 0h-24zm30 19q94 0 139.5 44T489 531t-45.5 116T304 691H132V371h172z"/><glyph glyph-name="S" unicode="S" horiz-adv-x="509" d="M249-8q-63 0-116 29T48 94l16 13q29-41 77.5-68.5T249 11q91 0 144 42t53 116q0 33-12.5 59.5t-34 48-51 38.5-63.5 32l-75 32q-81 35-113.5 80T64 562q0 34 15.5 63t41.5 49.5 60.5 32T254 718q50 0 95-20t76-59l-16-13q-27 38-67.5 55.5T251 699q-32 0-62.5-9.5T135 662t-37-43.5T84 562q0-54 30.5-95T221 394l75-32q37-16 68.5-34.5t54-41.5 35-51.5T466 170q0-38-14-70.5T410.5 43t-68-37.5T249-8z"/><glyph glyph-name="T" unicode="T" horiz-adv-x="493" d="M237 691H15v19h463v-19H256V0h-19v691z"/><glyph glyph-name="U" unicode="U" horiz-adv-x="724" d="M362-8Q238-8 170 60.5T102 260v450h19V260q0-126 65-187.5T362 11t176 61.5T603 260v450h19V260q0-131-68-199.5T362-8z"/><glyph glyph-name="V" unicode="V" horiz-adv-x="650" d="M13 710h21L325 40l291 670h21L325-8z"/><glyph glyph-name="W" unicode="W" horiz-adv-x="874" d="M24 710h21L236 54l201 664L638 54l191 656h21L638-8 437 652 236-8z"/><glyph glyph-name="X" unicode="X" horiz-adv-x="610" d="M293 370 33 710h24l248-324 248 324h24L317 370 600 0h-24L305 354 34 0H10z"/><glyph glyph-name="Y" unicode="Y" horiz-adv-x="577" d="M279 302 20 710h22l247-388 246 388h22L298 302V0h-19v302z"/><glyph glyph-name="Z" unicode="Z" horiz-adv-x="559" d="M495 691H60v19h471L42 19h490V0H5z"/><glyph glyph-name="bracketleft" unicode="[" horiz-adv-x="266" d="M105 715h139v-19H124V-96h120v-19H105v830z"/><glyph glyph-name="bracketright" unicode="]" horiz-adv-x="266" d="M161-115H22v19h120v792H22v19h139v-830z"/><glyph glyph-name="underscore" unicode="_" horiz-adv-x="535" d="M58 0h419v-19H58V0z"/><glyph glyph-name="grave" unicode="`" horiz-adv-x="171" d="M20 710h21l110-165h-21z"/><glyph glyph-name="a" unicode="a" d="M511 82q-35-42-86.5-66T310-8q-57 0-105 20.5T123 68t-53 82-19 100 19 100 53 82 82 55.5T310 508q63 0 114.5-24t86.5-66v82h19V0h-19v82zM310 11q64 0 116.5 27.5T511 111v276q-32 47-84.5 74.5T310 489q-52 0-96-18.5t-75.5-51-49.5-76T71 250t18-93.5 49.5-76 75.5-51T310 11z"/><glyph glyph-name="b" unicode="b" d="M90 710h19V418q34 42 86 66t115 24q57 0 105-20.5t82-55.5 53-82 19-100-19-100-53-82-82-55.5T310-8q-63 0-115 24t-86 66V0H90v710zm220-221q-65 0-117-27.5T109 387V111q32-45 84.5-72.5T310 11q52 0 96 18.5t75.5 51 49.5 76 18 93.5-18 93.5-49.5 76-75.5 51-96 18.5z"/><glyph glyph-name="c" unicode="c" horiz-adv-x="533" d="M310-8q-57 0-105 20.5T123 68t-53 82-19 100 19 100 53 82 82 55.5T310 508t104-20 82-55l-15-15q-32 33-75 52t-96 19q-52 0-96-18.5t-75.5-51-49.5-76T71 250t18-93.5 49.5-76 75.5-51T310 11q53 0 96 19t75 51l14-15q-34-35-81-54.5T310-8z"/><glyph glyph-name="d" unicode="d" d="M511 82q-35-42-86.5-66T310-8q-57 0-105 20.5T123 68t-53 82-19 100 19 100 53 82 82 55.5T310 508q63 0 114.5-24t86.5-66v292h19V0h-19v82zM310 11q64 0 116.5 27.5T511 111v276q-32 47-84.5 74.5T310 489q-52 0-96-18.5t-75.5-51-49.5-76T71 250t18-93.5 49.5-76 75.5-51T310 11z"/><glyph glyph-name="e" unicode="e" horiz-adv-x="575" d="M310-8q-57 0-105 20.5T123 68t-53 82-19 100 18 100 51 82 79 55.5T300 508q44 0 85.5-14.5t74-45T512 371t21-112H71v-9q0-50 18-93.5t49.5-76 75.5-51T310 11q55 0 102 20.5T491 84l14-15q-34-35-84.5-56T310-8zm-10 497q-47 0-87-16.5t-70-45-48.5-67T72 277h440q-8 104-65 158t-147 54z"/><glyph glyph-name="f" unicode="f" horiz-adv-x="303" d="M7 500h130q-27 14-43 38.5T78 595q0 52 37 83.5T220 710h75v-18h-83q-54 0-84-27.5T98 595q0-41 30-68t84-27h84v-19H158V0h-19v481H7v19z"/><glyph glyph-name="g" unicode="g" horiz-adv-x="616" d="M296-194q-60 0-117 21t-91 56l14 15q32-32 85.5-52.5T296-175q108 0 168 48T524 7q0 32-6 57t-14 40q-35-42-87-67T301 12q-54 0-99.5 19T123 83t-52 78.5T52 260t19 98.5 52 78.5 78.5 52 99.5 19q63 0 114.5-24t86.5-66v82h19V121q9-26 16-52.5T544 6q0-54-21-92t-55.5-62-79-35-92.5-11zm5 225q63 0 116 27.5t85 73.5v256q-32 46-85 73.5T301 489q-48 0-90-17.5t-73-48T89.5 351 72 260t17.5-91T138 96.5t73-48T301 31z"/><glyph glyph-name="h" unicode="h" horiz-adv-x="581" d="M90 710h19V394q24 48 72 81t117 33q100 0 150-56t50-146V0h-19v299q0 90-47 140t-134 50q-72 0-120.5-40T109 348V0H90v710z"/><glyph glyph-name="i" unicode="i" horiz-adv-x="199" d="M90 710q3 4 10 4 6 0 9-4v-90H90v90zm0-210h19V0H90v500z"/><glyph glyph-name="j" unicode="j" horiz-adv-x="207" d="M-19-165h8q33 0 54 8t33.5 24 17 41T98-32v532h19V-48q0-72-30-104t-99-32h-7v19zM98 710q3 4 10 4 6 0 9-4v-90H98v90z"/><glyph glyph-name="k" unicode="k" horiz-adv-x="469" d="M90 710h19V253l298 247h26L138 254 470 0h-29L109 253V0H90v710z"/><glyph glyph-name="l" unicode="l" horiz-adv-x="199" d="M90 710h19V0H90v710z"/><glyph glyph-name="m" unicode="m" horiz-adv-x="889" d="M787 299q0 41-9.5 75.5t-29 60-49.5 40-72 14.5q-67 0-110-39.5T455 341q1-8 1.5-17t.5-18V0h-19v299q0 41-9.5 75.5t-29 60-49.5 40-72 14.5q-65 0-107.5-37T109 349V0H90v500h19V398q23 51 65 80.5T278 508q71 0 112.5-34t57.5-92q22 57 67 91.5T627 508q46 0 80-14.5t56-41.5 32.5-64 10.5-82V0h-19v299z"/><glyph glyph-name="n" unicode="n" horiz-adv-x="581" d="M90 500h19V394q24 48 72 81t117 33q100 0 150-56t50-146V0h-19v299q0 90-47 140t-134 50q-72 0-120.5-40T109 348V0H90v500z"/><glyph glyph-name="o" unicode="o" d="M310 11q52 0 96 18.5t75.5 51 49.5 76 18 93.5-18 93.5-49.5 76-75.5 51-96 18.5-96-18.5-75.5-51-49.5-76T71 250t18-93.5 49.5-76 75.5-51T310 11zm0-19q-57 0-105 20.5T123 68t-53 82-19 100 19 100 53 82 82 55.5T310 508t105-20.5 82-55.5 53-82 19-100-19-100-53-82-82-55.5T310-8z"/><glyph glyph-name="p" unicode="p" d="M90 500h19v-82q34 42 86 66t115 24q57 0 105-20.5t82-55.5 53-82 19-100-19-100-53-82-82-55.5T310-8q-63 0-115 24t-86 66v-266H90v684zm220-11q-65 0-117-27.5T109 387V111q32-45 84.5-72.5T310 11q52 0 96 18.5t75.5 51 49.5 76 18 93.5-18 93.5-49.5 76-75.5 51-96 18.5z"/><glyph glyph-name="q" unicode="q" d="M511 82q-35-42-86.5-66T310-8q-57 0-105 20.5T123 68t-53 82-19 100 19 100 53 82 82 55.5T310 508q63 0 114.5-24t86.5-66v82h19v-684h-19V82zM310 11q64 0 116.5 27.5T511 111v276q-32 47-84.5 74.5T310 489q-52 0-96-18.5t-75.5-51-49.5-76T71 250t18-93.5 49.5-76 75.5-51T310 11z"/><glyph glyph-name="r" unicode="r" horiz-adv-x="320" d="M90 500h19v-96q20 45 62 74.5T278 508q8 0 16-.5t16-1.5v-20q-8 1-16 1.5t-16 .5q-70 0-112.5-38.5T109 353V0H90v500z"/><glyph glyph-name="s" unicode="s" horiz-adv-x="404" d="M206-8q-35 0-62.5 10.5t-48 27-34 36T41 104l19 8q20-47 55-74t91-27q63 0 99.5 29.5T342 119q0 26-8 45.5T310.5 199t-37 26-48.5 21l-53 19q-59 21-83.5 53.5T64 393q0 51 37 83t101 32q48 0 79-20.5t48-49.5l-18-10q-14 25-38 43t-71 18q-59 0-88.5-27T84 392t26.5-69 78.5-45l56-20q59-22 88-54.5t29-83.5q0-26-10.5-49.5t-30.5-41T272 2 206-8z"/><glyph glyph-name="t" unicode="t" horiz-adv-x="298" d="M7 500h114v141l19 9V500h147l-5-19H140V152q0-36 5-61t18-41 35.5-23.5T257 19h27V0h-34q-69 0-99 32t-30 104v345H12z"/><glyph glyph-name="u" unicode="u" horiz-adv-x="581" d="M472 106q-25-49-72.5-81.5T283-8Q183-8 133 48T83 194v306h19V201q0-90 47-140t134-50q71 0 120 40t69 100v349h19V0h-19v106z"/><glyph glyph-name="v" unicode="v" horiz-adv-x="514" d="M9 500h22L257 34l227 466h21L257-8z"/><glyph glyph-name="w" unicode="w" horiz-adv-x="740" d="M16 500h22L199 46l171 462L541 46l162 454h21L541-8 370 453 199-8z"/><glyph glyph-name="x" unicode="x" horiz-adv-x="498" d="M237 257 29 500h24l196-229 196 229h23L261 258 481 0h-24L249 244 40 0H17z"/><glyph glyph-name="y" unicode="y" horiz-adv-x="516" d="M247 8 11 500h22L257 30l229 470h21L174-184h-23z"/><glyph glyph-name="z" unicode="z" horiz-adv-x="475" d="M409 481H53v19h395L55 19h384V0H16z"/><glyph glyph-name="braceleft" unicode="{" horiz-adv-x="263" d="M234-115q-69 0-99 32T105 21v174q0 19-2 37t-9 31-20.5 21-36.5 8h-2v19h2q23 0 36.5 7.5t20.5 21 9 31 2 37.5v171q0 72 30 104t99 32h7v-19h-5q-34 0-56-7.5t-34.5-24-17-41.5-4.5-60V417q0-48-9-75.5T74 301q32-12 41-39.5t9-75.5V37q0-35 4.5-60.5T146-65t34.5-23.5T237-96h4v-19h-7z"/><glyph glyph-name="bar" unicode="|" horiz-adv-x="229" d="M105 710h19v-894h-19v894z"/><glyph glyph-name="braceright" unicode="}" horiz-adv-x="263" d="M29-115h-7v19h4q34 0 56 7.5T117-65t17.5 41.5T139 37v149q0 48 9 75.5t41 39.5q-32 13-41 40.5t-9 75.5v146q0 35-4.5 60t-17 41.5-34.5 24-56 7.5h-5v19h7q69 0 99-32t30-104V408q0-20 2-37.5t9-31 20.5-21T226 311h2v-19h-2q-23 0-36.5-8T169 263t-9-31-2-37V21q0-72-30-104t-99-32z"/><glyph glyph-name="uni00A0" horiz-adv-x="260"/><glyph glyph-name="exclamdown" unicode="¡" horiz-adv-x="216" d="m97-8 4 345h15l3-345v-176H97V-8zm1 508q3 4 9 4 7 0 10-4V398H98v102z"/><glyph glyph-name="sterling" unicode="£" horiz-adv-x="536" d="M54 369h145q-45 23-73.5 66T97 534q0 39 14.5 72.5T151 665t58.5 39 71.5 14 71.5-14 58.5-39 39.5-58.5T465 534h-20q0 35-13 65.5T397 652t-52 34.5-64 12.5-64-12.5-52-34.5-35-52.5-13-65.5 13-65.5 35-52.5 52-34.5 64-12.5h97v-19H219V19h279V0H54v19h146v331H54v19z"/><glyph glyph-name="yen" unicode="¥" horiz-adv-x="601" d="M120 303h170L32 710h22l247-388 246 388h22L310 303h171v-19H310V173h171v-19H310V0h-19v154H120v19h171v111H120v19z"/><glyph glyph-name="dieresis" unicode="¨" horiz-adv-x="279" d="M20 687h19V584H20v103zm220 0h19V584h-19v103z"/><glyph glyph-name="copyright" unicode="©" horiz-adv-x="834" d="M429 133q-46 0-86.5 17.5t-71 48-48 71T206 356t17.5 86.5 48 71 71 48T429 579q47 0 87.5-18t71.5-49l-16-15q-28 28-64.5 44T429 557t-78.5-16-63.5-43-43-63.5-16-78.5 16-78.5 43-63.5 63.5-43 78.5-16 78 15.5 63 42.5l16-15q-30-30-70.5-47.5T429 133zM417 16q70 0 132 27t108 73 73 108 27 132-27 132-73 108-108 73-132 27-132-27-108-73-73-108-27-132 27-132 73-108 108-73 132-27zm0-22q-75 0-140.5 28.5t-115 78-78 115T55 356t28.5 140.5 78 115 115 78T417 718t140.5-28.5 115-78 78-115T779 356t-28.5-140.5-78-115-115-78T417-6z"/><glyph glyph-name="guillemotleft" unicode="«" horiz-adv-x="471" d="m246 250 147 213 15-11-139-202L408 48l-15-11zm-190 0 147 213 15-11L79 250 218 48l-15-11z"/><glyph glyph-name="uni00AD" unicode="­" horiz-adv-x="379" d="M76 282h227v-23H76v23z"/><glyph glyph-name="macron" unicode="¯" horiz-adv-x="321" d="M22 680h278v-19H22v19z"/><glyph glyph-name="degree" unicode="°" horiz-adv-x="356" d="M178 470q-25 0-47.5 9.5t-39 26-26 39T56 592t9.5 47.5 26 39 39 26T178 714t47.5-9.5 39-26 26-39T300 592t-9.5-47.5-26-39-39-26T178 470zm0 18q21 0 40 8t33.5 22.5T274 552t8 40-8 40-22.5 33.5T218 688t-40 8-40-8-33.5-22.5T82 632t-8-40 8-40 22.5-33.5T138 496t40-8z"/><glyph glyph-name="acute" unicode="´" horiz-adv-x="171" d="M130 710h21L41 545H20z"/><glyph glyph-name="periodcentered" unicode="·" horiz-adv-x="171" d="M76 318h19V215H76v103z"/><glyph glyph-name="cedilla" unicode="¸" horiz-adv-x="171" d="M100 0h21L11-165h-21z"/><glyph glyph-name="guillemotright" unicode="»" horiz-adv-x="471" d="m268 37-15 11 139 202-139 202 15 11 147-213zM78 37 63 48l139 202L63 452l15 11 147-213z"/><glyph glyph-name="questiondown" unicode="¿" horiz-adv-x="528" d="M272 504q7 0 10-4V398h-19v102q3 4 9 4zm0-698q-48 0-89 17.5t-71 48-46.5 71T49 29q0 45 16 85t44.5 70 67.5 48 86 20v47h19v-66h-10q-44 0-81.5-16T126 173t-42-65-15-79 15-79 42-65 64.5-44 81.5-16 81.5 16 64.5 44 42 65 15 79v1h20q0-47-16.5-87.5t-46.5-71-71-48-89-17.5z"/><glyph glyph-name="Agrave" unicode="À" horiz-adv-x="672" d="M336 718 668 0h-21L532 249H140L25 0H4zM149 268h374L336 674zm67 645h21l110-145h-21z"/><glyph glyph-name="Aacute" unicode="Á" horiz-adv-x="672" d="M336 718 668 0h-21L532 249H140L25 0H4zM149 268h374L336 674zm286 645h21L346 768h-21z"/><glyph glyph-name="Acircumflex" unicode="Â" horiz-adv-x="672" d="M336 718 668 0h-21L532 249H140L25 0H4zM149 268h374L336 674zm5 521 182 139 182-139-11-13-171 129-171-129z"/><glyph glyph-name="Atilde" unicode="Ã" horiz-adv-x="672" d="M336 718 668 0h-21L532 249H140L25 0H4zM149 268h374L336 674zm29 545q8 38 27.5 58.5T256 892q25 0 45.5-11t39-24 37-24 38.5-11q28 0 42.5 18t19.5 52h19l-2-9q-8-38-27.5-59T416 803q-23 0-42.5 11t-38 24-38 24-41.5 11q-29 0-42-18.5T195 803h-19z"/><glyph glyph-name="Adieresis" unicode="Ä" horiz-adv-x="672" d="M336 718 668 0h-21L532 249H140L25 0H4zM149 268h374L336 674zm67 623h19V788h-19v103zm220 0h19V788h-19v103z"/><glyph glyph-name="Aring" unicode="Å" horiz-adv-x="672" d="M336 718 668 0h-21L532 249H140L25 0H4zM149 268h374L336 674zm186 488q-33 0-56.5 23.5T255 836t23.5 56.5T335 916t56.5-23.5T415 836t-23.5-56.5T335 756zm0 17q26 0 44 18.5t18 44.5-18 44.5-44 18.5-44-18.5-18-44.5 18-44.5 44-18.5z"/><glyph glyph-name="AE" unicode="Æ" horiz-adv-x="1055" d="m333 696-6 14h391l9-19H356l145-315h320l9-19H510L666 19h371l9-19H654L539 249H147L32 0H11zM156 268h374L343 674z"/><glyph glyph-name="Ccedilla" unicode="Ç" horiz-adv-x="679" d="M405-7q-74 3-137.5 31.5t-110.5 77T83 215 56 355q0 77 28 143.5t77 115T276 690t143 28q65 0 122.5-19.5T645 642l-13-15q-89 72-213 72-71 0-133.5-26t-109-72T103 492 76 355t27-137 73.5-109 109-72T419 11q61 0 115.5 18.5T634 83l11-15Q552-5 425-8L321-165h-21z"/><glyph glyph-name="Egrave" unicode="È" horiz-adv-x="547" d="M113 710h389v-19H132V376h310v-19H132V19h370V0H113v710zm107 203h21l110-145h-21z"/><glyph glyph-name="Eacute" unicode="É" horiz-adv-x="547" d="M113 710h389v-19H132V376h310v-19H132V19h370V0H113v710zm262 203h21L286 768h-21z"/><glyph glyph-name="Ecircumflex" unicode="Ê" horiz-adv-x="547" d="M113 710h389v-19H132V376h310v-19H132V19h370V0H113v710zm13 79 182 139 182-139-11-13-171 129-171-129z"/><glyph glyph-name="Edieresis" unicode="Ë" horiz-adv-x="547" d="M113 710h389v-19H132V376h310v-19H132V19h370V0H113v710zm76 181h19V788h-19v103zm220 0h19V788h-19v103z"/><glyph glyph-name="Igrave" unicode="Ì" horiz-adv-x="245" d="M36 913h21l110-145h-21zm77-203h19V0h-19v710z"/><glyph glyph-name="Iacute" unicode="Í" horiz-adv-x="245" d="M190 913h21L101 768H80zm-77-203h19V0h-19v710z"/><glyph glyph-name="Icircumflex" unicode="Î" horiz-adv-x="245" d="m-58 789 182 139 182-139-11-13-171 129-171-129zm171-79h19V0h-19v710z"/><glyph glyph-name="Idieresis" unicode="Ï" horiz-adv-x="245" d="M33 891q3 4 9.5 4t9.5-4V788H33v103zm160 0q3 4 9.5 4t9.5-4V788h-19v103zm-80-181h19V0h-19v710z"/><glyph glyph-name="Eth" unicode="Ð" horiz-adv-x="762" d="M4 376h120v334h197q86 0 157-26.5t121.5-74T678 497t28-142-28-142.5T599.5 100 478 26.5 321 0H124v357H4v19zM320 19q82 0 149.5 25T585 114t74.5 106.5T686 355t-26.5 134.5T585 596t-115.5 70T320 691H143V376h193v-19H143V19h177z"/><glyph glyph-name="Ntilde" unicode="Ñ" horiz-adv-x="792" d="M132 665V0h-19v718L660 45v665h19V-8zm121 148q8 38 27.5 58.5T331 892q25 0 45.5-11t39-24 37-24 38.5-11q28 0 42.5 18t19.5 52h19l-2-9q-8-38-27.5-59T491 803q-23 0-42.5 11t-38 24-38 24-41.5 11q-29 0-42-18.5T270 803h-19z"/><glyph glyph-name="Ograve" unicode="Ò" horiz-adv-x="838" d="M419 11q71 0 133.5 26t109 72T735 218t27 137-27 137-73.5 109-109 72T419 699t-133.5-26-109-72T103 492 76 355t27-137 73.5-109 109-72T419 11zm0-19q-77 0-143 27.5T161 96 84 211.5 56 355t28 143.5 77 115T276 690t143 28q76 0 142.5-28T677 613.5t77-115T782 355t-28-143.5T677 96 561.5 19.5 419-8zm-93 921h21l110-145h-21z"/><glyph glyph-name="Oacute" unicode="Ó" horiz-adv-x="838" d="M419 11q71 0 133.5 26t109 72T735 218t27 137-27 137-73.5 109-109 72T419 699t-133.5-26-109-72T103 492 76 355t27-137 73.5-109 109-72T419 11zm0-19q-77 0-143 27.5T161 96 84 211.5 56 355t28 143.5 77 115T276 690t143 28q76 0 142.5-28T677 613.5t77-115T782 355t-28-143.5T677 96 561.5 19.5 419-8zm77 921h21L407 768h-21z"/><glyph glyph-name="Ocircumflex" unicode="Ô" horiz-adv-x="838" d="M419 11q71 0 133.5 26t109 72T735 218t27 137-27 137-73.5 109-109 72T419 699t-133.5-26-109-72T103 492 76 355t27-137 73.5-109 109-72T419 11zm0-19q-77 0-143 27.5T161 96 84 211.5 56 355t28 143.5 77 115T276 690t143 28q76 0 142.5-28T677 613.5t77-115T782 355t-28-143.5T677 96 561.5 19.5 419-8zM237 789l182 139 182-139-11-13-171 129-171-129z"/><glyph glyph-name="Otilde" unicode="Õ" horiz-adv-x="838" d="M419 11q71 0 133.5 26t109 72T735 218t27 137-27 137-73.5 109-109 72T419 699t-133.5-26-109-72T103 492 76 355t27-137 73.5-109 109-72T419 11zm0-19q-77 0-143 27.5T161 96 84 211.5 56 355t28 143.5 77 115T276 690t143 28q76 0 142.5-28T677 613.5t77-115T782 355t-28-143.5T677 96 561.5 19.5 419-8zM261 813q8 38 27.5 58.5T339 892q25 0 45.5-11t39-24 37-24 38.5-11q28 0 42.5 18t19.5 52h19l-2-9q-8-38-27.5-59T499 803q-23 0-42.5 11t-38 24-38 24-41.5 11q-29 0-42-18.5T278 803h-19z"/><glyph glyph-name="Odieresis" unicode="Ö" horiz-adv-x="838" d="M419 11q71 0 133.5 26t109 72T735 218t27 137-27 137-73.5 109-109 72T419 699t-133.5-26-109-72T103 492 76 355t27-137 73.5-109 109-72T419 11zm0-19q-77 0-143 27.5T161 96 84 211.5 56 355t28 143.5 77 115T276 690t143 28q76 0 142.5-28T677 613.5t77-115T782 355t-28-143.5T677 96 561.5 19.5 419-8zM299 891h19V788h-19v103zm220 0h19V788h-19v103z"/><glyph glyph-name="multiply" unicode="×" horiz-adv-x="590" d="m135 125 146 146-149 149 14 14 149-149 142 142 13-14-142-142 149-148-14-14-149 148-146-146z"/><glyph glyph-name="Oslash" unicode="Ø" horiz-adv-x="838" d="m126-2 60 76q-60 49-95 121T56 355q0 77 28 143.5t77 115T276 690t143 28q63 0 118.5-18.5T638 647l66 83 14-12-65-83q60-49 94.5-121T782 355q0-77-28-143.5T677 96 561.5 19.5 419-8q-63 0-118 18.5T200 62l-60-76zM76 355q0-83 32.5-151T198 89l428 542q-44 32-96.5 50T419 699q-71 0-133.5-26t-109-72T103 492 76 355zM419 11q71 0 133.5 26t109 72T735 218t27 137q0 82-33 150t-89 115L212 78q44-32 96-49.5T419 11z"/><glyph glyph-name="Ugrave" unicode="Ù" horiz-adv-x="724" d="M362-8Q238-8 170 60.5T102 260v450h19V260q0-126 65-187.5T362 11t176 61.5T603 260v450h19V260q0-131-68-199.5T362-8zm-97 921h21l110-145h-21z"/><glyph glyph-name="Uacute" unicode="Ú" horiz-adv-x="724" d="M362-8Q238-8 170 60.5T102 260v450h19V260q0-126 65-187.5T362 11t176 61.5T603 260v450h19V260q0-131-68-199.5T362-8zm77 921h21L350 768h-21z"/><glyph glyph-name="Ucircumflex" unicode="Û" horiz-adv-x="724" d="M362-8Q238-8 170 60.5T102 260v450h19V260q0-126 65-187.5T362 11t176 61.5T603 260v450h19V260q0-131-68-199.5T362-8zM180 789l182 139 182-139-11-13-171 129-171-129z"/><glyph glyph-name="Udieresis" unicode="Ü" horiz-adv-x="724" d="M362-8Q238-8 170 60.5T102 260v450h19V260q0-126 65-187.5T362 11t176 61.5T603 260v450h19V260q0-131-68-199.5T362-8zM243 891h19V788h-19v103zm220 0h19V788h-19v103z"/><glyph glyph-name="Yacute" unicode="Ý" horiz-adv-x="577" d="M279 302 20 710h22l247-388 246 388h22L298 302V0h-19v302zm86 611h21L276 768h-21z"/><glyph glyph-name="Thorn" unicode="Þ" horiz-adv-x="573" d="M113 710h19V552h176q55 0 96-15t67.5-41 39.5-60 13-73-13-73-39.5-60-67-41-95.5-15H132V0h-19v710zm199-517q48 0 84 13t60 36 36 54 12 67-12 67-36 54-60 36-84 13H132V193h180z"/><glyph glyph-name="germandbls" unicode="ß" horiz-adv-x="541" d="M90 519q0 49 13.5 86t37.5 62 56.5 38 70.5 13q39 0 71.5-13t56.5-35 37-51.5 13-62.5-10-60-28-47-42-33.5-51-19.5q42-7 74.5-24.5t55-43 34.5-57 12-66.5q0-41-14.5-78.5t-43-65.5T362 16.5 263 0h-57v19h57q52 0 91 14.5t65 40 39 59.5 13 72q0 40-15.5 73t-44 56.5-69 36.5-90.5 13h-46v19h41q34 0 66 9.5t57.5 28 41 47.5 15.5 68q0 32-12.5 58.5t-34.5 45-50.5 29T268 699q-34 0-63-11t-50.5-33.5-33.5-57-12-80.5V0H90v519z"/><glyph glyph-name="agrave" unicode="à" d="M511 82q-35-42-86.5-66T310-8q-57 0-105 20.5T123 68t-53 82-19 100 19 100 53 82 82 55.5T310 508q63 0 114.5-24t86.5-66v82h19V0h-19v82zM310 11q64 0 116.5 27.5T511 111v276q-32 47-84.5 74.5T310 489q-52 0-96-18.5t-75.5-51-49.5-76T71 250t18-93.5 49.5-76 75.5-51T310 11zM210 710h21l110-165h-21z"/><glyph glyph-name="aacute" unicode="á" d="M511 82q-35-42-86.5-66T310-8q-57 0-105 20.5T123 68t-53 82-19 100 19 100 53 82 82 55.5T310 508q63 0 114.5-24t86.5-66v82h19V0h-19v82zM310 11q64 0 116.5 27.5T511 111v276q-32 47-84.5 74.5T310 489q-52 0-96-18.5t-75.5-51-49.5-76T71 250t18-93.5 49.5-76 75.5-51T310 11zm101 699h21L322 545h-21z"/><glyph glyph-name="acircumflex" unicode="â" d="M511 82q-35-42-86.5-66T310-8q-57 0-105 20.5T123 68t-53 82-19 100 19 100 53 82 82 55.5T310 508q63 0 114.5-24t86.5-66v82h19V0h-19v82zM310 11q64 0 116.5 27.5T511 111v276q-32 47-84.5 74.5T310 489q-52 0-96-18.5t-75.5-51-49.5-76T71 250t18-93.5 49.5-76 75.5-51T310 11zM149 579l162 139 162-139-12-13-150 128-150-128z"/><glyph glyph-name="atilde" unicode="ã" d="M511 82q-35-42-86.5-66T310-8q-57 0-105 20.5T123 68t-53 82-19 100 19 100 53 82 82 55.5T310 508q63 0 114.5-24t86.5-66v82h19V0h-19v82zM310 11q64 0 116.5 27.5T511 111v276q-32 47-84.5 74.5T310 489q-52 0-96-18.5t-75.5-51-49.5-76T71 250t18-93.5 49.5-76 75.5-51T310 11zM170 592q8 37 28 58t50 21q25 0 45.5-11t39-24 37-24 38.5-11q28 0 42.5 18t19.5 52h19l-2-10q-8-38-28-58.5T408 582q-23 0-42.5 11t-38 24-38 24-41.5 11q-29 0-42-18.5T187 582h-19z"/><glyph glyph-name="adieresis" unicode="ä" d="M511 82q-35-42-86.5-66T310-8q-57 0-105 20.5T123 68t-53 82-19 100 19 100 53 82 82 55.5T310 508q63 0 114.5-24t86.5-66v82h19V0h-19v82zM310 11q64 0 116.5 27.5T511 111v276q-32 47-84.5 74.5T310 489q-52 0-96-18.5t-75.5-51-49.5-76T71 250t18-93.5 49.5-76 75.5-51T310 11zM192 687h19V584h-19v103zm220 0h19V584h-19v103z"/><glyph glyph-name="aring" unicode="å" d="M511 82q-35-42-86.5-66T310-8q-57 0-105 20.5T123 68t-53 82-19 100 19 100 53 82 82 55.5T310 508q63 0 114.5-24t86.5-66v82h19V0h-19v82zM310 11q64 0 116.5 27.5T511 111v276q-32 47-84.5 74.5T310 489q-52 0-96-18.5t-75.5-51-49.5-76T71 250t18-93.5 49.5-76 75.5-51T310 11zm0 597q26 0 44 18.5t18 44.5-18 44.5-44 18.5-44-18.5-18-44.5 18-44.5 44-18.5zm0-17q-33 0-56.5 23.5T230 671t23.5 56.5T310 751t56.5-23.5T390 671t-23.5-56.5T310 591z"/><glyph glyph-name="ae" unicode="æ" horiz-adv-x="970" d="M705-8q-78 0-136.5 35.5T478 121q-42-66-103.5-97.5T237-8q-44 0-79.5 12T97 37 58.5 87.5 45 153t13.5 65.5T97 269t60.5 33 79.5 12q60 0 113-18t95-50v70q0 90-51 131.5T260 489q-57 0-102.5-20.5T84 417l-14 17q31 30 78 52t112 22q37 0 72-9t62.5-28.5 46-50T463 347q13 35 35 64.5t52 51 66.5 33.5 78.5 12q44 0 85.5-14.5t74-45T907 371t21-112H466v-9q0-50 18-93.5t49.5-76 75.5-51T705 11q55 0 102 20.5T886 84l14-15q-34-35-84.5-56T705-8zM238 11q74 0 133.5 32t98.5 95q-17 36-22 82-40 36-94 55.5T238 295q-41 0-73-10.5T111 255t-34-45-12-57 12-57 34-45 54-29.5T238 11zm457 478q-47 0-87-16.5t-70-45-48.5-67T467 277h440q-8 104-65 158t-147 54z"/><glyph glyph-name="ccedilla" unicode="ç" horiz-adv-x="533" d="M307-8q-57 1-104 21.5T122.5 69 70 150.5 51 250t19 100 53 82 82 55.5T310 508t104-20 82-55l-15-15q-32 33-75 52t-96 19q-52 0-96-18.5t-75.5-51-49.5-76T71 250t18-93.5 49.5-76 75.5-51T310 11q53 0 96 19t75 51l14-15q-31-32-73-51T329-7L224-165h-21z"/><glyph glyph-name="egrave" unicode="è" horiz-adv-x="575" d="M310-8q-57 0-105 20.5T123 68t-53 82-19 100 18 100 51 82 79 55.5T300 508q44 0 85.5-14.5t74-45T512 371t21-112H71v-9q0-50 18-93.5t49.5-76 75.5-51T310 11q55 0 102 20.5T491 84l14-15q-34-35-84.5-56T310-8zm-10 497q-47 0-87-16.5t-70-45-48.5-67T72 277h440q-8 104-65 158t-147 54zm-88 221h21l110-165h-21z"/><glyph glyph-name="eacute" unicode="é" horiz-adv-x="575" d="M310-8q-57 0-105 20.5T123 68t-53 82-19 100 18 100 51 82 79 55.5T300 508q44 0 85.5-14.5t74-45T512 371t21-112H71v-9q0-50 18-93.5t49.5-76 75.5-51T310 11q55 0 102 20.5T491 84l14-15q-34-35-84.5-56T310-8zm-10 497q-47 0-87-16.5t-70-45-48.5-67T72 277h440q-8 104-65 158t-147 54zm87 221h21L298 545h-21z"/><glyph glyph-name="ecircumflex" unicode="ê" horiz-adv-x="575" d="M310-8q-57 0-105 20.5T123 68t-53 82-19 100 18 100 51 82 79 55.5T300 508q44 0 85.5-14.5t74-45T512 371t21-112H71v-9q0-50 18-93.5t49.5-76 75.5-51T310 11q55 0 102 20.5T491 84l14-15q-34-35-84.5-56T310-8zm-10 497q-47 0-87-16.5t-70-45-48.5-67T72 277h440q-8 104-65 158t-147 54zm-162 90 162 139 162-139-12-13-150 128-150-128z"/><glyph glyph-name="edieresis" unicode="ë" horiz-adv-x="575" d="M310-8q-57 0-105 20.5T123 68t-53 82-19 100 18 100 51 82 79 55.5T300 508q44 0 85.5-14.5t74-45T512 371t21-112H71v-9q0-50 18-93.5t49.5-76 75.5-51T310 11q55 0 102 20.5T491 84l14-15q-34-35-84.5-56T310-8zm-10 497q-47 0-87-16.5t-70-45-48.5-67T72 277h440q-8 104-65 158t-147 54zM181 687h19V584h-19v103zm220 0h19V584h-19v103z"/><glyph glyph-name="igrave" unicode="ì" horiz-adv-x="199" d="M13 710h21l110-165h-21zm77-210h19V0H90v500z"/><glyph glyph-name="iacute" unicode="í" horiz-adv-x="199" d="M165 710h21L76 545H55zM90 500h19V0H90v500z"/><glyph glyph-name="icircumflex" unicode="î" horiz-adv-x="199" d="m-62 579 162 139 162-139-12-13-150 128-150-128zm152-79h19V0H90v500z"/><glyph glyph-name="idieresis" unicode="ï" horiz-adv-x="199" d="M10 687q3 4 9.5 4t9.5-4V584H10v103zm160 0q3 4 9.5 4t9.5-4V584h-19v103zM90 500h19V0H90v500z"/><glyph glyph-name="eth" unicode="ð" d="M232 610h119l-71 100h23l71-100h146v-19H387l135-189q23-32 35-70.5t12-81.5q0-53-19-100t-53-82-82-55.5T310-8 205 12.5 123 68t-53 82-19 100 19 100 53 82 82 55.5T310 508q80 0 142-39l-87 122H232v19zm78-599q52 0 96 18.5t75.5 51 49.5 76 18 93.5-18 93.5-49.5 76-75.5 51-96 18.5-96-18.5-75.5-51-49.5-76T71 250t18-93.5 49.5-76 75.5-51T310 11z"/><glyph glyph-name="ntilde" unicode="ñ" horiz-adv-x="581" d="M90 500h19V394q24 48 72 81t117 33q100 0 150-56t50-146V0h-19v299q0 90-47 140t-134 50q-72 0-120.5-40T109 348V0H90v500zm46 92q8 37 28 58t50 21q25 0 45.5-11t39-24 37-24 38.5-11q28 0 42.5 18t19.5 52h19l-2-10q-8-38-28-58.5T374 582q-23 0-42.5 11t-38 24-38 24-41.5 11q-29 0-42-18.5T153 582h-19z"/><glyph glyph-name="ograve" unicode="ò" d="M310 11q52 0 96 18.5t75.5 51 49.5 76 18 93.5-18 93.5-49.5 76-75.5 51-96 18.5-96-18.5-75.5-51-49.5-76T71 250t18-93.5 49.5-76 75.5-51T310 11zm0-19q-57 0-105 20.5T123 68t-53 82-19 100 19 100 53 82 82 55.5T310 508t105-20.5 82-55.5 53-82 19-100-19-100-53-82-82-55.5T310-8zm-98 718h21l110-165h-21z"/><glyph glyph-name="oacute" unicode="ó" d="M310 11q52 0 96 18.5t75.5 51 49.5 76 18 93.5-18 93.5-49.5 76-75.5 51-96 18.5-96-18.5-75.5-51-49.5-76T71 250t18-93.5 49.5-76 75.5-51T310 11zm0-19q-57 0-105 20.5T123 68t-53 82-19 100 19 100 53 82 82 55.5T310 508t105-20.5 82-55.5 53-82 19-100-19-100-53-82-82-55.5T310-8zm87 718h21L308 545h-21z"/><glyph glyph-name="ocircumflex" unicode="ô" d="M310 11q52 0 96 18.5t75.5 51 49.5 76 18 93.5-18 93.5-49.5 76-75.5 51-96 18.5-96-18.5-75.5-51-49.5-76T71 250t18-93.5 49.5-76 75.5-51T310 11zm0-19q-57 0-105 20.5T123 68t-53 82-19 100 19 100 53 82 82 55.5T310 508t105-20.5 82-55.5 53-82 19-100-19-100-53-82-82-55.5T310-8zM148 579l162 139 162-139-12-13-150 128-150-128z"/><glyph glyph-name="otilde" unicode="õ" d="M153 592q8 37 28 58t50 21q25 0 45.5-11t39-24 37-24 38.5-11q28 0 42.5 18t19.5 52h19l-2-10q-8-38-28-58.5T391 582q-23 0-42.5 11t-38 24-38 24-41.5 11q-29 0-42-18.5T170 582h-19zM310 11q52 0 96 18.5t75.5 51 49.5 76 18 93.5-18 93.5-49.5 76-75.5 51-96 18.5-96-18.5-75.5-51-49.5-76T71 250t18-93.5 49.5-76 75.5-51T310 11zm0-19q-57 0-105 20.5T123 68t-53 82-19 100 19 100 53 82 82 55.5T310 508t105-20.5 82-55.5 53-82 19-100-19-100-53-82-82-55.5T310-8z"/><glyph glyph-name="odieresis" unicode="ö" d="M310 11q52 0 96 18.5t75.5 51 49.5 76 18 93.5-18 93.5-49.5 76-75.5 51-96 18.5-96-18.5-75.5-51-49.5-76T71 250t18-93.5 49.5-76 75.5-51T310 11zm0-19q-57 0-105 20.5T123 68t-53 82-19 100 19 100 53 82 82 55.5T310 508t105-20.5 82-55.5 53-82 19-100-19-100-53-82-82-55.5T310-8zM191 687h19V584h-19v103zm220 0h19V584h-19v103z"/><glyph glyph-name="divide" unicode="÷" horiz-adv-x="590" d="M285 184h19V81h-19v103zm0 276h19V357h-19v103zM75 280h440v-19H75v19z"/><glyph glyph-name="oslash" unicode="ø" horiz-adv-x="622" d="m72 2 56 63q-36 35-55.5 82.5T53 250q0 53 19 100t53 82 82 55.5T312 508q48 0 89-14t73-40l51 58 13-13-50-57q39-35 61-85t22-107q0-53-19-100t-53-82-82-55.5T312-8q-51 0-94.5 16T141 52L85-11zm240 9q52 0 96 18.5t75.5 51 49.5 76 18 93.5q0 54-20.5 99.5T475 428L154 67q31-26 71-41t87-15zM73 250q0-51 18-94.5T141 80l319 359q-30 23-67.5 36.5T312 489q-52 0-96-18.5t-75.5-51-49.5-76T73 250z"/><glyph glyph-name="ugrave" unicode="ù" horiz-adv-x="581" d="M472 106q-25-49-72.5-81.5T283-8Q183-8 133 48T83 194v306h19V201q0-90 47-140t134-50q71 0 120 40t69 100v349h19V0h-19v106zM199 710h21l110-165h-21z"/><glyph glyph-name="uacute" unicode="ú" horiz-adv-x="581" d="M472 106q-25-49-72.5-81.5T283-8Q183-8 133 48T83 194v306h19V201q0-90 47-140t134-50q71 0 120 40t69 100v349h19V0h-19v106zM353 710h21L264 545h-21z"/><glyph glyph-name="ucircumflex" unicode="û" horiz-adv-x="581" d="M472 106q-25-49-72.5-81.5T283-8Q183-8 133 48T83 194v306h19V201q0-90 47-140t134-50q71 0 120 40t69 100v349h19V0h-19v106zM125 579l162 139 162-139-12-13-150 128-150-128z"/><glyph glyph-name="udieresis" unicode="ü" horiz-adv-x="581" d="M472 106q-25-49-72.5-81.5T283-8Q183-8 133 48T83 194v306h19V201q0-90 47-140t134-50q71 0 120 40t69 100v349h19V0h-19v106zM168 687h19V584h-19v103zm220 0h19V584h-19v103z"/><glyph glyph-name="yacute" unicode="ý" horiz-adv-x="516" d="M247 8 11 500h22L257 30l229 470h21L174-184h-23zm110 702h21L268 545h-21z"/><glyph glyph-name="thorn" unicode="þ" d="M90 710h19V418q34 42 86 66t115 24q57 0 105-20.5t82-55.5 53-82 19-100-19-100-53-82-82-55.5T310-8q-63 0-115 24t-86 66v-266H90v894zm220-221q-65 0-117-27.5T109 387V111q32-45 84.5-72.5T310 11q52 0 96 18.5t75.5 51 49.5 76 18 93.5-18 93.5-49.5 76-75.5 51-96 18.5z"/><glyph glyph-name="ydieresis" unicode="ÿ" horiz-adv-x="516" d="M247 8 11 500h22L257 30l229 470h21L174-184h-23zM139 687h19V584h-19v103zm220 0h19V584h-19v103z"/><glyph glyph-name="Amacron" unicode="Ā" horiz-adv-x="672" d="M336 718 668 0h-21L532 249H140L25 0H4zM149 268h374L336 674zm48 582h278v-19H197v19z"/><glyph glyph-name="amacron" unicode="ā" d="M511 82q-35-42-86.5-66T310-8q-57 0-105 20.5T123 68t-53 82-19 100 19 100 53 82 82 55.5T310 508q63 0 114.5-24t86.5-66v82h19V0h-19v82zM310 11q64 0 116.5 27.5T511 111v276q-32 47-84.5 74.5T310 489q-52 0-96-18.5t-75.5-51-49.5-76T71 250t18-93.5 49.5-76 75.5-51T310 11zM191 680h278v-19H191v19z"/><glyph glyph-name="Abreve" unicode="Ă" horiz-adv-x="672" d="M336 718 668 0h-21L532 249H140L25 0H4zM149 268h374L336 674zm187 513q-64 0-98.5 32.5T199 902h18q8-56 38-79t81-23 80.5 23 37.5 79h18q-4-56-38-88.5T336 781z"/><glyph glyph-name="abreve" unicode="ă" d="M511 82q-35-42-86.5-66T310-8q-57 0-105 20.5T123 68t-53 82-19 100 19 100 53 82 82 55.5T310 508q63 0 114.5-24t86.5-66v82h19V0h-19v82zM310 11q64 0 116.5 27.5T511 111v276q-32 47-84.5 74.5T310 489q-52 0-96-18.5t-75.5-51-49.5-76T71 250t18-93.5 49.5-76 75.5-51T310 11zm1 578q-64 0-98.5 32.5T174 710h18q8-56 38-79t81-23 80.5 23 37.5 79h18q-4-56-38-88.5T311 589z"/><glyph glyph-name="Aogonek" unicode="Ą" horiz-adv-x="672" d="M336 718 668 0q-15-6-30.5-17.5t-27.5-26-20-31-8-33.5 6-29 15-20 18.5-12 16.5-4 15 1.5 16 6.5v-20q-14-7-30-7-12 0-25.5 5t-25 15.5-19 26T562-109q0 17 7 33.5t18.5 31 27 26T647 0L532 249H140L25 0H4zM149 268h374L336 674z"/><glyph glyph-name="aogonek" unicode="ą" d="M511 82q-35-42-86.5-66T310-8q-57 0-105 20.5T123 68t-53 82-19 100 19 100 53 82 82 55.5T310 508q63 0 114.5-24t86.5-66v82h19V0q-14-7-29-18.5T474-44t-20-30.5-8-33.5 6-29 15-20 18.5-12 16.5-4 15 1.5 16 6.5v-20q-14-7-30-7-12 0-25.5 5t-25 15.5-19 26T426-109q0 17 7 33.5t18.5 31 27 26T511 0v82zM310 11q64 0 116.5 27.5T511 111v276q-32 47-84.5 74.5T310 489q-52 0-96-18.5t-75.5-51-49.5-76T71 250t18-93.5 49.5-76 75.5-51T310 11z"/><glyph glyph-name="Cacute" unicode="Ć" horiz-adv-x="679" d="M419-8q-77 0-143 27.5T161 96 84 211.5 56 355t28 143.5 77 115T276 690t143 28q65 0 122.5-19.5T645 642l-13-15q-89 72-213 72-71 0-133.5-26t-109-72T103 492 76 355t27-137 73.5-109 109-72T419 11q61 0 115.5 18.5T634 83l11-15q-47-37-104-56.5T419-8zm67 921h21L397 768h-21z"/><glyph glyph-name="cacute" unicode="ć" horiz-adv-x="533" d="M310-8q-57 0-105 20.5T123 68t-53 82-19 100 19 100 53 82 82 55.5T310 508t104-20 82-55l-15-15q-32 33-75 52t-96 19q-52 0-96-18.5t-75.5-51-49.5-76T71 250t18-93.5 49.5-76 75.5-51T310 11q53 0 96 19t75 51l14-15q-34-35-81-54.5T310-8zm76 718h21L297 545h-21z"/><glyph glyph-name="Ccircumflex" unicode="Ĉ" horiz-adv-x="679" d="M419-8q-77 0-143 27.5T161 96 84 211.5 56 355t28 143.5 77 115T276 690t143 28q65 0 122.5-19.5T645 642l-13-15q-89 72-213 72-71 0-133.5-26t-109-72T103 492 76 355t27-137 73.5-109 109-72T419 11q61 0 115.5 18.5T634 83l11-15q-47-37-104-56.5T419-8zM237 789l182 139 182-139-11-13-171 129-171-129z"/><glyph glyph-name="ccircumflex" unicode="ĉ" horiz-adv-x="533" d="M310-8q-57 0-105 20.5T123 68t-53 82-19 100 19 100 53 82 82 55.5T310 508t104-20 82-55l-15-15q-32 33-75 52t-96 19q-52 0-96-18.5t-75.5-51-49.5-76T71 250t18-93.5 49.5-76 75.5-51T310 11q53 0 96 19t75 51l14-15q-34-35-81-54.5T310-8zM148 579l162 139 162-139-12-13-150 128-150-128z"/><glyph glyph-name="Cdotaccent" unicode="Ċ" horiz-adv-x="679" d="M419-8q-77 0-143 27.5T161 96 84 211.5 56 355t28 143.5 77 115T276 690t143 28q65 0 122.5-19.5T645 642l-13-15q-89 72-213 72-71 0-133.5-26t-109-72T103 492 76 355t27-137 73.5-109 109-72T419 11q61 0 115.5 18.5T634 83l11-15q-47-37-104-56.5T419-8zm-9 899h19V788h-19v103z"/><glyph glyph-name="cdotaccent" unicode="ċ" horiz-adv-x="533" d="M310-8q-57 0-105 20.5T123 68t-53 82-19 100 19 100 53 82 82 55.5T310 508t104-20 82-55l-15-15q-32 33-75 52t-96 19q-52 0-96-18.5t-75.5-51-49.5-76T71 250t18-93.5 49.5-76 75.5-51T310 11q53 0 96 19t75 51l14-15q-34-35-81-54.5T310-8zm-9 695h19V584h-19v103z"/><glyph glyph-name="Ccaron" unicode="Č" horiz-adv-x="679" d="M419-8q-77 0-143 27.5T161 96 84 211.5 56 355t28 143.5 77 115T276 690t143 28q65 0 122.5-19.5T645 642l-13-15q-89 72-213 72-71 0-133.5-26t-109-72T103 492 76 355t27-137 73.5-109 109-72T419 11q61 0 115.5 18.5T634 83l11-15q-47-37-104-56.5T419-8zM237 910l11 13 171-129 171 129 11-13-182-139z"/><glyph glyph-name="ccaron" unicode="č" horiz-adv-x="533" d="M310-8q-57 0-105 20.5T123 68t-53 82-19 100 19 100 53 82 82 55.5T310 508t104-20 82-55l-15-15q-32 33-75 52t-96 19q-52 0-96-18.5t-75.5-51-49.5-76T71 250t18-93.5 49.5-76 75.5-51T310 11q53 0 96 19t75 51l14-15q-34-35-81-54.5T310-8zm0 574L148 705l12 13 150-128 150 128 12-13z"/><glyph glyph-name="Dcaron" unicode="Ď" horiz-adv-x="751" d="M309 19q82 0 149.5 25T574 114t74.5 106.5T675 355t-26.5 134.5T574 596t-115.5 70T309 691H132V19h177zM113 710h197q86 0 157-26.5t121.5-74T667 497t28-142-28-142.5T588.5 100 467 26.5 310 0H113v710zm49 200 11 13 171-129 171 129 11-13-182-139z"/><glyph glyph-name="dcaron" unicode="ď" horiz-adv-x="644" d="M511 82q-35-42-86.5-66T310-8q-57 0-105 20.5T123 68t-53 82-19 100 19 100 53 82 82 55.5T310 508q63 0 114.5-24t86.5-66v292h19V0h-19v82zM310 11q64 0 116.5 27.5T511 111v276q-32 47-84.5 74.5T310 489q-52 0-96-18.5t-75.5-51-49.5-76T71 250t18-93.5 49.5-76 75.5-51T310 11zm329 699h20l-32-170h-17z"/><glyph glyph-name="Dcroat" unicode="Đ" horiz-adv-x="762" d="M4 376h120v334h197q86 0 157-26.5t121.5-74T678 497t28-142-28-142.5T599.5 100 478 26.5 321 0H124v357H4v19zM320 19q82 0 149.5 25T585 114t74.5 106.5T686 355t-26.5 134.5T585 596t-115.5 70T320 691H143V376h193v-19H143V19h177z"/><glyph glyph-name="dcroat" unicode="đ" d="M322 628h189v82h19v-82h86v-19h-86V0h-19v82q-35-42-86.5-66T310-8q-57 0-105 20.5T123 68t-53 82-19 100 19 100 53 82 82 55.5T310 508q63 0 114.5-24t86.5-66v191H322v19zM310 11q64 0 116.5 27.5T511 111v276q-32 47-84.5 74.5T310 489q-52 0-96-18.5t-75.5-51-49.5-76T71 250t18-93.5 49.5-76 75.5-51T310 11z"/><glyph glyph-name="Emacron" unicode="Ē" horiz-adv-x="547" d="M113 710h389v-19H132V376h310v-19H132V19h370V0H113v710zm56 140h278v-19H169v19z"/><glyph glyph-name="emacron" unicode="ē" horiz-adv-x="575" d="M310-8q-57 0-105 20.5T123 68t-53 82-19 100 18 100 51 82 79 55.5T300 508q44 0 85.5-14.5t74-45T512 371t21-112H71v-9q0-50 18-93.5t49.5-76 75.5-51T310 11q55 0 102 20.5T491 84l14-15q-34-35-84.5-56T310-8zm-10 497q-47 0-87-16.5t-70-45-48.5-67T72 277h440q-8 104-65 158t-147 54zM161 680h278v-19H161v19z"/><glyph glyph-name="Ebreve" unicode="Ĕ" horiz-adv-x="547" d="M113 710h389v-19H132V376h310v-19H132V19h370V0H113v710zm195 71q-64 0-98.5 32.5T171 902h18q8-56 38-79t81-23 80.5 23 37.5 79h18q-4-56-38-88.5T308 781z"/><glyph glyph-name="ebreve" unicode="ĕ" horiz-adv-x="575" d="M310-8q-57 0-105 20.5T123 68t-53 82-19 100 18 100 51 82 79 55.5T300 508q44 0 85.5-14.5t74-45T512 371t21-112H71v-9q0-50 18-93.5t49.5-76 75.5-51T310 11q55 0 102 20.5T491 84l14-15q-34-35-84.5-56T310-8zm-10 497q-47 0-87-16.5t-70-45-48.5-67T72 277h440q-8 104-65 158t-147 54zm-1 100q-64 0-98.5 32.5T162 710h18q8-56 38-79t81-23 80.5 23 37.5 79h18q-4-56-38-88.5T299 589z"/><glyph glyph-name="Edotaccent" unicode="Ė" horiz-adv-x="547" d="M113 710h389v-19H132V376h310v-19H132V19h370V0H113v710zm184 181h19V788h-19v103z"/><glyph glyph-name="edotaccent" unicode="ė" horiz-adv-x="575" d="M310-8q-57 0-105 20.5T123 68t-53 82-19 100 18 100 51 82 79 55.5T300 508q44 0 85.5-14.5t74-45T512 371t21-112H71v-9q0-50 18-93.5t49.5-76 75.5-51T310 11q55 0 102 20.5T491 84l14-15q-34-35-84.5-56T310-8zm-10 497q-47 0-87-16.5t-70-45-48.5-67T72 277h440q-8 104-65 158t-147 54zm-10 198h19V584h-19v103z"/><glyph glyph-name="Eogonek" unicode="Ę" horiz-adv-x="547" d="M113 710h389v-19H132V376h310v-19H132V19h370V0q-16-7-31.5-18.5t-28-26-20-31T415-109q0-19 6-31.5t15-19.5 20.5-10 22.5-3q15 0 28 4t19 9v-20q-10-6-24.5-9t-25.5-3q-32 0-56.5 20T395-110q0 17 7 33.5T420.5-45t27 26.5T480 0H113v710z"/><glyph glyph-name="eogonek" unicode="ę" horiz-adv-x="575" d="M310-8q-57 0-105 20.5T123 68t-53 82-19 100 18 100 51 82 79 55.5T300 508q44 0 85.5-14.5t74-45T512 371t21-112H71v-9q0-50 18-93.5t49.5-76 75.5-51T310 11q55 0 102 20.5T491 84l14-15q-30-31-74-51T335-7q-29-16-50.5-44T263-109q0-19 6-31.5t15-19.5 20.5-10 22.5-3q15 0 28 4t19 9v-20q-10-6-24.5-9t-25.5-3q-32 0-56.5 20T243-110q0 30 19.5 58T311-8h-1zm-10 497q-47 0-87-16.5t-70-45-48.5-67T72 277h440q-8 104-65 158t-147 54z"/><glyph glyph-name="Ecaron" unicode="Ě" horiz-adv-x="547" d="M113 710h389v-19H132V376h310v-19H132V19h370V0H113v710zm13 200 11 13 171-129 171 129 11-13-182-139z"/><glyph glyph-name="ecaron" unicode="ě" horiz-adv-x="575" d="M310-8q-57 0-105 20.5T123 68t-53 82-19 100 18 100 51 82 79 55.5T300 508q44 0 85.5-14.5t74-45T512 371t21-112H71v-9q0-50 18-93.5t49.5-76 75.5-51T310 11q55 0 102 20.5T491 84l14-15q-34-35-84.5-56T310-8zm-10 497q-47 0-87-16.5t-70-45-48.5-67T72 277h440q-8 104-65 158t-147 54zm0 77L138 705l12 13 150-128 150 128 12-13z"/><glyph glyph-name="Gcircumflex" unicode="Ĝ" horiz-adv-x="746" d="M419-8q-77 0-143 27.5T161 96 84 211.5 56 355t28 143.5 77 115T276 690t143 28q145 0 242-73l-12-16q-93 70-230 70-71 0-133.5-26t-109-72T103 492 76 355t27-137 73.5-109 109-72T419 11q60 0 124.5 15T658 73v284H426l9 19h242V62Q625 26 555.5 9T419-8zM237 789l182 139 182-139-11-13-171 129-171-129z"/><glyph glyph-name="gcircumflex" unicode="ĝ" horiz-adv-x="616" d="M296-194q-60 0-117 21t-91 56l14 15q32-32 85.5-52.5T296-175q108 0 168 48T524 7q0 32-6 57t-14 40q-35-42-87-67T301 12q-54 0-99.5 19T123 83t-52 78.5T52 260t19 98.5 52 78.5 78.5 52 99.5 19q63 0 114.5-24t86.5-66v82h19V121q9-26 16-52.5T544 6q0-54-21-92t-55.5-62-79-35-92.5-11zm5 225q63 0 116 27.5t85 73.5v256q-32 46-85 73.5T301 489q-48 0-90-17.5t-73-48T89.5 351 72 260t17.5-91T138 96.5t73-48T301 31zM140 579l162 139 162-139-12-13-150 128-150-128z"/><glyph glyph-name="Gbreve" unicode="Ğ" horiz-adv-x="746" d="M419-8q-77 0-143 27.5T161 96 84 211.5 56 355t28 143.5 77 115T276 690t143 28q145 0 242-73l-12-16q-93 70-230 70-71 0-133.5-26t-109-72T103 492 76 355t27-137 73.5-109 109-72T419 11q60 0 124.5 15T658 73v284H426l9 19h242V62Q625 26 555.5 9T419-8zm0 789q-64 0-98.5 32.5T282 902h18q8-56 38-79t81-23 80.5 23 37.5 79h18q-4-56-38-88.5T419 781z"/><glyph glyph-name="gbreve" unicode="ğ" horiz-adv-x="616" d="M296-194q-60 0-117 21t-91 56l14 15q32-32 85.5-52.5T296-175q108 0 168 48T524 7q0 32-6 57t-14 40q-35-42-87-67T301 12q-54 0-99.5 19T123 83t-52 78.5T52 260t19 98.5 52 78.5 78.5 52 99.5 19q63 0 114.5-24t86.5-66v82h19V121q9-26 16-52.5T544 6q0-54-21-92t-55.5-62-79-35-92.5-11zm5 225q63 0 116 27.5t85 73.5v256q-32 46-85 73.5T301 489q-48 0-90-17.5t-73-48T89.5 351 72 260t17.5-91T138 96.5t73-48T301 31zm0 558q-64 0-98.5 32.5T164 710h18q8-56 38-79t81-23 80.5 23 37.5 79h18q-4-56-38-88.5T301 589z"/><glyph glyph-name="Gdotaccent" unicode="Ġ" horiz-adv-x="746" d="M419-8q-77 0-143 27.5T161 96 84 211.5 56 355t28 143.5 77 115T276 690t143 28q145 0 242-73l-12-16q-93 70-230 70-71 0-133.5-26t-109-72T103 492 76 355t27-137 73.5-109 109-72T419 11q60 0 124.5 15T658 73v284H426l9 19h242V62Q625 26 555.5 9T419-8zm-9 899h19V788h-19v103z"/><glyph glyph-name="gdotaccent" unicode="ġ" horiz-adv-x="616" d="M296-194q-60 0-117 21t-91 56l14 15q32-32 85.5-52.5T296-175q108 0 168 48T524 7q0 32-6 57t-14 40q-35-42-87-67T301 12q-54 0-99.5 19T123 83t-52 78.5T52 260t19 98.5 52 78.5 78.5 52 99.5 19q63 0 114.5-24t86.5-66v82h19V121q9-26 16-52.5T544 6q0-54-21-92t-55.5-62-79-35-92.5-11zm5 225q63 0 116 27.5t85 73.5v256q-32 46-85 73.5T301 489q-48 0-90-17.5t-73-48T89.5 351 72 260t17.5-91T138 96.5t73-48T301 31zm-9 656h19V584h-19v103z"/><glyph glyph-name="uni0122" unicode="Ģ" horiz-adv-x="746" d="M419-8q-77 0-143 27.5T161 96 84 211.5 56 355t28 143.5 77 115T276 690t143 28q145 0 242-73l-12-16q-93 70-230 70-71 0-133.5-26t-109-72T103 492 76 355t27-137 73.5-109 109-72T419 11q60 0 124.5 15T658 73v284H426l9 19h242V62Q625 26 555.5 9T419-8zm-10-42h21L320-215h-21z"/><glyph glyph-name="uni0123" unicode="ģ" horiz-adv-x="616" d="M296-194q-60 0-117 21t-91 56l14 15q32-32 85.5-52.5T296-175q108 0 168 48T524 7q0 32-6 57t-14 40q-35-42-87-67T301 12q-54 0-99.5 19T123 83t-52 78.5T52 260t19 98.5 52 78.5 78.5 52 99.5 19q63 0 114.5-24t86.5-66v82h19V121q9-26 16-52.5T544 6q0-54-21-92t-55.5-62-79-35-92.5-11zm5 225q63 0 116 27.5t85 73.5v256q-32 46-85 73.5T301 489q-48 0-90-17.5t-73-48T89.5 351 72 260t17.5-91T138 96.5t73-48T301 31zm11.008 513.997h-20.999l109.994 164.99h20.998z"/><glyph glyph-name="Hcircumflex" unicode="Ĥ" horiz-adv-x="766" d="M113 710h19V376h502v334h19V0h-19v357H132V0h-19v710zm88 79 182 139 182-139-11-13-171 129-171-129z"/><glyph glyph-name="hcircumflex" unicode="ĥ" horiz-adv-x="581" d="M90 710h19V394q24 48 72 81t117 33q100 0 150-56t50-146V0h-19v299q0 90-47 140t-134 50q-72 0-120.5-40T109 348V0H90v710zm21 79 182 139 182-139-11-13-171 129-171-129z"/><glyph glyph-name="Hbar" unicode="Ħ" horiz-adv-x="766" d="M48 553h65v157h19V553h502v157h19V553h65v-19h-65V0h-19v357H132V0h-19v534H48v19zm586-177v158H132V376h502z"/><glyph glyph-name="hbar" unicode="ħ" horiz-adv-x="581" d="M1 628h89v82h19v-82h186v-19H109V394q24 48 72 81t117 33q100 0 150-56t50-146V0h-19v299q0 90-47 140t-134 50q-72 0-120.5-40T109 348V0H90v609H1v19z"/><glyph glyph-name="Itilde" unicode="Ĩ" horiz-adv-x="245" d="M113 710h19V0h-19v710zM-35 813q8 38 27.5 58.5T43 892q25 0 45.5-11t39-24 37-24 38.5-11q28 0 42.5 18t19.5 52h19l-2-9q-8-38-27.5-59T203 803q-23 0-42.5 11t-38 24-38 24T43 873q-29 0-42-18.5T-18 803h-19z"/><glyph glyph-name="itilde" unicode="ĩ" horiz-adv-x="199" d="M90 500h19V0H90v500zm-148 92q8 37 28 58t50 21q25 0 45.5-11t39-24 37-24 38.5-11q28 0 42.5 18t19.5 52h19l-2-10q-8-38-28-58.5T180 582q-23 0-42.5 11t-38 24-38 24T20 652q-29 0-42-18.5T-41 582h-19z"/><glyph glyph-name="Imacron" unicode="Ī" horiz-adv-x="245" d="M113 710h19V0h-19v710zM-16 850h278v-19H-16v19z"/><glyph glyph-name="imacron" unicode="ī" horiz-adv-x="199" d="M90 500h19V0H90v500zM-39 680h278v-19H-39v19z"/><glyph glyph-name="Ibreve" unicode="Ĭ" horiz-adv-x="245" d="M113 710h19V0h-19v710zm11 71q-64 0-98.5 32.5T-13 902H5q8-56 38-79t81-23 80.5 23 37.5 79h18q-4-56-38-88.5T124 781z"/><glyph glyph-name="ibreve" unicode="ĭ" horiz-adv-x="199" d="M90 500h19V0H90v500zm10 89q-64 0-98.5 32.5T-37 710h18q8-56 38-79t81-23 80.5 23 37.5 79h18q-4-56-38-88.5T100 589z"/><glyph glyph-name="Iogonek" unicode="Į" horiz-adv-x="245" d="M113 710h19V0q-15-7-30.5-18.5T74-44 54-74.5 46-108t6-29 15-20 18.5-12 16.5-4 15 1.5 16 6.5v-20q-14-7-30-7-12 0-25.5 5t-25 15.5-19 26T26-109q0 17 7.5 33.5t19.5 31 27.5 26T113 0v710z"/><glyph glyph-name="iogonek" unicode="į" horiz-adv-x="199" d="M90 500h19V0Q93-7 78-18.5t-27-26-19-31-7-33.5q0-19 6-31.5T46-160t20.5-10 22.5-3q15 0 28 4t19 9v-20q-10-6-24.5-9T86-192q-32 0-56.5 20T5-110q0 17 7 33.5T30.5-45t27 26.5T90 0v500zm0 210q3 4 10 4 6 0 9-4v-90H90v90z"/><glyph glyph-name="Idotaccent" unicode="İ" horiz-adv-x="245" d="M113 710h19V0h-19v710zm0 181h19V788h-19v103z"/><glyph glyph-name="dotlessi" unicode="ı" horiz-adv-x="199" d="M90 500h19V0H90v500z"/><glyph glyph-name="Jcircumflex" unicode="Ĵ" horiz-adv-x="521" d="M222-8q-41 0-77 12T83 40t-41 60.5T27 187h19q0-84 45.5-130T222 11t130.5 46T398 187v523h19V187q0-50-15-86.5T360.5 40t-62-36T222-8zm3 797 182 139 182-139-11-13-171 129-171-129z"/><glyph glyph-name="jcircumflex" unicode="ĵ" horiz-adv-x="207" d="M-19-165h8q33 0 54 8t33.5 24 17 41T98-32v532h19V-48q0-72-30-104t-99-32h-7v19zm-35 744 162 139 162-139-12-13-150 128-150-128z"/><glyph glyph-name="uni0136" unicode="Ķ" horiz-adv-x="581" d="m133 346 386 364h27L160 348 584 0h-30zm-20 364h19V0h-19v710zM318-50h21L229-215h-21z"/><glyph glyph-name="uni0137" unicode="ķ" horiz-adv-x="469" d="M90 710h19V253l298 247h26L138 254 470 0h-29L109 253V0H90v710zM260-50h21L171-215h-21z"/><glyph glyph-name="Lacute" unicode="Ĺ" horiz-adv-x="517" d="M223 913h21L134 768h-21zM113 710h19V19h370V0H113v710z"/><glyph glyph-name="lacute" unicode="ĺ" horiz-adv-x="199" d="M90 710h19V0H90v710zm109 203h21L110 768H89z"/><glyph glyph-name="uni013B" unicode="Ļ" horiz-adv-x="517" d="M113 710h19V19h370V0H113v710zM297-50h21L208-215h-21z"/><glyph glyph-name="uni013C" unicode="ļ" horiz-adv-x="199" d="M90 710h19V0H90v710zm0-760h21L1-215h-21z"/><glyph glyph-name="Lcaron" unicode="Ľ" horiz-adv-x="517" d="M113 710h19V19h370V0H113v710zm148 0h20l-32-170h-17z"/><glyph glyph-name="lcaron" unicode="ľ" horiz-adv-x="223" d="M90 710h19V0H90v710zm129 0h20l-32-170h-17z"/><glyph glyph-name="Ldot" unicode="Ŀ" horiz-adv-x="519" d="M113 710h19V19h370V0H113v710zm250-295h19V312h-19v103z"/><glyph glyph-name="ldot" unicode="ŀ" horiz-adv-x="198" d="M90 710h19V0H90v710zm99-309h19V298h-19v103z"/><glyph glyph-name="Lslash" unicode="Ł" horiz-adv-x="527" d="m17 256 105 72v382h19V341l181 124 10-15-191-131V19h370V0H122v306l-95-65z"/><glyph glyph-name="lslash" unicode="ł" horiz-adv-x="299" d="m18 276 122 84v350h19V373l112 77 10-15-122-84V0h-19v338L28 261z"/><glyph glyph-name="Nacute" unicode="Ń" horiz-adv-x="792" d="M132 665V0h-19v718L660 45v665h19V-8zm331 248h21L374 768h-21z"/><glyph glyph-name="nacute" unicode="ń" horiz-adv-x="581" d="M90 500h19V394q24 48 72 81t117 33q100 0 150-56t50-146V0h-19v299q0 90-47 140t-134 50q-72 0-120.5-40T109 348V0H90v500zm270 210h21L271 545h-21z"/><glyph glyph-name="uni0145" unicode="Ņ" horiz-adv-x="792" d="M132 665V0h-19v718L660 45v665h19V-8zM386-50h21L297-215h-21z"/><glyph glyph-name="uni0146" unicode="ņ" horiz-adv-x="581" d="M90 500h19V394q24 48 72 81t117 33q100 0 150-56t50-146V0h-19v299q0 90-47 140t-134 50q-72 0-120.5-40T109 348V0H90v500zM284-50h21L195-215h-21z"/><glyph glyph-name="Ncaron" unicode="Ň" horiz-adv-x="792" d="M132 665V0h-19v718L660 45v665h19V-8zm103 245 11 13 171-129 171 129 11-13-182-139z"/><glyph glyph-name="ncaron" unicode="ň" horiz-adv-x="581" d="M90 500h19V394q24 48 72 81t117 33q100 0 150-56t50-146V0h-19v299q0 90-47 140t-134 50q-72 0-120.5-40T109 348V0H90v500zm204 66L132 705l12 13 150-128 150 128 12-13z"/><glyph glyph-name="Omacron" unicode="Ō" horiz-adv-x="838" d="M419 11q71 0 133.5 26t109 72T735 218t27 137-27 137-73.5 109-109 72T419 699t-133.5-26-109-72T103 492 76 355t27-137 73.5-109 109-72T419 11zm0-19q-77 0-143 27.5T161 96 84 211.5 56 355t28 143.5 77 115T276 690t143 28q76 0 142.5-28T677 613.5t77-115T782 355t-28-143.5T677 96 561.5 19.5 419-8zM280 850h278v-19H280v19z"/><glyph glyph-name="omacron" unicode="ō" d="M310 11q52 0 96 18.5t75.5 51 49.5 76 18 93.5-18 93.5-49.5 76-75.5 51-96 18.5-96-18.5-75.5-51-49.5-76T71 250t18-93.5 49.5-76 75.5-51T310 11zm0-19q-57 0-105 20.5T123 68t-53 82-19 100 19 100 53 82 82 55.5T310 508t105-20.5 82-55.5 53-82 19-100-19-100-53-82-82-55.5T310-8zM171 680h278v-19H171v19z"/><glyph glyph-name="Obreve" unicode="Ŏ" horiz-adv-x="838" d="M419 11q71 0 133.5 26t109 72T735 218t27 137-27 137-73.5 109-109 72T419 699t-133.5-26-109-72T103 492 76 355t27-137 73.5-109 109-72T419 11zm0-19q-77 0-143 27.5T161 96 84 211.5 56 355t28 143.5 77 115T276 690t143 28q76 0 142.5-28T677 613.5t77-115T782 355t-28-143.5T677 96 561.5 19.5 419-8zm0 789q-64 0-98.5 32.5T282 902h18q8-56 38-79t81-23 80.5 23 37.5 79h18q-4-56-38-88.5T419 781z"/><glyph glyph-name="obreve" unicode="ŏ" d="M310 11q52 0 96 18.5t75.5 51 49.5 76 18 93.5-18 93.5-49.5 76-75.5 51-96 18.5-96-18.5-75.5-51-49.5-76T71 250t18-93.5 49.5-76 75.5-51T310 11zm0-19q-57 0-105 20.5T123 68t-53 82-19 100 19 100 53 82 82 55.5T310 508t105-20.5 82-55.5 53-82 19-100-19-100-53-82-82-55.5T310-8zm-1 597q-64 0-98.5 32.5T172 710h18q8-56 38-79t81-23 80.5 23 37.5 79h18q-4-56-38-88.5T309 589z"/><glyph glyph-name="Ohungarumlaut" unicode="Ő" horiz-adv-x="838" d="M419 11q71 0 133.5 26t109 72T735 218t27 137-27 137-73.5 109-109 72T419 699t-133.5-26-109-72T103 492 76 355t27-137 73.5-109 109-72T419 11zm0-19q-77 0-143 27.5T161 96 84 211.5 56 355t28 143.5 77 115T276 690t143 28q76 0 142.5-28T677 613.5t77-115T782 355t-28-143.5T677 96 561.5 19.5 419-8zm-5 921h21L325 768h-21zm200 0h21L525 768h-21z"/><glyph glyph-name="ohungarumlaut" unicode="ő" d="M310 11q52 0 96 18.5t75.5 51 49.5 76 18 93.5-18 93.5-49.5 76-75.5 51-96 18.5-96-18.5-75.5-51-49.5-76T71 250t18-93.5 49.5-76 75.5-51T310 11zm0-19q-57 0-105 20.5T123 68t-53 82-19 100 19 100 53 82 82 55.5T310 508t105-20.5 82-55.5 53-82 19-100-19-100-53-82-82-55.5T310-8zm5 718h21L226 545h-21zm160 0h21L386 545h-21z"/><glyph glyph-name="OE" unicode="Œ" horiz-adv-x="1120" d="M419-8q-77 0-143 27.5T161 96 84 211.5 56 355t28 143.5 77 115T276 690t143 28q81 0 149-30t118-84v106h389v-19H705V582q33-42 53-94t23-112h234v-19H782v-2q0-66-20.5-123.5T705 127V19h370V0H686v105q-50-53-118-83T419-8zm0 19q71 0 133.5 26t109 72T735 218t27 137-27 137-73.5 109-109 72T419 699t-133.5-26-109-72T103 492 76 355t27-137 73.5-109 109-72T419 11z"/><glyph glyph-name="oe" unicode="œ" horiz-adv-x="1073" d="M310-8q-57 0-105 20.5T123 68t-53 82-19 100 19 100 53 82 82 55.5T310 508q47 0 87.5-14t72.5-38.5 55-58 34-73.5q10 40 32 73.5t52.5 58 70 38.5 84.5 14q43 0 83.5-14t73-43 53-74 23.5-107v-11H569v-9q0-50 18-93.5t49.5-76 75.5-51T808 11q55 0 102 20.5T989 84l14-15q-34-35-84.5-56T808-8q-47 0-88 14t-73 38.5-54.5 58T559 176q-11-40-33.5-73.5t-55-58-73-38.5T310-8zm0 19q52 0 96 18.5t75.5 51 49.5 76 18 93.5-18 93.5-49.5 76-75.5 51-96 18.5-96-18.5-75.5-51-49.5-76T71 250t18-93.5 49.5-76 75.5-51T310 11zm488 478q-47 0-87-16.5t-70-45-48.5-67T570 277h440q-8 104-65 158t-147 54z"/><glyph glyph-name="Racute" unicode="Ŕ" horiz-adv-x="596" d="M274 352H132V0h-19v710h186q54 0 94-13.5t65.5-37.5 38-56.5T509 531t-12.5-71.5-38-56.5-65.5-37.5-94-13.5h-2L589 0h-24zm30 19q94 0 139.5 44T489 531t-45.5 116T304 691H132V371h172zm38 542h21L253 768h-21z"/><glyph glyph-name="racute" unicode="ŕ" horiz-adv-x="320" d="M90 500h19v-96q20 45 62 74.5T278 508q8 0 16-.5t16-1.5v-20q-8 1-16 1.5t-16 .5q-70 0-112.5-38.5T109 353V0H90v500zm177 210h21L178 545h-21z"/><glyph glyph-name="uni0156" unicode="Ŗ" horiz-adv-x="596" d="M274 352H132V0h-19v710h186q54 0 94-13.5t65.5-37.5 38-56.5T509 531t-12.5-71.5-38-56.5-65.5-37.5-94-13.5h-2L589 0h-24zm30 19q94 0 139.5 44T489 531t-45.5 116T304 691H132V371h172zm17-421h21L232-215h-21z"/><glyph glyph-name="uni0157" unicode="ŗ" horiz-adv-x="320" d="M91-50h21L2-215h-21zm-1 550h19v-96q20 45 62 74.5T278 508q8 0 16-.5t16-1.5v-20q-8 1-16 1.5t-16 .5q-70 0-112.5-38.5T109 353V0H90v500z"/><glyph glyph-name="Rcaron" unicode="Ř" horiz-adv-x="596" d="M274 352H132V0h-19v710h186q54 0 94-13.5t65.5-37.5 38-56.5T509 531t-12.5-71.5-38-56.5-65.5-37.5-94-13.5h-2L589 0h-24zm30 19q94 0 139.5 44T489 531t-45.5 116T304 691H132V371h172zM109 910l11 13 171-129 171 129 11-13-182-139z"/><glyph glyph-name="rcaron" unicode="ř" horiz-adv-x="320" d="M90 500h19v-96q20 45 62 74.5T278 508q8 0 16-.5t16-1.5v-20q-8 1-16 1.5t-16 .5q-70 0-112.5-38.5T109 353V0H90v500zm110 66L38 705l12 13 150-128 150 128 12-13z"/><glyph glyph-name="Sacute" unicode="Ś" horiz-adv-x="509" d="M249-8q-63 0-116 29T48 94l16 13q29-41 77.5-68.5T249 11q91 0 144 42t53 116q0 33-12.5 59.5t-34 48-51 38.5-63.5 32l-75 32q-81 35-113.5 80T64 562q0 34 15.5 63t41.5 49.5 60.5 32T254 718q50 0 95-20t76-59l-16-13q-27 38-67.5 55.5T251 699q-32 0-62.5-9.5T135 662t-37-43.5T84 562q0-54 30.5-95T221 394l75-32q37-16 68.5-34.5t54-41.5 35-51.5T466 170q0-38-14-70.5T410.5 43t-68-37.5T249-8zm92 921h21L252 768h-21z"/><glyph glyph-name="sacute" unicode="ś" horiz-adv-x="404" d="M206-8q-35 0-62.5 10.5t-48 27-34 36T41 104l19 8q20-47 55-74t91-27q63 0 99.5 29.5T342 119q0 26-8 45.5T310.5 199t-37 26-48.5 21l-53 19q-59 21-83.5 53.5T64 393q0 51 37 83t101 32q48 0 79-20.5t48-49.5l-18-10q-14 25-38 43t-71 18q-59 0-88.5-27T84 392t26.5-69 78.5-45l56-20q59-22 88-54.5t29-83.5q0-26-10.5-49.5t-30.5-41T272 2 206-8zm94 718h21L211 545h-21z"/><glyph glyph-name="Scircumflex" unicode="Ŝ" horiz-adv-x="509" d="M249-8q-63 0-116 29T48 94l16 13q29-41 77.5-68.5T249 11q91 0 144 42t53 116q0 33-12.5 59.5t-34 48-51 38.5-63.5 32l-75 32q-81 35-113.5 80T64 562q0 34 15.5 63t41.5 49.5 60.5 32T254 718q50 0 95-20t76-59l-16-13q-27 38-67.5 55.5T251 699q-32 0-62.5-9.5T135 662t-37-43.5T84 562q0-54 30.5-95T221 394l75-32q37-16 68.5-34.5t54-41.5 35-51.5T466 170q0-38-14-70.5T410.5 43t-68-37.5T249-8zM72 789l182 139 182-139-11-13-171 129L83 776z"/><glyph glyph-name="scircumflex" unicode="ŝ" horiz-adv-x="404" d="M206-8q-35 0-62.5 10.5t-48 27-34 36T41 104l19 8q20-47 55-74t91-27q63 0 99.5 29.5T342 119q0 26-8 45.5T310.5 199t-37 26-48.5 21l-53 19q-59 21-83.5 53.5T64 393q0 51 37 83t101 32q48 0 79-20.5t48-49.5l-18-10q-14 25-38 43t-71 18q-59 0-88.5-27T84 392t26.5-69 78.5-45l56-20q59-22 88-54.5t29-83.5q0-26-10.5-49.5t-30.5-41T272 2 206-8zM38 579l162 139 162-139-12-13-150 128L50 566z"/><glyph glyph-name="Scedilla" unicode="Ş" horiz-adv-x="509" d="M249-8q-63 0-116 29T48 94l16 13q29-41 77.5-68.5T249 11q91 0 144 42t53 116q0 33-12.5 59.5t-34 48-51 38.5-63.5 32l-75 32q-81 35-113.5 80T64 562q0 34 15.5 63t41.5 49.5 60.5 32T254 718q50 0 95-20t76-59l-16-13q-27 38-67.5 55.5T251 699q-32 0-62.5-9.5T135 662t-37-43.5T84 562q0-54 30.5-95T221 394l75-32q37-16 68.5-34.5t54-41.5 35-51.5T466 170q0-71-48.5-120.5T274-7L169-165h-21L252-8h-3z"/><glyph glyph-name="scedilla" unicode="ş" horiz-adv-x="404" d="M204-8q-35 0-62 10.5t-47 27-33.5 36T41 104l19 8q20-47 55-74t91-27q63 0 99.5 29.5T342 119q0 26-8 45.5T310.5 199t-37 26-48.5 21l-53 19q-59 21-83.5 53.5T64 393q0 51 37 83t101 32q48 0 79-20.5t48-49.5l-18-10q-14 25-38 43t-71 18q-59 0-88.5-27T84 392t26.5-69 78.5-45l56-20q59-22 88-54.5t29-83.5q0-24-9-46t-26.5-39T284 7 226-7L121-165h-21z"/><glyph glyph-name="Scaron" unicode="Š" horiz-adv-x="509" d="M249-8q-63 0-116 29T48 94l16 13q29-41 77.5-68.5T249 11q91 0 144 42t53 116q0 33-12.5 59.5t-34 48-51 38.5-63.5 32l-75 32q-81 35-113.5 80T64 562q0 34 15.5 63t41.5 49.5 60.5 32T254 718q50 0 95-20t76-59l-16-13q-27 38-67.5 55.5T251 699q-32 0-62.5-9.5T135 662t-37-43.5T84 562q0-54 30.5-95T221 394l75-32q37-16 68.5-34.5t54-41.5 35-51.5T466 170q0-38-14-70.5T410.5 43t-68-37.5T249-8zM72 910l11 13 171-129 171 129 11-13-182-139z"/><glyph glyph-name="scaron" unicode="š" horiz-adv-x="404" d="M206-8q-35 0-62.5 10.5t-48 27-34 36T41 104l19 8q20-47 55-74t91-27q63 0 99.5 29.5T342 119q0 26-8 45.5T310.5 199t-37 26-48.5 21l-53 19q-59 21-83.5 53.5T64 393q0 51 37 83t101 32q48 0 79-20.5t48-49.5l-18-10q-14 25-38 43t-71 18q-59 0-88.5-27T84 392t26.5-69 78.5-45l56-20q59-22 88-54.5t29-83.5q0-26-10.5-49.5t-30.5-41T272 2 206-8zm-6 574L38 705l12 13 150-128 150 128 12-13z"/><glyph glyph-name="uni0162" unicode="Ţ" horiz-adv-x="493" d="M237 691H15v19h463v-19H256V0h-19v691zm-1-741h21L147-215h-21z"/><glyph glyph-name="uni0163" unicode="ţ" horiz-adv-x="298" d="M7 500h114v141l19 9V500h147l-5-19H140V152q0-36 5-61t18-41 35.5-23.5T257 19h27V0h-34q-69 0-99 32t-30 104v345H12zM229-50h21L140-215h-21z"/><glyph glyph-name="Tcaron" unicode="Ť" horiz-adv-x="493" d="M237 691H15v19h463v-19H256V0h-19v691zM64 910l11 13 171-129 171 129 11-13-182-139z"/><glyph glyph-name="tcaron" unicode="ť" horiz-adv-x="298" d="M7 500h114v141l19 9V500h147l-5-19H140V152q0-36 5-61t18-41 35.5-23.5T257 19h27V0h-34q-69 0-99 32t-30 104v345H12zm253 210h20l-32-170h-17z"/><glyph glyph-name="Utilde" unicode="Ũ" horiz-adv-x="724" d="M362-8Q238-8 170 60.5T102 260v450h19V260q0-126 65-187.5T362 11t176 61.5T603 260v450h19V260q0-131-68-199.5T362-8zM204 813q8 38 27.5 58.5T282 892q25 0 45.5-11t39-24 37-24 38.5-11q28 0 42.5 18t19.5 52h19l-2-9q-8-38-27.5-59T442 803q-23 0-42.5 11t-38 24-38 24-41.5 11q-29 0-42-18.5T221 803h-19z"/><glyph glyph-name="utilde" unicode="ũ" horiz-adv-x="581" d="M472 106q-25-49-72.5-81.5T283-8Q183-8 133 48T83 194v306h19V201q0-90 47-140t134-50q71 0 120 40t69 100v349h19V0h-19v106zM129 592q8 37 28 58t50 21q25 0 45.5-11t39-24 37-24 38.5-11q28 0 42.5 18t19.5 52h19l-2-10q-8-38-28-58.5T367 582q-23 0-42.5 11t-38 24-38 24-41.5 11q-29 0-42-18.5T146 582h-19z"/><glyph glyph-name="Umacron" unicode="Ū" horiz-adv-x="724" d="M362-8Q238-8 170 60.5T102 260v450h19V260q0-126 65-187.5T362 11t176 61.5T603 260v450h19V260q0-131-68-199.5T362-8zM223 850h278v-19H223v19z"/><glyph glyph-name="umacron" unicode="ū" horiz-adv-x="581" d="M472 106q-25-49-72.5-81.5T283-8Q183-8 133 48T83 194v306h19V201q0-90 47-140t134-50q71 0 120 40t69 100v349h19V0h-19v106zM148 680h278v-19H148v19z"/><glyph glyph-name="Ubreve" unicode="Ŭ" horiz-adv-x="724" d="M362-8Q238-8 170 60.5T102 260v450h19V260q0-126 65-187.5T362 11t176 61.5T603 260v450h19V260q0-131-68-199.5T362-8zm1 789q-64 0-98.5 32.5T226 902h18q8-56 38-79t81-23 80.5 23 37.5 79h18q-4-56-38-88.5T363 781z"/><glyph glyph-name="ubreve" unicode="ŭ" horiz-adv-x="581" d="M472 106q-25-49-72.5-81.5T283-8Q183-8 133 48T83 194v306h19V201q0-90 47-140t134-50q71 0 120 40t69 100v349h19V0h-19v106zM287 589q-64 0-98.5 32.5T150 710h18q8-56 38-79t81-23 80.5 23 37.5 79h18q-4-56-38-88.5T287 589z"/><glyph glyph-name="Uring" unicode="Ů" horiz-adv-x="724" d="M362-8Q238-8 170 60.5T102 260v450h19V260q0-126 65-187.5T362 11t176 61.5T603 260v450h19V260q0-131-68-199.5T362-8zm0 764q-33 0-56.5 23.5T282 836t23.5 56.5T362 916t56.5-23.5T442 836t-23.5-56.5T362 756zm0 17q26 0 44 18.5t18 44.5-18 44.5-44 18.5-44-18.5-18-44.5 18-44.5 44-18.5z"/><glyph glyph-name="uring" unicode="ů" horiz-adv-x="581" d="M472 106q-25-49-72.5-81.5T283-8Q183-8 133 48T83 194v306h19V201q0-90 47-140t134-50q71 0 120 40t69 100v349h19V0h-19v106zM287 608q26 0 44 18.5t18 44.5-18 44.5-44 18.5-44-18.5-18-44.5 18-44.5 44-18.5zm0-17q-33 0-56.5 23.5T207 671t23.5 56.5T287 751t56.5-23.5T367 671t-23.5-56.5T287 591z"/><glyph glyph-name="Uhungarumlaut" unicode="Ű" horiz-adv-x="724" d="M362-8Q238-8 170 60.5T102 260v450h19V260q0-126 65-187.5T362 11t176 61.5T603 260v450h19V260q0-131-68-199.5T362-8zm-15 921h21L258 768h-21zm200 0h21L458 768h-21z"/><glyph glyph-name="uhungarumlaut" unicode="ű" horiz-adv-x="581" d="M472 106q-25-49-72.5-81.5T283-8Q183-8 133 48T83 194v306h19V201q0-90 47-140t134-50q71 0 120 40t69 100v349h19V0h-19v106zM302 710h21L213 545h-21zm160 0h21L373 545h-21z"/><glyph glyph-name="Uogonek" unicode="Ų" horiz-adv-x="724" d="M362-8Q238-8 170 60.5T102 260v450h19V260q0-126 65-187.5T362 11t176 61.5T603 260v450h19V260q0-121-59-189T397-6q-29-16-51-44.5T324-109q0-19 6-31.5t15-19.5 20.5-10 22.5-3q15 0 28 4t19 9v-20q-10-6-24.5-9t-25.5-3q-32 0-56.5 20T304-110q0 30 19.5 58T372-8h-10z"/><glyph glyph-name="uogonek" unicode="ų" horiz-adv-x="581" d="M472 106q-25-49-72.5-81.5T283-8Q183-8 133 48T83 194v306h19V201q0-90 47-140t134-50q71 0 120 40t69 100v349h19V0q-16-7-31-18.5t-26.5-26-18.5-31-7-33.5q0-19 6-31.5t15-19.5 20.5-10 22.5-3q15 0 28 4t19 9v-20q-10-6-24.5-9t-25.5-3q-32 0-56.5 20T388-110q0 17 7 33.5T413.5-45 440-18.5 472 0v106z"/><glyph glyph-name="Wcircumflex" unicode="Ŵ" horiz-adv-x="874" d="M24 710h21L236 54l201 664L638 54l191 656h21L638-8 437 652 236-8zm231 79 182 139 182-139-11-13-171 129-171-129z"/><glyph glyph-name="wcircumflex" unicode="ŵ" horiz-adv-x="740" d="M16 500h22L199 46l171 462L541 46l162 454h21L541-8 370 453 199-8zm192 79 162 139 162-139-12-13-150 128-150-128z"/><glyph glyph-name="Ycircumflex" unicode="Ŷ" horiz-adv-x="577" d="M279 302 20 710h22l247-388 246 388h22L298 302V0h-19v302zM107 789l182 139 182-139-11-13-171 129-171-129z"/><glyph glyph-name="ycircumflex" unicode="ŷ" horiz-adv-x="516" d="M247 8 11 500h22L257 30l229 470h21L174-184h-23zM95 579l162 139 162-139-12-13-150 128-150-128z"/><glyph glyph-name="Ydieresis" unicode="Ÿ" horiz-adv-x="577" d="M279 302 20 710h22l247-388 246 388h22L298 302V0h-19v302zM169 891h19V788h-19v103zm220 0h19V788h-19v103z"/><glyph glyph-name="Zacute" unicode="Ź" horiz-adv-x="559" d="M495 691H60v19h471L42 19h490V0H5zM361 913h21L272 768h-21z"/><glyph glyph-name="zacute" unicode="ź" horiz-adv-x="475" d="M409 481H53v19h395L55 19h384V0H16zm-92 229h21L228 545h-21z"/><glyph glyph-name="Zdotaccent" unicode="Ż" horiz-adv-x="559" d="M495 691H60v19h471L42 19h490V0H5zM286 891h19V788h-19v103z"/><glyph glyph-name="zdotaccent" unicode="ż" horiz-adv-x="475" d="M409 481H53v19h395L55 19h384V0H16zM240 687h19V584h-19v103z"/><glyph glyph-name="Zcaron" unicode="Ž" horiz-adv-x="559" d="M495 691H60v19h471L42 19h490V0H5zM115 910l11 13 171-129 171 129 11-13-182-139z"/><glyph glyph-name="zcaron" unicode="ž" horiz-adv-x="475" d="M409 481H53v19h395L55 19h384V0H16zm-159 85L88 705l12 13 150-128 150 128 12-13z"/><glyph glyph-name="uni0218" unicode="Ș" horiz-adv-x="509" d="M249-8q-63 0-116 29T48 94l16 13q29-41 77.5-68.5T249 11q91 0 144 42t53 116q0 33-12.5 59.5t-34 48-51 38.5-63.5 32l-75 32q-81 35-113.5 80T64 562q0 34 15.5 63t41.5 49.5 60.5 32T254 718q50 0 95-20t76-59l-16-13q-27 38-67.5 55.5T251 699q-32 0-62.5-9.5T135 662t-37-43.5T84 562q0-54 30.5-95T221 394l75-32q37-16 68.5-34.5t54-41.5 35-51.5T466 170q0-38-14-70.5T410.5 43t-68-37.5T249-8zm-5-42h21L155-215h-21z"/><glyph glyph-name="uni0219" unicode="ș" horiz-adv-x="404" d="M206-8q-35 0-62.5 10.5t-48 27-34 36T41 104l19 8q20-47 55-74t91-27q63 0 99.5 29.5T342 119q0 26-8 45.5T310.5 199t-37 26-48.5 21l-53 19q-59 21-83.5 53.5T64 393q0 51 37 83t101 32q48 0 79-20.5t48-49.5l-18-10q-14 25-38 43t-71 18q-59 0-88.5-27T84 392t26.5-69 78.5-45l56-20q59-22 88-54.5t29-83.5q0-26-10.5-49.5t-30.5-41T272 2 206-8zm-13-42h21L104-215H83z"/><glyph glyph-name="uni021A" unicode="Ț" horiz-adv-x="493" d="M237 691H15v19h463v-19H256V0h-19v691zm-1-741h21L147-215h-21z"/><glyph glyph-name="uni021B" unicode="ț" horiz-adv-x="298" d="M7 500h114v141l19 9V500h147l-5-19H140V152q0-36 5-61t18-41 35.5-23.5T257 19h27V0h-34q-69 0-99 32t-30 104v345H12zM229-50h21L140-215h-21z"/><glyph glyph-name="uni0232" unicode="Ȳ" horiz-adv-x="577" d="M279 302 20 710h22l247-388 246 388h22L298 302V0h-19v302zM149 850h278v-19H149v19z"/><glyph glyph-name="uni0233" unicode="ȳ" horiz-adv-x="516" d="M247 8 11 500h22L257 30l229 470h21L174-184h-23zM120 680h278v-19H120v19z"/><glyph glyph-name="uni0237" unicode="ȷ" horiz-adv-x="207" d="M-19-165h8q33 0 54 8t33.5 24 17 41T98-32v532h19V-48q0-72-30-104t-99-32h-7v19z"/><glyph glyph-name="circumflex" unicode="ˆ" horiz-adv-x="364" d="m20 579 162 139 162-139-12-13-150 128L32 566z"/><glyph glyph-name="caron" unicode="ˇ" horiz-adv-x="364" d="M182 566 20 705l12 13 150-128 150 128 12-13z"/><glyph glyph-name="breve" unicode="˘" horiz-adv-x="313" d="M157 589q-64 0-98.5 32.5T20 710h18q8-56 38-79t81-23 80.5 23 37.5 79h18q-4-56-38-88.5T157 589z"/><glyph glyph-name="dotaccent" unicode="˙" horiz-adv-x="59" d="M20 687h19V584H20v103z"/><glyph glyph-name="ring" unicode="˚" horiz-adv-x="200" d="M100 608q26 0 44 18.5t18 44.5-18 44.5-44 18.5-44-18.5T38 671t18-44.5 44-18.5zm0-17q-33 0-56.5 23.5T20 671t23.5 56.5T100 751t56.5-23.5T180 671t-23.5-56.5T100 591z"/><glyph glyph-name="ogonek" unicode="˛" horiz-adv-x="202" d="M113-192q-32 0-56.5 20T32-110q0 17 7 33.5T57.5-45t27 26.5T117 0h22q-16-7-31.5-18.5t-28-26-20-31T52-109q0-19 6-31.5T73-160t20.5-10 22.5-3q15 0 28 4t19 9v-20q-10-6-24.5-9t-25.5-3z"/><glyph glyph-name="tilde" unicode="˜" horiz-adv-x="381" d="M32 592q8 37 28 58t50 21q25 0 45.5-11t39-24 37-24 38.5-11q28 0 42.5 18t19.5 52h19l-2-10q-8-38-28-58.5T270 582q-23 0-42.5 11t-38 24-38 24-41.5 11q-29 0-42-18.5T49 582H30z"/><glyph glyph-name="hungarumlaut" unicode="˝" horiz-adv-x="331" d="M130 710h21L41 545H20zm160 0h21L201 545h-21z"/><glyph glyph-name="Wgrave" unicode="Ẁ" horiz-adv-x="874" d="M24 710h21L236 54l201 664L638 54l191 656h21L638-8 437 652 236-8zm293 203h21l110-145h-21z"/><glyph glyph-name="wgrave" unicode="ẁ" horiz-adv-x="740" d="M16 500h22L199 46l171 462L541 46l162 454h21L541-8 370 453 199-8zm234 210h21l110-165h-21z"/><glyph glyph-name="Wacute" unicode="Ẃ" horiz-adv-x="874" d="M24 710h21L236 54l201 664L638 54l191 656h21L638-8 437 652 236-8zm512 203h21L447 768h-21z"/><glyph glyph-name="wacute" unicode="ẃ" horiz-adv-x="740" d="M16 500h22L199 46l171 462L541 46l162 454h21L541-8 370 453 199-8zm453 210h21L380 545h-21z"/><glyph glyph-name="Wdieresis" unicode="Ẅ" horiz-adv-x="874" d="M24 710h21L236 54l201 664L638 54l191 656h21L638-8 437 652 236-8zm294 181h19V788h-19v103zm220 0h19V788h-19v103z"/><glyph glyph-name="wdieresis" unicode="ẅ" horiz-adv-x="740" d="M16 500h22L199 46l171 462L541 46l162 454h21L541-8 370 453 199-8zm235 187h19V584h-19v103zm220 0h19V584h-19v103z"/><glyph glyph-name="uni1ECA" unicode="Ị" horiz-adv-x="245" d="M113 710h19V0h-19v710zm0-797h19v-103h-19v103z"/><glyph glyph-name="uni1ECB" unicode="ị" horiz-adv-x="199" d="M90 710q3 4 10 4 6 0 9-4v-90H90v90zm0-210h19V0H90v500zm0-587h19v-103H90v103z"/><glyph glyph-name="uni1ECC" unicode="Ọ" horiz-adv-x="838" d="M419 11q71 0 133.5 26t109 72T735 218t27 137-27 137-73.5 109-109 72T419 699t-133.5-26-109-72T103 492 76 355t27-137 73.5-109 109-72T419 11zm0-19q-77 0-143 27.5T161 96 84 211.5 56 355t28 143.5 77 115T276 690t143 28q76 0 142.5-28T677 613.5t77-115T782 355t-28-143.5T677 96 561.5 19.5 419-8zm-9-79h19v-103h-19v103z"/><glyph glyph-name="uni1ECD" unicode="ọ" d="M310 11q52 0 96 18.5t75.5 51 49.5 76 18 93.5-18 93.5-49.5 76-75.5 51-96 18.5-96-18.5-75.5-51-49.5-76T71 250t18-93.5 49.5-76 75.5-51T310 11zm0-19q-57 0-105 20.5T123 68t-53 82-19 100 19 100 53 82 82 55.5T310 508t105-20.5 82-55.5 53-82 19-100-19-100-53-82-82-55.5T310-8zm-10-79h19v-103h-19v103z"/><glyph glyph-name="uni1EE4" unicode="Ụ" horiz-adv-x="724" d="M362-8Q238-8 170 60.5T102 260v450h19V260q0-126 65-187.5T362 11t176 61.5T603 260v450h19V260q0-131-68-199.5T362-8zm-9-79h19v-103h-19v103z"/><glyph glyph-name="uni1EE5" unicode="ụ" horiz-adv-x="581" d="M472 106q-25-49-72.5-81.5T283-8Q183-8 133 48T83 194v306h19V201q0-90 47-140t134-50q71 0 120 40t69 100v349h19V0h-19v106zM278-87h19v-103h-19v103z"/><glyph glyph-name="Ygrave" unicode="Ỳ" horiz-adv-x="577" d="M279 302 20 710h22l247-388 246 388h22L298 302V0h-19v302zm-78 611h21l110-145h-21z"/><glyph glyph-name="ygrave" unicode="ỳ" horiz-adv-x="516" d="M247 8 11 500h22L257 30l229 470h21L174-184h-23zm-91 702h21l110-165h-21z"/><glyph glyph-name="endash" unicode="–" horiz-adv-x="560" d="M76 280h408v-19H76v19z"/><glyph glyph-name="emdash" unicode="—" horiz-adv-x="868" d="M76 280h716v-19H76v19z"/><glyph glyph-name="quoteleft" unicode="‘" horiz-adv-x="190" d="M91 572V469H72v104l54 137h19z"/><glyph glyph-name="quoteright" unicode="’" horiz-adv-x="192" d="M112 607v103h19V606L77 469H58z"/><glyph glyph-name="quotesinglbase" unicode="‚" horiz-adv-x="181" d="M83 0v103h19V-1L48-138H29z"/><glyph glyph-name="quotedblleft" unicode="“" horiz-adv-x="374" d="M91 572V469H72v104l54 137h19zm184 0V469h-19v104l54 137h19z"/><glyph glyph-name="quotedblright" unicode="”" horiz-adv-x="376" d="M112 607v103h19V606L77 469H58zm184 0v103h19V606l-54-137h-19z"/><glyph glyph-name="quotedblbase" unicode="„" horiz-adv-x="365" d="M83 0v103h19V-1L48-138H29zm184 0v103h19V-1l-54-137h-19z"/><glyph glyph-name="bullet" unicode="•" horiz-adv-x="444" d="M222 166q-28 0-53 10.5t-43.5 29-29 43.5T86 302t10.5 53 29 43.5 43.5 29 53 10.5 53-10.5 43.5-29 29-43.5 10.5-53-10.5-53-29-43.5-43.5-29-53-10.5z"/><glyph glyph-name="ellipsis" unicode="…" horiz-adv-x="523" d="M75 103h19V0H75v103zm177 0h19V0h-19v103zm177 0h19V0h-19v103z"/><glyph glyph-name="guilsinglleft" unicode="‹" horiz-adv-x="281" d="m56 250 147 213 15-11L79 250 218 48l-15-11z"/><glyph glyph-name="guilsinglright" unicode="›" horiz-adv-x="281" d="M78 37 63 48l139 202L63 452l15 11 147-213z"/><glyph glyph-name="Euro" unicode="€" horiz-adv-x="752" d="M57 455h113q16 58 48.5 106t78.5 83 102.5 54.5T520 718q56 0 106-14.5t92-41.5l-9-17q-83 54-189 54-59 0-111.5-17.5t-96-50-75-77.5-46.5-99h433l-10-19H186q-9-39-9-81 0-38 8-78h339l-10-19H190q15-55 46-100.5t74.5-78 97-50.5T520 11q62 0 120 20V11Q584-8 520-8T399 11.5 296 66t-79 84-48 108H47l10 19h108q-8 40-8 78 0 21 2 41t6 40H47z"/><glyph glyph-name="minus" unicode="−" horiz-adv-x="590" d="M75 280h440v-19H75v19z"/><glyph glyph-name="uniFB01" unicode="ﬁ" horiz-adv-x="505" d="M7 500h130q-27 14-43 38.5T78 595q0 52 37 83.5T220 710h75v-18h-83q-54 0-84-27.5T98 595q0-41 30-68t84-27h84v-19H158V0h-19v481H7v19zm389 210q3 4 10 4 6 0 9-4v-90h-19v90zm0-210h19V0h-19v500z"/><glyph glyph-name="uniFB02" unicode="ﬂ" horiz-adv-x="505" d="M7 500h130q-27 14-43 38.5T78 595q0 52 37 83.5T220 710h75v-18h-83q-54 0-84-27.5T98 595q0-41 30-68t84-27h84v-19H158V0h-19v481H7v19zm389 210h19V0h-19v710z"/><glyph glyph-name="glyph332" horiz-adv-x="59" d="M20-87h19v-103H20v103z"/><glyph glyph-name="glyph334" horiz-adv-x="215" d="M130-50h21L41-215H20z"/><glyph glyph-name="glyph338" horiz-adv-x="500" d="M271 710h20l-32-170h-17z"/><glyph glyph-name="glyph339" horiz-adv-x="181" d="M135 913h21L46 768H25z"/><glyph glyph-name="glyph340" horiz-adv-x="313" d="M157 781q-64 0-98.5 32.5T20 902h18q8-56 38-79t81-23 80.5 23 37.5 79h18q-4-56-38-88.5T157 781z"/><glyph glyph-name="glyph341" horiz-adv-x="384" d="m10 910 11 13 171-129 171 129 11-13-182-139z"/><glyph glyph-name="glyph342" horiz-adv-x="384" d="m10 789 182 139 182-139-11-13-171 129L21 776z"/><glyph glyph-name="glyph343" horiz-adv-x="279" d="M20 891h19V788H20v103zm220 0h19V788h-19v103z"/><glyph glyph-name="glyph344" horiz-adv-x="59" d="M20 891h19V788H20v103z"/><glyph glyph-name="glyph345" horiz-adv-x="181" d="M25 913h21l110-145h-21z"/><glyph glyph-name="glyph346" horiz-adv-x="371" d="M130 913h21L41 768H20zm200 0h21L241 768h-21z"/><glyph glyph-name="glyph347" horiz-adv-x="321" d="M22 850h278v-19H22v19z"/><glyph glyph-name="glyph348" horiz-adv-x="200" d="M100 756q-33 0-56.5 23.5T20 836t23.5 56.5T100 916t56.5-23.5T180 836t-23.5-56.5T100 756zm0 17q26 0 44 18.5t18 44.5-18 44.5-44 18.5-44-18.5T38 836t18-44.5 44-18.5z"/><glyph glyph-name="glyph349" horiz-adv-x="381" d="M32 813q8 38 27.5 58.5T110 892q25 0 45.5-11t39-24 37-24 38.5-11q28 0 42.5 18t19.5 52h19l-2-9q-8-38-27.5-59T270 803q-23 0-42.5 11t-38 24-38 24-41.5 11q-29 0-42-18.5T49 803H30z"/></font>
</defs>
</svg>
