<svg xmlns="http://www.w3.org/2000/svg"><defs><font id="Font" horiz-adv-x="587"><font-face font-family="Font" font-weight="500" panose-1="2 11 6 0 3 0 0 0 0 0" ascent="800" descent="-200" x-height="500" cap-height="710" bbox="-58 -243 1007 958" underline-thickness="88" underline-position="-266" unicode-range="U+000D-FB02"/><glyph glyph-name=".notdef" horiz-adv-x="500"/><glyph glyph-name="glyph1" horiz-adv-x="0"/><glyph glyph-name="uni000D" horiz-adv-x="233"/><glyph glyph-name="space" horiz-adv-x="233"/><glyph glyph-name="exclam" unicode="!" horiz-adv-x="281" d="M85 425v285h111V425l-21-192h-68zM140-8q-18 0-33.5 7t-27 18.5T61 45t-7 34q0 22 9.5 40T90 149h101q16-12 26-30t10-40q0-36-25.5-61.5T140-8z"/><glyph glyph-name="quotedbl" unicode="&quot;" horiz-adv-x="426" d="M64 710h96V446H64v264zm202 0h96V446h-96v264z"/><glyph glyph-name="numbersign" unicode="#" horiz-adv-x="732" d="M395 193H233L173 0H76l60 193H33v88h130l48 152H105v88h133l59 189h97l-59-189h163l59 189h97l-59-189h104v-88H567l-47-152h107v-88H492L432 0h-97zm-135 88h163l47 152H308z"/><glyph glyph-name="dollar" unicode="$" horiz-adv-x="523" d="M220-5q-65 8-113 39t-76 79l80 66q24-35 62.5-60T263 94q54 0 83.5 26t29.5 64q0 40-27.5 63T269 295l-56 28q-80 38-117 88T59 530q0 37 12.5 67.5t34.5 54 51.5 39.5 62.5 22v85h94v-84q43-8 78-29t67-57l-73-72q-27 31-53.5 45.5T268 616q-45 0-72.5-24T168 533q0-37 25.5-60t79.5-48l55-27q36-17 65-37t49.5-45 32-55 11.5-67q0-79-45.5-132T314-4v-84h-94v83z"/><glyph glyph-name="percent" unicode="%" horiz-adv-x="997" d="M228 405q23 0 43 9t35 24 23.5 35.5T338 517t-8.5 43.5T306 596t-35 24-43 9-43.5-9-35.5-24-23.5-35.5T117 517t8.5-43.5T149 438t35.5-24 43.5-9zm0-85q-41 0-77 15.5T88.5 378t-42 62.5T31 517q0 40 15.5 76t42 63 62.5 42.5 77 15.5q40 0 76-15.5t63-42.5 42.5-63 15.5-76q0-41-15.5-76.5T367 378t-63-42.5-76-15.5zm471 390h109L298 0H189zm70-629q23 0 43 9t35 24 23.5 35.5T879 193t-8.5 43.5T847 272t-35 24-43 9-43.5-9-35.5-24-23.5-35.5T658 193t8.5-43.5T690 114t35.5-24 43.5-9zm0-85q-41 0-77 15.5T629.5 54t-42 62.5T572 193q0 40 15.5 76t42 63 62.5 42.5 77 15.5q40 0 76-15.5t63-42.5 42.5-63 15.5-76q0-41-15.5-76.5T908 54t-63-42.5T769-4z"/><glyph glyph-name="ampersand" unicode="&amp;" horiz-adv-x="745" d="M288-8q-51 0-91.5 15.5t-68 42.5T86 113.5 71 191q0 40 12 70.5t32 53.5 45.5 41 52.5 34q-29 34-48.5 70.5T145 548q0 34 13.5 65t38.5 54.5 58.5 37T330 718q42 0 75-14t56.5-36.5 36-52.5 12.5-61q0-33-11.5-59t-31-47-44.5-38.5-52-33.5l121-129 105 120 76-71-109-126L724 0H580l-87 92q-48-49-95-74.5T288-8zm1 98q38 0 69.5 21t63.5 56L279 320q-46-27-71.5-54.5T182 195q0-46 30.5-75.5T289 90zm-39 456q0-29 15-51.5t43-52.5l9 5q38 22 63.5 45t25.5 56q0 32-20.5 54.5T330 625q-33 0-56.5-22T250 546z"/><glyph glyph-name="quotesingle" unicode="'" horiz-adv-x="224" d="M64 710h96V446H64v264z"/><glyph glyph-name="parenleft" unicode="(" horiz-adv-x="272" d="M156-151q-27 54-47.5 106t-34 106.5T54 175t-7 125 7 125 20.5 113.5 34 106.5T156 751l84-37q-48-104-72.5-204.5T143 300t24.5-209.5T240-114l-84-37z"/><glyph glyph-name="parenright" unicode=")" horiz-adv-x="272" d="m116-151-84 37Q80-10 104.5 90.5T129 300t-24.5 209.5T32 714l84 37q27-54 47.5-106t34-106.5T218 425t7-125-7-125-20.5-113.5-34-106.5T116-151z"/><glyph glyph-name="asterisk" unicode="*" horiz-adv-x="460" d="m231 452-82-110-65 45 81 111-131 44 24 77 133-44v135h79V575l132 43 24-75-130-44 81-112-65-46z"/><glyph glyph-name="plus" unicode="+" horiz-adv-x="590" d="M77 321h174v170h89V321h174v-88H340V59h-89v174H77v88z"/><glyph glyph-name="comma" unicode="," horiz-adv-x="270" d="M122 0H64v141h141V0l-59-146H78z"/><glyph glyph-name="hyphen" unicode="-" horiz-adv-x="382" d="M62 331h258V222H62v109z"/><glyph glyph-name="period" unicode="." horiz-adv-x="265" d="M133-8Q97-8 71.5 17.5T46 79q0 18 7 33.5t18.5 27T99 158t34 7 33.5-7 27.5-18.5 18.5-27T219 79q0-36-25-61.5T133-8z"/><glyph glyph-name="slash" unicode="/" horiz-adv-x="483" d="M361 710h101L123 0H22z"/><glyph glyph-name="zero" unicode="0" horiz-adv-x="590" d="M424 355q0 117-32 185.5T295 609t-97-68.5T166 355t32-185.5 97-68.5 97 68.5T424 355zM295-8q-60 0-106 26.5T112.5 93 66 207.5 50 355t16 147.5T112.5 617t76.5 74.5T295 718t106-26.5 76.5-74.5T524 502.5 540 355t-16-147.5T477.5 93 401 18.5 295-8z"/><glyph glyph-name="one" unicode="1" horiz-adv-x="590" d="m311 539-206-96v119l317 148V0H311v539z"/><glyph glyph-name="two" unicode="2" horiz-adv-x="590" d="M354 383q31 36 45 64.5t14 56.5q0 23-8.5 43.5T381 583t-35.5 23.5T301 615t-45-8.5-36.5-23.5-24-35.5T187 504v-4H76q0 47 17 87t47.5 69 71.5 45.5 89 16.5 89-16.5 71-45.5 46.5-69 16.5-86q0-30-9-57t-24.5-53.5-37-53.5-46.5-57L250 103h278V0H27z"/><glyph glyph-name="three" unicode="3" horiz-adv-x="590" d="M268-8q-64 0-119.5 27T60 94l81 68q18-29 49.5-48.5T264 94q30 0 55 9.5t43.5 26.5 29 42 10.5 57q-1 61-38.5 99.5T260 367h-67l130 239H90v104h400L350 452q77-23 120-81.5T513 229q0-53-17.5-96.5t-50-75T368 9 268-8z"/><glyph glyph-name="four" unicode="4" horiz-adv-x="590" d="M353 168H-9l473 550V265h107v-97H464V0H353v168zm0 272L207 265h146v175z"/><glyph glyph-name="five" unicode="5" horiz-adv-x="590" d="M284-8q-64 0-122 27T72 94l82 70q17-29 50-49.5T280 94q60 0 96 37.5t36 93.5q0 28-9.5 52.5T376 320t-42 28.5-56 10.5q-38 0-64.5-17T173 303l-72 32v375h369V607H211V445q17 8 34.5 12t37.5 4q55 0 100-17.5t76-49 48-75 17-94.5-17.5-94-49-73.5-75.5-48T284-8z"/><glyph glyph-name="six" unicode="6" horiz-adv-x="590" d="M298-8q-51 0-94.5 18t-76 49.5T77 133t-18 91q0 37 13 70t30 63l204 353h122L278 452q15 3 30 3 44 0 85-17t73-47.5 51.5-73T537 224q0-49-18-91t-50.5-73.5-76-49.5T298-8zm0 102q29 0 53 10.5t40.5 28 25.5 41 9 50.5q0 26-9 49.5T391.5 315 351 343.5 298 354t-52.5-10.5T205 315t-26-41.5-9-49.5q0-27 9-50.5t26-41 40.5-28T298 94z"/><glyph glyph-name="seven" unicode="7" horiz-adv-x="590" d="M384 607H75v103h474L216 0H98z"/><glyph glyph-name="eight" unicode="8" horiz-adv-x="590" d="M295-8q-51 0-95 17.5T123.5 58t-51 73T54 221q0 62 29 110.5t79 77.5q-25 23-38.5 54.5T110 533q0 39 14 72.5t39 58.5 59 39.5 73 14.5q40 0 74-14.5t59-39.5 39.5-58.5T482 533q0-38-14-70t-39-55q50-29 79-77t29-110q0-48-18.5-90t-51-73T391 9.5 295-8zm0 102q30 0 54 10t41 27 26.5 40.5T426 221q0 27-9.5 50T390 311.5 349 339t-54 10q-29 0-52.5-10T202 311.5 175.5 271t-9.5-50q0-26 9.5-49.5T202 131t40.5-27T295 94zm0 356q37 0 59.5 24t22.5 59-22.5 59-59.5 24q-36 0-58-24t-22-59 22-59 58-24z"/><glyph glyph-name="nine" unicode="9" horiz-adv-x="590" d="M292 718q51 0 94.5-18t76-49.5T513 577t18-91q0-37-13-70t-30-63L284 0H162l150 258q-15-3-30-3-44 0-85 17t-73 47.5-51.5 73T53 486q0 49 18 91t50.5 73.5 76 49.5 94.5 18zm0-102q-29 0-53-10.5t-40.5-28-25.5-41-9-50.5q0-26 9-49.5t25.5-41.5 40.5-28.5 53-10.5 52.5 10.5T385 395t26 41.5 9 49.5q0 27-9 50.5t-26 41-40.5 28T292 616z"/><glyph glyph-name="colon" unicode=":" horiz-adv-x="295" d="M148 335q-36 0-61.5 25.5T61 422q0 18 7 33.5t18.5 27T114 501t34 7 33.5-7 27.5-18.5 18.5-27T234 422q0-36-25-61.5T148 335zm0-343q-36 0-61.5 25.5T61 79q0 18 7 33.5t18.5 27T114 158t34 7 33.5-7 27.5-18.5 18.5-27T234 79q0-36-25-61.5T148-8z"/><glyph glyph-name="semicolon" unicode=";" horiz-adv-x="295" d="M136 0H78v141h141V0l-59-146H92zm12 335q-36 0-61.5 25.5T61 422q0 18 7 33.5t18.5 27T114 501t34 7 33.5-7 27.5-18.5 18.5-27T234 422q0-36-25-61.5T148 335z"/><glyph glyph-name="equal" unicode="=" horiz-adv-x="590" d="M74 215h442v-88H74v88zm0 212h442v-88H74v88z"/><glyph glyph-name="question" unicode="?" horiz-adv-x="537" d="M196 380h58q59 0 92.5 34t33.5 85q0 24-8.5 45T348 580.5t-36.5 25T263 615q-26 0-48-9.5T176.5 580 151 542.5t-9-46.5v-8H31q0 48 17 90t48 73 72.5 49 91.5 18q49 0 91.5-18t73.5-48.5 48.5-72T491 492q0-47-17.5-84.5t-45-64T366 301t-70-21v-49H196v149zM246-8q-18 0-33.5 7t-27 18.5T167 45t-7 34q0 22 9.5 40t26.5 30h101q16-12 26-30t10-40q0-36-25.5-61.5T246-8z"/><glyph glyph-name="at" unicode="@" horiz-adv-x="809" d="M370 165q-40 0-71 13.5t-52 37-32 55-11 66.5q0 45 16 85t44.5 70 68.5 47 88 17q33 0 58-10t45-28l6 28h80l-49-229q-7-33 2.5-56t41.5-23q40 0 68 41t28 129q0 58-21.5 103T621 586t-86.5 45.5T430 647q-62 0-118-21.5T214 564t-67-97.5T122 337q0-59 18.5-109t53.5-86 85-56 114-20q45 0 94 10t90 31l25-71Q555 15 498.5 3.5T393-8q-81 0-145.5 27t-110 73.5T68 202 44 337q0 85 31.5 155.5T160 613t123.5 77.5T431 718q74 0 137-22t109-62.5 72-98T775 406q0-65-16-111.5T717.5 219t-59-42.5T591 163t-60 14-38 37q-23-23-56-36t-67-13zm14 76q25 0 48 10t42 33l33 153q-15 23-38 33t-46 10q-27 0-51-10t-42-28-29-43-11-55q0-50 25.5-76.5T384 241z"/><glyph glyph-name="A" unicode="A" horiz-adv-x="674" d="M337 718 684 0H559l-74 158H188L114 0H-10zm-99-454h197l-98 210z"/><glyph glyph-name="B" unicode="B" horiz-adv-x="636" d="M88 710h251q48 0 87-15.5t66-42 41.5-62T548 516q0-48-17-81.5T482 378q50-21 82-64.5T596 204q0-47-17.5-84.5t-49-64-75-41T360 0H88v710zm272-602q60 0 89.5 28.5T479 209t-29.5 73.5T360 312H204V108h156zm-36 303q54 0 80.5 27.5T431 507q0 39-26.5 67.5T324 603H204V411h120z"/><glyph glyph-name="C" unicode="C" horiz-adv-x="680" d="M406-8q-75 0-141.5 28T149 96.5t-77.5 115T43 355t28.5 143.5 77.5 115T264.5 690 406 718t138.5-26T657 615l-75-82q-33 35-78.5 55T406 608q-53 0-97.5-19.5T231 535t-51.5-80.5T161 355t18.5-99.5T231 175t77.5-53.5T406 102q52 0 97.5 20t78.5 55l75-82q-49-51-112.5-77T406-8z"/><glyph glyph-name="D" unicode="D" horiz-adv-x="728" d="M313 108q57 0 104 19t80.5 52 51.5 78 18 98q0 52-18 97.5T497.5 531 417 583t-104 19H204V108h109zM88 710h225q79 0 147.5-27t118-75 78-113T685 355t-28.5-140-78-113-118-75T313 0H88v710z"/><glyph glyph-name="E" unicode="E" horiz-adv-x="559" d="M88 710h421V596H204V416h245V304H204V114h305V0H88v710z"/><glyph glyph-name="F" unicode="F" horiz-adv-x="529" d="M88 710h412V596H204V416h231V304H204V0H88v710z"/><glyph glyph-name="G" unicode="G" horiz-adv-x="726" d="M406-8q-75 0-141.5 28T149 96.5t-77.5 115T43 355t28.5 143.5 77.5 115T264.5 690 406 718q76 0 143-26t116-77l-75-82q-33 35-82 55t-102 20-97.5-19.5T231 535t-51.5-80.5T161 355t18.5-99.5T231 175t77.5-53.5T406 102q39 0 77 9.5t68 28.5v164H356l51 112h260V83q-50-43-118-67T406-8z"/><glyph glyph-name="H" unicode="H" horiz-adv-x="760" d="M88 710h116V416h352v294h116V0H556v304H204V0H88v710z"/><glyph glyph-name="I" unicode="I" horiz-adv-x="292" d="M88 710h116V0H88v710z"/><glyph glyph-name="J" unicode="J" horiz-adv-x="538" d="M238-8q-43 0-82.5 13.5T86 46t-48 68-18 95h117q0-54 29.5-80t71.5-27q42 0 72 26.5t30 80.5v501h116V207q0-54-18-94.5t-48-67-69.5-40T238-8z"/><glyph glyph-name="K" unicode="K" horiz-adv-x="659" d="M88 710h116V353l299 357h138L340 351 671 0H521L204 335V0H88v710z"/><glyph glyph-name="L" unicode="L" horiz-adv-x="521" d="M88 710h116V115h299V0H88v710z"/><glyph glyph-name="M" unicode="M" horiz-adv-x="874" d="m88 718 349-372 349 372V0H670v436L437 184 204 436V0H88v718z"/><glyph glyph-name="N" unicode="N" horiz-adv-x="777" d="M204 453V0H88v718l485-461v453h116V-8z"/><glyph glyph-name="O" unicode="O" horiz-adv-x="812" d="M406 102q52 0 97 19.5t78 53.5 51.5 80.5T651 355t-18.5 99.5T581 535t-78 53.5-97 19.5q-53 0-97.5-19.5T231 535t-51.5-80.5T161 355t18.5-99.5T231 175t77.5-53.5T406 102zm0-110q-75 0-141.5 28T149 96.5t-77.5 115T43 355t28.5 143.5 77.5 115T264.5 690 406 718q76 0 142-28t115-76.5 77.5-115T769 355t-28.5-143.5-77.5-115T548 20 406-8z"/><glyph glyph-name="P" unicode="P" horiz-adv-x="578" d="M88 710h212q55 0 100.5-16.5T479 647t51-71.5 18-91.5-18-91.5-51-71.5-78.5-46.5T300 258h-96V0H88v710zm207-344q64 0 99.5 32t35.5 86-35.5 86-99.5 32h-91V366h91z"/><glyph glyph-name="Q" unicode="Q" horiz-adv-x="834" d="M647 81q-48-42-109.5-65.5T406-8q-75 0-141.5 28T149 96.5t-77.5 115T43 355t28.5 143.5 77.5 115T264.5 690 406 718q76 0 142-28t115-76.5 77.5-115T769 355q0-54-14-101.5T716 164l110-90-69-82zm-241 21q44 0 82.5 13.5T558 154l-101 83 69 82 99-81q12 26 19 55.5t7 61.5q0 53-18.5 99.5T581 535t-78 53.5-97 19.5q-53 0-97.5-19.5T231 535t-51.5-80.5T161 355t18.5-99.5T231 175t77.5-53.5T406 102z"/><glyph glyph-name="R" unicode="R" horiz-adv-x="633" d="M271 302h-67V0H88v710h230q49 0 90.5-15t71.5-42 47-64.5 17-82.5q0-69-39-120.5T398 313L624 0H485zm36 101q60 0 89.5 27t29.5 72q0 46-29.5 73.5T307 603H204V403h103z"/><glyph glyph-name="S" unicode="S" horiz-adv-x="530" d="M268-8q-81 0-143 33t-96 88l88 74q25-34 64-59.5t86-25.5q52 0 80.5 22t28.5 60q0 40-25 66t-78 49l-56 24Q57 393 57 530q0 43 18 77.5t47 59 67 38 79 13.5q62 0 111-21.5t88-68.5l-80-83q-28 33-55 48t-65 15q-36 0-65-20t-29-57q0-35 24.5-60.5T276 422l55-25q73-32 118-80.5T494 194q0-45-16-82t-45.5-64T361 6.5 268-8z"/><glyph glyph-name="T" unicode="T" horiz-adv-x="521" d="M202 596H19v114h483V596H318V0H202v596z"/><glyph glyph-name="U" unicode="U" horiz-adv-x="731" d="M366-8q-63 0-115.5 20T160 68.5t-59 89T80 276v434h116V273q0-83 47-127t123-44 122.5 44T535 273v437h116V276q0-66-21-118.5t-59-89T481 12 366-8z"/><glyph glyph-name="V" unicode="V" horiz-adv-x="652" d="M-3 710h128l201-454 202 454h127L326-8z"/><glyph glyph-name="W" unicode="W" horiz-adv-x="879" d="M4 710h119l140-409 176 417 176-417 140 409h120L630-8 439 452 248-8z"/><glyph glyph-name="X" unicode="X" horiz-adv-x="650" d="M247 360 17 710h134l174-263 174 263h134L404 360 647 0H514L326 276 138 0H3z"/><glyph glyph-name="Y" unicode="Y" horiz-adv-x="648" d="M266 299 5 710h136l183-293 183 293h137L382 299V0H266v299z"/><glyph glyph-name="Z" unicode="Z" horiz-adv-x="606" d="M380 596H51v114h528L208 114h364V0H9z"/><glyph glyph-name="bracketleft" unicode="[" horiz-adv-x="317" d="M82 748h204v-85H179V-63h107v-85H82v896z"/><glyph glyph-name="bracketright" unicode="]" horiz-adv-x="317" d="M235-148H31v85h107v726H31v85h204v-896z"/><glyph glyph-name="underscore" unicode="_" horiz-adv-x="548" d="M60 0h428v-88H60V0z"/><glyph glyph-name="grave" unicode="`" horiz-adv-x="328" d="M54 710h133l84-165h-85z"/><glyph glyph-name="a" unicode="a" horiz-adv-x="609" d="M429 36q-26-21-60-32.5T295-8q-56 0-103 20t-81 54.5T57.5 148 38 250t19.5 102 53.5 81.5 81 54.5 103 20q40 0 74-12t60-33v37h110V0H429v36zM296 97q42 0 77.5 18.5T429 165v170q-20 31-55.5 49.5T296 403q-32 0-58.5-11.5t-46-32-30-48.5-10.5-61 10.5-61 30-48.5 46-32T296 97z"/><glyph glyph-name="b" unicode="b" horiz-adv-x="610" d="M70 710h110V463q26 21 60 33t74 12q55 0 102.5-20t81.5-54.5 53.5-81.5T571 250t-19.5-102T498 66.5 416.5 12 314-8q-81 0-134 44V0H70v710zm243-307q-42 0-77.5-18.5T180 335V165q20-31 55.5-49.5T313 97q32 0 58.5 11.5t46 32 30 48.5 10.5 61-10.5 61-30 48.5-46 32T313 403z"/><glyph glyph-name="c" unicode="c" horiz-adv-x="511" d="M296-8q-56 0-103 20t-81.5 54.5-54 81.5T38 250t19.5 102 54 81.5T193 488t103 20q60 0 108-22.5t83-60.5l-75-77q-20 23-48.5 38T296 401q-32 0-58.5-11.5t-46-31.5-30-47.5T151 250t10.5-60.5 30-47.5 46-31.5T296 99q39 0 67.5 15t48.5 38l75-77q-35-38-83-60.5T296-8z"/><glyph glyph-name="d" unicode="d" horiz-adv-x="609" d="M429 36q-26-21-60-32.5T295-8q-56 0-103 20t-81 54.5T57.5 148 38 250t19.5 102 53.5 81.5 81 54.5 103 20q40 0 74-12t60-33v247h110V0H429v36zM296 97q42 0 77.5 18.5T429 165v170q-20 31-55.5 49.5T296 403q-32 0-58.5-11.5t-46-32-30-48.5-10.5-61 10.5-61 30-48.5 46-32T296 97z"/><glyph glyph-name="e" unicode="e" horiz-adv-x="568" d="M296-8q-56 0-103 20t-81.5 54.5-54 81.5T38 250t19.5 102 54 81.5 81 54.5T294 508q52 0 95-18t74-51 49-81 21-108v-30H152q8-54 47.5-86.5T296 101q45 0 77.5 17.5T426 158l74-79q-32-38-85-62.5T296-8zm-10 415q-45 0-81-27t-50-75h257q-10 51-43 76.5T286 407z"/><glyph glyph-name="f" unicode="f" horiz-adv-x="365" d="M31 500h79q-16 17-25 38.5T76 586q0 27 10 49.5t28.5 39 44.5 26 58 9.5h132v-98H247q-30 0-48-14t-18-40 16.5-41 36.5-17h115v-98H219V0H109v402H31v98z"/><glyph glyph-name="g" unicode="g" horiz-adv-x="605" d="M289-194q-52 0-109 14T74-134l58 96q32-23 70.5-37T289-89q28 0 54.5 5T391-67t33.5 32.5T437 16q0 11-2.5 25T426 67q-26-21-60.5-34T289 20q-56 0-101.5 18.5t-78.5 51-51 77T40 264t18 97.5 51 77 78.5 51T289 508q40 0 73.5-12t59.5-33v37h110V101q11-26 15.5-51.5T552 2q0-54-23-91t-60-60.5-84.5-34T289-194zm1 319q42 0 77 18t55 49v144q-20 31-55 49t-77 18q-29 0-54-10t-43.5-28.5-29-44T153 264t10.5-56.5 29-44T236 135t54-10z"/><glyph glyph-name="h" unicode="h" d="M70 710h110V453q26 29 63.5 42t76.5 13q46 0 84-15.5t64-43.5 40.5-68 14.5-88V0H413v291q0 20-7.5 40t-22 36-35.5 26-49 10q-42 0-73-21.5T180 315V0H70v710z"/><glyph glyph-name="i" unicode="i" horiz-adv-x="250" d="M70 597q-18 21-18 48 0 30 21.5 51.5T125 718t51.5-21.5T198 645q0-27-18-48H70zm0-97h110V0H70v500z"/><glyph glyph-name="j" unicode="j" horiz-adv-x="258" d="M-27-80H3q38 0 56.5 15T78-12v512h110V-18q0-91-46-128.5T8-184h-35v104zM78 597q-18 21-18 48 0 30 21.5 51.5T133 718t51.5-21.5T206 645q0-27-18-48H78z"/><glyph glyph-name="k" unicode="k" horiz-adv-x="525" d="M70 710h110V274l200 226h130L302 263 535 0H400L180 249V0H70v710z"/><glyph glyph-name="l" unicode="l" horiz-adv-x="250" d="M70 710h110V0H70v710z"/><glyph glyph-name="m" unicode="m" horiz-adv-x="887" d="M713 291q0 20-6 40t-18.5 36-32 26-46.5 10q-37 0-65-21.5T501 316q1-6 1-11.5V0H392v291q0 20-6 40t-19 36-32.5 26-46.5 10q-36 0-64.5-21T180 318V0H70v500h110v-47q26 29 60 42t69 13q53 0 92-20.5t64-56.5q18 23 39 38t43 23.5 43.5 12T630 508q93 0 143-59t50-156V0H713v291z"/><glyph glyph-name="n" unicode="n" d="M70 500h110v-47q26 29 63.5 42t76.5 13q46 0 84-15.5t64-43.5 40.5-68 14.5-88V0H413v291q0 20-7.5 40t-22 36-35.5 26-49 10q-42 0-73-21.5T180 315V0H70v500z"/><glyph glyph-name="o" unicode="o" horiz-adv-x="594" d="M297 97q32 0 58.5 11.5t46 32T432 189t11 61-11 61-30.5 48.5-46 32T297 403t-59-11.5-46.5-32-30-48.5-10.5-61 10.5-61 30-48.5 46.5-32T297 97zm0-105q-56 0-103.5 20t-82 54.5-54 81.5T38 250t19.5 102 54 81.5 82 54.5T297 508q55 0 102.5-20t82.5-54.5 54.5-81.5T556 250t-19.5-102T482 66.5 399.5 12 297-8z"/><glyph glyph-name="p" unicode="p" horiz-adv-x="610" d="M70 500h110v-37q26 21 60 33t74 12q55 0 102.5-20t81.5-54.5 53.5-81.5T571 250t-19.5-102T498 66.5 416.5 12 314-8q-81 0-134 44v-220H70v684zm243-97q-42 0-77.5-18.5T180 335V165q20-31 55.5-49.5T313 97q32 0 58.5 11.5t46 32 30 48.5 10.5 61-10.5 61-30 48.5-46 32T313 403z"/><glyph glyph-name="q" unicode="q" horiz-adv-x="609" d="M429 36q-26-21-60-32.5T295-8q-56 0-103 20t-81 54.5T57.5 148 38 250t19.5 102 53.5 81.5 81 54.5 103 20q40 0 74-12t60-33v37h110v-684H429V36zM296 97q42 0 77.5 18.5T429 165v170q-20 31-55.5 49.5T296 403q-32 0-58.5-11.5t-46-32-30-48.5-10.5-61 10.5-61 30-48.5 46-32T296 97z"/><glyph glyph-name="r" unicode="r" horiz-adv-x="363" d="M70 500h110v-49q47 56 129 56 19 0 36-3V389q-21 7-55 7-35 0-64-14t-46-46V0H70v500z"/><glyph glyph-name="s" unicode="s" horiz-adv-x="427" d="M213-8q-60 0-107.5 24.5T27 94l84 60q18-31 41-47.5T213 90q29 0 46.5 13t17.5 33q0 22-16 36t-51 27l-35 14q-64 25-93 64t-29 90q0 30 12 56t33.5 45 51 29.5T214 508q48 0 88-20t68-67l-81-56q-25 45-73 45-22 0-38.5-10.5T161 370q0-20 14.5-33.5T225 309l36-13q63-25 97-60.5t34-94.5q0-33-13-60.5t-36.5-47T286 3 213-8z"/><glyph glyph-name="t" unicode="t" horiz-adv-x="389" d="M10 500h97v96l110 54V500h152l-24-98H217V175q0-38 14-56t57-18h69V0h-97q-72 0-112.5 40T107 152v250H34z"/><glyph glyph-name="u" unicode="u" d="M407 46q-26-29-63.5-41.5T267-8q-47 0-84.5 15.5T119 51t-40.5 68T64 207v293h110V209q0-20 7.5-40t22-36 36-26T288 97q42 0 72.5 21t46.5 64v318h110V0H407v46z"/><glyph glyph-name="v" unicode="v" horiz-adv-x="530" d="M-9 500h124l150-294 148 294h126L265-8z"/><glyph glyph-name="w" unicode="w" horiz-adv-x="713" d="M8 500h115l99-327 135 335 134-335 99 327h115L547 0h-86L357 260 252 0h-86z"/><glyph glyph-name="x" unicode="x" horiz-adv-x="530" d="M196 253 17 500h127l121-166 121 166h127L334 253 523 0H395L265 178 135 0H7z"/><glyph glyph-name="y" unicode="y" horiz-adv-x="514" d="M201 26 4 500h118l136-345 137 345h118L227-184H111z"/><glyph glyph-name="z" unicode="z" horiz-adv-x="501" d="M287 402H47v98h430L205 98h258V0H15z"/><glyph glyph-name="braceleft" unicode="{" horiz-adv-x="330" d="M235-148q-69 0-102 37T100-5v198q0 31-11 48t-46 17H30v84h13q35 0 46 17.5t11 47.5v198q0 69 31.5 106T232 748h64v-85h-42q-35 0-46.5-16T196 596V406q0-45-13.5-69.5T140 300q29-11 42.5-35.5T196 194V4q0-35 11.5-51T254-63h42v-85h-61z"/><glyph glyph-name="bar" unicode="|" horiz-adv-x="261" d="M82 710h97v-894H82v894z"/><glyph glyph-name="braceright" unicode="}" horiz-adv-x="330" d="M95-148H34v85h42q35 0 46.5 16T134 4v190q0 46 13.5 70.5T190 300q-29 12-42.5 36.5T134 406v190q0 35-11.5 51T76 663H34v85h64q69 0 100.5-37T230 605V407q0-30 11-47.5t46-17.5h13v-84h-13q-35 0-46-17t-11-48V-5q0-69-33-106T95-148z"/><glyph glyph-name="uni00A0" horiz-adv-x="233"/><glyph glyph-name="exclamdown" unicode="¡" horiz-adv-x="267" d="m78 75 22 192h68l21-192v-259H78V75zm5 276q-17 11-26.5 29.5T47 421q0 18 7 34t18.5 27.5 27 18.5 33.5 7q36 0 61.5-25.5T220 421q0-22-10-40.5T184 351H83z"/><glyph glyph-name="sterling" unicode="£" horiz-adv-x="585" d="M50 391h81q-19 23-29 53t-10 61q0 42 16.5 81t45.5 68 69.5 46.5T312 718q46 0 86-17t69.5-46 47-68 18.5-84H421q0 24-8 44.5T391 583t-34.5 24-44.5 9q-48 0-79-31.5T202 505q0-24 8-44.5t23-36 35-24.5 44-9h81v-90H246V103h303V0H50v103h85v198H50v90z"/><glyph glyph-name="yen" unicode="¥" horiz-adv-x="680" d="M121 369h120L24 710h128l188-299 187 299h129L439 369h121v-88H395v-74h165v-88H395V0H286v119H121v88h165v74H121v88z"/><glyph glyph-name="dieresis" unicode="¨" horiz-adv-x="466" d="M118 562q-28 0-48 19.5T50 629t20 48 48 20 48-20 20-48-20-47.5-48-19.5zm230 0q-29 0-48 19.5T281 629t19 48 48 20q28 0 47.5-20t19.5-48-19.5-47.5T348 562z"/><glyph glyph-name="copyright" unicode="©" horiz-adv-x="812" d="M416 171q-40 0-73.5 14t-58 38.5T246 282t-14 73 14 73 38.5 58.5 58 38.5 73.5 14q96 0 148-80l-60-41q-14 23-38 36.5T414 468q-44 0-74-30.5T310 355t30-82.5 74-30.5q28 0 52 13.5t38 36.5l60-41q-26-38-63-59t-85-21zm-10-99q59 0 110 21.5t88.5 59.5 59 89.5T685 355t-21.5 113-59 89.5-88.5 59T406 638t-110-21.5-88.5-59T148 468t-22-113 22-112.5 59.5-89.5T296 93.5 406 72zm0-80q-75 0-141 27.5T149.5 96t-78 115T43 355t28.5 144 78 115T265 690.5 406 718t141-27.5T662.5 614t78-115T769 355t-28.5-144-78-115T547 19.5 406-8z"/><glyph glyph-name="guillemotleft" unicode="«" horiz-adv-x="528" d="m251 250 156 228 75-51-121-177L482 73l-75-51zm-214 0 156 228 75-51-121-177L268 73l-75-51z"/><glyph glyph-name="uni00AD" unicode="­" horiz-adv-x="382" d="M62 331h258V222H62v109z"/><glyph glyph-name="macron" unicode="¯" horiz-adv-x="410" d="M52 677h306v-76H52v76z"/><glyph glyph-name="degree" unicode="°" horiz-adv-x="324" d="M162 537q23 0 39 16t16 39-16 39-39 16-39-16-16-39 16-39 39-16zm0-67q-25 0-47.5 9.5t-39 26-26 39T40 592t9.5 47.5 26 39 39 26T162 714t47.5-9.5 39-26 26-39T284 592t-9.5-47.5-26-39-39-26T162 470z"/><glyph glyph-name="acute" unicode="´" horiz-adv-x="328" d="M140 710h133L142 545H55z"/><glyph glyph-name="periodcentered" unicode="·" horiz-adv-x="279" d="M140 189q-36 0-61.5 25.5T53 276q0 18 7 33.5t18.5 27T106 355t34 7 33.5-7 27.5-18.5 18.5-27T226 276q0-36-25-61.5T140 189z"/><glyph glyph-name="cedilla" unicode="¸" horiz-adv-x="267" d="M110 0h82l-40-132H52z"/><glyph glyph-name="guillemotright" unicode="»" horiz-adv-x="528" d="m335 22-75 51 121 177-121 177 75 51 156-228zm-214 0L46 73l121 177L46 427l75 51 156-228z"/><glyph glyph-name="questiondown" unicode="¿" horiz-adv-x="528" d="M271-194q-49 0-91.5 18T106-127.5 57.5-56 40 32t17.5 84.5 45.5 64 63 42.5 70 21v35h99V144h-58q-59 0-92.5-34T151 25q0-24 8.5-45T183-56.5t36.5-25T268-91q26 0 48.5 9.5T355-56t25 37.5 9 46.5v8h112q0-48-17.5-90t-48-73-73-49-91.5-18zm-36 545q-17 12-26.5 30t-9.5 40q0 18 7 34t18.5 27.5 27 18.5 33.5 7q36 0 61.5-25.5T372 421q0-22-10-40t-26-30H235z"/><glyph glyph-name="Agrave" unicode="À" horiz-adv-x="674" d="M337 718 684 0H559l-74 158H188L114 0H-10zm-99-454h197l-98 210zm-53 649h130l75-145h-87z"/><glyph glyph-name="Aacute" unicode="Á" horiz-adv-x="674" d="M337 718 684 0H559l-74 158H188L114 0H-10zm-99-454h197l-98 210zm132 649h130L383 768h-87z"/><glyph glyph-name="Acircumflex" unicode="Â" horiz-adv-x="674" d="M337 718 684 0H559l-74 158H188L114 0H-10zm-99-454h197l-98 210zm-76 569 175 91 174-91-37-73-137 73-138-73z"/><glyph glyph-name="Atilde" unicode="Ã" horiz-adv-x="674" d="M337 718 684 0H559l-74 158H188L114 0H-10zm-99-454h197l-98 210zm-79 536q4 24 15 43.5t26 32.5 33 20 36 7q21 0 39-6.5t33-15 28.5-15T395 860q20 0 30 10t16 33h78l-3-22q-4-24-14.5-43.5T476 805t-32.5-20-36.5-7q-22 0-40 6.5t-33.5 15-28.5 15-25 6.5q-20 0-30.5-10.5T234 777h-79z"/><glyph glyph-name="Adieresis" unicode="Ä" horiz-adv-x="674" d="M337 718 684 0H559l-74 158H188L114 0H-10zm-99-454h197l-98 210zm-16 510q-27 0-47.5 19.5T154 842q0 28 20.5 48t47.5 20q29 0 48.5-20t19.5-48q0-29-19.5-48.5T222 774zm230 0q-28 0-48 19.5T384 842q0 28 20 48t48 20q29 0 48.5-20t19.5-48q0-29-19.5-48.5T452 774z"/><glyph glyph-name="Aring" unicode="Å" horiz-adv-x="674" d="M337 718 684 0H559l-74 158H188L114 0H-10zm-99-454h197l-98 210zm99 543q20 0 33.5 13t13.5 34q0 20-13.5 34T337 902t-34-14-14-34q0-21 14-34t34-13zm0-57q-23 0-42.5 8T261 780t-22.5 33-8.5 41q0 45 31 74.5t76 29.5q22 0 41.5-8t34-22 23-33 8.5-41-8.5-41-23-33-34-22-41.5-8z"/><glyph glyph-name="AE" unicode="Æ" horiz-adv-x="967" d="m289 598-52 112h392l55-114H406l87-180h228l54-112H547l92-190h278L972 0H569l-74 158H198L124 0H0zm-41-334h197l-98 210z"/><glyph glyph-name="Ccedilla" unicode="Ç" horiz-adv-x="680" d="M335-1q-63 12-116.5 43.5T126 121 65 227.5 43 355q0 77 28.5 143.5t77.5 115T264.5 690 406 718t138.5-26T657 615l-75-82q-33 35-78.5 55T406 608q-53 0-97.5-19.5T231 535t-51.5-80.5T161 355t18.5-99.5T231 175t77.5-53.5T406 102q52 0 97.5 20t78.5 55l75-82q-48-50-109-75.5T415-8l-37-124H278z"/><glyph glyph-name="Egrave" unicode="È" horiz-adv-x="559" d="M88 710h421V596H204V416h245V304H204V114h305V0H88v710zm79 203h130l75-145h-87z"/><glyph glyph-name="Eacute" unicode="É" horiz-adv-x="559" d="M88 710h421V596H204V416h245V304H204V114h305V0H88v710zm211 203h130L312 768h-87z"/><glyph glyph-name="Ecircumflex" unicode="Ê" horiz-adv-x="559" d="M88 710h421V596H204V416h245V304H204V114h305V0H88v710zm36 123 175 91 174-91-37-73-137 73-138-73z"/><glyph glyph-name="Edieresis" unicode="Ë" horiz-adv-x="559" d="M88 710h421V596H204V416h245V304H204V114h305V0H88v710zm95 64q-27 0-47.5 19.5T115 842q0 28 20.5 48t47.5 20q29 0 48.5-20t19.5-48q0-29-19.5-48.5T183 774zm230 0q-28 0-48 19.5T345 842q0 28 20 48t48 20q29 0 48.5-20t19.5-48q0-29-19.5-48.5T413 774z"/><glyph glyph-name="Igrave" unicode="Ì" horiz-adv-x="292" d="M88 710h116V0H88v710zM15 913h130l75-145h-87z"/><glyph glyph-name="Iacute" unicode="Í" horiz-adv-x="292" d="M88 710h116V0H88v710zm59 203h130L160 768H73z"/><glyph glyph-name="Icircumflex" unicode="Î" horiz-adv-x="292" d="M88 710h116V0H88v710zM-28 833l175 91 174-91-37-73-137 73L9 760z"/><glyph glyph-name="Idieresis" unicode="Ï" horiz-adv-x="292" d="M88 710h116V0H88v710zm-56 64q-27 0-47.5 19.5T-36 842q0 28 20.5 48T32 910q29 0 48.5-20t19.5-48q0-29-19.5-48.5T32 774zm230 0q-28 0-48 19.5T194 842q0 28 20 48t48 20q29 0 48.5-20t19.5-48q0-29-19.5-48.5T262 774z"/><glyph glyph-name="Eth" unicode="Ð" horiz-adv-x="768" d="M19 421h109v289h225q79 0 147.5-27t118-75 78-113T725 355t-28.5-140-78-113-118-75T353 0H128v313H19v108zm334-313q57 0 104 19t80.5 52 51.5 78 18 98q0 52-18 97.5T537.5 531 457 583t-104 19H244V421h130V313H244V108h109z"/><glyph glyph-name="Ntilde" unicode="Ñ" horiz-adv-x="777" d="M204 453V0H88v718l485-461v453h116V-8zm6 347q4 24 15 43.5t26 32.5 33 20 36 7q21 0 39-6.5t33-15 28.5-15T446 860q20 0 30 10t16 33h78l-3-22q-4-24-14.5-43.5T527 805t-32.5-20-36.5-7q-22 0-40 6.5t-33.5 15-28.5 15-25 6.5q-20 0-30.5-10.5T285 777h-79z"/><glyph glyph-name="Ograve" unicode="Ò" horiz-adv-x="812" d="M406 102q52 0 97 19.5t78 53.5 51.5 80.5T651 355t-18.5 99.5T581 535t-78 53.5-97 19.5q-53 0-97.5-19.5T231 535t-51.5-80.5T161 355t18.5-99.5T231 175t77.5-53.5T406 102zm0-110q-75 0-141.5 28T149 96.5t-77.5 115T43 355t28.5 143.5 77.5 115T264.5 690 406 718q76 0 142-28t115-76.5 77.5-115T769 355t-28.5-143.5-77.5-115T548 20 406-8zM265 913h130l75-145h-87z"/><glyph glyph-name="Oacute" unicode="Ó" horiz-adv-x="812" d="M406 102q52 0 97 19.5t78 53.5 51.5 80.5T651 355t-18.5 99.5T581 535t-78 53.5-97 19.5q-53 0-97.5-19.5T231 535t-51.5-80.5T161 355t18.5-99.5T231 175t77.5-53.5T406 102zm0-110q-75 0-141.5 28T149 96.5t-77.5 115T43 355t28.5 143.5 77.5 115T264.5 690 406 718q76 0 142-28t115-76.5 77.5-115T769 355t-28.5-143.5-77.5-115T548 20 406-8zm10 921h130L429 768h-87z"/><glyph glyph-name="Ocircumflex" unicode="Ô" horiz-adv-x="812" d="M406 102q52 0 97 19.5t78 53.5 51.5 80.5T651 355t-18.5 99.5T581 535t-78 53.5-97 19.5q-53 0-97.5-19.5T231 535t-51.5-80.5T161 355t18.5-99.5T231 175t77.5-53.5T406 102zm0-110q-75 0-141.5 28T149 96.5t-77.5 115T43 355t28.5 143.5 77.5 115T264.5 690 406 718q76 0 142-28t115-76.5 77.5-115T769 355t-28.5-143.5-77.5-115T548 20 406-8zM231 833l175 91 174-91-37-73-137 73-138-73z"/><glyph glyph-name="Otilde" unicode="Õ" horiz-adv-x="812" d="M406 102q52 0 97 19.5t78 53.5 51.5 80.5T651 355t-18.5 99.5T581 535t-78 53.5-97 19.5q-53 0-97.5-19.5T231 535t-51.5-80.5T161 355t18.5-99.5T231 175t77.5-53.5T406 102zm0-110q-75 0-141.5 28T149 96.5t-77.5 115T43 355t28.5 143.5 77.5 115T264.5 690 406 718q76 0 142-28t115-76.5 77.5-115T769 355t-28.5-143.5-77.5-115T548 20 406-8zM228 800q4 24 15 43.5t26 32.5 33 20 36 7q21 0 39-6.5t33-15 28.5-15T464 860q20 0 30 10t16 33h78l-3-22q-4-24-14.5-43.5T545 805t-32.5-20-36.5-7q-22 0-40 6.5t-33.5 15-28.5 15-25 6.5q-20 0-30.5-10.5T303 777h-79z"/><glyph glyph-name="Odieresis" unicode="Ö" horiz-adv-x="812" d="M406 102q52 0 97 19.5t78 53.5 51.5 80.5T651 355t-18.5 99.5T581 535t-78 53.5-97 19.5q-53 0-97.5-19.5T231 535t-51.5-80.5T161 355t18.5-99.5T231 175t77.5-53.5T406 102zm0-110q-75 0-141.5 28T149 96.5t-77.5 115T43 355t28.5 143.5 77.5 115T264.5 690 406 718q76 0 142-28t115-76.5 77.5-115T769 355t-28.5-143.5-77.5-115T548 20 406-8zM291 774q-27 0-47.5 19.5T223 842q0 28 20.5 48t47.5 20q29 0 48.5-20t19.5-48q0-29-19.5-48.5T291 774zm230 0q-28 0-48 19.5T453 842q0 28 20 48t48 20q29 0 48.5-20t19.5-48q0-29-19.5-48.5T521 774z"/><glyph glyph-name="multiply" unicode="×" horiz-adv-x="590" d="m98 131 135 134L98 400l63 62 134-135 135 135 62-62-135-135 135-134-62-62-135 134L161 69z"/><glyph glyph-name="Oslash" unicode="Ø" horiz-adv-x="816" d="m59 49 68 73q-38 48-60 106.5T45 355q0 77 28.5 143.5t77.5 115T266.5 690 408 718q60 0 113-17t98-49l72 77 68-65-71-76q39-48 61-106.5T771 355q0-77-28.5-143.5T665 96.5 550 20 408-8Q348-8 294.5 9T196 58l-70-75zm349 53q52 0 97 19.5t78 53.5 51.5 80.5T653 355q0 42-11.5 79T609 502L273 141q59-39 135-39zM163 355q0-42 11.5-79t31.5-68l336 360q-29 19-62.5 29.5T408 608q-53 0-97.5-19.5T233 535t-51.5-80.5T163 355z"/><glyph glyph-name="Ugrave" unicode="Ù" horiz-adv-x="731" d="M366-8q-63 0-115.5 20T160 68.5t-59 89T80 276v434h116V273q0-83 47-127t123-44 122.5 44T535 273v437h116V276q0-66-21-118.5t-59-89T481 12 366-8zM223 913h130l75-145h-87z"/><glyph glyph-name="Uacute" unicode="Ú" horiz-adv-x="731" d="M366-8q-63 0-115.5 20T160 68.5t-59 89T80 276v434h116V273q0-83 47-127t123-44 122.5 44T535 273v437h116V276q0-66-21-118.5t-59-89T481 12 366-8zm10 921h130L389 768h-87z"/><glyph glyph-name="Ucircumflex" unicode="Û" horiz-adv-x="731" d="M366-8q-63 0-115.5 20T160 68.5t-59 89T80 276v434h116V273q0-83 47-127t123-44 122.5 44T535 273v437h116V276q0-66-21-118.5t-59-89T481 12 366-8zM190 833l175 91 174-91-37-73-137 73-138-73z"/><glyph glyph-name="Udieresis" unicode="Ü" horiz-adv-x="731" d="M366-8q-63 0-115.5 20T160 68.5t-59 89T80 276v434h116V273q0-83 47-127t123-44 122.5 44T535 273v437h116V276q0-66-21-118.5t-59-89T481 12 366-8zM250 774q-27 0-47.5 19.5T182 842q0 28 20.5 48t47.5 20q29 0 48.5-20t19.5-48q0-29-19.5-48.5T250 774zm230 0q-28 0-48 19.5T412 842q0 28 20 48t48 20q29 0 48.5-20t19.5-48q0-29-19.5-48.5T480 774z"/><glyph glyph-name="Yacute" unicode="Ý" horiz-adv-x="648" d="M266 299 5 710h136l183-293 183 293h137L382 299V0H266v299zm80 614h130L359 768h-87z"/><glyph glyph-name="Thorn" unicode="Þ" horiz-adv-x="582" d="M88 710h116V582h92q55 0 101-17t79-47 51-71.5 18-90.5q0-50-18-91.5T476 193t-79-46.5T296 130h-92V0H88v710zm207-472q64 0 99.5 32.5T430 356t-35.5 85-99.5 32h-91V238h91z"/><glyph glyph-name="germandbls" unicode="ß" horiz-adv-x="562" d="M70 494q0 54 17 95.5t46 70 68.5 43.5 83.5 15 82-15 65.5-41 43-60 15.5-71q0-51-24.5-89.5T400 380q59-19 91.5-65T524 213q0-45-17-84t-47.5-67.5-74.5-45T287 0h-42v101h42q57 0 91.5 31.5T413 215q0 52-36.5 81.5T283 326h-38v97h17q24 0 45.5 7t38 20 26 32.5T381 526q0 42-26.5 67T285 618q-48 0-76.5-32T180 494V0H70v494z"/><glyph glyph-name="agrave" unicode="à" horiz-adv-x="609" d="M429 36q-26-21-60-32.5T295-8q-56 0-103 20t-81 54.5T57.5 148 38 250t19.5 102 53.5 81.5 81 54.5 103 20q40 0 74-12t60-33v37h110V0H429v36zM296 97q42 0 77.5 18.5T429 165v170q-20 31-55.5 49.5T296 403q-32 0-58.5-11.5t-46-32-30-48.5-10.5-61 10.5-61 30-48.5 46-32T296 97zM151 710h133l84-165h-85z"/><glyph glyph-name="aacute" unicode="á" horiz-adv-x="609" d="M429 36q-26-21-60-32.5T295-8q-56 0-103 20t-81 54.5T57.5 148 38 250t19.5 102 53.5 81.5 81 54.5 103 20q40 0 74-12t60-33v37h110V0H429v36zM296 97q42 0 77.5 18.5T429 165v170q-20 31-55.5 49.5T296 403q-32 0-58.5-11.5t-46-32-30-48.5-10.5-61 10.5-61 30-48.5 46-32T296 97zm27 613h133L325 545h-87z"/><glyph glyph-name="acircumflex" unicode="â" horiz-adv-x="609" d="M429 36q-26-21-60-32.5T295-8q-56 0-103 20t-81 54.5T57.5 148 38 250t19.5 102 53.5 81.5 81 54.5 103 20q40 0 74-12t60-33v37h110V0H429v36zM296 97q42 0 77.5 18.5T429 165v170q-20 31-55.5 49.5T296 403q-32 0-58.5-11.5t-46-32-30-48.5-10.5-61 10.5-61 30-48.5 46-32T296 97zM143 613l173 105 173-105-40-70-133 81-131-81z"/><glyph glyph-name="atilde" unicode="ã" horiz-adv-x="609" d="M429 36q-26-21-60-32.5T295-8q-56 0-103 20t-81 54.5T57.5 148 38 250t19.5 102 53.5 81.5 81 54.5 103 20q40 0 74-12t60-33v37h110V0H429v36zM296 97q42 0 77.5 18.5T429 165v170q-20 31-55.5 49.5T296 403q-32 0-58.5-11.5t-46-32-30-48.5-10.5-61 10.5-61 30-48.5 46-32T296 97zM146 584q8 49 40 75.5t68 26.5q21 0 39-6.5t33-14.5 28.5-14.5T380 644q20 0 30 10t16 33h77l-3-22q-8-47-39-74.5T392 563q-22 0-40 6.5T318.5 584 290 598.5t-25 6.5q-20 0-30.5-10T219 562h-77z"/><glyph glyph-name="adieresis" unicode="ä" horiz-adv-x="609" d="M429 36q-26-21-60-32.5T295-8q-56 0-103 20t-81 54.5T57.5 148 38 250t19.5 102 53.5 81.5 81 54.5 103 20q40 0 74-12t60-33v37h110V0H429v36zM296 97q42 0 77.5 18.5T429 165v170q-20 31-55.5 49.5T296 403q-32 0-58.5-11.5t-46-32-30-48.5-10.5-61 10.5-61 30-48.5 46-32T296 97zm-92 465q-28 0-48 19.5T136 629t20 48 48 20 48-20 20-48-20-47.5-48-19.5zm230 0q-29 0-48 19.5T367 629t19 48 48 20q28 0 47.5-20t19.5-48-19.5-47.5T434 562z"/><glyph glyph-name="aring" unicode="å" horiz-adv-x="609" d="M429 36q-26-21-60-32.5T295-8q-56 0-103 20t-81 54.5T57.5 148 38 250t19.5 102 53.5 81.5 81 54.5 103 20q40 0 74-12t60-33v37h110V0H429v36zM296 97q42 0 77.5 18.5T429 165v170q-20 31-55.5 49.5T296 403q-32 0-58.5-11.5t-46-32-30-48.5-10.5-61 10.5-61 30-48.5 46-32T296 97zm0 511q20 0 33.5 13.5T343 655t-13.5 33.5T296 702t-34-13.5-14-33.5 14-33.5 34-13.5zm0-57q-23 0-42.5 8T220 581t-22.5 33-8.5 41 8.5 41 23 33 34 22 41.5 8 41.5-8 34-22 23-33 8.5-41-8.5-41-23-33-34-22-41.5-8z"/><glyph glyph-name="ae" unicode="æ" horiz-adv-x="904" d="M632-8q-62 0-112.5 23T434 80q-40-43-90-65.5T231-8Q140-8 86.5 37.5T33 163q0 36 15 65t41 48.5 62.5 30T232 317q43 0 77.5-9.5T371 284v21q-2 30-13.5 49T328 384.5t-40.5 16T241 405q-42 0-74.5-12T110 364l-42 92q33 21 80 36.5T250 508q28 0 55.5-4.5t52.5-15 45-27 33-39.5q35 40 84.5 63T630 508q52 0 95-18t74-51 49-81 21-108v-30H488q8-54 47.5-86.5T632 101q45 0 77.5 17.5T762 158l74-79q-32-38-85-62.5T632-8zM238 92q47 0 81.5 17.5T371 155v43q-23 17-54 26.5t-73 9.5-72.5-17.5T141 161q0-19 8.5-32t22-21.5 31-12T238 92zm384 315q-45 0-81-27t-50-75h257q-10 51-43 76.5T622 407z"/><glyph glyph-name="ccedilla" unicode="ç" horiz-adv-x="511" d="M239-2q-45 9-82 31.5T93.5 85t-41 75T38 250q0 55 19.5 102t54 81.5T193 488t103 20q60 0 108-22.5t83-60.5l-75-77q-20 23-48.5 38T296 401q-32 0-58.5-11.5t-46-31.5-30-47.5T151 250t10.5-60.5 30-47.5 46-31.5T296 99q39 0 67.5 15t48.5 38l75-77q-32-34-73.5-55.5T320-7l-38-125H182z"/><glyph glyph-name="egrave" unicode="è" horiz-adv-x="568" d="M296-8q-56 0-103 20t-81.5 54.5-54 81.5T38 250t19.5 102 54 81.5 81 54.5T294 508q52 0 95-18t74-51 49-81 21-108v-30H152q8-54 47.5-86.5T296 101q45 0 77.5 17.5T426 158l74-79q-32-38-85-62.5T296-8zm-10 415q-45 0-81-27t-50-75h257q-10 51-43 76.5T286 407zM142 710h133l84-165h-85z"/><glyph glyph-name="eacute" unicode="é" horiz-adv-x="568" d="M296-8q-56 0-103 20t-81.5 54.5-54 81.5T38 250t19.5 102 54 81.5 81 54.5T294 508q52 0 95-18t74-51 49-81 21-108v-30H152q8-54 47.5-86.5T296 101q45 0 77.5 17.5T426 158l74-79q-32-38-85-62.5T296-8zm-10 415q-45 0-81-27t-50-75h257q-10 51-43 76.5T286 407zm33 303h133L321 545h-87z"/><glyph glyph-name="ecircumflex" unicode="ê" horiz-adv-x="568" d="M296-8q-56 0-103 20t-81.5 54.5-54 81.5T38 250t19.5 102 54 81.5 81 54.5T294 508q52 0 95-18t74-51 49-81 21-108v-30H152q8-54 47.5-86.5T296 101q45 0 77.5 17.5T426 158l74-79q-32-38-85-62.5T296-8zm-10 415q-45 0-81-27t-50-75h257q-10 51-43 76.5T286 407zM121 613l173 105 173-105-40-70-133 81-131-81z"/><glyph glyph-name="edieresis" unicode="ë" horiz-adv-x="568" d="M296-8q-56 0-103 20t-81.5 54.5-54 81.5T38 250t19.5 102 54 81.5 81 54.5T294 508q52 0 95-18t74-51 49-81 21-108v-30H152q8-54 47.5-86.5T296 101q45 0 77.5 17.5T426 158l74-79q-32-38-85-62.5T296-8zm-10 415q-45 0-81-27t-50-75h257q-10 51-43 76.5T286 407zM178 562q-28 0-48 19.5T110 629t20 48 48 20 48-20 20-48-20-47.5-48-19.5zm230 0q-29 0-48 19.5T341 629t19 48 48 20q28 0 47.5-20t19.5-48-19.5-47.5T408 562z"/><glyph glyph-name="igrave" unicode="ì" horiz-adv-x="250" d="M70 500h110V0H70v500zm-87 210h133l84-165h-85z"/><glyph glyph-name="iacute" unicode="í" horiz-adv-x="250" d="M70 500h110V0H70v500zm67 210h133L139 545H52z"/><glyph glyph-name="icircumflex" unicode="î" horiz-adv-x="250" d="M70 500h110V0H70v500zM-47 613l173 105 173-105-40-70-133 81-131-81z"/><glyph glyph-name="idieresis" unicode="ï" horiz-adv-x="250" d="M70 500h110V0H70v500zm-60 62q-28 0-48 19.5T-58 629t20 48 48 20 48-20 20-48-20-47.5T10 562zm230 0q-29 0-48 19.5T173 629t19 48 48 20q28 0 47.5-20t19.5-48-19.5-47.5T240 562z"/><glyph glyph-name="eth" unicode="ð" horiz-adv-x="595" d="M151 631h83l-53 79h122l53-79h117v-78h-65l100-150q22-32 35-70.5t13-82.5q0-55-19.5-102T482 66.5 399.5 12 297-8q-56 0-103.5 20t-82 54.5-54 81.5T38 250t20 102.5 54.5 82 80 54T290 508q7 0 16-1t12-2l-32 48H151v78zM297 97q32 0 58.5 11.5t46 32T432 189t11 61-11 61-30.5 48.5-46 32T297 403t-59-11.5-46.5-32-30-48.5-10.5-61 10.5-61 30-48.5 46.5-32T297 97z"/><glyph glyph-name="ntilde" unicode="ñ" d="M70 500h110v-47q26 29 63.5 42t76.5 13q46 0 84-15.5t64-43.5 40.5-68 14.5-88V0H413v291q0 20-7.5 40t-22 36-35.5 26-49 10q-42 0-73-21.5T180 315V0H70v500zm50 84q8 49 40 75.5t68 26.5q21 0 39-6.5t33-14.5 28.5-14.5T354 644q20 0 30 10t16 33h77l-3-22q-8-47-39-74.5T366 563q-22 0-40 6.5T292.5 584 264 598.5t-25 6.5q-20 0-30.5-10T193 562h-77z"/><glyph glyph-name="ograve" unicode="ò" horiz-adv-x="594" d="M297 97q32 0 58.5 11.5t46 32T432 189t11 61-11 61-30.5 48.5-46 32T297 403t-59-11.5-46.5-32-30-48.5-10.5-61 10.5-61 30-48.5 46.5-32T297 97zm0-105q-56 0-103.5 20t-82 54.5-54 81.5T38 250t19.5 102 54 81.5 82 54.5T297 508q55 0 102.5-20t82.5-54.5 54.5-81.5T556 250t-19.5-102T482 66.5 399.5 12 297-8zM153 710h133l84-165h-85z"/><glyph glyph-name="oacute" unicode="ó" horiz-adv-x="594" d="M297 97q32 0 58.5 11.5t46 32T432 189t11 61-11 61-30.5 48.5-46 32T297 403t-59-11.5-46.5-32-30-48.5-10.5-61 10.5-61 30-48.5 46.5-32T297 97zm0-105q-56 0-103.5 20t-82 54.5-54 81.5T38 250t19.5 102 54 81.5 82 54.5T297 508q55 0 102.5-20t82.5-54.5 54.5-81.5T556 250t-19.5-102T482 66.5 399.5 12 297-8zm24 718h133L323 545h-87z"/><glyph glyph-name="ocircumflex" unicode="ô" horiz-adv-x="594" d="M297 97q32 0 58.5 11.5t46 32T432 189t11 61-11 61-30.5 48.5-46 32T297 403t-59-11.5-46.5-32-30-48.5-10.5-61 10.5-61 30-48.5 46.5-32T297 97zm0-105q-56 0-103.5 20t-82 54.5-54 81.5T38 250t19.5 102 54 81.5 82 54.5T297 508q55 0 102.5-20t82.5-54.5 54.5-81.5T556 250t-19.5-102T482 66.5 399.5 12 297-8zM124 613l173 105 173-105-40-70-133 81-131-81z"/><glyph glyph-name="otilde" unicode="õ" horiz-adv-x="594" d="M297 97q32 0 58.5 11.5t46 32T432 189t11 61-11 61-30.5 48.5-46 32T297 403t-59-11.5-46.5-32-30-48.5-10.5-61 10.5-61 30-48.5 46.5-32T297 97zm0-105q-56 0-103.5 20t-82 54.5-54 81.5T38 250t19.5 102 54 81.5 82 54.5T297 508q55 0 102.5-20t82.5-54.5 54.5-81.5T556 250t-19.5-102T482 66.5 399.5 12 297-8zM121 584q8 49 40 75.5t68 26.5q21 0 39-6.5t33-14.5 28.5-14.5T355 644q20 0 30 10t16 33h77l-3-22q-8-47-39-74.5T367 563q-22 0-40 6.5T293.5 584 265 598.5t-25 6.5q-20 0-30.5-10T194 562h-77z"/><glyph glyph-name="odieresis" unicode="ö" horiz-adv-x="594" d="M297 97q32 0 58.5 11.5t46 32T432 189t11 61-11 61-30.5 48.5-46 32T297 403t-59-11.5-46.5-32-30-48.5-10.5-61 10.5-61 30-48.5 46.5-32T297 97zm0-105q-56 0-103.5 20t-82 54.5-54 81.5T38 250t19.5 102 54 81.5 82 54.5T297 508q55 0 102.5-20t82.5-54.5 54.5-81.5T556 250t-19.5-102T482 66.5 399.5 12 297-8zM182 562q-28 0-48 19.5T114 629t20 48 48 20 48-20 20-48-20-47.5-48-19.5zm230 0q-29 0-48 19.5T345 629t19 48 48 20q28 0 47.5-20t19.5-48-19.5-47.5T412 562z"/><glyph glyph-name="divide" unicode="÷" horiz-adv-x="590" d="M294 46q-29 0-50 21t-21 50q0 30 21 50.5t50 20.5q30 0 51-20.5t21-50.5q0-29-21-50t-51-21zM76 321h437v-88H76v88zm218 44q-29 0-50 21t-21 51q0 29 21 50t50 21q30 0 51-21t21-50q0-30-21-51t-51-21z"/><glyph glyph-name="oslash" unicode="ø" horiz-adv-x="603" d="m42 39 52 53q-24 32-37.5 72T43 250q0 55 19.5 102t54 81.5 82 54.5T302 508q45 0 84.5-13t71.5-37l53 54 51-51-53-53q25-32 38.5-72.5T561 250q0-55-19.5-102T487 66.5 404.5 12 302-8q-45 0-84.5 13T146 41L93-13zm114 211q0-44 18-78l207 208q-17 11-37 17t-42 6q-32 0-59-11.5t-46.5-32-30-48.5-10.5-61zM302 97q32 0 58.5 11.5t46 32T437 189t11 61q0 41-19 77L223 119q35-22 79-22z"/><glyph glyph-name="ugrave" unicode="ù" d="M407 46q-26-29-63.5-41.5T267-8q-47 0-84.5 15.5T119 51t-40.5 68T64 207v293h110V209q0-20 7.5-40t22-36 36-26T288 97q42 0 72.5 21t46.5 64v318h110V0H407v46zM135 710h133l84-165h-85z"/><glyph glyph-name="uacute" unicode="ú" d="M407 46q-26-29-63.5-41.5T267-8q-47 0-84.5 15.5T119 51t-40.5 68T64 207v293h110V209q0-20 7.5-40t22-36 36-26T288 97q42 0 72.5 21t46.5 64v318h110V0H407v46zm-97 664h133L312 545h-87z"/><glyph glyph-name="ucircumflex" unicode="û" d="M407 46q-26-29-63.5-41.5T267-8q-47 0-84.5 15.5T119 51t-40.5 68T64 207v293h110V209q0-20 7.5-40t22-36 36-26T288 97q42 0 72.5 21t46.5 64v318h110V0H407v46zM116 613l173 105 173-105-40-70-133 81-131-81z"/><glyph glyph-name="udieresis" unicode="ü" d="M407 46q-26-29-63.5-41.5T267-8q-47 0-84.5 15.5T119 51t-40.5 68T64 207v293h110V209q0-20 7.5-40t22-36 36-26T288 97q42 0 72.5 21t46.5 64v318h110V0H407v46zM173 562q-28 0-48 19.5T105 629t20 48 48 20 48-20 20-48-20-47.5-48-19.5zm230 0q-29 0-48 19.5T336 629t19 48 48 20q28 0 47.5-20t19.5-48-19.5-47.5T403 562z"/><glyph glyph-name="yacute" unicode="ý" horiz-adv-x="514" d="M201 26 4 500h118l136-345 137 345h118L227-184H111zm89 684h133L292 545h-87z"/><glyph glyph-name="thorn" unicode="þ" horiz-adv-x="610" d="M70 710h110V463q26 21 60 33t74 12q55 0 102.5-20t81.5-54.5 53.5-81.5T571 250t-19.5-102T498 66.5 416.5 12 314-8q-81 0-134 44v-220H70v894zm243-307q-42 0-77.5-18.5T180 335V165q20-31 55.5-49.5T313 97q32 0 58.5 11.5t46 32 30 48.5 10.5 61-10.5 61-30 48.5-46 32T313 403z"/><glyph glyph-name="ydieresis" unicode="ÿ" horiz-adv-x="514" d="M201 26 4 500h118l136-345 137 345h118L227-184H111zm-59 536q-28 0-48 19.5T74 629t20 48 48 20 48-20 20-48-20-47.5-48-19.5zm230 0q-29 0-48 19.5T305 629t19 48 48 20q28 0 47.5-20t19.5-48-19.5-47.5T372 562z"/><glyph glyph-name="Amacron" unicode="Ā" horiz-adv-x="674" d="M337 718 684 0H559l-74 158H188L114 0H-10zm-99-454h197l-98 210zm-54 611h306v-76H184v76z"/><glyph glyph-name="amacron" unicode="ā" horiz-adv-x="609" d="M429 36q-26-21-60-32.5T295-8q-56 0-103 20t-81 54.5T57.5 148 38 250t19.5 102 53.5 81.5 81 54.5 103 20q40 0 74-12t60-33v37h110V0H429v36zM296 97q42 0 77.5 18.5T429 165v170q-20 31-55.5 49.5T296 403q-32 0-58.5-11.5t-46-32-30-48.5-10.5-61 10.5-61 30-48.5 46-32T296 97zM165 677h306v-76H165v76z"/><glyph glyph-name="Abreve" unicode="Ă" horiz-adv-x="674" d="M337 718 684 0H559l-74 158H188L114 0H-10zm-99-454h197l-98 210zm98 499q-36 0-66 12t-52 33-34.5 49.5T170 918h71q2-35 27.5-60.5T337 832q42 0 68 25.5t27 60.5h72q-1-32-13.5-60.5T456 808t-52.5-33-67.5-12z"/><glyph glyph-name="abreve" unicode="ă" horiz-adv-x="609" d="M429 36q-26-21-60-32.5T295-8q-56 0-103 20t-81 54.5T57.5 148 38 250t19.5 102 53.5 81.5 81 54.5 103 20q40 0 74-12t60-33v37h110V0H429v36zM296 97q42 0 77.5 18.5T429 165v170q-20 31-55.5 49.5T296 403q-32 0-58.5-11.5t-46-32-30-48.5-10.5-61 10.5-61 30-48.5 46-32T296 97zm10 459q-36 0-66 12t-52 33-34.5 49-13.5 60h71q2-35 27.5-60.5T307 624q42 0 68 25.5t27 60.5h72q-1-32-13.5-60T426 601t-52.5-33-67.5-12z"/><glyph glyph-name="Aogonek" unicode="Ą" horiz-adv-x="674" d="M610-189q-47 0-79 27t-32 71q0 29 19 53t45 38h-4l-74 158H188L114 0H-10l347 718L684 0h-2q-37-17-57-34t-20-38q0-17 11.5-27.5T648-110q11 0 20.5 3t15.5 6v-69q-17-10-35.5-14.5T610-189zM238 264h197l-98 210z"/><glyph glyph-name="aogonek" unicode="ą" horiz-adv-x="609" d="M471-182q-43 0-74.5 25.5T365-87q0 29 19 51t45 36v36q-26-21-60-32.5T295-8q-56 0-103 20t-81 54.5T57.5 148 38 250t19.5 102 53.5 81.5 81 54.5 103 20q40 0 74-12t60-33v37h110V0q-38-17-55-33.5T467-68q0-14 11-24.5t31-10.5q11 0 18.5 3t12.5 6v-69q-14-11-31.5-15t-37.5-4zM296 97q42 0 77.5 18.5T429 165v170q-20 31-55.5 49.5T296 403q-32 0-58.5-11.5t-46-32-30-48.5-10.5-61 10.5-61 30-48.5 46-32T296 97z"/><glyph glyph-name="Cacute" unicode="Ć" horiz-adv-x="680" d="M406-8q-75 0-141.5 28T149 96.5t-77.5 115T43 355t28.5 143.5 77.5 115T264.5 690 406 718t138.5-26T657 615l-75-82q-33 35-78.5 55T406 608q-53 0-97.5-19.5T231 535t-51.5-80.5T161 355t18.5-99.5T231 175t77.5-53.5T406 102q52 0 97.5 20t78.5 55l75-82q-49-51-112.5-77T406-8zm2 921h130L421 768h-87z"/><glyph glyph-name="cacute" unicode="ć" horiz-adv-x="511" d="M296-8q-56 0-103 20t-81.5 54.5-54 81.5T38 250t19.5 102 54 81.5T193 488t103 20q60 0 108-22.5t83-60.5l-75-77q-20 23-48.5 38T296 401q-32 0-58.5-11.5t-46-31.5-30-47.5T151 250t10.5-60.5 30-47.5 46-31.5T296 99q39 0 67.5 15t48.5 38l75-77q-35-38-83-60.5T296-8zm25 718h133L323 545h-87z"/><glyph glyph-name="Ccircumflex" unicode="Ĉ" horiz-adv-x="680" d="M406-8q-75 0-141.5 28T149 96.5t-77.5 115T43 355t28.5 143.5 77.5 115T264.5 690 406 718t138.5-26T657 615l-75-82q-33 35-78.5 55T406 608q-53 0-97.5-19.5T231 535t-51.5-80.5T161 355t18.5-99.5T231 175t77.5-53.5T406 102q52 0 97.5 20t78.5 55l75-82q-49-51-112.5-77T406-8zM232 833l175 91 174-91-37-73-137 73-138-73z"/><glyph glyph-name="ccircumflex" unicode="ĉ" horiz-adv-x="511" d="M296-8q-56 0-103 20t-81.5 54.5-54 81.5T38 250t19.5 102 54 81.5T193 488t103 20q60 0 108-22.5t83-60.5l-75-77q-20 23-48.5 38T296 401q-32 0-58.5-11.5t-46-31.5-30-47.5T151 250t10.5-60.5 30-47.5 46-31.5T296 99q39 0 67.5 15t48.5 38l75-77q-35-38-83-60.5T296-8zM124 613l173 105 173-105-40-70-133 81-131-81z"/><glyph glyph-name="Cdotaccent" unicode="Ċ" horiz-adv-x="680" d="M406-8q-75 0-141.5 28T149 96.5t-77.5 115T43 355t28.5 143.5 77.5 115T264.5 690 406 718t138.5-26T657 615l-75-82q-33 35-78.5 55T406 608q-53 0-97.5-19.5T231 535t-51.5-80.5T161 355t18.5-99.5T231 175t77.5-53.5T406 102q52 0 97.5 20t78.5 55l75-82q-49-51-112.5-77T406-8zm0 778q-29 0-50.5 21T334 842t21.5 51 50.5 21q30 0 51-21t21-51-21-51-51-21z"/><glyph glyph-name="cdotaccent" unicode="ċ" horiz-adv-x="511" d="M296-8q-56 0-103 20t-81.5 54.5-54 81.5T38 250t19.5 102 54 81.5T193 488t103 20q60 0 108-22.5t83-60.5l-75-77q-20 23-48.5 38T296 401q-32 0-58.5-11.5t-46-31.5-30-47.5T151 250t10.5-60.5 30-47.5 46-31.5T296 99q39 0 67.5 15t48.5 38l75-77q-35-38-83-60.5T296-8zm-1 566q-29 0-50 20.5T224 629t21 50.5 50 20.5q30 0 51-20.5t21-50.5-21-50.5-51-20.5z"/><glyph glyph-name="Ccaron" unicode="Č" horiz-adv-x="680" d="M406-8q-75 0-141.5 28T149 96.5t-77.5 115T43 355t28.5 143.5 77.5 115T264.5 690 406 718t138.5-26T657 615l-75-82q-33 35-78.5 55T406 608q-53 0-97.5-19.5T231 535t-51.5-80.5T161 355t18.5-99.5T231 175t77.5-53.5T406 102q52 0 97.5 20t78.5 55l75-82q-49-51-112.5-77T406-8zM232 851l37 72 137-73 138 73 37-73-175-91z"/><glyph glyph-name="ccaron" unicode="č" horiz-adv-x="511" d="M296-8q-56 0-103 20t-81.5 54.5-54 81.5T38 250t19.5 102 54 81.5T193 488t103 20q60 0 108-22.5t83-60.5l-75-77q-20 23-48.5 38T296 401q-32 0-58.5-11.5t-46-31.5-30-47.5T151 250t10.5-60.5 30-47.5 46-31.5T296 99q39 0 67.5 15t48.5 38l75-77q-35-38-83-60.5T296-8zm1 561L124 658l42 70 131-81 133 81 40-70z"/><glyph glyph-name="Dcaron" unicode="Ď" horiz-adv-x="728" d="M313 108q57 0 104 19t80.5 52 51.5 78 18 98q0 52-18 97.5T497.5 531 417 583t-104 19H204V108h109zM88 710h225q79 0 147.5-27t118-75 78-113T685 355t-28.5-140-78-113-118-75T313 0H88v710zm54 141 37 72 137-73 138 73 37-73-175-91z"/><glyph glyph-name="dcaron" unicode="ď" horiz-adv-x="633" d="M429 36q-26-21-60-32.5T295-8q-56 0-103 20t-81 54.5T57.5 148 38 250t19.5 102 53.5 81.5 81 54.5 103 20q40 0 74-12t60-33v247h110V0H429v36zM296 97q42 0 77.5 18.5T429 165v170q-20 31-55.5 49.5T296 403q-32 0-58.5-11.5t-46-32-30-48.5-10.5-61 10.5-61 30-48.5 46-32T296 97zm311 613h109l-57-163h-75z"/><glyph glyph-name="Dcroat" unicode="Đ" horiz-adv-x="768" d="M19 421h109v289h225q79 0 147.5-27t118-75 78-113T725 355t-28.5-140-78-113-118-75T353 0H128v313H19v108zm334-313q57 0 104 19t80.5 52 51.5 78 18 98q0 52-18 97.5T537.5 531 457 583t-104 19H244V421h130V313H244V108h109z"/><glyph glyph-name="dcroat" unicode="đ" horiz-adv-x="609" d="M273 650h156v60h110v-60h66v-73h-66V0H429v36q-26-21-60-32.5T295-8q-56 0-103 20t-81 54.5T57.5 148 38 250t19.5 102 53.5 81.5 81 54.5 103 20q40 0 74-12t60-33v114H273v73zm23-553q42 0 77.5 18.5T429 165v170q-20 31-55.5 49.5T296 403q-32 0-58.5-11.5t-46-32-30-48.5-10.5-61 10.5-61 30-48.5 46-32T296 97z"/><glyph glyph-name="Emacron" unicode="Ē" horiz-adv-x="559" d="M88 710h421V596H204V416h245V304H204V114h305V0H88v710zm57 165h306v-76H145v76z"/><glyph glyph-name="emacron" unicode="ē" horiz-adv-x="568" d="M296-8q-56 0-103 20t-81.5 54.5-54 81.5T38 250t19.5 102 54 81.5 81 54.5T294 508q52 0 95-18t74-51 49-81 21-108v-30H152q8-54 47.5-86.5T296 101q45 0 77.5 17.5T426 158l74-79q-32-38-85-62.5T296-8zm-10 415q-45 0-81-27t-50-75h257q-10 51-43 76.5T286 407zM142 677h306v-76H142v76z"/><glyph glyph-name="Ebreve" unicode="Ĕ" horiz-adv-x="559" d="M88 710h421V596H204V416h245V304H204V114h305V0H88v710zm209 53q-36 0-66 12t-52 33-34.5 49.5T131 918h71q2-35 27.5-60.5T298 832q42 0 68 25.5t27 60.5h72q-1-32-13.5-60.5T417 808t-52.5-33-67.5-12z"/><glyph glyph-name="ebreve" unicode="ĕ" horiz-adv-x="568" d="M296-8q-56 0-103 20t-81.5 54.5-54 81.5T38 250t19.5 102 54 81.5 81 54.5T294 508q52 0 95-18t74-51 49-81 21-108v-30H152q8-54 47.5-86.5T296 101q45 0 77.5 17.5T426 158l74-79q-32-38-85-62.5T296-8zm-10 415q-45 0-81-27t-50-75h257q-10 51-43 76.5T286 407zm8 149q-36 0-66 12t-52 33-34.5 49-13.5 60h71q2-35 27.5-60.5T295 624q42 0 68 25.5t27 60.5h72q-1-32-13.5-60T414 601t-52.5-33-67.5-12z"/><glyph glyph-name="Edotaccent" unicode="Ė" horiz-adv-x="559" d="M88 710h421V596H204V416h245V304H204V114h305V0H88v710zm211 60q-29 0-50.5 21T227 842t21.5 51 50.5 21q30 0 51-21t21-51-21-51-51-21z"/><glyph glyph-name="edotaccent" unicode="ė" horiz-adv-x="568" d="M296-8q-56 0-103 20t-81.5 54.5-54 81.5T38 250t19.5 102 54 81.5 81 54.5T294 508q52 0 95-18t74-51 49-81 21-108v-30H152q8-54 47.5-86.5T296 101q45 0 77.5 17.5T426 158l74-79q-32-38-85-62.5T296-8zm-10 415q-45 0-81-27t-50-75h257q-10 51-43 76.5T286 407zm7 151q-29 0-50 20.5T222 629t21 50.5 50 20.5q30 0 51-20.5t21-50.5-21-50.5-51-20.5z"/><glyph glyph-name="Eogonek" unicode="Ę" horiz-adv-x="559" d="M88 710h421V596H204V416h245V304H204V114h305V0h-2q-37-17-57-34t-20-38q0-17 11.5-27.5T473-110q11 0 20.5 3t15.5 6v-69q-17-10-35.5-14.5T435-189q-47 0-79 27t-32 71q0 29 19 53t45 38H88v710z"/><glyph glyph-name="eogonek" unicode="ę" horiz-adv-x="568" d="M297-182q-43 0-74.5 25.5T191-87q0 27 16.5 48T248-4q-46 8-84.5 30.5T97 82.5t-43.5 76T38 250q0 55 19.5 102t54 81.5 81 54.5T294 508q52 0 95-18t74-51 49-81 21-108v-30H152q8-54 47.5-86.5T296 101q45 0 77.5 17.5T426 158l74-79q-23-28-57.5-48.5T365 0q-38-17-55-33.5T293-68q0-14 11-24.5t31-10.5q11 0 18.5 3t12.5 6v-69q-14-11-31.5-15t-37.5-4zm-11 589q-45 0-81-27t-50-75h257q-10 51-43 76.5T286 407z"/><glyph glyph-name="Ecaron" unicode="Ě" horiz-adv-x="559" d="M88 710h421V596H204V416h245V304H204V114h305V0H88v710zm36 141 37 72 137-73 138 73 37-73-175-91z"/><glyph glyph-name="ecaron" unicode="ě" horiz-adv-x="568" d="M296-8q-56 0-103 20t-81.5 54.5-54 81.5T38 250t19.5 102 54 81.5 81 54.5T294 508q52 0 95-18t74-51 49-81 21-108v-30H152q8-54 47.5-86.5T296 101q45 0 77.5 17.5T426 158l74-79q-32-38-85-62.5T296-8zm-10 415q-45 0-81-27t-50-75h257q-10 51-43 76.5T286 407zm8 146L121 658l42 70 131-81 133 81 40-70z"/><glyph glyph-name="Gcircumflex" unicode="Ĝ" horiz-adv-x="726" d="M406-8q-75 0-141.5 28T149 96.5t-77.5 115T43 355t28.5 143.5 77.5 115T264.5 690 406 718q76 0 143-26t116-77l-75-82q-33 35-82 55t-102 20-97.5-19.5T231 535t-51.5-80.5T161 355t18.5-99.5T231 175t77.5-53.5T406 102q39 0 77 9.5t68 28.5v164H356l51 112h260V83q-50-43-118-67T406-8zM231 833l175 91 174-91-37-73-137 73-138-73z"/><glyph glyph-name="gcircumflex" unicode="ĝ" horiz-adv-x="605" d="M289-194q-52 0-109 14T74-134l58 96q32-23 70.5-37T289-89q28 0 54.5 5T391-67t33.5 32.5T437 16q0 11-2.5 25T426 67q-26-21-60.5-34T289 20q-56 0-101.5 18.5t-78.5 51-51 77T40 264t18 97.5 51 77 78.5 51T289 508q40 0 73.5-12t59.5-33v37h110V101q11-26 15.5-51.5T552 2q0-54-23-91t-60-60.5-84.5-34T289-194zm1 319q42 0 77 18t55 49v144q-20 31-55 49t-77 18q-29 0-54-10t-43.5-28.5-29-44T153 264t10.5-56.5 29-44T236 135t54-10zM123 613l173 105 173-105-40-70-133 81-131-81z"/><glyph glyph-name="Gbreve" unicode="Ğ" horiz-adv-x="726" d="M406-8q-75 0-141.5 28T149 96.5t-77.5 115T43 355t28.5 143.5 77.5 115T264.5 690 406 718q76 0 143-26t116-77l-75-82q-33 35-82 55t-102 20-97.5-19.5T231 535t-51.5-80.5T161 355t18.5-99.5T231 175t77.5-53.5T406 102q39 0 77 9.5t68 28.5v164H356l51 112h260V83q-50-43-118-67T406-8zm-1 771q-36 0-66 12t-52 33-34.5 49.5T239 918h71q2-35 27.5-60.5T406 832q42 0 68 25.5t27 60.5h72q-1-32-13.5-60.5T525 808t-52.5-33-67.5-12z"/><glyph glyph-name="gbreve" unicode="ğ" horiz-adv-x="605" d="M289-194q-52 0-109 14T74-134l58 96q32-23 70.5-37T289-89q28 0 54.5 5T391-67t33.5 32.5T437 16q0 11-2.5 25T426 67q-26-21-60.5-34T289 20q-56 0-101.5 18.5t-78.5 51-51 77T40 264t18 97.5 51 77 78.5 51T289 508q40 0 73.5-12t59.5-33v37h110V101q11-26 15.5-51.5T552 2q0-54-23-91t-60-60.5-84.5-34T289-194zm1 319q42 0 77 18t55 49v144q-20 31-55 49t-77 18q-29 0-54-10t-43.5-28.5-29-44T153 264t10.5-56.5 29-44T236 135t54-10zm5 431q-36 0-66 12t-52 33-34.5 49-13.5 60h71q2-35 27.5-60.5T296 624q42 0 68 25.5t27 60.5h72q-1-32-13.5-60T415 601t-52.5-33-67.5-12z"/><glyph glyph-name="Gdotaccent" unicode="Ġ" horiz-adv-x="726" d="M406-8q-75 0-141.5 28T149 96.5t-77.5 115T43 355t28.5 143.5 77.5 115T264.5 690 406 718q76 0 143-26t116-77l-75-82q-33 35-82 55t-102 20-97.5-19.5T231 535t-51.5-80.5T161 355t18.5-99.5T231 175t77.5-53.5T406 102q39 0 77 9.5t68 28.5v164H356l51 112h260V83q-50-43-118-67T406-8zm0 778q-29 0-50.5 21T334 842t21.5 51 50.5 21q30 0 51-21t21-51-21-51-51-21z"/><glyph glyph-name="gdotaccent" unicode="ġ" horiz-adv-x="605" d="M289-194q-52 0-109 14T74-134l58 96q32-23 70.5-37T289-89q28 0 54.5 5T391-67t33.5 32.5T437 16q0 11-2.5 25T426 67q-26-21-60.5-34T289 20q-56 0-101.5 18.5t-78.5 51-51 77T40 264t18 97.5 51 77 78.5 51T289 508q40 0 73.5-12t59.5-33v37h110V101q11-26 15.5-51.5T552 2q0-54-23-91t-60-60.5-84.5-34T289-194zm1 319q42 0 77 18t55 49v144q-20 31-55 49t-77 18q-29 0-54-10t-43.5-28.5-29-44T153 264t10.5-56.5 29-44T236 135t54-10zm6 433q-29 0-50 20.5T225 629t21 50.5 50 20.5q30 0 51-20.5t21-50.5-21-50.5-51-20.5z"/><glyph glyph-name="uni0122" unicode="Ģ" horiz-adv-x="726" d="M406-8q-75 0-141.5 28T149 96.5t-77.5 115T43 355t28.5 143.5 77.5 115T264.5 690 406 718q76 0 143-26t116-77l-75-82q-33 35-82 55t-102 20-97.5-19.5T231 535t-51.5-80.5T161 355t18.5-99.5T231 175t77.5-53.5T406 102q39 0 77 9.5t68 28.5v164H356l51 112h260V83q-50-43-118-67T406-8zm-57-42h114L363-243h-73z"/><glyph glyph-name="uni0123" unicode="ģ" horiz-adv-x="605" d="M289-194q-52 0-109 14T74-134l58 96q32-23 70.5-37T289-89q28 0 54.5 5T391-67t33.5 32.5T437 16q0 11-2.5 25T426 67q-26-21-60.5-34T289 20q-56 0-101.5 18.5t-78.5 51-51 77T40 264t18 97.5 51 77 78.5 51T289 508q40 0 73.5-12t59.5-33v37h110V101q11-26 15.5-51.5T552 2q0-54-23-91t-60-60.5-84.5-34T289-194zm1 319q42 0 77 18t55 49v144q-20 31-55 49t-77 18q-29 0-54-10t-43.5-28.5-29-44T153 264t10.5-56.5 29-44T236 135t54-10zm57.007 418.997H233.014l99.994 192.988h72.995z"/><glyph glyph-name="Hcircumflex" unicode="Ĥ" horiz-adv-x="760" d="M88 710h116V416h352v294h116V0H556v304H204V0H88v710zm117 123 175 91 174-91-37-73-137 73-138-73z"/><glyph glyph-name="hcircumflex" unicode="ĥ" d="M70 710h110V453q26 29 63.5 42t76.5 13q46 0 84-15.5t64-43.5 40.5-68 14.5-88V0H413v291q0 20-7.5 40t-22 36-35.5 26-49 10q-42 0-73-21.5T180 315V0H70v710zm52 123 175 91 174-91-37-73-137 73-138-73z"/><glyph glyph-name="Hbar" unicode="Ħ" horiz-adv-x="772" d="M29 610h65v100h116V610h352v100h116V610h65v-94h-65V0H562v304H210V0H94v516H29v94zm533-194v100H210V416h352z"/><glyph glyph-name="hbar" unicode="ħ" d="M-7 650h77v60h110v-60h145v-73H180V453q26 29 63.5 42t76.5 13q46 0 84-15.5t64-43.5 40.5-68 14.5-88V0H413v291q0 20-7.5 40t-22 36-35.5 26-49 10q-42 0-73-21.5T180 315V0H70v577H-7v73z"/><glyph glyph-name="Itilde" unicode="Ĩ" horiz-adv-x="292" d="M88 710h116V0H88v710zm-119 90q4 24 15 43.5T10 876t33 20 36 7q21 0 39-6.5t33-15 28.5-15T205 860q20 0 30 10t16 33h78l-3-22q-4-24-14.5-43.5T286 805t-32.5-20-36.5-7q-22 0-40 6.5t-33.5 15-28.5 15-25 6.5q-20 0-30.5-10.5T44 777h-79z"/><glyph glyph-name="itilde" unicode="ĩ" horiz-adv-x="250" d="M70 500h110V0H70v500zm-120 84q8 49 40 75.5T58 686q21 0 39-6.5t33-14.5 28.5-14.5T184 644q20 0 30 10t16 33h77l-3-22q-8-47-39-74.5T196 563q-22 0-40 6.5T122.5 584 94 598.5 69 605q-20 0-30.5-10T23 562h-77z"/><glyph glyph-name="Imacron" unicode="Ī" horiz-adv-x="292" d="M88 710h116V0H88v710zM-6 875h306v-76H-6v76z"/><glyph glyph-name="imacron" unicode="ī" horiz-adv-x="250" d="M70 500h110V0H70v500zm-97 177h306v-76H-27v76z"/><glyph glyph-name="Ibreve" unicode="Ĭ" horiz-adv-x="292" d="M88 710h116V0H88v710zm58 53q-36 0-66 12t-52 33-34.5 49.5T-20 918h71q2-35 27.5-60.5T147 832q42 0 68 25.5t27 60.5h72q-1-32-13.5-60.5T266 808t-52.5-33-67.5-12z"/><glyph glyph-name="ibreve" unicode="ĭ" horiz-adv-x="250" d="M70 500h110V0H70v500zm55 56q-36 0-66 12T7 601t-34.5 49-13.5 60h71q2-35 27.5-60.5T126 624q42 0 68 25.5t27 60.5h72q-1-32-13.5-60T245 601t-52.5-33-67.5-12z"/><glyph glyph-name="Iogonek" unicode="Į" horiz-adv-x="292" d="M134-189q-47 0-79 27T23-91q0 29 19.5 53T88 0v710h116V0q-37-17-56-34t-19-38q0-17 11.5-27.5T172-110q11 0 20.5 3t15.5 6v-69q-17-10-35.5-14.5T134-189z"/><glyph glyph-name="iogonek" unicode="į" horiz-adv-x="250" d="M112-182q-43 0-74.5 25.5T6-87q0 29 19 51T70 0v500h110V0q-38-17-55-33.5T108-68q0-14 11-24.5t31-10.5q11 0 18.5 3t12.5 6v-69q-14-11-31.5-15t-37.5-4zM70 597q-18 21-18 48 0 30 21.5 51.5T125 718t51.5-21.5T198 645q0-27-18-48H70z"/><glyph glyph-name="Idotaccent" unicode="İ" horiz-adv-x="292" d="M88 710h116V0H88v710zm58 60q-29 0-50.5 21T74 842t21.5 51 50.5 21q30 0 51-21t21-51-21-51-51-21z"/><glyph glyph-name="dotlessi" unicode="ı" horiz-adv-x="250" d="M70 500h110V0H70v500z"/><glyph glyph-name="Jcircumflex" unicode="Ĵ" horiz-adv-x="538" d="M238-8q-43 0-82.5 13.5T86 46t-48 68-18 95h117q0-54 29.5-80t71.5-27q42 0 72 26.5t30 80.5v501h116V207q0-54-18-94.5t-48-67-69.5-40T238-8zm-15 841 175 91 174-91-37-73-137 73-138-73z"/><glyph glyph-name="jcircumflex" unicode="ĵ" horiz-adv-x="258" d="M-27-80H3q38 0 56.5 15T78-12v512h110V-18q0-91-46-128.5T8-184h-35v104zm-11 693 173 105 173-105-40-70-133 81L4 543z"/><glyph glyph-name="uni0136" unicode="Ķ" horiz-adv-x="659" d="M88 710h116V353l299 357h138L340 351 671 0H521L204 335V0H88v710zM302-50h114L316-243h-73z"/><glyph glyph-name="uni0137" unicode="ķ" horiz-adv-x="525" d="M70 710h110V274l200 226h130L302 263 535 0H400L180 249V0H70v710zM241-50h114L255-243h-73z"/><glyph glyph-name="Lacute" unicode="Ĺ" horiz-adv-x="521" d="M88 710h116V115h299V0H88v710zm89 203h130L190 768h-87z"/><glyph glyph-name="lacute" unicode="ĺ" horiz-adv-x="250" d="M70 710h110V0H70v710zm78 203h130L161 768H74z"/><glyph glyph-name="uni013B" unicode="Ļ" horiz-adv-x="521" d="M88 710h116V115h299V0H88v710zM238-50h114L252-243h-73z"/><glyph glyph-name="uni013C" unicode="ļ" horiz-adv-x="250" d="M70 710h110V0H70v710zM69-50h114L83-243H10z"/><glyph glyph-name="Lcaron" unicode="Ľ" horiz-adv-x="523" d="M88 710h116V115h299V0H88v710zm221 0h109l-57-163h-75z"/><glyph glyph-name="lcaron" unicode="ľ" horiz-adv-x="274" d="M70 710h110V0H70v710zm178 0h109l-57-163h-75z"/><glyph glyph-name="Ldot" unicode="Ŀ" horiz-adv-x="530" d="M88 710h116V115h299V0H88v710zm311-367q-29 0-50 20.5T328 414t21 50.5 50 20.5q30 0 51-20.5t21-50.5-21-50.5-51-20.5z"/><glyph glyph-name="ldot" unicode="ŀ" horiz-adv-x="370" d="M310 285q-29 0-50 20.5T239 356t21 50.5 50 20.5q30 0 51-20.5t21-50.5-21-50.5-51-20.5zM70 710h110V0H70v710z"/><glyph glyph-name="Lslash" unicode="Ł" horiz-adv-x="580" d="m19 279 127 79v352h116V431l144 90 51-87-195-121V115h299V0H146v241l-77-48z"/><glyph glyph-name="lslash" unicode="ł" horiz-adv-x="360" d="m8 306 118 72v332h110V445l79 49 40-67-119-74V0H126v286l-78-48z"/><glyph glyph-name="Nacute" unicode="Ń" horiz-adv-x="777" d="M204 453V0H88v718l485-461v453h116V-8zm186 460h130L403 768h-87z"/><glyph glyph-name="nacute" unicode="ń" d="M70 500h110v-47q26 29 63.5 42t76.5 13q46 0 84-15.5t64-43.5 40.5-68 14.5-88V0H413v291q0 20-7.5 40t-22 36-35.5 26-49 10q-42 0-73-21.5T180 315V0H70v500zm239 210h133L311 545h-87z"/><glyph glyph-name="uni0145" unicode="Ņ" horiz-adv-x="777" d="M204 453V0H88v718l485-461v453h116V-8zM361-50h114L375-243h-73z"/><glyph glyph-name="uni0146" unicode="ņ" d="M70 500h110v-47q26 29 63.5 42t76.5 13q46 0 84-15.5t64-43.5 40.5-68 14.5-88V0H413v291q0 20-7.5 40t-22 36-35.5 26-49 10q-42 0-73-21.5T180 315V0H70v500zM239-50h114L253-243h-73z"/><glyph glyph-name="Ncaron" unicode="Ň" horiz-adv-x="777" d="M204 453V0H88v718l485-461v453h116V-8zm10 398 37 72 137-73 138 73 37-73-175-91z"/><glyph glyph-name="ncaron" unicode="ň" d="M70 500h110v-47q26 29 63.5 42t76.5 13q46 0 84-15.5t64-43.5 40.5-68 14.5-88V0H413v291q0 20-7.5 40t-22 36-35.5 26-49 10q-42 0-73-21.5T180 315V0H70v500zm226 53L123 658l42 70 131-81 133 81 40-70z"/><glyph glyph-name="Omacron" unicode="Ō" horiz-adv-x="812" d="M406 102q52 0 97 19.5t78 53.5 51.5 80.5T651 355t-18.5 99.5T581 535t-78 53.5-97 19.5q-53 0-97.5-19.5T231 535t-51.5-80.5T161 355t18.5-99.5T231 175t77.5-53.5T406 102zm0-110q-75 0-141.5 28T149 96.5t-77.5 115T43 355t28.5 143.5 77.5 115T264.5 690 406 718q76 0 142-28t115-76.5 77.5-115T769 355t-28.5-143.5-77.5-115T548 20 406-8zM253 875h306v-76H253v76z"/><glyph glyph-name="omacron" unicode="ō" horiz-adv-x="594" d="M297 97q32 0 58.5 11.5t46 32T432 189t11 61-11 61-30.5 48.5-46 32T297 403t-59-11.5-46.5-32-30-48.5-10.5-61 10.5-61 30-48.5 46.5-32T297 97zm0-105q-56 0-103.5 20t-82 54.5-54 81.5T38 250t19.5 102 54 81.5 82 54.5T297 508q55 0 102.5-20t82.5-54.5 54.5-81.5T556 250t-19.5-102T482 66.5 399.5 12 297-8zM144 677h306v-76H144v76z"/><glyph glyph-name="Obreve" unicode="Ŏ" horiz-adv-x="812" d="M406 102q52 0 97 19.5t78 53.5 51.5 80.5T651 355t-18.5 99.5T581 535t-78 53.5-97 19.5q-53 0-97.5-19.5T231 535t-51.5-80.5T161 355t18.5-99.5T231 175t77.5-53.5T406 102zm0-110q-75 0-141.5 28T149 96.5t-77.5 115T43 355t28.5 143.5 77.5 115T264.5 690 406 718q76 0 142-28t115-76.5 77.5-115T769 355t-28.5-143.5-77.5-115T548 20 406-8zm-1 771q-36 0-66 12t-52 33-34.5 49.5T239 918h71q2-35 27.5-60.5T406 832q42 0 68 25.5t27 60.5h72q-1-32-13.5-60.5T525 808t-52.5-33-67.5-12z"/><glyph glyph-name="obreve" unicode="ŏ" horiz-adv-x="594" d="M297 97q32 0 58.5 11.5t46 32T432 189t11 61-11 61-30.5 48.5-46 32T297 403t-59-11.5-46.5-32-30-48.5-10.5-61 10.5-61 30-48.5 46.5-32T297 97zm0-105q-56 0-103.5 20t-82 54.5-54 81.5T38 250t19.5 102 54 81.5 82 54.5T297 508q55 0 102.5-20t82.5-54.5 54.5-81.5T556 250t-19.5-102T482 66.5 399.5 12 297-8zm-1 564q-36 0-66 12t-52 33-34.5 49-13.5 60h71q2-35 27.5-60.5T297 624q42 0 68 25.5t27 60.5h72q-1-32-13.5-60T416 601t-52.5-33-67.5-12z"/><glyph glyph-name="Ohungarumlaut" unicode="Ő" horiz-adv-x="812" d="M406 102q52 0 97 19.5t78 53.5 51.5 80.5T651 355t-18.5 99.5T581 535t-78 53.5-97 19.5q-53 0-97.5-19.5T231 535t-51.5-80.5T161 355t18.5-99.5T231 175t77.5-53.5T406 102zm0-110q-75 0-141.5 28T149 96.5t-77.5 115T43 355t28.5 143.5 77.5 115T264.5 690 406 718q76 0 142-28t115-76.5 77.5-115T769 355t-28.5-143.5-77.5-115T548 20 406-8zm-83 921h121L327 768h-78zm201 0h120L527 768h-78z"/><glyph glyph-name="ohungarumlaut" unicode="ő" horiz-adv-x="594" d="M297 97q32 0 58.5 11.5t46 32T432 189t11 61-11 61-30.5 48.5-46 32T297 403t-59-11.5-46.5-32-30-48.5-10.5-61 10.5-61 30-48.5 46.5-32T297 97zm0-105q-56 0-103.5 20t-82 54.5-54 81.5T38 250t19.5 102 54 81.5 82 54.5T297 508q55 0 102.5-20t82.5-54.5 54.5-81.5T556 250t-19.5-102T482 66.5 399.5 12 297-8zm-49 718h117L233 545h-70zm178 0h116L411 545h-70z"/><glyph glyph-name="OE" unicode="Œ" horiz-adv-x="1060" d="M406-8q-75 0-141.5 28T149 96.5t-77.5 115T43 355t28.5 143.5 77.5 115T264.5 690 406 718q49 0 93.5-12t84.5-34v38h422V596H694v-18q26-35 44-75.5t26-86.5h205V304H765q-6-49-24.5-92.5T694 131v-17h313V0H584v37q-40-22-84.5-33.5T406-8zm0 110q52 0 97 19.5t78 53.5 51.5 80.5T651 355t-18.5 99.5T581 535t-78 53.5-97 19.5q-53 0-97.5-19.5T231 535t-51.5-80.5T161 355t18.5-99.5T231 175t77.5-53.5T406 102z"/><glyph glyph-name="oe" unicode="œ" horiz-adv-x="974" d="M297-8q-56 0-103.5 20t-82 54.5-54 81.5T38 250t19.5 102 54 81.5 82 54.5T297 508q63 0 115.5-25t87.5-69q35 44 86 69t114 25q52 0 95-18t74-51 49-81 21-108v-30H557q8-54 48-86.5t97-32.5q45 0 77.5 17.5T832 158l74-79q-32-38-85-62.5T702-8q-63 0-115 25t-87 69q-35-44-87.5-69T297-8zm0 105q32 0 59 11.5t46.5 32T433 189t11 61-11 61-30.5 48.5-46.5 32-59 11.5-59-11.5-46.5-32-30-48.5-10.5-61 10.5-61 30-48.5 46.5-32T297 97zm521 208q-10 51-43 76.5T692 407q-45 0-81.5-27T561 305h257z"/><glyph glyph-name="Racute" unicode="Ŕ" horiz-adv-x="633" d="M271 302h-67V0H88v710h230q49 0 90.5-15t71.5-42 47-64.5 17-82.5q0-69-39-120.5T398 313L624 0H485zm36 101q60 0 89.5 27t29.5 72q0 46-29.5 73.5T307 603H204V403h103zm-8 510h130L312 768h-87z"/><glyph glyph-name="racute" unicode="ŕ" horiz-adv-x="363" d="M220 710h133L222 545h-87zM70 500h110v-49q47 56 129 56 19 0 36-3V389q-21 7-55 7-35 0-64-14t-46-46V0H70v500z"/><glyph glyph-name="uni0156" unicode="Ŗ" horiz-adv-x="633" d="M271 302h-67V0H88v710h230q49 0 90.5-15t71.5-42 47-64.5 17-82.5q0-69-39-120.5T398 313L624 0H485zm36 101q60 0 89.5 27t29.5 72q0 46-29.5 73.5T307 603H204V403h103zM289-50h114L303-243h-73z"/><glyph glyph-name="uni0157" unicode="ŗ" horiz-adv-x="363" d="M70 500h110v-49q47 56 129 56 19 0 36-3V389q-21 7-55 7-35 0-64-14t-46-46V0H70v500zm1-550h114L85-243H12z"/><glyph glyph-name="Rcaron" unicode="Ř" horiz-adv-x="633" d="M271 302h-67V0H88v710h230q49 0 90.5-15t71.5-42 47-64.5 17-82.5q0-69-39-120.5T398 313L624 0H485zm36 101q60 0 89.5 27t29.5 72q0 46-29.5 73.5T307 603H204V403h103zM112 851l37 72 137-73 138 73 37-73-175-91z"/><glyph glyph-name="rcaron" unicode="ř" horiz-adv-x="363" d="M70 500h110v-49q47 56 129 56 19 0 36-3V389q-21 7-55 7-35 0-64-14t-46-46V0H70v500zm138 53L35 658l42 70 131-81 133 81 40-70z"/><glyph glyph-name="Sacute" unicode="Ś" horiz-adv-x="530" d="M268-8q-81 0-143 33t-96 88l88 74q25-34 64-59.5t86-25.5q52 0 80.5 22t28.5 60q0 40-25 66t-78 49l-56 24Q57 393 57 530q0 43 18 77.5t47 59 67 38 79 13.5q62 0 111-21.5t88-68.5l-80-83q-28 33-55 48t-65 15q-36 0-65-20t-29-57q0-35 24.5-60.5T276 422l55-25q73-32 118-80.5T494 194q0-45-16-82t-45.5-64T361 6.5 268-8zm26 921h130L307 768h-87z"/><glyph glyph-name="sacute" unicode="ś" horiz-adv-x="427" d="M213-8q-60 0-107.5 24.5T27 94l84 60q18-31 41-47.5T213 90q29 0 46.5 13t17.5 33q0 22-16 36t-51 27l-35 14q-64 25-93 64t-29 90q0 30 12 56t33.5 45 51 29.5T214 508q48 0 88-20t68-67l-81-56q-25 45-73 45-22 0-38.5-10.5T161 370q0-20 14.5-33.5T225 309l36-13q63-25 97-60.5t34-94.5q0-33-13-60.5t-36.5-47T286 3 213-8zm39 718h133L254 545h-87z"/><glyph glyph-name="Scircumflex" unicode="Ŝ" horiz-adv-x="530" d="M268-8q-81 0-143 33t-96 88l88 74q25-34 64-59.5t86-25.5q52 0 80.5 22t28.5 60q0 40-25 66t-78 49l-56 24Q57 393 57 530q0 43 18 77.5t47 59 67 38 79 13.5q62 0 111-21.5t88-68.5l-80-83q-28 33-55 48t-65 15q-36 0-65-20t-29-57q0-35 24.5-60.5T276 422l55-25q73-32 118-80.5T494 194q0-45-16-82t-45.5-64T361 6.5 268-8zM94 833l175 91 174-91-37-73-137 73-138-73z"/><glyph glyph-name="scircumflex" unicode="ŝ" horiz-adv-x="427" d="M213-8q-60 0-107.5 24.5T27 94l84 60q18-31 41-47.5T213 90q29 0 46.5 13t17.5 33q0 22-16 36t-51 27l-35 14q-64 25-93 64t-29 90q0 30 12 56t33.5 45 51 29.5T214 508q48 0 88-20t68-67l-81-56q-25 45-73 45-22 0-38.5-10.5T161 370q0-20 14.5-33.5T225 309l36-13q63-25 97-60.5t34-94.5q0-33-13-60.5t-36.5-47T286 3 213-8zM43 613l173 105 173-105-40-70-133 81-131-81z"/><glyph glyph-name="Scedilla" unicode="Ş" horiz-adv-x="530" d="M236-6q-70 6-123.5 37.5T29 113l88 74q25-34 64-59.5t86-25.5q52 0 80.5 22t28.5 60q0 40-25 66t-78 49l-56 24Q57 393 57 530q0 43 18 77.5t47 59 67 38 79 13.5q62 0 111-21.5t88-68.5l-80-83q-28 33-55 48t-65 15q-36 0-65-20t-29-57q0-35 24.5-60.5T276 422l55-25q73-32 118-80.5T494 194q0-78-47-131T320-3l-39-129H181z"/><glyph glyph-name="scedilla" unicode="ş" horiz-adv-x="427" d="M165-3q-44 8-79 31.5T27 94l84 60q18-31 41-47.5T213 90q29 0 46.5 13t17.5 33q0 22-16 36t-51 27l-35 14q-64 25-93 64t-29 90q0 30 12 56t33.5 45 51 29.5T214 508q48 0 88-20t68-67l-81-56q-25 45-73 45-22 0-38.5-10.5T161 370q0-20 14.5-33.5T225 309l36-13q63-25 97-60.5t34-94.5-39.5-98.5T247-5l-38-127H109z"/><glyph glyph-name="Scaron" unicode="Š" horiz-adv-x="530" d="M268-8q-81 0-143 33t-96 88l88 74q25-34 64-59.5t86-25.5q52 0 80.5 22t28.5 60q0 40-25 66t-78 49l-56 24Q57 393 57 530q0 43 18 77.5t47 59 67 38 79 13.5q62 0 111-21.5t88-68.5l-80-83q-28 33-55 48t-65 15q-36 0-65-20t-29-57q0-35 24.5-60.5T276 422l55-25q73-32 118-80.5T494 194q0-45-16-82t-45.5-64T361 6.5 268-8zM95 851l37 72 137-73 138 73 37-73-175-91z"/><glyph glyph-name="scaron" unicode="š" horiz-adv-x="427" d="M213-8q-60 0-107.5 24.5T27 94l84 60q18-31 41-47.5T213 90q29 0 46.5 13t17.5 33q0 22-16 36t-51 27l-35 14q-64 25-93 64t-29 90q0 30 12 56t33.5 45 51 29.5T214 508q48 0 88-20t68-67l-81-56q-25 45-73 45-22 0-38.5-10.5T161 370q0-20 14.5-33.5T225 309l36-13q63-25 97-60.5t34-94.5q0-33-13-60.5t-36.5-47T286 3 213-8zm3 561L43 658l42 70 131-81 133 81 40-70z"/><glyph glyph-name="uni0162" unicode="Ţ" horiz-adv-x="521" d="M202 596H19v114h483V596H318V0H202v596zm1-646h114L217-243h-73z"/><glyph glyph-name="uni0163" unicode="ţ" horiz-adv-x="389" d="M10 500h97v96l110 54V500h152l-24-98H217V175q0-38 14-56t57-18h69V0h-97q-72 0-112.5 40T107 152v250H34zM179-50h114L193-243h-73z"/><glyph glyph-name="Tcaron" unicode="Ť" horiz-adv-x="521" d="M202 596H19v114h483V596H318V0H202v596zM86 851l37 72 137-73 138 73 37-73-175-91z"/><glyph glyph-name="tcaron" unicode="ť" horiz-adv-x="390" d="M10 500h97v96l110 54V500h152l-24-98H217V175q0-38 14-56t57-18h69V0h-97q-72 0-112.5 40T107 152v250H34zm287 210h109l-57-163h-75z"/><glyph glyph-name="Utilde" unicode="Ũ" horiz-adv-x="731" d="M366-8q-63 0-115.5 20T160 68.5t-59 89T80 276v434h116V273q0-83 47-127t123-44 122.5 44T535 273v437h116V276q0-66-21-118.5t-59-89T481 12 366-8zM187 800q4 24 15 43.5t26 32.5 33 20 36 7q21 0 39-6.5t33-15 28.5-15T423 860q20 0 30 10t16 33h78l-3-22q-4-24-14.5-43.5T504 805t-32.5-20-36.5-7q-22 0-40 6.5t-33.5 15-28.5 15-25 6.5q-20 0-30.5-10.5T262 777h-79z"/><glyph glyph-name="utilde" unicode="ũ" d="M407 46q-26-29-63.5-41.5T267-8q-47 0-84.5 15.5T119 51t-40.5 68T64 207v293h110V209q0-20 7.5-40t22-36 36-26T288 97q42 0 72.5 21t46.5 64v318h110V0H407v46zM124 584q8 49 40 75.5t68 26.5q21 0 39-6.5t33-14.5 28.5-14.5T358 644q20 0 30 10t16 33h77l-3-22q-8-47-39-74.5T370 563q-22 0-40 6.5T296.5 584 268 598.5t-25 6.5q-20 0-30.5-10T197 562h-77z"/><glyph glyph-name="Umacron" unicode="Ū" horiz-adv-x="731" d="M366-8q-63 0-115.5 20T160 68.5t-59 89T80 276v434h116V273q0-83 47-127t123-44 122.5 44T535 273v437h116V276q0-66-21-118.5t-59-89T481 12 366-8zM212 875h306v-76H212v76z"/><glyph glyph-name="umacron" unicode="ū" d="M407 46q-26-29-63.5-41.5T267-8q-47 0-84.5 15.5T119 51t-40.5 68T64 207v293h110V209q0-20 7.5-40t22-36 36-26T288 97q42 0 72.5 21t46.5 64v318h110V0H407v46zM137 677h306v-76H137v76z"/><glyph glyph-name="Ubreve" unicode="Ŭ" horiz-adv-x="731" d="M366-8q-63 0-115.5 20T160 68.5t-59 89T80 276v434h116V273q0-83 47-127t123-44 122.5 44T535 273v437h116V276q0-66-21-118.5t-59-89T481 12 366-8zm-2 771q-36 0-66 12t-52 33-34.5 49.5T198 918h71q2-35 27.5-60.5T365 832q42 0 68 25.5t27 60.5h72q-1-32-13.5-60.5T484 808t-52.5-33-67.5-12z"/><glyph glyph-name="ubreve" unicode="ŭ" d="M407 46q-26-29-63.5-41.5T267-8q-47 0-84.5 15.5T119 51t-40.5 68T64 207v293h110V209q0-20 7.5-40t22-36 36-26T288 97q42 0 72.5 21t46.5 64v318h110V0H407v46zM289 556q-36 0-66 12t-52 33-34.5 49-13.5 60h71q2-35 27.5-60.5T290 624q42 0 68 25.5t27 60.5h72q-1-32-13.5-60T409 601t-52.5-33-67.5-12z"/><glyph glyph-name="Uring" unicode="Ů" horiz-adv-x="731" d="M366-8q-63 0-115.5 20T160 68.5t-59 89T80 276v434h116V273q0-83 47-127t123-44 122.5 44T535 273v437h116V276q0-66-21-118.5t-59-89T481 12 366-8zm-1 815q20 0 33.5 13t13.5 34q0 20-13.5 34T365 902t-34-14-14-34q0-21 14-34t34-13zm0-57q-23 0-42.5 8T289 780t-22.5 33-8.5 41q0 45 31 74.5t76 29.5q22 0 41.5-8t34-22 23-33 8.5-41-8.5-41-23-33-34-22-41.5-8z"/><glyph glyph-name="uring" unicode="ů" d="M407 46q-26-29-63.5-41.5T267-8q-47 0-84.5 15.5T119 51t-40.5 68T64 207v293h110V209q0-20 7.5-40t22-36 36-26T288 97q42 0 72.5 21t46.5 64v318h110V0H407v46zM289 608q20 0 33.5 13.5T336 655t-13.5 33.5T289 702t-34-13.5-14-33.5 14-33.5 34-13.5zm0-57q-23 0-42.5 8T213 581t-22.5 33-8.5 41 8.5 41 23 33 34 22 41.5 8 41.5-8 34-22 23-33 8.5-41-8.5-41-23-33-34-22-41.5-8z"/><glyph glyph-name="Uhungarumlaut" unicode="Ű" horiz-adv-x="731" d="M366-8q-63 0-115.5 20T160 68.5t-59 89T80 276v434h116V273q0-83 47-127t123-44 122.5 44T535 273v437h116V276q0-66-21-118.5t-59-89T481 12 366-8zm-74 921h121L296 768h-78zm201 0h120L496 768h-78z"/><glyph glyph-name="uhungarumlaut" unicode="ű" d="M407 46q-26-29-63.5-41.5T267-8q-47 0-84.5 15.5T119 51t-40.5 68T64 207v293h110V209q0-20 7.5-40t22-36 36-26T288 97q42 0 72.5 21t46.5 64v318h110V0H407v46zM236 710h117L221 545h-70zm178 0h116L399 545h-70z"/><glyph glyph-name="Uogonek" unicode="Ų" horiz-adv-x="731" d="M384-189q-47 0-79 27t-32 71q0 26 15.5 48.5T327-6q-55 6-100.5 28t-78 58.5-50.5 86T80 276v434h116V273q0-83 47-127t123-44 122.5 44T535 273v437h116V276q0-57-16-103.5t-44.5-82-68.5-59T433-1q-26-16-40-34.5T379-72q0-17 11.5-27.5T422-110q11 0 20.5 3t15.5 6v-69q-17-10-35.5-14.5T384-189z"/><glyph glyph-name="uogonek" unicode="ų" d="M407 46q-26-29-63.5-41.5T267-8q-47 0-84.5 15.5T119 51t-40.5 68T64 207v293h110V209q0-20 7.5-40t22-36 36-26T288 97q42 0 72.5 21t46.5 64v318h110V0q-38-17-55-33.5T445-68q0-14 11-24.5t31-10.5q11 0 18.5 3t12.5 6v-69q-14-11-31.5-15t-37.5-4q-43 0-74.5 25.5T343-87q0 29 19 51t45 36v46z"/><glyph glyph-name="Wcircumflex" unicode="Ŵ" horiz-adv-x="879" d="M4 710h119l140-409 176 417 176-417 140 409h120L630-8 439 452 248-8zm261 123 175 91 174-91-37-73-137 73-138-73z"/><glyph glyph-name="wcircumflex" unicode="ŵ" horiz-adv-x="713" d="M8 500h115l99-327 135 335 134-335 99 327h115L547 0h-86L357 260 252 0h-86zm175 113 173 105 173-105-40-70-133 81-131-81z"/><glyph glyph-name="Ycircumflex" unicode="Ŷ" horiz-adv-x="648" d="M266 299 5 710h136l183-293 183 293h137L382 299V0H266v299zM150 833l175 91 174-91-37-73-137 73-138-73z"/><glyph glyph-name="ycircumflex" unicode="ŷ" horiz-adv-x="514" d="M201 26 4 500h118l136-345 137 345h118L227-184H111zM85 613l173 105 173-105-40-70-133 81-131-81z"/><glyph glyph-name="Ydieresis" unicode="Ÿ" horiz-adv-x="648" d="M266 299 5 710h136l183-293 183 293h137L382 299V0H266v299zm-57 475q-27 0-47.5 19.5T141 842q0 28 20.5 48t47.5 20q29 0 48.5-20t19.5-48q0-29-19.5-48.5T209 774zm230 0q-28 0-48 19.5T371 842q0 28 20 48t48 20q29 0 48.5-20t19.5-48q0-29-19.5-48.5T439 774z"/><glyph glyph-name="Zacute" unicode="Ź" horiz-adv-x="606" d="M380 596H51v114h528L208 114h364V0H9zm-64 317h130L329 768h-87z"/><glyph glyph-name="zacute" unicode="ź" horiz-adv-x="501" d="M287 402H47v98h430L205 98h258V0H15zm-14 308h133L275 545h-87z"/><glyph glyph-name="Zdotaccent" unicode="Ż" horiz-adv-x="606" d="M380 596H51v114h528L208 114h364V0H9zm-65 174q-29 0-50.5 21T243 842t21.5 51 50.5 21q30 0 51-21t21-51-21-51-51-21z"/><glyph glyph-name="zdotaccent" unicode="ż" horiz-adv-x="501" d="M287 402H47v98h430L205 98h258V0H15zm-25 156q-29 0-50 20.5T191 629t21 50.5 50 20.5q30 0 51-20.5t21-50.5-21-50.5-51-20.5z"/><glyph glyph-name="Zcaron" unicode="Ž" horiz-adv-x="606" d="M380 596H51v114h528L208 114h364V0H9zM141 851l37 72 137-73 138 73 37-73-175-91z"/><glyph glyph-name="zcaron" unicode="ž" horiz-adv-x="501" d="M287 402H47v98h430L205 98h258V0H15zm-24 151L90 658l42 70 131-81 133 81 40-70z"/><glyph glyph-name="uni0218" unicode="Ș" horiz-adv-x="530" d="M268-8q-81 0-143 33t-96 88l88 74q25-34 64-59.5t86-25.5q52 0 80.5 22t28.5 60q0 40-25 66t-78 49l-56 24Q57 393 57 530q0 43 18 77.5t47 59 67 38 79 13.5q62 0 111-21.5t88-68.5l-80-83q-28 33-55 48t-65 15q-36 0-65-20t-29-57q0-35 24.5-60.5T276 422l55-25q73-32 118-80.5T494 194q0-45-16-82t-45.5-64T361 6.5 268-8zm-56-42h114L226-243h-73z"/><glyph glyph-name="uni0219" unicode="ș" horiz-adv-x="427" d="M213-8q-60 0-107.5 24.5T27 94l84 60q18-31 41-47.5T213 90q29 0 46.5 13t17.5 33q0 22-16 36t-51 27l-35 14q-64 25-93 64t-29 90q0 30 12 56t33.5 45 51 29.5T214 508q48 0 88-20t68-67l-81-56q-25 45-73 45-22 0-38.5-10.5T161 370q0-20 14.5-33.5T225 309l36-13q63-25 97-60.5t34-94.5q0-33-13-60.5t-36.5-47T286 3 213-8zm-61-42h114L166-243H93z"/><glyph glyph-name="uni021A" unicode="Ț" horiz-adv-x="521" d="M202 596H19v114h483V596H318V0H202v596zm1-646h114L217-243h-73z"/><glyph glyph-name="uni021B" unicode="ț" horiz-adv-x="389" d="M10 500h97v96l110 54V500h152l-24-98H217V175q0-38 14-56t57-18h69V0h-97q-72 0-112.5 40T107 152v250H34zM179-50h114L193-243h-73z"/><glyph glyph-name="uni0232" unicode="Ȳ" horiz-adv-x="648" d="M266 299 5 710h136l183-293 183 293h137L382 299V0H266v299zm-95 576h306v-76H171v76z"/><glyph glyph-name="uni0233" unicode="ȳ" horiz-adv-x="514" d="M201 26 4 500h118l136-345 137 345h118L227-184H111zm-96 651h306v-76H105v76z"/><glyph glyph-name="uni0237" unicode="ȷ" horiz-adv-x="258" d="M-27-80H3q38 0 56.5 15T78-12v512h110V-18q0-91-46-128.5T8-184h-35v104z"/><glyph glyph-name="circumflex" unicode="ˆ" horiz-adv-x="435" d="m43 613 173 105 173-105-40-70-133 81-131-81z"/><glyph glyph-name="caron" unicode="ˇ" horiz-adv-x="442" d="M217 553 44 658l42 70 131-81 133 81 40-70z"/><glyph glyph-name="breve" unicode="˘" horiz-adv-x="419" d="M209 556q-36 0-66 12t-52 33-34.5 49T43 710h71q2-35 27.5-60.5T210 624q42 0 68 25.5t27 60.5h72q-1-32-13.5-60T329 601t-52.5-33-67.5-12z"/><glyph glyph-name="dotaccent" unicode="˙" horiz-adv-x="229" d="M114 558q-29 0-50 20.5T43 629t21 50.5 50 20.5q30 0 51-20.5t21-50.5-21-50.5-51-20.5z"/><glyph glyph-name="ring" unicode="˚" horiz-adv-x="303" d="M153 608q20 0 33.5 13.5T200 655t-13.5 33.5T153 702t-34-13.5-14-33.5 14-33.5 34-13.5zm0-57q-23 0-42.5 8T77 581t-22.5 33-8.5 41 8.5 41 23 33 34 22 41.5 8 41.5-8 34-22 23-33 8.5-41-8.5-41-23-33-34-22-41.5-8z"/><glyph glyph-name="ogonek" unicode="˛" horiz-adv-x="279" d="M157-182q-43 0-74.5 25.5T51-87q0 29 19 51t45 36h110q-38-17-55-33.5T153-68q0-14 11-24.5t31-10.5q11 0 18.5 3t12.5 6v-69q-14-11-31.5-15t-37.5-4z"/><glyph glyph-name="tilde" unicode="˜" horiz-adv-x="474" d="M60 584q8 49 40 75.5t68 26.5q21 0 39-6.5t33-14.5 28.5-14.5T294 644q20 0 30 10t16 33h77l-3-22q-8-47-39-74.5T306 563q-22 0-40 6.5T232.5 584 204 598.5t-25 6.5q-20 0-30.5-10T133 562H56z"/><glyph glyph-name="hungarumlaut" unicode="˝" horiz-adv-x="484" d="M140 710h117L125 545H55zm178 0h116L303 545h-70z"/><glyph glyph-name="Wgrave" unicode="Ẁ" horiz-adv-x="879" d="M4 710h119l140-409 176 417 176-417 140 409h120L630-8 439 452 248-8zm276 203h130l75-145h-87z"/><glyph glyph-name="wgrave" unicode="ẁ" horiz-adv-x="713" d="M8 500h115l99-327 135 335 134-335 99 327h115L547 0h-86L357 260 252 0h-86zm174 210h133l84-165h-85z"/><glyph glyph-name="Wacute" unicode="Ẃ" horiz-adv-x="879" d="M4 710h119l140-409 176 417 176-417 140 409h120L630-8 439 452 248-8zm467 203h130L484 768h-87z"/><glyph glyph-name="wacute" unicode="ẃ" horiz-adv-x="713" d="M8 500h115l99-327 135 335 134-335 99 327h115L547 0h-86L357 260 252 0h-86zm389 210h133L399 545h-87z"/><glyph glyph-name="Wdieresis" unicode="Ẅ" horiz-adv-x="879" d="M4 710h119l140-409 176 417 176-417 140 409h120L630-8 439 452 248-8zm320 64q-27 0-47.5 19.5T256 842q0 28 20.5 48t47.5 20q29 0 48.5-20t19.5-48q0-29-19.5-48.5T324 774zm230 0q-28 0-48 19.5T486 842q0 28 20 48t48 20q29 0 48.5-20t19.5-48q0-29-19.5-48.5T554 774z"/><glyph glyph-name="wdieresis" unicode="ẅ" horiz-adv-x="713" d="M8 500h115l99-327 135 335 134-335 99 327h115L547 0h-86L357 260 252 0h-86zm234 62q-28 0-48 19.5T174 629t20 48 48 20 48-20 20-48-20-47.5-48-19.5zm230 0q-29 0-48 19.5T405 629t19 48 48 20q28 0 47.5-20t19.5-48-19.5-47.5T472 562z"/><glyph glyph-name="uni1ECA" unicode="Ị" horiz-adv-x="292" d="M88 710h116V0H88v710zm56-904q-29 0-50 20.5T73-123t21 50.5T144-52q30 0 51-20.5t21-50.5-21-50.5-51-20.5z"/><glyph glyph-name="uni1ECB" unicode="ị" horiz-adv-x="250" d="M70 597q-18 21-18 48 0 30 21.5 51.5T125 718t51.5-21.5T198 645q0-27-18-48H70zm0-97h110V0H70v500zm55-694q-29 0-50 20.5T54-123t21 50.5T125-52q30 0 51-20.5t21-50.5-21-50.5-51-20.5z"/><glyph glyph-name="uni1ECC" unicode="Ọ" horiz-adv-x="812" d="M406 102q52 0 97 19.5t78 53.5 51.5 80.5T651 355t-18.5 99.5T581 535t-78 53.5-97 19.5q-53 0-97.5-19.5T231 535t-51.5-80.5T161 355t18.5-99.5T231 175t77.5-53.5T406 102zm0-110q-75 0-141.5 28T149 96.5t-77.5 115T43 355t28.5 143.5 77.5 115T264.5 690 406 718q76 0 142-28t115-76.5 77.5-115T769 355t-28.5-143.5-77.5-115T548 20 406-8zm-1-186q-29 0-50 20.5T334-123t21 50.5T405-52q30 0 51-20.5t21-50.5-21-50.5-51-20.5z"/><glyph glyph-name="uni1ECD" unicode="ọ" horiz-adv-x="594" d="M297 97q32 0 58.5 11.5t46 32T432 189t11 61-11 61-30.5 48.5-46 32T297 403t-59-11.5-46.5-32-30-48.5-10.5-61 10.5-61 30-48.5 46.5-32T297 97zm0-105q-56 0-103.5 20t-82 54.5-54 81.5T38 250t19.5 102 54 81.5 82 54.5T297 508q55 0 102.5-20t82.5-54.5 54.5-81.5T556 250t-19.5-102T482 66.5 399.5 12 297-8zm-1-186q-29 0-50 20.5T225-123t21 50.5T296-52q30 0 51-20.5t21-50.5-21-50.5-51-20.5z"/><glyph glyph-name="uni1EE4" unicode="Ụ" horiz-adv-x="731" d="M366-8q-63 0-115.5 20T160 68.5t-59 89T80 276v434h116V273q0-83 47-127t123-44 122.5 44T535 273v437h116V276q0-66-21-118.5t-59-89T481 12 366-8zm-1-186q-29 0-50 20.5T294-123t21 50.5T365-52q30 0 51-20.5t21-50.5-21-50.5-51-20.5z"/><glyph glyph-name="uni1EE5" unicode="ụ" d="M407 46q-26-29-63.5-41.5T267-8q-47 0-84.5 15.5T119 51t-40.5 68T64 207v293h110V209q0-20 7.5-40t22-36 36-26T288 97q42 0 72.5 21t46.5 64v318h110V0H407v46zM289-194q-29 0-50 20.5T218-123t21 50.5T289-52q30 0 51-20.5t21-50.5-21-50.5-51-20.5z"/><glyph glyph-name="Ygrave" unicode="Ỳ" horiz-adv-x="648" d="M266 299 5 710h136l183-293 183 293h137L382 299V0H266v299zm-94 614h130l75-145h-87z"/><glyph glyph-name="ygrave" unicode="ỳ" horiz-adv-x="514" d="M201 26 4 500h118l136-345 137 345h118L227-184H111zm-87 684h133l84-165h-85z"/><glyph glyph-name="endash" unicode="–" horiz-adv-x="577" d="M62 329h453V224H62v105z"/><glyph glyph-name="emdash" unicode="—" horiz-adv-x="877" d="M62 329h753V224H62v105z"/><glyph glyph-name="quoteleft" unicode="‘" horiz-adv-x="255" d="M139 564h58V423H56v141l59 146h68z"/><glyph glyph-name="quoteright" unicode="’" horiz-adv-x="244" d="M114 569H56v141h141V569l-59-146H70z"/><glyph glyph-name="quotesinglbase" unicode="‚" horiz-adv-x="270" d="M122 0H64v141h141V0l-59-146H78z"/><glyph glyph-name="quotedblleft" unicode="“" horiz-adv-x="461" d="M139 564h58V423H56v141l59 146h68zm206 0h58V423H262v141l59 146h68z"/><glyph glyph-name="quotedblright" unicode="”" horiz-adv-x="450" d="M114 569H56v141h141V569l-59-146H70zm206 0h-58v141h141V569l-59-146h-68z"/><glyph glyph-name="quotedblbase" unicode="„" horiz-adv-x="476" d="M122 0H64v141h141V0l-59-146H78zm206 0h-58v141h141V0l-59-146h-68z"/><glyph glyph-name="bullet" unicode="•" horiz-adv-x="412" d="M206 166q-28 0-53 10.5t-43.5 29-29 43.5T70 302t10.5 53 29 43.5 43.5 29 53 10.5 53-10.5 43.5-29 29-43.5 10.5-53-10.5-53-29-43.5-43.5-29-53-10.5z"/><glyph glyph-name="ellipsis" unicode="…" horiz-adv-x="743" d="M133-8Q97-8 71.5 17.5T46 79q0 18 7 33.5t18.5 27T99 158t34 7 33.5-7 27.5-18.5 18.5-27T219 79q0-36-25-61.5T133-8zm239 0q-36 0-61.5 25.5T285 79q0 18 7 33.5t18.5 27T338 158t34 7 33.5-7 27.5-18.5 18.5-27T458 79q0-36-25-61.5T372-8zm239 0q-36 0-61.5 25.5T524 79q0 18 7 33.5t18.5 27T577 158t34 7 33.5-7 27.5-18.5 18.5-27T697 79q0-36-25-61.5T611-8z"/><glyph glyph-name="guilsinglleft" unicode="‹" horiz-adv-x="314" d="m37 250 156 228 75-51-121-177L268 73l-75-51z"/><glyph glyph-name="guilsinglright" unicode="›" horiz-adv-x="314" d="M121 22 46 73l121 177L46 427l75 51 156-228z"/><glyph glyph-name="Euro" unicode="€" horiz-adv-x="735" d="M61 459h85q16 57 49 104.5t78 82T374 699t118 19q64 0 116-17t97-49l-39-100q-31 27-75 45.5T492 616q-79 0-141-42.5T261 459h363l-26-62H245q-3-21-3-42v-21l2-20h318l-26-62H260q28-73 90-115.5T492 94q45 0 80 12t67 32V23Q569-8 492-8q-63 0-118.5 19t-101 53.5-78 82.5T146 252H35l26 62h73q-2 10-2 20v42l2 21H35z"/><glyph glyph-name="minus" unicode="−" horiz-adv-x="590" d="M77 321h437v-88H77v88z"/><glyph glyph-name="uniFB01" unicode="ﬁ" horiz-adv-x="620" d="M31 500h79q-16 17-25 38.5T76 586q0 27 10 49.5t28.5 39 44.5 26 58 9.5h132v-98H247q-30 0-48-14t-18-40 16.5-41 36.5-17h115v-98H219V0H109v402H31v98zm409 97q-18 21-18 48 0 30 21.5 51.5T495 718t51.5-21.5T568 645q0-27-18-48H440zm0-97h110V0H440v500z"/><glyph glyph-name="uniFB02" unicode="ﬂ" horiz-adv-x="620" d="M31 500h79q-16 17-25 38.5T76 586q0 27 10 49.5t28.5 39 44.5 26 58 9.5h132v-98H247q-30 0-48-14t-18-40 16.5-41 36.5-17h115v-98H219V0H109v402H31v98zm409 210h110V0H440v710z"/><glyph glyph-name="glyph332" horiz-adv-x="229" d="M114-194q-29 0-50 20.5T43-123t21 50.5T114-52q30 0 51-20.5t21-50.5-21-50.5-51-20.5z"/><glyph glyph-name="glyph334" horiz-adv-x="283" d="M113-50h114L127-243H54z"/><glyph glyph-name="glyph338" horiz-adv-x="500" d="M231 710h109l-57-163h-75z"/><glyph glyph-name="glyph339" horiz-adv-x="319" d="M138 913h130L151 768H64z"/><glyph glyph-name="glyph340" horiz-adv-x="419" d="M209 763q-36 0-66 12t-52 33-34.5 49.5T43 918h71q2-35 27.5-60.5T210 832q42 0 68 25.5t27 60.5h72q-1-32-13.5-60.5T329 808t-52.5-33-67.5-12z"/><glyph glyph-name="glyph341" horiz-adv-x="436" d="m44 851 37 72 137-73 138 73 37-73-175-91z"/><glyph glyph-name="glyph342" horiz-adv-x="435" d="m43 833 175 91 174-91-37-73-137 73-138-73z"/><glyph glyph-name="glyph343" horiz-adv-x="468" d="M140 774q-27 0-47.5 19.5T72 842q0 28 20.5 48t47.5 20q29 0 48.5-20t19.5-48q0-29-19.5-48.5T140 774zm230 0q-28 0-48 19.5T302 842q0 28 20 48t48 20q29 0 48.5-20t19.5-48q0-29-19.5-48.5T370 774z"/><glyph glyph-name="glyph344" horiz-adv-x="230" d="M115 770q-29 0-50.5 21T43 842t21.5 51 50.5 21q30 0 51-21t21-51-21-51-51-21z"/><glyph glyph-name="glyph345" horiz-adv-x="319" d="M51 913h130l75-145h-87z"/><glyph glyph-name="glyph346" horiz-adv-x="508" d="M138 913h121L142 768H64zm201 0h120L342 768h-78z"/><glyph glyph-name="glyph347" horiz-adv-x="410" d="M52 875h306v-76H52v76z"/><glyph glyph-name="glyph348" horiz-adv-x="303" d="M153 807q20 0 33.5 13t13.5 34q0 20-13.5 34T153 902t-34-14-14-34q0-21 14-34t34-13zm0-57q-23 0-42.5 8T77 780t-22.5 33-8.5 41q0 45 31 74.5t76 29.5q22 0 41.5-8t34-22 23-33 8.5-41-8.5-41-23-33-34-22-41.5-8z"/><glyph glyph-name="glyph349" horiz-adv-x="474" d="M58 800q4 24 15 43.5T99 876t33 20 36 7q21 0 39-6.5t33-15 28.5-15T294 860q20 0 30 10t16 33h78l-3-22q-4-24-14.5-43.5T375 805t-32.5-20-36.5-7q-22 0-40 6.5t-33.5 15-28.5 15-25 6.5q-20 0-30.5-10.5T133 777H54z"/></font>
</defs>
</svg>
