<svg xmlns="http://www.w3.org/2000/svg"><defs><font id="Font" horiz-adv-x="598"><font-face font-family="Font" font-weight="700" panose-1="2 11 8 0 3 0 0 0 0 0" ascent="800" descent="-200" x-height="500" cap-height="710" bbox="-56 -268 977 999" underline-thickness="100" underline-position="-284" unicode-range="U+000D-FB02"/><glyph glyph-name=".notdef" horiz-adv-x="500"/><glyph glyph-name="glyph1" horiz-adv-x="0"/><glyph glyph-name="uni000D" horiz-adv-x="220"/><glyph glyph-name="space" horiz-adv-x="220"/><glyph glyph-name="exclam" unicode="!" horiz-adv-x="298" d="M73 439v271h152V439l-30-184h-92zM149-8Q126-8 106.5.5t-34 23-23 34T41 100q0 26 11 47.5T81 184h136q18-15 29-36.5t11-47.5q0-23-8.5-42.5t-23-34T191 .5 149-8z"/><glyph glyph-name="quotedbl" unicode="&quot;" horiz-adv-x="443" d="M57 710h127V412H57v298zm202 0h127V412H259v298z"/><glyph glyph-name="numbersign" unicode="#" horiz-adv-x="723" d="M373 181H242L186 0H58l56 181H31v114h119l37 120h-83v114h119l56 181h128l-56-181h131l56 181h128l-56-181h82V415H574l-37-120h83V181H501L445 0H317zm-95 114h131l37 120H315z"/><glyph glyph-name="dollar" unicode="$" horiz-adv-x="527" d="M212-2Q88 19 29 131l110 90q23-37 55.5-62.5T272 133q35 0 51.5 17.5T340 193q0 24-19 41.5T257 272l-40 18q-81 36-119 93.5T60 513q0 39 11.5 71.5t32 58 48 43T212 711v87h127v-88q32-8 60-27t58-54l-96-101q-26 29-44 39t-40 10q-33 0-49-17t-16-41q0-28 23.5-46t72.5-40l38-17q146-66 146-213 0-80-40.5-133T339 0v-88H212v86z"/><glyph glyph-name="percent" unicode="%" horiz-adv-x="977" d="M225 435q34 0 57 24.5t23 57.5-23 57.5-57 24.5-57-24.5-23-57.5 23-57.5 57-24.5zm0-115q-41 0-77 15.5T85.5 378t-42 62.5T28 517q0 40 15.5 76t42 63 62.5 42.5 77 15.5q40 0 76-15.5t63-42.5 42.5-63 15.5-76q0-41-15.5-76.5T364 378t-63-42.5-76-15.5zm445 390h147L307 0H160zm82-599q34 0 57 24.5t23 57.5-23 57.5-57 24.5-57-24.5-23-57.5 23-57.5 57-24.5zm0-115q-41 0-77 15.5T612.5 54t-42 62.5T555 193q0 40 15.5 76t42 63 62.5 42.5 77 15.5q40 0 76-15.5t63-42.5 42.5-63 15.5-76q0-41-15.5-76.5T891 54t-63-42.5T752-4z"/><glyph glyph-name="ampersand" unicode="&amp;" horiz-adv-x="762" d="M300-8q-56 0-98.5 16.5t-72 44.5T85 119t-15 80q0 36 9.5 64t26 50 38.5 40 46 33q-25 30-40.5 65.5T134 536q0 36 14.5 68.5t40.5 58 63 40.5 82 15q46 0 82.5-15.5t61.5-40 38-56 13-63.5q0-33-9.5-58t-26-46-39-38.5T405 366l85-92 101 105 104-99-107-112L744 0H546l-61 65q-42-36-84.5-54.5T300-8zm2 134q24 0 45.5 12t41.5 31L278 289q-32-21-44-41t-12-44q0-37 23.5-57.5T302 126zm-24 408q0-24 10.5-39t32.5-38l2 1q32 18 47.5 34.5T386 534t-14.5 41-37.5 16q-24 0-40-16t-16-41z"/><glyph glyph-name="quotesingle" unicode="'" horiz-adv-x="241" d="M57 710h127V412H57v298z"/><glyph glyph-name="parenleft" unicode="(" horiz-adv-x="289" d="M151-164Q94-60 67.5 53.5T41 300t26.5 246.5T151 764l111-49q-43-101-68.5-205.5T168 300t25.5-209.5T262-115l-111-49z"/><glyph glyph-name="parenright" unicode=")" horiz-adv-x="289" d="M138-164 27-115Q70-14 95.5 90.5T121 300 95.5 509.5 27 715l111 49q57-104 83.5-217.5T248 300 221.5 53.5 138-164z"/><glyph glyph-name="asterisk" unicode="*" horiz-adv-x="508" d="m83 343 88 120-142 46 32 98 142-46v149h103V561l141 47 32-98-141-47 88-120-83-60-88 119-89-119z"/><glyph glyph-name="plus" unicode="+" horiz-adv-x="590" d="M77 339h161v161h114V339h161V225H352V64H238v161H77v114z"/><glyph glyph-name="comma" unicode="," horiz-adv-x="288" d="M124 0H57v174h174V0l-64-154H80z"/><glyph glyph-name="hyphen" unicode="-" horiz-adv-x="396" d="M56 354h284V210H56v144z"/><glyph glyph-name="period" unicode="." horiz-adv-x="288" d="M144-8Q121-8 101.5.5t-34 23-23 34T36 100q0 22 8.5 42t23 34.5 34 23T144 208q22 0 42-8.5t34.5-23 23-34.5 8.5-42q0-23-8.5-42.5t-23-34T186 .5 144-8z"/><glyph glyph-name="slash" unicode="/" horiz-adv-x="505" d="M351 710h136L156 0H20z"/><glyph glyph-name="zero" unicode="0" horiz-adv-x="590" d="M391 355q0 45-4.5 84.5t-16 68-30 45T295 569t-45.5-16.5-30-45-16-68T199 355t4.5-84.5 16-68 30-45T295 141t45.5 16.5 30 45 16 68T391 355zM295-8q-66 0-114 28.5T101.5 98t-47 115T39 355t15.5 142 47 115 79.5 77.5T295 718t114-28.5 79.5-77.5 47-115T551 355t-15.5-142-47-115T409 20.5 295-8z"/><glyph glyph-name="one" unicode="1" horiz-adv-x="590" d="m276 475-165-77v164l317 148V0H276v475z"/><glyph glyph-name="two" unicode="2" horiz-adv-x="590" d="M345 405q24 29 33 49.5t9 40.5q0 16-5.5 30.5t-16 26-26 18.5-34.5 7-35-7-27-18.5-17.5-26T219 495v-5H67q0 48 18 89.5t49.5 72.5 75 48.5T305 718t95-17.5 74-48.5 48-72.5 17-89.5q0-31-9.5-58.5t-25.5-54-37-53-45-55.5L316 141h222V0H12z"/><glyph glyph-name="three" unicode="3" horiz-adv-x="590" d="M268-8q-68 0-124.5 26.5T51 92l107 99q17-25 41-41.5t59-16.5q50 0 79 28.5t29 78.5-29 78.5-79 28.5h-72l105 222H84v141h429L395 460q58-30 91-86.5T519 240q0-56-18-102t-51-78.5-79.5-50T268-8z"/><glyph glyph-name="four" unicode="4" horiz-adv-x="590" d="M334 150H-12l498 568V282h86V150h-86V0H334v150zm0 232-87-100h87v100z"/><glyph glyph-name="five" unicode="5" horiz-adv-x="590" d="M286-8q-69 0-125.5 26T69 92l110 102q14-22 37.5-41.5T276 133q23 0 41 8t30.5 21 19 30.5T373 229t-6.5 36.5-19 30.5-30.5 21-41 8q-35 0-57.5-16.5T186 266l-98 41v403h387V569H240V463q22 3 46 3 54 0 98-17t75.5-47.5 49-74.5 17.5-98-17.5-98-49-74.5T384 9 286-8z"/><glyph glyph-name="six" unicode="6" horiz-adv-x="590" d="M296-8q-53 0-98.5 18t-79 50T66 135.5 47 229q0 39 14 72.5T92 367l187 343h169L314 465q50-3 92.5-22.5t73-51 48-73T545 229q0-50-19-93.5T473.5 60t-79-50T296-8zm0 333q-23 0-41-8t-30.5-21-19-30.5T199 229t6.5-36.5 19-30.5 30.5-21 41-8 41 8 30.5 21 19 30.5T393 229t-6.5 36.5-19 30.5-30.5 21-41 8z"/><glyph glyph-name="seven" unicode="7" horiz-adv-x="590" d="M332 569H68v141h492L238 0H74z"/><glyph glyph-name="eight" unicode="8" horiz-adv-x="590" d="M295-8q-53 0-98.5 18t-79 50T65 135.5 46 229q0 58 24.5 104t68.5 75q-19 23-29.5 51T99 521q0 41 15.5 77t42 62.5 62 42T295 718t76.5-15.5 62-42 42-62.5 15.5-77q0-34-10.5-62T451 408q43-29 68-75t25-104q0-50-19-93.5T472.5 60t-79-50T295-8zm0 141q23 0 41 8t30.5 21 19 30.5T392 229t-6.5 36.5-19 30.5-30.5 21-41 8-41-8-30.5-21-19-30.5T198 229t6.5-36.5 19-30.5 30.5-21 41-8zm0 332q26 0 40 16.5t14 39.5-14 39.5-40 16.5-40-16.5-14-39.5 14-39.5 40-16.5z"/><glyph glyph-name="nine" unicode="9" horiz-adv-x="590" d="M275 245q-50 3-92 22t-73 50.5T62 391t-17 90q0 50 19 93.5t52.5 75.5 79 50 98.5 18 98.5-18 79-50 52.5-75.5 19-93.5q0-39-14-72.5T498 343L311 0H142zm19 140q23 0 41 8t30.5 21 19 30.5T391 481t-6.5 36.5-19 30.5-30.5 21-41 8-41-8-30.5-21-19-30.5T197 481t6.5-36.5 19-30.5 30.5-21 41-8z"/><glyph glyph-name="colon" unicode=":" horiz-adv-x="310" d="M155 292q-23 0-42.5 8.5t-34 23-23 34T47 400q0 22 8.5 42t23 34.5 34 23T155 508q22 0 42-8.5t34.5-23 23-34.5 8.5-42q0-23-8.5-42.5t-23-34-34.5-23-42-8.5zm0-300Q132-8 112.5.5t-34 23-23 34T47 100q0 22 8.5 42t23 34.5 34 23T155 208q22 0 42-8.5t34.5-23 23-34.5 8.5-42q0-23-8.5-42.5t-23-34T197 .5 155-8z"/><glyph glyph-name="semicolon" unicode=";" horiz-adv-x="307" d="M153 292q-23 0-42.5 8.5t-34 23-23 34T45 400q0 22 8.5 42t23 34.5 34 23T153 508q22 0 42-8.5t34.5-23 23-34.5 8.5-42q0-23-8.5-42.5t-23-34-34.5-23-42-8.5zM133 0H66v174h174V0l-64-154H89z"/><glyph glyph-name="equal" unicode="=" horiz-adv-x="590" d="M77 236h436V122H77v114zm0 206h436V328H77v114z"/><glyph glyph-name="question" unicode="?" horiz-adv-x="534" d="M171 420h80q45 0 68 22t23 59q0 30-20.5 53T264 577q-36 0-60-23.5T180 496v-10H27q0 48 17.5 90.5t48.5 74 73.5 49.5 92.5 18 93-18 74.5-49 49.5-72.5 18-88.5q0-48-18-84t-45.5-61-60.5-40-63-21v-39H171v175zM239-8Q216-8 196.5.5t-34 23-23 34T131 100q0 26 10.5 47.5T171 184h136q18-15 29-36.5t11-47.5q0-23-8.5-42.5t-23-34T281 .5 239-8z"/><glyph glyph-name="at" unicode="@" horiz-adv-x="801" d="M387-8q-81 0-145.5 27t-110 73.5T62 202 38 337q0 85 31.5 155.5T154 613t123.5 77.5T425 718q74 0 137-22t109-62.5 72-98T769 406q0-65-16-111.5T711.5 219t-59-42.5T585 163t-60 14-38 37q-23-23-56-36t-67-13q-41 0-72 13.5t-52 37-31.5 55T198 337q0 45 16 85t44.5 70 68.5 47 88 17q28 0 50.5-7t39.5-20l4 17h95l-47-220q-7-33 2.5-56t41.5-23q40 0 62 36.5T685 408q0 58-21.5 101.5T606 581t-83 42-99 14q-58 0-112-19.5t-95-58-66-94.5-25-128q0-59 18.5-107.5t52-82.5 82-52.5T387 76q45 0 90 10t86 31l33-81Q549 15 492.5 3.5T387-8zm-7 267q20 0 38.5 6t34.5 22l32 148q-14 14-32 21t-37 7q-50 0-82-33.5T302 345q0-39 19-62.5t59-23.5z"/><glyph glyph-name="A" unicode="A" horiz-adv-x="670" d="M335 718 685 0H517l-51 110H204L153 0H-15zm67-478-67 148-67-148h134z"/><glyph glyph-name="B" unicode="B" horiz-adv-x="637" d="M76 710h267q43 0 81.5-16.5T492 648t45.5-67.5T554 499q0-38-13.5-68.5T504 377q45-24 72.5-66.5T604 211q0-44-16.5-82.5t-46-67-68.5-45T389 0H76v710zm298-563q32 0 53 20.5t21 49.5-21 50-53 21H236V147h138zm-49 276q32 0 53 20.5t21 49.5-21 50-53 21h-89V423h89z"/><glyph glyph-name="C" unicode="C" horiz-adv-x="715" d="M400-8q-75 0-141 28.5t-115.5 78-78 115.5T37 355t28.5 141 78 115.5 115.5 78T400 718q92 0 169.5-42T697 564l-121-99q-27 44-73 71.5T400 564q-43 0-80-16.5t-64-45-42.5-66.5-15.5-81 15.5-81 42.5-66.5 64-45 80-16.5q57 0 103 27.5t73 71.5l121-99Q647 76 569.5 34T400-8z"/><glyph glyph-name="D" unicode="D" horiz-adv-x="723" d="M325 146q45 0 81.5 16.5t63 45 41 66.5 14.5 81-14.5 81-41 66.5-63 45T325 564h-89V146h89zM76 710h249q75 0 141-28t114.5-76 77-113T686 355q0-74-28.5-138.5t-77-112.5T466 28 325 0H76v710z"/><glyph glyph-name="E" unicode="E" horiz-adv-x="564" d="M76 710h440V552H236V432h220V278H236V158h280V0H76v710z"/><glyph glyph-name="F" unicode="F" horiz-adv-x="527" d="M76 710h420V552H236V432h200V278H236V0H76v710z"/><glyph glyph-name="G" unicode="G" horiz-adv-x="744" d="M400-8q-75 0-141 28.5t-115.5 78-78 115.5T37 355t28.5 141 78 115.5 115.5 78T400 718q92 0 163.5-35T687 584l-121-99q-32 41-70.5 60T400 564q-43 0-80-16.5t-64-45-42.5-66.5-15.5-81 15.5-81 42.5-66.5 64-45 80-16.5q44 0 77.5 8t59.5 27v99H366l68 150h258V108q-53-60-127-88T400-8z"/><glyph glyph-name="H" unicode="H" horiz-adv-x="756" d="M76 710h160V432h284v278h160V0H520v278H236V0H76v710z"/><glyph glyph-name="I" unicode="I" horiz-adv-x="312" d="M76 710h160V0H76v710z"/><glyph glyph-name="J" unicode="J" horiz-adv-x="527" d="M236-8q-45 0-85 12.5T81 44t-47.5 68.5T16 212h160q0-38 15.5-54.5T236 141t44.5 16.5T296 212v498h160V202q0-56-17.5-95.5t-47.5-65T321 4 236-8z"/><glyph glyph-name="K" unicode="K" horiz-adv-x="685" d="M76 710h160V354l248 356h184L419 352 700 0H502L236 333V0H76v710z"/><glyph glyph-name="L" unicode="L" horiz-adv-x="533" d="M76 710h160V159h276V0H76v710z"/><glyph glyph-name="M" unicode="M" horiz-adv-x="860" d="m76 718 354-355 354 355V0H624v348L430 154 236 348V0H76v718z"/><glyph glyph-name="N" unicode="N" horiz-adv-x="760" d="M236 371V0H76v718l448-379v371h160V-8z"/><glyph glyph-name="O" unicode="O" horiz-adv-x="800" d="M400 146q43 0 80 16.5t64 45 42.5 66.5 15.5 81-15.5 81-42.5 66.5-64 45-80 16.5-80-16.5-64-45-42.5-66.5-15.5-81 15.5-81 42.5-66.5 64-45 80-16.5zm0-154q-75 0-141 28.5t-115.5 78-78 115.5T37 355t28.5 141 78 115.5 115.5 78T400 718t141-28.5 115.5-78 78-115.5T763 355t-28.5-141-78-115.5-115.5-78T400-8z"/><glyph glyph-name="P" unicode="P" horiz-adv-x="579" d="M76 710h234q52 0 96.5-19t77-51.5 51-76.5 18.5-94-18.5-94-51-76.5-77-51.5-96.5-19h-74V0H76v710zm232-333q19 0 35.5 7.5T372 405t19 29.5 7 34.5q0 36-25.5 63.5T308 560h-72V377h72z"/><glyph glyph-name="Q" unicode="Q" horiz-adv-x="823" d="M630 74q-48-39-106-60.5T400-8q-75 0-141 28.5t-115.5 78-78 115.5T37 355t28.5 141 78 115.5 115.5 78T400 718t141-28.5 115.5-78 78-115.5T763 355q0-46-11-89t-31-81l101-81L731-8zm-230 72q59 0 105 29l-108 88 91 111 104-84q5 15 7.5 31.5T602 355q0 43-15.5 81T544 502.5t-64 45-80 16.5-80-16.5-64-45-42.5-66.5-15.5-81 15.5-81 42.5-66.5 64-45 80-16.5z"/><glyph glyph-name="R" unicode="R" horiz-adv-x="644" d="M238 288h-2V0H76v710h268q43 0 81.5-16.5T493 648t45.5-67.5T555 499q0-67-37.5-120.5T418 301L649 0H458zm88 135q32 0 53 20.5t21 49.5-21 50-53 21h-90V423h90z"/><glyph glyph-name="S" unicode="S" horiz-adv-x="542" d="M282-8q-86 0-152 35T27 131l121 99q23-37 58.5-62.5T279 142q68 0 68 51 0 24-19 41.5T264 272l-40 18q-81 36-123.5 93.5T58 513q0 46 18 84t48 65 69 41.5 81 14.5q59 0 106.5-18.5T473 629L365 515q-27 33-46.5 43T274 568q-20 0-37.5-12.5T219 519q0-28 23.5-46t72.5-40l38-17q74-33 114.5-86T508 203q0-48-17-87t-47-66.5T372.5 7 282-8z"/><glyph glyph-name="T" unicode="T" horiz-adv-x="543" d="M191 552H21v158h501V552H351V0H191v552z"/><glyph glyph-name="U" unicode="U" horiz-adv-x="718" d="M359-8q-64 0-117.5 21t-92 60-60 93.5T68 288v422h160V286q0-65 36-102.5t95-37.5 95 37.5T490 286v424h160V288q0-67-21.5-121.5t-60-93.5-92-60T359-8z"/><glyph glyph-name="V" unicode="V" horiz-adv-x="652" d="M-9 710h178l157-355 157 355h178L326-8z"/><glyph glyph-name="W" unicode="W" horiz-adv-x="860" d="M-3 710h163l110-333 160 341 160-341 110 333h163L617-8 430 401 243-8z"/><glyph glyph-name="X" unicode="X" horiz-adv-x="682" d="M228 356 19 710h185l137-236 137 236h185L454 356 678 0H492L341 244 190 0H4z"/><glyph glyph-name="Y" unicode="Y" horiz-adv-x="682" d="M261 298-2 710h187l156-252 156 252h187L421 298V0H261v298z"/><glyph glyph-name="Z" unicode="Z" horiz-adv-x="627" d="M336 552H49v158h560L280 158h308V0H7z"/><glyph glyph-name="bracketleft" unicode="[" horiz-adv-x="334" d="M71 759h231V651H198V-51h104v-108H71v918z"/><glyph glyph-name="bracketright" unicode="]" horiz-adv-x="334" d="M263-159H32v108h104v702H32v108h231v-918z"/><glyph glyph-name="underscore" unicode="_" horiz-adv-x="546" d="M55 0h436v-114H55V0z"/><glyph glyph-name="grave" unicode="`" horiz-adv-x="433" d="M80 710h173l80-155H223z"/><glyph glyph-name="a" unicode="a" horiz-adv-x="596" d="M385 29q-22-18-50.5-27.5T275-8q-56 0-100.5 21t-76 56.5T50 152t-17 98 17 98 48.5 82.5 76 56.5T275 508q31 0 59.5-10t50.5-28v30h151V0H385v29zm-85 101q53 0 85 41v157q-16 20-36.5 31T300 370q-27 0-48.5-9.5t-36-26-22.5-38-8-46.5 8-46.5 22.5-38 36-26T300 130z"/><glyph glyph-name="b" unicode="b" horiz-adv-x="596" d="M60 710h151V470q22 18 50.5 28t59.5 10q55 0 100-21t76.5-56.5T546 348t17-98-17-98-48.5-82.5T421 13 321-8q-31 0-59.5 9.5T211 29V0H60v710zm236-340q-54 0-85-42V171q30-41 85-41 27 0 48.5 9.5t36 26 22.5 38 8 46.5-8 46.5-22.5 38-36 26T296 370z"/><glyph glyph-name="c" unicode="c" horiz-adv-x="530" d="M292-8q-54 0-101.5 20.5T108 68t-55.5 82T32 250t20.5 100 55.5 82 82.5 55.5T292 508q69 0 126.5-32t92.5-86l-120-85q-15 28-40.5 45T292 367q-47 0-77.5-32.5T184 250t30.5-84.5T292 133q33 0 58.5 17t40.5 45l120-85q-35-54-92.5-86T292-8z"/><glyph glyph-name="d" unicode="d" horiz-adv-x="596" d="M385 29q-22-18-50.5-27.5T275-8q-56 0-100.5 21t-76 56.5T50 152t-17 98 17 98 48.5 82.5 76 56.5T275 508q31 0 59.5-10t50.5-28v240h151V0H385v29zm-85 101q53 0 85 41v157q-16 20-36.5 31T300 370q-27 0-48.5-9.5t-36-26-22.5-38-8-46.5 8-46.5 22.5-38 36-26T300 130z"/><glyph glyph-name="e" unicode="e" horiz-adv-x="565" d="M288-8q-50 0-96 18.5T111 63t-56.5 81.5T33 250q0 55 18.5 102.5t52.5 82 81.5 54T291 508q48 0 91.5-15.5t76.5-46 53-75.5 20-104q0-22-3-44H178q3-25 14-42.5t26.5-29T252 135t35-5q40 0 66 17.5t41 45.5l120-81q-35-54-93-87T288-8zm-6 395q-14 0-29.5-3.5t-30-12T196 348t-17-37h204q-6 40-35 58t-66 18z"/><glyph glyph-name="f" unicode="f" horiz-adv-x="383" d="M33 500h73q-31 34-31 83 0 27 9.5 50t27 40 42.5 27 56 10h155V578h-98q-26 0-37.5-11T218 539t11-28 28-11h108V368H249V0H98v368H33v132z"/><glyph glyph-name="g" unicode="g" horiz-adv-x="594" d="M290-194q-57 0-114 10.5T65-138L133-5q30-23 66.5-37T280-56q22 0 43 4t36.5 13.5 25 24.5 9.5 38q0 8-2.5 19.5T381 66q-22-18-51-28t-60-10q-57 0-101 20.5t-74 54T49.5 179 34 268t15.5 89T95 433.5t74 54T270 508q31 0 59.5-10t50.5-28v30h151V97q11-26 16-50.5T552-1q0-53-22.5-89.5T470-150t-84-33.5-96-10.5zm0 360q56 0 90 42v120q-34 42-90 42-25 0-44.5-9T213 338t-20-32.5-7-37.5 7-37.5 20-32.5 32.5-23 44.5-9z"/><glyph glyph-name="h" unicode="h" d="M60 710h151V469q47 39 115 39 53 0 93.5-17t68.5-47 42-72 14-93V0H393v252q0 50-21.5 84T301 370q-22 0-46.5-11T211 327V0H60v710z"/><glyph glyph-name="i" unicode="i" horiz-adv-x="271" d="M66 571q-20 23-20 57 0 38 26 64t64 26 64-26 26-64q0-34-20-57H66zm-6-71h151V0H60v500z"/><glyph glyph-name="j" unicode="j" horiz-adv-x="279" d="M-37-41h26q36 0 57.5 12T68 19v481h151V0q0-46-16-80.5T158-138t-70-34.5T-2-184h-35v143zM73 571q-20 23-20 57 0 38 26 64t64 26 64-26 26-64q0-34-20-57H73z"/><glyph glyph-name="k" unicode="k" horiz-adv-x="564" d="M60 710h151V272l163 228h174L378 263 574 0H396L211 249V0H60v710z"/><glyph glyph-name="l" unicode="l" horiz-adv-x="271" d="M60 710h151V0H60v710z"/><glyph glyph-name="m" unicode="m" horiz-adv-x="891" d="M686 252q0 24-4 45.5T669 335t-24.5 25-37.5 9q-26 0-49-12t-38-32q2-11 3-22.5t1-23.5V0H373v252q0 24-4 45.5T356 335t-24.5 25-37.5 9q-25 0-46.5-10.5T211 329V0H60v500h151v-30q22 17 52 27.5t62 10.5q45 0 80.5-16t61.5-45q22 22 62 41.5t98 19.5q56 0 95.5-18t65-49.5 37.5-73 12-88.5V0H686v252z"/><glyph glyph-name="n" unicode="n" d="M60 500h151v-31q47 39 115 39 53 0 93.5-17t68.5-47 42-72 14-93V0H393v252q0 50-21.5 84T301 370q-22 0-46.5-11T211 327V0H60v500z"/><glyph glyph-name="o" unicode="o" horiz-adv-x="584" d="M292 133q47 0 77.5 32.5T400 250t-30.5 84.5T292 367t-77.5-32.5T184 250t30.5-84.5T292 133zm0-141q-54 0-101.5 20.5T108 68t-55.5 82T32 250t20.5 100 55.5 82 82.5 55.5T292 508t101.5-20.5T476 432t55.5-82T552 250t-20.5-100T476 68t-82.5-55.5T292-8z"/><glyph glyph-name="p" unicode="p" horiz-adv-x="596" d="M60 500h151v-30q22 18 50.5 28t59.5 10q55 0 100-21t76.5-56.5T546 348t17-98-17-98-48.5-82.5T421 13 321-8q-31 0-59.5 9.5T211 29v-213H60v684zm236-130q-54 0-85-42V171q30-41 85-41 27 0 48.5 9.5t36 26 22.5 38 8 46.5-8 46.5-22.5 38-36 26T296 370z"/><glyph glyph-name="q" unicode="q" horiz-adv-x="596" d="M385 29q-22-18-50.5-27.5T275-8q-56 0-100.5 21t-76 56.5T50 152t-17 98 17 98 48.5 82.5 76 56.5T275 508q31 0 59.5-10t50.5-28v30h151v-684H385V29zm-85 101q53 0 85 41v157q-16 20-36.5 31T300 370q-27 0-48.5-9.5t-36-26-22.5-38-8-46.5 8-46.5 22.5-38 36-26T300 130z"/><glyph glyph-name="r" unicode="r" horiz-adv-x="398" d="M60 500h151v-44q43 52 114 52 12 0 26-1.5t28-6.5V343q-17 9-37 13t-40 4q-23 0-48-8.5T211 327V0H60v500z"/><glyph glyph-name="s" unicode="s" horiz-adv-x="439" d="M226-8q-66 0-117.5 24.5T25 98l115 78q15-27 36.5-44t55.5-17q16 0 27.5 4.5T271 138t-13 22-50 22l-26 10Q50 244 50 353q0 34 13.5 63t36.5 49 54.5 31.5T222 508q48 0 88.5-18.5T380 429l-86-85q-14 20-31.5 32.5T222 389q-15 0-25.5-5.5T186 366q0-15 14-23t52-22l21-8q72-27 103-66.5t31-95.5q0-38-14-68t-38.5-50T297 2.5 226-8z"/><glyph glyph-name="t" unicode="t" horiz-adv-x="430" d="M8 500h98v75l151 75V500h158l-33-132H257V197q0-32 13.5-45.5T315 138h82V0H259q-71 0-112 41t-41 113v214H41z"/><glyph glyph-name="u" unicode="u" d="M387 37q-23-22-55-33.5T268-8q-51 0-90.5 16.5t-67 47-42 72.5T54 221v279h151V248q0-51 21.5-84.5T293 130q28 0 53.5 13t40.5 37v320h151V0H387v37z"/><glyph glyph-name="v" unicode="v" horiz-adv-x="552" d="M-15 500h174l117-218 117 218h174L276-8z"/><glyph glyph-name="w" unicode="w" horiz-adv-x="734" d="M2 500h159l83-281 123 289 123-289 83 281h159L573 0H458l-91 205L276 0H161z"/><glyph glyph-name="x" unicode="x" horiz-adv-x="560" d="M182 252 11 500h175l94-143 94 143h175L378 252 558 0H383L280 150 177 0H2z"/><glyph glyph-name="y" unicode="y" horiz-adv-x="528" d="M185 0 1 500h160l104-316 104 316h160L277-184H117z"/><glyph glyph-name="z" unicode="z" horiz-adv-x="518" d="M245 370H43v130h454L266 131h216V0H13z"/><glyph glyph-name="braceleft" unicode="{" horiz-adv-x="351" d="M238-159q-65 0-106.5 38.5T90-17v210q0 22-12 37.5T37 246h-8v108h8q29 0 41 15.5T90 407v210q0 65 38.5 103.5T232 759h89V651h-47q-31 0-44-13t-13-44V398q0-44-17.5-67.5T155 300q27-7 44.5-30.5T217 202V6q0-31 13-44t44-13h47v-108h-83z"/><glyph glyph-name="bar" unicode="|" horiz-adv-x="269" d="M71 710h127v-894H71v894z"/><glyph glyph-name="braceright" unicode="}" horiz-adv-x="351" d="M113-159H30v108h47q31 0 44 13t13 44v196q0 44 17.5 67.5T196 300q-27 7-44.5 30.5T134 398v196q0 31-13 44t-44 13H30v108h89q65 0 103.5-38.5T261 617V407q0-22 12-37.5t41-15.5h8V246h-8q-29 0-41-15.5T261 193V-17q0-65-41.5-103.5T113-159z"/><glyph glyph-name="uni00A0" horiz-adv-x="220"/><glyph glyph-name="exclamdown" unicode="¡" horiz-adv-x="286" d="m67 61 30 184h92l30-184v-245H67V61zm8 255q-18 15-29 36.5T35 400q0 22 8.5 42t23 34.5 34 23T143 508q22 0 42-8.5t34.5-23 23-34.5 8.5-42q0-26-11-47.5T211 316H75z"/><glyph glyph-name="sterling" unicode="£" horiz-adv-x="600" d="M48 413h64q-9 19-12.5 40.5T96 495q0 42 17.5 82.5T162 649t73 50 92 19q47 0 88.5-17.5T488 653t50-71 21-87H407q0 36-23 59t-57 23-56.5-23-22.5-59 22.5-59 56.5-23h80V296H276V141h283V0H48v141h76v155H48v117z"/><glyph glyph-name="yen" unicode="¥" horiz-adv-x="722" d="M108 412h104L22 710h179l159-258 161 258h179L510 412h104V298H437v-77h177V107H437V0H285v107H108v114h177v77H108v114z"/><glyph glyph-name="dieresis" unicode="¨" horiz-adv-x="578" d="M170 567q-33 0-56.5 23.5T90 647t23.5 56.5T170 727t56.5-23.5T250 647t-23.5-56.5T170 567zm238 0q-33 0-56.5 23.5T328 647t23.5 56.5T408 727t56.5-23.5T488 647t-23.5-56.5T408 567z"/><glyph glyph-name="copyright" unicode="©" horiz-adv-x="800" d="M400-8q-75 0-141 28.5t-115.5 78-78 115.5T37 355t28.5 141 78 115.5 115.5 78T400 718t141-28.5 115.5-78 78-115.5T763 355t-28.5-141-78-115.5-115.5-78T400-8zm0 105q53 0 100 20.5t82 55.5 55.5 82T658 355t-20.5 100-55.5 82-82 55.5T400 613t-100-20.5-82-55.5-55.5-82T142 355t20.5-100 55.5-82 82-55.5T400 97zm153 167q-23-36-61-58t-83-22q-35 0-66.5 13.5T288 234t-36.5 54.5T238 355t13.5 66 36.5 54.5 54.5 37T409 526q45 0 83-22t61-58l-75-53q-9 19-27 32t-42 13q-34 0-55.5-24.5T332 355t21.5-58.5T409 272q24 0 42 12.5t28 31.5z"/><glyph glyph-name="guillemotleft" unicode="«" horiz-adv-x="562" d="m261 250 164 241 100-68-118-173L525 77 425 9zm-235 0 164 241 100-68-118-173L290 77 190 9z"/><glyph glyph-name="uni00AD" unicode="­" horiz-adv-x="396" d="M56 354h284V210H56v144z"/><glyph glyph-name="macron" unicode="¯" horiz-adv-x="494" d="M82 675h330v-96H82v96z"/><glyph glyph-name="degree" unicode="°" horiz-adv-x="308" d="M154 547q19 0 32 13t13 32-13 32-32 13-32-13-13-32 13-32 32-13zm0-77q-25 0-47.5 9.5t-39 26-26 39T32 592t9.5 47.5 26 39 39 26T154 714t47.5-9.5 39-26 26-39T276 592t-9.5-47.5-26-39-39-26T154 470z"/><glyph glyph-name="acute" unicode="´" horiz-adv-x="433" d="M180 710h173L210 555H100z"/><glyph glyph-name="periodcentered" unicode="·" horiz-adv-x="298" d="M149 174q-23 0-42.5 8.5t-34 23-23 34T41 282q0 22 8.5 42t23 34.5 34 23T149 390q22 0 42-8.5t34.5-23 23-34.5 8.5-42q0-23-8.5-42.5t-23-34-34.5-23-42-8.5z"/><glyph glyph-name="cedilla" unicode="¸" horiz-adv-x="352" d="M142 0h102l-34-134H83z"/><glyph glyph-name="guillemotright" unicode="»" horiz-adv-x="562" d="M372 9 272 77l118 173-118 173 100 68 164-241zM137 9 37 77l118 173L37 423l100 68 164-241z"/><glyph glyph-name="questiondown" unicode="¿" horiz-adv-x="527" d="M271-194q-50 0-93 18t-74.5 49T54-54.5 36 34q0 48 18 84t45.5 61 60.5 40 63 21v30h136V104h-80q-45 0-68-22t-23-59q0-30 20.5-53T266-53q36 0 60 23.5T350 28v10h153q0-48-17.5-90.5t-48.5-74-73.5-49.5-92.5-18zm-48 510q-18 15-29 36.5T183 400q0 22 8.5 42t23 34.5 34 23T291 508q22 0 42-8.5t34.5-23 23-34.5 8.5-42q0-26-10.5-47.5T359 316H223z"/><glyph glyph-name="Agrave" unicode="À" horiz-adv-x="670" d="M335 718 685 0H517l-51 110H204L153 0H-15zm67-478-67 148-67-148h134zM154 923h166l70-145H280z"/><glyph glyph-name="Aacute" unicode="Á" horiz-adv-x="670" d="M335 718 685 0H517l-51 110H204L153 0H-15zm67-478-67 148-67-148h134zm-53 683h166L389 778H279z"/><glyph glyph-name="Acircumflex" unicode="Â" horiz-adv-x="670" d="M335 718 685 0H517l-51 110H204L153 0H-15zm67-478-67 148-67-148h134zM158 855l177 76 177-76-41-96-136 59-136-59z"/><glyph glyph-name="Atilde" unicode="Ã" horiz-adv-x="670" d="M335 718 685 0H517l-51 110H204L153 0H-15zm67-478-67 148-67-148h134zM146 806q4 28 15.5 49.5T189 892t35.5 22.5T263 922q22 0 40-6.5t33.5-14T365 888t24-6q17 0 27 9.5t16 32.5h96l-4-29q-4-28-15.5-49.5T481 809t-35.5-22.5T407 779q-22 0-40 6t-33.5 13.5-28.5 14-24 6.5q-17 0-27-9.5T238 777h-96z"/><glyph glyph-name="Adieresis" unicode="Ä" horiz-adv-x="670" d="M335 718 685 0H517l-51 110H204L153 0H-15zm67-478-67 148-67-148h134zM216 770q-33 0-56.5 23.5T136 850t23.5 56.5T216 930t56.5-23.5T296 850t-23.5-56.5T216 770zm238 0q-33 0-56.5 23.5T374 850t23.5 56.5T454 930t56.5-23.5T534 850t-23.5-56.5T454 770z"/><glyph glyph-name="Aring" unicode="Å" horiz-adv-x="670" d="M335 718 685 0H517l-51 110H204L153 0H-15zm67-478-67 148-67-148h134zm-67 592q20 0 33.5 13.5T382 879t-13.5 33.5T335 926t-33.5-13.5T288 879t13.5-33.5T335 832zm0-73q-25 0-46.5 9.5t-38 26-26 38T215 879t9.5 46.5 26 38 38 26T335 999t46.5-9.5 38-26 26-38T455 879t-9.5-46.5-26-38-38-26T335 759z"/><glyph glyph-name="AE" unicode="Æ" horiz-adv-x="922" d="m267 545-81 165h401l77-158H432l58-120h172l75-154H565l59-120h232L933 0H533l-51 110H220L169 0H1zm151-305-67 148-67-148h134z"/><glyph glyph-name="Ccedilla" unicode="Ç" horiz-adv-x="715" d="M347-4q-66 9-122.5 41t-98 80T61 226 37 355q0 75 28.5 141t78 115.5 115.5 78T400 718q92 0 169.5-42T697 564l-121-99q-27 44-73 71.5T400 564q-43 0-80-16.5t-64-45-42.5-66.5-15.5-81 15.5-81 42.5-66.5 64-45 80-16.5q57 0 103 27.5t73 71.5l121-99Q654 86 590 46T450-4l-33-130H290z"/><glyph glyph-name="Egrave" unicode="È" horiz-adv-x="564" d="M76 710h440V552H236V432h220V278H236V158h280V0H76v710zm69 213h166l70-145H271z"/><glyph glyph-name="Eacute" unicode="É" horiz-adv-x="564" d="M76 710h440V552H236V432h220V278H236V158h280V0H76v710zm206 213h166L322 778H212z"/><glyph glyph-name="Ecircumflex" unicode="Ê" horiz-adv-x="564" d="M76 710h440V552H236V432h220V278H236V158h280V0H76v710zm43 145 177 76 177-76-41-96-136 59-136-59z"/><glyph glyph-name="Edieresis" unicode="Ë" horiz-adv-x="564" d="M76 710h440V552H236V432h220V278H236V158h280V0H76v710zm101 60q-33 0-56.5 23.5T97 850t23.5 56.5T177 930t56.5-23.5T257 850t-23.5-56.5T177 770zm238 0q-33 0-56.5 23.5T335 850t23.5 56.5T415 930t56.5-23.5T495 850t-23.5-56.5T415 770z"/><glyph glyph-name="Igrave" unicode="Ì" horiz-adv-x="312" d="M76 710h160V0H76v710zM7 923h166l70-145H133z"/><glyph glyph-name="Iacute" unicode="Í" horiz-adv-x="312" d="M76 710h160V0H76v710zm67 213h166L183 778H73z"/><glyph glyph-name="Icircumflex" unicode="Î" horiz-adv-x="312" d="M76 710h160V0H76v710zm-95 145 177 76 177-76-41-96-136 59-136-59z"/><glyph glyph-name="Idieresis" unicode="Ï" horiz-adv-x="312" d="M63 760q-33 0-56.5 23.5T-17 840t23.5 56.5T63 920t56.5-23.5T143 840t-23.5-56.5T63 760zm188 0q-33 0-56.5 23.5T171 840t23.5 56.5T251 920t56.5-23.5T331 840t-23.5-56.5T251 760zM76 710h160V0H76v710z"/><glyph glyph-name="Eth" unicode="Ð" horiz-adv-x="757" d="M21 425h89v285h249q75 0 141-28t114.5-76 77-113T720 355q0-74-28.5-138.5t-77-112.5T500 28 359 0H110v285H21v140zm338-279q45 0 81.5 16.5t63 45 41 66.5 14.5 81-14.5 81-41 66.5-63 45T359 564h-89V425h89V285h-89V146h89z"/><glyph glyph-name="Ntilde" unicode="Ñ" horiz-adv-x="760" d="M236 371V0H76v718l448-379v371h160V-8zm-45 435q4 28 15.5 49.5T234 892t35.5 22.5T308 922q22 0 40-6.5t33.5-14T410 888t24-6q17 0 27 9.5t16 32.5h96l-4-29q-4-28-15.5-49.5T526 809t-35.5-22.5T452 779q-22 0-40 6t-33.5 13.5-28.5 14-24 6.5q-17 0-27-9.5T283 777h-96z"/><glyph glyph-name="Ograve" unicode="Ò" horiz-adv-x="800" d="M400 146q43 0 80 16.5t64 45 42.5 66.5 15.5 81-15.5 81-42.5 66.5-64 45-80 16.5-80-16.5-64-45-42.5-66.5-15.5-81 15.5-81 42.5-66.5 64-45 80-16.5zm0-154q-75 0-141 28.5t-115.5 78-78 115.5T37 355t28.5 141 78 115.5 115.5 78T400 718t141-28.5 115.5-78 78-115.5T763 355t-28.5-141-78-115.5-115.5-78T400-8zM249 923h166l70-145H375z"/><glyph glyph-name="Oacute" unicode="Ó" horiz-adv-x="800" d="M400 146q43 0 80 16.5t64 45 42.5 66.5 15.5 81-15.5 81-42.5 66.5-64 45-80 16.5-80-16.5-64-45-42.5-66.5-15.5-81 15.5-81 42.5-66.5 64-45 80-16.5zm0-154q-75 0-141 28.5t-115.5 78-78 115.5T37 355t28.5 141 78 115.5 115.5 78T400 718t141-28.5 115.5-78 78-115.5T763 355t-28.5-141-78-115.5-115.5-78T400-8zm-15 931h166L425 778H315z"/><glyph glyph-name="Ocircumflex" unicode="Ô" horiz-adv-x="800" d="M400 146q43 0 80 16.5t64 45 42.5 66.5 15.5 81-15.5 81-42.5 66.5-64 45-80 16.5-80-16.5-64-45-42.5-66.5-15.5-81 15.5-81 42.5-66.5 64-45 80-16.5zm0-154q-75 0-141 28.5t-115.5 78-78 115.5T37 355t28.5 141 78 115.5 115.5 78T400 718t141-28.5 115.5-78 78-115.5T763 355t-28.5-141-78-115.5-115.5-78T400-8zM223 855l177 76 177-76-41-96-136 59-136-59z"/><glyph glyph-name="Otilde" unicode="Õ" horiz-adv-x="800" d="M400 146q43 0 80 16.5t64 45 42.5 66.5 15.5 81-15.5 81-42.5 66.5-64 45-80 16.5-80-16.5-64-45-42.5-66.5-15.5-81 15.5-81 42.5-66.5 64-45 80-16.5zm0-154q-75 0-141 28.5t-115.5 78-78 115.5T37 355t28.5 141 78 115.5 115.5 78T400 718t141-28.5 115.5-78 78-115.5T763 355t-28.5-141-78-115.5-115.5-78T400-8zM211 806q4 28 15.5 49.5T254 892t35.5 22.5T328 922q22 0 40-6.5t33.5-14T430 888t24-6q17 0 27 9.5t16 32.5h96l-4-29q-4-28-15.5-49.5T546 809t-35.5-22.5T472 779q-22 0-40 6t-33.5 13.5-28.5 14-24 6.5q-17 0-27-9.5T303 777h-96z"/><glyph glyph-name="Odieresis" unicode="Ö" horiz-adv-x="800" d="M400 146q43 0 80 16.5t64 45 42.5 66.5 15.5 81-15.5 81-42.5 66.5-64 45-80 16.5-80-16.5-64-45-42.5-66.5-15.5-81 15.5-81 42.5-66.5 64-45 80-16.5zm0-154q-75 0-141 28.5t-115.5 78-78 115.5T37 355t28.5 141 78 115.5 115.5 78T400 718t141-28.5 115.5-78 78-115.5T763 355t-28.5-141-78-115.5-115.5-78T400-8zM281 770q-33 0-56.5 23.5T201 850t23.5 56.5T281 930t56.5-23.5T361 850t-23.5-56.5T281 770zm238 0q-33 0-56.5 23.5T439 850t23.5 56.5T519 930t56.5-23.5T599 850t-23.5-56.5T519 770z"/><glyph glyph-name="multiply" unicode="×" horiz-adv-x="590" d="m86 134 128 128L86 390l81 81 127-129 129 129 80-81-128-128 128-128-80-80-129 127L167 54z"/><glyph glyph-name="Oslash" unicode="Ø" horiz-adv-x="808" d="m31 72 75 75q-31 45-48 97.5T41 355q0 75 28.5 141t78 115.5 115.5 78T404 718q58 0 110-17t97-49l76 76 90-90-76-76q32-45 49-97t17-110q0-75-28.5-141t-78-115.5-115.5-78T404-8Q345-8 293 9t-97 49l-76-76zm373 74q43 0 80 16.5t64 45 42.5 66.5 15.5 81q0 25-5.5 48T585 447L308 170q42-24 96-24zM202 355q0-49 20-92l277 277q-21 11-45 17.5t-50 6.5q-43 0-80-16.5t-64-45-42.5-66.5-15.5-81z"/><glyph glyph-name="Ugrave" unicode="Ù" horiz-adv-x="718" d="M359-8q-64 0-117.5 21t-92 60-60 93.5T68 288v422h160V286q0-65 36-102.5t95-37.5 95 37.5T490 286v424h160V288q0-67-21.5-121.5t-60-93.5-92-60T359-8zM208 923h166l70-145H334z"/><glyph glyph-name="Uacute" unicode="Ú" horiz-adv-x="718" d="M359-8q-64 0-117.5 21t-92 60-60 93.5T68 288v422h160V286q0-65 36-102.5t95-37.5 95 37.5T490 286v424h160V288q0-67-21.5-121.5t-60-93.5-92-60T359-8zm-15 931h166L384 778H274z"/><glyph glyph-name="Ucircumflex" unicode="Û" horiz-adv-x="718" d="M359-8q-64 0-117.5 21t-92 60-60 93.5T68 288v422h160V286q0-65 36-102.5t95-37.5 95 37.5T490 286v424h160V288q0-67-21.5-121.5t-60-93.5-92-60T359-8zM182 855l177 76 177-76-41-96-136 59-136-59z"/><glyph glyph-name="Udieresis" unicode="Ü" horiz-adv-x="718" d="M359-8q-64 0-117.5 21t-92 60-60 93.5T68 288v422h160V286q0-65 36-102.5t95-37.5 95 37.5T490 286v424h160V288q0-67-21.5-121.5t-60-93.5-92-60T359-8zM240 770q-33 0-56.5 23.5T160 850t23.5 56.5T240 930t56.5-23.5T320 850t-23.5-56.5T240 770zm238 0q-33 0-56.5 23.5T398 850t23.5 56.5T478 930t56.5-23.5T558 850t-23.5-56.5T478 770z"/><glyph glyph-name="Yacute" unicode="Ý" horiz-adv-x="682" d="M261 298-2 710h187l156-252 156 252h187L421 298V0H261v298zm74 625h166L375 778H265z"/><glyph glyph-name="Thorn" unicode="Þ" horiz-adv-x="586" d="M76 710h160V596h74q52 0 96.5-19t77-51.5 51-76.5 18.5-94-18.5-94-51-76.5-77-51.5-96.5-19h-74V0H76v710zm232-447q19 0 35.5 7.5T372 291t19 29.5 7 34.5q0 36-25.5 63.5T308 446h-72V263h72z"/><glyph glyph-name="germandbls" unicode="ß" horiz-adv-x="571" d="M60 482q0 56 18.5 100t50 74 74 46 89.5 16 87-16.5 69.5-43.5 46-63 16.5-75q0-89-74-144 48-22 74.5-65.5T538 217q0-47-17.5-87T471 61t-76.5-45T297 0h-35v138h35q37 0 63.5 22t26.5 60-27 59-64 21h-34v132h6q38 0 65 22.5t27 57.5q0 31-18 50.5T292 582q-38 0-59.5-27T211 483V0H60v482z"/><glyph glyph-name="agrave" unicode="à" horiz-adv-x="596" d="M385 29q-22-18-50.5-27.5T275-8q-56 0-100.5 21t-76 56.5T50 152t-17 98 17 98 48.5 82.5 76 56.5T275 508q31 0 59.5-10t50.5-28v30h151V0H385v29zm-85 101q53 0 85 41v157q-16 20-36.5 31T300 370q-27 0-48.5-9.5t-36-26-22.5-38-8-46.5 8-46.5 22.5-38 36-26T300 130zM146 710h173l80-155H289z"/><glyph glyph-name="aacute" unicode="á" horiz-adv-x="596" d="M385 29q-22-18-50.5-27.5T275-8q-56 0-100.5 21t-76 56.5T50 152t-17 98 17 98 48.5 82.5 76 56.5T275 508q31 0 59.5-10t50.5-28v30h151V0H385v29zm-85 101q53 0 85 41v157q-16 20-36.5 31T300 370q-27 0-48.5-9.5t-36-26-22.5-38-8-46.5 8-46.5 22.5-38 36-26T300 130zm-1 580h173L329 555H219z"/><glyph glyph-name="acircumflex" unicode="â" horiz-adv-x="596" d="M385 29q-22-18-50.5-27.5T275-8q-56 0-100.5 21t-76 56.5T50 152t-17 98 17 98 48.5 82.5 76 56.5T275 508q31 0 59.5-10t50.5-28v30h151V0H385v29zm-85 101q53 0 85 41v157q-16 20-36.5 31T300 370q-27 0-48.5-9.5t-36-26-22.5-38-8-46.5 8-46.5 22.5-38 36-26T300 130zM143 637l178 91 178-91-48-91-130 62-130-62z"/><glyph glyph-name="atilde" unicode="ã" horiz-adv-x="596" d="M385 29q-22-18-50.5-27.5T275-8q-56 0-100.5 21t-76 56.5T50 152t-17 98 17 98 48.5 82.5 76 56.5T275 508q31 0 59.5-10t50.5-28v30h151V0H385v29zm-85 101q53 0 85 41v157q-16 20-36.5 31T300 370q-27 0-48.5-9.5t-36-26-22.5-38-8-46.5 8-46.5 22.5-38 36-26T300 130zM132 583q4 28 15.5 49.5T175 669t35.5 22.5T249 699q22 0 40-6.5t33.5-14T351 665t24-6q17 0 27 9.5t16 32.5h96l-4-29q-4-28-15.5-49.5T467 586t-35.5-22.5T393 556q-22 0-40 6t-33.5 13.5-28.5 14-24 6.5q-17 0-27-9.5T224 554h-96z"/><glyph glyph-name="adieresis" unicode="ä" horiz-adv-x="596" d="M385 29q-22-18-50.5-27.5T275-8q-56 0-100.5 21t-76 56.5T50 152t-17 98 17 98 48.5 82.5 76 56.5T275 508q31 0 59.5-10t50.5-28v30h151V0H385v29zm-85 101q53 0 85 41v157q-16 20-36.5 31T300 370q-27 0-48.5-9.5t-36-26-22.5-38-8-46.5 8-46.5 22.5-38 36-26T300 130zm-98 437q-33 0-56.5 23.5T122 647t23.5 56.5T202 727t56.5-23.5T282 647t-23.5-56.5T202 567zm238 0q-33 0-56.5 23.5T360 647t23.5 56.5T440 727t56.5-23.5T520 647t-23.5-56.5T440 567z"/><glyph glyph-name="aring" unicode="å" horiz-adv-x="596" d="M385 29q-22-18-50.5-27.5T275-8q-56 0-100.5 21t-76 56.5T50 152t-17 98 17 98 48.5 82.5 76 56.5T275 508q31 0 59.5-10t50.5-28v30h151V0H385v29zm-85 101q53 0 85 41v157q-16 20-36.5 31T300 370q-27 0-48.5-9.5t-36-26-22.5-38-8-46.5 8-46.5 22.5-38 36-26T300 130zm21 489q20 0 33.5 13.5T368 666t-13.5 33.5T321 713t-33.5-13.5T274 666t13.5-33.5T321 619zm0-73q-25 0-46.5 9.5t-38 26-26 38T201 666t9.5 46.5 26 38 38 26T321 786t46.5-9.5 38-26 26-38T441 666t-9.5-46.5-26-38-38-26T321 546z"/><glyph glyph-name="ae" unicode="æ" horiz-adv-x="870" d="M593-8q-49 0-94 17.5T419 60q-38-35-85-51.5T231-8q-42 0-79 9.5t-64 30T45.5 83 30 156q0 37 15 65t41.5 47 61.5 29 75 10q62 0 116-26v14q-6 41-40 57.5T223 369q-35 0-69.5-8.5T98 339L77 480q73 28 151 28 58 0 104.5-16t82.5-52q34 32 79.5 50T596 508q48 0 91.5-15.5t76.5-46 53-75.5 20-104q0-22-3-44H483q3-25 14-42.5t26.5-29T557 135t35-5q40 0 66 17.5t41 45.5l120-81q-35-54-93-87T593-8zm-6 395q-14 0-29.5-3.5t-30-12T501 348t-17-37h204q-6 40-35 58t-66 18zM243 118q31 0 57 9t39 26v28q-38 23-95 23-28 0-48-9.5T176 160q0-12 6-20t16-13 21.5-7 23.5-2z"/><glyph glyph-name="ccedilla" unicode="ç" horiz-adv-x="530" d="M240-2q-45 9-83 31.5t-65.5 56T48 161t-16 89q0 53 20.5 100t55.5 82 82.5 55.5T292 508q69 0 126.5-32t92.5-86l-120-85q-15 28-40.5 45T292 367q-47 0-77.5-32.5T184 250t30.5-84.5T292 133q33 0 58.5 17t40.5 45l120-85q-29-44-72-73.5T342-3l-33-131H182z"/><glyph glyph-name="egrave" unicode="è" horiz-adv-x="565" d="M288-8q-50 0-96 18.5T111 63t-56.5 81.5T33 250q0 55 18.5 102.5t52.5 82 81.5 54T291 508q48 0 91.5-15.5t76.5-46 53-75.5 20-104q0-22-3-44H178q3-25 14-42.5t26.5-29T252 135t35-5q40 0 66 17.5t41 45.5l120-81q-35-54-93-87T288-8zm-6 395q-14 0-29.5-3.5t-30-12T196 348t-17-37h204q-6 40-35 58t-66 18zM123 710h173l80-155H266z"/><glyph glyph-name="eacute" unicode="é" horiz-adv-x="565" d="M288-8q-50 0-96 18.5T111 63t-56.5 81.5T33 250q0 55 18.5 102.5t52.5 82 81.5 54T291 508q48 0 91.5-15.5t76.5-46 53-75.5 20-104q0-22-3-44H178q3-25 14-42.5t26.5-29T252 135t35-5q40 0 66 17.5t41 45.5l120-81q-35-54-93-87T288-8zm-6 395q-14 0-29.5-3.5t-30-12T196 348t-17-37h204q-6 40-35 58t-66 18zm4 323h173L316 555H206z"/><glyph glyph-name="ecircumflex" unicode="ê" horiz-adv-x="565" d="M288-8q-50 0-96 18.5T111 63t-56.5 81.5T33 250q0 55 18.5 102.5t52.5 82 81.5 54T291 508q48 0 91.5-15.5t76.5-46 53-75.5 20-104q0-22-3-44H178q3-25 14-42.5t26.5-29T252 135t35-5q40 0 66 17.5t41 45.5l120-81q-35-54-93-87T288-8zm-6 395q-14 0-29.5-3.5t-30-12T196 348t-17-37h204q-6 40-35 58t-66 18zM113 637l178 91 178-91-48-91-130 62-130-62z"/><glyph glyph-name="edieresis" unicode="ë" horiz-adv-x="565" d="M288-8q-50 0-96 18.5T111 63t-56.5 81.5T33 250q0 55 18.5 102.5t52.5 82 81.5 54T291 508q48 0 91.5-15.5t76.5-46 53-75.5 20-104q0-22-3-44H178q3-25 14-42.5t26.5-29T252 135t35-5q40 0 66 17.5t41 45.5l120-81q-35-54-93-87T288-8zm-6 395q-14 0-29.5-3.5t-30-12T196 348t-17-37h204q-6 40-35 58t-66 18zM172 567q-33 0-56.5 23.5T92 647t23.5 56.5T172 727t56.5-23.5T252 647t-23.5-56.5T172 567zm238 0q-33 0-56.5 23.5T330 647t23.5 56.5T410 727t56.5-23.5T490 647t-23.5-56.5T410 567z"/><glyph glyph-name="igrave" unicode="ì" horiz-adv-x="272" d="M60 500h152V0H60v500zm-91 210h173l80-155H112z"/><glyph glyph-name="iacute" unicode="í" horiz-adv-x="272" d="M60 500h152V0H60v500zm72 210h173L162 555H52z"/><glyph glyph-name="icircumflex" unicode="î" horiz-adv-x="272" d="M60 500h152V0H60v500zM-41 637l178 91 178-91-48-91-130 62L7 546z"/><glyph glyph-name="idieresis" unicode="ï" horiz-adv-x="272" d="M42 547q-33 0-56.5 23.5T-38 627t23.5 56.5T42 707t56.5-23.5T122 627t-23.5-56.5T42 547zm188 0q-33 0-56.5 23.5T150 627t23.5 56.5T230 707t56.5-23.5T310 627t-23.5-56.5T230 547zM60 500h152V0H60v500z"/><glyph glyph-name="eth" unicode="ð" horiz-adv-x="586" d="M109 633h76l-49 77h169l49-77h104v-96h-42l90-139q21-32 34-69t13-79q0-53-20.5-100T477 68t-82.5-55.5T293-8 191.5 12.5 109 68t-55.5 82T33 250q0 50 18 94.5t49.5 78.5 74 56 91.5 27l-20 31H109v96zm184-500q47 0 77.5 32.5T401 250t-30.5 84.5T293 367t-77.5-32.5T185 250t30.5-84.5T293 133z"/><glyph glyph-name="ntilde" unicode="ñ" d="M60 500h151v-31q47 39 115 39 53 0 93.5-17t68.5-47 42-72 14-93V0H393v252q0 50-21.5 84T301 370q-22 0-46.5-11T211 327V0H60v500zm53 83q4 28 15.5 49.5T156 669t35.5 22.5T230 699q22 0 40-6.5t33.5-14T332 665t24-6q17 0 27 9.5t16 32.5h96l-4-29q-4-28-15.5-49.5T448 586t-35.5-22.5T374 556q-22 0-40 6t-33.5 13.5-28.5 14-24 6.5q-17 0-27-9.5T205 554h-96z"/><glyph glyph-name="ograve" unicode="ò" horiz-adv-x="584" d="M292 133q47 0 77.5 32.5T400 250t-30.5 84.5T292 367t-77.5-32.5T184 250t30.5-84.5T292 133zm0-141q-54 0-101.5 20.5T108 68t-55.5 82T32 250t20.5 100 55.5 82 82.5 55.5T292 508t101.5-20.5T476 432t55.5-82T552 250t-20.5-100T476 68t-82.5-55.5T292-8zM114 710h173l80-155H257z"/><glyph glyph-name="oacute" unicode="ó" horiz-adv-x="584" d="M292 133q47 0 77.5 32.5T400 250t-30.5 84.5T292 367t-77.5-32.5T184 250t30.5-84.5T292 133zm0-141q-54 0-101.5 20.5T108 68t-55.5 82T32 250t20.5 100 55.5 82 82.5 55.5T292 508t101.5-20.5T476 432t55.5-82T552 250t-20.5-100T476 68t-82.5-55.5T292-8zm5 718h173L327 555H217z"/><glyph glyph-name="ocircumflex" unicode="ô" horiz-adv-x="584" d="M292 133q47 0 77.5 32.5T400 250t-30.5 84.5T292 367t-77.5-32.5T184 250t30.5-84.5T292 133zm0-141q-54 0-101.5 20.5T108 68t-55.5 82T32 250t20.5 100 55.5 82 82.5 55.5T292 508t101.5-20.5T476 432t55.5-82T552 250t-20.5-100T476 68t-82.5-55.5T292-8zM114 637l178 91 178-91-48-91-130 62-130-62z"/><glyph glyph-name="otilde" unicode="õ" horiz-adv-x="584" d="M103 583q4 28 15.5 49.5T146 669t35.5 22.5T220 699q22 0 40-6.5t33.5-14T322 665t24-6q17 0 27 9.5t16 32.5h96l-4-29q-4-28-15.5-49.5T438 586t-35.5-22.5T364 556q-22 0-40 6t-33.5 13.5-28.5 14-24 6.5q-17 0-27-9.5T195 554H99zm189-450q47 0 77.5 32.5T400 250t-30.5 84.5T292 367t-77.5-32.5T184 250t30.5-84.5T292 133zm0-141q-54 0-101.5 20.5T108 68t-55.5 82T32 250t20.5 100 55.5 82 82.5 55.5T292 508t101.5-20.5T476 432t55.5-82T552 250t-20.5-100T476 68t-82.5-55.5T292-8z"/><glyph glyph-name="odieresis" unicode="ö" horiz-adv-x="584" d="M292 133q47 0 77.5 32.5T400 250t-30.5 84.5T292 367t-77.5-32.5T184 250t30.5-84.5T292 133zm0-141q-54 0-101.5 20.5T108 68t-55.5 82T32 250t20.5 100 55.5 82 82.5 55.5T292 508t101.5-20.5T476 432t55.5-82T552 250t-20.5-100T476 68t-82.5-55.5T292-8zM173 567q-33 0-56.5 23.5T93 647t23.5 56.5T173 727t56.5-23.5T253 647t-23.5-56.5T173 567zm238 0q-33 0-56.5 23.5T331 647t23.5 56.5T411 727t56.5-23.5T491 647t-23.5-56.5T411 567z"/><glyph glyph-name="divide" unicode="÷" horiz-adv-x="590" d="M295 35q-33 0-56.5 23.5T215 115t23.5 56.5T295 195t56.5-23.5T375 115t-23.5-56.5T295 35zm0 334q-33 0-56.5 23.5T215 449t23.5 56.5T295 529t56.5-23.5T375 449t-23.5-56.5T295 369zM77 339h436V225H77v114z"/><glyph glyph-name="oslash" unicode="ø" horiz-adv-x="586" d="m39 42 49 49q-26 33-40.5 73.5T33 250q0 53 20.5 100t55.5 82 82.5 55.5T293 508q45 0 85.5-14t73.5-40l49 49 47-49-48-48q25-33 39-72.5t14-83.5q0-53-20.5-100T477 68t-82.5-55.5T293-8q-45 0-84.5 13.5T137 44L86-7zm146 208q0-31 10-52l154 153q-26 16-56 16-47 0-77.5-32.5T185 250zm108-117q47 0 77.5 32.5T401 250q0 27-9 48L240 146q22-13 53-13z"/><glyph glyph-name="ugrave" unicode="ù" d="M387 37q-23-22-55-33.5T268-8q-51 0-90.5 16.5t-67 47-42 72.5T54 221v279h151V248q0-51 21.5-84.5T293 130q28 0 53.5 13t40.5 37v320h151V0H387v37zM128 710h173l80-155H271z"/><glyph glyph-name="uacute" unicode="ú" d="M387 37q-23-22-55-33.5T268-8q-51 0-90.5 16.5t-67 47-42 72.5T54 221v279h151V248q0-51 21.5-84.5T293 130q28 0 53.5 13t40.5 37v320h151V0H387v37zm-96 673h173L321 555H211z"/><glyph glyph-name="ucircumflex" unicode="û" d="M387 37q-23-22-55-33.5T268-8q-51 0-90.5 16.5t-67 47-42 72.5T54 221v279h151V248q0-51 21.5-84.5T293 130q28 0 53.5 13t40.5 37v320h151V0H387v37zM118 637l178 91 178-91-48-91-130 62-130-62z"/><glyph glyph-name="udieresis" unicode="ü" d="M387 37q-23-22-55-33.5T268-8q-51 0-90.5 16.5t-67 47-42 72.5T54 221v279h151V248q0-51 21.5-84.5T293 130q28 0 53.5 13t40.5 37v320h151V0H387v37zM177 567q-33 0-56.5 23.5T97 647t23.5 56.5T177 727t56.5-23.5T257 647t-23.5-56.5T177 567zm238 0q-33 0-56.5 23.5T335 647t23.5 56.5T415 727t56.5-23.5T495 647t-23.5-56.5T415 567z"/><glyph glyph-name="yacute" unicode="ý" horiz-adv-x="528" d="M185 0 1 500h160l104-316 104 316h160L277-184H117zm95 710h173L310 555H200z"/><glyph glyph-name="thorn" unicode="þ" horiz-adv-x="596" d="M60 710h151V470q22 18 50.5 28t59.5 10q55 0 100-21t76.5-56.5T546 348t17-98-17-98-48.5-82.5T421 13 321-8q-31 0-59.5 9.5T211 29v-213H60v894zm236-340q-54 0-85-42V171q30-41 85-41 27 0 48.5 9.5t36 26 22.5 38 8 46.5-8 46.5-22.5 38-36 26T296 370z"/><glyph glyph-name="ydieresis" unicode="ÿ" horiz-adv-x="528" d="M185 0 1 500h160l104-316 104 316h160L277-184H117zm-38 567q-33 0-56.5 23.5T67 647t23.5 56.5T147 727t56.5-23.5T227 647t-23.5-56.5T147 567zm238 0q-33 0-56.5 23.5T305 647t23.5 56.5T385 727t56.5-23.5T465 647t-23.5-56.5T385 567z"/><glyph glyph-name="Amacron" unicode="Ā" horiz-adv-x="670" d="M335 718 685 0H517l-51 110H204L153 0H-15zm67-478-67 148-67-148h134zM170 898h330v-96H170v96z"/><glyph glyph-name="amacron" unicode="ā" horiz-adv-x="596" d="M385 29q-22-18-50.5-27.5T275-8q-56 0-100.5 21t-76 56.5T50 152t-17 98 17 98 48.5 82.5 76 56.5T275 508q31 0 59.5-10t50.5-28v30h151V0H385v29zm-85 101q53 0 85 41v157q-16 20-36.5 31T300 370q-27 0-48.5-9.5t-36-26-22.5-38-8-46.5 8-46.5 22.5-38 36-26T300 130zM159 675h330v-96H159v96z"/><glyph glyph-name="Abreve" unicode="Ă" horiz-adv-x="670" d="M335 718 685 0H517l-51 110H204L153 0H-15zm67-478-67 148-67-148h134zm-68 529q-38 0-71.5 14.5T204 823t-39.5 58.5T150 953h86q0-41 28.5-69.5T334 855t69.5 28.5T432 953h86q0-38-14.5-71.5T464 823t-58.5-39.5T334 769z"/><glyph glyph-name="abreve" unicode="ă" horiz-adv-x="596" d="M385 29q-22-18-50.5-27.5T275-8q-56 0-100.5 21t-76 56.5T50 152t-17 98 17 98 48.5 82.5 76 56.5T275 508q31 0 59.5-10t50.5-28v30h151V0H385v29zm-85 101q53 0 85 41v157q-16 20-36.5 31T300 370q-27 0-48.5-9.5t-36-26-22.5-38-8-46.5 8-46.5 22.5-38 36-26T300 130zm14 416q-38 0-71.5 11.5T184 590t-39.5 51.5T130 710h86q0-41 28.5-59.5T314 632t69.5 18.5T412 710h86q0-38-14.5-68.5T444 590t-58.5-32.5T314 546z"/><glyph glyph-name="Aogonek" unicode="Ą" horiz-adv-x="670" d="M335 718 685 0q-32-14-49.5-25T618-56q0-16 9.5-23t22.5-7q10 0 20.5 4.5T685-73v-87q-38-29-90-29-26 0-47.5 8.5t-37 23-24 34T478-82q0 25 10.5 46T517 0l-51 110H204L153 0H-15zm67-478-67 148-67-148h134z"/><glyph glyph-name="aogonek" unicode="ą" horiz-adv-x="596" d="M385 29q-22-18-50.5-27.5T275-8q-56 0-100.5 21t-76 56.5T50 152t-17 98 17 98 48.5 82.5 76 56.5T275 508q31 0 59.5-10t50.5-28v30h151V0q-32-15-44.5-28.5T479-56q0-13 8.5-21.5T509-86q10 0 16.5 4.5T536-73v-87q-16-16-37-22.5t-46-6.5q-22 0-41.5 8.5t-34 23-23 34T346-82q0 25 10.5 46T385 0v29zm-85 101q53 0 85 41v157q-16 20-36.5 31T300 370q-27 0-48.5-9.5t-36-26-22.5-38-8-46.5 8-46.5 22.5-38 36-26T300 130z"/><glyph glyph-name="Cacute" unicode="Ć" horiz-adv-x="715" d="M400-8q-75 0-141 28.5t-115.5 78-78 115.5T37 355t28.5 141 78 115.5 115.5 78T400 718q92 0 169.5-42T697 564l-121-99q-27 44-73 71.5T400 564q-43 0-80-16.5t-64-45-42.5-66.5-15.5-81 15.5-81 42.5-66.5 64-45 80-16.5q57 0 103 27.5t73 71.5l121-99Q647 76 569.5 34T400-8zm-14 931h166L426 778H316z"/><glyph glyph-name="cacute" unicode="ć" horiz-adv-x="530" d="M292-8q-54 0-101.5 20.5T108 68t-55.5 82T32 250t20.5 100 55.5 82 82.5 55.5T292 508q69 0 126.5-32t92.5-86l-120-85q-15 28-40.5 45T292 367q-47 0-77.5-32.5T184 250t30.5-84.5T292 133q33 0 58.5 17t40.5 45l120-85q-35-54-92.5-86T292-8zm4 718h173L326 555H216z"/><glyph glyph-name="Ccircumflex" unicode="Ĉ" horiz-adv-x="715" d="M400-8q-75 0-141 28.5t-115.5 78-78 115.5T37 355t28.5 141 78 115.5 115.5 78T400 718q92 0 169.5-42T697 564l-121-99q-27 44-73 71.5T400 564q-43 0-80-16.5t-64-45-42.5-66.5-15.5-81 15.5-81 42.5-66.5 64-45 80-16.5q57 0 103 27.5t73 71.5l121-99Q647 76 569.5 34T400-8zM224 855l177 76 177-76-41-96-136 59-136-59z"/><glyph glyph-name="ccircumflex" unicode="ĉ" horiz-adv-x="530" d="M292-8q-54 0-101.5 20.5T108 68t-55.5 82T32 250t20.5 100 55.5 82 82.5 55.5T292 508q69 0 126.5-32t92.5-86l-120-85q-15 28-40.5 45T292 367q-47 0-77.5-32.5T184 250t30.5-84.5T292 133q33 0 58.5 17t40.5 45l120-85q-35-54-92.5-86T292-8zM114 637l178 91 178-91-48-91-130 62-130-62z"/><glyph glyph-name="Cdotaccent" unicode="Ċ" horiz-adv-x="715" d="M400-8q-75 0-141 28.5t-115.5 78-78 115.5T37 355t28.5 141 78 115.5 115.5 78T400 718q92 0 169.5-42T697 564l-121-99q-27 44-73 71.5T400 564q-43 0-80-16.5t-64-45-42.5-66.5-15.5-81 15.5-81 42.5-66.5 64-45 80-16.5q57 0 103 27.5t73 71.5l121-99Q647 76 569.5 34T400-8zm1 771q-36 0-61.5 25.5T314 850t25.5 61.5T401 937t61.5-25.5T488 850t-25.5-61.5T401 763z"/><glyph glyph-name="cdotaccent" unicode="ċ" horiz-adv-x="530" d="M292-8q-54 0-101.5 20.5T108 68t-55.5 82T32 250t20.5 100 55.5 82 82.5 55.5T292 508q69 0 126.5-32t92.5-86l-120-85q-15 28-40.5 45T292 367q-47 0-77.5-32.5T184 250t30.5-84.5T292 133q33 0 58.5 17t40.5 45l120-85q-35-54-92.5-86T292-8zm0 568q-36 0-61.5 25.5T205 647t25.5 61.5T292 734t61.5-25.5T379 647t-25.5-61.5T292 560z"/><glyph glyph-name="Ccaron" unicode="Č" horiz-adv-x="715" d="M400-8q-75 0-141 28.5t-115.5 78-78 115.5T37 355t28.5 141 78 115.5 115.5 78T400 718q92 0 169.5-42T697 564l-121-99q-27 44-73 71.5T400 564q-43 0-80-16.5t-64-45-42.5-66.5-15.5-81 15.5-81 42.5-66.5 64-45 80-16.5q57 0 103 27.5t73 71.5l121-99Q647 76 569.5 34T400-8zM223 835l41 96 136-59 136 59 41-96-177-76z"/><glyph glyph-name="ccaron" unicode="č" horiz-adv-x="530" d="M292-8q-54 0-101.5 20.5T108 68t-55.5 82T32 250t20.5 100 55.5 82 82.5 55.5T292 508q69 0 126.5-32t92.5-86l-120-85q-15 28-40.5 45T292 367q-47 0-77.5-32.5T184 250t30.5-84.5T292 133q33 0 58.5 17t40.5 45l120-85q-35-54-92.5-86T292-8zM160 728l130-62 130 62 48-91-178-91-178 91z"/><glyph glyph-name="Dcaron" unicode="Ď" horiz-adv-x="723" d="M325 146q45 0 81.5 16.5t63 45 41 66.5 14.5 81-14.5 81-41 66.5-63 45T325 564h-89V146h89zM76 710h249q75 0 141-28t114.5-76 77-113T686 355q0-74-28.5-138.5t-77-112.5T466 28 325 0H76v710zm61 125 41 96 136-59 136 59 41-96-177-76z"/><glyph glyph-name="dcaron" unicode="ď" horiz-adv-x="620" d="M385 29q-22-18-50.5-27.5T275-8q-56 0-100.5 21t-76 56.5T50 152t-17 98 17 98 48.5 82.5 76 56.5T275 508q31 0 59.5-10t50.5-28v240h151V0H385v29zm-85 101q53 0 85 41v157q-16 20-36.5 31T300 370q-27 0-48.5-9.5t-36-26-22.5-38-8-46.5 8-46.5 22.5-38 36-26T300 130zm368 420H566l20 160h151z"/><glyph glyph-name="Dcroat" unicode="Đ" horiz-adv-x="757" d="M21 425h89v285h249q75 0 141-28t114.5-76 77-113T720 355q0-74-28.5-138.5t-77-112.5T500 28 359 0H110v285H21v140zm338-279q45 0 81.5 16.5t63 45 41 66.5 14.5 81-14.5 81-41 66.5-63 45T359 564h-89V425h89V285h-89V146h89z"/><glyph glyph-name="dcroat" unicode="đ" horiz-adv-x="596" d="M255 660h130v50h151v-50h68v-98h-68V0H385v29q-22-18-50.5-27.5T275-8q-56 0-100.5 21t-76 56.5T50 152t-17 98 17 98 48.5 82.5 76 56.5T275 508q31 0 59.5-10t50.5-28v92H255v98zm45-530q53 0 85 41v157q-16 20-36.5 31T300 370q-27 0-48.5-9.5t-36-26-22.5-38-8-46.5 8-46.5 22.5-38 36-26T300 130z"/><glyph glyph-name="Emacron" unicode="Ē" horiz-adv-x="564" d="M76 710h440V552H236V432h220V278H236V158h280V0H76v710zm54 188h330v-96H130v96z"/><glyph glyph-name="emacron" unicode="ē" horiz-adv-x="565" d="M288-8q-50 0-96 18.5T111 63t-56.5 81.5T33 250q0 55 18.5 102.5t52.5 82 81.5 54T291 508q48 0 91.5-15.5t76.5-46 53-75.5 20-104q0-22-3-44H178q3-25 14-42.5t26.5-29T252 135t35-5q40 0 66 17.5t41 45.5l120-81q-35-54-93-87T288-8zm-6 395q-14 0-29.5-3.5t-30-12T196 348t-17-37h204q-6 40-35 58t-66 18zM125 675h330v-96H125v96z"/><glyph glyph-name="Ebreve" unicode="Ĕ" horiz-adv-x="564" d="M76 710h440V552H236V432h220V278H236V158h280V0H76v710zm220 59q-38 0-71.5 14.5T166 823t-39.5 58.5T112 953h86q0-41 28.5-69.5T296 855t69.5 28.5T394 953h86q0-38-14.5-71.5T426 823t-58.5-39.5T296 769z"/><glyph glyph-name="ebreve" unicode="ĕ" horiz-adv-x="565" d="M288-8q-50 0-96 18.5T111 63t-56.5 81.5T33 250q0 55 18.5 102.5t52.5 82 81.5 54T291 508q48 0 91.5-15.5t76.5-46 53-75.5 20-104q0-22-3-44H178q3-25 14-42.5t26.5-29T252 135t35-5q40 0 66 17.5t41 45.5l120-81q-35-54-93-87T288-8zm-6 395q-14 0-29.5-3.5t-30-12T196 348t-17-37h204q-6 40-35 58t-66 18zm8 159q-38 0-71.5 11.5T160 590t-39.5 51.5T106 710h86q0-41 28.5-59.5T290 632t69.5 18.5T388 710h86q0-38-14.5-68.5T420 590t-58.5-32.5T290 546z"/><glyph glyph-name="Edotaccent" unicode="Ė" horiz-adv-x="564" d="M76 710h440V552H236V432h220V278H236V158h280V0H76v710zm220 53q-36 0-61.5 25.5T209 850t25.5 61.5T296 937t61.5-25.5T383 850t-25.5-61.5T296 763z"/><glyph glyph-name="edotaccent" unicode="ė" horiz-adv-x="565" d="M288-8q-50 0-96 18.5T111 63t-56.5 81.5T33 250q0 55 18.5 102.5t52.5 82 81.5 54T291 508q48 0 91.5-15.5t76.5-46 53-75.5 20-104q0-22-3-44H178q3-25 14-42.5t26.5-29T252 135t35-5q40 0 66 17.5t41 45.5l120-81q-35-54-93-87T288-8zm-6 395q-14 0-29.5-3.5t-30-12T196 348t-17-37h204q-6 40-35 58t-66 18zm8 173q-36 0-61.5 25.5T203 647t25.5 61.5T290 734t61.5-25.5T377 647t-25.5-61.5T290 560z"/><glyph glyph-name="Eogonek" unicode="Ę" horiz-adv-x="564" d="M76 710h440V552H236V432h220V278H236V158h280V0q-32-14-49.5-25T449-56q0-16 9.5-23t22.5-7q10 0 20.5 4.5T516-73v-87q-38-29-90-29-26 0-47.5 8.5t-37 23-24 34T309-82q0 25 10.5 46T348 0H76v710z"/><glyph glyph-name="eogonek" unicode="ę" horiz-adv-x="565" d="M273-189q-22 0-41.5 8.5t-34 23-23 34T166-82q0 23 10 45t32 42q-37 12-69 34.5t-55.5 54-37 71T33 250q0 55 18.5 102.5t52.5 82 81.5 54T291 508q48 0 91.5-15.5t76.5-46 53-75.5 20-104q0-22-3-44H178q3-25 14-42.5t26.5-29T252 135t35-5q40 0 66 17.5t41 45.5l120-81q-26-42-66.5-71T356 0q-32-15-44.5-28.5T299-56q0-13 8.5-21.5T329-86q10 0 16.5 4.5T356-73v-87q-16-16-37-22.5t-46-6.5zm9 576q-14 0-29.5-3.5t-30-12T196 348t-17-37h204q-6 40-35 58t-66 18z"/><glyph glyph-name="Ecaron" unicode="Ě" horiz-adv-x="564" d="M76 710h440V552H236V432h220V278H236V158h280V0H76v710zm43 125 41 96 136-59 136 59 41-96-177-76z"/><glyph glyph-name="ecaron" unicode="ě" horiz-adv-x="565" d="M288-8q-50 0-96 18.5T111 63t-56.5 81.5T33 250q0 55 18.5 102.5t52.5 82 81.5 54T291 508q48 0 91.5-15.5t76.5-46 53-75.5 20-104q0-22-3-44H178q3-25 14-42.5t26.5-29T252 135t35-5q40 0 66 17.5t41 45.5l120-81q-35-54-93-87T288-8zm-6 395q-14 0-29.5-3.5t-30-12T196 348t-17-37h204q-6 40-35 58t-66 18zM161 728l130-62 130 62 48-91-178-91-178 91z"/><glyph glyph-name="Gcircumflex" unicode="Ĝ" horiz-adv-x="744" d="M400-8q-75 0-141 28.5t-115.5 78-78 115.5T37 355t28.5 141 78 115.5 115.5 78T400 718q92 0 163.5-35T687 584l-121-99q-32 41-70.5 60T400 564q-43 0-80-16.5t-64-45-42.5-66.5-15.5-81 15.5-81 42.5-66.5 64-45 80-16.5q44 0 77.5 8t59.5 27v99H366l68 150h258V108q-53-60-127-88T400-8zM224 855l177 76 177-76-41-96-136 59-136-59z"/><glyph glyph-name="gcircumflex" unicode="ĝ" horiz-adv-x="594" d="M290-194q-57 0-114 10.5T65-138L133-5q30-23 66.5-37T280-56q22 0 43 4t36.5 13.5 25 24.5 9.5 38q0 8-2.5 19.5T381 66q-22-18-51-28t-60-10q-57 0-101 20.5t-74 54T49.5 179 34 268t15.5 89T95 433.5t74 54T270 508q31 0 59.5-10t50.5-28v30h151V97q11-26 16-50.5T552-1q0-53-22.5-89.5T470-150t-84-33.5-96-10.5zm0 360q56 0 90 42v120q-34 42-90 42-25 0-44.5-9T213 338t-20-32.5-7-37.5 7-37.5 20-32.5 32.5-23 44.5-9zM115 637l178 91 178-91-48-91-130 62-130-62z"/><glyph glyph-name="Gbreve" unicode="Ğ" horiz-adv-x="744" d="M400-8q-75 0-141 28.5t-115.5 78-78 115.5T37 355t28.5 141 78 115.5 115.5 78T400 718q92 0 163.5-35T687 584l-121-99q-32 41-70.5 60T400 564q-43 0-80-16.5t-64-45-42.5-66.5-15.5-81 15.5-81 42.5-66.5 64-45 80-16.5q44 0 77.5 8t59.5 27v99H366l68 150h258V108q-53-60-127-88T400-8zm0 777q-38 0-71.5 14.5T270 823t-39.5 58.5T216 953h86q0-41 28.5-69.5T400 855t69.5 28.5T498 953h86q0-38-14.5-71.5T530 823t-58.5-39.5T400 769z"/><glyph glyph-name="gbreve" unicode="ğ" horiz-adv-x="594" d="M290-194q-57 0-114 10.5T65-138L133-5q30-23 66.5-37T280-56q22 0 43 4t36.5 13.5 25 24.5 9.5 38q0 8-2.5 19.5T381 66q-22-18-51-28t-60-10q-57 0-101 20.5t-74 54T49.5 179 34 268t15.5 89T95 433.5t74 54T270 508q31 0 59.5-10t50.5-28v30h151V97q11-26 16-50.5T552-1q0-53-22.5-89.5T470-150t-84-33.5-96-10.5zm0 360q56 0 90 42v120q-34 42-90 42-25 0-44.5-9T213 338t-20-32.5-7-37.5 7-37.5 20-32.5 32.5-23 44.5-9zm3 380q-38 0-71.5 11.5T163 590t-39.5 51.5T109 710h86q0-41 28.5-59.5T293 632t69.5 18.5T391 710h86q0-38-14.5-68.5T423 590t-58.5-32.5T293 546z"/><glyph glyph-name="Gdotaccent" unicode="Ġ" horiz-adv-x="744" d="M400-8q-75 0-141 28.5t-115.5 78-78 115.5T37 355t28.5 141 78 115.5 115.5 78T400 718q92 0 163.5-35T687 584l-121-99q-32 41-70.5 60T400 564q-43 0-80-16.5t-64-45-42.5-66.5-15.5-81 15.5-81 42.5-66.5 64-45 80-16.5q44 0 77.5 8t59.5 27v99H366l68 150h258V108q-53-60-127-88T400-8zm1 771q-36 0-61.5 25.5T314 850t25.5 61.5T401 937t61.5-25.5T488 850t-25.5-61.5T401 763z"/><glyph glyph-name="gdotaccent" unicode="ġ" horiz-adv-x="594" d="M290-194q-57 0-114 10.5T65-138L133-5q30-23 66.5-37T280-56q22 0 43 4t36.5 13.5 25 24.5 9.5 38q0 8-2.5 19.5T381 66q-22-18-51-28t-60-10q-57 0-101 20.5t-74 54T49.5 179 34 268t15.5 89T95 433.5t74 54T270 508q31 0 59.5-10t50.5-28v30h151V97q11-26 16-50.5T552-1q0-53-22.5-89.5T470-150t-84-33.5-96-10.5zm0 360q56 0 90 42v120q-34 42-90 42-25 0-44.5-9T213 338t-20-32.5-7-37.5 7-37.5 20-32.5 32.5-23 44.5-9zm3 394q-36 0-61.5 25.5T206 647t25.5 61.5T293 734t61.5-25.5T380 647t-25.5-61.5T293 560z"/><glyph glyph-name="uni0122" unicode="Ģ" horiz-adv-x="744" d="M400-8q-75 0-141 28.5t-115.5 78-78 115.5T37 355t28.5 141 78 115.5 115.5 78T400 718q92 0 163.5-35T687 584l-121-99q-32 41-70.5 60T400 564q-43 0-80-16.5t-64-45-42.5-66.5-15.5-81 15.5-81 42.5-66.5 64-45 80-16.5q44 0 77.5 8t59.5 27v99H366l68 150h258V108q-53-60-127-88T400-8zm-67-42h138l-85-218h-87z"/><glyph glyph-name="uni0123" unicode="ģ" horiz-adv-x="594" d="M290-194q-57 0-114 10.5T65-138L133-5q30-23 66.5-37T280-56q22 0 43 4t36.5 13.5 25 24.5 9.5 38q0 8-2.5 19.5T381 66q-22-18-51-28t-60-10q-57 0-101 20.5t-74 54T49.5 179 34 268t15.5 89T95 433.5t74 54T270 508q31 0 59.5-10t50.5-28v30h151V97q11-26 16-50.5T552-1q0-53-22.5-89.5T470-150t-84-33.5-96-10.5zm0 360q56 0 90 42v120q-34 42-90 42-25 0-44.5-9T213 338t-20-32.5-7-37.5 7-37.5 20-32.5 32.5-23 44.5-9zm78.008 375.997H230.017l84.994 217.986h86.995z"/><glyph glyph-name="Hcircumflex" unicode="Ĥ" horiz-adv-x="756" d="M76 710h160V432h284v278h160V0H520v278H236V0H76v710zm125 145 177 76 177-76-41-96-136 59-136-59z"/><glyph glyph-name="hcircumflex" unicode="ĥ" d="M60 710h151V469q47 39 115 39 53 0 93.5-17t68.5-47 42-72 14-93V0H393v252q0 50-21.5 84T301 370q-22 0-46.5-11T211 327V0H60v710zm68 145 177 76 177-76-41-96-136 59-136-59z"/><glyph glyph-name="Hbar" unicode="Ħ" horiz-adv-x="784" d="M23 625h67v85h160v-85h284v85h160v-85h67V517h-67V0H534v278H250V0H90v517H23v108zm511-193v85H250v-85h284z"/><glyph glyph-name="hbar" unicode="ħ" d="M60 562H-9v98h69v50h151v-50h129v-98H211v-93q47 39 115 39 53 0 93.5-17t68.5-47 42-72 14-93V0H393v252q0 50-21.5 84T301 370q-22 0-46.5-11T211 327V0H60v562z"/><glyph glyph-name="Itilde" unicode="Ĩ" horiz-adv-x="312" d="M76 710h160V0H76v710zm-107 96q4 28 15.5 49.5T12 892t35.5 22.5T86 922q22 0 40-6.5t33.5-14T188 888t24-6q17 0 27 9.5t16 32.5h96l-4-29q-4-28-15.5-49.5T304 809t-35.5-22.5T230 779q-22 0-40 6t-33.5 13.5-28.5 14-24 6.5q-17 0-27-9.5T61 777h-96z"/><glyph glyph-name="itilde" unicode="ĩ" horiz-adv-x="272" d="M60 500h152V0H60v500zm-112 83q4 28 15.5 49.5T-9 669t35.5 22.5T65 699q22 0 40-6.5t33.5-14T167 665t24-6q17 0 27 9.5t16 32.5h96l-4-29q-4-28-15.5-49.5T283 586t-35.5-22.5T209 556q-22 0-40 6t-33.5 13.5-28.5 14-24 6.5q-17 0-27-9.5T40 554h-96z"/><glyph glyph-name="Imacron" unicode="Ī" horiz-adv-x="312" d="M76 710h160V0H76v710zM-7 898h330v-96H-7v96z"/><glyph glyph-name="imacron" unicode="ī" horiz-adv-x="272" d="M60 500h152V0H60v500zm-88 175h330v-96H-28v96z"/><glyph glyph-name="Ibreve" unicode="Ĭ" horiz-adv-x="312" d="M76 710h160V0H76v710zm81 59q-38 0-71.5 14.5T27 823t-39.5 58.5T-27 953h86q0-41 28.5-69.5T157 855t69.5 28.5T255 953h86q0-38-14.5-71.5T287 823t-58.5-39.5T157 769z"/><glyph glyph-name="ibreve" unicode="ĭ" horiz-adv-x="272" d="M60 500h152V0H60v500zm77 46q-38 0-71.5 11.5T7 590t-39.5 51.5T-47 710h86q0-41 28.5-59.5T137 632t69.5 18.5T235 710h86q0-38-14.5-68.5T267 590t-58.5-32.5T137 546z"/><glyph glyph-name="Iogonek" unicode="Į" horiz-adv-x="312" d="M76 710h160V0h1q-32-14-46-25t-14-31q0-16 9.5-23t22.5-7q10 0 20.5 4.5T244-73v-87q-38-29-90-29-26 0-47.5 8.5t-37 23-24 34T37-82q0 25 10.5 46T76 0v710z"/><glyph glyph-name="iogonek" unicode="į" horiz-adv-x="271" d="M128-189q-22 0-41.5 8.5t-34 23-23 34T21-82q0 25 10.5 46T60 0v500h151V0q-32-15-44.5-28.5T154-56q0-13 8.5-21.5T184-86q10 0 16.5 4.5T211-73v-87q-16-16-37-22.5t-46-6.5zM66 571q-20 23-20 57 0 38 26 64t64 26 64-26 26-64q0-34-20-57H66z"/><glyph glyph-name="Idotaccent" unicode="İ" horiz-adv-x="312" d="M76 710h160V0H76v710zm82 53q-36 0-61.5 25.5T71 850t25.5 61.5T158 937t61.5-25.5T245 850t-25.5-61.5T158 763z"/><glyph glyph-name="dotlessi" unicode="ı" horiz-adv-x="272" d="M60 500h152V0H60v500z"/><glyph glyph-name="Jcircumflex" unicode="Ĵ" horiz-adv-x="527" d="M236-8q-45 0-85 12.5T81 44t-47.5 68.5T16 212h160q0-38 15.5-54.5T236 141t44.5 16.5T296 212v498h160V202q0-56-17.5-95.5t-47.5-65T321 4 236-8zm-37 863 177 76 177-76-41-96-136 59-136-59z"/><glyph glyph-name="jcircumflex" unicode="ĵ" horiz-adv-x="280" d="M-36-41h25q36 0 57.5 12T68 19v481h152V0q0-46-16-80.5T159-138t-70-34.5T-1-184h-35v143zm3 678 178 91 178-91-48-91-130 62-130-62z"/><glyph glyph-name="uni0136" unicode="Ķ" horiz-adv-x="685" d="M76 710h160V354l248 356h184L419 352 700 0H502L236 333V0H76v710zM289-50h138l-85-218h-87z"/><glyph glyph-name="uni0137" unicode="ķ" horiz-adv-x="564" d="M60 710h151V272l163 228h174L378 263 574 0H396L211 249V0H60v710zM238-50h138l-85-218h-87z"/><glyph glyph-name="Lacute" unicode="Ĺ" horiz-adv-x="533" d="M172 923h166L212 778H102zM76 710h160V159h276V0H76v710z"/><glyph glyph-name="lacute" unicode="ĺ" horiz-adv-x="271" d="M60 710h151V0H60v710zm69 213h166L169 778H59z"/><glyph glyph-name="uni013B" unicode="Ļ" horiz-adv-x="533" d="M76 710h160V159h276V0H76v710zM209-50h138l-85-218h-87z"/><glyph glyph-name="uni013C" unicode="ļ" horiz-adv-x="271" d="M60 710h151V0H60v710zm8-760h138l-85-218H34z"/><glyph glyph-name="Lcaron" unicode="Ľ" horiz-adv-x="536" d="M76 710h160V159h276V0H76v710zm313-160H287l20 160h151z"/><glyph glyph-name="lcaron" unicode="ľ" horiz-adv-x="295" d="M60 710h151V0H60v710zm283-160H241l20 160h151z"/><glyph glyph-name="Ldot" unicode="Ŀ" horiz-adv-x="545" d="M76 710h160V159h276V0H76v710zm340-351q-36 0-61.5 25.5T329 446t25.5 61.5T416 533t61.5-25.5T503 446t-25.5-61.5T416 359z"/><glyph glyph-name="ldot" unicode="ŀ" horiz-adv-x="415" d="M343 289q-36 0-61.5 25.5T256 376t25.5 61.5T343 463t61.5-25.5T430 376t-25.5-61.5T343 289zM60 710h151V0H60v710z"/><glyph glyph-name="Lslash" unicode="Ł" horiz-adv-x="605" d="m17 299 131 75v336h160V465l106 61 65-114-171-98V159h276V0H148v222l-66-37z"/><glyph glyph-name="lslash" unicode="ł" horiz-adv-x="405" d="m3 304 123 70v336h151V460l72 41 56-98-128-73V0H126v244l-67-38z"/><glyph glyph-name="Nacute" unicode="Ń" horiz-adv-x="760" d="M236 371V0H76v718l448-379v371h160V-8zm129 552h166L405 778H295z"/><glyph glyph-name="nacute" unicode="ń" d="M60 500h151v-31q47 39 115 39 53 0 93.5-17t68.5-47 42-72 14-93V0H393v252q0 50-21.5 84T301 370q-22 0-46.5-11T211 327V0H60v500zm238 210h173L328 555H218z"/><glyph glyph-name="uni0145" unicode="Ņ" horiz-adv-x="760" d="M236 371V0H76v718l448-379v371h160V-8zM357-50h138l-85-218h-87z"/><glyph glyph-name="uni0146" unicode="ņ" d="M60 500h151v-31q47 39 115 39 53 0 93.5-17t68.5-47 42-72 14-93V0H393v252q0 50-21.5 84T301 370q-22 0-46.5-11T211 327V0H60v500zM233-50h138l-85-218h-87z"/><glyph glyph-name="Ncaron" unicode="Ň" horiz-adv-x="760" d="M236 371V0H76v718l448-379v371h160V-8zm-32 464 41 96 136-59 136 59 41-96-177-76z"/><glyph glyph-name="ncaron" unicode="ň" d="M60 500h151v-31q47 39 115 39 53 0 93.5-17t68.5-47 42-72 14-93V0H393v252q0 50-21.5 84T301 370q-22 0-46.5-11T211 327V0H60v500zm119 228 130-62 130 62 48-91-178-91-178 91z"/><glyph glyph-name="Omacron" unicode="Ō" horiz-adv-x="800" d="M400 146q43 0 80 16.5t64 45 42.5 66.5 15.5 81-15.5 81-42.5 66.5-64 45-80 16.5-80-16.5-64-45-42.5-66.5-15.5-81 15.5-81 42.5-66.5 64-45 80-16.5zm0-154q-75 0-141 28.5t-115.5 78-78 115.5T37 355t28.5 141 78 115.5 115.5 78T400 718t141-28.5 115.5-78 78-115.5T763 355t-28.5-141-78-115.5-115.5-78T400-8zM235 898h330v-96H235v96z"/><glyph glyph-name="omacron" unicode="ō" horiz-adv-x="584" d="M292 133q47 0 77.5 32.5T400 250t-30.5 84.5T292 367t-77.5-32.5T184 250t30.5-84.5T292 133zm0-141q-54 0-101.5 20.5T108 68t-55.5 82T32 250t20.5 100 55.5 82 82.5 55.5T292 508t101.5-20.5T476 432t55.5-82T552 250t-20.5-100T476 68t-82.5-55.5T292-8zM127 675h330v-96H127v96z"/><glyph glyph-name="Obreve" unicode="Ŏ" horiz-adv-x="800" d="M400 146q43 0 80 16.5t64 45 42.5 66.5 15.5 81-15.5 81-42.5 66.5-64 45-80 16.5-80-16.5-64-45-42.5-66.5-15.5-81 15.5-81 42.5-66.5 64-45 80-16.5zm0-154q-75 0-141 28.5t-115.5 78-78 115.5T37 355t28.5 141 78 115.5 115.5 78T400 718t141-28.5 115.5-78 78-115.5T763 355t-28.5-141-78-115.5-115.5-78T400-8zm0 777q-38 0-71.5 14.5T270 823t-39.5 58.5T216 953h86q0-41 28.5-69.5T400 855t69.5 28.5T498 953h86q0-38-14.5-71.5T530 823t-58.5-39.5T400 769z"/><glyph glyph-name="obreve" unicode="ŏ" horiz-adv-x="584" d="M292 133q47 0 77.5 32.5T400 250t-30.5 84.5T292 367t-77.5-32.5T184 250t30.5-84.5T292 133zm0-141q-54 0-101.5 20.5T108 68t-55.5 82T32 250t20.5 100 55.5 82 82.5 55.5T292 508t101.5-20.5T476 432t55.5-82T552 250t-20.5-100T476 68t-82.5-55.5T292-8zm0 554q-38 0-71.5 11.5T162 590t-39.5 51.5T108 710h86q0-41 28.5-59.5T292 632t69.5 18.5T390 710h86q0-38-14.5-68.5T422 590t-58.5-32.5T292 546z"/><glyph glyph-name="Ohungarumlaut" unicode="Ő" horiz-adv-x="800" d="M400 146q43 0 80 16.5t64 45 42.5 66.5 15.5 81-15.5 81-42.5 66.5-64 45-80 16.5-80-16.5-64-45-42.5-66.5-15.5-81 15.5-81 42.5-66.5 64-45 80-16.5zm0-154q-75 0-141 28.5t-115.5 78-78 115.5T37 355t28.5 141 78 115.5 115.5 78T400 718t141-28.5 115.5-78 78-115.5T763 355t-28.5-141-78-115.5-115.5-78T400-8zm-89 931h148L334 778h-93zm201 0h148L535 778h-93z"/><glyph glyph-name="ohungarumlaut" unicode="ő" horiz-adv-x="584" d="M292 133q47 0 77.5 32.5T400 250t-30.5 84.5T292 367t-77.5-32.5T184 250t30.5-84.5T292 133zm0-141q-54 0-101.5 20.5T108 68t-55.5 82T32 250t20.5 100 55.5 82 82.5 55.5T292 508t101.5-20.5T476 432t55.5-82T552 250t-20.5-100T476 68t-82.5-55.5T292-8zm-75 718h143L217 555h-80zm192 0h143L409 555h-80z"/><glyph glyph-name="OE" unicode="Œ" horiz-adv-x="1027" d="M976 710V552H704q36-54 50-120h179V278H754q-13-65-50-120h273V0H536v18Q472-8 400-8q-75 0-141 28.5t-115.5 78-78 115.5T37 355t28.5 141 78 115.5 115.5 78T400 718q36 0 70-7t66-20v19h440zM400 146q43 0 80 16.5t64 45 42.5 66.5 15.5 81-15.5 81-42.5 66.5-64 45-80 16.5-80-16.5-64-45-42.5-66.5-15.5-81 15.5-81 42.5-66.5 64-45 80-16.5z"/><glyph glyph-name="oe" unicode="œ" horiz-adv-x="932" d="M292-8q-54 0-101.5 20.5T108 68t-55.5 82T32 250t20.5 100 55.5 82 82.5 55.5T292 508q53 0 99-19.5t81-53.5q34 35 81 54t105 19q48 0 91.5-15.5t76.5-46 53-75.5 20-104q0-22-3-44H545q3-25 14-42.5t26.5-29T619 135t35-5q40 0 66 17.5t41 45.5l120-81q-35-54-93-87T655-8q-51 0-98 19.5T475 66q-35-35-82-54.5T292-8zm0 141q47 0 77.5 32.5T400 250t-30.5 84.5T292 367t-77.5-32.5T184 250t30.5-84.5T292 133zm357 254q-14 0-29.5-3.5t-30-12T563 348t-17-37h204q-6 40-35 58t-66 18z"/><glyph glyph-name="Racute" unicode="Ŕ" horiz-adv-x="644" d="M238 288h-2V0H76v710h268q43 0 81.5-16.5T493 648t45.5-67.5T555 499q0-67-37.5-120.5T418 301L649 0H458zm88 135q32 0 53 20.5t21 49.5-21 50-53 21h-90V423h90zm-25 500h166L341 778H231z"/><glyph glyph-name="racute" unicode="ŕ" horiz-adv-x="398" d="M60 500h151v-44q43 52 114 52 12 0 26-1.5t28-6.5V343q-17 9-37 13t-40 4q-23 0-48-8.5T211 327V0H60v500zm155 210h173L245 555H135z"/><glyph glyph-name="uni0156" unicode="Ŗ" horiz-adv-x="644" d="M238 288h-2V0H76v710h268q43 0 81.5-16.5T493 648t45.5-67.5T555 499q0-67-37.5-120.5T418 301L649 0H458zm88 135q32 0 53 20.5t21 49.5-21 50-53 21h-90V423h90zM271-50h138l-85-218h-87z"/><glyph glyph-name="uni0157" unicode="ŗ" horiz-adv-x="398" d="M60 500h151v-44q43 52 114 52 12 0 26-1.5t28-6.5V343q-17 9-37 13t-40 4q-23 0-48-8.5T211 327V0H60v500zm6-550h138l-85-218H32z"/><glyph glyph-name="Rcaron" unicode="Ř" horiz-adv-x="644" d="M238 288h-2V0H76v710h268q43 0 81.5-16.5T493 648t45.5-67.5T555 499q0-67-37.5-120.5T418 301L649 0H458zm88 135q32 0 53 20.5t21 49.5-21 50-53 21h-90V423h90zM113 835l41 96 136-59 136 59 41-96-177-76z"/><glyph glyph-name="rcaron" unicode="ř" horiz-adv-x="398" d="M60 500h151v-44q43 52 114 52 12 0 26-1.5t28-6.5V343q-17 9-37 13t-40 4q-23 0-48-8.5T211 327V0H60v500zm31 228 130-62 130 62 48-91-178-91-178 91z"/><glyph glyph-name="Sacute" unicode="Ś" horiz-adv-x="542" d="M282-8q-86 0-152 35T27 131l121 99q23-37 58.5-62.5T279 142q68 0 68 51 0 24-19 41.5T264 272l-40 18q-81 36-123.5 93.5T58 513q0 46 18 84t48 65 69 41.5 81 14.5q59 0 106.5-18.5T473 629L365 515q-27 33-46.5 43T274 568q-20 0-37.5-12.5T219 519q0-28 23.5-46t72.5-40l38-17q74-33 114.5-86T508 203q0-48-17-87t-47-66.5T372.5 7 282-8zm-5 931h166L317 778H207z"/><glyph glyph-name="sacute" unicode="ś" horiz-adv-x="439" d="M226-8q-66 0-117.5 24.5T25 98l115 78q15-27 36.5-44t55.5-17q16 0 27.5 4.5T271 138t-13 22-50 22l-26 10Q50 244 50 353q0 34 13.5 63t36.5 49 54.5 31.5T222 508q48 0 88.5-18.5T380 429l-86-85q-14 20-31.5 32.5T222 389q-15 0-25.5-5.5T186 366q0-15 14-23t52-22l21-8q72-27 103-66.5t31-95.5q0-38-14-68t-38.5-50T297 2.5 226-8zm8 718h173L264 555H154z"/><glyph glyph-name="Scircumflex" unicode="Ŝ" horiz-adv-x="542" d="M282-8q-86 0-152 35T27 131l121 99q23-37 58.5-62.5T279 142q68 0 68 51 0 24-19 41.5T264 272l-40 18q-81 36-123.5 93.5T58 513q0 46 18 84t48 65 69 41.5 81 14.5q59 0 106.5-18.5T473 629L365 515q-27 33-46.5 43T274 568q-20 0-37.5-12.5T219 519q0-28 23.5-46t72.5-40l38-17q74-33 114.5-86T508 203q0-48-17-87t-47-66.5T372.5 7 282-8zM98 855l177 76 177-76-41-96-136 59-136-59z"/><glyph glyph-name="scircumflex" unicode="ŝ" horiz-adv-x="439" d="M226-8q-66 0-117.5 24.5T25 98l115 78q15-27 36.5-44t55.5-17q16 0 27.5 4.5T271 138t-13 22-50 22l-26 10Q50 244 50 353q0 34 13.5 63t36.5 49 54.5 31.5T222 508q48 0 88.5-18.5T380 429l-86-85q-14 20-31.5 32.5T222 389q-15 0-25.5-5.5T186 366q0-15 14-23t52-22l21-8q72-27 103-66.5t31-95.5q0-38-14-68t-38.5-50T297 2.5 226-8zM39 637l178 91 178-91-48-91-130 62-130-62z"/><glyph glyph-name="Scedilla" unicode="Ş" horiz-adv-x="542" d="M222-3Q157 7 107 40.5T27 131l121 99q23-37 58.5-62.5T279 142q68 0 68 51 0 24-19 41.5T264 272l-40 18q-81 36-123.5 93.5T58 513q0 46 18 84t48 65 69 41.5 81 14.5q59 0 106.5-18.5T473 629L365 515q-27 33-46.5 43T274 568q-20 0-37.5-12.5T219 519q0-28 23.5-46t72.5-40l38-17q74-33 114.5-86T508 203q0-86-50.5-141T325-5l-33-129H165z"/><glyph glyph-name="scedilla" unicode="ş" horiz-adv-x="439" d="M173-3q-48 8-85 32T25 98l115 78q15-27 36.5-44t55.5-17q16 0 27.5 4.5T271 138t-13 22-50 22l-26 10Q50 244 50 353q0 34 13.5 63t36.5 49 54.5 31.5T222 508q48 0 88.5-18.5T380 429l-86-85q-14 20-31.5 32.5T222 389q-15 0-25.5-5.5T186 366q0-15 14-23t52-22l21-8q72-27 103-66.5t31-95.5q0-64-37-103T276-3l-33-131H116z"/><glyph glyph-name="Scaron" unicode="Š" horiz-adv-x="542" d="M282-8q-86 0-152 35T27 131l121 99q23-37 58.5-62.5T279 142q68 0 68 51 0 24-19 41.5T264 272l-40 18q-81 36-123.5 93.5T58 513q0 46 18 84t48 65 69 41.5 81 14.5q59 0 106.5-18.5T473 629L365 515q-27 33-46.5 43T274 568q-20 0-37.5-12.5T219 519q0-28 23.5-46t72.5-40l38-17q74-33 114.5-86T508 203q0-48-17-87t-47-66.5T372.5 7 282-8zM98 835l41 96 136-59 136 59 41-96-177-76z"/><glyph glyph-name="scaron" unicode="š" horiz-adv-x="439" d="M226-8q-66 0-117.5 24.5T25 98l115 78q15-27 36.5-44t55.5-17q16 0 27.5 4.5T271 138t-13 22-50 22l-26 10Q50 244 50 353q0 34 13.5 63t36.5 49 54.5 31.5T222 508q48 0 88.5-18.5T380 429l-86-85q-14 20-31.5 32.5T222 389q-15 0-25.5-5.5T186 366q0-15 14-23t52-22l21-8q72-27 103-66.5t31-95.5q0-38-14-68t-38.5-50T297 2.5 226-8zM94 728l130-62 130 62 48-91-178-91-178 91z"/><glyph glyph-name="uni0162" unicode="Ţ" horiz-adv-x="543" d="M191 552H21v158h501V552H351V0H191v552zm12-602h138l-85-218h-87z"/><glyph glyph-name="uni0163" unicode="ţ" horiz-adv-x="430" d="M8 500h98v75l151 75V500h158l-33-132H257V197q0-32 13.5-45.5T315 138h82V0H259q-71 0-112 41t-41 113v214H41zM181-50h138l-85-218h-87z"/><glyph glyph-name="Tcaron" unicode="Ť" horiz-adv-x="543" d="M191 552H21v158h501V552H351V0H191v552zM94 835l41 96 136-59 136 59 41-96-177-76z"/><glyph glyph-name="tcaron" unicode="ť" horiz-adv-x="430" d="M8 500h98v75l151 75V500h158l-33-132H257V197q0-32 13.5-45.5T315 138h82V0H259q-71 0-112 41t-41 113v214H41zm402 50H308l20 160h151z"/><glyph glyph-name="Utilde" unicode="Ũ" horiz-adv-x="718" d="M359-8q-64 0-117.5 21t-92 60-60 93.5T68 288v422h160V286q0-65 36-102.5t95-37.5 95 37.5T490 286v424h160V288q0-67-21.5-121.5t-60-93.5-92-60T359-8zM170 806q4 28 15.5 49.5T213 892t35.5 22.5T287 922q22 0 40-6.5t33.5-14T389 888t24-6q17 0 27 9.5t16 32.5h96l-4-29q-4-28-15.5-49.5T505 809t-35.5-22.5T431 779q-22 0-40 6t-33.5 13.5-28.5 14-24 6.5q-17 0-27-9.5T262 777h-96z"/><glyph glyph-name="utilde" unicode="ũ" d="M387 37q-23-22-55-33.5T268-8q-51 0-90.5 16.5t-67 47-42 72.5T54 221v279h151V248q0-51 21.5-84.5T293 130q28 0 53.5 13t40.5 37v320h151V0H387v37zM117 583q4 28 15.5 49.5T160 669t35.5 22.5T234 699q22 0 40-6.5t33.5-14T336 665t24-6q17 0 27 9.5t16 32.5h96l-4-29q-4-28-15.5-49.5T452 586t-35.5-22.5T378 556q-22 0-40 6t-33.5 13.5-28.5 14-24 6.5q-17 0-27-9.5T209 554h-96z"/><glyph glyph-name="Umacron" unicode="Ū" horiz-adv-x="718" d="M359-8q-64 0-117.5 21t-92 60-60 93.5T68 288v422h160V286q0-65 36-102.5t95-37.5 95 37.5T490 286v424h160V288q0-67-21.5-121.5t-60-93.5-92-60T359-8zM194 898h330v-96H194v96z"/><glyph glyph-name="umacron" unicode="ū" d="M387 37q-23-22-55-33.5T268-8q-51 0-90.5 16.5t-67 47-42 72.5T54 221v279h151V248q0-51 21.5-84.5T293 130q28 0 53.5 13t40.5 37v320h151V0H387v37zM131 675h330v-96H131v96z"/><glyph glyph-name="Ubreve" unicode="Ŭ" horiz-adv-x="718" d="M359-8q-64 0-117.5 21t-92 60-60 93.5T68 288v422h160V286q0-65 36-102.5t95-37.5 95 37.5T490 286v424h160V288q0-67-21.5-121.5t-60-93.5-92-60T359-8zm0 777q-38 0-71.5 14.5T229 823t-39.5 58.5T175 953h86q0-41 28.5-69.5T359 855t69.5 28.5T457 953h86q0-38-14.5-71.5T489 823t-58.5-39.5T359 769z"/><glyph glyph-name="ubreve" unicode="ŭ" d="M387 37q-23-22-55-33.5T268-8q-51 0-90.5 16.5t-67 47-42 72.5T54 221v279h151V248q0-51 21.5-84.5T293 130q28 0 53.5 13t40.5 37v320h151V0H387v37zm-91 509q-38 0-71.5 11.5T166 590t-39.5 51.5T112 710h86q0-41 28.5-59.5T296 632t69.5 18.5T394 710h86q0-38-14.5-68.5T426 590t-58.5-32.5T296 546z"/><glyph glyph-name="Uring" unicode="Ů" horiz-adv-x="718" d="M359-8q-64 0-117.5 21t-92 60-60 93.5T68 288v422h160V286q0-65 36-102.5t95-37.5 95 37.5T490 286v424h160V288q0-67-21.5-121.5t-60-93.5-92-60T359-8zm0 840q20 0 33.5 13.5T406 879t-13.5 33.5T359 926t-33.5-13.5T312 879t13.5-33.5T359 832zm0-73q-25 0-46.5 9.5t-38 26-26 38T239 879t9.5 46.5 26 38 38 26T359 999t46.5-9.5 38-26 26-38T479 879t-9.5-46.5-26-38-38-26T359 759z"/><glyph glyph-name="uring" unicode="ů" d="M387 37q-23-22-55-33.5T268-8q-51 0-90.5 16.5t-67 47-42 72.5T54 221v279h151V248q0-51 21.5-84.5T293 130q28 0 53.5 13t40.5 37v320h151V0H387v37zm-91 582q20 0 33.5 13.5T343 666t-13.5 33.5T296 713t-33.5-13.5T249 666t13.5-33.5T296 619zm0-73q-25 0-46.5 9.5t-38 26-26 38T176 666t9.5 46.5 26 38 38 26T296 786t46.5-9.5 38-26 26-38T416 666t-9.5-46.5-26-38-38-26T296 546z"/><glyph glyph-name="Uhungarumlaut" unicode="Ű" horiz-adv-x="718" d="M359-8q-64 0-117.5 21t-92 60-60 93.5T68 288v422h160V286q0-65 36-102.5t95-37.5 95 37.5T490 286v424h160V288q0-67-21.5-121.5t-60-93.5-92-60T359-8zm-79 931h148L303 778h-93zm201 0h148L504 778h-93z"/><glyph glyph-name="uhungarumlaut" unicode="ű" d="M387 37q-23-22-55-33.5T268-8q-51 0-90.5 16.5t-67 47-42 72.5T54 221v279h151V248q0-51 21.5-84.5T293 130q28 0 53.5 13t40.5 37v320h151V0H387v37zM229 710h143L229 555h-80zm192 0h143L421 555h-80z"/><glyph glyph-name="Uogonek" unicode="Ų" horiz-adv-x="718" d="M373-189q-26 0-47.5 8.5t-37 23-24 34T256-82q0 24 10 45t27 36q-51 10-92.5 34.5t-71 62-45.5 86T68 288v422h160V286q0-65 36-102.5t95-37.5 95 37.5T490 286v424h160V288q0-54-14-100t-40.5-82.5-63-62.5T451 4q-26-13-40.5-27.5T396-56q0-16 9.5-23t22.5-7q10 0 20.5 4.5T463-73v-87q-38-29-90-29z"/><glyph glyph-name="uogonek" unicode="ų" d="M455-189q-22 0-41.5 8.5t-34 23-23 34T348-82q0 25 10.5 46T387 0v37q-23-22-55-33.5T268-8q-51 0-90.5 16.5t-67 47-42 72.5T54 221v279h151V248q0-51 21.5-84.5T293 130q28 0 53.5 13t40.5 37v320h151V0q-32-15-44.5-28.5T481-56q0-13 8.5-21.5T511-86q10 0 16.5 4.5T538-73v-87q-16-16-37-22.5t-46-6.5z"/><glyph glyph-name="Wcircumflex" unicode="Ŵ" horiz-adv-x="860" d="M-3 710h163l110-333 160 341 160-341 110 333h163L617-8 430 401 243-8zm256 145 177 76 177-76-41-96-136 59-136-59z"/><glyph glyph-name="wcircumflex" unicode="ŵ" horiz-adv-x="734" d="M2 500h159l83-281 123 289 123-289 83 281h159L573 0H458l-91 205L276 0H161zm187 137 178 91 178-91-48-91-130 62-130-62z"/><glyph glyph-name="Ycircumflex" unicode="Ŷ" horiz-adv-x="682" d="M261 298-2 710h187l156-252 156 252h187L421 298V0H261v298zm-97 557 177 76 177-76-41-96-136 59-136-59z"/><glyph glyph-name="ycircumflex" unicode="ŷ" horiz-adv-x="528" d="M185 0 1 500h160l104-316 104 316h160L277-184H117zM87 637l178 91 178-91-48-91-130 62-130-62z"/><glyph glyph-name="Ydieresis" unicode="Ÿ" horiz-adv-x="682" d="M261 298-2 710h187l156-252 156 252h187L421 298V0H261v298zm-39 472q-33 0-56.5 23.5T142 850t23.5 56.5T222 930t56.5-23.5T302 850t-23.5-56.5T222 770zm238 0q-33 0-56.5 23.5T380 850t23.5 56.5T460 930t56.5-23.5T540 850t-23.5-56.5T460 770z"/><glyph glyph-name="Zacute" unicode="Ź" horiz-adv-x="627" d="M336 552H49v158h560L280 158h308V0H7zm-23 371h166L353 778H243z"/><glyph glyph-name="zacute" unicode="ź" horiz-adv-x="518" d="M245 370H43v130h454L266 131h216V0H13zm19 340h173L294 555H184z"/><glyph glyph-name="Zdotaccent" unicode="Ż" horiz-adv-x="627" d="M336 552H49v158h560L280 158h308V0H7zm-8 211q-36 0-61.5 25.5T241 850t25.5 61.5T328 937t61.5-25.5T415 850t-25.5-61.5T328 763z"/><glyph glyph-name="zdotaccent" unicode="ż" horiz-adv-x="518" d="M245 370H43v130h454L266 131h216V0H13zm24 190q-36 0-61.5 25.5T182 647t25.5 61.5T269 734t61.5-25.5T356 647t-25.5-61.5T269 560z"/><glyph glyph-name="Zcaron" unicode="Ž" horiz-adv-x="627" d="M336 552H49v158h560L280 158h308V0H7zM152 835l41 96 136-59 136 59 41-96-177-76z"/><glyph glyph-name="zcaron" unicode="ž" horiz-adv-x="518" d="M245 370H43v130h454L266 131h216V0H13zM140 728l130-62 130 62 48-91-178-91-178 91z"/><glyph glyph-name="uni0218" unicode="Ș" horiz-adv-x="542" d="M282-8q-86 0-152 35T27 131l121 99q23-37 58.5-62.5T279 142q68 0 68 51 0 24-19 41.5T264 272l-40 18q-81 36-123.5 93.5T58 513q0 46 18 84t48 65 69 41.5 81 14.5q59 0 106.5-18.5T473 629L365 515q-27 33-46.5 43T274 568q-20 0-37.5-12.5T219 519q0-28 23.5-46t72.5-40l38-17q74-33 114.5-86T508 203q0-48-17-87t-47-66.5T372.5 7 282-8zm-76-42h138l-85-218h-87z"/><glyph glyph-name="uni0219" unicode="ș" horiz-adv-x="439" d="M226-8q-66 0-117.5 24.5T25 98l115 78q15-27 36.5-44t55.5-17q16 0 27.5 4.5T271 138t-13 22-50 22l-26 10Q50 244 50 353q0 34 13.5 63t36.5 49 54.5 31.5T222 508q48 0 88.5-18.5T380 429l-86-85q-14 20-31.5 32.5T222 389q-15 0-25.5-5.5T186 366q0-15 14-23t52-22l21-8q72-27 103-66.5t31-95.5q0-38-14-68t-38.5-50T297 2.5 226-8zm-79-42h138l-85-218h-87z"/><glyph glyph-name="uni021A" unicode="Ț" horiz-adv-x="543" d="M191 552H21v158h501V552H351V0H191v552zm12-602h138l-85-218h-87z"/><glyph glyph-name="uni021B" unicode="ț" horiz-adv-x="430" d="M8 500h98v75l151 75V500h158l-33-132H257V197q0-32 13.5-45.5T315 138h82V0H259q-71 0-112 41t-41 113v214H41zM181-50h138l-85-218h-87z"/><glyph glyph-name="uni0232" unicode="Ȳ" horiz-adv-x="682" d="M261 298-2 710h187l156-252 156 252h187L421 298V0H261v298zm-85 600h330v-96H176v96z"/><glyph glyph-name="uni0233" unicode="ȳ" horiz-adv-x="528" d="M185 0 1 500h160l104-316 104 316h160L277-184H117zm-85 675h330v-96H100v96z"/><glyph glyph-name="uni0237" unicode="ȷ" horiz-adv-x="280" d="M-36-41h25q36 0 57.5 12T68 19v481h152V0q0-46-16-80.5T159-138t-70-34.5T-1-184h-35v143z"/><glyph glyph-name="circumflex" unicode="ˆ" horiz-adv-x="512" d="m78 637 178 91 178-91-48-91-130 62-130-62z"/><glyph glyph-name="caron" unicode="ˇ" horiz-adv-x="516" d="m128 728 130-62 130 62 48-91-178-91-178 91z"/><glyph glyph-name="breve" unicode="˘" horiz-adv-x="494" d="M247 546q-38 0-71.5 11.5T117 590t-39.5 51.5T63 710h86q0-41 28.5-59.5T247 632t69.5 18.5T345 710h86q0-38-14.5-68.5T377 590t-58.5-32.5T247 546z"/><glyph glyph-name="dotaccent" unicode="˙" horiz-adv-x="324" d="M162 560q-36 0-61.5 25.5T75 647t25.5 61.5T162 734t61.5-25.5T249 647t-25.5-61.5T162 560z"/><glyph glyph-name="ring" unicode="˚" horiz-adv-x="380" d="M190 619q20 0 33.5 13.5T237 666t-13.5 33.5T190 713t-33.5-13.5T143 666t13.5-33.5T190 619zm0-73q-25 0-46.5 9.5t-38 26-26 38T70 666t9.5 46.5 26 38 38 26T190 786t46.5-9.5 38-26 26-38T310 666t-9.5-46.5-26-38-38-26T190 546z"/><glyph glyph-name="ogonek" unicode="˛" horiz-adv-x="352" d="M187-189q-22 0-41.5 8.5t-34 23-23 34T80-82q0 25 10.5 46T119 0h151q-32-15-44.5-28.5T213-56q0-13 8.5-21.5T243-86q10 0 16.5 4.5T270-73v-87q-16-16-37-22.5t-46-6.5z"/><glyph glyph-name="tilde" unicode="˜" horiz-adv-x="550" d="M86 583q4 28 15.5 49.5T129 669t35.5 22.5T203 699q22 0 40-6.5t33.5-14T305 665t24-6q17 0 27 9.5t16 32.5h96l-4-29q-4-28-15.5-49.5T421 586t-35.5-22.5T347 556q-22 0-40 6t-33.5 13.5-28.5 14-24 6.5q-17 0-27-9.5T178 554H82z"/><glyph glyph-name="hungarumlaut" unicode="˝" horiz-adv-x="595" d="M180 710h143L180 555h-80zm192 0h143L372 555h-80z"/><glyph glyph-name="Wgrave" unicode="Ẁ" horiz-adv-x="860" d="M-3 710h163l110-333 160 341 160-341 110 333h163L617-8 430 401 243-8zm252 213h166l70-145H375z"/><glyph glyph-name="wgrave" unicode="ẁ" horiz-adv-x="734" d="M2 500h159l83-281 123 289 123-289 83 281h159L573 0H458l-91 205L276 0H161zm167 210h173l80-155H312z"/><glyph glyph-name="Wacute" unicode="Ẃ" horiz-adv-x="860" d="M-3 710h163l110-333 160 341 160-341 110 333h163L617-8 430 401 243-8zm447 213h166L484 778H374z"/><glyph glyph-name="wacute" unicode="ẃ" horiz-adv-x="734" d="M2 500h159l83-281 123 289 123-289 83 281h159L573 0H458l-91 205L276 0H161zm390 210h173L422 555H312z"/><glyph glyph-name="Wdieresis" unicode="Ẅ" horiz-adv-x="860" d="M-3 710h163l110-333 160 341 160-341 110 333h163L617-8 430 401 243-8zm314 60q-33 0-56.5 23.5T231 850t23.5 56.5T311 930t56.5-23.5T391 850t-23.5-56.5T311 770zm238 0q-33 0-56.5 23.5T469 850t23.5 56.5T549 930t56.5-23.5T629 850t-23.5-56.5T549 770z"/><glyph glyph-name="wdieresis" unicode="ẅ" horiz-adv-x="734" d="M2 500h159l83-281 123 289 123-289 83 281h159L573 0H458l-91 205L276 0H161zm246 67q-33 0-56.5 23.5T168 647t23.5 56.5T248 727t56.5-23.5T328 647t-23.5-56.5T248 567zm238 0q-33 0-56.5 23.5T406 647t23.5 56.5T486 727t56.5-23.5T566 647t-23.5-56.5T486 567z"/><glyph glyph-name="uni1ECA" unicode="Ị" horiz-adv-x="312" d="M76 710h160V0H76v710zm82-924q-36 0-61.5 25.5T71-127t25.5 61.5T158-40t61.5-25.5T245-127t-25.5-61.5T158-214z"/><glyph glyph-name="uni1ECB" unicode="ị" horiz-adv-x="271" d="M66 571q-20 23-20 57 0 38 26 64t64 26 64-26 26-64q0-34-20-57H66zm-6-71h151V0H60v500zm77-714q-36 0-61.5 25.5T50-127t25.5 61.5T137-40t61.5-25.5T224-127t-25.5-61.5T137-214z"/><glyph glyph-name="uni1ECC" unicode="Ọ" horiz-adv-x="800" d="M400 146q43 0 80 16.5t64 45 42.5 66.5 15.5 81-15.5 81-42.5 66.5-64 45-80 16.5-80-16.5-64-45-42.5-66.5-15.5-81 15.5-81 42.5-66.5 64-45 80-16.5zm0-154q-75 0-141 28.5t-115.5 78-78 115.5T37 355t28.5 141 78 115.5 115.5 78T400 718t141-28.5 115.5-78 78-115.5T763 355t-28.5-141-78-115.5-115.5-78T400-8zm0-206q-36 0-61.5 25.5T313-127t25.5 61.5T400-40t61.5-25.5T487-127t-25.5-61.5T400-214z"/><glyph glyph-name="uni1ECD" unicode="ọ" horiz-adv-x="584" d="M292 133q47 0 77.5 32.5T400 250t-30.5 84.5T292 367t-77.5-32.5T184 250t30.5-84.5T292 133zm0-141q-54 0-101.5 20.5T108 68t-55.5 82T32 250t20.5 100 55.5 82 82.5 55.5T292 508t101.5-20.5T476 432t55.5-82T552 250t-20.5-100T476 68t-82.5-55.5T292-8zm0-206q-36 0-61.5 25.5T205-127t25.5 61.5T292-40t61.5-25.5T379-127t-25.5-61.5T292-214z"/><glyph glyph-name="uni1EE4" unicode="Ụ" horiz-adv-x="718" d="M359-8q-64 0-117.5 21t-92 60-60 93.5T68 288v422h160V286q0-65 36-102.5t95-37.5 95 37.5T490 286v424h160V288q0-67-21.5-121.5t-60-93.5-92-60T359-8zm0-206q-36 0-61.5 25.5T272-127t25.5 61.5T359-40t61.5-25.5T446-127t-25.5-61.5T359-214z"/><glyph glyph-name="uni1EE5" unicode="ụ" d="M387 37q-23-22-55-33.5T268-8q-51 0-90.5 16.5t-67 47-42 72.5T54 221v279h151V248q0-51 21.5-84.5T293 130q28 0 53.5 13t40.5 37v320h151V0H387v37zm-91-251q-36 0-61.5 25.5T209-127t25.5 61.5T296-40t61.5-25.5T383-127t-25.5-61.5T296-214z"/><glyph glyph-name="Ygrave" unicode="Ỳ" horiz-adv-x="682" d="M179 923h166l70-145H305zm82-625L-2 710h187l156-252 156 252h187L421 298V0H261v298z"/><glyph glyph-name="ygrave" unicode="ỳ" horiz-adv-x="528" d="M185 0 1 500h160l104-316 104 316h160L277-184H117zM98 710h173l80-155H241z"/><glyph glyph-name="endash" unicode="–" horiz-adv-x="596" d="M56 354h484V210H56v144z"/><glyph glyph-name="emdash" unicode="—" horiz-adv-x="889" d="M56 354h777V210H56v144z"/><glyph glyph-name="quoteleft" unicode="‘" horiz-adv-x="275" d="M157 556h67V382H50v174l64 154h87z"/><glyph glyph-name="quoteright" unicode="’" horiz-adv-x="264" d="M115 536H48v174h174V536l-64-154H71z"/><glyph glyph-name="quotesinglbase" unicode="‚" horiz-adv-x="288" d="M124 0H57v174h174V0l-64-154H80z"/><glyph glyph-name="quotedblleft" unicode="“" horiz-adv-x="499" d="M157 556h67V382H50v174l64 154h87zm224 0h67V382H274v174l64 154h87z"/><glyph glyph-name="quotedblright" unicode="”" horiz-adv-x="488" d="M115 536H48v174h174V536l-64-154H71zm224 0h-67v174h174V536l-64-154h-87z"/><glyph glyph-name="quotedblbase" unicode="„" horiz-adv-x="512" d="M124 0H57v174h174V0l-64-154H80zm224 0h-67v174h174V0l-64-154h-87z"/><glyph glyph-name="bullet" unicode="•" horiz-adv-x="396" d="M198 166q-28 0-53 10.5t-43.5 29-29 43.5T62 302t10.5 53 29 43.5 43.5 29 53 10.5 53-10.5 43.5-29 29-43.5 10.5-53-10.5-53-29-43.5-43.5-29-53-10.5z"/><glyph glyph-name="ellipsis" unicode="…" horiz-adv-x="860" d="M144-8Q121-8 101.5.5t-34 23-23 34T36 100q0 22 8.5 42t23 34.5 34 23T144 208q22 0 42-8.5t34.5-23 23-34.5 8.5-42q0-23-8.5-42.5t-23-34T186 .5 144-8zm286 0Q407-8 387.5.5t-34 23-23 34T322 100q0 22 8.5 42t23 34.5 34 23T430 208q22 0 42-8.5t34.5-23 23-34.5 8.5-42q0-23-8.5-42.5t-23-34T472 .5 430-8zm286 0Q693-8 673.5.5t-34 23-23 34T608 100q0 22 8.5 42t23 34.5 34 23T716 208q22 0 42-8.5t34.5-23 23-34.5 8.5-42q0-23-8.5-42.5t-23-34T758 .5 716-8z"/><glyph glyph-name="guilsinglleft" unicode="‹" horiz-adv-x="327" d="m26 250 164 241 100-68-118-173L290 77 190 9z"/><glyph glyph-name="guilsinglright" unicode="›" horiz-adv-x="327" d="M137 9 37 77l118 173L37 423l100 68 164-241z"/><glyph glyph-name="Euro" unicode="€" horiz-adv-x="709" d="M50 454h61q16 57 49.5 105.5t79 83.5 102 55T460 718t118-20 102-55l-48-142q-28 32-73.5 54T461 577q-63 0-114-33t-77-90h346l-22-66H252q-2-8-2-16.5V338l2-16h319l-22-66H270q26-58 76.5-90.5T460 133q53 0 92 16t72 44V31q-37-19-78-29T460-8q-62 0-118.5 20t-102 55-79 83.5T111 256H28l22 66h48q-1 8-1 16.5v33l1 16.5H28z"/><glyph glyph-name="minus" unicode="−" horiz-adv-x="590" d="M77 339h436V225H77v114z"/><glyph glyph-name="uniFB01" unicode="ﬁ" horiz-adv-x="649" d="M33 500h73q-31 34-31 83 0 27 9.5 50t27 40 42.5 27 56 10h155V578h-98q-26 0-37.5-11T218 539t11-28 28-11h108V368H249V0H98v368H33v132zm411 71q-20 23-20 57 0 38 26 64t64 26 64-26 26-64q0-34-20-57H444zm-6-71h151V0H438v500z"/><glyph glyph-name="uniFB02" unicode="ﬂ" horiz-adv-x="649" d="M33 500h73q-31 34-31 83 0 27 9.5 50t27 40 42.5 27 56 10h155V578h-98q-26 0-37.5-11T218 539t11-28 28-11h108V368H249V0H98v368H33v132zm405 210h151V0H438v710z"/><glyph glyph-name="glyph332" horiz-adv-x="324" d="M162-214q-36 0-61.5 25.5T75-127t25.5 61.5T162-40t61.5-25.5T249-127t-25.5-61.5T162-214z"/><glyph glyph-name="glyph334" horiz-adv-x="352" d="M130-50h138l-85-218H96z"/><glyph glyph-name="glyph338" horiz-adv-x="500" d="M286 550H184l20 160h151z"/><glyph glyph-name="glyph339" horiz-adv-x="416" d="M170 923h166L210 778H100z"/><glyph glyph-name="glyph340" horiz-adv-x="494" d="M247 769q-38 0-71.5 14.5T117 823t-39.5 58.5T63 953h86q0-41 28.5-69.5T247 855t69.5 28.5T345 953h86q0-38-14.5-71.5T377 823t-58.5-39.5T247 769z"/><glyph glyph-name="glyph341" horiz-adv-x="514" d="m80 835 41 96 136-59 136 59 41-96-177-76z"/><glyph glyph-name="glyph342" horiz-adv-x="510" d="m78 855 177 76 177-76-41-96-136 59-136-59z"/><glyph glyph-name="glyph343" horiz-adv-x="578" d="M170 770q-33 0-56.5 23.5T90 850t23.5 56.5T170 930t56.5-23.5T250 850t-23.5-56.5T170 770zm238 0q-33 0-56.5 23.5T328 850t23.5 56.5T408 930t56.5-23.5T488 850t-23.5-56.5T408 770z"/><glyph glyph-name="glyph344" horiz-adv-x="324" d="M162 763q-36 0-61.5 25.5T75 850t25.5 61.5T162 937t61.5-25.5T249 850t-25.5-61.5T162 763z"/><glyph glyph-name="glyph345" horiz-adv-x="416" d="M80 923h166l70-145H206z"/><glyph glyph-name="glyph346" horiz-adv-x="599" d="M170 923h148L193 778h-93zm201 0h148L394 778h-93z"/><glyph glyph-name="glyph347" horiz-adv-x="494" d="M82 898h330v-96H82v96z"/><glyph glyph-name="glyph348" horiz-adv-x="380" d="M190 832q20 0 33.5 13.5T237 879t-13.5 33.5T190 926t-33.5-13.5T143 879t13.5-33.5T190 832zm0-73q-25 0-46.5 9.5t-38 26-26 38T70 879t9.5 46.5 26 38 38 26T190 999t46.5-9.5 38-26 26-38T310 879t-9.5-46.5-26-38-38-26T190 759z"/><glyph glyph-name="glyph349" horiz-adv-x="550" d="M86 806q4 28 15.5 49.5T129 892t35.5 22.5T203 922q22 0 40-6.5t33.5-14T305 888t24-6q17 0 27 9.5t16 32.5h96l-4-29q-4-28-15.5-49.5T421 809t-35.5-22.5T347 779q-22 0-40 6t-33.5 13.5-28.5 14-24 6.5q-17 0-27-9.5T178 777H82z"/></font>
</defs>
</svg>
