<svg xmlns="http://www.w3.org/2000/svg"><defs><font id="Font" horiz-adv-x="617"><font-face font-family="Font" font-weight="400" panose-1="2 11 5 0 3 0 0 0 0 0" ascent="800" descent="-200" x-height="500" cap-height="710" bbox="-54 -229 1027 940" underline-thickness="73" underline-position="-242" unicode-range="U+000D-FB02"/><glyph glyph-name=".notdef" horiz-adv-x="500"/><glyph glyph-name="glyph1" horiz-adv-x="0"/><glyph glyph-name="uni000D" horiz-adv-x="240"/><glyph glyph-name="space" horiz-adv-x="240"/><glyph glyph-name="exclam" unicode="!" horiz-adv-x="267" d="M90 417v293h87V417l-16-197h-55zM132-8q-30 0-51.5 21.5T59 66q0 20 9 36t25 26h80q15-10 24.5-26t9.5-36q0-31-21.5-52.5T132-8z"/><glyph glyph-name="quotedbl" unicode="&quot;" horiz-adv-x="416" d="M68 710h78V465H68v245zm202 0h78V465h-78v245z"/><glyph glyph-name="numbersign" unicode="#" horiz-adv-x="737" d="M409 200H228L166 0H87l62 200H34v73h138l54 171H107v73h142l60 193h79l-60-193h181l60 193h79l-60-193h116v-73H565l-54-171h121v-73H488L426 0h-79zm-158 73h181l54 171H305z"/><glyph glyph-name="dollar" unicode="$" horiz-adv-x="521" d="M227-6q-66 7-116.5 37T32 102l63 53q25-34 67.5-59T259 71q65 0 101.5 30.5T397 179q0 24-8.5 42t-24 33-37.5 28-50 27l-65 32q-80 39-116 85.5T60 540q0 36 13.5 65.5t36 52 53 37.5 64.5 20v83h74v-82q50-7 89.5-29.5T461 627l-59-55q-27 32-59.5 49.5T264 639q-52 0-86-28t-34-70q0-41 26.5-67.5T253 420l65-32q35-17 65.5-36.5t52.5-43 34.5-53T483 189q0-39-12.5-72t-36-58.5-57-42T301-5v-83h-74v82z"/><glyph glyph-name="percent" unicode="%" horiz-adv-x="1009" d="M230 388q27 0 50 10t40.5 27.5 27.5 41 10 50.5-10 50.5-27.5 41T280 636t-50 10-50.5-10-40.5-27.5-27-41-10-50.5 10-50.5 27-41 40.5-27.5 50.5-10zm0-68q-41 0-77 15.5T90.5 378t-42 62.5T33 517q0 40 15.5 76t42 63 62.5 42.5 77 15.5q40 0 76-15.5t63-42.5 42.5-63 15.5-76q0-41-15.5-76.5T369 378t-63-42.5-76-15.5zm487 390h85L292 0h-85zm62-646q27 0 50 10t40.5 27.5 27.5 41 10 50.5-10 50.5-27.5 41T829 312t-50 10-50.5-10-40.5-27.5-27-41-10-50.5 10-50.5 27-41T728.5 74 779 64zm0-68q-41 0-77 15.5T639.5 54t-42 62.5T582 193q0 40 15.5 76t42 63 62.5 42.5 77 15.5q40 0 76-15.5t63-42.5 42.5-63 15.5-76q0-41-15.5-76.5T918 54t-63-42.5T779-4z"/><glyph glyph-name="ampersand" unicode="&amp;" horiz-adv-x="737" d="M282-8q-48 0-87 15.5T128.5 49t-42 61.5T72 187q0 43 14 74.5t36.5 55T173 358t55 34q-32 35-54 73.5T152 555q0 34 13.5 63.5t37 51.5 56 35 70.5 13q39 0 70.5-13t54-35 35-50.5T501 560q0-32-13-58t-33.5-47-46.5-38.5-52-32.5l-5-3 143-151 107 130 60-55-110-135L714 0H601L498 108q-51-57-100.5-86.5T282-8zm1 77q45 0 83 26.5t76 71.5L281 337l-4-2q-24-14-45.5-28T194 275.5 168.5 237t-9.5-48q0-25 9.5-47t26-38 39-25.5T283 69zm-48 485q0-33 17.5-59.5T302 434l12 7q21 12 40 24.5t33 26.5 22.5 29.5T418 556q0 36-23.5 62T329 644q-19 0-36-7t-30-19-20.5-28.5T235 554z"/><glyph glyph-name="quotesingle" unicode="'" horiz-adv-x="214" d="M68 710h78V465H68v245z"/><glyph glyph-name="parenleft" unicode="(" horiz-adv-x="262" d="M159-142q-27 55-47.5 106t-34 103.5-20 109.5T51 301t6.5 124 20 109.5 34 103.5T159 744l68-29q-25-53-43.5-103.5t-31-100.5T134 409t-6-108 6-108 18.5-102 31-100.5T227-113l-68-29z"/><glyph glyph-name="parenright" unicode=")" horiz-adv-x="261" d="m103-142-68 29Q60-60 78.5-9.5t31 100.5T128 193t6 108-6 108-18.5 102-31 100.5T35 715l68 29q27-55 47-106t33.5-103.5T204 425t7-124-7-124-20.5-109.5T150-36t-47-106z"/><glyph glyph-name="asterisk" unicode="*" horiz-adv-x="437" d="m218 481-77-105-55 38 78 105-125 42 20 64 126-42v127h66V583l127 42 20-64-126-41 78-106-53-39z"/><glyph glyph-name="plus" unicode="+" horiz-adv-x="590" d="M77 310h183v178h71V310h183v-70H331V58h-71v182H77v70z"/><glyph glyph-name="comma" unicode="," horiz-adv-x="258" d="M119 0H68v123h122V-1l-57-141H76z"/><glyph glyph-name="hyphen" unicode="-" horiz-adv-x="375" d="M66 318h243v-89H66v89z"/><glyph glyph-name="period" unicode="." horiz-adv-x="250" d="M125-8Q95-8 73 13.5T51 66t22 52.5 52 21.5q31 0 52.5-21.5T199 66t-21.5-52.5T125-8z"/><glyph glyph-name="slash" unicode="/" horiz-adv-x="472" d="M368 710h81L105 0H24z"/><glyph glyph-name="zero" unicode="0" horiz-adv-x="590" d="M443 355q0 133-38 205.5T295 633t-110-72.5T147 355t38-205.5T295 77t110 72.5T443 355zM295-8q-57 0-101.5 25.5t-75 72.5T72 204 56 355t16 151 46.5 114 75 72.5T295 718t101.5-25.5 75-72.5T518 506t16-151-16-151-46.5-114-75-72.5T295-8z"/><glyph glyph-name="one" unicode="1" horiz-adv-x="590" d="M331 576 100 469v93l317 148V0h-86v576z"/><glyph glyph-name="two" unicode="2" horiz-adv-x="590" d="M361 370q35 40 52 73.5t17 66.5q0 27-9.5 50t-27 40.5-41 27T302 637q-28 0-52-9.5t-41.5-27T181 560t-10-50v-4H84q0 46 17 85t46 67 69 44 86 16 85-16 68-44 45.5-66.5T517 507q0-29-8.5-56t-24-53.5-37-54T400 286L215 81h309V0H38z"/><glyph glyph-name="three" unicode="3" horiz-adv-x="590" d="M268-8q-63 0-118 29.5T64 101l66 51q18-34 54-57.5T267 71q33 0 61 11t49 31 32.5 48.5T421 225q0 34-11 63t-32 50-50.5 33-65.5 12h-63l143 247H93v80h382L326 452q43-9 77-30t57.5-51 36-67.5T509 225q0-49-17.5-91.5t-49-74-76-49.5T268-8z"/><glyph glyph-name="four" unicode="4" horiz-adv-x="590" d="M368 179H-3l458 539V255h119v-76H455V0h-87v179zm0 326L161 255h207v250z"/><glyph glyph-name="five" unicode="5" horiz-adv-x="590" d="M283-8q-64 0-120.5 29.5T76 101l67 52q17-34 54-58t84-24q33 0 61 11.5t48 31.5 31.5 48 11.5 61-11 61.5-31.5 49.5-49 33-64.5 12q-41 0-68-18t-43-37l-59 25v361h358v-80H193V437q17 8 40 14t47 6q56 0 100.5-18.5t75.5-50 47.5-74.5 16.5-91-17-90-48.5-73.5-75-49.5T283-8z"/><glyph glyph-name="six" unicode="6" horiz-adv-x="590" d="M299-8q-50 0-92.5 18T132 59.5 82 133t-18 90q0 37 12 70t29 62l212 355h99L258 448q7 2 18 4t28 2q47 0 89-18t73.5-49.5 50-73.5 18.5-90-18.5-90-50-73.5-75-49.5T299-8zm0 79q33 0 60 12t46.5 32.5 30.5 48 11 59.5q0 31-11 59t-30.5 48.5T359 363t-60 12-60-12-46.5-32.5T162 282t-11-59q0-32 11-59.5t30.5-48T239 83t60-12z"/><glyph glyph-name="seven" unicode="7" horiz-adv-x="590" d="M414 630H78v80h465L203 0h-91z"/><glyph glyph-name="eight" unicode="8" horiz-adv-x="590" d="M295-8q-47 0-88.5 17T134 56.5 85 129t-18 91q0 63 29 113.5t77 80.5q-25 23-39.5 56T119 542q0 38 14 70.5t38 56 56 36.5 68 13 68-13 56-36.5 38-56 14-70.5q0-39-14.5-72T417 414q48-30 77-80.5T523 220q0-49-18-91t-49-72.5T383.5 9 295-8zm0 81q29 0 54.5 11.5t44 31T423 162t11 58-11 58-29.5 46.5-44 31T295 367t-54.5-11.5-44.5-31-29.5-46.5-10.5-58 10.5-58 29.5-46.5 44.5-31T295 73zm3 375q37 2 62.5 27.5T386 542q0 42-26.5 68.5T295 637t-64.5-26.5T204 542q0-41 25.5-66.5T291 448h7z"/><glyph glyph-name="nine" unicode="9" horiz-adv-x="590" d="M332 261q-7-2-18-4t-28-2q-47 0-89 18t-73.5 49.5-50 73.5T55 486t18.5 90 50 73.5 74.5 50 93 18.5q49 0 92-18.5t75-50 50-73.5 18-90q0-37-12.5-70T484 354L272-1h-98zm-41 73q33 0 60 12t46.5 32.5 30.5 48 11 59.5q0 31-11 59t-30.5 49-46.5 33-60 12-60.5-12-47-33-30-49-10.5-59q0-32 10.5-59.5t30-48 47-32.5 60.5-12z"/><glyph glyph-name="colon" unicode=":" horiz-adv-x="280" d="M140 360q-30 0-52 21.5T66 434t22 52.5 52 21.5q31 0 52.5-21.5T214 434t-21.5-52.5T140 360zm0-368q-30 0-52 21.5T66 66t22 52.5 52 21.5q31 0 52.5-21.5T214 66t-21.5-52.5T140-8z"/><glyph glyph-name="semicolon" unicode=";" horiz-adv-x="282" d="M128 0H77v123h122V-1l-57-141H85zm16 360q-30 0-52 21.5T70 434t22 52.5 52 21.5q31 0 52.5-21.5T218 434t-21.5-52.5T144 360z"/><glyph glyph-name="equal" unicode="=" horiz-adv-x="590" d="M73 201h444v-70H73v70zm0 219h444v-70H73v70z"/><glyph glyph-name="question" unicode="?" horiz-adv-x="538" d="M210 356h45q33 0 60.5 11t46.5 30 29.5 45 10.5 56q0 28-10 53.5T363.5 596 319 626t-57 11-57-11-45-30-30-45-11-55v-6H32q0 47 17 88.5T96.5 651t72 49 90.5 18 91.5-18 73-48.5 48-72T489 492q0-47-17-84.5t-45-65-64.5-44T288 278v-55h-78v133zM248-8q-30 0-51.5 21.5T175 66q0 20 9 36t25 26h80q15-10 24.5-26t9.5-36q0-31-21.5-52.5T248-8z"/><glyph glyph-name="at" unicode="@" horiz-adv-x="812" d="M363 165q-36 0-65 13.5t-50 37-32 55-11 66.5q0 45 16.5 85t45.5 70 68.5 47 86.5 17q36 0 63-10t47-28l6 28h72l-51-239q-7-33 4-56t43-23q20 0 38.5 11.5T677 274t22.5 56.5T708 408q0 58-21 104t-58 78-87.5 48.5T433 655q-64 0-121.5-22.5t-100.5-64T142.5 468 117 337q0-59 19-110t54.5-88.5 87.5-59T396 58q45 0 94 10t90 31l25-63Q558 15 501.5 3.5T396-8q-81 0-145.5 27t-110 73.5T71 202 47 337q0 85 32 155.5T164.5 613 288 690.5 434 718q73 0 135.5-22T678 633.5t72-98T776 406q0-65-15.5-111.5t-41-75.5-58.5-42.5-67-13.5q-31 0-59 15t-39 39q-23-23-57-37.5T363 165zm17 66q28 0 55.5 12.5T482 287l34 157q-17 24-44 35t-54 11-51.5-11-43.5-30.5-30-46-11-58.5q0-54 27-83.5t71-29.5z"/><glyph glyph-name="A" unicode="A" horiz-adv-x="678" d="M339 718 685 0h-98l-88 186H179L91 0H-7zM219 270h240L339 524z"/><glyph glyph-name="B" unicode="B" horiz-adv-x="632" d="M95 710h237q51 0 90.5-15t65.5-40 39.5-59 13.5-71q0-54-19.5-89.5T467 377q53-20 87-62.5T588 200q0-48-18-85.5t-50-63T443 13 343 0H95v710zM354 84q72 0 107 34t35 86-35 87-107 35H186V84h168zm-24 320q57 0 88.5 31.5T450 515q0 22-8 42.5T418.5 593t-38 24-50.5 9H186V404h144z"/><glyph glyph-name="C" unicode="C" horiz-adv-x="665" d="M409-8q-76 0-142.5 27.5T151 96 74 211.5 46 355t28 143.5 77 115T266.5 690 409 718q67 0 125.5-21T639 634l-53-69q-35 29-79 47.5T409 631q-58 0-107.5-21T216 551.5t-56.5-88T139 355q0-59 20.5-109t56.5-87.5 85.5-58.5T409 79q54 0 98 18.5t79 47.5l53-69q-46-42-104.5-63T409-8z"/><glyph glyph-name="D" unicode="D" horiz-adv-x="731" d="M306 85q64 0 117 20.5t90.5 56.5 58 85.5T592 355t-20.5 107.5-58 85.5-90.5 56.5T306 625H186V85h120zM95 710h211q82 0 151.5-27t120-74.5 79-112.5T685 355t-28.5-141-79-112.5-120-74.5T306 0H95v710z"/><glyph glyph-name="E" unicode="E" horiz-adv-x="555" d="M95 710h410v-88H186V407h259v-88H186V88h319V0H95v710z"/><glyph glyph-name="F" unicode="F" horiz-adv-x="517" d="M95 710h398v-88H186V407h240v-88H186V0H95v710z"/><glyph glyph-name="G" unicode="G" horiz-adv-x="724" d="M409-8q-76 0-142.5 27.5T151 96 74 211.5 46 355t28 143.5 77 115T266.5 690 409 718q72 0 135.5-22.5T656 628l-56-68q-35 33-84.5 52T409 631q-58 0-107.5-21T216 551.5t-56.5-88T139 355q0-59 20.5-109t56.5-87.5 85.5-58.5T409 79q43 0 85.5 9.5T570 118v201H372l39 88h250V72q-50-38-116-59T409-8z"/><glyph glyph-name="H" unicode="H" horiz-adv-x="764" d="M95 710h91V407h392v303h91V0h-91v319H186V0H95v710z"/><glyph glyph-name="I" unicode="I" horiz-adv-x="281" d="M95 710h91V0H95v710z"/><glyph glyph-name="J" unicode="J" horiz-adv-x="523" d="M228-8q-43 0-80.5 13.5T82 45t-44.5 64.5T21 198h91q0-30 9-52.5t25-37 36.5-22T227 79q51 0 84 29t33 90v512h91V192q0-50-16.5-87.5t-45-62.5-66-37.5T228-8z"/><glyph glyph-name="K" unicode="K" horiz-adv-x="641" d="M95 710h91V354l324 356h112L294 349 649 0H528L186 337V0H95v710z"/><glyph glyph-name="L" unicode="L" horiz-adv-x="514" d="M95 710h91V89h311V0H95v710z"/><glyph glyph-name="M" unicode="M" horiz-adv-x="882" d="m95 718 346-381 346 381V0h-91v494L441 209 186 494V0H95v718z"/><glyph glyph-name="N" unicode="N" horiz-adv-x="787" d="M186 505V0H95v718l506-513v505h91V-8z"/><glyph glyph-name="O" unicode="O" horiz-adv-x="818" d="M409 79q58 0 107.5 21t85.5 58.5 56.5 87.5T679 355q0 58-20.5 108.5t-56.5 88-85.5 58.5T409 631t-107.5-21-85.5-58.5-56.5-88T139 355q0-59 20.5-109t56.5-87.5 85.5-58.5T409 79zm0-87q-76 0-142.5 27.5T151 96 74 211.5 46 355t28 143.5 77 115T266.5 690 409 718t142.5-28T667 613.5t77-115T772 355t-28-143.5T667 96 551.5 19.5 409-8z"/><glyph glyph-name="P" unicode="P" horiz-adv-x="574" d="M95 710h201q56 0 101.5-15t77.5-43 49.5-68.5T542 493t-17.5-90-49.5-68-77.5-43.5T296 276H186V0H95v710zm198-350q77 0 116.5 35t39.5 98-39.5 98T293 626H186V360h107z"/><glyph glyph-name="Q" unicode="Q" horiz-adv-x="832" d="M644 76q-48-40-107.5-62T409-8q-76 0-142 28T152 97 74.5 212 46 355q0 76 28.5 142.5T152 613t115 77 142 28 142.5-28T667 613t77-115.5T772 355q0-62-18.5-116.5T702 139l92-85-58-62zm-235 4q49 0 91.5 15t77.5 43l-92 85 58 62 91-84q21 32 32.5 71t11.5 83q0 58-20.5 108.5T602 551t-85.5 58T409 630t-107.5-21-85.5-58-56.5-87.5T139 355t20.5-108.5T216 159t85.5-58T409 80z"/><glyph glyph-name="R" unicode="R" horiz-adv-x="619" d="M264 310h-78V0H95v710h211q52 0 94-14t72-40.5 46-63.5 16-82q0-76-45-127.5T366 316L611 0H501zm36 81q70 0 105 31t35 86q0 56-35 87t-105 31H186V391h114z"/><glyph glyph-name="S" unicode="S" horiz-adv-x="528" d="M263-8q-78 0-138.5 32.5T32 102l69 60q26-33 67.5-58T262 79q62 0 98 26.5t36 73.5q0 49-29.5 78T280 311l-65 28q-81 35-118 84.5T60 540q0 40 17.5 73t46.5 56.5 66.5 36T267 718q63 0 113-23.5t86-67.5l-64-64q-28 33-59.5 50.5T264 631q-23 0-43-6t-36-18-25-29.5-9-39.5q0-39 24-67t81-53l65-28q36-16 66.5-35t53-43.5 35-55T488 189q0-44-15.5-80t-45-62-71-40.5T263-8z"/><glyph glyph-name="T" unicode="T" horiz-adv-x="526" d="M217 622H16v88h494v-88H308V0h-91v622z"/><glyph glyph-name="U" unicode="U" horiz-adv-x="738" d="M369-8q-62 0-114 19t-89.5 55-58.5 87.5T86 270v440h91V266q0-46 14-81t39.5-58.5T291 91t78-12 78 12 60.5 35.5T547 185t14 81v444h91V270q0-65-21-116.5T572.5 66 483 11 369-8z"/><glyph glyph-name="V" unicode="V" horiz-adv-x="656" d="M0 710h100l228-509 227 509h100L328-8z"/><glyph glyph-name="W" unicode="W" horiz-adv-x="889" d="M8 710h94l157-474 185 482 186-482 157 474h94L637-8 444 493 252-8z"/><glyph glyph-name="X" unicode="X" horiz-adv-x="639" d="M262 362 19 710h105l195-279 195 279h105L378 362 633 0H530L320 295 112 0H6z"/><glyph glyph-name="Y" unicode="Y" horiz-adv-x="628" d="M268 301 8 710h106l200-320 200 320h106L360 301V0h-92v301z"/><glyph glyph-name="Z" unicode="Z" horiz-adv-x="593" d="M404 622H52v88h508L165 88h397V0H9z"/><glyph glyph-name="bracketleft" unicode="[" horiz-adv-x="306" d="M89 741h187v-71H168V-70h108v-71H89v882z"/><glyph glyph-name="bracketright" unicode="]" horiz-adv-x="306" d="M217-141H30v71h108v740H30v71h187v-882z"/><glyph glyph-name="underscore" unicode="_" horiz-adv-x="556" d="M66 0h424v-73H66V0z"/><glyph glyph-name="grave" unicode="`" horiz-adv-x="272" d="M42 710h109l87-165h-71z"/><glyph glyph-name="a" unicode="a" d="M456 50q-32-29-72.5-43.5T297-8q-55 0-102 20t-81 54.5-53 82T42 250t19 101.5 53 82 81 54.5 102 20q46 0 86.5-14.5T456 450v50h86V0h-86v50zM299 73q54 0 94.5 23t62.5 58v192q-22 35-62.5 58T299 427q-37 0-67.5-13.5t-53-37.5-35-56.5T131 250t12.5-69.5 35-56.5 53-37.5T299 73z"/><glyph glyph-name="b" unicode="b" d="M75 710h86V450q31 29 71.5 43.5T320 508q55 0 102-20t81-54.5 53-82T575 250t-19-101.5-53-82T422 12 320-8q-47 0-87.5 14.5T161 50V0H75v710zm243-283q-54 0-95-23t-62-58V154q21-35 62-58t95-23q37 0 67.5 13.5t53 37.5 35 56.5T486 250t-12.5 69.5-35 56.5-53 37.5T318 427z"/><glyph glyph-name="c" unicode="c" horiz-adv-x="518" d="M299-8q-56 0-103 20t-81 55-53.5 82T42 250t19.5 101 53.5 82 81 55 103 20q63 0 110.5-22.5T490 429l-55-60q-24 24-57.5 41T299 427q-37 0-67.5-13.5t-53-37.5-35-56.5T131 250t12.5-69.5 35-56.5 53-37.5T299 73q45 0 78.5 17t57.5 41l55-60q-33-34-80.5-56.5T299-8z"/><glyph glyph-name="d" unicode="d" d="M456 50q-32-29-72.5-43.5T297-8q-55 0-102 20t-81 54.5-53 82T42 250t19 101.5 53 82 81 54.5 102 20q46 0 86.5-14.5T456 450v260h86V0h-86v50zM299 73q54 0 94.5 23t62.5 58v192q-22 35-62.5 58T299 427q-37 0-67.5-13.5t-53-37.5-35-56.5T131 250t12.5-69.5 35-56.5 53-37.5T299 73z"/><glyph glyph-name="e" unicode="e" horiz-adv-x="568" d="M299-8q-56 0-103 20t-81 55-53.5 82T42 250t19.5 101.5 53.5 82 79.5 54.5 98.5 20q52 0 96.5-18.5t77-54 51-87.5T537 229H131q3-33 17-61.5t36-49.5 51.5-33T299 73q48 0 85 18t61 42l55-60q-32-34-83.5-57.5T299-8zm-11 437q-55 0-97-34t-56-91h305q-9 62-52 94t-100 31z"/><glyph glyph-name="f" unicode="f" horiz-adv-x="352" d="M27 500h84q-17 17-27 39.5T74 588t10.5 48.5 29.5 39 46 25.5 60 9h118v-78H234q-32 0-54-15.5T158 569q0-33 22-50t47-19h111v-78H199V0h-86v422H27v78z"/><glyph glyph-name="g" unicode="g" horiz-adv-x="611" d="M291-194q-54 0-111 15T78-135l45 73q32-23 76.5-37.5T294-114q33 0 63 6.5T410.5-86 448-47t14 59q0 13-3 31t-10 32q-62-60-159-60-56 0-101.5 19T111 86t-50 78-18 97 18 97.5 50 78.5 77.5 52T290 508q48 0 86.5-15t69.5-44v51h86V102q10-26 14.5-51T551 4q0-54-22.5-91.5T469-149t-83.5-34.5T291-194zm1 289q54 0 94 23.5t60 58.5v169q-20 35-60 58t-94 23q-36 0-65.5-12.5t-50.5-35-32.5-52.5-11.5-66q0-35 11.5-65.5t32.5-53 50.5-35T292 95z"/><glyph glyph-name="h" unicode="h" horiz-adv-x="579" d="M75 710h86V443q29 36 70 50.5t85 14.5q42 0 77.5-14.5t61-40.5 40-64 14.5-84V0h-86v300q0 55-33.5 91T297 427q-53 0-87.5-27.5T161 323V0H75v710z"/><glyph glyph-name="i" unicode="i" horiz-adv-x="236" d="M75 609q-19 17-19 46 0 26 18 44.5t44 18.5 44-18.5 18-44.5q0-29-19-46H75zm0-109h86V0H75v500z"/><glyph glyph-name="j" unicode="j" horiz-adv-x="244" d="M-21-106H9q42 0 58 21t16 59v526h86V-39q0-72-39.5-108.5T18-184h-39v78zM83 609q-19 17-19 46 0 26 18 44.5t44 18.5 44-18.5 18-44.5q0-29-19-46H83z"/><glyph glyph-name="k" unicode="k" horiz-adv-x="507" d="M75 710h86V274l221 226h108L257 264 513 0H402L161 249V0H75v710z"/><glyph glyph-name="l" unicode="l" horiz-adv-x="236" d="M75 710h86V0H75v710z"/><glyph glyph-name="m" unicode="m" horiz-adv-x="876" d="M720 300q0 55-30 91t-84 36q-47 0-78-27t-45-75q1-5 1-10V0h-86v300q0 55-30.5 91T283 427q-44 0-75.5-24.5T161 333V0H75v500h86v-55q28 35 65.5 49t75.5 14q50 0 89-21.5t62-60.5q18 24 39 40t43 25.5 44 13 41 3.5q43 0 77.5-14.5T756 453t37-64 13-84V0h-86v300z"/><glyph glyph-name="n" unicode="n" horiz-adv-x="579" d="M75 500h86v-57q29 36 70 50.5t85 14.5q42 0 77.5-14.5t61-40.5 40-64 14.5-84V0h-86v300q0 55-33.5 91T297 427q-53 0-87.5-27.5T161 323V0H75v500z"/><glyph glyph-name="o" unicode="o" horiz-adv-x="603" d="M302 73q38 0 69.5 13.5t54 37.5 34.5 56.5 12 69.5-12 69.5-34.5 56.5-54 37.5T302 427t-69.5-13.5-54-37.5-35-56.5T131 250t12.5-69.5 35-56.5 54-37.5T302 73zm0-81q-57 0-104.5 20t-82 55-54 82T42 250t19.5 101 54 82 82 55T302 508q56 0 103.5-20t82-55 54-82T561 250t-19.5-101-54-82-82-55T302-8z"/><glyph glyph-name="p" unicode="p" d="M75 500h86v-50q31 29 71.5 43.5T320 508q55 0 102-20t81-54.5 53-82T575 250t-19-101.5-53-82T422 12 320-8q-47 0-87.5 14.5T161 50v-234H75v684zm243-73q-54 0-95-23t-62-58V154q21-35 62-58t95-23q37 0 67.5 13.5t53 37.5 35 56.5T486 250t-12.5 69.5-35 56.5-53 37.5T318 427z"/><glyph glyph-name="q" unicode="q" d="M456 50q-32-29-72.5-43.5T297-8q-55 0-102 20t-81 54.5-53 82T42 250t19 101.5 53 82 81 54.5 102 20q46 0 86.5-14.5T456 450v50h86v-684h-86V50zM299 73q54 0 94.5 23t62.5 58v192q-22 35-62.5 58T299 427q-37 0-67.5-13.5t-53-37.5-35-56.5T131 250t12.5-69.5 35-56.5 53-37.5T299 73z"/><glyph glyph-name="r" unicode="r" horiz-adv-x="350" d="M75 500h86v-59q26 32 61 48t77 16q18 0 35-3v-89q-21 6-48 6-41 0-74.5-20T161 340V0H75v500z"/><glyph glyph-name="s" unicode="s" horiz-adv-x="420" d="M207-8q-56 0-101.5 24.5T30 92l68 46q20-33 45.5-51T209 69q37 0 63 17t26 46-20 46.5-65 33.5l-39 15q-66 25-92.5 64T55 375q0 28 11.5 52.5T99 470t49.5 28 62.5 10q48 0 87.5-22t62.5-68l-67-39q-25 52-83 52-29 0-50-14.5T140 376q0-23 14.5-41.5T213 300l41-15q64-23 97-58.5t33-91.5q0-30-12.5-56T336 33.5 280.5 3 207-8z"/><glyph glyph-name="t" unicode="t" horiz-adv-x="365" d="M9 500h99v107l86 43V500h151l-19-78H194V158q0-38 16-59t58-21h67V0h-76q-72 0-111.5 36.5T108 145v277H28z"/><glyph glyph-name="u" unicode="u" horiz-adv-x="578" d="M417 56q-29-36-69.5-50T263-8q-43 0-78.5 14.5t-61 40.5T84 110.5 70 195v305h86V200q0-55 33.5-91T281 73q52 0 86.5 26t49.5 74v327h86V0h-86v56z"/><glyph glyph-name="v" unicode="v" horiz-adv-x="520" d="M-4 500h97l167-337 168 337h97L260-8z"/><glyph glyph-name="w" unicode="w" horiz-adv-x="700" d="M11 500h89l112-364 138 372 138-372 112 364h89L531 0h-69L350 303 239 0h-70z"/><glyph glyph-name="x" unicode="x" horiz-adv-x="514" d="M205 254 20 500h99l139-184 137 184h99L309 254 504 0H404L257 194 110 0H10z"/><glyph glyph-name="y" unicode="y" horiz-adv-x="507" d="M210 42 6 500h93l156-364 157 364h93L198-184h-91z"/><glyph glyph-name="z" unicode="z" horiz-adv-x="486" d="M310 422H48v78h411L166 78h283V0H16z"/><glyph glyph-name="braceleft" unicode="{" horiz-adv-x="317" d="M234-141q-71 0-99.5 36.5T106 3v190q0 35-10.5 53T48 264H32v71h16q37 0 47.5 18t10.5 53v191q0 70 27.5 107t98.5 37h50v-71h-39q-37 0-48-17.5T184 597V410q0-46-11-71t-42-39q31-15 42-40t11-71V3q0-38 11-55.5T243-70h39v-71h-48z"/><glyph glyph-name="bar" unicode="|" horiz-adv-x="257" d="M89 710h79v-894H89v894z"/><glyph glyph-name="braceright" unicode="}" horiz-adv-x="317" d="M83-141H35v71h39q37 0 48 17.5T133 3v186q0 46 11 71t42 40q-31 14-42 39t-11 71v187q0 38-11 55.5T74 670H35v71h50q71 0 98.5-37T211 597V406q0-35 10.5-53t47.5-18h16v-71h-16q-37 0-47.5-18T211 193V3q0-71-28.5-107.5T83-141z"/><glyph glyph-name="uni00A0" horiz-adv-x="240"/><glyph glyph-name="exclamdown" unicode="¡" horiz-adv-x="254" d="m84 84 16 197h55l16-197v-269H84V84zm3 289q-16 9-25 25t-9 36q0 31 21.5 52.5T126 508q32 0 53.5-21.5T201 434q0-20-9.5-36T167 373H87z"/><glyph glyph-name="sterling" unicode="£" horiz-adv-x="580" d="M53 378h91q-25 26-39 60.5T91 511q0 42 15.5 80t44 66 68 44.5T305 718q46 0 85-16.5t67.5-45.5 44.5-67.5 16-81.5h-87q0 27-9 51t-25.5 42-40 28.5T305 639q-29 0-52.5-9.5t-40-27-26-41T177 511t9.5-51.5 26-42.5 40-28.5T305 378h82v-73H230V80h315V0H53v80h90v225H53v73z"/><glyph glyph-name="yen" unicode="¥" horiz-adv-x="658" d="M129 345h130L26 710h100l203-322 203 322h100L400 345h130v-73H372v-74h158v-73H372V0h-85v125H129v73h158v74H129v73z"/><glyph glyph-name="dieresis" unicode="¨" horiz-adv-x="406" d="M90 571q-24 0-42 17t-18 43q0 25 18 42t42 17q26 0 43.5-17t17.5-42q0-26-17.5-43T90 571zm225 0q-25 0-42.5 17T255 631q0 25 17.5 42t42.5 17q26 0 43-17t17-42q0-26-17-43t-43-17z"/><glyph glyph-name="copyright" unicode="©" horiz-adv-x="816" d="M419 161q-41 0-76.5 15T281 217t-40.5 61.5T226 356t14.5 77.5T281 495t61.5 41 76.5 15q20 0 42-4.5t43-14.5 39.5-25 32.5-36l-51-46q-19 26-46.5 41.5T422 482q-56 0-89-35.5T300 356t33-90.5 89-35.5q29 0 56.5 15.5T525 287l51-46q-14-21-32.5-36T504 180t-43-14.5-42-4.5zM407 61q61 0 114.5 23t93.5 63 63 93.5T701 354q0 61-23 114.5T615 562t-93.5 63T407 648q-60 0-113.5-23T200 562t-63-93.5T114 354q0-60 23-113.5t63-93.5 93.5-63T407 61zm1-70q-75 0-141 28.5t-115.5 78-78 115.5T45 354t28.5 141 78 115.5T267 689t141 29 141-29 115.5-78.5 78-115.5T771 354t-28.5-141-78-115.5-115.5-78T408-9z"/><glyph glyph-name="guillemotleft" unicode="«" horiz-adv-x="509" d="m244 250 152 221 62-42-123-179L458 71l-62-42zm-202 0 152 221 62-42-123-179L256 71l-62-42z"/><glyph glyph-name="uni00AD" unicode="­" horiz-adv-x="375" d="M66 318h243v-89H66v89z"/><glyph glyph-name="macron" unicode="¯" horiz-adv-x="365" d="M37 679h292v-65H37v65z"/><glyph glyph-name="degree" unicode="°" horiz-adv-x="330" d="M165 525q28 0 47 20t19 47-19 46.5-47 19.5q-27 0-47-19.5T98 592t20-47 47-20zm0-55q-25 0-47.5 9.5t-39 26-26 39T43 592t9.5 47.5 26 39 39 26T165 714t47.5-9.5 39-26 26-39T287 592t-9.5-47.5-26-39-39-26T165 470z"/><glyph glyph-name="acute" unicode="´" horiz-adv-x="272" d="M120 710h109L105 545H33z"/><glyph glyph-name="periodcentered" unicode="·" horiz-adv-x="270" d="M135 198q-30 0-52 21.5T61 272t22 52.5 52 21.5q31 0 52.5-21.5T209 272t-21.5-52.5T135 198z"/><glyph glyph-name="cedilla" unicode="¸" horiz-adv-x="197" d="M71 0h59L92-135H-6z"/><glyph glyph-name="guillemotright" unicode="»" horiz-adv-x="509" d="m315 29-62 42 123 179-123 179 62 42 152-221zm-202 0L51 71l123 179L51 429l62 42 152-221z"/><glyph glyph-name="questiondown" unicode="¿" horiz-adv-x="530" d="M273-194q-49 0-91 18t-72.5 48.5-48 71.5T44 32q0 46 17 84t45 65.5 64 44 74 20.5v38h79V168h-46q-33 0-60-11t-46-30-29.5-45T131 26q0-29 10-54t28.5-44 44-30 56.5-11 57.5 11T373-72t29.5 45T413 28v6h88q0-47-17-88.5T436.5-127 364-176t-91-18zm10 702q32 0 53.5-21.5T358 434q0-20-9.5-36T324 372h-80q-16 10-25 26t-9 36q0 31 21.5 52.5T283 508z"/><glyph glyph-name="Agrave" unicode="À" horiz-adv-x="678" d="M339 718 685 0h-98l-88 186H179L91 0H-7zM219 270h240L339 524zm-30 643h109l77-145h-73z"/><glyph glyph-name="Aacute" unicode="Á" horiz-adv-x="678" d="M339 718 685 0h-98l-88 186H179L91 0H-7zM219 270h240L339 524zm161 643h108L376 768h-73z"/><glyph glyph-name="Acircumflex" unicode="Â" horiz-adv-x="678" d="M339 718 685 0h-98l-88 186H179L91 0H-7zM219 270h240L339 524zm-53 556 173 100 173-100-35-60-138 82-138-82z"/><glyph glyph-name="Atilde" unicode="Ã" horiz-adv-x="678" d="M339 718 685 0h-98l-88 186H179L91 0H-7zM219 270h240L339 524zm188 513q-21 0-39 7t-33.5 15-29 15-26.5 7q-20 0-30.5-10.5T233 784h-69l4 18q4 23 14.5 41t25 30 31.5 18.5 34 6.5q21 0 38.5-7t33-15 29-15 25.5-7q21 0 32 10t16 33h68l-3-18q-8-45-38-70.5T407 783z"/><glyph glyph-name="Adieresis" unicode="Ä" horiz-adv-x="678" d="M339 718 685 0h-98l-88 186H179L91 0H-7zM219 270h240L339 524zm7 512q-24 0-42.5 18T165 844q0 25 18.5 42.5T226 904q26 0 44-17.5t18-42.5q0-26-18-44t-44-18zm225 0q-25 0-43 18t-18 44q0 25 18 42.5t43 17.5q26 0 44-17.5t18-42.5q0-26-18-44t-44-18z"/><glyph glyph-name="Aring" unicode="Å" horiz-adv-x="678" d="M339 718 685 0h-98l-88 186H179L91 0H-7zM219 270h240L339 524zm119 528q20 0 34 13t14 34-14 34.5-34 13.5-34-13.5-14-34.5 14-34 34-13zm0-47q-42 0-70.5 26.5T239 845q0 42 29 68.5t70 26.5 70-26.5 29-68.5q0-41-28.5-67.5T338 751z"/><glyph glyph-name="AE" unicode="Æ" horiz-adv-x="998" d="m301 621-42 89h399l42-88H394l104-215h262l42-88H540L651 88h306l43-88H596l-88 186H188L100 0H2zm-73-351h240L348 524z"/><glyph glyph-name="Ccedilla" unicode="Ç" horiz-adv-x="665" d="M359-5q-67 9-124.5 39.5t-99.5 78T69.5 222 46 355q0 77 28 143.5t77 115T266.5 690 409 718q67 0 125.5-21T639 634l-53-69q-35 29-79 47.5T409 631q-58 0-107.5-21T216 551.5t-56.5-88T139 355q0-59 20.5-109t56.5-87.5 85.5-58.5T409 79q54 0 98 18.5t79 47.5l53-69q-45-40-101-61T418-8l-35-127h-98z"/><glyph glyph-name="Egrave" unicode="È" horiz-adv-x="555" d="M95 710h410v-88H186V407h259v-88H186V88h319V0H95v710zm83 203h109l77-145h-73z"/><glyph glyph-name="Eacute" unicode="É" horiz-adv-x="555" d="M95 710h410v-88H186V407h259v-88H186V88h319V0H95v710zm216 203h108L307 768h-73z"/><glyph glyph-name="Ecircumflex" unicode="Ê" horiz-adv-x="555" d="M95 710h410v-88H186V407h259v-88H186V88h319V0H95v710zm31 116 173 100 173-100-35-60-138 82-138-82z"/><glyph glyph-name="Edieresis" unicode="Ë" horiz-adv-x="555" d="M95 710h410v-88H186V407h259v-88H186V88h319V0H95v710zm92 72q-24 0-42.5 18T126 844q0 25 18.5 42.5T187 904q26 0 44-17.5t18-42.5q0-26-18-44t-44-18zm225 0q-25 0-43 18t-18 44q0 25 18 42.5t43 17.5q26 0 44-17.5t18-42.5q0-26-18-44t-44-18z"/><glyph glyph-name="Igrave" unicode="Ì" horiz-adv-x="281" d="M95 710h91V0H95v710zM20 913h109l77-145h-73z"/><glyph glyph-name="Iacute" unicode="Í" horiz-adv-x="281" d="M95 710h91V0H95v710zm57 203h108L148 768H75z"/><glyph glyph-name="Icircumflex" unicode="Î" horiz-adv-x="281" d="M95 710h91V0H95v710zM-32 826l173 100 173-100-35-60-138 82L3 766z"/><glyph glyph-name="Idieresis" unicode="Ï" horiz-adv-x="281" d="M95 710h91V0H95v710zm-66 72q-24 0-42.5 18T-32 844q0 25 18.5 42.5T29 904q26 0 44-17.5T91 844q0-26-18-44t-44-18zm225 0q-25 0-43 18t-18 44q0 25 18 42.5t43 17.5q26 0 44-17.5t18-42.5q0-26-18-44t-44-18z"/><glyph glyph-name="Eth" unicode="Ð" horiz-adv-x="759" d="M15 399h108v311h211q82 0 151.5-27t120-74.5 79-112.5T713 355t-28.5-141-79-112.5-120-74.5T334 0H123v312H15v87zM334 85q64 0 117 20.5t90.5 56.5 58 85.5T620 355t-20.5 107.5-58 85.5-90.5 56.5T334 625H214V399h134v-87H214V85h120z"/><glyph glyph-name="Ntilde" unicode="Ñ" horiz-adv-x="787" d="M186 505V0H95v718l506-513v505h91V-8zm275 278q-21 0-39 7t-33.5 15-29 15-26.5 7q-20 0-30.5-10.5T287 784h-69l4 18q4 23 14.5 41t25 30 31.5 18.5 34 6.5q21 0 38.5-7t33-15 29-15 25.5-7q21 0 32 10t16 33h68l-3-18q-8-45-38-70.5T461 783z"/><glyph glyph-name="Ograve" unicode="Ò" horiz-adv-x="818" d="M409 79q58 0 107.5 21t85.5 58.5 56.5 87.5T679 355q0 58-20.5 108.5t-56.5 88-85.5 58.5T409 631t-107.5-21-85.5-58.5-56.5-88T139 355q0-59 20.5-109t56.5-87.5 85.5-58.5T409 79zm0-87q-76 0-142.5 27.5T151 96 74 211.5 46 355t28 143.5 77 115T266.5 690 409 718t142.5-28T667 613.5t77-115T772 355t-28-143.5T667 96 551.5 19.5 409-8zM288 913h109l77-145h-73z"/><glyph glyph-name="Oacute" unicode="Ó" horiz-adv-x="818" d="M409 79q58 0 107.5 21t85.5 58.5 56.5 87.5T679 355q0 58-20.5 108.5t-56.5 88-85.5 58.5T409 631t-107.5-21-85.5-58.5-56.5-88T139 355q0-59 20.5-109t56.5-87.5 85.5-58.5T409 79zm0-87q-76 0-142.5 27.5T151 96 74 211.5 46 355t28 143.5 77 115T266.5 690 409 718t142.5-28T667 613.5t77-115T772 355t-28-143.5T667 96 551.5 19.5 409-8zm11 921h108L416 768h-73z"/><glyph glyph-name="Ocircumflex" unicode="Ô" horiz-adv-x="818" d="M409 79q58 0 107.5 21t85.5 58.5 56.5 87.5T679 355q0 58-20.5 108.5t-56.5 88-85.5 58.5T409 631t-107.5-21-85.5-58.5-56.5-88T139 355q0-59 20.5-109t56.5-87.5 85.5-58.5T409 79zm0-87q-76 0-142.5 27.5T151 96 74 211.5 46 355t28 143.5 77 115T266.5 690 409 718t142.5-28T667 613.5t77-115T772 355t-28-143.5T667 96 551.5 19.5 409-8zM236 826l173 100 173-100-35-60-138 82-138-82z"/><glyph glyph-name="Otilde" unicode="Õ" horiz-adv-x="818" d="M409 79q58 0 107.5 21t85.5 58.5 56.5 87.5T679 355q0 58-20.5 108.5t-56.5 88-85.5 58.5T409 631t-107.5-21-85.5-58.5-56.5-88T139 355q0-59 20.5-109t56.5-87.5 85.5-58.5T409 79zm0-87q-76 0-142.5 27.5T151 96 74 211.5 46 355t28 143.5 77 115T266.5 690 409 718t142.5-28T667 613.5t77-115T772 355t-28-143.5T667 96 551.5 19.5 409-8zm68 791q-21 0-39 7t-33.5 15-29 15-26.5 7q-20 0-30.5-10.5T303 784h-69l4 18q4 23 14.5 41t25 30 31.5 18.5 34 6.5q21 0 38.5-7t33-15 29-15 25.5-7q21 0 32 10t16 33h68l-3-18q-8-45-38-70.5T477 783z"/><glyph glyph-name="Odieresis" unicode="Ö" horiz-adv-x="818" d="M409 79q58 0 107.5 21t85.5 58.5 56.5 87.5T679 355q0 58-20.5 108.5t-56.5 88-85.5 58.5T409 631t-107.5-21-85.5-58.5-56.5-88T139 355q0-59 20.5-109t56.5-87.5 85.5-58.5T409 79zm0-87q-76 0-142.5 27.5T151 96 74 211.5 46 355t28 143.5 77 115T266.5 690 409 718t142.5-28T667 613.5t77-115T772 355t-28-143.5T667 96 551.5 19.5 409-8zM296 782q-24 0-42.5 18T235 844q0 25 18.5 42.5T296 904q26 0 44-17.5t18-42.5q0-26-18-44t-44-18zm225 0q-25 0-43 18t-18 44q0 25 18 42.5t43 17.5q26 0 44-17.5t18-42.5q0-26-18-44t-44-18z"/><glyph glyph-name="multiply" unicode="×" horiz-adv-x="590" d="m98 119 148 147L96 416l50 49 149-150 148 148 49-49-148-148 150-149-49-49-150 149L148 70z"/><glyph glyph-name="Oslash" unicode="Ø" horiz-adv-x="820" d="m76 36 64 72q-44 48-68.5 111T47 355q0 77 28 143.5t77 115T267.5 690 410 718q60 0 114-17.5t99-49.5l71 79 54-51-69-77q44-48 69-111t25-136q0-77-28-143.5T668 96 552.5 19.5 410-8Q349-8 294.5 9.5T195 59l-66-74zm334 43q58 0 107.5 21t85.5 58.5 56.5 87.5T680 355q0 52-16.5 97.5T618 534L255 126q32-23 71-35t84-12zM140 355q0-52 16-97.5t45-81.5l363 408q-32 23-71 35t-83 12q-58 0-107.5-21T217 551.5t-56.5-88T140 355z"/><glyph glyph-name="Ugrave" unicode="Ù" horiz-adv-x="738" d="M369-8q-62 0-114 19t-89.5 55-58.5 87.5T86 270v440h91V266q0-46 14-81t39.5-58.5T291 91t78-12 78 12 60.5 35.5T547 185t14 81v444h91V270q0-65-21-116.5T572.5 66 483 11 369-8zM245 913h109l77-145h-73z"/><glyph glyph-name="Uacute" unicode="Ú" horiz-adv-x="738" d="M369-8q-62 0-114 19t-89.5 55-58.5 87.5T86 270v440h91V266q0-46 14-81t39.5-58.5T291 91t78-12 78 12 60.5 35.5T547 185t14 81v444h91V270q0-65-21-116.5T572.5 66 483 11 369-8zm16 921h108L381 768h-73z"/><glyph glyph-name="Ucircumflex" unicode="Û" horiz-adv-x="738" d="M369-8q-62 0-114 19t-89.5 55-58.5 87.5T86 270v440h91V266q0-46 14-81t39.5-58.5T291 91t78-12 78 12 60.5 35.5T547 185t14 81v444h91V270q0-65-21-116.5T572.5 66 483 11 369-8zM196 826l173 100 173-100-35-60-138 82-138-82z"/><glyph glyph-name="Udieresis" unicode="Ü" horiz-adv-x="738" d="M369-8q-62 0-114 19t-89.5 55-58.5 87.5T86 270v440h91V266q0-46 14-81t39.5-58.5T291 91t78-12 78 12 60.5 35.5T547 185t14 81v444h91V270q0-65-21-116.5T572.5 66 483 11 369-8zM256 782q-24 0-42.5 18T195 844q0 25 18.5 42.5T256 904q26 0 44-17.5t18-42.5q0-26-18-44t-44-18zm225 0q-25 0-43 18t-18 44q0 25 18 42.5t43 17.5q26 0 44-17.5t18-42.5q0-26-18-44t-44-18z"/><glyph glyph-name="Yacute" unicode="Ý" horiz-adv-x="628" d="M268 301 8 710h106l200-320 200 320h106L360 301V0h-92v301zm87 612h108L351 768h-73z"/><glyph glyph-name="Thorn" unicode="Þ" horiz-adv-x="580" d="M95 710h91V574h102q57 0 103.5-15.5t79.5-44 51-68.5 18-89q0-50-18-90t-51-68.5-79.5-44T288 139H186V0H95v710zm192-487q78 0 119.5 35.5T448 357t-41.5 97.5T287 489H186V223h101z"/><glyph glyph-name="germandbls" unicode="ß" horiz-adv-x="556" d="M75 500q0 52 16 93t44 68.5 65.5 42T281 718t79-14.5 62.5-39.5 41.5-57.5 15-68.5q0-54-27.5-93.5T379 384q32-9 57.5-26t43-40 26.5-50.5 9-56.5q0-44-16-82.5t-46-67-73.5-45T281 0h-46v79h46q70 0 109 38t39 96q0 59-43 93.5T275 341h-40v77h23q26 0 50.5 7.5t43 22.5 30 36.5T393 534q0 48-32 77t-80 29q-54 0-87-35.5T161 500V0H75v500z"/><glyph glyph-name="agrave" unicode="à" d="M456 50q-32-29-72.5-43.5T297-8q-55 0-102 20t-81 54.5-53 82T42 250t19 101.5 53 82 81 54.5 102 20q46 0 86.5-14.5T456 450v50h86V0h-86v50zM299 73q54 0 94.5 23t62.5 58v192q-22 35-62.5 58T299 427q-37 0-67.5-13.5t-53-37.5-35-56.5T131 250t12.5-69.5 35-56.5 53-37.5T299 73zM157 710h109l87-165h-71z"/><glyph glyph-name="aacute" unicode="á" d="M456 50q-32-29-72.5-43.5T297-8q-55 0-102 20t-81 54.5-53 82T42 250t19 101.5 53 82 81 54.5 102 20q46 0 86.5-14.5T456 450v50h86V0h-86v50zM299 73q54 0 94.5 23t62.5 58v192q-22 35-62.5 58T299 427q-37 0-67.5-13.5t-53-37.5-35-56.5T131 250t12.5-69.5 35-56.5 53-37.5T299 73zm49 637h109L333 545h-72z"/><glyph glyph-name="acircumflex" unicode="â" d="M456 50q-32-29-72.5-43.5T297-8q-55 0-102 20t-81 54.5-53 82T42 250t19 101.5 53 82 81 54.5 102 20q46 0 86.5-14.5T456 450v50h86V0h-86v50zM299 73q54 0 94.5 23t62.5 58v192q-22 35-62.5 58T299 427q-37 0-67.5-13.5t-53-37.5-35-56.5T131 250t12.5-69.5 35-56.5 53-37.5T299 73zM147 611l170 107 170-107-35-58-135 86-136-86z"/><glyph glyph-name="atilde" unicode="ã" d="M456 50q-32-29-72.5-43.5T297-8q-55 0-102 20t-81 54.5-53 82T42 250t19 101.5 53 82 81 54.5 102 20q46 0 86.5-14.5T456 450v50h86V0h-86v50zM299 73q54 0 94.5 23t62.5 58v192q-22 35-62.5 58T299 427q-37 0-67.5-13.5t-53-37.5-35-56.5T131 250t12.5-69.5 35-56.5 53-37.5T299 73zM147 585q9 45 38.5 69.5T250 679q21 0 38.5-7t33-15 29-15 25.5-7q21 0 32 11t16 33h66l-3-18q-8-42-36.5-68T384 567q-21 0-39 7t-33.5 15-29 15-26.5 7q-20 0-30.5-11T210 566h-66z"/><glyph glyph-name="adieresis" unicode="ä" d="M456 50q-32-29-72.5-43.5T297-8q-55 0-102 20t-81 54.5-53 82T42 250t19 101.5 53 82 81 54.5 102 20q46 0 86.5-14.5T456 450v50h86V0h-86v50zM299 73q54 0 94.5 23t62.5 58v192q-22 35-62.5 58T299 427q-37 0-67.5-13.5t-53-37.5-35-56.5T131 250t12.5-69.5 35-56.5 53-37.5T299 73zm-95 498q-24 0-42 17t-18 43q0 25 18 42t42 17q26 0 43.5-17t17.5-42q0-26-17.5-43T204 571zm225 0q-25 0-42.5 17T369 631q0 25 17.5 42t42.5 17q26 0 43-17t17-42q0-26-17-43t-43-17z"/><glyph glyph-name="aring" unicode="å" d="M456 50q-32-29-72.5-43.5T297-8q-55 0-102 20t-81 54.5-53 82T42 250t19 101.5 53 82 81 54.5 102 20q46 0 86.5-14.5T456 450v50h86V0h-86v50zM299 73q54 0 94.5 23t62.5 58v192q-22 35-62.5 58T299 427q-37 0-67.5-13.5t-53-37.5-35-56.5T131 250t12.5-69.5 35-56.5 53-37.5T299 73zm-2 540q20 0 34 13t14 34q0 22-14 35t-34 13-34-13-14-35q0-21 14-34t34-13zm0-47q-21 0-39 7t-31.5 20-21 30-7.5 37q0 42 29 68.5t70 26.5 70-26.5 29-68.5q0-20-7.5-37t-21-30-31.5-20-39-7z"/><glyph glyph-name="ae" unicode="æ" horiz-adv-x="919" d="M650-8q-65 0-117.5 26.5T445 91q-42-48-94-73.5T233-8Q142-8 88 36.5T34 158q0 36 15 66t42 51.5 65 34 83 12.5q51 0 88.5-10.5T392 286v25q-1 35-13 57.5T348 404t-43.5 18-50.5 5q-44 0-80-14.5T112 376l-41 70q32 26 79.5 44T255 508q61 0 113-23t77-76q35 45 86 72t113 27q52 0 96.5-18.5t77-54 51-87.5T888 229H482q3-33 17-61.5t36-49.5 51.5-33T650 73q48 0 85 18t61 42l55-60q-32-34-83.5-57.5T650-8zM237 73q56 0 95.5 22t59.5 55v56q-26 20-61 31.5T246 249q-25 0-47-5.5t-39-17-27-28.5-10-40 9.5-39T158 92.5t36.5-15T237 73zm402 356q-55 0-97-34t-56-91h305q-9 62-52 94t-100 31z"/><glyph glyph-name="ccedilla" unicode="ç" horiz-adv-x="518" d="M258-5q-48 7-87.5 29.5t-68 56-44.5 77T42 250q0 54 19.5 101t53.5 82 81 55 103 20q63 0 110.5-22.5T490 429l-55-60q-24 24-57.5 41T299 427q-37 0-67.5-13.5t-53-37.5-35-56.5T131 250t12.5-69.5 35-56.5 53-37.5T299 73q45 0 78.5 17t57.5 41l55-60q-31-32-73.5-53.5T318-7l-36-128h-98z"/><glyph glyph-name="egrave" unicode="è" horiz-adv-x="568" d="M299-8q-56 0-103 20t-81 55-53.5 82T42 250t19.5 101.5 53.5 82 79.5 54.5 98.5 20q52 0 96.5-18.5t77-54 51-87.5T537 229H131q3-33 17-61.5t36-49.5 51.5-33T299 73q48 0 85 18t61 42l55-60q-32-34-83.5-57.5T299-8zm-11 437q-55 0-97-34t-56-91h305q-9 62-52 94t-100 31zM163 710h109l87-165h-71z"/><glyph glyph-name="eacute" unicode="é" horiz-adv-x="568" d="M299-8q-56 0-103 20t-81 55-53.5 82T42 250t19.5 101.5 53.5 82 79.5 54.5 98.5 20q52 0 96.5-18.5t77-54 51-87.5T537 229H131q3-33 17-61.5t36-49.5 51.5-33T299 73q48 0 85 18t61 42l55-60q-32-34-83.5-57.5T299-8zm-11 437q-55 0-97-34t-56-91h305q-9 62-52 94t-100 31zm36 281h109L309 545h-72z"/><glyph glyph-name="ecircumflex" unicode="ê" horiz-adv-x="568" d="M299-8q-56 0-103 20t-81 55-53.5 82T42 250t19.5 101.5 53.5 82 79.5 54.5 98.5 20q52 0 96.5-18.5t77-54 51-87.5T537 229H131q3-33 17-61.5t36-49.5 51.5-33T299 73q48 0 85 18t61 42l55-60q-32-34-83.5-57.5T299-8zm-11 437q-55 0-97-34t-56-91h305q-9 62-52 94t-100 31zM123 611l170 107 170-107-35-58-135 86-136-86z"/><glyph glyph-name="edieresis" unicode="ë" horiz-adv-x="568" d="M299-8q-56 0-103 20t-81 55-53.5 82T42 250t19.5 101.5 53.5 82 79.5 54.5 98.5 20q52 0 96.5-18.5t77-54 51-87.5T537 229H131q3-33 17-61.5t36-49.5 51.5-33T299 73q48 0 85 18t61 42l55-60q-32-34-83.5-57.5T299-8zm-11 437q-55 0-97-34t-56-91h305q-9 62-52 94t-100 31zM181 571q-24 0-42 17t-18 43q0 25 18 42t42 17q26 0 43.5-17t17.5-42q0-26-17.5-43T181 571zm225 0q-25 0-42.5 17T346 631q0 25 17.5 42t42.5 17q26 0 43-17t17-42q0-26-17-43t-43-17z"/><glyph glyph-name="igrave" unicode="ì" horiz-adv-x="236" d="M75 500h86V0H75v500zm-86 210H98l87-165h-71z"/><glyph glyph-name="iacute" unicode="í" horiz-adv-x="236" d="M75 500h86V0H75v500zm65 210h109L125 545H53z"/><glyph glyph-name="icircumflex" unicode="î" horiz-adv-x="236" d="m-51 611 170 107 170-107-35-58-135 86-136-86zM75 500h86V0H75v500z"/><glyph glyph-name="idieresis" unicode="ï" horiz-adv-x="236" d="M75 500h86V0H75v500zM6 571q-24 0-42 17t-18 43q0 25 18 42t42 17q26 0 43.5-17T67 631q0-26-17.5-43T6 571zm225 0q-25 0-42.5 17T171 631q0 25 17.5 42t42.5 17q26 0 43-17t17-42q0-26-17-43t-43-17z"/><glyph glyph-name="eth" unicode="ð" horiz-adv-x="603" d="M176 629h85l-55 81h94l56-81h125v-67h-79l105-152q30-45 42-83t12-77q0-53-19.5-100t-54-82T405 12.5 301-8 197.5 12.5t-82 55.5-54 82T42 250q0 52 18.5 98.5t52 81.5 79.5 55.5T293 508q16 0 30.5-2.5T351 499l-44 63H176v67zM301 71q39 0 70.5 14t54 38.5 35 57T473 250t-12.5 69.5-35 57-54 38.5-70.5 14q-38 0-70-14t-54.5-38.5-35-57T129 250t12.5-69.5 35-57T231 85t70-14z"/><glyph glyph-name="ntilde" unicode="ñ" horiz-adv-x="579" d="M75 500h86v-57q29 36 70 50.5t85 14.5q42 0 77.5-14.5t61-40.5 40-64 14.5-84V0h-86v300q0 55-33.5 91T297 427q-53 0-87.5-27.5T161 323V0H75v500zm47 85q9 45 38.5 69.5T225 679q21 0 38.5-7t33-15 29-15 25.5-7q21 0 32 11t16 33h66l-3-18q-8-42-36.5-68T359 567q-21 0-39 7t-33.5 15-29 15-26.5 7q-20 0-30.5-11T185 566h-66z"/><glyph glyph-name="ograve" unicode="ò" horiz-adv-x="603" d="M302 73q38 0 69.5 13.5t54 37.5 34.5 56.5 12 69.5-12 69.5-34.5 56.5-54 37.5T302 427t-69.5-13.5-54-37.5-35-56.5T131 250t12.5-69.5 35-56.5 54-37.5T302 73zm0-81q-57 0-104.5 20t-82 55-54 82T42 250t19.5 101 54 82 82 55T302 508q56 0 103.5-20t82-55 54-82T561 250t-19.5-101-54-82-82-55T302-8zM161 710h109l87-165h-71z"/><glyph glyph-name="oacute" unicode="ó" horiz-adv-x="603" d="M302 73q38 0 69.5 13.5t54 37.5 34.5 56.5 12 69.5-12 69.5-34.5 56.5-54 37.5T302 427t-69.5-13.5-54-37.5-35-56.5T131 250t12.5-69.5 35-56.5 54-37.5T302 73zm0-81q-57 0-104.5 20t-82 55-54 82T42 250t19.5 101 54 82 82 55T302 508q56 0 103.5-20t82-55 54-82T561 250t-19.5-101-54-82-82-55T302-8zm31 718h109L318 545h-72z"/><glyph glyph-name="ocircumflex" unicode="ô" horiz-adv-x="603" d="M302 73q38 0 69.5 13.5t54 37.5 34.5 56.5 12 69.5-12 69.5-34.5 56.5-54 37.5T302 427t-69.5-13.5-54-37.5-35-56.5T131 250t12.5-69.5 35-56.5 54-37.5T302 73zm0-81q-57 0-104.5 20t-82 55-54 82T42 250t19.5 101 54 82 82 55T302 508q56 0 103.5-20t82-55 54-82T561 250t-19.5-101-54-82-82-55T302-8zM131 611l170 107 170-107-35-58-135 86-136-86z"/><glyph glyph-name="otilde" unicode="õ" horiz-adv-x="603" d="M302 73q38 0 69.5 13.5t54 37.5 34.5 56.5 12 69.5-12 69.5-34.5 56.5-54 37.5T302 427t-69.5-13.5-54-37.5-35-56.5T131 250t12.5-69.5 35-56.5 54-37.5T302 73zm0-81q-57 0-104.5 20t-82 55-54 82T42 250t19.5 101 54 82 82 55T302 508q56 0 103.5-20t82-55 54-82T561 250t-19.5-101-54-82-82-55T302-8zM131 585q9 45 38.5 69.5T234 679q21 0 38.5-7t33-15 29-15 25.5-7q21 0 32 11t16 33h66l-3-18q-8-42-36.5-68T368 567q-21 0-39 7t-33.5 15-29 15-26.5 7q-20 0-30.5-11T194 566h-66z"/><glyph glyph-name="odieresis" unicode="ö" horiz-adv-x="603" d="M302 73q38 0 69.5 13.5t54 37.5 34.5 56.5 12 69.5-12 69.5-34.5 56.5-54 37.5T302 427t-69.5-13.5-54-37.5-35-56.5T131 250t12.5-69.5 35-56.5 54-37.5T302 73zm0-81q-57 0-104.5 20t-82 55-54 82T42 250t19.5 101 54 82 82 55T302 508q56 0 103.5-20t82-55 54-82T561 250t-19.5-101-54-82-82-55T302-8zM188 571q-24 0-42 17t-18 43q0 25 18 42t42 17q26 0 43.5-17t17.5-42q0-26-17.5-43T188 571zm225 0q-25 0-42.5 17T353 631q0 25 17.5 42t42.5 17q26 0 43-17t17-42q0-26-17-43t-43-17z"/><glyph glyph-name="divide" unicode="÷" horiz-adv-x="590" d="M295 69q-27 0-47 19t-20 47 20 47 47 19q28 0 47-19t19-47-19-47-47-19zM76 310h438v-70H76v70zm219 38q-27 0-47 19.5T228 415q0 27 20 46.5t47 19.5q28 0 47-19.5t19-46.5q0-28-19-47.5T295 348z"/><glyph glyph-name="oslash" unicode="ø" horiz-adv-x="611" d="m43 34 56 57q-25 33-38.5 73.5T47 250q0 54 19.5 101t54 82 82 55T307 508q45 0 83.5-12.5T461 460l54 55 50-50-53-54q26-33 40-74t14-87q0-54-19.5-101t-54-82-82-55T307-8q-46 0-86 13t-72 37L93-16zm264 39q38 0 69.5 13.5t54 37.5 34.5 56.5 12 69.5q0 54-27 98L209 102q20-14 44.5-21.5T307 73zM136 250q0-54 25-96l241 245q-42 28-95 28-38 0-69.5-13.5t-54-37.5-35-56.5T136 250z"/><glyph glyph-name="ugrave" unicode="ù" horiz-adv-x="578" d="M417 56q-29-36-69.5-50T263-8q-43 0-78.5 14.5t-61 40.5T84 110.5 70 195v305h86V200q0-55 33.5-91T281 73q52 0 86.5 26t49.5 74v327h86V0h-86v56zM145 710h109l87-165h-71z"/><glyph glyph-name="uacute" unicode="ú" horiz-adv-x="578" d="M417 56q-29-36-69.5-50T263-8q-43 0-78.5 14.5t-61 40.5T84 110.5 70 195v305h86V200q0-55 33.5-91T281 73q52 0 86.5 26t49.5 74v327h86V0h-86v56zM317 710h109L302 545h-72z"/><glyph glyph-name="ucircumflex" unicode="û" horiz-adv-x="578" d="M417 56q-29-36-69.5-50T263-8q-43 0-78.5 14.5t-61 40.5T84 110.5 70 195v305h86V200q0-55 33.5-91T281 73q52 0 86.5 26t49.5 74v327h86V0h-86v56zM116 611l170 107 170-107-35-58-135 86-136-86z"/><glyph glyph-name="udieresis" unicode="ü" horiz-adv-x="578" d="M417 56q-29-36-69.5-50T263-8q-43 0-78.5 14.5t-61 40.5T84 110.5 70 195v305h86V200q0-55 33.5-91T281 73q52 0 86.5 26t49.5 74v327h86V0h-86v56zM173 571q-24 0-42 17t-18 43q0 25 18 42t42 17q26 0 43.5-17t17.5-42q0-26-17.5-43T173 571zm225 0q-25 0-42.5 17T338 631q0 25 17.5 42t42.5 17q26 0 43-17t17-42q0-26-17-43t-43-17z"/><glyph glyph-name="yacute" unicode="ý" horiz-adv-x="507" d="M210 42 6 500h93l156-364 157 364h93L198-184h-91zm96 668h109L291 545h-72z"/><glyph glyph-name="thorn" unicode="þ" d="M75 710h86V450q31 29 71.5 43.5T320 508q55 0 102-20t81-54.5 53-82T575 250t-19-101.5-53-82T422 12 320-8q-47 0-87.5 14.5T161 50v-234H75v894zm243-283q-54 0-95-23t-62-58V154q21-35 62-58t95-23q37 0 67.5 13.5t53 37.5 35 56.5T486 250t-12.5 69.5-35 56.5-53 37.5T318 427z"/><glyph glyph-name="ydieresis" unicode="ÿ" horiz-adv-x="507" d="M210 42 6 500h93l156-364 157 364h93L198-184h-91zm-61 529q-24 0-42 17t-18 43q0 25 18 42t42 17q26 0 43.5-17t17.5-42q0-26-17.5-43T149 571zm225 0q-25 0-42.5 17T314 631q0 25 17.5 42t42.5 17q26 0 43-17t17-42q0-26-17-43t-43-17z"/><glyph glyph-name="Amacron" unicode="Ā" horiz-adv-x="678" d="M339 718 685 0h-98l-88 186H179L91 0H-7zM219 270h240L339 524zm-27 598h292v-65H192v65z"/><glyph glyph-name="amacron" unicode="ā" d="M456 50q-32-29-72.5-43.5T297-8q-55 0-102 20t-81 54.5-53 82T42 250t19 101.5 53 82 81 54.5 102 20q46 0 86.5-14.5T456 450v50h86V0h-86v50zM299 73q54 0 94.5 23t62.5 58v192q-22 35-62.5 58T299 427q-37 0-67.5-13.5t-53-37.5-35-56.5T131 250t12.5-69.5 35-56.5 53-37.5T299 73zM171 679h292v-65H171v65z"/><glyph glyph-name="Abreve" unicode="Ă" horiz-adv-x="678" d="M339 718 685 0h-98l-88 186H179L91 0H-7zM219 270h240L339 524zm118 502q-35 0-63 11t-48.5 29.5-32 43.5-12.5 53h64q2-31 26-55t67-24 67.5 24 26.5 55h64q-2-28-13.5-53t-32-43.5-49-29.5-64.5-11z"/><glyph glyph-name="abreve" unicode="ă" d="M456 50q-32-29-72.5-43.5T297-8q-55 0-102 20t-81 54.5-53 82T42 250t19 101.5 53 82 81 54.5 102 20q46 0 86.5-14.5T456 450v50h86V0h-86v50zM299 73q54 0 94.5 23t62.5 58v192q-22 35-62.5 58T299 427q-37 0-67.5-13.5t-53-37.5-35-56.5T131 250t12.5-69.5 35-56.5 53-37.5T299 73zm17 500q-35 0-63 11t-48.5 29.5-32 43.5-12.5 53h64q2-31 26-55t67-24 67.5 24 26.5 55h64q-2-28-13.5-53t-32-43.5-49-29.5-64.5-11z"/><glyph glyph-name="Aogonek" unicode="Ą" horiz-adv-x="678" d="M339 718 685 0h-1q-31-14-53.5-34.5T608-81q0-25 15-36.5t29-11.5q8 0 17.5 3t15.5 8v-54q-27-18-61-18-19 0-36.5 6.5t-31 19-21.5 30-8 39.5q0 29 17 55t43 40l-88 186H179L91 0H-7zM219 270h240L339 524z"/><glyph glyph-name="aogonek" unicode="ą" d="M456 50q-32-29-72.5-43.5T297-8q-55 0-102 20t-81 54.5-53 82T42 250t19 101.5 53 82 81 54.5 102 20q46 0 86.5-14.5T456 450v50h86V0q-30-14-50-36t-20-45 14.5-35.5T515-129q8 0 15.5 3t13.5 8v-54q-22-18-58-18-17 0-33.5 6.5t-29.5 19-21 30-8 39.5q0 29 18 55t44 40v50zM299 73q54 0 94.5 23t62.5 58v192q-22 35-62.5 58T299 427q-37 0-67.5-13.5t-53-37.5-35-56.5T131 250t12.5-69.5 35-56.5 53-37.5T299 73z"/><glyph glyph-name="Cacute" unicode="Ć" horiz-adv-x="665" d="M409-8q-76 0-142.5 27.5T151 96 74 211.5 46 355t28 143.5 77 115T266.5 690 409 718q67 0 125.5-21T639 634l-53-69q-35 29-79 47.5T409 631q-58 0-107.5-21T216 551.5t-56.5-88T139 355q0-59 20.5-109t56.5-87.5 85.5-58.5T409 79q54 0 98 18.5t79 47.5l53-69q-46-42-104.5-63T409-8zm12 921h108L417 768h-73z"/><glyph glyph-name="cacute" unicode="ć" horiz-adv-x="518" d="M299-8q-56 0-103 20t-81 55-53.5 82T42 250t19.5 101 53.5 82 81 55 103 20q63 0 110.5-22.5T490 429l-55-60q-24 24-57.5 41T299 427q-37 0-67.5-13.5t-53-37.5-35-56.5T131 250t12.5-69.5 35-56.5 53-37.5T299 73q45 0 78.5 17t57.5 41l55-60q-33-34-80.5-56.5T299-8zm32 718h109L316 545h-72z"/><glyph glyph-name="Ccircumflex" unicode="Ĉ" horiz-adv-x="665" d="M409-8q-76 0-142.5 27.5T151 96 74 211.5 46 355t28 143.5 77 115T266.5 690 409 718q67 0 125.5-21T639 634l-53-69q-35 29-79 47.5T409 631q-58 0-107.5-21T216 551.5t-56.5-88T139 355q0-59 20.5-109t56.5-87.5 85.5-58.5T409 79q54 0 98 18.5t79 47.5l53-69q-46-42-104.5-63T409-8zM235 826l173 100 173-100-35-60-138 82-138-82z"/><glyph glyph-name="ccircumflex" unicode="ĉ" horiz-adv-x="518" d="M299-8q-56 0-103 20t-81 55-53.5 82T42 250t19.5 101 53.5 82 81 55 103 20q63 0 110.5-22.5T490 429l-55-60q-24 24-57.5 41T299 427q-37 0-67.5-13.5t-53-37.5-35-56.5T131 250t12.5-69.5 35-56.5 53-37.5T299 73q45 0 78.5 17t57.5 41l55-60q-33-34-80.5-56.5T299-8zM130 611l170 107 170-107-35-58-135 86-136-86z"/><glyph glyph-name="Cdotaccent" unicode="Ċ" horiz-adv-x="665" d="M409-8q-76 0-142.5 27.5T151 96 74 211.5 46 355t28 143.5 77 115T266.5 690 409 718q67 0 125.5-21T639 634l-53-69q-35 29-79 47.5T409 631q-58 0-107.5-21T216 551.5t-56.5-88T139 355q0-59 20.5-109t56.5-87.5 85.5-58.5T409 79q54 0 98 18.5t79 47.5l53-69q-46-42-104.5-63T409-8zm0 788q-25 0-43.5 18.5T347 844q0 26 18.5 44t43.5 18q27 0 45.5-18t18.5-44q0-27-18.5-45.5T409 780z"/><glyph glyph-name="cdotaccent" unicode="ċ" horiz-adv-x="518" d="M299-8q-56 0-103 20t-81 55-53.5 82T42 250t19.5 101 53.5 82 81 55 103 20q63 0 110.5-22.5T490 429l-55-60q-24 24-57.5 41T299 427q-37 0-67.5-13.5t-53-37.5-35-56.5T131 250t12.5-69.5 35-56.5 53-37.5T299 73q45 0 78.5 17t57.5 41l55-60q-33-34-80.5-56.5T299-8zm2 577q-26 0-44 18t-18 44 18 43.5 44 17.5 44-17.5 18-43.5-18-44-44-18z"/><glyph glyph-name="Ccaron" unicode="Č" horiz-adv-x="665" d="M409-8q-76 0-142.5 27.5T151 96 74 211.5 46 355t28 143.5 77 115T266.5 690 409 718q67 0 125.5-21T639 634l-53-69q-35 29-79 47.5T409 631q-58 0-107.5-21T216 551.5t-56.5-88T139 355q0-59 20.5-109t56.5-87.5 85.5-58.5T409 79q54 0 98 18.5t79 47.5l53-69q-46-42-104.5-63T409-8zM235 866l35 60 138-82 138 82 35-60-173-100z"/><glyph glyph-name="ccaron" unicode="č" horiz-adv-x="518" d="M299-8q-56 0-103 20t-81 55-53.5 82T42 250t19.5 101 53.5 82 81 55 103 20q63 0 110.5-22.5T490 429l-55-60q-24 24-57.5 41T299 427q-37 0-67.5-13.5t-53-37.5-35-56.5T131 250t12.5-69.5 35-56.5 53-37.5T299 73q45 0 78.5 17t57.5 41l55-60q-33-34-80.5-56.5T299-8zm0 577L129 676l34 58 136-86 135 86 35-58z"/><glyph glyph-name="Dcaron" unicode="Ď" horiz-adv-x="731" d="M306 85q64 0 117 20.5t90.5 56.5 58 85.5T592 355t-20.5 107.5-58 85.5-90.5 56.5T306 625H186V85h120zM95 710h211q82 0 151.5-27t120-74.5 79-112.5T685 355t-28.5-141-79-112.5-120-74.5T306 0H95v710zm61 156 35 60 138-82 138 82 35-60-173-100z"/><glyph glyph-name="dcaron" unicode="ď" horiz-adv-x="641" d="M456 50q-32-29-72.5-43.5T297-8q-55 0-102 20t-81 54.5-53 82T42 250t19 101.5 53 82 81 54.5 102 20q46 0 86.5-14.5T456 450v260h86V0h-86v50zM299 73q54 0 94.5 23t62.5 58v192q-22 35-62.5 58T299 427q-37 0-67.5-13.5t-53-37.5-35-56.5T131 250t12.5-69.5 35-56.5 53-37.5T299 73zm329 637h87l-51-165h-61z"/><glyph glyph-name="Dcroat" unicode="Đ" horiz-adv-x="759" d="M15 399h108v311h211q82 0 151.5-27t120-74.5 79-112.5T713 355t-28.5-141-79-112.5-120-74.5T334 0H123v312H15v87zM334 85q64 0 117 20.5t90.5 56.5 58 85.5T620 355t-20.5 107.5-58 85.5-90.5 56.5T334 625H214V399h134v-87H214V85h120z"/><glyph glyph-name="dcroat" unicode="đ" d="M285 642h171v68h86v-68h70v-74h-70V0h-86v50q-32-29-72.5-43.5T297-8q-55 0-102 20t-81 54.5-53 82T42 250t19 101.5 53 82 81 54.5 102 20q46 0 86.5-14.5T456 450v118H285v74zm14-569q54 0 94.5 23t62.5 58v192q-22 35-62.5 58T299 427q-37 0-67.5-13.5t-53-37.5-35-56.5T131 250t12.5-69.5 35-56.5 53-37.5T299 73z"/><glyph glyph-name="Emacron" unicode="Ē" horiz-adv-x="555" d="M95 710h410v-88H186V407h259v-88H186V88h319V0H95v710zm58 158h292v-65H153v65z"/><glyph glyph-name="emacron" unicode="ē" horiz-adv-x="568" d="M299-8q-56 0-103 20t-81 55-53.5 82T42 250t19.5 101.5 53.5 82 79.5 54.5 98.5 20q52 0 96.5-18.5t77-54 51-87.5T537 229H131q3-33 17-61.5t36-49.5 51.5-33T299 73q48 0 85 18t61 42l55-60q-32-34-83.5-57.5T299-8zm-11 437q-55 0-97-34t-56-91h305q-9 62-52 94t-100 31zM147 679h292v-65H147v65z"/><glyph glyph-name="Ebreve" unicode="Ĕ" horiz-adv-x="555" d="M95 710h410v-88H186V407h259v-88H186V88h319V0H95v710zm203 62q-35 0-63 11t-48.5 29.5-32 43.5-12.5 53h64q2-31 26-55t67-24 67.5 24 26.5 55h64q-2-28-13.5-53t-32-43.5-49-29.5-64.5-11z"/><glyph glyph-name="ebreve" unicode="ĕ" horiz-adv-x="568" d="M299-8q-56 0-103 20t-81 55-53.5 82T42 250t19.5 101.5 53.5 82 79.5 54.5 98.5 20q52 0 96.5-18.5t77-54 51-87.5T537 229H131q3-33 17-61.5t36-49.5 51.5-33T299 73q48 0 85 18t61 42l55-60q-32-34-83.5-57.5T299-8zm-11 437q-55 0-97-34t-56-91h305q-9 62-52 94t-100 31zm4 144q-35 0-63 11t-48.5 29.5-32 43.5-12.5 53h64q2-31 26-55t67-24 67.5 24 26.5 55h64q-2-28-13.5-53t-32-43.5-49-29.5-64.5-11z"/><glyph glyph-name="Edotaccent" unicode="Ė" horiz-adv-x="555" d="M95 710h410v-88H186V407h259v-88H186V88h319V0H95v710zm207 70q-25 0-43.5 18.5T240 844q0 26 18.5 44t43.5 18q27 0 45.5-18t18.5-44q0-27-18.5-45.5T302 780z"/><glyph glyph-name="edotaccent" unicode="ė" horiz-adv-x="568" d="M299-8q-56 0-103 20t-81 55-53.5 82T42 250t19.5 101.5 53.5 82 79.5 54.5 98.5 20q52 0 96.5-18.5t77-54 51-87.5T537 229H131q3-33 17-61.5t36-49.5 51.5-33T299 73q48 0 85 18t61 42l55-60q-32-34-83.5-57.5T299-8zm-11 437q-55 0-97-34t-56-91h305q-9 62-52 94t-100 31zm5 140q-26 0-44 18t-18 44 18 43.5 44 17.5 44-17.5 18-43.5-18-44-44-18z"/><glyph glyph-name="Eogonek" unicode="Ę" horiz-adv-x="555" d="M95 710h410v-88H186V407h259v-88H186V88h319V0h-1q-42-18-63.5-40T419-84q0-17 13-28.5t37-11.5q11 0 20.5 2.5T505-117v-59q-27-13-64-13-22 0-41.5 6T365-165.5t-23.5 28T333-100q0 32 24 60t55 40H95v710z"/><glyph glyph-name="eogonek" unicode="ę" horiz-adv-x="568" d="M307-178q-21 0-40 5.5t-33.5 17-23 27.5-8.5 37q0 29 19.5 50.5T268-6q-50 5-91.5 27T105 77t-46.5 78.5T42 250q0 54 19.5 101.5t53.5 82 79.5 54.5 98.5 20q52 0 96.5-18.5t77-54 51-87.5T537 229H131q3-33 17-61.5t36-49.5 51.5-33T299 73q48 0 85 18t61 42l55-60q-24-25-58-44.5T366 0q-80-36-80-75 0-16 12.5-27t37.5-11q11 0 19 2.5t14 4.5v-59q-14-8-29.5-10.5T307-178zm-19 607q-55 0-97-34t-56-91h305q-9 62-52 94t-100 31z"/><glyph glyph-name="Ecaron" unicode="Ě" horiz-adv-x="555" d="M95 710h410v-88H186V407h259v-88H186V88h319V0H95v710zm31 156 35 60 138-82 138 82 35-60-173-100z"/><glyph glyph-name="ecaron" unicode="ě" horiz-adv-x="568" d="M299-8q-56 0-103 20t-81 55-53.5 82T42 250t19.5 101.5 53.5 82 79.5 54.5 98.5 20q52 0 96.5-18.5t77-54 51-87.5T537 229H131q3-33 17-61.5t36-49.5 51.5-33T299 73q48 0 85 18t61 42l55-60q-32-34-83.5-57.5T299-8zm-11 437q-55 0-97-34t-56-91h305q-9 62-52 94t-100 31zm5 140L123 676l34 58 136-86 135 86 35-58z"/><glyph glyph-name="Gcircumflex" unicode="Ĝ" horiz-adv-x="724" d="M409-8q-76 0-142.5 27.5T151 96 74 211.5 46 355t28 143.5 77 115T266.5 690 409 718q72 0 135.5-22.5T656 628l-56-68q-35 33-84.5 52T409 631q-58 0-107.5-21T216 551.5t-56.5-88T139 355q0-59 20.5-109t56.5-87.5 85.5-58.5T409 79q43 0 85.5 9.5T570 118v201H372l39 88h250V72q-50-38-116-59T409-8zM236 826l173 100 173-100-35-60-138 82-138-82z"/><glyph glyph-name="gcircumflex" unicode="ĝ" horiz-adv-x="611" d="M291-194q-54 0-111 15T78-135l45 73q32-23 76.5-37.5T294-114q33 0 63 6.5T410.5-86 448-47t14 59q0 13-3 31t-10 32q-62-60-159-60-56 0-101.5 19T111 86t-50 78-18 97 18 97.5 50 78.5 77.5 52T290 508q48 0 86.5-15t69.5-44v51h86V102q10-26 14.5-51T551 4q0-54-22.5-91.5T469-149t-83.5-34.5T291-194zm1 289q54 0 94 23.5t60 58.5v169q-20 35-60 58t-94 23q-36 0-65.5-12.5t-50.5-35-32.5-52.5-11.5-66q0-35 11.5-65.5t32.5-53 50.5-35T292 95zM131 611l170 107 170-107-35-58-135 86-136-86z"/><glyph glyph-name="Gbreve" unicode="Ğ" horiz-adv-x="724" d="M409-8q-76 0-142.5 27.5T151 96 74 211.5 46 355t28 143.5 77 115T266.5 690 409 718q72 0 135.5-22.5T656 628l-56-68q-35 33-84.5 52T409 631q-58 0-107.5-21T216 551.5t-56.5-88T139 355q0-59 20.5-109t56.5-87.5 85.5-58.5T409 79q43 0 85.5 9.5T570 118v201H372l39 88h250V72q-50-38-116-59T409-8zm-2 780q-35 0-63 11t-48.5 29.5-32 43.5-12.5 53h64q2-31 26-55t67-24 67.5 24 26.5 55h64q-2-28-13.5-53t-32-43.5-49-29.5-64.5-11z"/><glyph glyph-name="gbreve" unicode="ğ" horiz-adv-x="611" d="M291-194q-54 0-111 15T78-135l45 73q32-23 76.5-37.5T294-114q33 0 63 6.5T410.5-86 448-47t14 59q0 13-3 31t-10 32q-62-60-159-60-56 0-101.5 19T111 86t-50 78-18 97 18 97.5 50 78.5 77.5 52T290 508q48 0 86.5-15t69.5-44v51h86V102q10-26 14.5-51T551 4q0-54-22.5-91.5T469-149t-83.5-34.5T291-194zm1 289q54 0 94 23.5t60 58.5v169q-20 35-60 58t-94 23q-36 0-65.5-12.5t-50.5-35-32.5-52.5-11.5-66q0-35 11.5-65.5t32.5-53 50.5-35T292 95zm9 478q-35 0-63 11t-48.5 29.5-32 43.5-12.5 53h64q2-31 26-55t67-24 67.5 24 26.5 55h64q-2-28-13.5-53t-32-43.5-49-29.5-64.5-11z"/><glyph glyph-name="Gdotaccent" unicode="Ġ" horiz-adv-x="724" d="M409-8q-76 0-142.5 27.5T151 96 74 211.5 46 355t28 143.5 77 115T266.5 690 409 718q72 0 135.5-22.5T656 628l-56-68q-35 33-84.5 52T409 631q-58 0-107.5-21T216 551.5t-56.5-88T139 355q0-59 20.5-109t56.5-87.5 85.5-58.5T409 79q43 0 85.5 9.5T570 118v201H372l39 88h250V72q-50-38-116-59T409-8zm-1 788q-25 0-43.5 18.5T346 844q0 26 18.5 44t43.5 18q27 0 45.5-18t18.5-44q0-27-18.5-45.5T408 780z"/><glyph glyph-name="gdotaccent" unicode="ġ" horiz-adv-x="611" d="M291-194q-54 0-111 15T78-135l45 73q32-23 76.5-37.5T294-114q33 0 63 6.5T410.5-86 448-47t14 59q0 13-3 31t-10 32q-62-60-159-60-56 0-101.5 19T111 86t-50 78-18 97 18 97.5 50 78.5 77.5 52T290 508q48 0 86.5-15t69.5-44v51h86V102q10-26 14.5-51T551 4q0-54-22.5-91.5T469-149t-83.5-34.5T291-194zm1 289q54 0 94 23.5t60 58.5v169q-20 35-60 58t-94 23q-36 0-65.5-12.5t-50.5-35-32.5-52.5-11.5-66q0-35 11.5-65.5t32.5-53 50.5-35T292 95zm-1 474q-26 0-44 18t-18 44 18 43.5 44 17.5 44-17.5 18-43.5-18-44-44-18z"/><glyph glyph-name="uni0122" unicode="Ģ" horiz-adv-x="724" d="M360-50h100L351-229h-65zm49 42q-76 0-142.5 27.5T151 96 74 211.5 46 355t28 143.5 77 115T266.5 690 409 718q72 0 135.5-22.5T656 628l-56-68q-35 33-84.5 52T409 631q-58 0-107.5-21T216 551.5t-56.5-88T139 355q0-59 20.5-109t56.5-87.5 85.5-58.5T409 79q43 0 85.5 9.5T570 118v201H372l39 88h250V72q-50-38-116-59T409-8z"/><glyph glyph-name="uni0123" unicode="ģ" horiz-adv-x="611" d="M341.007 542.997h-99.994l108.993 178.989h64.996zM291-194q-54 0-111 15T78-135l45 73q32-23 76.5-37.5T294-114q33 0 63 6.5T410.5-86 448-47t14 59q0 13-3 31t-10 32q-62-60-159-60-56 0-101.5 19T111 86t-50 78-18 97 18 97.5 50 78.5 77.5 52T290 508q48 0 86.5-15t69.5-44v51h86V102q10-26 14.5-51T551 4q0-54-22.5-91.5T469-149t-83.5-34.5T291-194zm1 289q54 0 94 23.5t60 58.5v169q-20 35-60 58t-94 23q-36 0-65.5-12.5t-50.5-35-32.5-52.5-11.5-66q0-35 11.5-65.5t32.5-53 50.5-35T292 95z"/><glyph glyph-name="Hcircumflex" unicode="Ĥ" horiz-adv-x="764" d="M95 710h91V407h392v303h91V0h-91v319H186V0H95v710zm114 116 173 100 173-100-35-60-138 82-138-82z"/><glyph glyph-name="hcircumflex" unicode="ĥ" horiz-adv-x="579" d="M75 710h86V443q29 36 70 50.5t85 14.5q42 0 77.5-14.5t61-40.5 40-64 14.5-84V0h-86v300q0 55-33.5 91T297 427q-53 0-87.5-27.5T161 323V0H75v710zm44 116 173 100 173-100-35-60-138 82-138-82z"/><glyph glyph-name="Hbar" unicode="Ħ" horiz-adv-x="770" d="M35 602h63v108h91V602h392v108h91V602h63v-88h-63V0h-91v319H189V0H98v514H35v88zm546-195v107H189V407h392z"/><glyph glyph-name="hbar" unicode="ħ" horiz-adv-x="579" d="M5 642h70v68h86v-68h171v-74H161V443q29 36 70 50.5t85 14.5q42 0 77.5-14.5t61-40.5 40-64 14.5-84V0h-86v300q0 55-33.5 91T297 427q-53 0-87.5-27.5T161 323V0H75v568H5v74z"/><glyph glyph-name="Itilde" unicode="Ĩ" horiz-adv-x="281" d="M95 710h91V0H95v710zm115 73q-21 0-39 7t-33.5 15-29 15-26.5 7q-20 0-30.5-10.5T36 784h-69l4 18q4 23 14.5 41t25 30T42 891.5t34 6.5q21 0 38.5-7t33-15 29-15 25.5-7q21 0 32 10t16 33h68l-3-18q-8-45-38-70.5T210 783z"/><glyph glyph-name="itilde" unicode="ĩ" horiz-adv-x="236" d="M75 500h86V0H75v500zm-125 85q9 45 38.5 69.5T53 679q21 0 38.5-7t33-15 29-15 25.5-7q21 0 32 11t16 33h66l-3-18q-8-42-36.5-68T187 567q-21 0-39 7t-33.5 15-29 15-26.5 7q-20 0-30.5-11T13 566h-66z"/><glyph glyph-name="Imacron" unicode="Ī" horiz-adv-x="281" d="M95 710h91V0H95v710zM-5 868h292v-65H-5v65z"/><glyph glyph-name="imacron" unicode="ī" horiz-adv-x="236" d="M75 500h86V0H75v500zM-27 679h292v-65H-27v65z"/><glyph glyph-name="Ibreve" unicode="Ĭ" horiz-adv-x="281" d="M95 710h91V0H95v710zm45 62q-35 0-63 11t-48.5 29.5-32 43.5-12.5 53h64q2-31 26-55t67-24 67.5 24 26.5 55h64q-2-28-13.5-53t-32-43.5-49-29.5-64.5-11z"/><glyph glyph-name="ibreve" unicode="ĭ" horiz-adv-x="236" d="M118 573q-35 0-63 11T6.5 613.5t-32 43.5-12.5 53h64q2-31 26-55t67-24 67.5 24 26.5 55h64q-2-28-13.5-53t-32-43.5-49-29.5-64.5-11zm-43-73h86V0H75v500z"/><glyph glyph-name="Iogonek" unicode="Į" horiz-adv-x="281" d="M130-190q-19 0-36.5 6.5t-31 19-21.5 30T33-95q0 29 18 55T95 0v710h91V0q-31-14-51.5-34.5T114-81q0-25 15-36.5t29-11.5q8 0 17.5 3t15.5 8v-54q-27-18-61-18z"/><glyph glyph-name="iogonek" unicode="į" horiz-adv-x="236" d="M75 500h86V0Q80-36 80-75q0-16 12.5-27t37.5-11q11 0 19 2.5t14 4.5v-59q-14-8-29.5-10.5T101-178q-21 0-40 5.5t-33.5 17-23 27.5T-4-91q0 32 24 55.5T75 0v500zm0 109q-19 17-19 46 0 26 18 44.5t44 18.5 44-18.5 18-44.5q0-29-19-46H75z"/><glyph glyph-name="Idotaccent" unicode="İ" horiz-adv-x="281" d="M95 710h91V0H95v710zm44 70q-25 0-43.5 18.5T77 844q0 26 18.5 44t43.5 18q27 0 45.5-18t18.5-44q0-27-18.5-45.5T139 780z"/><glyph glyph-name="dotlessi" unicode="ı" horiz-adv-x="236" d="M75 500h86V0H75v500z"/><glyph glyph-name="Jcircumflex" unicode="Ĵ" horiz-adv-x="523" d="M228-8q-43 0-80.5 13.5T82 45t-44.5 64.5T21 198h91q0-30 9-52.5t25-37 36.5-22T227 79q51 0 84 29t33 90v512h91V192q0-50-16.5-87.5t-45-62.5-66-37.5T228-8zm-12 834 173 100 173-100-35-60-138 82-138-82z"/><glyph glyph-name="jcircumflex" unicode="ĵ" horiz-adv-x="244" d="m-43 611 170 107 170-107-35-58-135 86-136-86zm22-717H9q42 0 58 21t16 59v526h86V-39q0-72-39.5-108.5T18-184h-39v78z"/><glyph glyph-name="uni0136" unicode="Ķ" horiz-adv-x="641" d="M287-50h100L278-229h-65zM95 710h91V354l324 356h112L294 349 649 0H528L186 337V0H95v710z"/><glyph glyph-name="uni0137" unicode="ķ" horiz-adv-x="507" d="M232-50h100L223-229h-65zM75 710h86V274l221 226h108L257 264 513 0H402L161 249V0H75v710z"/><glyph glyph-name="Lacute" unicode="Ĺ" horiz-adv-x="514" d="M95 710h91V89h311V0H95v710zm86 203h108L177 768h-73z"/><glyph glyph-name="lacute" unicode="ĺ" horiz-adv-x="236" d="M75 710h86V0H75v710zm82 203h108L153 768H80z"/><glyph glyph-name="uni013B" unicode="Ļ" horiz-adv-x="514" d="M240-50h100L231-229h-65zM95 710h91V89h311V0H95v710z"/><glyph glyph-name="uni013C" unicode="ļ" horiz-adv-x="236" d="M75 710h86V0H75v710zm0-760h100L66-229H1z"/><glyph glyph-name="Lcaron" unicode="Ľ" horiz-adv-x="515" d="M95 710h91V89h311V0H95v710zm195 0h87l-51-165h-61z"/><glyph glyph-name="lcaron" unicode="ľ" horiz-adv-x="260" d="M75 710h86V0H75v710zm172 0h87l-51-165h-61z"/><glyph glyph-name="Ldot" unicode="Ŀ" horiz-adv-x="520" d="M381 339q-26 0-44 18t-18 44 18 43.5 44 17.5 44-17.5 18-43.5-18-44-44-18zM95 710h91V89h311V0H95v710z"/><glyph glyph-name="ldot" unicode="ŀ" horiz-adv-x="308" d="M272 291q-26 0-44 18t-18 44 18 43.5 44 17.5 44-17.5 18-43.5-18-44-44-18zM75 710h86V0H75v710z"/><glyph glyph-name="Lslash" unicode="Ł" horiz-adv-x="561" d="m16 268 124 81v361h91V408l168 110 42-71-210-137V89h311V0H140v250l-82-53z"/><glyph glyph-name="lslash" unicode="ł" horiz-adv-x="341" d="m11 315 119 77v318h86V448l79 51 39-65-118-77V0h-86v302l-80-52z"/><glyph glyph-name="Nacute" unicode="Ń" horiz-adv-x="787" d="M186 505V0H95v718l506-513v505h91V-8zm223 408h108L405 768h-73z"/><glyph glyph-name="nacute" unicode="ń" horiz-adv-x="579" d="M75 500h86v-57q29 36 70 50.5t85 14.5q42 0 77.5-14.5t61-40.5 40-64 14.5-84V0h-86v300q0 55-33.5 91T297 427q-53 0-87.5-27.5T161 323V0H75v500zm238 210h109L298 545h-72z"/><glyph glyph-name="uni0145" unicode="Ņ" horiz-adv-x="787" d="M362-50h100L353-229h-65zM186 505V0H95v718l506-513v505h91V-8z"/><glyph glyph-name="uni0146" unicode="ņ" horiz-adv-x="579" d="M231-50h100L222-229h-65zM75 500h86v-57q29 36 70 50.5t85 14.5q42 0 77.5-14.5t61-40.5 40-64 14.5-84V0h-86v300q0 55-33.5 91T297 427q-53 0-87.5-27.5T161 323V0H75v500z"/><glyph glyph-name="Ncaron" unicode="Ň" horiz-adv-x="787" d="M186 505V0H95v718l506-513v505h91V-8zm34 361 35 60 138-82 138 82 35-60-173-100z"/><glyph glyph-name="ncaron" unicode="ň" horiz-adv-x="579" d="M75 500h86v-57q29 36 70 50.5t85 14.5q42 0 77.5-14.5t61-40.5 40-64 14.5-84V0h-86v300q0 55-33.5 91T297 427q-53 0-87.5-27.5T161 323V0H75v500zm217 69L122 676l34 58 136-86 135 86 35-58z"/><glyph glyph-name="Omacron" unicode="Ō" horiz-adv-x="818" d="M409 79q58 0 107.5 21t85.5 58.5 56.5 87.5T679 355q0 58-20.5 108.5t-56.5 88-85.5 58.5T409 631t-107.5-21-85.5-58.5-56.5-88T139 355q0-59 20.5-109t56.5-87.5 85.5-58.5T409 79zm0-87q-76 0-142.5 27.5T151 96 74 211.5 46 355t28 143.5 77 115T266.5 690 409 718t142.5-28T667 613.5t77-115T772 355t-28-143.5T667 96 551.5 19.5 409-8zM262 868h292v-65H262v65z"/><glyph glyph-name="omacron" unicode="ō" horiz-adv-x="603" d="M302 73q38 0 69.5 13.5t54 37.5 34.5 56.5 12 69.5-12 69.5-34.5 56.5-54 37.5T302 427t-69.5-13.5-54-37.5-35-56.5T131 250t12.5-69.5 35-56.5 54-37.5T302 73zm0-81q-57 0-104.5 20t-82 55-54 82T42 250t19.5 101 54 82 82 55T302 508q56 0 103.5-20t82-55 54-82T561 250t-19.5-101-54-82-82-55T302-8zM154 679h292v-65H154v65z"/><glyph glyph-name="Obreve" unicode="Ŏ" horiz-adv-x="818" d="M409 79q58 0 107.5 21t85.5 58.5 56.5 87.5T679 355q0 58-20.5 108.5t-56.5 88-85.5 58.5T409 631t-107.5-21-85.5-58.5-56.5-88T139 355q0-59 20.5-109t56.5-87.5 85.5-58.5T409 79zm0-87q-76 0-142.5 27.5T151 96 74 211.5 46 355t28 143.5 77 115T266.5 690 409 718t142.5-28T667 613.5t77-115T772 355t-28-143.5T667 96 551.5 19.5 409-8zm-2 780q-35 0-63 11t-48.5 29.5-32 43.5-12.5 53h64q2-31 26-55t67-24 67.5 24 26.5 55h64q-2-28-13.5-53t-32-43.5-49-29.5-64.5-11z"/><glyph glyph-name="obreve" unicode="ŏ" horiz-adv-x="603" d="M302 73q38 0 69.5 13.5t54 37.5 34.5 56.5 12 69.5-12 69.5-34.5 56.5-54 37.5T302 427t-69.5-13.5-54-37.5-35-56.5T131 250t12.5-69.5 35-56.5 54-37.5T302 73zm0-81q-57 0-104.5 20t-82 55-54 82T42 250t19.5 101 54 82 82 55T302 508q56 0 103.5-20t82-55 54-82T561 250t-19.5-101-54-82-82-55T302-8zm-1 581q-35 0-63 11t-48.5 29.5-32 43.5-12.5 53h64q2-31 26-55t67-24 67.5 24 26.5 55h64q-2-28-13.5-53t-32-43.5-49-29.5-64.5-11z"/><glyph glyph-name="Ohungarumlaut" unicode="Ő" horiz-adv-x="818" d="M409 79q58 0 107.5 21t85.5 58.5 56.5 87.5T679 355q0 58-20.5 108.5t-56.5 88-85.5 58.5T409 631t-107.5-21-85.5-58.5-56.5-88T139 355q0-59 20.5-109t56.5-87.5 85.5-58.5T409 79zm0-87q-76 0-142.5 27.5T151 96 74 211.5 46 355t28 143.5 77 115T266.5 690 409 718t142.5-28T667 613.5t77-115T772 355t-28-143.5T667 96 551.5 19.5 409-8zm-73 921h104L327 768h-68zm200 0h104L527 768h-68z"/><glyph glyph-name="ohungarumlaut" unicode="ő" horiz-adv-x="603" d="M302 73q38 0 69.5 13.5t54 37.5 34.5 56.5 12 69.5-12 69.5-34.5 56.5-54 37.5T302 427t-69.5-13.5-54-37.5-35-56.5T131 250t12.5-69.5 35-56.5 54-37.5T302 73zm0-81q-57 0-104.5 20t-82 55-54 82T42 250t19.5 101 54 82 82 55T302 508q56 0 103.5-20t82-55 54-82T561 250t-19.5-101-54-82-82-55T302-8zm-32 718h101L246 545h-63zm169 0h101L415 545h-63z"/><glyph glyph-name="OE" unicode="Œ" horiz-adv-x="1077" d="M409-8q-76 0-142.5 27.5T151 96 74 211.5 46 355t28 143.5 77 115T266.5 690 409 718q58 0 110-16.5t97-46.5v55h411v-88H703v-51q26-35 42.5-76.5T768 407h198v-88H770q-5-51-22-97t-45-84V88h324V0H616v54q-45-29-97-45.5T409-8zm0 87q58 0 107.5 21t85.5 58.5 56.5 87.5T679 355q0 58-20.5 108.5t-56.5 88-85.5 58.5T409 631t-107.5-21-85.5-58.5-56.5-88T139 355q0-59 20.5-109t56.5-87.5 85.5-58.5T409 79z"/><glyph glyph-name="oe" unicode="œ" horiz-adv-x="999" d="M302-8q-57 0-104.5 20t-82 55-54 82T42 250t19.5 101 54 82 82 55T302 508q70 0 125.5-30t89.5-81q34 51 87.5 81T724 508q52 0 96.5-18.5t77-54 51-87.5T968 229H561q3-33 17-61.5t36.5-49.5 52-33T730 73q48 0 85 18t61 42l55-60q-32-34-83.5-57.5T730-8q-69 0-124 30t-89 81q-34-51-89.5-81T302-8zm0 81q38 0 69.5 13.5t54 37.5 35 56.5T473 250t-12.5 69.5-35 56.5-54 37.5T302 427t-69.5-13.5-54-37.5-35-56.5T131 250t12.5-69.5 35-56.5 54-37.5T302 73zm569 231q-9 62-52 94t-100 31q-27 0-52-8.5t-45.5-25-35-39.5-21.5-52h306z"/><glyph glyph-name="Racute" unicode="Ŕ" horiz-adv-x="619" d="M264 310h-78V0H95v710h211q52 0 94-14t72-40.5 46-63.5 16-82q0-76-45-127.5T366 316L611 0H501zm36 81q70 0 105 31t35 86q0 56-35 87t-105 31H186V391h114zm6 522h108L302 768h-73z"/><glyph glyph-name="racute" unicode="ŕ" horiz-adv-x="350" d="M75 500h86v-59q26 32 61 48t77 16q18 0 35-3v-89q-21 6-48 6-41 0-74.5-20T161 340V0H75v500zm152 210h109L212 545h-72z"/><glyph glyph-name="uni0156" unicode="Ŗ" horiz-adv-x="619" d="M269-50h100L260-229h-65zm-5 360h-78V0H95v710h211q52 0 94-14t72-40.5 46-63.5 16-82q0-76-45-127.5T366 316L611 0H501zm36 81q70 0 105 31t35 86q0 56-35 87t-105 31H186V391h114z"/><glyph glyph-name="uni0157" unicode="ŗ" horiz-adv-x="350" d="M75 500h86v-59q26 32 61 48t77 16q18 0 35-3v-89q-21 6-48 6-41 0-74.5-20T161 340V0H75v500zm1-550h100L67-229H2z"/><glyph glyph-name="Rcaron" unicode="Ř" horiz-adv-x="619" d="M264 310h-78V0H95v710h211q52 0 94-14t72-40.5 46-63.5 16-82q0-76-45-127.5T366 316L611 0H501zm36 81q70 0 105 31t35 86q0 56-35 87t-105 31H186V391h114zM117 866l35 60 138-82 138 82 35-60-173-100z"/><glyph glyph-name="rcaron" unicode="ř" horiz-adv-x="350" d="M75 500h86v-59q26 32 61 48t77 16q18 0 35-3v-89q-21 6-48 6-41 0-74.5-20T161 340V0H75v500zm129 69L34 676l34 58 136-86 135 86 35-58z"/><glyph glyph-name="Sacute" unicode="Ś" horiz-adv-x="528" d="M263-8q-78 0-138.5 32.5T32 102l69 60q26-33 67.5-58T262 79q62 0 98 26.5t36 73.5q0 49-29.5 78T280 311l-65 28q-81 35-118 84.5T60 540q0 40 17.5 73t46.5 56.5 66.5 36T267 718q63 0 113-23.5t86-67.5l-64-64q-28 33-59.5 50.5T264 631q-23 0-43-6t-36-18-25-29.5-9-39.5q0-39 24-67t81-53l65-28q36-16 66.5-35t53-43.5 35-55T488 189q0-44-15.5-80t-45-62-71-40.5T263-8zm33 921h108L292 768h-73z"/><glyph glyph-name="sacute" unicode="ś" horiz-adv-x="420" d="M207-8q-56 0-101.5 24.5T30 92l68 46q20-33 45.5-51T209 69q37 0 63 17t26 46-20 46.5-65 33.5l-39 15q-66 25-92.5 64T55 375q0 28 11.5 52.5T99 470t49.5 28 62.5 10q48 0 87.5-22t62.5-68l-67-39q-25 52-83 52-29 0-50-14.5T140 376q0-23 14.5-41.5T213 300l41-15q64-23 97-58.5t33-91.5q0-30-12.5-56T336 33.5 280.5 3 207-8zm57 718h109L249 545h-72z"/><glyph glyph-name="Scircumflex" unicode="Ŝ" horiz-adv-x="528" d="M263-8q-78 0-138.5 32.5T32 102l69 60q26-33 67.5-58T262 79q62 0 98 26.5t36 73.5q0 49-29.5 78T280 311l-65 28q-81 35-118 84.5T60 540q0 40 17.5 73t46.5 56.5 66.5 36T267 718q63 0 113-23.5t86-67.5l-64-64q-28 33-59.5 50.5T264 631q-23 0-43-6t-36-18-25-29.5-9-39.5q0-39 24-67t81-53l65-28q36-16 66.5-35t53-43.5 35-55T488 189q0-44-15.5-80t-45-62-71-40.5T263-8zM96 826l173 100 173-100-35-60-138 82-138-82z"/><glyph glyph-name="scircumflex" unicode="ŝ" horiz-adv-x="420" d="M207-8q-56 0-101.5 24.5T30 92l68 46q20-33 45.5-51T209 69q37 0 63 17t26 46-20 46.5-65 33.5l-39 15q-66 25-92.5 64T55 375q0 28 11.5 52.5T99 470t49.5 28 62.5 10q48 0 87.5-22t62.5-68l-67-39q-25 52-83 52-29 0-50-14.5T140 376q0-23 14.5-41.5T213 300l41-15q64-23 97-58.5t33-91.5q0-30-12.5-56T336 33.5 280.5 3 207-8zM43 611l170 107 170-107-35-58-135 86-136-86z"/><glyph glyph-name="Scedilla" unicode="Ş" horiz-adv-x="528" d="M241-7q-70 5-125 36t-84 73l69 60q26-33 67.5-58T262 79q62 0 98 26.5t36 73.5q0 49-29.5 78T280 311l-65 28q-81 35-118 84.5T60 540q0 40 17.5 73t46.5 56.5 66.5 36T267 718q63 0 113-23.5t86-67.5l-64-64q-28 33-59.5 50.5T264 631q-23 0-43-6t-36-18-25-29.5-9-39.5q0-39 24-67t81-53l65-28q36-16 66.5-35t53-43.5 35-55T488 189q0-79-49-131.5T302-5l-36-130h-98z"/><glyph glyph-name="scedilla" unicode="ş" horiz-adv-x="420" d="M175-6q-45 6-82 30T30 92l68 46q20-33 45.5-51T209 69q37 0 63 17t26 46-20 46.5-65 33.5l-39 15q-66 25-92.5 64T55 375q0 28 11.5 52.5T99 470t49.5 28 62.5 10q48 0 87.5-22t62.5-68l-67-39q-25 52-83 52-29 0-50-14.5T140 376q0-23 14.5-41.5T213 300l41-15q64-23 97-58.5t33-91.5q0-55-39.5-94.5T236-6l-36-129h-98z"/><glyph glyph-name="Scaron" unicode="Š" horiz-adv-x="528" d="M263-8q-78 0-138.5 32.5T32 102l69 60q26-33 67.5-58T262 79q62 0 98 26.5t36 73.5q0 49-29.5 78T280 311l-65 28q-81 35-118 84.5T60 540q0 40 17.5 73t46.5 56.5 66.5 36T267 718q63 0 113-23.5t86-67.5l-64-64q-28 33-59.5 50.5T264 631q-23 0-43-6t-36-18-25-29.5-9-39.5q0-39 24-67t81-53l65-28q36-16 66.5-35t53-43.5 35-55T488 189q0-44-15.5-80t-45-62-71-40.5T263-8zM96 866l35 60 138-82 138 82 35-60-173-100z"/><glyph glyph-name="scaron" unicode="š" horiz-adv-x="420" d="M207-8q-56 0-101.5 24.5T30 92l68 46q20-33 45.5-51T209 69q37 0 63 17t26 46-20 46.5-65 33.5l-39 15q-66 25-92.5 64T55 375q0 28 11.5 52.5T99 470t49.5 28 62.5 10q48 0 87.5-22t62.5-68l-67-39q-25 52-83 52-29 0-50-14.5T140 376q0-23 14.5-41.5T213 300l41-15q64-23 97-58.5t33-91.5q0-30-12.5-56T336 33.5 280.5 3 207-8zm6 577L43 676l34 58 136-86 135 86 35-58z"/><glyph glyph-name="uni0162" unicode="Ţ" horiz-adv-x="526" d="M214-50h100L205-229h-65zm3 672H16v88h494v-88H308V0h-91v622z"/><glyph glyph-name="uni0163" unicode="ţ" horiz-adv-x="365" d="M9 500h99v107l86 43V500h151l-19-78H194V158q0-38 16-59t58-21h67V0h-76q-72 0-111.5 36.5T108 145v277H28zM179-50h100L170-229h-65z"/><glyph glyph-name="Tcaron" unicode="Ť" horiz-adv-x="526" d="M217 622H16v88h494v-88H308V0h-91v622zM90 866l35 60 138-82 138 82 35-60-173-100z"/><glyph glyph-name="tcaron" unicode="ť" horiz-adv-x="366" d="M9 500h99v107l86 43V500h151l-19-78H194V158q0-38 16-59t58-21h67V0h-76q-72 0-111.5 36.5T108 145v277H28zm275 210h87l-51-165h-61z"/><glyph glyph-name="Utilde" unicode="Ũ" horiz-adv-x="738" d="M369-8q-62 0-114 19t-89.5 55-58.5 87.5T86 270v440h91V266q0-46 14-81t39.5-58.5T291 91t78-12 78 12 60.5 35.5T547 185t14 81v444h91V270q0-65-21-116.5T572.5 66 483 11 369-8zm68 791q-21 0-39 7t-33.5 15-29 15-26.5 7q-20 0-30.5-10.5T263 784h-69l4 18q4 23 14.5 41t25 30 31.5 18.5 34 6.5q21 0 38.5-7t33-15 29-15 25.5-7q21 0 32 10t16 33h68l-3-18q-8-45-38-70.5T437 783z"/><glyph glyph-name="utilde" unicode="ũ" horiz-adv-x="578" d="M417 56q-29-36-69.5-50T263-8q-43 0-78.5 14.5t-61 40.5T84 110.5 70 195v305h86V200q0-55 33.5-91T281 73q52 0 86.5 26t49.5 74v327h86V0h-86v56zM116 585q9 45 38.5 69.5T219 679q21 0 38.5-7t33-15 29-15 25.5-7q21 0 32 11t16 33h66l-3-18q-8-42-36.5-68T353 567q-21 0-39 7t-33.5 15-29 15-26.5 7q-20 0-30.5-11T179 566h-66z"/><glyph glyph-name="Umacron" unicode="Ū" horiz-adv-x="738" d="M369-8q-62 0-114 19t-89.5 55-58.5 87.5T86 270v440h91V266q0-46 14-81t39.5-58.5T291 91t78-12 78 12 60.5 35.5T547 185t14 81v444h91V270q0-65-21-116.5T572.5 66 483 11 369-8zM222 868h292v-65H222v65z"/><glyph glyph-name="umacron" unicode="ū" horiz-adv-x="578" d="M417 56q-29-36-69.5-50T263-8q-43 0-78.5 14.5t-61 40.5T84 110.5 70 195v305h86V200q0-55 33.5-91T281 73q52 0 86.5 26t49.5 74v327h86V0h-86v56zM139 679h292v-65H139v65z"/><glyph glyph-name="Ubreve" unicode="Ŭ" horiz-adv-x="738" d="M369-8q-62 0-114 19t-89.5 55-58.5 87.5T86 270v440h91V266q0-46 14-81t39.5-58.5T291 91t78-12 78 12 60.5 35.5T547 185t14 81v444h91V270q0-65-21-116.5T572.5 66 483 11 369-8zm-2 780q-35 0-63 11t-48.5 29.5-32 43.5-12.5 53h64q2-31 26-55t67-24 67.5 24 26.5 55h64q-2-28-13.5-53t-32-43.5-49-29.5-64.5-11z"/><glyph glyph-name="ubreve" unicode="ŭ" horiz-adv-x="578" d="M417 56q-29-36-69.5-50T263-8q-43 0-78.5 14.5t-61 40.5T84 110.5 70 195v305h86V200q0-55 33.5-91T281 73q52 0 86.5 26t49.5 74v327h86V0h-86v56zM284 573q-35 0-63 11t-48.5 29.5-32 43.5-12.5 53h64q2-31 26-55t67-24 67.5 24 26.5 55h64q-2-28-13.5-53t-32-43.5-49-29.5-64.5-11z"/><glyph glyph-name="Uring" unicode="Ů" horiz-adv-x="738" d="M369-8q-62 0-114 19t-89.5 55-58.5 87.5T86 270v440h91V266q0-46 14-81t39.5-58.5T291 91t78-12 78 12 60.5 35.5T547 185t14 81v444h91V270q0-65-21-116.5T572.5 66 483 11 369-8zm-1 806q20 0 34 13t14 34-14 34.5-34 13.5-34-13.5-14-34.5 14-34 34-13zm0-47q-42 0-70.5 26.5T269 845q0 42 29 68.5t70 26.5 70-26.5 29-68.5q0-41-28.5-67.5T368 751z"/><glyph glyph-name="uring" unicode="ů" horiz-adv-x="578" d="M417 56q-29-36-69.5-50T263-8q-43 0-78.5 14.5t-61 40.5T84 110.5 70 195v305h86V200q0-55 33.5-91T281 73q52 0 86.5 26t49.5 74v327h86V0h-86v56zM285 613q20 0 34 13t14 34q0 22-14 35t-34 13-34-13-14-35q0-21 14-34t34-13zm0-47q-21 0-39 7t-31.5 20-21 30-7.5 37q0 42 29 68.5t70 26.5 70-26.5 29-68.5q0-20-7.5-37t-21-30-31.5-20-39-7z"/><glyph glyph-name="Uhungarumlaut" unicode="Ű" horiz-adv-x="738" d="M369-8q-62 0-114 19t-89.5 55-58.5 87.5T86 270v440h91V266q0-46 14-81t39.5-58.5T291 91t78-12 78 12 60.5 35.5T547 185t14 81v444h91V270q0-65-21-116.5T572.5 66 483 11 369-8zm-73 921h104L287 768h-68zm200 0h104L487 768h-68z"/><glyph glyph-name="uhungarumlaut" unicode="ű" horiz-adv-x="578" d="M417 56q-29-36-69.5-50T263-8q-43 0-78.5 14.5t-61 40.5T84 110.5 70 195v305h86V200q0-55 33.5-91T281 73q52 0 86.5 26t49.5 74v327h86V0h-86v56zM235 710h101L211 545h-63zm169 0h101L380 545h-63z"/><glyph glyph-name="Uogonek" unicode="Ų" horiz-adv-x="738" d="M391-189q-22 0-41.5 6T315-165.5t-23.5 28T283-100q0 28 18.5 53T346-7q-57 3-105 23.5t-82.5 56T105 158 86 270v440h91V266q0-46 14-81t39.5-58.5T291 91t78-12 78 12 60.5 35.5T547 185t14 81v444h91V270q0-55-15-100.5t-42.5-80-66.5-57T442 0q-36-18-54.5-41T369-84q0-17 13-28.5t37-11.5q11 0 20.5 2.5T455-117v-59q-27-13-64-13z"/><glyph glyph-name="uogonek" unicode="ų" horiz-adv-x="578" d="M443-178q-21 0-40 5.5t-33.5 17-23 27.5-8.5 37q0 32 24 55.5T417 0v56q-29-36-69.5-50T263-8q-43 0-78.5 14.5t-61 40.5T84 110.5 70 195v305h86V200q0-55 33.5-91T281 73q52 0 86.5 26t49.5 74v327h86V0h1q-82-36-82-75 0-16 12.5-27t37.5-11q11 0 19 2.5t14 4.5v-59q-14-8-29.5-10.5T443-178z"/><glyph glyph-name="Wcircumflex" unicode="Ŵ" horiz-adv-x="889" d="M8 710h94l157-474 185 482 186-482 157 474h94L637-8 444 493 252-8zm263 116 173 100 173-100-35-60-138 82-138-82z"/><glyph glyph-name="wcircumflex" unicode="ŵ" horiz-adv-x="700" d="m171 611 170 107 170-107-35-58-135 86-136-86zM11 500h89l112-364 138 372 138-372 112 364h89L531 0h-69L350 303 239 0h-70z"/><glyph glyph-name="Ycircumflex" unicode="Ŷ" horiz-adv-x="628" d="M268 301 8 710h106l200-320 200 320h106L360 301V0h-92v301zM141 826l173 100 173-100-35-60-138 82-138-82z"/><glyph glyph-name="ycircumflex" unicode="ŷ" horiz-adv-x="507" d="M210 42 6 500h93l156-364 157 364h93L198-184h-91zM85 611l170 107 170-107-35-58-135 86-136-86z"/><glyph glyph-name="Ydieresis" unicode="Ÿ" horiz-adv-x="628" d="M268 301 8 710h106l200-320 200 320h106L360 301V0h-92v301zm-67 481q-24 0-42.5 18T140 844q0 25 18.5 42.5T201 904q26 0 44-17.5t18-42.5q0-26-18-44t-44-18zm225 0q-25 0-43 18t-18 44q0 25 18 42.5t43 17.5q26 0 44-17.5t18-42.5q0-26-18-44t-44-18z"/><glyph glyph-name="Zacute" unicode="Ź" horiz-adv-x="593" d="M404 622H52v88h508L165 88h397V0H9zm-86 291h108L314 768h-73z"/><glyph glyph-name="zacute" unicode="ź" horiz-adv-x="486" d="M310 422H48v78h411L166 78h283V0H16zm-36 288h109L259 545h-72z"/><glyph glyph-name="Zdotaccent" unicode="Ż" horiz-adv-x="593" d="M404 622H52v88h508L165 88h397V0H9zm-98 158q-25 0-43.5 18.5T244 844q0 26 18.5 44t43.5 18q27 0 45.5-18t18.5-44q0-27-18.5-45.5T306 780z"/><glyph glyph-name="zdotaccent" unicode="ż" horiz-adv-x="486" d="M310 422H48v78h411L166 78h283V0H16zm-56 147q-26 0-44 18t-18 44 18 43.5 44 17.5 44-17.5 18-43.5-18-44-44-18z"/><glyph glyph-name="Zcaron" unicode="Ž" horiz-adv-x="593" d="M404 622H52v88h508L165 88h397V0H9zM133 866l35 60 138-82 138 82 35-60-173-100z"/><glyph glyph-name="zcaron" unicode="ž" horiz-adv-x="486" d="M310 422H48v78h411L166 78h283V0H16zm-57 147L83 676l34 58 136-86 135 86 35-58z"/><glyph glyph-name="uni0218" unicode="Ș" horiz-adv-x="528" d="M218-50h100L209-229h-65zm45 42q-78 0-138.5 32.5T32 102l69 60q26-33 67.5-58T262 79q62 0 98 26.5t36 73.5q0 49-29.5 78T280 311l-65 28q-81 35-118 84.5T60 540q0 40 17.5 73t46.5 56.5 66.5 36T267 718q63 0 113-23.5t86-67.5l-64-64q-28 33-59.5 50.5T264 631q-23 0-43-6t-36-18-25-29.5-9-39.5q0-39 24-67t81-53l65-28q36-16 66.5-35t53-43.5 35-55T488 189q0-44-15.5-80t-45-62-71-40.5T263-8z"/><glyph glyph-name="uni0219" unicode="ș" horiz-adv-x="420" d="M149-50h100L140-229H75zm58 42q-56 0-101.5 24.5T30 92l68 46q20-33 45.5-51T209 69q37 0 63 17t26 46-20 46.5-65 33.5l-39 15q-66 25-92.5 64T55 375q0 28 11.5 52.5T99 470t49.5 28 62.5 10q48 0 87.5-22t62.5-68l-67-39q-25 52-83 52-29 0-50-14.5T140 376q0-23 14.5-41.5T213 300l41-15q64-23 97-58.5t33-91.5q0-30-12.5-56T336 33.5 280.5 3 207-8z"/><glyph glyph-name="uni021A" unicode="Ț" horiz-adv-x="526" d="M214-50h100L205-229h-65zm3 672H16v88h494v-88H308V0h-91v622z"/><glyph glyph-name="uni021B" unicode="ț" horiz-adv-x="365" d="M9 500h99v107l86 43V500h151l-19-78H194V158q0-38 16-59t58-21h67V0h-76q-72 0-111.5 36.5T108 145v277H28zM179-50h100L170-229h-65z"/><glyph glyph-name="uni0232" unicode="Ȳ" horiz-adv-x="628" d="M268 301 8 710h106l200-320 200 320h106L360 301V0h-92v301zM167 868h292v-65H167v65z"/><glyph glyph-name="uni0233" unicode="ȳ" horiz-adv-x="507" d="M210 42 6 500h93l156-364 157 364h93L198-184h-91zM108 679h292v-65H108v65z"/><glyph glyph-name="uni0237" unicode="ȷ" horiz-adv-x="244" d="M-21-106H9q42 0 58 21t16 59v526h86V-39q0-72-39.5-108.5T18-184h-39v78z"/><glyph glyph-name="circumflex" unicode="ˆ" horiz-adv-x="396" d="m26 611 170 107 170-107-35-58-135 86-136-86z"/><glyph glyph-name="caron" unicode="ˇ" horiz-adv-x="404" d="M196 569 26 676l34 58 136-86 135 86 35-58z"/><glyph glyph-name="breve" unicode="˘" horiz-adv-x="379" d="M188 573q-35 0-63 11t-48.5 29.5-32 43.5T32 710h64q2-31 26-55t67-24 67.5 24 26.5 55h64q-2-28-13.5-53t-32-43.5-49-29.5-64.5-11z"/><glyph glyph-name="dotaccent" unicode="˙" horiz-adv-x="177" d="M89 569q-26 0-44 18t-18 44 18 43.5T89 692t44-17.5 18-43.5-18-44-44-18z"/><glyph glyph-name="ring" unicode="˚" horiz-adv-x="264" d="M132 613q20 0 34 13t14 34q0 22-14 35t-34 13-34-13-14-35q0-21 14-34t34-13zm0-47q-21 0-39 7t-31.5 20-21 30-7.5 37q0 42 29 68.5t70 26.5 70-26.5 29-68.5q0-20-7.5-37t-21-30-31.5-20-39-7z"/><glyph glyph-name="ogonek" unicode="˛" horiz-adv-x="240" d="M141-178q-21 0-40 5.5t-33.5 17-23 27.5T36-91q0 32 24 55.5T115 0h87q-82-36-82-75 0-16 12.5-27t37.5-11q11 0 19 2.5t14 4.5v-59q-14-8-29.5-10.5T141-178z"/><glyph glyph-name="tilde" unicode="˜" horiz-adv-x="434" d="M47 585q9 45 38.5 69.5T150 679q21 0 38.5-7t33-15 29-15 25.5-7q21 0 32 11t16 33h66l-3-18q-8-42-36.5-68T284 567q-21 0-39 7t-33.5 15-29 15-26.5 7q-20 0-30.5-11T110 566H44z"/><glyph glyph-name="hungarumlaut" unicode="˝" horiz-adv-x="425" d="M120 710h101L96 545H33zm169 0h101L265 545h-63z"/><glyph glyph-name="Wgrave" unicode="Ẁ" horiz-adv-x="889" d="M8 710h94l157-474 185 482 186-482 157 474h94L637-8 444 493 252-8zm286 203h109l77-145h-73z"/><glyph glyph-name="wgrave" unicode="ẁ" horiz-adv-x="700" d="M11 500h89l112-364 138 372 138-372 112 364h89L531 0h-69L350 303 239 0h-70zm181 210h109l87-165h-71z"/><glyph glyph-name="Wacute" unicode="Ẃ" horiz-adv-x="889" d="M8 710h94l157-474 185 482 186-482 157 474h94L637-8 444 493 252-8zm477 203h108L481 768h-73z"/><glyph glyph-name="wacute" unicode="ẃ" horiz-adv-x="700" d="M394 710h109L379 545h-72zM11 500h89l112-364 138 372 138-372 112 364h89L531 0h-69L350 303 239 0h-70z"/><glyph glyph-name="Wdieresis" unicode="Ẅ" horiz-adv-x="889" d="M8 710h94l157-474 185 482 186-482 157 474h94L637-8 444 493 252-8zm323 72q-24 0-42.5 18T270 844q0 25 18.5 42.5T331 904q26 0 44-17.5t18-42.5q0-26-18-44t-44-18zm225 0q-25 0-43 18t-18 44q0 25 18 42.5t43 17.5q26 0 44-17.5t18-42.5q0-26-18-44t-44-18z"/><glyph glyph-name="wdieresis" unicode="ẅ" horiz-adv-x="700" d="M239 571q-24 0-42 17t-18 43q0 25 18 42t42 17q26 0 43.5-17t17.5-42q0-26-17.5-43T239 571zm225 0q-25 0-42.5 17T404 631q0 25 17.5 42t42.5 17q26 0 43-17t17-42q0-26-17-43t-43-17zM11 500h89l112-364 138 372 138-372 112 364h89L531 0h-69L350 303 239 0h-70z"/><glyph glyph-name="uni1ECA" unicode="Ị" horiz-adv-x="281" d="M95 710h91V0H95v710zm45-902q-26 0-44 18t-18 44 18 43.5T140-69t44-17.5 18-43.5-18-44-44-18z"/><glyph glyph-name="uni1ECB" unicode="ị" horiz-adv-x="236" d="M75 609q-19 17-19 46 0 26 18 44.5t44 18.5 44-18.5 18-44.5q0-29-19-46H75zm0-109h86V0H75v500zm41-692q-26 0-44 18t-18 44 18 43.5T116-69t44-17.5 18-43.5-18-44-44-18z"/><glyph glyph-name="uni1ECC" unicode="Ọ" horiz-adv-x="818" d="M409 79q58 0 107.5 21t85.5 58.5 56.5 87.5T679 355q0 58-20.5 108.5t-56.5 88-85.5 58.5T409 631t-107.5-21-85.5-58.5-56.5-88T139 355q0-59 20.5-109t56.5-87.5 85.5-58.5T409 79zm0-87q-76 0-142.5 27.5T151 96 74 211.5 46 355t28 143.5 77 115T266.5 690 409 718t142.5-28T667 613.5t77-115T772 355t-28-143.5T667 96 551.5 19.5 409-8zm0-184q-26 0-44 18t-18 44 18 43.5T409-69t44-17.5 18-43.5-18-44-44-18z"/><glyph glyph-name="uni1ECD" unicode="ọ" horiz-adv-x="603" d="M302 73q38 0 69.5 13.5t54 37.5 34.5 56.5 12 69.5-12 69.5-34.5 56.5-54 37.5T302 427t-69.5-13.5-54-37.5-35-56.5T131 250t12.5-69.5 35-56.5 54-37.5T302 73zm0-81q-57 0-104.5 20t-82 55-54 82T42 250t19.5 101 54 82 82 55T302 508q56 0 103.5-20t82-55 54-82T561 250t-19.5-101-54-82-82-55T302-8zm-1-184q-26 0-44 18t-18 44 18 43.5T301-69t44-17.5 18-43.5-18-44-44-18z"/><glyph glyph-name="uni1EE4" unicode="Ụ" horiz-adv-x="738" d="M369-8q-62 0-114 19t-89.5 55-58.5 87.5T86 270v440h91V266q0-46 14-81t39.5-58.5T291 91t78-12 78 12 60.5 35.5T547 185t14 81v444h91V270q0-65-21-116.5T572.5 66 483 11 369-8zm0-184q-26 0-44 18t-18 44 18 43.5T369-69t44-17.5 18-43.5-18-44-44-18z"/><glyph glyph-name="uni1EE5" unicode="ụ" horiz-adv-x="578" d="M417 56q-29-36-69.5-50T263-8q-43 0-78.5 14.5t-61 40.5T84 110.5 70 195v305h86V200q0-55 33.5-91T281 73q52 0 86.5 26t49.5 74v327h86V0h-86v56zM286-192q-26 0-44 18t-18 44 18 43.5T286-69t44-17.5 18-43.5-18-44-44-18z"/><glyph glyph-name="Ygrave" unicode="Ỳ" horiz-adv-x="628" d="M268 301 8 710h106l200-320 200 320h106L360 301V0h-92v301zm-93 612h109l77-145h-73z"/><glyph glyph-name="ygrave" unicode="ỳ" horiz-adv-x="507" d="M210 42 6 500h93l156-364 157 364h93L198-184h-91zm-85 668h109l87-165h-71z"/><glyph glyph-name="endash" unicode="–" horiz-adv-x="570" d="M68 314h434v-81H68v81z"/><glyph glyph-name="emdash" unicode="—" horiz-adv-x="867" d="M68 314h731v-81H68v81z"/><glyph glyph-name="quoteleft" unicode="‘" horiz-adv-x="244" d="M131 568h51V445H60v124l57 141h57z"/><glyph glyph-name="quoteright" unicode="’" horiz-adv-x="233" d="M112 587H61v123h122V586l-57-141H69z"/><glyph glyph-name="quotesinglbase" unicode="‚" horiz-adv-x="258" d="M119 0H68v123h122V-1l-57-141H76z"/><glyph glyph-name="quotedblleft" unicode="“" horiz-adv-x="439" d="M131 568h51V445H60v124l57 141h57zm195 0h51V445H255v124l57 141h57z"/><glyph glyph-name="quotedblright" unicode="”" horiz-adv-x="428" d="M112 587H61v123h122V586l-57-141H69zm195 0h-51v123h122V586l-57-141h-57z"/><glyph glyph-name="quotedblbase" unicode="„" horiz-adv-x="453" d="M119 0H68v123h122V-1l-57-141H76zm195 0h-51v123h122V-1l-57-141h-57z"/><glyph glyph-name="bullet" unicode="•" horiz-adv-x="420" d="M210 166q-28 0-53 10.5t-43.5 29-29 43.5T74 302t10.5 53 29 43.5 43.5 29 53 10.5 53-10.5 43.5-29 29-43.5 10.5-53-10.5-53-29-43.5-43.5-29-53-10.5z"/><glyph glyph-name="ellipsis" unicode="…" horiz-adv-x="685" d="M125-8Q95-8 73 13.5T51 66t22 52.5 52 21.5q31 0 52.5-21.5T199 66t-21.5-52.5T125-8zm217 0q-30 0-52 21.5T268 66t22 52.5 52 21.5q31 0 52.5-21.5T416 66t-21.5-52.5T342-8zm218 0q-30 0-52 21.5T486 66t22 52.5 52 21.5q31 0 52.5-21.5T634 66t-21.5-52.5T560-8z"/><glyph glyph-name="guilsinglleft" unicode="‹" horiz-adv-x="307" d="m42 250 152 221 62-42-123-179L256 71l-62-42z"/><glyph glyph-name="guilsinglright" unicode="›" horiz-adv-x="307" d="M113 29 51 71l123 179L51 429l62 42 152-221z"/><glyph glyph-name="Euro" unicode="€" horiz-adv-x="748" d="M65 458h99q16 57 48 104.5t77 82 101 54T509 718q66 0 115-16t93-45l-33-76q-33 25-75.5 41.5T509 639q-45 0-85.5-13T350 589.5t-58-57-39-74.5h373l-28-61H238q-1-11-1.5-21t-.5-21 .5-21 1.5-20h316l-28-60H252q14-42 39-75.5t58-57.5 74-37 86-13q39 0 73 9.5t63 26.5V18Q582-8 509-8q-63 0-119 19.5t-101 54-77.5 83T164 254H37l28 60h88q-2 10-2 20v42l2 21H37z"/><glyph glyph-name="minus" unicode="−" horiz-adv-x="590" d="M76 310h438v-70H76v70z"/><glyph glyph-name="uniFB01" unicode="ﬁ" horiz-adv-x="599" d="M27 500h84q-17 17-27 39.5T74 588t10.5 48.5 29.5 39 46 25.5 60 9h118v-78H234q-32 0-54-15.5T158 569q0-33 22-50t47-19h111v-78H199V0h-86v422H27v78zm411 109q-19 17-19 46 0 26 18 44.5t44 18.5 44-18.5 18-44.5q0-29-19-46h-86zm0-109h86V0h-86v500z"/><glyph glyph-name="uniFB02" unicode="ﬂ" horiz-adv-x="599" d="M27 500h84q-17 17-27 39.5T74 588t10.5 48.5 29.5 39 46 25.5 60 9h118v-78H234q-32 0-54-15.5T158 569q0-33 22-50t47-19h111v-78H199V0h-86v422H27v78zm411 210h86V0h-86v710z"/><glyph glyph-name="glyph332" horiz-adv-x="177" d="M89-192q-26 0-44 18t-18 44 18 43.5T89-69t44-17.5 18-43.5-18-44-44-18z"/><glyph glyph-name="glyph334" horiz-adv-x="249" d="M106-50h100L97-229H32z"/><glyph glyph-name="glyph338" horiz-adv-x="500" d="M233 710h87l-51-165h-61z"/><glyph glyph-name="glyph339" horiz-adv-x="267" d="M123 913h108L119 768H46z"/><glyph glyph-name="glyph340" horiz-adv-x="379" d="M188 772q-35 0-63 11t-48.5 29.5-32 43.5T32 909h64q2-31 26-55t67-24 67.5 24 26.5 55h64q-2-28-13.5-53t-32-43.5-49-29.5-64.5-11z"/><glyph glyph-name="glyph341" horiz-adv-x="396" d="m25 866 35 60 138-82 138 82 35-60-173-100z"/><glyph glyph-name="glyph342" horiz-adv-x="395" d="m25 826 173 100 173-100-35-60-138 82-138-82z"/><glyph glyph-name="glyph343" horiz-adv-x="409" d="M126 782q-24 0-42.5 18T65 844q0 25 18.5 42.5T126 904q26 0 44-17.5t18-42.5q0-26-18-44t-44-18zm225 0q-25 0-43 18t-18 44q0 25 18 42.5t43 17.5q26 0 44-17.5t18-42.5q0-26-18-44t-44-18z"/><glyph glyph-name="glyph344" horiz-adv-x="179" d="M89 780q-25 0-43.5 18.5T27 844q0 26 18.5 44T89 906q27 0 45.5-18t18.5-44q0-27-18.5-45.5T89 780z"/><glyph glyph-name="glyph345" horiz-adv-x="267" d="M37 913h109l77-145h-73z"/><glyph glyph-name="glyph346" horiz-adv-x="461" d="M123 913h104L114 768H46zm200 0h104L314 768h-68z"/><glyph glyph-name="glyph347" horiz-adv-x="365" d="M37 868h292v-65H37v65z"/><glyph glyph-name="glyph348" horiz-adv-x="264" d="M132 798q20 0 34 13t14 34-14 34.5-34 13.5-34-13.5T84 845t14-34 34-13zm0-47q-42 0-70.5 26.5T33 845q0 42 29 68.5t70 26.5 70-26.5 29-68.5q0-41-28.5-67.5T132 751z"/><glyph glyph-name="glyph349" horiz-adv-x="435" d="M284 783q-21 0-39 7t-33.5 15-29 15-26.5 7q-20 0-30.5-10.5T110 784H41l4 18q4 23 14.5 41t25 30 31.5 18.5 34 6.5q21 0 38.5-7t33-15 29-15 25.5-7q21 0 32 10t16 33h68l-3-18q-8-45-38-70.5T284 783z"/></font>
</defs>
</svg>
