<?xml version="1.0" standalone="no"?>
<!DOCTYPE svg PUBLIC "-//W3C//DTD SVG 1.1//EN" "http://www.w3.org/Graphics/SVG/1.1/DTD/svg11.dtd" >
<svg xmlns="http://www.w3.org/2000/svg" xmlns:xlink="http://www.w3.org/1999/xlink" version="1.1">
<metadata>
Created by FontForge 20170731 at Thu Apr 27 11:45:27 2017
 By Aleksey,,,
Copyright (c) 2017 Swiss Typefaces Sa`rl. All rights reserved.
</metadata>
<defs>
<font id="Font" horiz-adv-x="612" >
  <font-face 
    font-family="Font"
    font-weight="250"
    font-style="italic"
    font-stretch="normal"
    units-per-em="1000"
    panose-1="2 11 2 0 3 0 0 0 0 0"
    ascent="800"
    descent="-200"
    x-height="500"
    cap-height="710"
    bbox="-111 -215 1180 928"
    underline-thickness="19"
    underline-position="-108"
    slope="-12"
    unicode-range="U+000D-FB02"
  />
<missing-glyph horiz-adv-x="496" 
 />
    <glyph glyph-name=".notdef" horiz-adv-x="496" 
 />
    <glyph glyph-name="glyph1" horiz-adv-x="0" 
 />
    <glyph glyph-name="uni000D" unicode="&#xd;" horiz-adv-x="260" 
 />
    <glyph glyph-name="space" unicode=" " horiz-adv-x="260" 
 />
    <glyph glyph-name="exclam" unicode="!" horiz-adv-x="234" 
d="M161 508l43 202h22l-43 -202l-78 -345h-15zM74 0q-4 -4 -9 -4q-3 0 -6 1t-4 3l22 103h19z" />
    <glyph glyph-name="quotedbl" unicode="&#x22;" horiz-adv-x="380" 
d="M146 710h19v-225h-19v225zM348 710h19v-225h-19v225z" />
    <glyph glyph-name="numbersign" unicode="#" horiz-adv-x="707" 
d="M452 224h-228l-70 -224h-20l70 224h-165v19h171l73 231h-164v19h170l68 217h19l-68 -217h229l68 217h18l-68 -217h160v-19h-166l-72 -231h157v-19h-163l-70 -224h-19zM230 243h228l73 231h-229z" />
    <glyph glyph-name="dollar" unicode="$" horiz-adv-x="515" 
d="M453 163q0 -32 -12.5 -63t-38.5 -55t-66 -38.5t-95 -14.5q-8 0 -16 0.5t-16 1.5l-18 -81h-19l19 84q-32 6 -59.5 18t-50 29t-38.5 37.5t-25 42.5l18 9q10 -24 29 -46.5t45.5 -39t60 -26.5t72.5 -10q47 0 82.5 12t59.5 32.5t36 48t12 58.5q0 32 -8 57.5t-23 47t-37 40
t-51 37.5l-90 59q-48 32 -72 68.5t-24 84.5q0 75 49.5 118.5t139.5 43.5q6 0 12.5 -0.5t13.5 -1.5l18 82h19l-19 -84q40 -8 77 -30.5t67 -66.5l-17 -11q-34 52 -79 72.5t-95 20.5q-36 0 -66.5 -9.5t-52.5 -27.5t-34.5 -44.5t-12.5 -60.5q0 -48 23 -80t68 -61l90 -59
q61 -40 92.5 -84.5t31.5 -109.5z" />
    <glyph glyph-name="percent" unicode="%" horiz-adv-x="1118" 
d="M295 339q37 0 69.5 14t56.5 38t38 56.5t14 69.5t-14 69.5t-38 56.5t-56.5 38t-69.5 14t-69.5 -14t-56.5 -38t-38 -56.5t-14 -69.5t14 -69.5t38 -56.5t56.5 -38t69.5 -14zM295 320q-41 0 -77 15.5t-62.5 42.5t-42 62.5t-15.5 76.5q0 40 15.5 76t42 63t62.5 42.5t77 15.5
q40 0 76 -15.5t63 -42.5t42.5 -63t15.5 -76q0 -41 -15.5 -76.5t-42.5 -62.5t-63 -42.5t-76 -15.5zM825 710h22l-510 -710h-22zM867 15q37 0 69.5 14t56.5 38t38 56.5t14 69.5t-14 69.5t-38 56.5t-56.5 38t-69.5 14t-69.5 -14t-56.5 -38t-38 -56.5t-14 -69.5t14 -69.5
t38 -56.5t56.5 -38t69.5 -14zM867 -4q-41 0 -77 15.5t-62.5 42.5t-42 62.5t-15.5 76.5q0 40 15.5 76t42 63t62.5 42.5t77 15.5q40 0 76 -15.5t63 -42.5t42.5 -63t15.5 -76q0 -41 -15.5 -76.5t-42.5 -62.5t-63 -42.5t-76 -15.5z" />
    <glyph glyph-name="ampersand" unicode="&#x26;" horiz-adv-x="705" 
d="M218 -8q-31 0 -59.5 11t-50.5 31t-35 49.5t-13 66.5q0 45 15 78.5t40 59t58.5 46t69.5 40.5l50 28q-25 33 -43 68t-18 82q0 39 14 70t37.5 52t55 32.5t66.5 11.5q28 0 52 -9t42 -25t28 -39t10 -50q0 -34 -18.5 -61.5t-46.5 -50t-61 -40.5t-62 -33l-28 -14l161 -211
l144 157l13 -13l-145 -159l130 -170h-23l-120 156l-3 -3q-30 -33 -59.5 -62.5t-60.5 -51.5t-65.5 -34.5t-74.5 -12.5zM222 11q35 0 66 11.5t60 32t57.5 49t58.5 61.5l6 6l-165 216l-49 -27q-36 -20 -68 -40t-56 -44t-38 -54t-14 -69q0 -35 11.5 -61.5t31 -44.5t45 -27
t54.5 -9zM252 555q0 -42 15.5 -74t42.5 -70l27 13q37 18 70 37t57.5 39.5t38.5 43t14 49.5q0 46 -31 76t-84 30q-27 0 -54 -9.5t-48 -27.5t-34.5 -45t-13.5 -62z" />
    <glyph glyph-name="quotesingle" unicode="'" horiz-adv-x="178" 
d="M146 710h19v-225h-19v225z" />
    <glyph glyph-name="parenleft" unicode="(" horiz-adv-x="226" 
d="M87 -116q-17 66 -25 129.5t-8 117.5q0 78 10.5 147.5t35 138.5t64.5 142t100 159l17 -8q-55 -78 -94.5 -148t-64.5 -138.5t-36.5 -139t-11.5 -149.5q0 -54 8 -118.5t25 -124.5l-20 -8v0z" />
    <glyph glyph-name="parenright" unicode=")" horiz-adv-x="226" 
d="M161 718q17 -66 25 -129.5t8 -117.5q0 -78 -10.5 -147.5t-35 -138.5t-64.5 -142t-100 -159l-17 8q55 78 94.5 148t64.5 138.5t36.5 138.5t11.5 150q0 54 -8 118.5t-25 124.5l20 8v0z" />
    <glyph glyph-name="asterisk" unicode="*" horiz-adv-x="427" 
d="M179 443l82 113l-135 48l6 19l135 -47v134h19v-133l135 44l6 -18l-134 -44l83 -113l-17 -12l-82 113l-82 -114z" />
    <glyph glyph-name="plus" unicode="+" horiz-adv-x="590" 
d="M79 280h211v201h19v-201h210v-19h-210v-207h-19v207h-211v19z" />
    <glyph glyph-name="comma" unicode="," horiz-adv-x="182" 
d="M39 6l21 97h19l-22 -104l-83 -137h-21z" />
    <glyph glyph-name="hyphen" unicode="-" horiz-adv-x="380" 
d="M83 280h227l-4 -19h-227z" />
    <glyph glyph-name="period" unicode="." horiz-adv-x="174" 
d="M31 0l22 103h19l-22 -103h-19z" />
    <glyph glyph-name="slash" unicode="/" horiz-adv-x="337" 
d="M356 710h20l-348 -710h-21z" />
    <glyph glyph-name="zero" unicode="0" horiz-adv-x="590" 
d="M253 10q46 0 84.5 20.5t69.5 56t54.5 82t39 98.5t23.5 106.5t8 106.5q0 60 -12 101.5t-33 68t-48.5 38t-57.5 11.5q-46 0 -84.5 -20.5t-69.5 -55.5t-54.5 -81.5t-39 -98.5t-23.5 -107t-8 -107q0 -60 12 -101.5t33 -67.5t48.5 -38t57.5 -12zM252 -9q-33 0 -64 13t-54.5 41
t-37.5 72.5t-14 108.5q0 83 18.5 170.5t56 159t94 117t131.5 45.5q33 0 64 -12.5t54.5 -40.5t37.5 -73t14 -109q0 -55 -8.5 -113t-25 -112.5t-41.5 -103t-58.5 -84.5t-75 -57.5t-91.5 -21.5z" />
    <glyph glyph-name="one" unicode="1" horiz-adv-x="590" 
d="M480 681l-328 -139l4 20l349 148l-151 -710h-19z" />
    <glyph glyph-name="two" unicode="2" horiz-adv-x="590" 
d="M396 325q34 29 59.5 54t42.5 50.5t26 52.5t9 61q0 37 -13 66t-35 49t-51 30.5t-60 10.5q-39 0 -72.5 -13.5t-59 -37t-41 -56t-18.5 -69.5h-20q3 41 20 76.5t45 62t65 41.5t81 15q43 0 76 -14.5t56 -38.5t35 -56t12 -66q0 -63 -28.5 -109.5t-86.5 -97.5l-362 -317h381
l-4 -19h-428z" />
    <glyph glyph-name="three" unicode="3" horiz-adv-x="590" 
d="M485 234q0 -51 -18.5 -95t-51 -77t-77.5 -51.5t-97 -18.5q-69 0 -118.5 28.5t-73.5 73.5l16 11q25 -46 73.5 -70t102.5 -24q47 0 88 16.5t71 46.5t47.5 71t17.5 89q0 43 -15.5 77.5t-42 58.5t-60 36.5t-69.5 12.5h-31l250 272h-307l4 19h346l-251 -272q47 -3 83.5 -21
t61.5 -46t38 -63.5t13 -73.5z" />
    <glyph glyph-name="four" unicode="4" horiz-adv-x="590" 
d="M397 208h-398l526 510l-105 -491h153l-4 -19h-153l-44 -208h-19zM401 227l92 435l-448 -435h356z" />
    <glyph glyph-name="five" unicode="5" horiz-adv-x="590" 
d="M495 236q0 -51 -18.5 -95.5t-51 -77.5t-77.5 -52t-97 -19q-65 0 -111.5 28t-71.5 72l17 10q25 -45 70 -68t96 -23q47 0 88 17t71 47t47.5 71.5t17.5 89.5q0 43 -15.5 77.5t-42 57.5t-60 35.5t-69.5 12.5q-37 0 -70 -10.5t-61 -30.5l-10 12l74 320h332l-4 -19h-312
l-67 -282q26 14 56 21.5t63 7.5q49 0 87.5 -17t64.5 -45t40 -64.5t14 -75.5z" />
    <glyph glyph-name="six" unicode="6" horiz-adv-x="590" 
d="M521 236q0 -51 -18.5 -95.5t-51 -77.5t-77.5 -52t-97 -19q-50 0 -88.5 17t-64.5 45t-40 64.5t-14 76.5q0 47 16 88t44 74l293 353h24l-251 -301q53 29 119 29q49 0 87.5 -17t64.5 -45t40 -64.5t14 -75.5zM90 195q0 -44 15.5 -78.5t42 -58t60 -35.5t69.5 -12q47 0 88 17
t71 47t47.5 71.5t17.5 89.5q0 43 -15.5 77.5t-42 57.5t-60 35.5t-69.5 12.5q-47 0 -87.5 -17t-71 -47t-48 -71t-17.5 -89z" />
    <glyph glyph-name="seven" unicode="7" horiz-adv-x="590" 
d="M589 691h-421l4 19h454l-528 -710h-24z" />
    <glyph glyph-name="eight" unicode="8" horiz-adv-x="590" 
d="M514 237q0 -51 -18 -95.5t-50.5 -78t-77 -52.5t-97.5 -19q-50 0 -88 16.5t-64.5 44t-40 63.5t-13.5 76q0 46 15 87.5t42 73.5t65 53.5t84 27.5q-35 18 -53 50t-18 70q0 34 12.5 64t34 52.5t50.5 35t63 12.5t60 -11.5t44 -30t27 -43t9 -50.5q0 -58 -32.5 -101t-83.5 -57
q63 -22 96.5 -73.5t33.5 -114.5zM85 194q0 -44 15 -78.5t41 -57.5t60 -35t72 -12q45 0 85 17.5t70.5 47.5t48 71t17.5 88q0 44 -15 78t-41 57.5t-60 35.5t-72 12q-45 0 -85 -17.5t-70.5 -47.5t-48 -71t-17.5 -88zM341 438q28 0 53.5 11t44.5 30t30 45.5t11 56.5q0 29 -10 51
t-27 37t-39 22.5t-45 7.5q-29 0 -54 -11t-44 -30t-30 -45.5t-11 -56.5q0 -29 10 -51t27 -37t39 -22.5t45 -7.5z" />
    <glyph glyph-name="nine" unicode="9" horiz-adv-x="590" 
d="M114 474q0 51 18.5 95.5t51 77.5t77 52t97.5 19q49 0 88 -17t65 -45t40 -64.5t14 -76.5q0 -47 -16 -88t-44 -74l-293 -353h-24l251 301q-53 -29 -119 -29q-49 0 -87.5 17t-64.5 45t-40 64.5t-14 75.5zM545 515q0 44 -15.5 78.5t-42 58t-60 35.5t-69.5 12q-47 0 -88 -17
t-71 -47t-47.5 -71.5t-17.5 -89.5q0 -44 15.5 -78t42 -57t60 -35.5t69.5 -12.5q46 0 87 17t71.5 47t48 71t17.5 89z" />
    <glyph glyph-name="colon" unicode=":" horiz-adv-x="170" 
d="M107 397l22 103h19l-22 -103h-19zM23 0l22 103h19l-22 -103h-19z" />
    <glyph glyph-name="semicolon" unicode=";" horiz-adv-x="215" 
d="M137 397l22 103h19l-22 -103h-19zM54 6l21 97h19l-22 -104l-83 -137h-21z" />
    <glyph glyph-name="equal" unicode="=" horiz-adv-x="590" 
d="M73 161h449v-19h-449v19zM73 399h449v-19h-449v19z" />
    <glyph glyph-name="question" unicode="?" horiz-adv-x="546" 
d="M261 291h10q52 0 97 17.5t78.5 47.5t52.5 70.5t19 87.5q0 42 -13.5 76.5t-38.5 58.5t-59 37t-74 13q-45 0 -83.5 -16.5t-67.5 -44.5t-47.5 -65.5t-23.5 -78.5h-20q5 46 25.5 87t52.5 71.5t74.5 48t90.5 17.5q43 0 80.5 -14.5t65 -40.5t43 -64t15.5 -84q0 -49 -18.5 -92.5
t-53 -76t-83 -52.5t-107.5 -23l-16 -70h-19zM207 -4q-7 0 -8 4l22 102h19l-22 -102q-4 -4 -11 -4z" />
    <glyph glyph-name="at" unicode="@" horiz-adv-x="842" 
d="M477 554q43 0 77.5 -17.5t55.5 -45.5l9 42h18l-52 -248q-5 -24 -1 -43t14.5 -32t26.5 -20t35 -7q27 0 53 15t46.5 43.5t33 70t12.5 94.5q0 72 -24.5 127t-67.5 92t-102.5 56t-128.5 19q-83 0 -152 -28t-119.5 -76t-78.5 -113t-28 -139q0 -72 24 -133t68 -105.5t106 -70
t139 -25.5q53 0 105 10t97 32l7 -18q-47 -21 -102.5 -31.5t-106.5 -10.5q-82 0 -147.5 26.5t-112 73.5t-71.5 112t-25 142q0 79 30 147t83.5 118t127 78.5t159.5 28.5q78 0 140.5 -22t106.5 -62.5t68 -98t24 -128.5q0 -58 -14.5 -103t-37.5 -76t-53 -47t-60 -16
q-35 0 -59 17t-33 45q-30 -32 -69 -47t-77 -15q-40 0 -70 13.5t-50 36.5t-30 53t-10 62q0 44 16.5 84.5t45 71.5t68 49.5t86.5 18.5zM605 467q-20 34 -55.5 51.5t-73.5 17.5q-42 0 -77.5 -16.5t-62 -44.5t-41.5 -65.5t-15 -79.5q0 -30 9.5 -57t28 -47t45.5 -31.5t62 -11.5
q37 0 74.5 17t63.5 49q-1 13 2 31z" />
    <glyph glyph-name="A" unicode="A" horiz-adv-x="671" 
d="M435 718l179 -718h-19l-63 249h-392l-168 -249h-22zM153 268h375l-101 405z" />
    <glyph glyph-name="B" unicode="B" horiz-adv-x="633" 
d="M212 710h192q48 0 82.5 -12.5t57 -33t33.5 -48t11 -57.5q0 -40 -13.5 -72t-36 -56t-51.5 -40t-60 -24q27 -5 51.5 -16.5t43.5 -31t30.5 -46.5t11.5 -61q0 -42 -16.5 -80.5t-51 -67.5t-87 -46.5t-124.5 -17.5h-224zM291 19q63 0 110.5 15.5t79 41.5t47.5 61.5t16 74.5
q0 31 -11.5 57.5t-34 46t-57 30.5t-79.5 11h-206l-72 -338h207zM353 376q48 0 88 14.5t68 39t43.5 57t15.5 69.5q0 28 -10 52.5t-30.5 43t-50.5 29t-69 10.5h-181l-67 -315h193z" />
    <glyph glyph-name="C" unicode="C" horiz-adv-x="686" 
d="M628 49q-45 -27 -100 -42t-118 -15q-80 0 -141.5 27.5t-103.5 73.5t-64 106.5t-22 125.5q0 75 28 146t81 126t128.5 88t170.5 33q75 0 134 -24.5t101 -66.5l-14 -14q-39 40 -94 63t-127 23q-89 0 -160.5 -30.5t-122 -82t-78 -119.5t-27.5 -142q0 -62 20.5 -118.5t60 -100
t97.5 -69.5t133 -26q60 0 112 14.5t96 40.5l10 -17v0z" />
    <glyph glyph-name="D" unicode="D" horiz-adv-x="755" 
d="M261 19q102 0 184.5 33t140.5 88.5t89.5 127.5t31.5 150q0 58 -20.5 108t-59.5 87t-95.5 57.5t-127.5 20.5h-177l-143 -672h177zM212 710h192q76 0 136 -22.5t101.5 -61.5t63.5 -92.5t22 -115.5q0 -84 -34 -159.5t-95.5 -133t-148 -91.5t-191.5 -34h-197z" />
    <glyph glyph-name="E" unicode="E" horiz-adv-x="546" 
d="M212 710h389l-4 -19h-370l-67 -315h310l-4 -19h-310l-72 -338h370l-4 -19h-389z" />
    <glyph glyph-name="F" unicode="F" horiz-adv-x="516" 
d="M212 710h384l-4 -19h-365l-67 -315h295l-4 -19h-295l-76 -357h-19z" />
    <glyph glyph-name="G" unicode="G" horiz-adv-x="763" 
d="M663 61q-58 -36 -119 -52.5t-134 -16.5q-80 0 -141.5 27.5t-103.5 73.5t-64 106.5t-22 125.5q0 75 28 146t81 126t128.5 88t170.5 33q75 0 136.5 -24.5t103.5 -66.5l-14 -14q-39 40 -96.5 63t-129.5 23q-89 0 -160.5 -30.5t-122 -82t-78 -119.5t-27.5 -142
q0 -62 20.5 -118.5t60 -100t97.5 -69.5t133 -26q68 0 124.5 15t111.5 47l60 284h-231l13 19h242l-67 -315v0z" />
    <glyph glyph-name="H" unicode="H" horiz-adv-x="768" 
d="M212 710h19l-71 -334h502l71 334h19l-151 -710h-19l76 357h-502l-76 -357h-19z" />
    <glyph glyph-name="I" unicode="I" horiz-adv-x="247" 
d="M212 710h19l-151 -710h-19z" />
    <glyph glyph-name="J" unicode="J" horiz-adv-x="517" 
d="M399 187q-21 -100 -78.5 -147.5t-142.5 -47.5q-36 0 -67.5 9t-55.5 27.5t-37.5 46t-13.5 65.5q0 11 1.5 22.5t3.5 24.5h19q-2 -12 -3.5 -23t-1.5 -22q0 -63 41.5 -97t113.5 -34q85 0 134.5 46t67.5 130l111 523h19l-111 -523v0z" />
    <glyph glyph-name="K" unicode="K" horiz-adv-x="575" 
d="M502 0l-346 353l462 357h28l-463 -358l345 -352h-26zM212 710h19l-151 -710h-19z" />
    <glyph glyph-name="L" unicode="L" horiz-adv-x="514" 
d="M212 710h19l-147 -691h370l-4 -19h-389z" />
    <glyph glyph-name="M" unicode="M" horiz-adv-x="882" 
d="M214 718l238 -414l416 414l-153 -718h-19l140 660l-388 -386l-226 392l-142 -666h-19z" />
    <glyph glyph-name="N" unicode="N" horiz-adv-x="794" 
d="M222 668l-142 -668h-19l153 718l403 -676l142 668h19l-153 -718z" />
    <glyph glyph-name="O" unicode="O" horiz-adv-x="852" 
d="M99 325q0 -62 20.5 -118.5t60 -100t97.5 -69.5t133 -26q89 0 160.5 30.5t122 82t78 119.5t27.5 142q0 62 -20.5 118.5t-60 100t-97.5 69.5t-133 26q-89 0 -160.5 -30.5t-122 -82t-78 -119.5t-27.5 -142zM818 385q0 -75 -28 -146t-81 -126t-128.5 -88t-170.5 -33
q-80 0 -141.5 27.5t-103.5 73.5t-64 106.5t-22 125.5q0 75 28 146t81 126t128.5 88t170.5 33q79 0 141 -27.5t104 -73.5t64 -106.5t22 -125.5z" />
    <glyph glyph-name="P" unicode="P" horiz-adv-x="565" 
d="M212 710h195q47 0 81.5 -13t56.5 -34.5t32.5 -50.5t10.5 -61q0 -43 -15.5 -82.5t-48 -70t-81.5 -48.5t-115 -18h-177l-71 -332h-19zM331 351q57 0 101.5 15.5t74.5 42.5t45.5 63.5t15.5 77.5q0 30 -9.5 55.5t-29 44.5t-50 30t-72.5 11h-180l-72 -340h176z" />
    <glyph glyph-name="Q" unicode="Q" horiz-adv-x="858" 
d="M818 385q0 -88 -37.5 -167.5t-106.5 -136.5l84 -106l-14 -11l-84 106q-50 -36 -112.5 -57t-137.5 -21q-80 0 -141.5 27.5t-103.5 73.5t-64 106.5t-22 125.5q0 75 28 146t81 126t128.5 88t170.5 33q79 0 141 -27.5t104 -73.5t64 -106.5t22 -125.5zM99 325
q0 -62 20.5 -118.5t60 -100t97.5 -69.5t133 -26q72 0 131.5 19.5t107.5 54.5l-90 115l14 11l90 -115q65 53 100 128.5t35 160.5q0 62 -20.5 118.5t-60 100t-97.5 69.5t-133 26q-89 0 -160.5 -30.5t-122 -82t-78 -119.5t-27.5 -142z" />
    <glyph glyph-name="R" unicode="R" horiz-adv-x="592" 
d="M298 352h-143l-75 -352h-19l151 710h179q46 0 81 -12t57.5 -32t34 -47.5t11.5 -58.5q0 -43 -15.5 -80.5t-47.5 -65.5t-80 -44.5t-112 -17.5l217 -352h-22zM317 371q60 0 105 14.5t74.5 40t44 60t14.5 74.5q0 57 -40.5 94t-122.5 37h-165l-68 -320h158z" />
    <glyph glyph-name="S" unicode="S" horiz-adv-x="517" 
d="M456 163q0 -32 -12.5 -63t-38.5 -55t-66 -38.5t-95 -14.5q-41 0 -77 11t-65 29t-49.5 42t-31.5 50l18 9q10 -24 29 -46.5t45.5 -39t60 -26.5t72.5 -10q47 0 82.5 12t59.5 32.5t36 48t12 58.5q0 32 -8 57.5t-23 47t-37 40t-51 37.5l-90 59q-48 32 -72 68.5t-24 84.5
q0 75 49.5 118.5t139.5 43.5q50 0 100 -22.5t88 -78.5l-17 -11q-34 52 -79 72.5t-95 20.5q-36 0 -66.5 -9.5t-52.5 -27.5t-34.5 -44.5t-12.5 -60.5q0 -48 23 -80t68 -61l90 -59q61 -40 92.5 -84.5t31.5 -109.5z" />
    <glyph glyph-name="T" unicode="T" horiz-adv-x="484" 
d="M325 691h-222l4 19h463l-4 -19h-222l-147 -691h-19z" />
    <glyph glyph-name="U" unicode="U" horiz-adv-x="727" 
d="M626 260q-28 -131 -103 -199.5t-199 -68.5q-106 0 -166 50t-60 146q0 17 1.5 34.5t6.5 37.5l96 450h19l-96 -450q-5 -20 -6.5 -37t-1.5 -34q0 -90 56 -134t150 -44q112 0 184.5 61t99.5 188l96 450h19l-96 -450v0z" />
    <glyph glyph-name="V" unicode="V" horiz-adv-x="647" 
d="M109 710h19l149 -671l434 671h22l-464 -718z" />
    <glyph glyph-name="W" unicode="W" horiz-adv-x="887" 
d="M128 710h19l54 -652l341 660l61 -661l330 653h21l-364 -718l-61 660l-341 -660z" />
    <glyph glyph-name="X" unicode="X" horiz-adv-x="610" 
d="M320 372l-186 338h21l179 -324l317 324h26l-334 -342l204 -368h-21l-196 354l-347 -354h-26z" />
    <glyph glyph-name="Y" unicode="Y" horiz-adv-x="572" 
d="M288 302l-172 408h20l164 -388l329 388h24l-346 -408l-64 -302h-19z" />
    <glyph glyph-name="Z" unicode="Z" horiz-adv-x="556" 
d="M586 691h-432l4 19h471l-634 -691h488l-4 -19h-527z" />
    <glyph glyph-name="bracketleft" unicode="[" horiz-adv-x="266" 
d="M205 715h139l-4 -19h-120l-168 -792h120l-4 -19h-139z" />
    <glyph glyph-name="bracketright" unicode="]" horiz-adv-x="265" 
d="M82 -115h-139l4 19h120l168 792h-120l4 19h139z" />
    <glyph glyph-name="underscore" unicode="_" horiz-adv-x="530" 
d="M11 0h419l-4 -19h-419z" />
    <glyph glyph-name="grave" unicode="`" horiz-adv-x="169" 
d="M159 710h19l75 -165h-19z" />
    <glyph glyph-name="a" unicode="a" 
d="M465 71q-39 -38 -88.5 -58.5t-103.5 -20.5q-56 0 -98 18.5t-69.5 50t-41.5 73t-14 86.5q0 57 21.5 109t60.5 92t92 63.5t116 23.5q68 0 117.5 -27t78.5 -71l20 90h19l-106 -500h-19zM274 11q56 0 108.5 24t89.5 69l59 279q-28 51 -80 78.5t-113 27.5q-57 0 -106 -21.5
t-85 -58.5t-56.5 -86t-20.5 -104q0 -42 13 -80t38.5 -66.5t64 -45t88.5 -16.5z" />
    <glyph glyph-name="b" unicode="b" 
d="M188 710h19l-60 -281q38 38 88 58.5t104 20.5q56 0 98 -19t69.5 -50.5t41.5 -72.5t14 -86q0 -57 -21.5 -109t-60.5 -92t-92 -63.5t-116 -23.5q-68 0 -118 26.5t-79 71.5l-19 -90h-19zM338 489q-56 0 -108.5 -24t-89.5 -69l-59 -279q27 -52 79 -79t114 -27q57 0 106 21.5
t85 58.5t56.5 86t20.5 104q0 42 -13 79.5t-38.5 66t-64 45.5t-88.5 17z" />
    <glyph glyph-name="c" unicode="c" horiz-adv-x="537" 
d="M473 58q-37 -31 -84 -48.5t-102 -17.5q-57 0 -101 19.5t-73.5 52t-45 75t-15.5 88.5q0 58 21 109.5t58.5 89.5t89 60t112.5 22q27 0 54 -5t52.5 -15.5t47.5 -27t38 -38.5l-15 -13q-29 40 -76.5 60t-101.5 20q-55 0 -102.5 -20t-82.5 -55t-55 -83t-20 -104
q0 -52 17.5 -92.5t47.5 -68t69 -41.5t82 -14q51 0 94.5 16.5t78.5 46.5l12 -16v0z" />
    <glyph glyph-name="d" unicode="d" 
d="M465 71q-39 -38 -88.5 -58.5t-103.5 -20.5q-56 0 -98 18.5t-69.5 50t-41.5 73t-14 86.5q0 57 21.5 109t60.5 92t92 63.5t116 23.5q68 0 118 -27t79 -72l64 301h19l-151 -710h-19zM274 11q56 0 108.5 24t89.5 69l59 278q-27 52 -79.5 79.5t-113.5 27.5q-57 0 -106 -21.5
t-85 -58.5t-56.5 -86t-20.5 -104q0 -42 13 -80t38.5 -66.5t64 -45t88.5 -16.5z" />
    <glyph glyph-name="e" unicode="e" horiz-adv-x="573" 
d="M473 58q-37 -31 -84 -48.5t-102 -17.5q-57 0 -101 19.5t-73.5 52t-45 75t-15.5 88.5q0 58 21 109.5t58.5 89.5t89 60t112.5 22q39 0 76 -11.5t66.5 -34.5t47 -59t17.5 -85q0 -28 -6 -59h-460q-1 -8 -1.5 -16t-0.5 -16q0 -52 17.5 -92.5t47 -68t68.5 -41.5t82 -14
q51 0 95 16.5t79 46.5zM332 489q-49 0 -92 -15.5t-76.5 -44t-56.5 -67.5t-31 -85h441q3 21 3 39q0 43 -14.5 75t-40 54t-60 33t-73.5 11z" />
    <glyph glyph-name="f" unicode="f" horiz-adv-x="293" 
d="M60 500h128q-21 12 -35 36.5t-14 52.5q0 27 11.5 49.5t32 38t48.5 24.5t61 9h91l-4 -18h-83q-63 0 -100 -28t-37 -76q0 -35 24.5 -61.5t71.5 -26.5h84l-4 -19h-138l-102 -481h-19l102 481h-122z" />
    <glyph glyph-name="g" unicode="g" horiz-adv-x="610" 
d="M492 63q0 -65 -20.5 -113t-57.5 -80t-87.5 -48t-110.5 -16q-30 0 -59 5.5t-54.5 16t-46.5 25t-34 31.5l17 14q24 -32 72 -52.5t106 -20.5q63 0 110.5 17t80 48t48.5 75.5t16 98.5q0 13 -1 23t-3 15q-39 -42 -90.5 -66t-107.5 -24t-97 17t-67.5 47t-39.5 69.5t-13 84.5
q0 57 20.5 107.5t58 88.5t90 60t115.5 22q67 0 115 -27t77 -71l19 90h19l-80 -379q2 -14 3.5 -28t1.5 -30zM271 31q56 0 109 27t90 72l53 254q-27 51 -77.5 78t-110.5 27q-57 0 -105.5 -20t-83 -55t-54 -82.5t-19.5 -102.5q0 -42 12 -78t36.5 -63t62 -42t87.5 -15z" />
    <glyph glyph-name="h" unicode="h" horiz-adv-x="581" 
d="M188 710h19l-65 -304q33 44 81 73t113 29q82 0 129 -45.5t47 -123.5q0 -28 -6 -58l-60 -281h-19l61 285q6 28 6 53q0 72 -43.5 111.5t-114.5 39.5q-65 0 -116 -34t-87 -91l-77 -364h-19z" />
    <glyph glyph-name="i" unicode="i" horiz-adv-x="199" 
d="M188 710q4 4 11 4t8 -4l-19 -90h-19zM143 500h19l-106 -500h-19z" />
    <glyph glyph-name="j" unicode="j" horiz-adv-x="207" 
d="M-107 -165h8q37 0 60.5 8t38 24t23 41t15.5 60l113 532h19l-116 -548q-8 -36 -19 -62t-29 -42.5t-44.5 -24t-65.5 -7.5h-7zM196 710q4 4 11 4t8 -4l-19 -90h-19z" />
    <glyph glyph-name="k" unicode="k" horiz-adv-x="465" 
d="M188 710h19l-95 -447l348 237h32l-351 -239l274 -261h-27l-276 263l-56 -263h-19z" />
    <glyph glyph-name="l" unicode="l" horiz-adv-x="199" 
d="M188 710h19l-151 -710h-19z" />
    <glyph glyph-name="m" unicode="m" horiz-adv-x="889" 
d="M798 299q7 31 7 60q0 62 -33.5 96t-98.5 34q-60 0 -111 -34t-87 -92v-1q0 -29 -8 -67l-63 -295h-19l64 299q7 31 7 60q0 62 -33.5 96t-98.5 34q-58 0 -106.5 -32.5t-83.5 -88.5l-78 -368h-19l106 500h19l-20 -91q33 43 79 71t103 28q66 0 103.5 -30.5t45.5 -84.5
q33 49 85.5 82t114.5 33q75 0 113 -38.5t38 -107.5q0 -29 -8 -67l-63 -295h-19z" />
    <glyph glyph-name="n" unicode="n" horiz-adv-x="580" 
d="M143 500h19l-20 -93q33 44 81 72.5t112 28.5q82 0 129 -45.5t47 -123.5q0 -28 -6 -58l-60 -281h-19l61 285q6 28 6 53q0 72 -43.5 111.5t-114.5 39.5q-64 0 -115 -33t-87 -90l-77 -366h-19z" />
    <glyph glyph-name="o" unicode="o" horiz-adv-x="624" 
d="M71 227q0 -51 18.5 -91t49 -68t70 -42.5t82.5 -14.5q55 0 102.5 19.5t83 54.5t56 83t20.5 105q0 51 -18.5 91t-49 68t-70 42.5t-82.5 14.5q-55 0 -102.5 -19.5t-83 -54.5t-56 -83t-20.5 -105zM573 273q0 -59 -21.5 -110t-59 -89t-89 -60t-111.5 -22q-57 0 -102 19.5
t-75.5 52t-47 75t-16.5 88.5q0 58 21.5 109.5t59 89.5t89 60t111.5 22q57 0 102 -19.5t75.5 -52t47 -75t16.5 -88.5z" />
    <glyph glyph-name="p" unicode="p" 
d="M143 500h19l-15 -71q38 38 88 58.5t104 20.5q56 0 98 -19t69.5 -50.5t41.5 -72.5t14 -86q0 -57 -21.5 -109t-60.5 -92t-92 -63.5t-116 -23.5q-68 0 -118 26.5t-79 71.5l-58 -274h-19zM338 489q-56 0 -108.5 -24.5t-89.5 -69.5l-59 -277q27 -52 79 -79.5t114 -27.5
q57 0 106 21.5t85 58.5t56.5 86t20.5 104q0 42 -13 79.5t-38.5 66t-64 45.5t-88.5 17z" />
    <glyph glyph-name="q" unicode="q" horiz-adv-x="611" 
d="M464 70q-38 -38 -87.5 -58t-103.5 -20q-56 0 -98 18.5t-69.5 50t-41.5 73t-14 86.5q0 57 21.5 109t60.5 92t92 63.5t116 23.5q67 0 117 -26.5t79 -70.5l19 89h19l-145 -684h-19zM274 11q55 0 107.5 23.5t89.5 68.5l59 281q-27 51 -79.5 78t-112.5 27q-57 0 -106 -21.5
t-85 -58.5t-56.5 -86t-20.5 -104q0 -42 13 -80t38.5 -66.5t64 -45t88.5 -16.5z" />
    <glyph glyph-name="r" unicode="r" horiz-adv-x="321" 
d="M143 500h19l-19 -91q30 42 78.5 70.5t111.5 28.5q8 0 16 -0.5t16 -1.5l-5 -20q-7 1 -15 1.5t-16 0.5q-67 0 -118 -35.5t-78 -89.5l-77 -363h-19z" />
    <glyph glyph-name="s" unicode="s" horiz-adv-x="402" 
d="M334 116q0 -26 -10.5 -48.5t-30.5 -39t-48.5 -26.5t-64.5 -10q-37 0 -65.5 9.5t-49.5 25.5t-34 35.5t-20 39.5l17 9q14 -43 53 -71.5t101 -28.5q59 0 95.5 29t36.5 73q0 22 -7 40t-19 32.5t-28 27t-35 23.5l-54 32q-37 22 -59.5 52.5t-22.5 72.5q0 48 37 81.5t102 33.5
q26 0 48.5 -7.5t39.5 -19t29.5 -26t18.5 -28.5l-17 -9q-5 11 -15 23.5t-25 23t-34.5 17.5t-44.5 7q-55 0 -87 -27t-32 -69q0 -39 21.5 -65.5t56.5 -47.5l54 -32q41 -24 67 -56t26 -76z" />
    <glyph glyph-name="t" unicode="t" horiz-adv-x="289" 
d="M56 500h116l30 140l21 10l-32 -150h139l-4 -19h-139l-73 -346q-6 -29 -6 -49q0 -34 19.5 -50.5t68.5 -16.5h31l-4 -19h-28q-55 0 -80.5 19.5t-25.5 64.5q0 22 6 52l73 345h-112v19z" />
    <glyph glyph-name="u" unicode="u" horiz-adv-x="577" 
d="M434 92q-32 -44 -80.5 -72t-111.5 -28q-85 0 -130 41t-45 114q0 14 2 28t5 30l62 295h19l-63 -299q-6 -27 -6 -51q0 -66 41 -102.5t115 -36.5q66 0 116 33t85 90l78 366h19l-106 -500h-19z" />
    <glyph glyph-name="v" unicode="v" horiz-adv-x="511" 
d="M61 500h20l127 -466l326 466h23l-356 -508z" />
    <glyph glyph-name="w" unicode="w" horiz-adv-x="737" 
d="M67 500h20l66 -453l269 461l73 -462l258 454h23l-291 -508l-74 461l-268 -461z" />
    <glyph glyph-name="x" unicode="x" horiz-adv-x="496" 
d="M238 259l-155 241h22l147 -228l244 228h26l-260 -244l165 -256h-22l-157 243l-260 -243h-26z" />
    <glyph glyph-name="y" unicode="y" horiz-adv-x="515" 
d="M194 9l-131 491h21l124 -470l329 470h24l-480 -684h-23z" />
    <glyph glyph-name="z" unicode="z" horiz-adv-x="472" 
d="M453 481h-352l4 19h395l-491 -481h380l-4 -19h-423z" />
    <glyph glyph-name="braceleft" unicode="{" horiz-adv-x="260" 
d="M153 -115q-54 0 -79 22t-25 70q0 14 2 29t6 33l34 157l4 22t2 22q0 23 -11 38t-42 15h-2l4 19h2q23 0 38 7.5t25 21t15.5 31t10.5 37.5l38 185q8 36 20.5 59.5t31 37t44 19t59.5 5.5h7l-4 -19h-5q-34 0 -57 -5.5t-38.5 -19t-25 -36t-16.5 -57.5l-34 -160
q-10 -48 -24.5 -76.5t-49.5 -40.5q18 -9 25 -24t7 -35q0 -12 -2 -25.5t-5 -29.5l-31 -141q-9 -42 -9 -70q0 -38 20.5 -55t71.5 -17h6l-4 -19h-9z" />
    <glyph glyph-name="bar" unicode="|" horiz-adv-x="277" 
d="M132 710h19v-894h-19v894z" />
    <glyph glyph-name="braceright" unicode="}" horiz-adv-x="261" 
d="M128 715q54 0 79 -22t25 -70q0 -14 -2 -29t-6 -33l-34 -157l-4 -22t-2 -22q0 -23 11 -38t42 -15h2l-4 -19h-2q-23 0 -38 -7.5t-25 -21t-16 -31t-10 -37.5l-38 -185q-8 -36 -20.5 -59.5t-31 -37t-44 -19t-59.5 -5.5h-7l4 19h5q34 0 57 5.5t38.5 19t25 36t16.5 57.5l34 160
q10 48 24.5 76.5t49.5 40.5q-18 9 -25 24t-7 35q0 12 2 25.5t5 29.5l31 141q9 42 9 70q0 38 -20.5 55t-71.5 17h-6l4 19h9z" />
    <glyph glyph-name="uni00A0" unicode="&#xa0;" horiz-adv-x="260" 
 />
    <glyph glyph-name="exclamdown" unicode="&#xa1;" horiz-adv-x="218" 
d="M66 -4l-38 -179h-22l38 179l78 345h15zM152 500q4 4 9 4q3 0 6 -1t4 -3l-22 -103h-19z" />
    <glyph glyph-name="sterling" unicode="&#xa3;" horiz-adv-x="544" 
d="M15 19h146l70 331h-146l4 19h164q-45 20 -67.5 60t-22.5 88q0 42 15 78.5t42 63.5t64 43t81 16q41 0 73 -14t53.5 -37t33 -53t11.5 -63v-2h-20v2q0 35 -13 62.5t-34 46t-48 28.5t-56 10q-38 0 -71 -14t-57.5 -38.5t-39 -57.5t-14.5 -71q0 -36 13 -63.5t34 -46t48 -28.5
t56 -10h79l-4 -19h-159l-70 -331h279l-4 -19h-444z" />
    <glyph glyph-name="yen" unicode="&#xa5;" horiz-adv-x="606" 
d="M136 303h163l-171 407h20l164 -388l329 388h24l-345 -407h177l-4 -19h-178l-24 -111h178l-4 -19h-178l-32 -154h-19l32 154h-164l4 19h164l24 111h-164z" />
    <glyph glyph-name="dieresis" unicode="&#xa8;" horiz-adv-x="279" 
d="M132 584l22 103h19l-22 -103h-19zM352 584l22 103h19l-22 -103h-19z" />
    <glyph glyph-name="copyright" unicode="&#xa9;" horiz-adv-x="847" 
d="M446 -6q-75 0 -140.5 28.5t-115 78t-78 115t-28.5 140.5t28.5 140.5t78 115t115 78t140.5 28.5t140.5 -28.5t115 -78t78 -115t28.5 -140.5t-28.5 -140.5t-78 -115t-115 -78t-140.5 -28.5zM446 16q70 0 132 27t108 73t73 108t27 132t-27 132t-73 108t-108 73t-132 27
t-132 -27t-108 -73t-73 -108t-27 -132t27 -132t73 -108t108 -73t132 -27zM458 133q-46 0 -86.5 17.5t-71 48t-48 71t-17.5 86.5t17.5 86.5t48 71t71 48t86.5 17.5q47 0 87.5 -18t71.5 -49l-16 -15q-28 28 -64.5 44t-78.5 16t-78.5 -16t-63.5 -43t-43 -63.5t-16 -78.5
t16 -78.5t43 -63.5t63.5 -43t78.5 -16t78 15.5t63 42.5l16 -15q-30 -30 -70.5 -47.5t-86.5 -17.5z" />
    <glyph glyph-name="guillemotleft" unicode="&#xab;" horiz-adv-x="474" 
d="M247 251l193 212l13 -13l-183 -202l96 -203l-17 -8zM57 251l193 212l13 -13l-183 -202l96 -203l-17 -8z" />
    <glyph glyph-name="uni00AD" unicode="&#xad;" horiz-adv-x="380" 
d="M83 280h227l-4 -19h-227z" />
    <glyph glyph-name="macron" unicode="&#xaf;" horiz-adv-x="318" 
d="M153 680h278l-5 -19h-278z" />
    <glyph glyph-name="degree" unicode="&#xb0;" horiz-adv-x="357" 
d="M246 470q-25 0 -47.5 9.5t-39 26t-26 39t-9.5 47.5t9.5 47.5t26 39t39 26t47.5 9.5t47.5 -9.5t39 -26t26 -39t9.5 -47.5t-9.5 -47.5t-26 -39t-39 -26t-47.5 -9.5zM246 488q21 0 40 8t33.5 22.5t22.5 33.5t8 40t-8 40t-22.5 33.5t-33.5 22.5t-40 8t-40 -8t-33.5 -22.5
t-22.5 -33.5t-8 -40t8 -40t22.5 -33.5t33.5 -22.5t40 -8z" />
    <glyph glyph-name="acute" unicode="&#xb4;" horiz-adv-x="173" 
d="M281 710h23l-145 -165h-23z" />
    <glyph glyph-name="periodcentered" unicode="&#xb7;" horiz-adv-x="172" 
d="M69 215l22 103h19l-22 -103h-19z" />
    <glyph glyph-name="cedilla" unicode="&#xb8;" horiz-adv-x="136" 
d="M83 0h21l-110 -165h-21z" />
    <glyph glyph-name="guillemotright" unicode="&#xbb;" horiz-adv-x="472" 
d="M416 249l-193 -212l-13 13l183 202l-96 203l17 8zM226 249l-193 -212l-13 13l183 202l-96 203l17 8z" />
    <glyph glyph-name="questiondown" unicode="&#xbf;" horiz-adv-x="534" 
d="M320 500q4 4 11 4t8 -4l-22 -102h-19zM209 -194q-43 0 -80.5 14.5t-65 40.5t-43 63.5t-15.5 84.5q0 49 18.5 92.5t53 76t83 52.5t107.5 23l11 46h19l-15 -66h-10q-52 0 -97 -17.5t-78.5 -47.5t-52.5 -71t-19 -87q0 -42 13.5 -76.5t38.5 -58.5t58.5 -37t74.5 -13
q45 0 83 16.5t67.5 44.5t48 65.5t23.5 78.5h20q-5 -46 -25.5 -87t-52.5 -71.5t-74.5 -48t-90.5 -17.5z" />
    <glyph glyph-name="Agrave" unicode="&#xc0;" horiz-adv-x="671" 
d="M435 718l179 -718h-19l-63 249h-392l-168 -249h-22zM153 268h375l-101 405zM358 913h19l79 -145h-19z" />
    <glyph glyph-name="Aacute" unicode="&#xc1;" horiz-adv-x="671" 
d="M435 718l179 -718h-19l-63 249h-392l-168 -249h-22zM153 268h375l-101 405zM575 913h23l-140 -145h-23z" />
    <glyph glyph-name="Acircumflex" unicode="&#xc2;" horiz-adv-x="671" 
d="M435 718l179 -718h-19l-63 249h-392l-168 -249h-22zM153 268h375l-101 405zM266 789l211 139l153 -139l-11 -13l-144 129l-200 -130z" />
    <glyph glyph-name="Atilde" unicode="&#xc3;" horiz-adv-x="671" 
d="M435 718l179 -718h-19l-63 249h-392l-168 -249h-22zM153 268h375l-101 405zM293 803q11 45 38 67t57 22q26 0 45 -11t35.5 -24.5t32.5 -24.5t36 -11q28 0 47.5 18.5t29.5 52.5h19q-14 -48 -39.5 -68.5t-56.5 -20.5q-24 0 -42 11t-34 24.5t-33.5 24.5t-39.5 11
q-29 0 -47.5 -19t-28.5 -52h-19z" />
    <glyph glyph-name="Adieresis" unicode="&#xc4;" horiz-adv-x="671" 
d="M435 718l179 -718h-19l-63 249h-392l-168 -249h-22zM153 268h375l-101 405zM331 788l22 103h19l-22 -103h-19zM551 788l22 103h19l-22 -103h-19z" />
    <glyph glyph-name="Aring" unicode="&#xc5;" horiz-adv-x="671" 
d="M435 718l179 -718h-19l-63 249h-392l-168 -249h-22zM153 268h375l-101 405zM399 836q0 -26 18 -44.5t44 -18.5t44 18.5t18 44.5t-18 44.5t-44 18.5t-44 -18.5t-18 -44.5zM541 836q0 -33 -23.5 -56.5t-56.5 -23.5t-56.5 23.5t-23.5 56.5t23.5 56.5t56.5 23.5t56.5 -23.5
t23.5 -56.5z" />
    <glyph glyph-name="AE" unicode="&#xc6;" horiz-adv-x="1043" 
d="M531 357l84 -338h365l5 -19h-384l-63 249h-392l-168 -249h-22l471 697l-3 13h384l5 -19h-366l79 -315h316l5 -19h-316zM159 268h375l-101 405z" />
    <glyph glyph-name="Ccedilla" unicode="&#xc7;" horiz-adv-x="686" 
d="M399 -7q-77 2 -136.5 30t-100.5 73.5t-62 105t-21 123.5q0 75 28 146t81 126t128.5 88t170.5 33q75 0 134 -24.5t101 -66.5l-14 -14q-39 40 -94 63t-127 23q-89 0 -160.5 -30.5t-122 -82t-78 -119.5t-27.5 -142q0 -62 20.5 -118.5t60 -100t97.5 -69.5t133 -26
q60 0 112 14.5t96 40.5l10 -17q-44 -26 -96.5 -40.5t-112.5 -16.5l-104 -157h-21z" />
    <glyph glyph-name="Egrave" unicode="&#xc8;" horiz-adv-x="546" 
d="M212 710h389l-4 -19h-370l-67 -315h310l-4 -19h-310l-72 -338h370l-4 -19h-389zM355 913h19l79 -145h-19z" />
    <glyph glyph-name="Eacute" unicode="&#xc9;" horiz-adv-x="546" 
d="M212 710h389l-4 -19h-370l-67 -315h310l-4 -19h-310l-72 -338h370l-4 -19h-389zM506 913h23l-140 -145h-23z" />
    <glyph glyph-name="Ecircumflex" unicode="&#xca;" horiz-adv-x="546" 
d="M212 710h389l-4 -19h-370l-67 -315h310l-4 -19h-310l-72 -338h370l-4 -19h-389zM241 789l211 139l153 -139l-11 -13l-144 129l-200 -130z" />
    <glyph glyph-name="Edieresis" unicode="&#xcb;" horiz-adv-x="546" 
d="M212 710h389l-4 -19h-370l-67 -315h310l-4 -19h-310l-72 -338h370l-4 -19h-389zM305 788l22 103h19l-22 -103h-19zM525 788l22 103h19l-22 -103h-19z" />
    <glyph glyph-name="Igrave" unicode="&#xcc;" horiz-adv-x="247" 
d="M212 710h19l-151 -710h-19zM169 913h19l79 -145h-19z" />
    <glyph glyph-name="Iacute" unicode="&#xcd;" horiz-adv-x="247" 
d="M212 710h19l-151 -710h-19zM321 913h23l-140 -145h-23z" />
    <glyph glyph-name="Icircumflex" unicode="&#xce;" horiz-adv-x="247" 
d="M212 710h19l-151 -710h-19zM60 789l211 139l153 -139l-11 -13l-144 129l-200 -130z" />
    <glyph glyph-name="Idieresis" unicode="&#xcf;" horiz-adv-x="247" 
d="M212 710h19l-151 -710h-19zM119 788l22 103h19l-22 -103h-19zM339 788l22 103h19l-22 -103h-19z" />
    <glyph glyph-name="Eth" unicode="&#xd0;" horiz-adv-x="765" 
d="M31 376h120l71 334h192q76 0 136 -22.5t101.5 -61.5t63.5 -92.5t22 -115.5q0 -84 -34 -159.5t-95.5 -133t-148 -91.5t-191.5 -34h-197l76 357h-120zM271 19q102 0 184.5 33t140.5 88.5t89.5 127.5t31.5 150q0 58 -20.5 108t-59.5 87t-95.5 57.5t-127.5 20.5h-177
l-67 -315h193l-4 -19h-193l-72 -338h177z" />
    <glyph glyph-name="Ntilde" unicode="&#xd1;" horiz-adv-x="794" 
d="M222 668l-142 -668h-19l153 718l403 -676l142 668h19l-153 -718zM355 803q11 45 38 67t57 22q26 0 45 -11t35.5 -24.5t32.5 -24.5t36 -11q28 0 47.5 18.5t29.5 52.5h19q-14 -48 -39.5 -68.5t-56.5 -20.5q-24 0 -42 11t-34 24.5t-33.5 24.5t-39.5 11q-29 0 -47.5 -19
t-28.5 -52h-19z" />
    <glyph glyph-name="Ograve" unicode="&#xd2;" horiz-adv-x="852" 
d="M99 325q0 -62 20.5 -118.5t60 -100t97.5 -69.5t133 -26q89 0 160.5 30.5t122 82t78 119.5t27.5 142q0 62 -20.5 118.5t-60 100t-97.5 69.5t-133 26q-89 0 -160.5 -30.5t-122 -82t-78 -119.5t-27.5 -142zM818 385q0 -75 -28 -146t-81 -126t-128.5 -88t-170.5 -33
q-80 0 -141.5 27.5t-103.5 73.5t-64 106.5t-22 125.5q0 75 28 146t81 126t128.5 88t170.5 33q79 0 141 -27.5t104 -73.5t64 -106.5t22 -125.5zM471 913h19l79 -145h-19z" />
    <glyph glyph-name="Oacute" unicode="&#xd3;" horiz-adv-x="852" 
d="M99 325q0 -62 20.5 -118.5t60 -100t97.5 -69.5t133 -26q89 0 160.5 30.5t122 82t78 119.5t27.5 142q0 62 -20.5 118.5t-60 100t-97.5 69.5t-133 26q-89 0 -160.5 -30.5t-122 -82t-78 -119.5t-27.5 -142zM818 385q0 -75 -28 -146t-81 -126t-128.5 -88t-170.5 -33
q-80 0 -141.5 27.5t-103.5 73.5t-64 106.5t-22 125.5q0 75 28 146t81 126t128.5 88t170.5 33q79 0 141 -27.5t104 -73.5t64 -106.5t22 -125.5zM622 913h23l-140 -145h-23z" />
    <glyph glyph-name="Ocircumflex" unicode="&#xd4;" horiz-adv-x="852" 
d="M99 325q0 -62 20.5 -118.5t60 -100t97.5 -69.5t133 -26q89 0 160.5 30.5t122 82t78 119.5t27.5 142q0 62 -20.5 118.5t-60 100t-97.5 69.5t-133 26q-89 0 -160.5 -30.5t-122 -82t-78 -119.5t-27.5 -142zM818 385q0 -75 -28 -146t-81 -126t-128.5 -88t-170.5 -33
q-80 0 -141.5 27.5t-103.5 73.5t-64 106.5t-22 125.5q0 75 28 146t81 126t128.5 88t170.5 33q79 0 141 -27.5t104 -73.5t64 -106.5t22 -125.5zM356 789l211 139l153 -139l-11 -13l-144 129l-200 -130z" />
    <glyph glyph-name="Otilde" unicode="&#xd5;" horiz-adv-x="852" 
d="M99 325q0 -62 20.5 -118.5t60 -100t97.5 -69.5t133 -26q89 0 160.5 30.5t122 82t78 119.5t27.5 142q0 62 -20.5 118.5t-60 100t-97.5 69.5t-133 26q-89 0 -160.5 -30.5t-122 -82t-78 -119.5t-27.5 -142zM818 385q0 -75 -28 -146t-81 -126t-128.5 -88t-170.5 -33
q-80 0 -141.5 27.5t-103.5 73.5t-64 106.5t-22 125.5q0 75 28 146t81 126t128.5 88t170.5 33q79 0 141 -27.5t104 -73.5t64 -106.5t22 -125.5zM383 803q11 45 38 67t57 22q26 0 45 -11t35.5 -24.5t32.5 -24.5t36 -11q28 0 47.5 18.5t29.5 52.5h19q-14 -48 -39.5 -68.5
t-56.5 -20.5q-24 0 -42 11t-34 24.5t-33.5 24.5t-39.5 11q-29 0 -47.5 -19t-28.5 -52h-19z" />
    <glyph glyph-name="Odieresis" unicode="&#xd6;" horiz-adv-x="852" 
d="M99 325q0 -62 20.5 -118.5t60 -100t97.5 -69.5t133 -26q89 0 160.5 30.5t122 82t78 119.5t27.5 142q0 62 -20.5 118.5t-60 100t-97.5 69.5t-133 26q-89 0 -160.5 -30.5t-122 -82t-78 -119.5t-27.5 -142zM818 385q0 -75 -28 -146t-81 -126t-128.5 -88t-170.5 -33
q-80 0 -141.5 27.5t-103.5 73.5t-64 106.5t-22 125.5q0 75 28 146t81 126t128.5 88t170.5 33q79 0 141 -27.5t104 -73.5t64 -106.5t22 -125.5zM421 788l22 103h19l-22 -103h-19zM641 788l22 103h19l-22 -103h-19z" />
    <glyph glyph-name="multiply" unicode="&#xd7;" horiz-adv-x="590" 
d="M136 125l146 146l-149 149l14 14l149 -149l142 142l13 -14l-142 -142l149 -148l-14 -14l-149 148l-146 -146z" />
    <glyph glyph-name="Oslash" unicode="&#xd8;" horiz-adv-x="852" 
d="M154 -2l48 61q-60 47 -91.5 117t-31.5 149q0 75 28 146t81 126t128.5 88t170.5 33q57 0 105 -15t86 -41l54 68l14 -12l-52 -66q61 -48 92.5 -118t31.5 -149q0 -75 -28 -146t-81 -126t-128.5 -88t-170.5 -33q-58 0 -106.5 15t-86.5 41l-49 -62zM798 385q0 75 -29.5 141
t-86.5 111l-453 -574q36 -25 81.5 -38.5t99.5 -13.5q89 0 160.5 30.5t122 82t78 119.5t27.5 142zM99 325q0 -75 29 -140.5t86 -110.5l453 574q-36 24 -81 37.5t-99 13.5q-89 0 -160.5 -30.5t-122 -82t-78 -119.5t-27.5 -142z" />
    <glyph glyph-name="Ugrave" unicode="&#xd9;" horiz-adv-x="727" 
d="M626 260q-28 -131 -103 -199.5t-199 -68.5q-106 0 -166 50t-60 146q0 17 1.5 34.5t6.5 37.5l96 450h19l-96 -450q-5 -20 -6.5 -37t-1.5 -34q0 -90 56 -134t150 -44q112 0 184.5 61t99.5 188l96 450h19l-96 -450v0zM409 913h19l79 -145h-19z" />
    <glyph glyph-name="Uacute" unicode="&#xda;" horiz-adv-x="727" 
d="M626 260q-28 -131 -103 -199.5t-199 -68.5q-106 0 -166 50t-60 146q0 17 1.5 34.5t6.5 37.5l96 450h19l-96 -450q-5 -20 -6.5 -37t-1.5 -34q0 -90 56 -134t150 -44q112 0 184.5 61t99.5 188l96 450h19l-96 -450v0zM560 913h23l-140 -145h-23z" />
    <glyph glyph-name="Ucircumflex" unicode="&#xdb;" horiz-adv-x="727" 
d="M626 260q-28 -131 -103 -199.5t-199 -68.5q-106 0 -166 50t-60 146q0 17 1.5 34.5t6.5 37.5l96 450h19l-96 -450q-5 -20 -6.5 -37t-1.5 -34q0 -90 56 -134t150 -44q112 0 184.5 61t99.5 188l96 450h19l-96 -450v0zM295 789l211 139l153 -139l-11 -13l-144 129l-200 -130z
" />
    <glyph glyph-name="Udieresis" unicode="&#xdc;" horiz-adv-x="727" 
d="M626 260q-28 -131 -103 -199.5t-199 -68.5q-106 0 -166 50t-60 146q0 17 1.5 34.5t6.5 37.5l96 450h19l-96 -450q-5 -20 -6.5 -37t-1.5 -34q0 -90 56 -134t150 -44q112 0 184.5 61t99.5 188l96 450h19l-96 -450v0zM360 788l22 103h19l-22 -103h-19zM580 788l22 103h19
l-22 -103h-19z" />
    <glyph glyph-name="Yacute" unicode="&#xdd;" horiz-adv-x="572" 
d="M288 302l-172 408h20l164 -388l329 388h24l-346 -408l-64 -302h-19zM481 913h23l-140 -145h-23z" />
    <glyph glyph-name="Thorn" unicode="&#xde;" horiz-adv-x="576" 
d="M212 710h19l-34 -158h176q47 0 81.5 -13t56.5 -34.5t32.5 -50.5t10.5 -61q0 -43 -15.5 -82.5t-48 -70t-81.5 -48.5t-115 -18h-177l-37 -174h-19zM297 193q57 0 101.5 15.5t74.5 42.5t45.5 63.5t15.5 77.5q0 30 -9.5 55.5t-29 44.5t-50 30t-72.5 11h-180l-72 -340h176z
" />
    <glyph glyph-name="germandbls" unicode="&#xdf;" horiz-adv-x="542" 
d="M147 519q21 99 77.5 149t141.5 50q33 0 60 -10t46.5 -28t30.5 -42.5t11 -54.5q0 -34 -14.5 -65t-38.5 -56t-54.5 -42.5t-63.5 -24.5q68 -11 105.5 -54t37.5 -106q0 -41 -17.5 -82.5t-52.5 -75.5t-86.5 -55.5t-119.5 -21.5h-57l4 19h57q61 0 108 20t79 51t48.5 69t16.5 74
q0 72 -48.5 111.5t-136.5 39.5h-46l4 19h41q40 0 79 14.5t69 38.5t48.5 56.5t18.5 68.5q0 56 -37 87t-96 31q-72 0 -124 -44.5t-72 -137.5l-110 -517h-19z" />
    <glyph glyph-name="agrave" unicode="&#xe0;" 
d="M465 71q-39 -38 -88.5 -58.5t-103.5 -20.5q-56 0 -98 18.5t-69.5 50t-41.5 73t-14 86.5q0 57 21.5 109t60.5 92t92 63.5t116 23.5q68 0 117.5 -27t78.5 -71l20 90h19l-106 -500h-19zM274 11q56 0 108.5 24t89.5 69l59 279q-28 51 -80 78.5t-113 27.5q-57 0 -106 -21.5
t-85 -58.5t-56.5 -86t-20.5 -104q0 -42 13 -80t38.5 -66.5t64 -45t88.5 -16.5zM285 710h19l75 -165h-19z" />
    <glyph glyph-name="aacute" unicode="&#xe1;" 
d="M465 71q-39 -38 -88.5 -58.5t-103.5 -20.5q-56 0 -98 18.5t-69.5 50t-41.5 73t-14 86.5q0 57 21.5 109t60.5 92t92 63.5t116 23.5q68 0 117.5 -27t78.5 -71l20 90h19l-106 -500h-19zM274 11q56 0 108.5 24t89.5 69l59 279q-28 51 -80 78.5t-113 27.5q-57 0 -106 -21.5
t-85 -58.5t-56.5 -86t-20.5 -104q0 -42 13 -80t38.5 -66.5t64 -45t88.5 -16.5zM481 710h23l-145 -165h-23z" />
    <glyph glyph-name="acircumflex" unicode="&#xe2;" 
d="M465 71q-39 -38 -88.5 -58.5t-103.5 -20.5q-56 0 -98 18.5t-69.5 50t-41.5 73t-14 86.5q0 57 21.5 109t60.5 92t92 63.5t116 23.5q68 0 117.5 -27t78.5 -71l20 90h19l-106 -500h-19zM274 11q56 0 108.5 24t89.5 69l59 279q-28 51 -80 78.5t-113 27.5q-57 0 -106 -21.5
t-85 -58.5t-56.5 -86t-20.5 -104q0 -42 13 -80t38.5 -66.5t64 -45t88.5 -16.5zM212 579l191 139l133 -139l-13 -13l-123 128l-177 -129z" />
    <glyph glyph-name="atilde" unicode="&#xe3;" 
d="M465 71q-39 -38 -88.5 -58.5t-103.5 -20.5q-56 0 -98 18.5t-69.5 50t-41.5 73t-14 86.5q0 57 21.5 109t60.5 92t92 63.5t116 23.5q68 0 117.5 -27t78.5 -71l20 90h19l-106 -500h-19zM274 11q56 0 108.5 24t89.5 69l59 279q-28 51 -80 78.5t-113 27.5q-57 0 -106 -21.5
t-85 -58.5t-56.5 -86t-20.5 -104q0 -42 13 -80t38.5 -66.5t64 -45t88.5 -16.5zM216 582q11 45 38 67t57 22q26 0 45 -11t35.5 -24.5t32.5 -24.5t36 -11q28 0 47.5 18.5t29.5 52.5h19q-14 -48 -39.5 -68.5t-56.5 -20.5q-24 0 -42 11t-34 24.5t-33.5 24.5t-39.5 11
q-29 0 -47.5 -19t-28.5 -52h-19z" />
    <glyph glyph-name="adieresis" unicode="&#xe4;" 
d="M465 71q-39 -38 -88.5 -58.5t-103.5 -20.5q-56 0 -98 18.5t-69.5 50t-41.5 73t-14 86.5q0 57 21.5 109t60.5 92t92 63.5t116 23.5q68 0 117.5 -27t78.5 -71l20 90h19l-106 -500h-19zM274 11q56 0 108.5 24t89.5 69l59 279q-28 51 -80 78.5t-113 27.5q-57 0 -106 -21.5
t-85 -58.5t-56.5 -86t-20.5 -104q0 -42 13 -80t38.5 -66.5t64 -45t88.5 -16.5zM257 584l22 103h19l-22 -103h-19zM477 584l22 103h19l-22 -103h-19z" />
    <glyph glyph-name="aring" unicode="&#xe5;" 
d="M465 71q-39 -38 -88.5 -58.5t-103.5 -20.5q-56 0 -98 18.5t-69.5 50t-41.5 73t-14 86.5q0 57 21.5 109t60.5 92t92 63.5t116 23.5q68 0 117.5 -27t78.5 -71l20 90h19l-106 -500h-19zM274 11q56 0 108.5 24t89.5 69l59 279q-28 51 -80 78.5t-113 27.5q-57 0 -106 -21.5
t-85 -58.5t-56.5 -86t-20.5 -104q0 -42 13 -80t38.5 -66.5t64 -45t88.5 -16.5zM334 671q0 -26 18 -44.5t44 -18.5t44 18.5t18 44.5t-18 44.5t-44 18.5t-44 -18.5t-18 -44.5zM476 671q0 -33 -23.5 -56.5t-56.5 -23.5t-56.5 23.5t-23.5 56.5t23.5 56.5t56.5 23.5t56.5 -23.5
t23.5 -56.5z" />
    <glyph glyph-name="ae" unicode="&#xe6;" horiz-adv-x="968" 
d="M868 58q-37 -31 -84 -48.5t-102 -17.5q-84 0 -138.5 39.5t-78.5 99.5q-55 -68 -123 -103.5t-144 -35.5q-39 0 -71.5 10.5t-56 29.5t-37 44t-13.5 54q0 38 16.5 71.5t47 58.5t73 39.5t94.5 14.5q60 0 109 -18t84 -50l15 70q6 27 6 50q0 64 -41.5 93.5t-112.5 29.5
q-57 0 -107 -20.5t-85 -51.5l-10 17q38 30 89.5 52t116.5 22q34 0 65 -8t54 -24.5t36.5 -42.5t13.5 -63q36 63 99.5 100.5t144.5 37.5q39 0 76 -11.5t66.5 -34.5t47 -59t17.5 -85q0 -28 -6 -59h-460q-1 -8 -1.5 -16t-0.5 -16q0 -52 17.5 -92.5t47 -68t68.5 -41.5t82 -14
q51 0 95 16.5t79 46.5zM197 11q73 0 140.5 37.5t120.5 102.5q-10 32 -11 63q-35 41 -87 61t-112 20q-45 0 -83 -13.5t-65.5 -35.5t-43 -51.5t-15.5 -60.5q0 -26 11 -48t31.5 -39t49 -26.5t64.5 -9.5zM727 489q-49 0 -92 -15.5t-76.5 -44t-56.5 -67.5t-31 -85h441q3 21 3 39
q0 43 -14.5 75t-40 54t-60 33t-73.5 11z" />
    <glyph glyph-name="ccedilla" unicode="&#xe7;" horiz-adv-x="537" 
d="M274 -8q-54 2 -95.5 22t-69.5 52.5t-42.5 74t-14.5 86.5q0 58 21 109.5t58.5 89.5t89 60t112.5 22q27 0 54 -5t52.5 -15.5t47.5 -27t38 -38.5l-15 -13q-29 40 -76.5 60t-101.5 20q-55 0 -102.5 -20t-82.5 -55t-55 -83t-20 -104q0 -52 17.5 -92.5t47.5 -68t69 -41.5
t82 -14q51 0 94.5 16.5t78.5 46.5l12 -16q-35 -30 -80 -47t-98 -19l-104 -157h-21z" />
    <glyph glyph-name="egrave" unicode="&#xe8;" horiz-adv-x="573" 
d="M473 58q-37 -31 -84 -48.5t-102 -17.5q-57 0 -101 19.5t-73.5 52t-45 75t-15.5 88.5q0 58 21 109.5t58.5 89.5t89 60t112.5 22q39 0 76 -11.5t66.5 -34.5t47 -59t17.5 -85q0 -28 -6 -59h-460q-1 -8 -1.5 -16t-0.5 -16q0 -52 17.5 -92.5t47 -68t68.5 -41.5t82 -14
q51 0 95 16.5t79 46.5zM332 489q-49 0 -92 -15.5t-76.5 -44t-56.5 -67.5t-31 -85h441q3 21 3 39q0 43 -14.5 75t-40 54t-60 33t-73.5 11zM278 710h19l75 -165h-19z" />
    <glyph glyph-name="eacute" unicode="&#xe9;" horiz-adv-x="573" 
d="M473 58q-37 -31 -84 -48.5t-102 -17.5q-57 0 -101 19.5t-73.5 52t-45 75t-15.5 88.5q0 58 21 109.5t58.5 89.5t89 60t112.5 22q39 0 76 -11.5t66.5 -34.5t47 -59t17.5 -85q0 -28 -6 -59h-460q-1 -8 -1.5 -16t-0.5 -16q0 -52 17.5 -92.5t47 -68t68.5 -41.5t82 -14
q51 0 95 16.5t79 46.5zM332 489q-49 0 -92 -15.5t-76.5 -44t-56.5 -67.5t-31 -85h441q3 21 3 39q0 43 -14.5 75t-40 54t-60 33t-73.5 11zM440 710h23l-145 -165h-23z" />
    <glyph glyph-name="ecircumflex" unicode="&#xea;" horiz-adv-x="573" 
d="M473 58q-37 -31 -84 -48.5t-102 -17.5q-57 0 -101 19.5t-73.5 52t-45 75t-15.5 88.5q0 58 21 109.5t58.5 89.5t89 60t112.5 22q39 0 76 -11.5t66.5 -34.5t47 -59t17.5 -85q0 -28 -6 -59h-460q-1 -8 -1.5 -16t-0.5 -16q0 -52 17.5 -92.5t47 -68t68.5 -41.5t82 -14
q51 0 95 16.5t79 46.5zM332 489q-49 0 -92 -15.5t-76.5 -44t-56.5 -67.5t-31 -85h441q3 21 3 39q0 43 -14.5 75t-40 54t-60 33t-73.5 11zM184 579l191 139l133 -139l-13 -13l-123 128l-177 -129z" />
    <glyph glyph-name="edieresis" unicode="&#xeb;" horiz-adv-x="573" 
d="M473 58q-37 -31 -84 -48.5t-102 -17.5q-57 0 -101 19.5t-73.5 52t-45 75t-15.5 88.5q0 58 21 109.5t58.5 89.5t89 60t112.5 22q39 0 76 -11.5t66.5 -34.5t47 -59t17.5 -85q0 -28 -6 -59h-460q-1 -8 -1.5 -16t-0.5 -16q0 -52 17.5 -92.5t47 -68t68.5 -41.5t82 -14
q51 0 95 16.5t79 46.5zM332 489q-49 0 -92 -15.5t-76.5 -44t-56.5 -67.5t-31 -85h441q3 21 3 39q0 43 -14.5 75t-40 54t-60 33t-73.5 11zM229 584l22 103h19l-22 -103h-19zM449 584l22 103h19l-22 -103h-19z" />
    <glyph glyph-name="igrave" unicode="&#xec;" horiz-adv-x="199" 
d="M143 500h19l-106 -500h-19zM101 710h19l75 -165h-19z" />
    <glyph glyph-name="iacute" unicode="&#xed;" horiz-adv-x="199" 
d="M143 500h19l-106 -500h-19zM253 710h23l-145 -165h-23z" />
    <glyph glyph-name="icircumflex" unicode="&#xee;" horiz-adv-x="199" 
d="M143 500h19l-106 -500h-19zM14 579l191 139l133 -139l-13 -13l-123 128l-177 -129z" />
    <glyph glyph-name="idieresis" unicode="&#xef;" horiz-adv-x="199" 
d="M143 500h19l-106 -500h-19zM51 584l22 103h19l-22 -103h-19zM271 584l22 103h19l-22 -103h-19z" />
    <glyph glyph-name="eth" unicode="&#xf0;" horiz-adv-x="625" 
d="M291 610h122l-50 100h21l50 -100h145l-4 -19h-132l78 -154q15 -30 25 -51.5t16 -40t8.5 -35.5t2.5 -37q0 -59 -21.5 -110t-59 -89t-89 -60t-111.5 -22q-57 0 -102 19.5t-75.5 52t-47 75t-16.5 88.5q0 58 21.5 109.5t59 89.5t89 60t111.5 22q50 0 90.5 -14.5t70.5 -40.5
l-70 138h-136zM71 227q0 -51 18.5 -91t49 -68t70 -42.5t82.5 -14.5q55 0 102.5 19.5t83 54.5t56 83t20.5 105q0 51 -18.5 91t-49 68t-70 42.5t-82.5 14.5q-55 0 -102.5 -19.5t-83 -54.5t-56 -83t-20.5 -105z" />
    <glyph glyph-name="ntilde" unicode="&#xf1;" horiz-adv-x="580" 
d="M143 500h19l-20 -93q33 44 81 72.5t112 28.5q82 0 129 -45.5t47 -123.5q0 -28 -6 -58l-60 -281h-19l61 285q6 28 6 53q0 72 -43.5 111.5t-114.5 39.5q-64 0 -115 -33t-87 -90l-77 -366h-19zM205 582q11 45 38 67t57 22q26 0 45 -11t35.5 -24.5t32.5 -24.5t36 -11
q28 0 47.5 18.5t29.5 52.5h19q-14 -48 -39.5 -68.5t-56.5 -20.5q-24 0 -42 11t-34 24.5t-33.5 24.5t-39.5 11q-29 0 -47.5 -19t-28.5 -52h-19z" />
    <glyph glyph-name="ograve" unicode="&#xf2;" horiz-adv-x="624" 
d="M71 227q0 -51 18.5 -91t49 -68t70 -42.5t82.5 -14.5q55 0 102.5 19.5t83 54.5t56 83t20.5 105q0 51 -18.5 91t-49 68t-70 42.5t-82.5 14.5q-55 0 -102.5 -19.5t-83 -54.5t-56 -83t-20.5 -105zM573 273q0 -59 -21.5 -110t-59 -89t-89 -60t-111.5 -22q-57 0 -102 19.5
t-75.5 52t-47 75t-16.5 88.5q0 58 21.5 109.5t59 89.5t89 60t111.5 22q57 0 102 -19.5t75.5 -52t47 -75t16.5 -88.5zM312 710h19l75 -165h-19z" />
    <glyph glyph-name="oacute" unicode="&#xf3;" horiz-adv-x="624" 
d="M71 227q0 -51 18.5 -91t49 -68t70 -42.5t82.5 -14.5q55 0 102.5 19.5t83 54.5t56 83t20.5 105q0 51 -18.5 91t-49 68t-70 42.5t-82.5 14.5q-55 0 -102.5 -19.5t-83 -54.5t-56 -83t-20.5 -105zM573 273q0 -59 -21.5 -110t-59 -89t-89 -60t-111.5 -22q-57 0 -102 19.5
t-75.5 52t-47 75t-16.5 88.5q0 58 21.5 109.5t59 89.5t89 60t111.5 22q57 0 102 -19.5t75.5 -52t47 -75t16.5 -88.5zM464 710h23l-145 -165h-23z" />
    <glyph glyph-name="ocircumflex" unicode="&#xf4;" horiz-adv-x="624" 
d="M71 227q0 -51 18.5 -91t49 -68t70 -42.5t82.5 -14.5q55 0 102.5 19.5t83 54.5t56 83t20.5 105q0 51 -18.5 91t-49 68t-70 42.5t-82.5 14.5q-55 0 -102.5 -19.5t-83 -54.5t-56 -83t-20.5 -105zM573 273q0 -59 -21.5 -110t-59 -89t-89 -60t-111.5 -22q-57 0 -102 19.5
t-75.5 52t-47 75t-16.5 88.5q0 58 21.5 109.5t59 89.5t89 60t111.5 22q57 0 102 -19.5t75.5 -52t47 -75t16.5 -88.5zM218 579l191 139l133 -139l-13 -13l-123 128l-177 -129z" />
    <glyph glyph-name="otilde" unicode="&#xf5;" horiz-adv-x="624" 
d="M71 227q0 -51 18.5 -91t49 -68t70 -42.5t82.5 -14.5q55 0 102.5 19.5t83 54.5t56 83t20.5 105q0 51 -18.5 91t-49 68t-70 42.5t-82.5 14.5q-55 0 -102.5 -19.5t-83 -54.5t-56 -83t-20.5 -105zM573 273q0 -59 -21.5 -110t-59 -89t-89 -60t-111.5 -22q-57 0 -102 19.5
t-75.5 52t-47 75t-16.5 88.5q0 58 21.5 109.5t59 89.5t89 60t111.5 22q57 0 102 -19.5t75.5 -52t47 -75t16.5 -88.5zM222 582q11 45 38 67t57 22q26 0 45 -11t35.5 -24.5t32.5 -24.5t36 -11q28 0 47.5 18.5t29.5 52.5h19q-14 -48 -39.5 -68.5t-56.5 -20.5q-24 0 -42 11
t-34 24.5t-33.5 24.5t-39.5 11q-29 0 -47.5 -19t-28.5 -52h-19z" />
    <glyph glyph-name="odieresis" unicode="&#xf6;" horiz-adv-x="624" 
d="M71 227q0 -51 18.5 -91t49 -68t70 -42.5t82.5 -14.5q55 0 102.5 19.5t83 54.5t56 83t20.5 105q0 51 -18.5 91t-49 68t-70 42.5t-82.5 14.5q-55 0 -102.5 -19.5t-83 -54.5t-56 -83t-20.5 -105zM573 273q0 -59 -21.5 -110t-59 -89t-89 -60t-111.5 -22q-57 0 -102 19.5
t-75.5 52t-47 75t-16.5 88.5q0 58 21.5 109.5t59 89.5t89 60t111.5 22q57 0 102 -19.5t75.5 -52t47 -75t16.5 -88.5zM263 584l22 103h19l-22 -103h-19zM483 584l22 103h19l-22 -103h-19z" />
    <glyph glyph-name="divide" unicode="&#xf7;" horiz-adv-x="590" 
d="M289 460h19v-103h-19v103zM289 184h19v-103h-19v103zM79 280h440v-19h-440v19z" />
    <glyph glyph-name="oslash" unicode="&#xf8;" horiz-adv-x="624" 
d="M79 2l46 51q-36 33 -55 78t-19 96q0 58 21.5 109.5t59 89.5t89 60t111.5 22q47 0 85 -13.5t68 -36.5l47 54l13 -13l-46 -53q36 -33 55 -78t19 -95q0 -59 -21.5 -110t-59 -89t-89 -60t-111.5 -22q-47 0 -85.5 13t-67.5 36l-47 -52zM553 273q0 51 -18.5 91t-48.5 68
l-334 -376q29 -22 65 -33.5t74 -11.5q55 0 102.5 19.5t83 54.5t56 83t20.5 105zM71 227q0 -51 18 -91t49 -68l333 375q-29 23 -64.5 34.5t-73.5 11.5q-55 0 -102.5 -19.5t-83 -54.5t-56 -83t-20.5 -105z" />
    <glyph glyph-name="ugrave" unicode="&#xf9;" horiz-adv-x="577" 
d="M434 92q-32 -44 -80.5 -72t-111.5 -28q-85 0 -130 41t-45 114q0 14 2 28t5 30l62 295h19l-63 -299q-6 -27 -6 -51q0 -66 41 -102.5t115 -36.5q66 0 116 33t85 90l78 366h19l-106 -500h-19zM285 710h19l75 -165h-19z" />
    <glyph glyph-name="uacute" unicode="&#xfa;" horiz-adv-x="577" 
d="M434 92q-32 -44 -80.5 -72t-111.5 -28q-85 0 -130 41t-45 114q0 14 2 28t5 30l62 295h19l-63 -299q-6 -27 -6 -51q0 -66 41 -102.5t115 -36.5q66 0 116 33t85 90l78 366h19l-106 -500h-19zM436 710h23l-145 -165h-23z" />
    <glyph glyph-name="ucircumflex" unicode="&#xfb;" horiz-adv-x="577" 
d="M434 92q-32 -44 -80.5 -72t-111.5 -28q-85 0 -130 41t-45 114q0 14 2 28t5 30l62 295h19l-63 -299q-6 -27 -6 -51q0 -66 41 -102.5t115 -36.5q66 0 116 33t85 90l78 366h19l-106 -500h-19zM191 579l191 139l133 -139l-13 -13l-123 128l-177 -129z" />
    <glyph glyph-name="udieresis" unicode="&#xfc;" horiz-adv-x="577" 
d="M434 92q-32 -44 -80.5 -72t-111.5 -28q-85 0 -130 41t-45 114q0 14 2 28t5 30l62 295h19l-63 -299q-6 -27 -6 -51q0 -66 41 -102.5t115 -36.5q66 0 116 33t85 90l78 366h19l-106 -500h-19zM236 584l22 103h19l-22 -103h-19zM456 584l22 103h19l-22 -103h-19z" />
    <glyph glyph-name="yacute" unicode="&#xfd;" horiz-adv-x="515" 
d="M194 9l-131 491h21l124 -470l329 470h24l-480 -684h-23zM406 710h23l-145 -165h-23z" />
    <glyph glyph-name="thorn" unicode="&#xfe;" 
d="M188 710h19l-60 -281q39 38 88.5 58.5t103.5 20.5q56 0 98 -19t69.5 -50.5t41.5 -72.5t14 -86q0 -57 -21.5 -109t-60.5 -92t-92 -63.5t-116 -23.5q-68 0 -118 26.5t-79 71.5l-58 -274h-19zM338 489q-56 0 -108.5 -24t-89.5 -69l-59 -278q27 -52 79 -79.5t114 -27.5
q57 0 106 21.5t85 58t56.5 85.5t20.5 105q0 42 -13 79.5t-38.5 66t-64 45.5t-88.5 17z" />
    <glyph glyph-name="ydieresis" unicode="&#xff;" horiz-adv-x="515" 
d="M194 9l-131 491h21l124 -470l329 470h24l-480 -684h-23zM206 584l22 103h19l-22 -103h-19zM426 584l22 103h19l-22 -103h-19z" />
    <glyph glyph-name="Amacron" unicode="&#x100;" horiz-adv-x="671" 
d="M435 718l179 -718h-19l-63 249h-392l-168 -249h-22zM153 268h375l-101 405zM325 850h278l-4 -19h-278z" />
    <glyph glyph-name="amacron" unicode="&#x101;" 
d="M258 680h278l-5 -19h-278zM465 71q-39 -38 -88.5 -58.5t-103.5 -20.5q-56 0 -98 18.5t-69.5 50t-41.5 73t-14 86.5q0 57 21.5 109t60.5 92t92 63.5t116 23.5q68 0 117.5 -27t78.5 -71l20 90h19l-106 -500h-19zM274 11q56 0 108.5 24t89.5 69l59 279q-28 51 -80 78.5
t-113 27.5q-57 0 -106 -21.5t-85 -58.5t-56.5 -86t-20.5 -104q0 -42 13 -80t38.5 -66.5t64 -45t88.5 -16.5z" />
    <glyph glyph-name="Abreve" unicode="&#x102;" horiz-adv-x="671" 
d="M435 718l179 -718h-19l-63 249h-392l-168 -249h-22zM153 268h375l-101 405zM600 902q-16 -56 -51.5 -88.5t-99.5 -32.5q-58 0 -91 27t-33 74q0 5 0.5 10t1.5 10h18q-1 -5 -1 -9.5v-8.5q0 -46 30.5 -65t75.5 -19q51 0 82 23t50 79h18v0z" />
    <glyph glyph-name="abreve" unicode="&#x103;" 
d="M465 71q-39 -38 -88.5 -58.5t-103.5 -20.5q-56 0 -98 18.5t-69.5 50t-41.5 73t-14 86.5q0 57 21.5 109t60.5 92t92 63.5t116 23.5q68 0 117.5 -27t78.5 -71l20 90h19l-106 -500h-19zM274 11q56 0 108.5 24t89.5 69l59 279q-28 51 -80 78.5t-113 27.5q-57 0 -106 -21.5
t-85 -58.5t-56.5 -86t-20.5 -104q0 -42 13 -80t38.5 -66.5t64 -45t88.5 -16.5zM531 710q-16 -56 -51.5 -88.5t-99.5 -32.5q-58 0 -91 27t-33 74q0 5 0.5 10t1.5 10h18q-1 -5 -1 -9.5v-8.5q0 -46 30.5 -65t75.5 -19q51 0 82 23t50 79h18v0z" />
    <glyph glyph-name="Aogonek" unicode="&#x104;" horiz-adv-x="671" 
d="M552 -192q-30 0 -49 19t-19 50q0 19 10 37t25.5 34t35.5 29.5t40 22.5l-63 249h-392l-168 -249h-22l485 718l179 -718q-45 -21 -78 -52t-33 -72q0 -18 12.5 -33.5t40.5 -15.5q5 0 11 0.5t11 1.5l-4 -18q-12 -3 -22 -3zM153 268h375l-101 405z" />
    <glyph glyph-name="aogonek" unicode="&#x105;" 
d="M403 -192q-27 0 -46.5 16t-19.5 47q0 19 9.5 38.5t25.5 37t36.5 31.5t41.5 22l15 71q-39 -38 -88.5 -58.5t-103.5 -20.5q-56 0 -98 18.5t-69.5 50t-41.5 73t-14 86.5q0 57 21.5 109t60.5 92t92 63.5t116 23.5q68 0 117.5 -27t78.5 -71l20 90h19l-106 -500q-20 -8 -40 -22
t-36 -31t-26 -36.5t-10 -38.5q0 -26 17 -35.5t36 -9.5q12 0 23 3l-4 -19q-14 -3 -26 -3zM274 11q56 0 108.5 24t89.5 69l59 279q-28 51 -80 78.5t-113 27.5q-57 0 -106 -21.5t-85 -58.5t-56.5 -86t-20.5 -104q0 -42 13 -80t38.5 -66.5t64 -45t88.5 -16.5z" />
    <glyph glyph-name="Cacute" unicode="&#x106;" horiz-adv-x="686" 
d="M628 49q-45 -27 -100 -42t-118 -15q-80 0 -141.5 27.5t-103.5 73.5t-64 106.5t-22 125.5q0 75 28 146t81 126t128.5 88t170.5 33q75 0 134 -24.5t101 -66.5l-14 -14q-39 40 -94 63t-127 23q-89 0 -160.5 -30.5t-122 -82t-78 -119.5t-27.5 -142q0 -62 20.5 -118.5t60 -100
t97.5 -69.5t133 -26q60 0 112 14.5t96 40.5l10 -17v0zM584 914h23l-140 -145h-23z" />
    <glyph glyph-name="cacute" unicode="&#x107;" horiz-adv-x="537" 
d="M473 58q-37 -31 -84 -48.5t-102 -17.5q-57 0 -101 19.5t-73.5 52t-45 75t-15.5 88.5q0 58 21 109.5t58.5 89.5t89 60t112.5 22q27 0 54 -5t52.5 -15.5t47.5 -27t38 -38.5l-15 -13q-29 40 -76.5 60t-101.5 20q-55 0 -102.5 -20t-82.5 -55t-55 -83t-20 -104
q0 -52 17.5 -92.5t47.5 -68t69 -41.5t82 -14q51 0 94.5 16.5t78.5 46.5l12 -16v0zM441 710h23l-145 -165h-23z" />
    <glyph glyph-name="Ccircumflex" unicode="&#x108;" horiz-adv-x="686" 
d="M628 49q-45 -27 -100 -42t-118 -15q-80 0 -141.5 27.5t-103.5 73.5t-64 106.5t-22 125.5q0 75 28 146t81 126t128.5 88t170.5 33q75 0 134 -24.5t101 -66.5l-14 -14q-39 40 -94 63t-127 23q-89 0 -160.5 -30.5t-122 -82t-78 -119.5t-27.5 -142q0 -62 20.5 -118.5t60 -100
t97.5 -69.5t133 -26q60 0 112 14.5t96 40.5l10 -17v0zM318 789l211 139l153 -139l-11 -13l-144 129l-200 -130z" />
    <glyph glyph-name="ccircumflex" unicode="&#x109;" horiz-adv-x="537" 
d="M473 58q-37 -31 -84 -48.5t-102 -17.5q-57 0 -101 19.5t-73.5 52t-45 75t-15.5 88.5q0 58 21 109.5t58.5 89.5t89 60t112.5 22q27 0 54 -5t52.5 -15.5t47.5 -27t38 -38.5l-15 -13q-29 40 -76.5 60t-101.5 20q-55 0 -102.5 -20t-82.5 -55t-55 -83t-20 -104
q0 -52 17.5 -92.5t47.5 -68t69 -41.5t82 -14q51 0 94.5 16.5t78.5 46.5l12 -16v0zM186 579l191 139l133 -139l-13 -13l-123 128l-177 -129z" />
    <glyph glyph-name="Cdotaccent" unicode="&#x10a;" horiz-adv-x="686" 
d="M628 49q-45 -27 -100 -42t-118 -15q-80 0 -141.5 27.5t-103.5 73.5t-64 106.5t-22 125.5q0 75 28 146t81 126t128.5 88t170.5 33q75 0 134 -24.5t101 -66.5l-14 -14q-39 40 -94 63t-127 23q-89 0 -160.5 -30.5t-122 -82t-78 -119.5t-27.5 -142q0 -62 20.5 -118.5t60 -100
t97.5 -69.5t133 -26q60 0 112 14.5t96 40.5l10 -17v0zM493 788l22 103h19l-22 -103h-19z" />
    <glyph glyph-name="cdotaccent" unicode="&#x10b;" horiz-adv-x="537" 
d="M473 58q-37 -31 -84 -48.5t-102 -17.5q-57 0 -101 19.5t-73.5 52t-45 75t-15.5 88.5q0 58 21 109.5t58.5 89.5t89 60t112.5 22q27 0 54 -5t52.5 -15.5t47.5 -27t38 -38.5l-15 -13q-29 40 -76.5 60t-101.5 20q-55 0 -102.5 -20t-82.5 -55t-55 -83t-20 -104
q0 -52 17.5 -92.5t47.5 -68t69 -41.5t82 -14q51 0 94.5 16.5t78.5 46.5l12 -16v0zM341 584l22 103h19l-22 -103h-19z" />
    <glyph glyph-name="Ccaron" unicode="&#x10c;" horiz-adv-x="686" 
d="M628 49q-45 -27 -100 -42t-118 -15q-80 0 -141.5 27.5t-103.5 73.5t-64 106.5t-22 125.5q0 75 28 146t81 126t128.5 88t170.5 33q75 0 134 -24.5t101 -66.5l-14 -14q-39 40 -94 63t-127 23q-89 0 -160.5 -30.5t-122 -82t-78 -119.5t-27.5 -142q0 -62 20.5 -118.5t60 -100
t97.5 -69.5t133 -26q60 0 112 14.5t96 40.5l10 -17v0zM710 910l-211 -139l-153 139l11 13l144 -129l200 130z" />
    <glyph glyph-name="ccaron" unicode="&#x10d;" horiz-adv-x="537" 
d="M473 58q-37 -31 -84 -48.5t-102 -17.5q-57 0 -101 19.5t-73.5 52t-45 75t-15.5 88.5q0 58 21 109.5t58.5 89.5t89 60t112.5 22q27 0 54 -5t52.5 -15.5t47.5 -27t38 -38.5l-15 -13q-29 40 -76.5 60t-101.5 20q-55 0 -102.5 -20t-82.5 -55t-55 -83t-20 -104
q0 -52 17.5 -92.5t47.5 -68t69 -41.5t82 -14q51 0 94.5 16.5t78.5 46.5l12 -16v0zM538 705l-191 -139l-133 139l13 13l123 -128l177 129z" />
    <glyph glyph-name="Dcaron" unicode="&#x10e;" horiz-adv-x="755" 
d="M261 19q102 0 184.5 33t140.5 88.5t89.5 127.5t31.5 150q0 58 -20.5 108t-59.5 87t-95.5 57.5t-127.5 20.5h-177l-143 -672h177zM212 710h192q76 0 136 -22.5t101.5 -61.5t63.5 -92.5t22 -115.5q0 -84 -34 -159.5t-95.5 -133t-148 -91.5t-191.5 -34h-197zM652 910
l-211 -139l-153 139l11 13l144 -129l200 130z" />
    <glyph glyph-name="dcaron" unicode="&#x10f;" horiz-adv-x="636" 
d="M465 71q-39 -38 -88.5 -58.5t-103.5 -20.5q-56 0 -98 18.5t-69.5 50t-41.5 73t-14 86.5q0 57 21.5 109t60.5 92t92 63.5t116 23.5q68 0 118 -27t79 -72l64 301h19l-151 -710h-19zM274 11q56 0 108.5 24t89.5 69l59 278q-27 52 -79.5 79.5t-113.5 27.5q-57 0 -106 -21.5
t-85 -58.5t-56.5 -86t-20.5 -104q0 -42 13 -80t38.5 -66.5t64 -45t88.5 -16.5zM729 710h20l-68 -170h-17z" />
    <glyph glyph-name="Dcroat" unicode="&#x110;" horiz-adv-x="765" 
d="M31 376h120l71 334h192q76 0 136 -22.5t101.5 -61.5t63.5 -92.5t22 -115.5q0 -84 -34 -159.5t-95.5 -133t-148 -91.5t-191.5 -34h-197l76 357h-120zM271 19q102 0 184.5 33t140.5 88.5t89.5 127.5t31.5 150q0 58 -20.5 108t-59.5 87t-95.5 57.5t-127.5 20.5h-177
l-67 -315h193l-4 -19h-193l-72 -338h177z" />
    <glyph glyph-name="dcroat" unicode="&#x111;" 
d="M395 628h188l18 82h19l-18 -82h87l-4 -19h-87l-129 -609h-19l15 71q-39 -38 -88.5 -58.5t-103.5 -20.5q-56 0 -98 18.5t-69.5 50t-41.5 73t-14 86.5q0 57 21.5 109t60.5 92t92 63.5t116 23.5q68 0 118 -27t79 -72l42 200h-188zM274 11q56 0 108.5 24t89.5 69l59 278
q-27 52 -79.5 79.5t-113.5 27.5q-57 0 -106 -21.5t-85 -58.5t-56.5 -86t-20.5 -104q0 -42 13 -80t38.5 -66.5t64 -45t88.5 -16.5z" />
    <glyph glyph-name="Emacron" unicode="&#x112;" horiz-adv-x="546" 
d="M212 710h389l-4 -19h-370l-67 -315h310l-4 -19h-310l-72 -338h370l-4 -19h-389zM299 850h278l-4 -19h-278z" />
    <glyph glyph-name="emacron" unicode="&#x113;" horiz-adv-x="573" 
d="M473 58q-37 -31 -84 -48.5t-102 -17.5q-57 0 -101 19.5t-73.5 52t-45 75t-15.5 88.5q0 58 21 109.5t58.5 89.5t89 60t112.5 22q39 0 76 -11.5t66.5 -34.5t47 -59t17.5 -85q0 -28 -6 -59h-460q-1 -8 -1.5 -16t-0.5 -16q0 -52 17.5 -92.5t47 -68t68.5 -41.5t82 -14
q51 0 95 16.5t79 46.5zM332 489q-49 0 -92 -15.5t-76.5 -44t-56.5 -67.5t-31 -85h441q3 21 3 39q0 43 -14.5 75t-40 54t-60 33t-73.5 11zM241 680h278l-5 -19h-278z" />
    <glyph glyph-name="Ebreve" unicode="&#x114;" horiz-adv-x="546" 
d="M212 710h389l-4 -19h-370l-67 -315h310l-4 -19h-310l-72 -338h370l-4 -19h-389zM574 902q-16 -56 -51.5 -88.5t-99.5 -32.5q-58 0 -91 27t-33 74q0 5 0.5 10t1.5 10h18q-1 -5 -1 -9.5v-8.5q0 -46 30.5 -65t75.5 -19q51 0 82 23t50 79h18v0z" />
    <glyph glyph-name="ebreve" unicode="&#x115;" horiz-adv-x="573" 
d="M473 58q-37 -31 -84 -48.5t-102 -17.5q-57 0 -101 19.5t-73.5 52t-45 75t-15.5 88.5q0 58 21 109.5t58.5 89.5t89 60t112.5 22q39 0 76 -11.5t66.5 -34.5t47 -59t17.5 -85q0 -28 -6 -59h-460q-1 -8 -1.5 -16t-0.5 -16q0 -52 17.5 -92.5t47 -68t68.5 -41.5t82 -14
q51 0 95 16.5t79 46.5zM332 489q-49 0 -92 -15.5t-76.5 -44t-56.5 -67.5t-31 -85h441q3 21 3 39q0 43 -14.5 75t-40 54t-60 33t-73.5 11zM515 710q-16 -56 -51.5 -88.5t-99.5 -32.5q-58 0 -91 27t-33 74q0 5 0.5 10t1.5 10h18q-1 -5 -1 -9.5v-8.5q0 -46 30.5 -65t75.5 -19
q51 0 82 23t50 79h18v0z" />
    <glyph glyph-name="Edotaccent" unicode="&#x116;" horiz-adv-x="546" 
d="M212 710h389l-4 -19h-370l-67 -315h310l-4 -19h-310l-72 -338h370l-4 -19h-389zM414 788l22 103h19l-22 -103h-19z" />
    <glyph glyph-name="edotaccent" unicode="&#x117;" horiz-adv-x="573" 
d="M473 58q-37 -31 -84 -48.5t-102 -17.5q-57 0 -101 19.5t-73.5 52t-45 75t-15.5 88.5q0 58 21 109.5t58.5 89.5t89 60t112.5 22q39 0 76 -11.5t66.5 -34.5t47 -59t17.5 -85q0 -28 -6 -59h-460q-1 -8 -1.5 -16t-0.5 -16q0 -52 17.5 -92.5t47 -68t68.5 -41.5t82 -14
q51 0 95 16.5t79 46.5zM332 489q-49 0 -92 -15.5t-76.5 -44t-56.5 -67.5t-31 -85h441q3 21 3 39q0 43 -14.5 75t-40 54t-60 33t-73.5 11zM340 584l22 103h19l-22 -103h-19z" />
    <glyph glyph-name="Eogonek" unicode="&#x118;" horiz-adv-x="546" 
d="M212 710h389l-4 -19h-370l-67 -315h310l-4 -19h-310l-72 -338h370l-4 -19q-45 -21 -78 -52t-33 -72q0 -18 12.5 -33.5t40.5 -15.5q5 0 11 0.5t11 1.5l-4 -18q-12 -3 -22 -3q-30 0 -49 19t-19 50q0 19 10 37t25.5 34t35.5 29.5t40 22.5h-370z" />
    <glyph glyph-name="eogonek" unicode="&#x119;" horiz-adv-x="573" 
d="M290 -192q-27 0 -46.5 16t-19.5 47q0 17 8 35t21.5 34.5t31.5 30.5t37 23q-8 -1 -17 -1.5t-18 -0.5q-57 0 -101 19.5t-73.5 52t-45 75t-15.5 88.5q0 58 21 109.5t58.5 89.5t89 60t112.5 22q39 0 76 -11.5t66.5 -34.5t47 -59t17.5 -85q0 -28 -6 -59h-460q-1 -8 -1.5 -16
t-0.5 -16q0 -52 17.5 -92.5t47 -68t68.5 -41.5t82 -14q51 0 95 16.5t79 46.5l12 -16q-50 -43 -119 -58q-20 -8 -39.5 -22t-35.5 -31.5t-25.5 -36.5t-9.5 -38q0 -26 17 -35.5t36 -9.5q12 0 23 3l-4 -19q-14 -3 -26 -3zM332 489q-49 0 -92 -15.5t-76.5 -44t-56.5 -67.5
t-31 -85h441q3 21 3 39q0 43 -14.5 75t-40 54t-60 33t-73.5 11z" />
    <glyph glyph-name="Ecaron" unicode="&#x11a;" horiz-adv-x="546" 
d="M212 710h389l-4 -19h-370l-67 -315h310l-4 -19h-310l-72 -338h370l-4 -19h-389zM632 910l-211 -139l-153 139l11 13l144 -129l200 130z" />
    <glyph glyph-name="ecaron" unicode="&#x11b;" horiz-adv-x="573" 
d="M473 58q-37 -31 -84 -48.5t-102 -17.5q-57 0 -101 19.5t-73.5 52t-45 75t-15.5 88.5q0 58 21 109.5t58.5 89.5t89 60t112.5 22q39 0 76 -11.5t66.5 -34.5t47 -59t17.5 -85q0 -28 -6 -59h-460q-1 -8 -1.5 -16t-0.5 -16q0 -52 17.5 -92.5t47 -68t68.5 -41.5t82 -14
q51 0 95 16.5t79 46.5zM332 489q-49 0 -92 -15.5t-76.5 -44t-56.5 -67.5t-31 -85h441q3 21 3 39q0 43 -14.5 75t-40 54t-60 33t-73.5 11zM546 705l-191 -139l-133 139l13 13l123 -128l177 129z" />
    <glyph glyph-name="Gcircumflex" unicode="&#x11c;" horiz-adv-x="763" 
d="M663 61q-58 -36 -119 -52.5t-134 -16.5q-80 0 -141.5 27.5t-103.5 73.5t-64 106.5t-22 125.5q0 75 28 146t81 126t128.5 88t170.5 33q75 0 136.5 -24.5t103.5 -66.5l-14 -14q-39 40 -96.5 63t-129.5 23q-89 0 -160.5 -30.5t-122 -82t-78 -119.5t-27.5 -142
q0 -62 20.5 -118.5t60 -100t97.5 -69.5t133 -26q68 0 124.5 15t111.5 47l60 284h-231l13 19h242l-67 -315v0zM317 789l211 139l153 -139l-11 -13l-144 129l-200 -130z" />
    <glyph glyph-name="gcircumflex" unicode="&#x11d;" horiz-adv-x="610" 
d="M492 63q0 -65 -20.5 -113t-57.5 -80t-87.5 -48t-110.5 -16q-30 0 -59 5.5t-54.5 16t-46.5 25t-34 31.5l17 14q24 -32 72 -52.5t106 -20.5q63 0 110.5 17t80 48t48.5 75.5t16 98.5q0 13 -1 23t-3 15q-39 -42 -90.5 -66t-107.5 -24t-97 17t-67.5 47t-39.5 69.5t-13 84.5
q0 57 20.5 107.5t58 88.5t90 60t115.5 22q67 0 115 -27t77 -71l19 90h19l-80 -379q2 -14 3.5 -28t1.5 -30zM271 31q56 0 109 27t90 72l53 254q-27 51 -77.5 78t-110.5 27q-57 0 -105.5 -20t-83 -55t-54 -82.5t-19.5 -102.5q0 -42 12 -78t36.5 -63t62 -42t87.5 -15zM199 579
l191 139l133 -139l-13 -13l-123 128l-177 -129z" />
    <glyph glyph-name="Gbreve" unicode="&#x11e;" horiz-adv-x="763" 
d="M663 61q-58 -36 -119 -52.5t-134 -16.5q-80 0 -141.5 27.5t-103.5 73.5t-64 106.5t-22 125.5q0 75 28 146t81 126t128.5 88t170.5 33q75 0 136.5 -24.5t103.5 -66.5l-14 -14q-39 40 -96.5 63t-129.5 23q-89 0 -160.5 -30.5t-122 -82t-78 -119.5t-27.5 -142
q0 -62 20.5 -118.5t60 -100t97.5 -69.5t133 -26q68 0 124.5 15t111.5 47l60 284h-231l13 19h242l-67 -315v0zM652 902q-16 -56 -51.5 -88.5t-99.5 -32.5q-58 0 -91 27t-33 74q0 5 0.5 10t1.5 10h18q-1 -5 -1 -9.5v-8.5q0 -46 30.5 -65t75.5 -19q51 0 82 23t50 79h18v0z" />
    <glyph glyph-name="gbreve" unicode="&#x11f;" horiz-adv-x="610" 
d="M492 63q0 -65 -20.5 -113t-57.5 -80t-87.5 -48t-110.5 -16q-30 0 -59 5.5t-54.5 16t-46.5 25t-34 31.5l17 14q24 -32 72 -52.5t106 -20.5q63 0 110.5 17t80 48t48.5 75.5t16 98.5q0 13 -1 23t-3 15q-39 -42 -90.5 -66t-107.5 -24t-97 17t-67.5 47t-39.5 69.5t-13 84.5
q0 57 20.5 107.5t58 88.5t90 60t115.5 22q67 0 115 -27t77 -71l19 90h19l-80 -379q2 -14 3.5 -28t1.5 -30zM271 31q56 0 109 27t90 72l53 254q-27 51 -77.5 78t-110.5 27q-57 0 -105.5 -20t-83 -55t-54 -82.5t-19.5 -102.5q0 -42 12 -78t36.5 -63t62 -42t87.5 -15zM527 710
q-16 -56 -51.5 -88.5t-99.5 -32.5q-58 0 -91 27t-33 74q0 5 0.5 10t1.5 10h18q-1 -5 -1 -9.5v-8.5q0 -46 30.5 -65t75.5 -19q51 0 82 23t50 79h18v0z" />
    <glyph glyph-name="Gdotaccent" unicode="&#x120;" horiz-adv-x="763" 
d="M663 61q-58 -36 -119 -52.5t-134 -16.5q-80 0 -141.5 27.5t-103.5 73.5t-64 106.5t-22 125.5q0 75 28 146t81 126t128.5 88t170.5 33q75 0 136.5 -24.5t103.5 -66.5l-14 -14q-39 40 -96.5 63t-129.5 23q-89 0 -160.5 -30.5t-122 -82t-78 -119.5t-27.5 -142
q0 -62 20.5 -118.5t60 -100t97.5 -69.5t133 -26q68 0 124.5 15t111.5 47l60 284h-231l13 19h242l-67 -315v0zM492 788l22 103h19l-22 -103h-19z" />
    <glyph glyph-name="gdotaccent" unicode="&#x121;" horiz-adv-x="610" 
d="M492 63q0 -65 -20.5 -113t-57.5 -80t-87.5 -48t-110.5 -16q-30 0 -59 5.5t-54.5 16t-46.5 25t-34 31.5l17 14q24 -32 72 -52.5t106 -20.5q63 0 110.5 17t80 48t48.5 75.5t16 98.5q0 13 -1 23t-3 15q-39 -42 -90.5 -66t-107.5 -24t-97 17t-67.5 47t-39.5 69.5t-13 84.5
q0 57 20.5 107.5t58 88.5t90 60t115.5 22q67 0 115 -27t77 -71l19 90h19l-80 -379q2 -14 3.5 -28t1.5 -30zM271 31q56 0 109 27t90 72l53 254q-27 51 -77.5 78t-110.5 27q-57 0 -105.5 -20t-83 -55t-54 -82.5t-19.5 -102.5q0 -42 12 -78t36.5 -63t62 -42t87.5 -15zM354 584
l22 103h19l-22 -103h-19z" />
    <glyph glyph-name="uni0122" unicode="&#x122;" horiz-adv-x="763" 
d="M663 61q-58 -36 -119 -52.5t-134 -16.5q-80 0 -141.5 27.5t-103.5 73.5t-64 106.5t-22 125.5q0 75 28 146t81 126t128.5 88t170.5 33q75 0 136.5 -24.5t103.5 -66.5l-14 -14q-39 40 -96.5 63t-129.5 23q-89 0 -160.5 -30.5t-122 -82t-78 -119.5t-27.5 -142
q0 -62 20.5 -118.5t60 -100t97.5 -69.5t133 -26q68 0 124.5 15t111.5 47l60 284h-231l13 19h242l-67 -315v0zM429 -50h21l-110 -165h-21z" />
    <glyph glyph-name="uni0123" unicode="&#x123;" horiz-adv-x="610" 
d="M492 63q0 -65 -20.5 -113t-57.5 -80t-87.5 -48t-110.5 -16q-30 0 -59 5.5t-54.5 16t-46.5 25t-34 31.5l17 14q24 -32 72 -52.5t106 -20.5q63 0 110.5 17t80 48t48.5 75.5t16 98.5q0 13 -1 23t-3 15q-39 -42 -90.5 -66t-107.5 -24t-97 17t-67.5 47t-39.5 69.5t-13 84.5
q0 57 20.5 107.5t58 88.5t90 60t115.5 22q67 0 115 -27t77 -71l19 90h19l-80 -379q2 -14 3.5 -28t1.5 -30zM271 31q56 0 109 27t90 72l53 254q-27 51 -77.5 78t-110.5 27q-57 0 -105.5 -20t-83 -55t-54 -82.5t-19.5 -102.5q0 -42 12 -78t36.5 -63t62 -42t87.5 -15z
M351.007 584.997h-20.998l109.993 164.99h20.999z" />
    <glyph glyph-name="Hcircumflex" unicode="&#x124;" horiz-adv-x="768" 
d="M212 710h19l-71 -334h502l71 334h19l-151 -710h-19l76 357h-502l-76 -357h-19zM315 789l211 139l153 -139l-11 -13l-144 129l-200 -130z" />
    <glyph glyph-name="hcircumflex" unicode="&#x125;" horiz-adv-x="581" 
d="M188 710h19l-65 -304q33 44 81 73t113 29q82 0 129 -45.5t47 -123.5q0 -28 -6 -58l-60 -281h-19l61 285q6 28 6 53q0 72 -43.5 111.5t-114.5 39.5q-65 0 -116 -34t-87 -91l-77 -364h-19zM225 789l211 139l153 -139l-11 -13l-144 129l-200 -130z" />
    <glyph glyph-name="Hbar" unicode="&#x126;" horiz-adv-x="768" 
d="M114 553h64l34 157h19l-34 -157h502l34 157h19l-34 -157h66l-4 -19h-66l-113 -534h-19l76 357h-502l-76 -357h-19l113 534h-64zM662 376l33 158h-502l-33 -158h502z" />
    <glyph glyph-name="hbar" unicode="&#x127;" horiz-adv-x="581" 
d="M82 628h88l18 82h19l-18 -82h187l-4 -19h-187l-43 -203q33 44 81 73t113 29q82 0 129 -45.5t47 -123.5q0 -28 -6 -58l-60 -281h-19l61 285q6 28 6 53q0 72 -43.5 111.5t-114.5 39.5q-65 0 -116 -34t-87 -91l-77 -364h-19l129 609h-88z" />
    <glyph glyph-name="Itilde" unicode="&#x128;" horiz-adv-x="247" 
d="M212 710h19l-151 -710h-19zM82 803q11 45 38 67t57 22q26 0 45 -11t35.5 -24.5t32.5 -24.5t36 -11q28 0 47.5 18.5t29.5 52.5h19q-14 -48 -39.5 -68.5t-56.5 -20.5q-24 0 -42 11t-34 24.5t-33.5 24.5t-39.5 11q-29 0 -47.5 -19t-28.5 -52h-19z" />
    <glyph glyph-name="itilde" unicode="&#x129;" horiz-adv-x="199" 
d="M143 500h19l-106 -500h-19zM14 582q11 45 38 67t57 22q26 0 45 -11t35.5 -24.5t32.5 -24.5t36 -11q28 0 47.5 18.5t29.5 52.5h19q-14 -48 -39.5 -68.5t-56.5 -20.5q-24 0 -42 11t-34 24.5t-33.5 24.5t-39.5 11q-29 0 -47.5 -19t-28.5 -52h-19z" />
    <glyph glyph-name="Imacron" unicode="&#x12a;" horiz-adv-x="247" 
d="M212 710h19l-151 -710h-19zM113 850h278l-4 -19h-278z" />
    <glyph glyph-name="imacron" unicode="&#x12b;" horiz-adv-x="199" 
d="M143 500h19l-106 -500h-19zM53 680h278l-5 -19h-278z" />
    <glyph glyph-name="Ibreve" unicode="&#x12c;" horiz-adv-x="247" 
d="M212 710h19l-151 -710h-19zM399 902q-16 -56 -51.5 -88.5t-99.5 -32.5q-58 0 -91 27t-33 74q0 5 0.5 10t1.5 10h18q-1 -5 -1 -9.5v-8.5q0 -46 30.5 -65t75.5 -19q51 0 82 23t50 79h18v0z" />
    <glyph glyph-name="ibreve" unicode="&#x12d;" horiz-adv-x="199" 
d="M143 500h19l-106 -500h-19zM336 710q-16 -56 -51.5 -88.5t-99.5 -32.5q-58 0 -91 27t-33 74q0 5 0.5 10t1.5 10h18q-1 -5 -1 -9.5v-8.5q0 -46 30.5 -65t75.5 -19q51 0 82 23t50 79h18v0z" />
    <glyph glyph-name="Iogonek" unicode="&#x12e;" horiz-adv-x="247" 
d="M212 710h19l-151 -710h-19zM17 -192q-30 0 -49 19t-19 50q0 19 10 37t25.5 34t35.5 29.5t40 22.5h19q-45 -21 -78 -52t-33 -72q0 -18 12.5 -33.5t40.5 -15.5q5 0 11 0.5t11 1.5l-4 -18q-12 -3 -22 -3z" />
    <glyph glyph-name="iogonek" unicode="&#x12f;" horiz-adv-x="199" 
d="M143 500h19l-106 -500h1q-20 -8 -40 -22t-36 -31t-26 -36.5t-10 -38.5q0 -26 17 -35.5t36 -9.5q12 0 23 3l-4 -19q-14 -3 -26 -3q-27 0 -46.5 16t-19.5 47q0 19 9.5 38.5t25.5 37t36.5 31.5t41.5 22h-1zM188 710q4 4 11 4t8 -4l-19 -90h-19z" />
    <glyph glyph-name="Idotaccent" unicode="&#x130;" horiz-adv-x="247" 
d="M212 710h19l-151 -710h-19zM229 788l22 103h19l-22 -103h-19z" />
    <glyph glyph-name="dotlessi" unicode="&#x131;" horiz-adv-x="199" 
d="M143 500h19l-106 -500h-19z" />
    <glyph glyph-name="Jcircumflex" unicode="&#x134;" horiz-adv-x="517" 
d="M399 187q-21 -100 -78.5 -147.5t-142.5 -47.5q-36 0 -67.5 9t-55.5 27.5t-37.5 46t-13.5 65.5q0 11 1.5 22.5t3.5 24.5h19q-2 -12 -3.5 -23t-1.5 -22q0 -63 41.5 -97t113.5 -34q85 0 134.5 46t67.5 130l111 523h19l-111 -523v0zM332 789l211 139l153 -139l-11 -13
l-144 129l-200 -130z" />
    <glyph glyph-name="jcircumflex" unicode="&#x135;" horiz-adv-x="207" 
d="M-107 -165h8q37 0 60.5 8t38 24t23 41t15.5 60l113 532h19l-116 -548q-8 -36 -19 -62t-29 -42.5t-44.5 -24t-65.5 -7.5h-7zM15 579l191 139l133 -139l-13 -13l-123 128l-177 -129z" />
    <glyph glyph-name="uni0136" unicode="&#x136;" horiz-adv-x="575" 
d="M502 0l-346 353l462 357h28l-463 -358l345 -352h-26zM212 710h19l-151 -710h-19zM242 -50h21l-110 -165h-21z" />
    <glyph glyph-name="uni0137" unicode="&#x137;" horiz-adv-x="465" 
d="M188 710h19l-95 -447l348 237h32l-351 -239l274 -261h-27l-276 263l-56 -263h-19zM208 -50h21l-110 -165h-21z" />
    <glyph glyph-name="Lacute" unicode="&#x139;" horiz-adv-x="514" 
d="M362 913h23l-140 -145h-23zM212 710h19l-147 -691h370l-4 -19h-389z" />
    <glyph glyph-name="lacute" unicode="&#x13a;" horiz-adv-x="199" 
d="M188 710h19l-151 -710h-19zM293 913h23l-140 -145h-23z" />
    <glyph glyph-name="uni013B" unicode="&#x13b;" horiz-adv-x="514" 
d="M212 710h19l-147 -691h370l-4 -19h-389zM269 -50h21l-110 -165h-21z" />
    <glyph glyph-name="uni013C" unicode="&#x13c;" horiz-adv-x="199" 
d="M188 710h19l-151 -710h-19zM25 -50h21l-110 -165h-21z" />
    <glyph glyph-name="Lcaron" unicode="&#x13d;" horiz-adv-x="514" 
d="M212 710h19l-147 -691h370l-4 -19h-389zM360 710h20l-68 -170h-17z" />
    <glyph glyph-name="lcaron" unicode="&#x13e;" horiz-adv-x="223" 
d="M188 710h19l-151 -710h-19zM317 710h20l-68 -170h-17z" />
    <glyph glyph-name="Ldot" unicode="&#x13f;" horiz-adv-x="516" 
d="M378 312l22 103h19l-22 -103h-19zM212 710h19l-147 -691h370l-4 -19h-389z" />
    <glyph glyph-name="ldot" unicode="&#x140;" horiz-adv-x="198" 
d="M199 298l22 103h19l-22 -103h-19zM188 710h19l-151 -710h-19z" />
    <glyph glyph-name="Lslash" unicode="&#x141;" horiz-adv-x="523" 
d="M17 256l122 73l81 381h19l-79 -368l206 123l9 -15l-220 -132l-63 -299h370l-4 -19h-389l65 305l-108 -64z" />
    <glyph glyph-name="lslash" unicode="&#x142;" horiz-adv-x="291" 
d="M21 275l138 85l75 350h19l-72 -337l125 77l9 -15l-139 -85l-74 -350h-19l71 336l-124 -76z" />
    <glyph glyph-name="Nacute" unicode="&#x143;" horiz-adv-x="794" 
d="M222 668l-142 -668h-19l153 718l403 -676l142 668h19l-153 -718zM593 913h23l-140 -145h-23z" />
    <glyph glyph-name="nacute" unicode="&#x144;" horiz-adv-x="580" 
d="M143 500h19l-20 -93q33 44 81 72.5t112 28.5q82 0 129 -45.5t47 -123.5q0 -28 -6 -58l-60 -281h-19l61 285q6 28 6 53q0 72 -43.5 111.5t-114.5 39.5q-64 0 -115 -33t-87 -90l-77 -366h-19zM446 710h23l-145 -165h-23z" />
    <glyph glyph-name="uni0145" unicode="&#x145;" horiz-adv-x="794" 
d="M222 668l-142 -668h-19l153 718l403 -676l142 668h19l-153 -718zM357 -50h21l-110 -165h-21z" />
    <glyph glyph-name="uni0146" unicode="&#x146;" horiz-adv-x="580" 
d="M143 500h19l-20 -93q33 44 81 72.5t112 28.5q82 0 129 -45.5t47 -123.5q0 -28 -6 -58l-60 -281h-19l61 285q6 28 6 53q0 72 -43.5 111.5t-114.5 39.5q-64 0 -115 -33t-87 -90l-77 -366h-19zM254 -50h21l-110 -165h-21z" />
    <glyph glyph-name="Ncaron" unicode="&#x147;" horiz-adv-x="794" 
d="M222 668l-142 -668h-19l153 718l403 -676l142 668h19l-153 -718zM719 910l-211 -139l-153 139l11 13l144 -129l200 130z" />
    <glyph glyph-name="ncaron" unicode="&#x148;" horiz-adv-x="580" 
d="M143 500h19l-20 -93q33 44 81 72.5t112 28.5q82 0 129 -45.5t47 -123.5q0 -28 -6 -58l-60 -281h-19l61 285q6 28 6 53q0 72 -43.5 111.5t-114.5 39.5q-64 0 -115 -33t-87 -90l-77 -366h-19zM553 705l-191 -139l-133 139l13 13l123 -128l177 129z" />
    <glyph glyph-name="Omacron" unicode="&#x14c;" horiz-adv-x="852" 
d="M99 325q0 -62 20.5 -118.5t60 -100t97.5 -69.5t133 -26q89 0 160.5 30.5t122 82t78 119.5t27.5 142q0 62 -20.5 118.5t-60 100t-97.5 69.5t-133 26q-89 0 -160.5 -30.5t-122 -82t-78 -119.5t-27.5 -142zM818 385q0 -75 -28 -146t-81 -126t-128.5 -88t-170.5 -33
q-80 0 -141.5 27.5t-103.5 73.5t-64 106.5t-22 125.5q0 75 28 146t81 126t128.5 88t170.5 33q79 0 141 -27.5t104 -73.5t64 -106.5t22 -125.5zM414 850h278l-4 -19h-278z" />
    <glyph glyph-name="omacron" unicode="&#x14d;" horiz-adv-x="624" 
d="M71 227q0 -51 18.5 -91t49 -68t70 -42.5t82.5 -14.5q55 0 102.5 19.5t83 54.5t56 83t20.5 105q0 51 -18.5 91t-49 68t-70 42.5t-82.5 14.5q-55 0 -102.5 -19.5t-83 -54.5t-56 -83t-20.5 -105zM573 273q0 -59 -21.5 -110t-59 -89t-89 -60t-111.5 -22q-57 0 -102 19.5
t-75.5 52t-47 75t-16.5 88.5q0 58 21.5 109.5t59 89.5t89 60t111.5 22q57 0 102 -19.5t75.5 -52t47 -75t16.5 -88.5zM265 680h278l-5 -19h-278z" />
    <glyph glyph-name="Obreve" unicode="&#x14e;" horiz-adv-x="852" 
d="M99 325q0 -62 20.5 -118.5t60 -100t97.5 -69.5t133 -26q89 0 160.5 30.5t122 82t78 119.5t27.5 142q0 62 -20.5 118.5t-60 100t-97.5 69.5t-133 26q-89 0 -160.5 -30.5t-122 -82t-78 -119.5t-27.5 -142zM818 385q0 -75 -28 -146t-81 -126t-128.5 -88t-170.5 -33
q-80 0 -141.5 27.5t-103.5 73.5t-64 106.5t-22 125.5q0 75 28 146t81 126t128.5 88t170.5 33q79 0 141 -27.5t104 -73.5t64 -106.5t22 -125.5zM690 902q-16 -56 -51.5 -88.5t-99.5 -32.5q-58 0 -91 27t-33 74q0 5 0.5 10t1.5 10h18q-1 -5 -1 -9.5v-8.5q0 -46 30.5 -65
t75.5 -19q51 0 82 23t50 79h18v0z" />
    <glyph glyph-name="obreve" unicode="&#x14f;" horiz-adv-x="624" 
d="M71 227q0 -51 18.5 -91t49 -68t70 -42.5t82.5 -14.5q55 0 102.5 19.5t83 54.5t56 83t20.5 105q0 51 -18.5 91t-49 68t-70 42.5t-82.5 14.5q-55 0 -102.5 -19.5t-83 -54.5t-56 -83t-20.5 -105zM573 273q0 -59 -21.5 -110t-59 -89t-89 -60t-111.5 -22q-57 0 -102 19.5
t-75.5 52t-47 75t-16.5 88.5q0 58 21.5 109.5t59 89.5t89 60t111.5 22q57 0 102 -19.5t75.5 -52t47 -75t16.5 -88.5zM536 710q-16 -56 -51.5 -88.5t-99.5 -32.5q-58 0 -91 27t-33 74q0 5 0.5 10t1.5 10h18q-1 -5 -1 -9.5v-8.5q0 -46 30.5 -65t75.5 -19q51 0 82 23t50 79h18
v0z" />
    <glyph glyph-name="Ohungarumlaut" unicode="&#x150;" horiz-adv-x="852" 
d="M99 325q0 -62 20.5 -118.5t60 -100t97.5 -69.5t133 -26q89 0 160.5 30.5t122 82t78 119.5t27.5 142q0 62 -20.5 118.5t-60 100t-97.5 69.5t-133 26q-89 0 -160.5 -30.5t-122 -82t-78 -119.5t-27.5 -142zM818 385q0 -75 -28 -146t-81 -126t-128.5 -88t-170.5 -33
q-80 0 -141.5 27.5t-103.5 73.5t-64 106.5t-22 125.5q0 75 28 146t81 126t128.5 88t170.5 33q79 0 141 -27.5t104 -73.5t64 -106.5t22 -125.5zM534 913h23l-140 -145h-23zM736 913h23l-140 -145h-23z" />
    <glyph glyph-name="ohungarumlaut" unicode="&#x151;" horiz-adv-x="624" 
d="M71 227q0 -51 18.5 -91t49 -68t70 -42.5t82.5 -14.5q55 0 102.5 19.5t83 54.5t56 83t20.5 105q0 51 -18.5 91t-49 68t-70 42.5t-82.5 14.5q-55 0 -102.5 -19.5t-83 -54.5t-56 -83t-20.5 -105zM573 273q0 -59 -21.5 -110t-59 -89t-89 -60t-111.5 -22q-57 0 -102 19.5
t-75.5 52t-47 75t-16.5 88.5q0 58 21.5 109.5t59 89.5t89 60t111.5 22q57 0 102 -19.5t75.5 -52t47 -75t16.5 -88.5zM389 710h23l-145 -165h-23zM551 710h23l-145 -165h-23z" />
    <glyph glyph-name="OE" unicode="&#x152;" horiz-adv-x="1125" 
d="M656 67q-49 -35 -111 -55t-135 -20q-80 0 -141.5 27.5t-103.5 73.5t-64 106.5t-22 125.5q0 75 28 146t81 126t128.5 88t170.5 33q96 0 165 -39t111 -102l28 133h389l-4 -19h-370l-29 -138q41 -77 41 -168q0 -2 -0.5 -4.5t-0.5 -4.5h232l-4 -19h-228q-6 -78 -41 -149.5
t-97 -122.5l-16 -66h370l-4 -19h-389zM99 325q0 -62 20.5 -118.5t60 -100t97.5 -69.5t133 -26q89 0 160.5 30.5t122 82t78 119.5t27.5 142q0 62 -20.5 118.5t-60 100t-97.5 69.5t-133 26q-89 0 -160.5 -30.5t-122 -82t-78 -119.5t-27.5 -142z" />
    <glyph glyph-name="oe" unicode="&#x153;" horiz-adv-x="1073" 
d="M973 58q-37 -31 -84 -48.5t-102 -17.5q-49 0 -88.5 14.5t-68.5 39.5t-48 59t-26 72q-14 -41 -39.5 -74.5t-60 -58.5t-76 -38.5t-88.5 -13.5q-57 0 -102 19.5t-75.5 52t-47 75t-16.5 88.5q0 58 21.5 109.5t59 89.5t89 60t111.5 22q49 0 89 -14.5t70 -39.5t49.5 -59
t27.5 -72q14 40 39 74t59.5 59t76.5 38.5t90 13.5q39 0 76 -11.5t66.5 -34.5t47 -59t17.5 -85q0 -28 -6 -59h-460q-1 -8 -1.5 -16t-0.5 -16q0 -52 17.5 -92.5t47 -68t68.5 -41.5t82 -14q51 0 95 16.5t79 46.5zM71 227q0 -51 18.5 -91t49 -68t70 -42.5t82.5 -14.5
q55 0 102.5 19.5t83 54.5t56 83t20.5 105q0 51 -18.5 91t-49 68t-70 42.5t-82.5 14.5q-55 0 -102.5 -19.5t-83 -54.5t-56 -83t-20.5 -105zM832 489q-49 0 -92 -15.5t-76.5 -44t-56.5 -67.5t-31 -85h441q3 21 3 39q0 43 -14.5 75t-40 54t-60 33t-73.5 11z" />
    <glyph glyph-name="Racute" unicode="&#x154;" horiz-adv-x="592" 
d="M298 352h-143l-75 -352h-19l151 710h179q46 0 81 -12t57.5 -32t34 -47.5t11.5 -58.5q0 -43 -15.5 -80.5t-47.5 -65.5t-80 -44.5t-112 -17.5l217 -352h-22zM317 371q60 0 105 14.5t74.5 40t44 60t14.5 74.5q0 57 -40.5 94t-122.5 37h-165l-68 -320h158zM491 913h23
l-140 -145h-23z" />
    <glyph glyph-name="racute" unicode="&#x155;" horiz-adv-x="321" 
d="M352 710h23l-145 -165h-23zM143 500h19l-19 -91q30 42 78.5 70.5t111.5 28.5q8 0 16 -0.5t16 -1.5l-5 -20q-7 1 -15 1.5t-16 0.5q-67 0 -118 -35.5t-78 -89.5l-77 -363h-19z" />
    <glyph glyph-name="uni0156" unicode="&#x156;" horiz-adv-x="592" 
d="M298 352h-143l-75 -352h-19l151 710h179q46 0 81 -12t57.5 -32t34 -47.5t11.5 -58.5q0 -43 -15.5 -80.5t-47.5 -65.5t-80 -44.5t-112 -17.5l217 -352h-22zM317 371q60 0 105 14.5t74.5 40t44 60t14.5 74.5q0 57 -40.5 94t-122.5 37h-165l-68 -320h158zM255 -50h21
l-110 -165h-21z" />
    <glyph glyph-name="uni0157" unicode="&#x157;" horiz-adv-x="321" 
d="M29 -50h21l-110 -165h-21zM143 500h19l-19 -91q30 42 78.5 70.5t111.5 28.5q8 0 16 -0.5t16 -1.5l-5 -20q-7 1 -15 1.5t-16 0.5q-67 0 -118 -35.5t-78 -89.5l-77 -363h-19z" />
    <glyph glyph-name="Rcaron" unicode="&#x158;" horiz-adv-x="592" 
d="M619 910l-211 -139l-153 139l11 13l144 -129l200 130zM298 352h-143l-75 -352h-19l151 710h179q46 0 81 -12t57.5 -32t34 -47.5t11.5 -58.5q0 -43 -15.5 -80.5t-47.5 -65.5t-80 -44.5t-112 -17.5l217 -352h-22zM317 371q60 0 105 14.5t74.5 40t44 60t14.5 74.5
q0 57 -40.5 94t-122.5 37h-165l-68 -320h158z" />
    <glyph glyph-name="rcaron" unicode="&#x159;" horiz-adv-x="321" 
d="M143 500h19l-19 -91q30 42 78.5 70.5t111.5 28.5q8 0 16 -0.5t16 -1.5l-5 -20q-7 1 -15 1.5t-16 0.5q-67 0 -118 -35.5t-78 -89.5l-77 -363h-19zM440 705l-191 -139l-133 139l13 13l123 -128l177 129z" />
    <glyph glyph-name="Sacute" unicode="&#x15a;" horiz-adv-x="517" 
d="M456 163q0 -32 -12.5 -63t-38.5 -55t-66 -38.5t-95 -14.5q-41 0 -77 11t-65 29t-49.5 42t-31.5 50l18 9q10 -24 29 -46.5t45.5 -39t60 -26.5t72.5 -10q47 0 82.5 12t59.5 32.5t36 48t12 58.5q0 32 -8 57.5t-23 47t-37 40t-51 37.5l-90 59q-48 32 -72 68.5t-24 84.5
q0 75 49.5 118.5t139.5 43.5q50 0 100 -22.5t88 -78.5l-17 -11q-34 52 -79 72.5t-95 20.5q-36 0 -66.5 -9.5t-52.5 -27.5t-34.5 -44.5t-12.5 -60.5q0 -48 23 -80t68 -61l90 -59q61 -40 92.5 -84.5t31.5 -109.5zM459 913h23l-140 -145h-23z" />
    <glyph glyph-name="sacute" unicode="&#x15b;" horiz-adv-x="402" 
d="M334 116q0 -26 -10.5 -48.5t-30.5 -39t-48.5 -26.5t-64.5 -10q-37 0 -65.5 9.5t-49.5 25.5t-34 35.5t-20 39.5l17 9q14 -43 53 -71.5t101 -28.5q59 0 95.5 29t36.5 73q0 22 -7 40t-19 32.5t-28 27t-35 23.5l-54 32q-37 22 -59.5 52.5t-22.5 72.5q0 48 37 81.5t102 33.5
q26 0 48.5 -7.5t39.5 -19t29.5 -26t18.5 -28.5l-17 -9q-5 11 -15 23.5t-25 23t-34.5 17.5t-44.5 7q-55 0 -87 -27t-32 -69q0 -39 21.5 -65.5t56.5 -47.5l54 -32q41 -24 67 -56t26 -76zM366 709h23l-145 -165h-23z" />
    <glyph glyph-name="Scircumflex" unicode="&#x15c;" horiz-adv-x="517" 
d="M456 163q0 -32 -12.5 -63t-38.5 -55t-66 -38.5t-95 -14.5q-41 0 -77 11t-65 29t-49.5 42t-31.5 50l18 9q10 -24 29 -46.5t45.5 -39t60 -26.5t72.5 -10q47 0 82.5 12t59.5 32.5t36 48t12 58.5q0 32 -8 57.5t-23 47t-37 40t-51 37.5l-90 59q-48 32 -72 68.5t-24 84.5
q0 75 49.5 118.5t139.5 43.5q50 0 100 -22.5t88 -78.5l-17 -11q-34 52 -79 72.5t-95 20.5q-36 0 -66.5 -9.5t-52.5 -27.5t-34.5 -44.5t-12.5 -60.5q0 -48 23 -80t68 -61l90 -59q61 -40 92.5 -84.5t31.5 -109.5zM162 789l211 139l153 -139l-11 -13l-144 129l-200 -130z" />
    <glyph glyph-name="scircumflex" unicode="&#x15d;" horiz-adv-x="402" 
d="M110 579l191 139l133 -139l-13 -13l-123 128l-177 -129zM334 116q0 -26 -10.5 -48.5t-30.5 -39t-48.5 -26.5t-64.5 -10q-37 0 -65.5 9.5t-49.5 25.5t-34 35.5t-20 39.5l17 9q14 -43 53 -71.5t101 -28.5q59 0 95.5 29t36.5 73q0 22 -7 40t-19 32.5t-28 27t-35 23.5l-54 32
q-37 22 -59.5 52.5t-22.5 72.5q0 48 37 81.5t102 33.5q26 0 48.5 -7.5t39.5 -19t29.5 -26t18.5 -28.5l-17 -9q-5 11 -15 23.5t-25 23t-34.5 17.5t-44.5 7q-55 0 -87 -27t-32 -69q0 -39 21.5 -65.5t56.5 -47.5l54 -32q41 -24 67 -56t26 -76z" />
    <glyph glyph-name="Scedilla" unicode="&#x15e;" horiz-adv-x="517" 
d="M232 -8q-39 2 -73 13.5t-61 29.5t-47 41t-30 48l18 9q10 -24 29 -46.5t45.5 -39t60 -26.5t72.5 -10q47 0 82.5 12t59.5 32.5t36 48t12 58.5q0 32 -8 57.5t-23 47t-37 40t-51 37.5l-90 59q-48 32 -72 68.5t-24 84.5q0 75 49.5 118.5t139.5 43.5q50 0 100 -22.5t88 -78.5
l-17 -11q-34 52 -79 72.5t-95 20.5q-36 0 -66.5 -9.5t-52.5 -27.5t-34.5 -44.5t-12.5 -60.5q0 -48 23 -80t68 -61l90 -59q61 -40 92.5 -84.5t31.5 -109.5q0 -32 -12 -62t-37 -54t-63.5 -39t-91.5 -16l-104 -157h-21z" />
    <glyph glyph-name="scedilla" unicode="&#x15f;" horiz-adv-x="402" 
d="M167 -7q-34 1 -60.5 11.5t-45.5 25.5t-31.5 34t-18.5 38l17 9q14 -43 53 -71.5t101 -28.5q59 0 95.5 29t36.5 73q0 22 -7 40t-19 32.5t-28 27t-35 23.5l-54 32q-37 22 -59.5 52.5t-22.5 72.5q0 48 37 81.5t102 33.5q26 0 48.5 -7.5t39.5 -19t29.5 -26t18.5 -28.5l-17 -9
q-5 11 -15 23.5t-25 23t-34.5 17.5t-44.5 7q-55 0 -87 -27t-32 -69q0 -39 21.5 -65.5t56.5 -47.5l54 -32q41 -24 67 -56t26 -76q0 -25 -10 -47t-29 -38.5t-46.5 -27t-61.5 -11.5l-104 -157h-21z" />
    <glyph glyph-name="Scaron" unicode="&#x160;" horiz-adv-x="517" 
d="M553 910l-211 -139l-153 139l11 13l144 -129l200 130zM456 163q0 -32 -12.5 -63t-38.5 -55t-66 -38.5t-95 -14.5q-41 0 -77 11t-65 29t-49.5 42t-31.5 50l18 9q10 -24 29 -46.5t45.5 -39t60 -26.5t72.5 -10q47 0 82.5 12t59.5 32.5t36 48t12 58.5q0 32 -8 57.5t-23 47
t-37 40t-51 37.5l-90 59q-48 32 -72 68.5t-24 84.5q0 75 49.5 118.5t139.5 43.5q50 0 100 -22.5t88 -78.5l-17 -11q-34 52 -79 72.5t-95 20.5q-36 0 -66.5 -9.5t-52.5 -27.5t-34.5 -44.5t-12.5 -60.5q0 -48 23 -80t68 -61l90 -59q61 -40 92.5 -84.5t31.5 -109.5z" />
    <glyph glyph-name="scaron" unicode="&#x161;" horiz-adv-x="402" 
d="M452 705l-191 -139l-133 139l13 13l123 -128l177 129zM334 116q0 -26 -10.5 -48.5t-30.5 -39t-48.5 -26.5t-64.5 -10q-37 0 -65.5 9.5t-49.5 25.5t-34 35.5t-20 39.5l17 9q14 -43 53 -71.5t101 -28.5q59 0 95.5 29t36.5 73q0 22 -7 40t-19 32.5t-28 27t-35 23.5l-54 32
q-37 22 -59.5 52.5t-22.5 72.5q0 48 37 81.5t102 33.5q26 0 48.5 -7.5t39.5 -19t29.5 -26t18.5 -28.5l-17 -9q-5 11 -15 23.5t-25 23t-34.5 17.5t-44.5 7q-55 0 -87 -27t-32 -69q0 -39 21.5 -65.5t56.5 -47.5l54 -32q41 -24 67 -56t26 -76z" />
    <glyph glyph-name="uni0162" unicode="&#x162;" horiz-adv-x="484" 
d="M325 691h-222l4 19h463l-4 -19h-222l-147 -691h-19zM168 -50h21l-110 -165h-21z" />
    <glyph glyph-name="uni0163" unicode="&#x163;" horiz-adv-x="289" 
d="M56 500h116l30 140l21 10l-32 -150h139l-4 -19h-139l-73 -346q-6 -29 -6 -49q0 -34 19.5 -50.5t68.5 -16.5h31l-4 -19h-28q-55 0 -80.5 19.5t-25.5 64.5q0 22 6 52l73 345h-112v19zM137 -50h21l-110 -165h-21z" />
    <glyph glyph-name="Tcaron" unicode="&#x164;" horiz-adv-x="484" 
d="M325 691h-222l4 19h463l-4 -19h-222l-147 -691h-19zM564 910l-211 -139l-153 139l11 13l144 -129l200 130z" />
    <glyph glyph-name="tcaron" unicode="&#x165;" horiz-adv-x="289" 
d="M56 500h116l30 140l21 10l-32 -150h139l-4 -19h-139l-73 -346q-6 -29 -6 -49q0 -34 19.5 -50.5t68.5 -16.5h31l-4 -19h-28q-55 0 -80.5 19.5t-25.5 64.5q0 22 6 52l73 345h-112v19zM355 710h20l-68 -170h-17z" />
    <glyph glyph-name="Utilde" unicode="&#x168;" horiz-adv-x="727" 
d="M626 260q-28 -131 -103 -199.5t-199 -68.5q-106 0 -166 50t-60 146q0 17 1.5 34.5t6.5 37.5l96 450h19l-96 -450q-5 -20 -6.5 -37t-1.5 -34q0 -90 56 -134t150 -44q112 0 184.5 61t99.5 188l96 450h19l-96 -450v0zM322 803q11 45 38 67t57 22q26 0 45 -11t35.5 -24.5
t32.5 -24.5t36 -11q28 0 47.5 18.5t29.5 52.5h19q-14 -48 -39.5 -68.5t-56.5 -20.5q-24 0 -42 11t-34 24.5t-33.5 24.5t-39.5 11q-29 0 -47.5 -19t-28.5 -52h-19z" />
    <glyph glyph-name="utilde" unicode="&#x169;" horiz-adv-x="577" 
d="M434 92q-32 -44 -80.5 -72t-111.5 -28q-85 0 -130 41t-45 114q0 14 2 28t5 30l62 295h19l-63 -299q-6 -27 -6 -51q0 -66 41 -102.5t115 -36.5q66 0 116 33t85 90l78 366h19l-106 -500h-19zM195 582q11 45 38 67t57 22q26 0 45 -11t35.5 -24.5t32.5 -24.5t36 -11
q28 0 47.5 18.5t29.5 52.5h19q-14 -48 -39.5 -68.5t-56.5 -20.5q-24 0 -42 11t-34 24.5t-33.5 24.5t-39.5 11q-29 0 -47.5 -19t-28.5 -52h-19z" />
    <glyph glyph-name="Umacron" unicode="&#x16a;" horiz-adv-x="727" 
d="M626 260q-28 -131 -103 -199.5t-199 -68.5q-106 0 -166 50t-60 146q0 17 1.5 34.5t6.5 37.5l96 450h19l-96 -450q-5 -20 -6.5 -37t-1.5 -34q0 -90 56 -134t150 -44q112 0 184.5 61t99.5 188l96 450h19l-96 -450v0zM353 850h278l-4 -19h-278z" />
    <glyph glyph-name="umacron" unicode="&#x16b;" horiz-adv-x="577" 
d="M434 92q-32 -44 -80.5 -72t-111.5 -28q-85 0 -130 41t-45 114q0 14 2 28t5 30l62 295h19l-63 -299q-6 -27 -6 -51q0 -66 41 -102.5t115 -36.5q66 0 116 33t85 90l78 366h19l-106 -500h-19zM238 680h278l-5 -19h-278z" />
    <glyph glyph-name="Ubreve" unicode="&#x16c;" horiz-adv-x="727" 
d="M626 260q-28 -131 -103 -199.5t-199 -68.5q-106 0 -166 50t-60 146q0 17 1.5 34.5t6.5 37.5l96 450h19l-96 -450q-5 -20 -6.5 -37t-1.5 -34q0 -90 56 -134t150 -44q112 0 184.5 61t99.5 188l96 450h19l-96 -450v0zM629 902q-16 -56 -51.5 -88.5t-99.5 -32.5q-58 0 -91 27
t-33 74q0 5 0.5 10t1.5 10h18q-1 -5 -1 -9.5v-8.5q0 -46 30.5 -65t75.5 -19q51 0 82 23t50 79h18v0z" />
    <glyph glyph-name="ubreve" unicode="&#x16d;" horiz-adv-x="577" 
d="M434 92q-32 -44 -80.5 -72t-111.5 -28q-85 0 -130 41t-45 114q0 14 2 28t5 30l62 295h19l-63 -299q-6 -27 -6 -51q0 -66 41 -102.5t115 -36.5q66 0 116 33t85 90l78 366h19l-106 -500h-19zM509 710q-16 -56 -51.5 -88.5t-99.5 -32.5q-58 0 -91 27t-33 74q0 5 0.5 10
t1.5 10h18q-1 -5 -1 -9.5v-8.5q0 -46 30.5 -65t75.5 -19q51 0 82 23t50 79h18v0z" />
    <glyph glyph-name="Uring" unicode="&#x16e;" horiz-adv-x="727" 
d="M626 260q-28 -131 -103 -199.5t-199 -68.5q-106 0 -166 50t-60 146q0 17 1.5 34.5t6.5 37.5l96 450h19l-96 -450q-5 -20 -6.5 -37t-1.5 -34q0 -90 56 -134t150 -44q112 0 184.5 61t99.5 188l96 450h19l-96 -450v0zM428 836q0 -26 18 -44.5t44 -18.5t44 18.5t18 44.5
t-18 44.5t-44 18.5t-44 -18.5t-18 -44.5zM570 836q0 -33 -23.5 -56.5t-56.5 -23.5t-56.5 23.5t-23.5 56.5t23.5 56.5t56.5 23.5t56.5 -23.5t23.5 -56.5z" />
    <glyph glyph-name="uring" unicode="&#x16f;" horiz-adv-x="577" 
d="M434 92q-32 -44 -80.5 -72t-111.5 -28q-85 0 -130 41t-45 114q0 14 2 28t5 30l62 295h19l-63 -299q-6 -27 -6 -51q0 -66 41 -102.5t115 -36.5q66 0 116 33t85 90l78 366h19l-106 -500h-19zM312 671q0 -26 18 -44.5t44 -18.5t44 18.5t18 44.5t-18 44.5t-44 18.5t-44 -18.5
t-18 -44.5zM454 671q0 -33 -23.5 -56.5t-56.5 -23.5t-56.5 23.5t-23.5 56.5t23.5 56.5t56.5 23.5t56.5 -23.5t23.5 -56.5z" />
    <glyph glyph-name="Uhungarumlaut" unicode="&#x170;" horiz-adv-x="727" 
d="M626 260q-28 -131 -103 -199.5t-199 -68.5q-106 0 -166 50t-60 146q0 17 1.5 34.5t6.5 37.5l96 450h19l-96 -450q-5 -20 -6.5 -37t-1.5 -34q0 -90 56 -134t150 -44q112 0 184.5 61t99.5 188l96 450h19l-96 -450v0zM493 913h23l-140 -145h-23zM695 913h23l-140 -145h-23z
" />
    <glyph glyph-name="uhungarumlaut" unicode="&#x171;" horiz-adv-x="577" 
d="M434 92q-32 -44 -80.5 -72t-111.5 -28q-85 0 -130 41t-45 114q0 14 2 28t5 30l62 295h19l-63 -299q-6 -27 -6 -51q0 -66 41 -102.5t115 -36.5q66 0 116 33t85 90l78 366h19l-106 -500h-19zM383 710h23l-145 -165h-23zM545 710h23l-145 -165h-23z" />
    <glyph glyph-name="Uogonek" unicode="&#x172;" horiz-adv-x="727" 
d="M339 -192q-30 0 -49 19t-19 50q0 18 8.5 35t23 32.5t32.5 28.5t37 22q-24 -3 -48 -3q-106 0 -166 50t-60 146q0 17 1.5 34.5t6.5 37.5l96 450h19l-96 -450q-5 -20 -6.5 -37t-1.5 -34q0 -90 56 -134t150 -44q112 0 184.5 61t99.5 188l96 450h19l-96 -450
q-23 -109 -79 -174.5t-147 -85.5h1q-45 -21 -78 -52t-33 -72q0 -18 12.5 -33.5t40.5 -15.5q5 0 11 0.5t11 1.5l-4 -18q-12 -3 -22 -3z" />
    <glyph glyph-name="uogonek" unicode="&#x173;" horiz-adv-x="577" 
d="M368 -192q-27 0 -46.5 16t-19.5 47q0 19 9.5 38.5t25.5 37t36.5 31.5t41.5 22l19 92q-32 -44 -80.5 -72t-111.5 -28q-85 0 -130 41t-45 114q0 14 2 28t5 30l62 295h19l-63 -299q-6 -27 -6 -51q0 -66 41 -102.5t115 -36.5q66 0 116 33t85 90l78 366h19l-106 -500
q-20 -8 -40 -22t-36 -31t-26 -36.5t-10 -38.5q0 -26 17 -35.5t36 -9.5q12 0 23 3l-4 -19q-14 -3 -26 -3z" />
    <glyph glyph-name="Wcircumflex" unicode="&#x174;" horiz-adv-x="887" 
d="M128 710h19l54 -652l341 660l61 -661l330 653h21l-364 -718l-61 660l-341 -660zM370 789l211 139l153 -139l-11 -13l-144 129l-200 -130z" />
    <glyph glyph-name="wcircumflex" unicode="&#x175;" horiz-adv-x="737" 
d="M67 500h20l66 -453l269 461l73 -462l258 454h23l-291 -508l-74 461l-268 -461zM274 579l191 139l133 -139l-13 -13l-123 128l-177 -129z" />
    <glyph glyph-name="Ycircumflex" unicode="&#x176;" horiz-adv-x="572" 
d="M288 302l-172 408h20l164 -388l329 388h24l-346 -408l-64 -302h-19zM215 789l211 139l153 -139l-11 -13l-144 129l-200 -130z" />
    <glyph glyph-name="ycircumflex" unicode="&#x177;" horiz-adv-x="515" 
d="M194 9l-131 491h21l124 -470l329 470h24l-480 -684h-23zM161 579l191 139l133 -139l-13 -13l-123 128l-177 -129z" />
    <glyph glyph-name="Ydieresis" unicode="&#x178;" horiz-adv-x="572" 
d="M288 302l-172 408h20l164 -388l329 388h24l-346 -408l-64 -302h-19zM280 788l22 103h19l-22 -103h-19zM500 788l22 103h19l-22 -103h-19z" />
    <glyph glyph-name="Zacute" unicode="&#x179;" horiz-adv-x="556" 
d="M586 691h-432l4 19h471l-634 -691h488l-4 -19h-527zM491 913h23l-140 -145h-23z" />
    <glyph glyph-name="zacute" unicode="&#x17a;" horiz-adv-x="472" 
d="M453 481h-352l4 19h395l-491 -481h380l-4 -19h-423zM401 710h23l-145 -165h-23z" />
    <glyph glyph-name="Zdotaccent" unicode="&#x17b;" horiz-adv-x="556" 
d="M586 691h-432l4 19h471l-634 -691h488l-4 -19h-527zM399 788l22 103h19l-22 -103h-19z" />
    <glyph glyph-name="zdotaccent" unicode="&#x17c;" horiz-adv-x="472" 
d="M453 481h-352l4 19h395l-491 -481h380l-4 -19h-423zM310 584l22 103h19l-22 -103h-19z" />
    <glyph glyph-name="Zcaron" unicode="&#x17d;" horiz-adv-x="556" 
d="M586 691h-432l4 19h471l-634 -691h488l-4 -19h-527zM617 910l-211 -139l-153 139l11 13l144 -129l200 130z" />
    <glyph glyph-name="zcaron" unicode="&#x17e;" horiz-adv-x="472" 
d="M453 481h-352l4 19h395l-491 -481h380l-4 -19h-423zM507 705l-191 -139l-133 139l13 13l123 -128l177 129z" />
    <glyph glyph-name="uni0218" unicode="&#x218;" horiz-adv-x="517" 
d="M456 163q0 -32 -12.5 -63t-38.5 -55t-66 -38.5t-95 -14.5q-41 0 -77 11t-65 29t-49.5 42t-31.5 50l18 9q10 -24 29 -46.5t45.5 -39t60 -26.5t72.5 -10q47 0 82.5 12t59.5 32.5t36 48t12 58.5q0 32 -8 57.5t-23 47t-37 40t-51 37.5l-90 59q-48 32 -72 68.5t-24 84.5
q0 75 49.5 118.5t139.5 43.5q50 0 100 -22.5t88 -78.5l-17 -11q-34 52 -79 72.5t-95 20.5q-36 0 -66.5 -9.5t-52.5 -27.5t-34.5 -44.5t-12.5 -60.5q0 -48 23 -80t68 -61l90 -59q61 -40 92.5 -84.5t31.5 -109.5zM229 -50h21l-110 -165h-21z" />
    <glyph glyph-name="uni0219" unicode="&#x219;" horiz-adv-x="402" 
d="M334 116q0 -26 -10.5 -48.5t-30.5 -39t-48.5 -26.5t-64.5 -10q-37 0 -65.5 9.5t-49.5 25.5t-34 35.5t-20 39.5l17 9q14 -43 53 -71.5t101 -28.5q59 0 95.5 29t36.5 73q0 22 -7 40t-19 32.5t-28 27t-35 23.5l-54 32q-37 22 -59.5 52.5t-22.5 72.5q0 48 37 81.5t102 33.5
q26 0 48.5 -7.5t39.5 -19t29.5 -26t18.5 -28.5l-17 -9q-5 11 -15 23.5t-25 23t-34.5 17.5t-44.5 7q-55 0 -87 -27t-32 -69q0 -39 21.5 -65.5t56.5 -47.5l54 -32q41 -24 67 -56t26 -76zM159 -50h21l-110 -165h-21z" />
    <glyph glyph-name="uni021A" unicode="&#x21a;" horiz-adv-x="484" 
d="M325 691h-222l4 19h463l-4 -19h-222l-147 -691h-19zM168 -50h21l-110 -165h-21z" />
    <glyph glyph-name="uni021B" unicode="&#x21b;" horiz-adv-x="289" 
d="M56 500h116l30 140l21 10l-32 -150h139l-4 -19h-139l-73 -346q-6 -29 -6 -49q0 -34 19.5 -50.5t68.5 -16.5h31l-4 -19h-28q-55 0 -80.5 19.5t-25.5 64.5q0 22 6 52l73 345h-112v19zM137 -50h21l-110 -165h-21z" />
    <glyph glyph-name="uni0232" unicode="&#x232;" horiz-adv-x="572" 
d="M288 302l-172 408h20l164 -388l329 388h24l-346 -408l-64 -302h-19zM273 850h278l-4 -19h-278z" />
    <glyph glyph-name="uni0233" unicode="&#x233;" horiz-adv-x="515" 
d="M194 9l-131 491h21l124 -470l329 470h24l-480 -684h-23zM208 680h278l-5 -19h-278z" />
    <glyph glyph-name="uni0237" unicode="&#x237;" horiz-adv-x="207" 
d="M-107 -165h8q37 0 60.5 8t38 24t23 41t15.5 60l113 532h19l-116 -548q-8 -36 -19 -62t-29 -42.5t-44.5 -24t-65.5 -7.5h-7z" />
    <glyph glyph-name="circumflex" unicode="&#x2c6;" horiz-adv-x="364" 
d="M131 579l191 139l133 -139l-13 -13l-123 128l-177 -129z" />
    <glyph glyph-name="caron" unicode="&#x2c7;" horiz-adv-x="364" 
d="M482 705l-191 -139l-133 139l13 13l123 -128l177 129z" />
    <glyph glyph-name="breve" unicode="&#x2d8;" horiz-adv-x="313" 
d="M444 710q-16 -56 -51.5 -88.5t-99.5 -32.5q-58 0 -91 27t-33 74q0 5 0.5 10t1.5 10h18q-1 -5 -1 -9.5v-8.5q0 -46 30.5 -65t75.5 -19q51 0 82 23t50 79h18v0z" />
    <glyph glyph-name="dotaccent" unicode="&#x2d9;" horiz-adv-x="59" 
d="M132 584l22 103h19l-22 -103h-19z" />
    <glyph glyph-name="ring" unicode="&#x2da;" horiz-adv-x="203" 
d="M170 671q0 -26 18 -44.5t44 -18.5t44 18.5t18 44.5t-18 44.5t-44 18.5t-44 -18.5t-18 -44.5zM312 671q0 -33 -23.5 -56.5t-56.5 -23.5t-56.5 23.5t-23.5 56.5t23.5 56.5t56.5 23.5t56.5 -23.5t23.5 -56.5z" />
    <glyph glyph-name="ogonek" unicode="&#x2db;" horiz-adv-x="146" 
d="M48 -192q-27 0 -46.5 16t-19.5 47q0 19 9.5 38.5t25.5 37t36.5 31.5t41.5 22h19q-20 -8 -40 -22t-36 -31t-26 -36.5t-10 -38.5q0 -26 17 -35.5t36 -9.5q12 0 23 3l-4 -19q-14 -3 -26 -3z" />
    <glyph glyph-name="tilde" unicode="&#x2dc;" horiz-adv-x="361" 
d="M132 582q11 45 38 67t57 22q26 0 45 -11t35.5 -24.5t32.5 -24.5t36 -11q28 0 47.5 18.5t29.5 52.5h19q-14 -48 -39.5 -68.5t-56.5 -20.5q-24 0 -42 11t-34 24.5t-33.5 24.5t-39.5 11q-29 0 -47.5 -19t-28.5 -52h-19z" />
    <glyph glyph-name="hungarumlaut" unicode="&#x2dd;" horiz-adv-x="335" 
d="M281 710h23l-145 -165h-23zM443 710h23l-145 -165h-23z" />
    <glyph glyph-name="Wgrave" unicode="&#x1e80;" horiz-adv-x="887" 
d="M128 710h19l54 -652l341 660l61 -661l330 653h21l-364 -718l-61 660l-341 -660zM464 913h19l79 -145h-19z" />
    <glyph glyph-name="wgrave" unicode="&#x1e81;" horiz-adv-x="737" 
d="M67 500h20l66 -453l269 461l73 -462l258 454h23l-291 -508l-74 461l-268 -461zM345 710h19l75 -165h-19z" />
    <glyph glyph-name="Wacute" unicode="&#x1e82;" horiz-adv-x="887" 
d="M128 710h19l54 -652l341 660l61 -661l330 653h21l-364 -718l-61 660l-341 -660zM681 913h23l-140 -145h-23z" />
    <glyph glyph-name="wacute" unicode="&#x1e83;" horiz-adv-x="737" 
d="M67 500h20l66 -453l269 461l73 -462l258 454h23l-291 -508l-74 461l-268 -461zM564 710h23l-145 -165h-23z" />
    <glyph glyph-name="Wdieresis" unicode="&#x1e84;" horiz-adv-x="887" 
d="M128 710h19l54 -652l341 660l61 -661l330 653h21l-364 -718l-61 660l-341 -660zM438 788l22 103h19l-22 -103h-19zM658 788l22 103h19l-22 -103h-19z" />
    <glyph glyph-name="wdieresis" unicode="&#x1e85;" horiz-adv-x="737" 
d="M67 500h20l66 -453l269 461l73 -462l258 454h23l-291 -508l-74 461l-268 -461zM319 584l22 103h19l-22 -103h-19zM539 584l22 103h19l-22 -103h-19z" />
    <glyph glyph-name="uni1ECA" unicode="&#x1eca;" horiz-adv-x="247" 
d="M212 710h19l-151 -710h-19zM22 -184l22 103h19l-22 -103h-19z" />
    <glyph glyph-name="uni1ECB" unicode="&#x1ecb;" horiz-adv-x="199" 
d="M188 710q4 4 11 4t8 -4l-19 -90h-19zM143 500h19l-106 -500h-19zM-2 -184l22 103h19l-22 -103h-19z" />
    <glyph glyph-name="uni1ECC" unicode="&#x1ecc;" horiz-adv-x="852" 
d="M99 325q0 -62 20.5 -118.5t60 -100t97.5 -69.5t133 -26q89 0 160.5 30.5t122 82t78 119.5t27.5 142q0 62 -20.5 118.5t-60 100t-97.5 69.5t-133 26q-89 0 -160.5 -30.5t-122 -82t-78 -119.5t-27.5 -142zM818 385q0 -75 -28 -146t-81 -126t-128.5 -88t-170.5 -33
q-80 0 -141.5 27.5t-103.5 73.5t-64 106.5t-22 125.5q0 75 28 146t81 126t128.5 88t170.5 33q79 0 141 -27.5t104 -73.5t64 -106.5t22 -125.5zM324 -184l22 103h19l-22 -103h-19z" />
    <glyph glyph-name="uni1ECD" unicode="&#x1ecd;" horiz-adv-x="624" 
d="M71 227q0 -51 18.5 -91t49 -68t70 -42.5t82.5 -14.5q55 0 102.5 19.5t83 54.5t56 83t20.5 105q0 51 -18.5 91t-49 68t-70 42.5t-82.5 14.5q-55 0 -102.5 -19.5t-83 -54.5t-56 -83t-20.5 -105zM573 273q0 -59 -21.5 -110t-59 -89t-89 -60t-111.5 -22q-57 0 -102 19.5
t-75.5 52t-47 75t-16.5 88.5q0 58 21.5 109.5t59 89.5t89 60t111.5 22q57 0 102 -19.5t75.5 -52t47 -75t16.5 -88.5zM210 -184l22 103h19l-22 -103h-19z" />
    <glyph glyph-name="uni1EE4" unicode="&#x1ee4;" horiz-adv-x="727" 
d="M626 260q-28 -131 -103 -199.5t-199 -68.5q-106 0 -166 50t-60 146q0 17 1.5 34.5t6.5 37.5l96 450h19l-96 -450q-5 -20 -6.5 -37t-1.5 -34q0 -90 56 -134t150 -44q112 0 184.5 61t99.5 188l96 450h19l-96 -450v0zM263 -184l22 103h19l-22 -103h-19z" />
    <glyph glyph-name="uni1EE5" unicode="&#x1ee5;" horiz-adv-x="577" 
d="M434 92q-32 -44 -80.5 -72t-111.5 -28q-85 0 -130 41t-45 114q0 14 2 28t5 30l62 295h19l-63 -299q-6 -27 -6 -51q0 -66 41 -102.5t115 -36.5q66 0 116 33t85 90l78 366h19l-106 -500h-19zM183 -184l22 103h19l-22 -103h-19z" />
    <glyph glyph-name="Ygrave" unicode="&#x1ef2;" horiz-adv-x="572" 
d="M288 302l-172 408h20l164 -388l329 388h24l-346 -408l-64 -302h-19zM330 913h19l79 -145h-19z" />
    <glyph glyph-name="ygrave" unicode="&#x1ef3;" horiz-adv-x="515" 
d="M194 9l-131 491h21l124 -470l329 470h24l-480 -684h-23zM254 710h19l75 -165h-19z" />
    <glyph glyph-name="endash" unicode="&#x2013;" horiz-adv-x="561" 
d="M83 280h408l-4 -19h-408z" />
    <glyph glyph-name="emdash" unicode="&#x2014;" horiz-adv-x="869" 
d="M83 280h716l-4 -19h-716z" />
    <glyph glyph-name="quoteleft" unicode="&#x2018;" horiz-adv-x="194" 
d="M157 566l-21 -97h-19l22 104l83 137h21z" />
    <glyph glyph-name="quoteright" unicode="&#x2019;" horiz-adv-x="197" 
d="M190 613l21 97h19l-22 -104l-83 -137h-21z" />
    <glyph glyph-name="quotesinglbase" unicode="&#x201a;" horiz-adv-x="182" 
d="M39 6l21 97h19l-22 -104l-83 -137h-21z" />
    <glyph glyph-name="quotedblleft" unicode="&#x201c;" horiz-adv-x="378" 
d="M157 566l-21 -97h-19l22 104l83 137h21zM341 566l-21 -97h-19l22 104l83 137h21z" />
    <glyph glyph-name="quotedblright" unicode="&#x201d;" horiz-adv-x="381" 
d="M190 613l21 97h19l-22 -104l-83 -137h-21zM374 613l21 97h19l-22 -104l-83 -137h-21z" />
    <glyph glyph-name="quotedblbase" unicode="&#x201e;" horiz-adv-x="366" 
d="M39 6l21 97h19l-22 -104l-83 -137h-21zM223 6l21 97h19l-22 -104l-83 -137h-21z" />
    <glyph glyph-name="bullet" unicode="&#x2022;" horiz-adv-x="445" 
d="M232 166q-28 0 -53 10.5t-43.5 29t-29 43.5t-10.5 53t10.5 53t29 43.5t43.5 29t53 10.5t53 -10.5t43.5 -29t29 -43.5t10.5 -53t-10.5 -53t-29 -43.5t-43.5 -29t-53 -10.5z" />
    <glyph glyph-name="ellipsis" unicode="&#x2026;" horiz-adv-x="527" 
d="M31 0l22 103h19l-22 -103h-19zM207 0l22 103h19l-22 -103h-19zM384 0l22 103h19l-22 -103h-19z" />
    <glyph glyph-name="guilsinglleft" unicode="&#x2039;" horiz-adv-x="284" 
d="M57 251l193 212l13 -13l-183 -202l96 -203l-17 -8z" />
    <glyph glyph-name="guilsinglright" unicode="&#x203a;" horiz-adv-x="282" 
d="M226 249l-193 -212l-13 13l183 202l-96 203l17 8z" />
    <glyph glyph-name="Euro" unicode="&#x20ac;" horiz-adv-x="695" 
d="M92 455h113q19 55 54.5 103t84.5 83.5t111 56t136 20.5q40 0 77 -8t69 -22l-9 -17q-29 13 -64 20.5t-73 7.5q-69 0 -127.5 -18.5t-105 -51.5t-80 -77.5t-52.5 -96.5h387l-9 -19h-385q-16 -52 -16 -111q0 -26 3 -48h313l-10 -19h-300q10 -51 34.5 -96t63 -78.5t90.5 -53
t117 -19.5q48 0 92 9l-4 -20q-21 -4 -43 -6t-45 -2q-69 0 -125 21t-97 57t-67 84.5t-36 103.5h-144l9 19h132q-3 24 -3 48q0 59 16 111h-116z" />
    <glyph glyph-name="minus" unicode="&#x2212;" horiz-adv-x="590" 
d="M79 280h440v-19h-440v19z" />
    <glyph glyph-name="uniFB01" unicode="&#xfb01;" horiz-adv-x="495" 
d="M60 500h128q-21 12 -35 36.5t-14 52.5q0 27 11.5 49.5t32 38t48.5 24.5t61 9h91l-4 -18h-83q-63 0 -100 -28t-37 -76q0 -35 24.5 -61.5t71.5 -26.5h84l-4 -19h-138l-102 -481h-19l102 481h-122zM484 710q4 4 11 4t8 -4l-19 -90h-19zM439 500h19l-106 -500h-19z" />
    <glyph glyph-name="uniFB02" unicode="&#xfb02;" horiz-adv-x="495" 
d="M60 500h128q-21 12 -35 36.5t-14 52.5q0 27 11.5 49.5t32 38t48.5 24.5t61 9h91l-4 -18h-83q-63 0 -100 -28t-37 -76q0 -35 24.5 -61.5t71.5 -26.5h84l-4 -19h-138l-102 -481h-19l102 481h-122zM484 710h19l-151 -710h-19z" />
    <glyph glyph-name="glyph332" horiz-adv-x="59" 
d="M-31 -184l22 103h19l-22 -103h-19z" />
    <glyph glyph-name="glyph334" horiz-adv-x="215" 
d="M119 -50h21l-110 -165h-21z" />
    <glyph glyph-name="glyph338" horiz-adv-x="500" 
d="M406 710h20l-68 -170h-17z" />
    <glyph glyph-name="glyph339" horiz-adv-x="181" 
d="M353 913h23l-140 -145h-23z" />
    <glyph glyph-name="glyph340" horiz-adv-x="313" 
d="M485 902q-16 -56 -51.5 -88.5t-99.5 -32.5q-58 0 -91 27t-33 74q0 5 0.5 10t1.5 10h18q-1 -5 -1 -9.5v-8.5q0 -46 30.5 -65t75.5 -19q51 0 82 23t50 79h18v0z" />
    <glyph glyph-name="glyph341" horiz-adv-x="384" 
d="M569 910l-211 -139l-153 139l11 13l144 -129l200 130z" />
    <glyph glyph-name="glyph342" horiz-adv-x="384" 
d="M167 789l211 139l153 -139l-11 -13l-144 129l-200 -130z" />
    <glyph glyph-name="glyph343" horiz-adv-x="279" 
d="M175 788l22 103h19l-22 -103h-19zM395 788l22 103h19l-22 -103h-19z" />
    <glyph glyph-name="glyph344" horiz-adv-x="59" 
d="M173 788l22 103h19l-22 -103h-19z" />
    <glyph glyph-name="glyph345" horiz-adv-x="181" 
d="M166 913h19l79 -145h-19z" />
    <glyph glyph-name="glyph346" horiz-adv-x="371" 
d="M353 913h23l-140 -145h-23zM555 913h23l-140 -145h-23z" />
    <glyph glyph-name="glyph347" horiz-adv-x="321" 
d="M184 850h278l-4 -19h-278z" />
    <glyph glyph-name="glyph348" horiz-adv-x="200" 
d="M215 836q0 -26 18 -44.5t44 -18.5t44 18.5t18 44.5t-18 44.5t-44 18.5t-44 -18.5t-18 -44.5zM357 836q0 -33 -23.5 -56.5t-56.5 -23.5t-56.5 23.5t-23.5 56.5t23.5 56.5t56.5 23.5t56.5 -23.5t23.5 -56.5z" />
    <glyph glyph-name="glyph349" horiz-adv-x="381" 
d="M195 803q11 45 38 67t57 22q26 0 45 -11t35.5 -24.5t32.5 -24.5t36 -11q28 0 47.5 18.5t29.5 52.5h19q-14 -48 -39.5 -68.5t-56.5 -20.5q-24 0 -42 11t-34 24.5t-33.5 24.5t-39.5 11q-29 0 -47.5 -19t-28.5 -52h-19z" />
    </font>
</defs>
</svg>
