<?xml version="1.0" standalone="no"?>
<!DOCTYPE svg PUBLIC "-//W3C//DTD SVG 1.1//EN" "http://www.w3.org/Graphics/SVG/1.1/DTD/svg11.dtd" >
<svg xmlns="http://www.w3.org/2000/svg" xmlns:xlink="http://www.w3.org/1999/xlink" version="1.1">
<metadata>
Created by FontForge 20170731 at Thu Apr 27 11:45:26 2017
 By Aleksey,,,
Copyright (c) 2017 Swiss Typefaces Sa`rl. All rights reserved.
</metadata>
<defs>
<font id="Font" horiz-adv-x="590" >
  <font-face 
    font-family="Font"
    font-weight="400"
    font-style="italic"
    font-stretch="normal"
    units-per-em="1000"
    panose-1="2 11 5 0 3 0 0 0 0 0"
    ascent="800"
    descent="-200"
    x-height="500"
    cap-height="710"
    bbox="-118 -229 1132 940"
    underline-thickness="75"
    underline-position="-164"
    slope="-12"
    unicode-range="U+000D-FB02"
  />
<missing-glyph horiz-adv-x="496" 
 />
    <glyph glyph-name=".notdef" horiz-adv-x="496" 
 />
    <glyph glyph-name="glyph1" horiz-adv-x="0" 
 />
    <glyph glyph-name="uni000D" unicode="&#xd;" horiz-adv-x="240" 
 />
    <glyph glyph-name="space" unicode=" " horiz-adv-x="240" 
 />
    <glyph glyph-name="exclam" unicode="!" horiz-adv-x="268" 
d="M159 120q6 -7 9.5 -20t3.5 -24q0 -38 -25 -61t-60 -23q-26 0 -44.5 17.5t-18.5 42.5q0 23 9.5 39t25.5 29h100zM128 446l56 264h88l-56 -264l-66 -231h-54z" />
    <glyph glyph-name="quotedbl" unicode="&#x22;" horiz-adv-x="416" 
d="M133 710h76v-254h-76v254zM335 710h76v-254h-76v254z" />
    <glyph glyph-name="numbersign" unicode="#" horiz-adv-x="704" 
d="M417 201h-180l-63 -201h-77l63 201h-119v70h141l54 173h-121v70h143l61 196h77l-61 -196h180l61 196h76l-61 -196h119v-70h-141l-54 -173h120v-70h-142l-63 -201h-76zM259 271h180l54 173h-180z" />
    <glyph glyph-name="dollar" unicode="$" horiz-adv-x="533" 
d="M177 -1q-59 14 -102.5 48.5t-67.5 82.5l77 47q9 -20 24 -39t35 -33.5t46.5 -23.5t59.5 -9q36 0 63.5 9.5t45.5 25t27.5 36t9.5 42.5q0 39 -22 68.5t-67 56.5l-69 42q-57 42 -87 86t-30 102q0 40 16 73t44.5 56t67 35.5t82.5 13.5l18 80h74l-19 -88q42 -11 77 -35.5
t61 -66.5l-73 -46q-23 39 -60 58t-81 19q-24 0 -46.5 -6t-40 -18t-27.5 -31t-9 -44q2 -37 22 -63t60 -55l69 -43q27 -19 50 -39.5t40 -43.5t26.5 -49.5t9.5 -57.5q0 -40 -15.5 -75t-44.5 -62t-72.5 -43t-98.5 -17l-17 -80h-74z" />
    <glyph glyph-name="percent" unicode="%" horiz-adv-x="1082" 
d="M289 388q27 0 50 10t40.5 27.5t27.5 41t10 50.5t-10 50.5t-27.5 41t-40.5 27.5t-50 10t-50.5 -10t-40.5 -27.5t-27 -41t-10 -50.5t10 -50.5t27 -41t40.5 -27.5t50.5 -10zM289 320q-41 0 -77 15.5t-62.5 42.5t-42 62.5t-15.5 76.5q0 40 15.5 76t42 63t62.5 42.5t77 15.5
q40 0 76 -15.5t63 -42.5t42.5 -63t15.5 -76q0 -41 -15.5 -76.5t-42.5 -62.5t-63 -42.5t-76 -15.5zM776 710h85l-510 -710h-85zM838 64q27 0 50 10t40.5 27.5t27.5 41t10 50.5t-10 50.5t-27.5 41t-40.5 27.5t-50 10t-50.5 -10t-40.5 -27.5t-27 -41t-10 -50.5t10 -50.5t27 -41
t40.5 -27.5t50.5 -10zM838 -4q-41 0 -77 15.5t-62.5 42.5t-42 62.5t-15.5 76.5q0 40 15.5 76t42 63t62.5 42.5t77 15.5q40 0 76 -15.5t63 -42.5t42.5 -63t15.5 -76q0 -41 -15.5 -76.5t-42.5 -62.5t-63 -42.5t-76 -15.5z" />
    <glyph glyph-name="ampersand" unicode="&#x26;" horiz-adv-x="732" 
d="M239 -8q-35 0 -67.5 11.5t-58 33.5t-40.5 52.5t-15 69.5q0 44 13 77t38 60t62.5 50.5t85.5 48.5q-19 27 -32.5 59.5t-13.5 74.5t15 77t42 60t63.5 38.5t79.5 13.5q33 0 61 -11t49 -30t32.5 -44.5t11.5 -55.5q0 -32 -14 -59.5t-39 -51t-58 -44.5t-72 -40l-6 -3l110 -150
l136 132l52 -61l-139 -137l121 -163h-108l-77 103q-29 -26 -56 -46.5t-54.5 -35t-57.5 -22t-64 -7.5zM250 69q48 0 89 28.5t85 70.5l-125 169l-7 -4q-35 -18 -62.5 -35.5t-46.5 -37t-28.5 -41.5t-9.5 -49q0 -49 31 -75t74 -26zM293 540q0 -32 11.5 -55t31.5 -51l16 8
q58 29 94 57.5t36 67.5q0 35 -22 56t-60 21q-20 0 -39.5 -7.5t-34.5 -21t-24 -33t-9 -42.5z" />
    <glyph glyph-name="quotesingle" unicode="'" horiz-adv-x="214" 
d="M133 710h76v-254h-76v254z" />
    <glyph glyph-name="parenleft" unicode="(" horiz-adv-x="266" 
d="M78 -142q-18 64 -27.5 128t-9.5 127q0 161 53.5 318t171.5 313l69 -32q-112 -152 -164 -294.5t-52 -291.5q0 -57 7.5 -118t23.5 -121l-72 -29v0z" />
    <glyph glyph-name="parenright" unicode=")" horiz-adv-x="266" 
d="M210 744q18 -64 27.5 -128t9.5 -127q0 -161 -53.5 -318t-171.5 -313l-69 32q112 152 164 294.5t52 291.5q0 57 -7.5 118t-23.5 121l72 29v0z" />
    <glyph glyph-name="asterisk" unicode="*" horiz-adv-x="455" 
d="M287 477l-82 -111l-52 35l81 112l-132 45l19 62l134 -45v135h63v-134l133 43l19 -60l-131 -44l82 -113l-53 -37z" />
    <glyph glyph-name="plus" unicode="+" 
d="M82 310h183v178h71v-178h183v-70h-183v-182h-71v182h-183v70z" />
    <glyph glyph-name="comma" unicode="," horiz-adv-x="257" 
d="M73 0h-51l26 123h122l-27 -124l-87 -141h-57z" />
    <glyph glyph-name="hyphen" unicode="-" horiz-adv-x="374" 
d="M80 318h243l-19 -89h-243z" />
    <glyph glyph-name="period" unicode="." horiz-adv-x="249" 
d="M169 66q0 -31 -21.5 -52.5t-52.5 -21.5q-30 0 -52 21.5t-22 52.5t22 52.5t52 21.5q31 0 52.5 -21.5t21.5 -52.5z" />
    <glyph glyph-name="slash" unicode="/" horiz-adv-x="364" 
d="M336 710h80l-341 -710h-81z" />
    <glyph glyph-name="zero" unicode="0" 
d="M266 76q54 0 94 39.5t66.5 99t39.5 128t13 127.5q0 86 -31 124.5t-80 38.5q-36 0 -65.5 -18.5t-53 -49t-41 -71t-29 -84t-17.5 -87.5t-6 -83q0 -87 31 -125.5t79 -38.5zM260 -8q-44 0 -79.5 16.5t-61.5 48t-40 78t-14 105.5q0 56 8.5 112.5t26 110t43 100t60 81t77 54.5
t94.5 20q43 0 79.5 -16.5t62 -48.5t40 -78.5t14.5 -105.5q0 -55 -8.5 -112t-26 -110.5t-43.5 -100t-60.5 -81t-77.5 -54t-94 -19.5z" />
    <glyph glyph-name="one" unicode="1" 
d="M399 572l-254 -107l20 97l349 148l-151 -710h-86z" />
    <glyph glyph-name="two" unicode="2" 
d="M320 298q37 34 66.5 62.5t49.5 54.5t31 51.5t11 53.5q0 25 -9 46.5t-25 37.5t-37.5 24.5t-46.5 8.5q-30 0 -55.5 -10t-44.5 -27.5t-30.5 -41.5t-13.5 -52h-85q3 43 22 81.5t49.5 67.5t72.5 46t92 17q47 0 83.5 -16t61.5 -43t38 -62.5t13 -73.5q0 -34 -9 -63t-25 -54.5
t-38 -49.5t-48 -48l-250 -227h297l-17 -81h-476z" />
    <glyph glyph-name="three" unicode="3" 
d="M496 242q0 -49 -16 -94.5t-48 -80t-80 -55t-112 -20.5q-72 0 -122 30t-75 77l78 44q17 -33 49.5 -51t77.5 -18q36 0 65.5 12.5t50.5 34t32 50.5t11 63q0 30 -9.5 55t-28.5 44t-47.5 29.5t-65.5 10.5h-49l201 256h-246l17 81h388l-216 -275q35 -10 62 -29t45.5 -44.5
t28 -56t9.5 -63.5z" />
    <glyph glyph-name="four" unicode="4" 
d="M354 179h-372l573 539l-99 -463h119l-16 -76h-119l-38 -179h-86zM370 255l50 239l-249 -239h199z" />
    <glyph glyph-name="five" unicode="5" 
d="M512 242q0 -53 -17.5 -99t-51 -79.5t-82 -52.5t-109.5 -19q-69 0 -120 31.5t-75 79.5l79 43q15 -33 48.5 -52.5t75.5 -19.5q37 0 67.5 12.5t51.5 34t32.5 51t11.5 63.5q0 29 -9.5 54t-26.5 43.5t-41.5 29t-54.5 10.5q-72 0 -116 -47l-55 28l80 357h356l-17 -81h-272
l-42 -189q34 12 74 12q51 0 90.5 -17.5t67 -46.5t41.5 -67t14 -79z" />
    <glyph glyph-name="six" unicode="6" 
d="M531 242q0 -52 -18 -97.5t-51.5 -79.5t-81.5 -53.5t-109 -19.5q-51 0 -90.5 17.5t-66.5 46.5t-41.5 67t-14.5 79q0 53 20.5 98t63.5 99l250 311h107l-212 -261q8 2 14.5 2.5t16.5 0.5q51 0 90.5 -17.5t66.5 -46.5t41.5 -67t14.5 -79zM147 210q0 -60 35.5 -98t95.5 -38
q38 0 68.5 12.5t51.5 34t32.5 51t11.5 63.5q0 29 -9.5 54t-26.5 43t-41.5 28.5t-54.5 10.5q-37 0 -67 -12.5t-51.5 -34.5t-33 -51t-11.5 -63z" />
    <glyph glyph-name="seven" unicode="7" 
d="M487 629h-333l17 81h469l-495 -710h-98z" />
    <glyph glyph-name="eight" unicode="8" 
d="M519 564q0 -48 -19.5 -89t-54.5 -67q40 -29 61 -73t21 -92q0 -51 -17.5 -97t-50 -80t-79.5 -54t-105 -20q-52 0 -92.5 17t-69 45.5t-43.5 66t-15 78.5q0 76 38 139t107 93q-34 42 -34 96q0 39 13 74t37 61t58.5 41t78.5 15q38 0 69 -13t52.5 -34t33 -49t11.5 -58z
M144 208q0 -60 36.5 -97t99.5 -37q36 0 65.5 13t50.5 35t32 51.5t11 62.5q0 29 -9.5 54t-27.5 43t-43.5 28t-56.5 10q-36 0 -65.5 -13t-50 -35.5t-31.5 -52t-11 -62.5zM251 536q0 -35 19 -58t53 -27h13q22 0 40.5 8.5t31 23t19.5 33.5t7 40q0 38 -23 61t-62 23
q-23 0 -41 -8.5t-30.5 -23t-19.5 -33.5t-7 -39z" />
    <glyph glyph-name="nine" unicode="9" 
d="M488 499q0 60 -35.5 98t-95.5 38q-38 0 -68.5 -12.5t-51.5 -34t-32.5 -51t-11.5 -63.5q0 -29 9.5 -54t26.5 -43t41.5 -28.5t54.5 -10.5q37 0 67 12.5t51.5 34t33 51t11.5 63.5zM104 467q0 52 18 97.5t51.5 79.5t81.5 54t109 20q51 0 90.5 -17.5t66.5 -47t41.5 -67.5
t14.5 -79q0 -53 -20.5 -98t-63.5 -99l-249 -310h-107l211 260q-8 -2 -14.5 -2.5t-16.5 -0.5q-51 0 -90.5 17.5t-66.5 46.5t-41.5 67t-14.5 79z" />
    <glyph glyph-name="colon" unicode=":" horiz-adv-x="284" 
d="M255 434q0 -31 -21.5 -52.5t-52.5 -21.5q-30 0 -52 21.5t-22 52.5t22 52.5t52 21.5q31 0 52.5 -21.5t21.5 -52.5zM177 66q0 -31 -21.5 -52.5t-52.5 -21.5q-30 0 -52 21.5t-22 52.5t22 52.5t52 21.5q31 0 52.5 -21.5t21.5 -52.5z" />
    <glyph glyph-name="semicolon" unicode=";" horiz-adv-x="286" 
d="M256 434q0 -31 -21.5 -52.5t-52.5 -21.5q-30 0 -52 21.5t-22 52.5t22 52.5t52 21.5q31 0 52.5 -21.5t21.5 -52.5zM80 0h-51l26 123h122l-27 -124l-87 -141h-57z" />
    <glyph glyph-name="equal" unicode="=" 
d="M77 201h444v-70h-444v70zM77 420h444v-70h-444v70z" />
    <glyph glyph-name="question" unicode="?" horiz-adv-x="545" 
d="M245 356h32q40 0 74 11.5t58.5 32t38 48.5t13.5 60q0 59 -35.5 94t-95.5 35q-34 0 -62 -12t-48.5 -32t-33 -46.5t-15.5 -56.5h-85q4 46 23.5 87.5t52.5 72.5t77.5 49.5t98.5 18.5q47 0 85.5 -16t65.5 -44t42 -65.5t15 -80.5q0 -47 -16.5 -88t-47 -72t-75 -50.5
t-100.5 -24.5l-12 -54h-78zM222 -8q-26 0 -44.5 17.5t-18.5 42.5q0 23 9.5 39t25.5 29h100q6 -7 9.5 -20t3.5 -24q0 -38 -25 -61t-60 -23z" />
    <glyph glyph-name="at" unicode="@" horiz-adv-x="816" 
d="M424 -8q-81 0 -145.5 27t-110 73.5t-69.5 109.5t-24 135q0 85 32 155.5t85.5 120.5t123.5 77.5t146 27.5q73 0 135.5 -22t108.5 -62.5t72 -98t26 -129.5q0 -65 -15.5 -111.5t-41 -75.5t-58.5 -42.5t-67 -13.5q-31 0 -59 15t-39 39q-23 -23 -57 -37.5t-76 -14.5
q-36 0 -65 13.5t-50 37t-32 55t-11 66.5q0 45 16.5 85t45.5 70t68.5 47t86.5 17q36 0 63 -10t47 -28l6 28h72l-51 -239q-7 -33 4 -56t43 -23q20 0 38.5 11.5t32.5 34.5t22.5 56.5t8.5 77.5q0 58 -21 104t-58 78t-87.5 48.5t-108.5 16.5q-64 0 -121.5 -22.5t-100.5 -64
t-68.5 -100.5t-25.5 -131q0 -59 19 -110t54.5 -88.5t87.5 -59t118 -21.5q45 0 94 10t90 31l25 -63q-47 -21 -103.5 -32.5t-105.5 -11.5zM408 231q28 0 55.5 12.5t46.5 43.5l34 157q-17 24 -44 35t-54 11t-51.5 -11t-43.5 -30.5t-30 -46t-11 -58.5q0 -54 27 -83.5t71 -29.5z
" />
    <glyph glyph-name="A" unicode="A" horiz-adv-x="670" 
d="M435 718l190 -718h-95l-48 186h-312l-127 -186h-104zM227 270h234l-64 249z" />
    <glyph glyph-name="B" unicode="B" horiz-adv-x="642" 
d="M192 710h208q50 0 88 -15t63 -39t37.5 -55t12.5 -64q0 -60 -30 -105.5t-84 -68.5q43 -18 70 -54t27 -87q0 -107 -75.5 -164.5t-207.5 -57.5h-260zM316 85q84 0 129.5 37.5t45.5 95.5q0 22 -8.5 41t-25 33.5t-42 23t-59.5 8.5h-155l-51 -239h166zM356 402q72 0 112 35
t40 89q0 40 -28.5 70t-85.5 30h-129l-48 -224h139z" />
    <glyph glyph-name="C" unicode="C" horiz-adv-x="689" 
d="M643 65q-99 -73 -240 -73q-81 0 -143 27.5t-104.5 74t-64.5 106.5t-22 125q0 75 27 146t79.5 125.5t128 88t173.5 33.5q85 0 146.5 -29.5t103.5 -80.5l-69 -61q-32 38 -79 61t-109 23q-69 0 -125 -24t-96.5 -65t-62.5 -95t-22 -114q0 -50 15.5 -95.5t46 -81t76.5 -56.5
t106 -21q57 0 102.5 16.5t82.5 44.5l50 -75v0z" />
    <glyph glyph-name="D" unicode="D" horiz-adv-x="736" 
d="M261 85q82 0 149 26.5t114.5 71t73 102.5t25.5 122q0 46 -15.5 86t-45 69.5t-72.5 46t-98 16.5h-127l-115 -540h111zM192 710h197q78 0 139.5 -23t103.5 -63t64 -94t22 -116q0 -88 -34.5 -163.5t-95.5 -131t-145 -87.5t-184 -32h-218z" />
    <glyph glyph-name="E" unicode="E" horiz-adv-x="555" 
d="M192 710h413l-19 -88h-323l-45 -215h262l-19 -88h-262l-49 -231h323l-19 -88h-413z" />
    <glyph glyph-name="F" unicode="F" horiz-adv-x="527" 
d="M192 710h406l-19 -88h-316l-45 -215h248l-19 -88h-247l-68 -319h-91z" />
    <glyph glyph-name="G" unicode="G" horiz-adv-x="770" 
d="M682 77q-58 -41 -131 -63t-148 -22q-81 0 -143 27.5t-104.5 74t-64.5 106.5t-22 125q0 75 27 146t79.5 125.5t128 88t173.5 33.5q85 0 153.5 -28.5t110.5 -81.5l-68 -61q-32 40 -86.5 62t-116.5 22q-69 0 -125 -24t-96.5 -65t-62.5 -95t-22 -114q0 -50 15.5 -95.5t46 -81
t76.5 -56.5t106 -21q58 0 107 13t87 41l40 186h-200l58 88h253l-71 -330v0z" />
    <glyph glyph-name="H" unicode="H" horiz-adv-x="763" 
d="M192 710h91l-65 -303h392l65 303h91l-151 -710h-91l68 319h-392l-68 -319h-91z" />
    <glyph glyph-name="I" unicode="I" horiz-adv-x="280" 
d="M192 710h91l-151 -710h-91z" />
    <glyph glyph-name="J" unicode="J" horiz-adv-x="529" 
d="M431 202q-12 -58 -34 -98t-52.5 -65t-69.5 -36t-85 -11q-39 0 -73 10.5t-59.5 31.5t-40.5 51t-15 69q0 12 1 23.5t4 25.5h91q-3 -20 -3 -35q0 -48 28 -68.5t73 -20.5q53 0 91 30.5t52 93.5l108 507h92l-108 -508v0z" />
    <glyph glyph-name="K" unicode="K" horiz-adv-x="629" 
d="M192 710h91l-76 -354l391 354h115l-406 -369l279 -341h-103l-279 339l-72 -339h-91z" />
    <glyph glyph-name="L" unicode="L" horiz-adv-x="519" 
d="M192 710h91l-132 -621h319l-19 -89h-410z" />
    <glyph glyph-name="M" unicode="M" horiz-adv-x="876" 
d="M194 718l255 -384l432 384l-153 -718h-91l103 483l-311 -276l-191 290l-106 -497h-91z" />
    <glyph glyph-name="N" unicode="N" horiz-adv-x="782" 
d="M240 509l-108 -509h-91l153 718l391 -521l109 513h91l-153 -718z" />
    <glyph glyph-name="O" unicode="O" horiz-adv-x="832" 
d="M164 333q0 -51 15.5 -97t46 -81t76.5 -55.5t106 -20.5q69 0 125 24t96.5 65t62.5 95t22 114q0 51 -15.5 97t-46 81t-76.5 55.5t-106 20.5q-69 0 -125 -24t-96.5 -65t-62.5 -95t-22 -114zM808 385q0 -75 -27 -146t-79 -125.5t-128 -88t-174 -33.5q-80 0 -141.5 28
t-103.5 74t-64 106t-22 125q0 75 27 146t79.5 125.5t128 88t173.5 33.5q79 0 141 -28t104 -74t64 -106.5t22 -124.5z" />
    <glyph glyph-name="P" unicode="P" horiz-adv-x="576" 
d="M192 710h188q54 0 95 -14.5t68 -40t40.5 -60t13.5 -75.5q0 -55 -19 -100t-56 -76.5t-92 -49t-127 -17.5h-112l-59 -277h-91zM323 361q85 0 133.5 43.5t48.5 114.5q0 48 -32 77.5t-101 29.5h-107l-56 -265h114z" />
    <glyph glyph-name="Q" unicode="Q" horiz-adv-x="843" 
d="M808 385q0 -75 -27 -146t-79 -126l81 -91l-65 -58l-83 94q-48 -31 -106.5 -48.5t-128.5 -17.5q-80 0 -141.5 28t-103.5 74t-64 106t-22 125q0 75 27 146t79.5 125.5t128 88t173.5 33.5q79 0 141 -28t104 -74t64 -106.5t22 -124.5zM164 333q0 -51 15.5 -97t46 -81
t76.5 -55.5t106 -20.5q48 0 90.5 12t77.5 34l-87 100l64 57l89 -101q35 40 53.5 90.5t18.5 105.5q0 51 -15.5 97t-46 81t-76.5 55.5t-106 20.5q-69 0 -125 -24t-96.5 -65t-62.5 -95t-22 -114z" />
    <glyph glyph-name="R" unicode="R" horiz-adv-x="628" 
d="M295 315h-96l-67 -315h-91l151 710h199q51 0 89.5 -13t64 -36.5t38.5 -56t13 -71.5q0 -91 -54.5 -146.5t-151.5 -68.5l172 -318h-100zM335 394q82 0 125.5 37t43.5 96q0 47 -31 73.5t-95 26.5h-113l-49 -233h119z" />
    <glyph glyph-name="S" unicode="S" horiz-adv-x="530" 
d="M480 189q0 -41 -16.5 -76.5t-47.5 -62.5t-75.5 -42.5t-99.5 -15.5q-41 0 -77.5 10.5t-66.5 29t-53 43.5t-38 55l83 51q9 -20 24 -39t34.5 -33t45 -22.5t55.5 -8.5q64 0 100.5 29t36.5 74q0 42 -23 71.5t-66 59.5l-60 42q-57 42 -87 85t-30 101q0 41 16.5 74t46 56
t68.5 35.5t84 12.5q62 0 116.5 -26t89.5 -84l-82 -52q-44 76 -132 76q-48 0 -81.5 -24t-33.5 -68q0 -37 21 -63t61 -55l61 -43q27 -19 50 -39.5t40 -43.5t26.5 -49.5t9.5 -57.5z" />
    <glyph glyph-name="T" unicode="T" horiz-adv-x="506" 
d="M285 622h-193l19 88h478l-19 -88h-194l-132 -622h-91z" />
    <glyph glyph-name="U" unicode="U" horiz-adv-x="730" 
d="M649 272q-14 -67 -40 -119t-65 -88t-92.5 -54.5t-123.5 -18.5q-54 0 -99 14.5t-77 42t-50 67t-18 90.5q0 34 7 66l93 438h91l-94 -440q-6 -29 -6 -52q0 -69 42.5 -104t114.5 -35q85 0 145 48.5t80 142.5l94 440h91l-93 -438v0z" />
    <glyph glyph-name="V" unicode="V" horiz-adv-x="647" 
d="M97 710h93l118 -514l337 514h102l-478 -718z" />
    <glyph glyph-name="W" unicode="W" horiz-adv-x="872" 
d="M104 710h86l54 -470l289 478l82 -484l253 476h95l-389 -718l-82 505l-305 -505z" />
    <glyph glyph-name="X" unicode="X" horiz-adv-x="635" 
d="M292 372l-170 338h98l136 -269l249 269h112l-322 -348l183 -362h-99l-148 293l-271 -293h-112z" />
    <glyph glyph-name="Y" unicode="Y" horiz-adv-x="625" 
d="M278 300l-175 410h100l132 -322l267 322h114l-347 -410l-64 -300h-91z" />
    <glyph glyph-name="Z" unicode="Z" horiz-adv-x="594" 
d="M480 622h-347l19 88h513l-525 -621h388l-19 -89h-554z" />
    <glyph glyph-name="bracketleft" unicode="[" horiz-adv-x="307" 
d="M194 741h187l-15 -71h-108l-158 -740h108l-15 -71h-187z" />
    <glyph glyph-name="bracketright" unicode="]" horiz-adv-x="306" 
d="M134 -141h-187l15 71h108l158 740h-108l15 71h187z" />
    <glyph glyph-name="underscore" unicode="_" horiz-adv-x="553" 
d="M15 0h424l-16 -73h-424z" />
    <glyph glyph-name="grave" unicode="`" horiz-adv-x="271" 
d="M193 710h104l56 -165h-61z" />
    <glyph glyph-name="a" unicode="a" horiz-adv-x="610" 
d="M408 44q-29 -23 -65.5 -37.5t-86.5 -14.5t-90 18t-68 49t-42.5 72.5t-14.5 87.5q0 57 21 109.5t59.5 92t91.5 63.5t118 24q51 0 91 -16t68 -43l11 51h87l-106 -500h-83zM275 74q42 0 81.5 17.5t68.5 49.5l45 214q-21 34 -60 52.5t-82 18.5q-41 0 -76.5 -15t-62 -42
t-42 -63.5t-15.5 -79.5q0 -69 39 -110.5t104 -41.5z" />
    <glyph glyph-name="b" unicode="b" horiz-adv-x="607" 
d="M173 710h86l-54 -251q28 21 64 35t84 14q50 0 90 -18t67.5 -49t42 -72.5t14.5 -87.5q0 -57 -21 -109.5t-59 -92t-91.5 -63.5t-117.5 -24q-51 0 -91 15.5t-69 41.5l-10 -49h-86zM334 426q-42 0 -81.5 -18t-68.5 -50l-46 -214q21 -34 60.5 -52t82.5 -18q41 0 76.5 15t62 42
t42 63.5t15.5 79.5q0 69 -39 110.5t-104 41.5z" />
    <glyph glyph-name="c" unicode="c" horiz-adv-x="529" 
d="M475 68q-39 -35 -87.5 -55.5t-108.5 -20.5q-57 0 -101 19.5t-74.5 52t-46 75t-15.5 88.5q0 58 21.5 109.5t59.5 89.5t90 60t113 22q69 0 118 -27.5t78 -78.5l-73 -49q-20 35 -53.5 54t-76.5 19q-40 0 -74 -14.5t-59 -40t-39.5 -61t-14.5 -76.5q0 -38 12.5 -68t33.5 -50.5
t49 -31t60 -10.5q40 0 72 14.5t58 39.5l58 -60v0z" />
    <glyph glyph-name="d" unicode="d" horiz-adv-x="610" 
d="M407 43q-29 -22 -65.5 -36.5t-86.5 -14.5t-89.5 18t-67.5 49t-42.5 72.5t-14.5 87.5q0 57 21 109.5t59.5 92t91.5 63.5t118 24q51 0 90.5 -16t68.5 -43l56 261h87l-151 -710h-83zM275 74q42 0 81.5 17.5t68.5 49.5l45 214q-21 34 -60 52.5t-82 18.5q-41 0 -76.5 -15
t-62 -42t-42 -63.5t-15.5 -79.5q0 -69 39 -110.5t104 -41.5z" />
    <glyph glyph-name="e" unicode="e" horiz-adv-x="570" 
d="M479 70q-38 -36 -89 -57t-111 -21q-57 0 -101 19.5t-74.5 52t-46 75t-15.5 88.5q0 58 21.5 109.5t59.5 89.5t90 60t113 22q55 0 95.5 -18.5t67.5 -49t40.5 -70t13.5 -82.5q0 -31 -6 -59h-405q1 -37 13.5 -66t33.5 -48.5t48.5 -30t58.5 -10.5q41 0 75 15t60 41zM319 429
q-63 0 -110 -33.5t-67 -91.5h307q-1 58 -37 91.5t-93 33.5z" />
    <glyph glyph-name="f" unicode="f" horiz-adv-x="348" 
d="M78 500h96q-13 14 -21 35t-8 44q0 57 46 94t127 37h113l-17 -78h-94q-43 0 -69.5 -17.5t-26.5 -53.5q0 -25 15 -42t44 -19h103l-16 -78h-132l-90 -422h-87l90 422h-89z" />
    <glyph glyph-name="g" unicode="g" horiz-adv-x="599" 
d="M493 54q0 -63 -21 -109.5t-58 -77.5t-87 -46t-108 -15q-27 0 -56.5 3.5t-57.5 11.5t-53 20.5t-44 30.5l54 73q26 -26 68.5 -41t92.5 -15q82 0 131 39.5t49 116.5q0 11 -3 20q-28 -20 -64.5 -33.5t-82.5 -13.5q-48 0 -86.5 16.5t-65.5 45t-42 68t-15 84.5q0 57 20 107
t57 87.5t90 59.5t118 22q47 0 84 -13.5t64 -36.5l9 42h87l-83 -391q2 -15 2.5 -28.5t0.5 -26.5zM272 100q39 0 76 16t66 45l44 205q-23 29 -59 44.5t-75 15.5t-74 -13t-60.5 -37.5t-40.5 -59t-15 -77.5q0 -69 37.5 -104t100.5 -35z" />
    <glyph glyph-name="h" unicode="h" horiz-adv-x="584" 
d="M173 710h86l-54 -253q32 26 70 38.5t80 12.5q37 0 69 -12t55 -34.5t36.5 -55t13.5 -72.5q0 -26 -6 -56l-59 -278h-87l57 270q2 12 3.5 22.5t1.5 21.5q0 54 -31 83t-85 29q-41 0 -76.5 -18t-63.5 -52l-75 -356h-86z" />
    <glyph glyph-name="i" unicode="i" horiz-adv-x="236" 
d="M152 609q-11 13 -11 32q0 33 21.5 55t50.5 22q23 0 38.5 -14t15.5 -34t-8 -35t-22 -26h-85zM128 500h86l-106 -500h-86z" />
    <glyph glyph-name="j" unicode="j" horiz-adv-x="245" 
d="M160 609q-11 13 -11 32q0 33 21.5 55t50.5 22q23 0 38.5 -14t15.5 -34t-8 -35t-22 -26h-85zM-101 -102h32q24 0 40 4.5t26.5 14.5t17 26.5t11.5 39.5l110 517h87l-112 -526q-9 -43 -23.5 -73t-36.5 -49t-53 -27.5t-74 -8.5h-42z" />
    <glyph glyph-name="k" unicode="k" horiz-adv-x="509" 
d="M173 710h87l-94 -439l271 229h111l-289 -243l203 -257h-99l-200 253l-54 -253h-87z" />
    <glyph glyph-name="l" unicode="l" horiz-adv-x="237" 
d="M173 710h87l-151 -710h-87z" />
    <glyph glyph-name="m" unicode="m" horiz-adv-x="886" 
d="M737 274q6 28 6 51q0 49 -26 75t-77 26q-39 0 -74 -22.5t-61 -60.5q0 -14 -1.5 -29.5t-5.5 -31.5l-60 -282h-86l58 274q6 27 6 50q0 49 -26.5 75.5t-77.5 26.5q-75 0 -127 -69l-76 -357h-87l106 500h83l-9 -46q32 28 68 41t76 13q48 0 83.5 -20.5t55.5 -57.5
q41 42 89.5 60t98.5 18q73 0 116 -45t43 -122q0 -28 -6 -59l-60 -282h-87z" />
    <glyph glyph-name="n" unicode="n" horiz-adv-x="584" 
d="M128 500h83l-10 -46q66 54 154 54q37 0 69 -12t55 -34.5t36.5 -55t13.5 -72.5q0 -26 -6 -56l-59 -278h-87l57 270q2 12 3.5 22.5t1.5 21.5q0 54 -31 83t-85 29q-41 0 -76.5 -18t-62.5 -52l-75 -356h-87z" />
    <glyph glyph-name="o" unicode="o" horiz-adv-x="605" 
d="M132 234q0 -38 12.5 -67.5t34 -50t49.5 -31.5t60 -11q40 0 74 14.5t59 40t39.5 60.5t14.5 77q0 38 -12.5 67.5t-34 50t-50 31.5t-59.5 11q-40 0 -74 -14.5t-59 -40t-39.5 -60.5t-14.5 -77zM564 274q0 -59 -21.5 -110.5t-59.5 -89.5t-90 -60t-112 -22q-57 0 -101.5 19.5
t-75 52t-46.5 75t-16 88.5q0 58 21.5 109.5t60 89.5t90.5 60t112 22q57 0 101.5 -19.5t74.5 -52t46 -74.5t16 -88z" />
    <glyph glyph-name="p" unicode="p" horiz-adv-x="609" 
d="M128 500h83l-9 -44q29 23 66 37.5t87 14.5t89.5 -18t67.5 -49t42.5 -72.5t14.5 -87.5q0 -57 -21 -109.5t-59.5 -92t-91.5 -63.5t-117 -24q-51 0 -91.5 15.5t-68.5 42.5l-50 -234h-87zM335 426q-42 0 -81 -17.5t-68 -49.5l-46 -215q21 -34 60 -52t82 -18q41 0 77 15
t62.5 42t41.5 63.5t15 79.5q0 69 -39 110.5t-104 41.5z" />
    <glyph glyph-name="q" unicode="q" horiz-adv-x="610" 
d="M403 40q-28 -21 -63.5 -34.5t-83.5 -13.5q-50 0 -90 18t-68 49t-42.5 72.5t-14.5 87.5q0 57 21 109.5t59.5 92t91.5 63.5t118 24q51 0 91 -16t68 -43l11 51h87l-145 -684h-87zM275 74q42 0 81.5 17.5t68.5 49.5l45 214q-21 34 -60 52.5t-82 18.5q-41 0 -76.5 -15t-62 -42
t-42 -63.5t-15.5 -79.5q0 -69 39 -110.5t104 -41.5z" />
    <glyph glyph-name="r" unicode="r" horiz-adv-x="352" 
d="M128 500h87l-13 -61q28 32 67.5 50t86.5 18q9 0 17.5 -0.5t16.5 -1.5l-19 -91q-20 6 -48 6q-43 0 -79.5 -19.5t-61.5 -57.5l-73 -343h-87z" />
    <glyph glyph-name="s" unicode="s" horiz-adv-x="422" 
d="M364 138q0 -33 -14 -59.5t-37.5 -46t-54.5 -30t-66 -10.5q-74 0 -120 31.5t-66 90.5l76 34q28 -79 114 -79q33 0 57.5 16t24.5 44q0 26 -17 43.5t-51 37.5l-39 23q-40 23 -68.5 57t-28.5 79q0 31 12 56.5t33.5 44t51.5 28.5t65 10q54 0 96 -25t62 -75l-78 -35
q-11 27 -32 42t-53 15q-31 0 -51 -14.5t-20 -41.5q0 -22 14 -38.5t42 -33.5l39 -24q21 -12 40.5 -25.5t34.5 -31t24.5 -38t9.5 -45.5z" />
    <glyph glyph-name="t" unicode="t" horiz-adv-x="357" 
d="M60 500h98l23 105l98 45l-32 -150h133l-18 -78h-132l-54 -249q-4 -17 -5 -27t-1 -18q0 -25 14.5 -37.5t51.5 -12.5h59l-17 -78h-63q-135 0 -135 108q0 13 2 26.5t5 29.5l55 258h-82v78z" />
    <glyph glyph-name="u" unicode="u" horiz-adv-x="578" 
d="M377 46q-32 -27 -71 -40.5t-80 -13.5q-38 0 -69 11.5t-54 33.5t-35.5 53.5t-12.5 71.5q0 26 6 56l60 282h87l-58 -274q-6 -29 -6 -50q0 -51 28.5 -76.5t82.5 -25.5q41 0 76.5 17.5t62.5 52.5l75 356h87l-106 -500h-83z" />
    <glyph glyph-name="v" unicode="v" horiz-adv-x="511" 
d="M49 500h94l91 -333l228 333h106l-367 -508z" />
    <glyph glyph-name="w" unicode="w" horiz-adv-x="687" 
d="M62 500h85l34 -363l214 371l58 -373l188 365h86l-253 -500h-73l-45 298l-169 -298h-74z" />
    <glyph glyph-name="x" unicode="x" horiz-adv-x="519" 
d="M214 262l-136 238h91l103 -180l180 180h106l-248 -248l145 -252h-92l-111 194l-193 -194h-107z" />
    <glyph glyph-name="y" unicode="y" horiz-adv-x="513" 
d="M161 30l-103 470h89l80 -377l239 377h98l-444 -684h-98z" />
    <glyph glyph-name="z" unicode="z" horiz-adv-x="496" 
d="M349 422h-263l16 78h421l-386 -422h285l-17 -78h-442z" />
    <glyph glyph-name="braceleft" unicode="{" horiz-adv-x="313" 
d="M152 -141q-54 0 -80.5 24t-26.5 75q0 29 7 61l37 175q4 15 4 31q0 20 -10.5 31t-37.5 11h-10l14 67h11q38 0 53 20.5t22 53.5l42 196q9 40 22 66t32.5 42t45.5 22.5t61 6.5h49l-15 -68h-32q-22 0 -37 -4t-25 -13.5t-16.5 -25t-11.5 -37.5l-39 -184q-10 -45 -27.5 -71
t-49.5 -38q36 -16 36 -62q0 -10 -1 -21t-4 -25l-38 -179q-2 -12 -3.5 -22t-1.5 -18q0 -24 13.5 -35t45.5 -11h33l-15 -68h-47z" />
    <glyph glyph-name="bar" unicode="|" horiz-adv-x="316" 
d="M123 710h77v-894h-77v894z" />
    <glyph glyph-name="braceright" unicode="}" horiz-adv-x="313" 
d="M183 741q54 0 80.5 -24t26.5 -75q0 -29 -7 -61l-37 -175q-4 -15 -4 -31q0 -20 10.5 -31t37.5 -11h10l-14 -67h-11q-38 0 -53 -20.5t-22 -53.5l-42 -196q-9 -40 -22 -66.5t-32.5 -42t-46 -22t-60.5 -6.5h-49l15 68h32q43 0 61.5 18t28.5 62l39 184q10 45 27.5 71t49.5 38
q-36 16 -36 62q0 10 1 21t4 25l38 179q2 12 3.5 22t1.5 18q0 24 -13.5 35t-45.5 11h-33l15 68h47z" />
    <glyph glyph-name="uni00A0" unicode="&#xa0;" horiz-adv-x="240" 
 />
    <glyph glyph-name="exclamdown" unicode="&#xa1;" horiz-adv-x="254" 
d="M103 380q-6 7 -9.5 20t-3.5 24q0 38 25 61t60 23q26 0 44.5 -17.5t18.5 -42.5q0 -23 -9.5 -39t-25.5 -29h-100zM138 82l-56 -264h-88l56 264l66 231h54z" />
    <glyph glyph-name="sterling" unicode="&#xa3;" horiz-adv-x="576" 
d="M20 81h101l47 224h-100l16 73h108q-21 20 -32 53t-11 67q0 46 18 86.5t49 70t73.5 46.5t92.5 17q47 0 83.5 -16t61 -42.5t37 -61.5t12.5 -73v-10h-84v3q0 28 -9.5 50.5t-26 37.5t-38 23t-44.5 8q-29 0 -55 -10t-45.5 -28t-30.5 -43t-11 -54t9.5 -52t26 -39t38 -24.5
t45.5 -8.5h86l-16 -73h-165l-48 -224h297l-17 -81h-485z" />
    <glyph glyph-name="yen" unicode="&#xa5;" horiz-adv-x="664" 
d="M149 345h130l-156 365h95l135 -322l270 322h108l-310 -365h129l-15 -73h-158l-16 -74h158l-16 -73h-158l-26 -125h-85l26 125h-158l16 73h158l16 74h-158z" />
    <glyph glyph-name="dieresis" unicode="&#xa8;" horiz-adv-x="407" 
d="M286 631q0 -26 -17.5 -43t-43.5 -17q-24 0 -42 17t-18 43q0 25 18 42t42 17q26 0 43.5 -17t17.5 -42zM510 631q0 -26 -17 -43t-43 -17q-25 0 -42.5 17t-17.5 43q0 25 17.5 42t42.5 17q26 0 43 -17t17 -42z" />
    <glyph glyph-name="copyright" unicode="&#xa9;" horiz-adv-x="829" 
d="M436 61q61 0 114.5 23t93.5 63t63 93.5t23 113.5q0 61 -23 114.5t-63 93.5t-93.5 63t-114.5 23q-60 0 -113.5 -23t-93.5 -63t-63 -93.5t-23 -114.5q0 -60 23 -113.5t63 -93.5t93.5 -63t113.5 -23zM437 -9q-75 0 -141 28.5t-115.5 78t-78 115.5t-28.5 141t28.5 141
t78 115.5t115.5 78.5t141 29t141 -29t115.5 -78.5t78 -115.5t28.5 -141t-28.5 -141t-78 -115.5t-115.5 -78t-141 -28.5zM448 161q-41 0 -76.5 15t-61.5 41t-40.5 61.5t-14.5 77.5t14.5 77.5t40.5 61.5t61.5 41t76.5 15q20 0 42 -4.5t43 -14.5t39.5 -25t32.5 -36l-51 -46
q-19 26 -46.5 41.5t-56.5 15.5q-56 0 -89 -35.5t-33 -90.5t33 -90.5t89 -35.5q29 0 56.5 15.5t46.5 41.5l51 -46q-14 -21 -32.5 -36t-39.5 -25t-43 -14.5t-42 -4.5z" />
    <glyph glyph-name="guillemotleft" unicode="&#xab;" horiz-adv-x="519" 
d="M252 255l200 217l52 -48l-166 -178l87 -188l-67 -30zM44 255l200 217l52 -48l-166 -178l87 -188l-67 -30z" />
    <glyph glyph-name="uni00AD" unicode="&#xad;" horiz-adv-x="374" 
d="M80 318h243l-19 -89h-243z" />
    <glyph glyph-name="macron" unicode="&#xaf;" horiz-adv-x="365" 
d="M182 679h292l-14 -65h-292z" />
    <glyph glyph-name="degree" unicode="&#xb0;" horiz-adv-x="332" 
d="M235 470q-25 0 -47.5 9.5t-39 26t-26 39t-9.5 47.5t9.5 47.5t26 39t39 26t47.5 9.5t47.5 -9.5t39 -26t26 -39t9.5 -47.5t-9.5 -47.5t-26 -39t-39 -26t-47.5 -9.5zM235 525q28 0 47 20t19 47t-19 46.5t-47 19.5q-27 0 -47 -19.5t-20 -46.5t20 -47t47 -20z" />
    <glyph glyph-name="acute" unicode="&#xb4;" horiz-adv-x="267" 
d="M275 710h100l-153 -165h-73z" />
    <glyph glyph-name="periodcentered" unicode="&#xb7;" horiz-adv-x="269" 
d="M212 268q0 -31 -21.5 -52.5t-52.5 -21.5q-30 0 -52 21.5t-22 52.5t22 52.5t52 21.5q31 0 52.5 -21.5t21.5 -52.5z" />
    <glyph glyph-name="cedilla" unicode="&#xb8;" horiz-adv-x="197" 
d="M100 0h59l-66 -135h-98z" />
    <glyph glyph-name="guillemotright" unicode="&#xbb;" horiz-adv-x="519" 
d="M475 245l-200 -217l-52 48l166 178l-87 188l67 30zM267 245l-200 -217l-52 48l166 178l-87 188l67 30z" />
    <glyph glyph-name="questiondown" unicode="&#xbf;" horiz-adv-x="539" 
d="M249 380q-6 7 -9.5 20t-3.5 24q0 38 25 61t60 23q26 0 44.5 -17.5t18.5 -42.5q0 -23 -9.5 -39t-25.5 -29h-100zM326 284l-24 -116h-32q-40 0 -74 -11.5t-58.5 -32t-38 -48.5t-13.5 -60q0 -59 35.5 -94t95.5 -35q34 0 62 12t48.5 32t33 46.5t15.5 56.5h85
q-4 -46 -23.5 -87.5t-52.5 -72.5t-77.5 -49.5t-98.5 -18.5q-47 0 -85.5 16t-65.5 44t-42 65.5t-15 80.5q0 47 16 88t47 72t75.5 50.5t100.5 24.5l8 37h78z" />
    <glyph glyph-name="Agrave" unicode="&#xc0;" horiz-adv-x="670" 
d="M435 718l190 -718h-95l-48 186h-312l-127 -186h-104zM227 270h234l-64 249zM326 913h90l61 -145h-65z" />
    <glyph glyph-name="Aacute" unicode="&#xc1;" horiz-adv-x="670" 
d="M435 718l190 -718h-95l-48 186h-312l-127 -186h-104zM227 270h234l-64 249zM522 913h105l-146 -145h-73z" />
    <glyph glyph-name="Acircumflex" unicode="&#xc2;" horiz-adv-x="670" 
d="M435 718l190 -718h-95l-48 186h-312l-127 -186h-104zM227 270h234l-64 249zM304 766l-31 61l195 99l150 -103l-39 -57l-117 80z" />
    <glyph glyph-name="Atilde" unicode="&#xc3;" horiz-adv-x="670" 
d="M435 718l190 -718h-95l-48 186h-312l-127 -186h-104zM227 270h234l-64 249zM276 784l7 19q19 45 45 69.5t68 24.5q21 0 39 -7t33.5 -15t29 -15t25.5 -7q21 0 32.5 11t21.5 33h69l-7 -18q-17 -42 -42.5 -68t-70.5 -26q-21 0 -39 7t-33.5 15t-29 15t-26.5 7
q-20 0 -31.5 -11t-21.5 -34h-69z" />
    <glyph glyph-name="Adieresis" unicode="&#xc4;" horiz-adv-x="670" 
d="M435 718l190 -718h-95l-48 186h-312l-127 -186h-104zM227 270h234l-64 249zM411 844q0 -26 -18 -44t-44 -18q-24 0 -42.5 18t-18.5 44q0 25 18.5 42.5t42.5 17.5q26 0 44 -17.5t18 -42.5zM636 844q0 -26 -18 -44t-44 -18q-25 0 -43 18t-18 44q0 25 18 42.5t43 17.5
q26 0 44 -17.5t18 -42.5z" />
    <glyph glyph-name="Aring" unicode="&#xc5;" horiz-adv-x="670" 
d="M435 718l190 -718h-95l-48 186h-312l-127 -186h-104zM227 270h234l-64 249zM461 751q-42 0 -70.5 26.5t-28.5 67.5q0 42 29 68.5t70 26.5t70 -26.5t29 -68.5q0 -41 -28.5 -67.5t-70.5 -26.5zM461 798q20 0 34 13t14 34t-14 34.5t-34 13.5t-34 -13.5t-14 -34.5t14 -34
t34 -13z" />
    <glyph glyph-name="AE" unicode="&#xc6;" horiz-adv-x="985" 
d="M377 623l-22 87h395l23 -88h-306l57 -215h260l23 -88h-260l61 -231h306l24 -88h-401l-48 186h-312l-127 -186h-104zM234 270h234l-64 249z" />
    <glyph glyph-name="Ccedilla" unicode="&#xc7;" horiz-adv-x="689" 
d="M643 65q-88 -66 -215 -72l-62 -128h-98l100 129q-72 6 -128 35.5t-94 74.5t-57.5 102t-19.5 119q0 75 27 146t79.5 125.5t128 88t173.5 33.5q85 0 146.5 -29.5t103.5 -80.5l-69 -61q-32 38 -79 61t-109 23q-69 0 -125 -24t-96.5 -65t-62.5 -95t-22 -114q0 -50 15.5 -95.5
t46 -81t76.5 -56.5t106 -21q57 0 102.5 16.5t82.5 44.5l50 -75v0z" />
    <glyph glyph-name="Egrave" unicode="&#xc8;" horiz-adv-x="555" 
d="M309 913h90l61 -145h-65zM192 710h413l-19 -88h-323l-45 -215h262l-19 -88h-262l-49 -231h323l-19 -88h-413z" />
    <glyph glyph-name="Eacute" unicode="&#xc9;" horiz-adv-x="555" 
d="M192 710h413l-19 -88h-323l-45 -215h262l-19 -88h-262l-49 -231h323l-19 -88h-413zM451 913h105l-146 -145h-73z" />
    <glyph glyph-name="Ecircumflex" unicode="&#xca;" horiz-adv-x="555" 
d="M269 766l-31 61l195 99l150 -103l-39 -57l-117 80zM192 710h413l-19 -88h-323l-45 -215h262l-19 -88h-262l-49 -231h323l-19 -88h-413z" />
    <glyph glyph-name="Edieresis" unicode="&#xcb;" horiz-adv-x="555" 
d="M192 710h413l-19 -88h-323l-45 -215h262l-19 -88h-262l-49 -231h323l-19 -88h-413zM376 844q0 -26 -18 -44t-44 -18q-24 0 -42.5 18t-18.5 44q0 25 18.5 42.5t42.5 17.5q26 0 44 -17.5t18 -42.5zM601 844q0 -26 -18 -44t-44 -18q-25 0 -43 18t-18 44q0 25 18 42.5
t43 17.5q26 0 44 -17.5t18 -42.5z" />
    <glyph glyph-name="Igrave" unicode="&#xcc;" horiz-adv-x="280" 
d="M192 710h91l-151 -710h-91zM151 913h90l61 -145h-65z" />
    <glyph glyph-name="Iacute" unicode="&#xcd;" horiz-adv-x="280" 
d="M192 710h91l-151 -710h-91zM292 913h105l-146 -145h-73z" />
    <glyph glyph-name="Icircumflex" unicode="&#xce;" horiz-adv-x="280" 
d="M192 710h91l-151 -710h-91zM110 766l-31 61l195 99l150 -103l-39 -57l-117 80z" />
    <glyph glyph-name="Idieresis" unicode="&#xcf;" horiz-adv-x="280" 
d="M192 710h91l-151 -710h-91zM216 844q0 -26 -18 -44t-44 -18q-24 0 -42.5 18t-18.5 44q0 25 18.5 42.5t42.5 17.5q26 0 44 -17.5t18 -42.5zM441 844q0 -26 -18 -44t-44 -18q-25 0 -43 18t-18 44q0 25 18 42.5t43 17.5q26 0 44 -17.5t18 -42.5z" />
    <glyph glyph-name="Eth" unicode="&#xd0;" horiz-adv-x="763" 
d="M45 399h108l66 311h197q78 0 139.5 -23t103.5 -63t64 -94t22 -116q0 -88 -34.5 -163.5t-95.5 -131t-145 -87.5t-184 -32h-218l66 312h-106zM288 85q82 0 149 26.5t114.5 71t73 102.5t25.5 122q0 46 -15.5 86t-45 69.5t-72.5 46t-98 16.5h-127l-48 -226h134l-17 -87h-136
l-48 -227h111z" />
    <glyph glyph-name="Ntilde" unicode="&#xd1;" horiz-adv-x="782" 
d="M332 784l7 19q19 45 45 69.5t68 24.5q21 0 39 -7t33.5 -15t29 -15t25.5 -7q21 0 32.5 11t21.5 33h69l-7 -18q-17 -42 -42.5 -68t-70.5 -26q-21 0 -39 7t-33.5 15t-29 15t-26.5 7q-20 0 -31.5 -11t-21.5 -34h-69zM240 509l-108 -509h-91l153 718l391 -521l109 513h91
l-153 -718z" />
    <glyph glyph-name="Ograve" unicode="&#xd2;" horiz-adv-x="832" 
d="M427 913h90l61 -145h-65zM164 333q0 -51 15.5 -97t46 -81t76.5 -55.5t106 -20.5q69 0 125 24t96.5 65t62.5 95t22 114q0 51 -15.5 97t-46 81t-76.5 55.5t-106 20.5q-69 0 -125 -24t-96.5 -65t-62.5 -95t-22 -114zM808 385q0 -75 -27 -146t-79 -125.5t-128 -88t-174 -33.5
q-80 0 -141.5 28t-103.5 74t-64 106t-22 125q0 75 27 146t79.5 125.5t128 88t173.5 33.5q79 0 141 -28t104 -74t64 -106.5t22 -124.5z" />
    <glyph glyph-name="Oacute" unicode="&#xd3;" horiz-adv-x="832" 
d="M567 913h105l-146 -145h-73zM164 333q0 -51 15.5 -97t46 -81t76.5 -55.5t106 -20.5q69 0 125 24t96.5 65t62.5 95t22 114q0 51 -15.5 97t-46 81t-76.5 55.5t-106 20.5q-69 0 -125 -24t-96.5 -65t-62.5 -95t-22 -114zM808 385q0 -75 -27 -146t-79 -125.5t-128 -88
t-174 -33.5q-80 0 -141.5 28t-103.5 74t-64 106t-22 125q0 75 27 146t79.5 125.5t128 88t173.5 33.5q79 0 141 -28t104 -74t64 -106.5t22 -124.5z" />
    <glyph glyph-name="Ocircumflex" unicode="&#xd4;" horiz-adv-x="832" 
d="M386 766l-31 61l195 99l150 -103l-39 -57l-117 80zM164 333q0 -51 15.5 -97t46 -81t76.5 -55.5t106 -20.5q69 0 125 24t96.5 65t62.5 95t22 114q0 51 -15.5 97t-46 81t-76.5 55.5t-106 20.5q-69 0 -125 -24t-96.5 -65t-62.5 -95t-22 -114zM808 385q0 -75 -27 -146
t-79 -125.5t-128 -88t-174 -33.5q-80 0 -141.5 28t-103.5 74t-64 106t-22 125q0 75 27 146t79.5 125.5t128 88t173.5 33.5q79 0 141 -28t104 -74t64 -106.5t22 -124.5z" />
    <glyph glyph-name="Otilde" unicode="&#xd5;" horiz-adv-x="832" 
d="M164 333q0 -51 15.5 -97t46 -81t76.5 -55.5t106 -20.5q69 0 125 24t96.5 65t62.5 95t22 114q0 51 -15.5 97t-46 81t-76.5 55.5t-106 20.5q-69 0 -125 -24t-96.5 -65t-62.5 -95t-22 -114zM808 385q0 -75 -27 -146t-79 -125.5t-128 -88t-174 -33.5q-80 0 -141.5 28
t-103.5 74t-64 106t-22 125q0 75 27 146t79.5 125.5t128 88t173.5 33.5q79 0 141 -28t104 -74t64 -106.5t22 -124.5zM348 784l7 19q19 45 45 69.5t68 24.5q21 0 39 -7t33.5 -15t29 -15t25.5 -7q21 0 32.5 11t21.5 33h69l-7 -18q-17 -42 -42.5 -68t-70.5 -26q-21 0 -39 7
t-33.5 15t-29 15t-26.5 7q-20 0 -31.5 -11t-21.5 -34h-69z" />
    <glyph glyph-name="Odieresis" unicode="&#xd6;" horiz-adv-x="832" 
d="M164 333q0 -51 15.5 -97t46 -81t76.5 -55.5t106 -20.5q69 0 125 24t96.5 65t62.5 95t22 114q0 51 -15.5 97t-46 81t-76.5 55.5t-106 20.5q-69 0 -125 -24t-96.5 -65t-62.5 -95t-22 -114zM808 385q0 -75 -27 -146t-79 -125.5t-128 -88t-174 -33.5q-80 0 -141.5 28
t-103.5 74t-64 106t-22 125q0 75 27 146t79.5 125.5t128 88t173.5 33.5q79 0 141 -28t104 -74t64 -106.5t22 -124.5zM478 844q0 -26 -18 -44t-44 -18q-24 0 -42.5 18t-18.5 44q0 25 18.5 42.5t42.5 17.5q26 0 44 -17.5t18 -42.5zM703 844q0 -26 -18 -44t-44 -18
q-25 0 -43 18t-18 44q0 25 18 42.5t43 17.5q26 0 44 -17.5t18 -42.5z" />
    <glyph glyph-name="multiply" unicode="&#xd7;" 
d="M101 119l148 147l-150 150l50 49l149 -150l148 148l49 -49l-148 -148l150 -149l-49 -49l-150 149l-147 -147z" />
    <glyph glyph-name="Oslash" unicode="&#xd8;" horiz-adv-x="832" 
d="M105 36l51 57q-43 47 -65 106.5t-22 125.5q0 75 27 146t79.5 125.5t128 88t173.5 33.5q56 0 103 -14t85 -39l58 65l54 -51l-56 -63q43 -47 65 -106.5t22 -124.5q0 -75 -27 -146t-79 -125.5t-128 -88t-174 -33.5q-57 0 -104 13.5t-85 39.5l-53 -60zM714 377q0 48 -14 91.5
t-41 78.5l-386 -433q27 -17 60.5 -26t74.5 -9q69 0 125 24t96.5 65t62.5 95t22 114zM164 333q0 -48 13.5 -91.5t40.5 -78.5l385 433q-27 17 -60 26t-73 9q-69 0 -125 -24t-96.5 -65t-62.5 -95t-22 -114z" />
    <glyph glyph-name="Ugrave" unicode="&#xd9;" horiz-adv-x="730" 
d="M375 913h90l61 -145h-65zM649 272q-14 -67 -40 -119t-65 -88t-92.5 -54.5t-123.5 -18.5q-54 0 -99 14.5t-77 42t-50 67t-18 90.5q0 34 7 66l93 438h91l-94 -440q-6 -29 -6 -52q0 -69 42.5 -104t114.5 -35q85 0 145 48.5t80 142.5l94 440h91l-93 -438v0z" />
    <glyph glyph-name="Uacute" unicode="&#xda;" horiz-adv-x="730" 
d="M649 272q-14 -67 -40 -119t-65 -88t-92.5 -54.5t-123.5 -18.5q-54 0 -99 14.5t-77 42t-50 67t-18 90.5q0 34 7 66l93 438h91l-94 -440q-6 -29 -6 -52q0 -69 42.5 -104t114.5 -35q85 0 145 48.5t80 142.5l94 440h91l-93 -438v0zM516 913h105l-146 -145h-73z" />
    <glyph glyph-name="Ucircumflex" unicode="&#xdb;" horiz-adv-x="730" 
d="M334 766l-31 61l195 99l150 -103l-39 -57l-117 80zM649 272q-14 -67 -40 -119t-65 -88t-92.5 -54.5t-123.5 -18.5q-54 0 -99 14.5t-77 42t-50 67t-18 90.5q0 34 7 66l93 438h91l-94 -440q-6 -29 -6 -52q0 -69 42.5 -104t114.5 -35q85 0 145 48.5t80 142.5l94 440h91
l-93 -438v0z" />
    <glyph glyph-name="Udieresis" unicode="&#xdc;" horiz-adv-x="730" 
d="M649 272q-14 -67 -40 -119t-65 -88t-92.5 -54.5t-123.5 -18.5q-54 0 -99 14.5t-77 42t-50 67t-18 90.5q0 34 7 66l93 438h91l-94 -440q-6 -29 -6 -52q0 -69 42.5 -104t114.5 -35q85 0 145 48.5t80 142.5l94 440h91l-93 -438v0zM440 844q0 -26 -18 -44t-44 -18
q-24 0 -42.5 18t-18.5 44q0 25 18.5 42.5t42.5 17.5q26 0 44 -17.5t18 -42.5zM665 844q0 -26 -18 -44t-44 -18q-25 0 -43 18t-18 44q0 25 18 42.5t43 17.5q26 0 44 -17.5t18 -42.5z" />
    <glyph glyph-name="Yacute" unicode="&#xdd;" horiz-adv-x="625" 
d="M278 300l-175 410h100l132 -322l267 322h114l-347 -410l-64 -300h-91zM457 913h105l-146 -145h-73z" />
    <glyph glyph-name="Thorn" unicode="&#xde;" horiz-adv-x="585" 
d="M192 710h91l-29 -136h105q52 0 91.5 -14.5t66 -40t40 -60.5t13.5 -76q0 -55 -21 -100t-59.5 -76.5t-92 -48.5t-118.5 -17h-117l-30 -141h-91zM293 226q86 0 134.5 42t48.5 111q0 48 -32.5 79t-101.5 31h-106l-55 -263h112z" />
    <glyph glyph-name="germandbls" unicode="&#xdf;" horiz-adv-x="558" 
d="M128 500q23 109 86 163.5t158 54.5q37 0 69 -12t54.5 -33t35.5 -49t13 -61q0 -32 -10.5 -60.5t-29.5 -52t-45 -41.5t-57 -29q52 -15 80.5 -52.5t28.5 -87.5q0 -46 -19 -89.5t-55 -77t-89 -53.5t-120 -20h-46l17 79h45q42 0 76 14t57 35.5t35.5 49t12.5 54.5
q0 51 -34.5 80t-95.5 29h-40l16 77h23q33 0 62.5 11t52 29.5t36 43t13.5 50.5q0 42 -26 65t-70 23q-55 0 -94 -35.5t-53 -104.5l-107 -500h-86z" />
    <glyph glyph-name="agrave" unicode="&#xe0;" horiz-adv-x="610" 
d="M408 44q-29 -23 -65.5 -37.5t-86.5 -14.5t-90 18t-68 49t-42.5 72.5t-14.5 87.5q0 57 21 109.5t59.5 92t91.5 63.5t118 24q51 0 91 -16t68 -43l11 51h87l-106 -500h-83zM275 74q42 0 81.5 17.5t68.5 49.5l45 214q-21 34 -60 52.5t-82 18.5q-41 0 -76.5 -15t-62 -42
t-42 -63.5t-15.5 -79.5q0 -69 39 -110.5t104 -41.5zM248 710h104l56 -165h-61z" />
    <glyph glyph-name="aacute" unicode="&#xe1;" horiz-adv-x="610" 
d="M408 44q-29 -23 -65.5 -37.5t-86.5 -14.5t-90 18t-68 49t-42.5 72.5t-14.5 87.5q0 57 21 109.5t59.5 92t91.5 63.5t118 24q51 0 91 -16t68 -43l11 51h87l-106 -500h-83zM275 74q42 0 81.5 17.5t68.5 49.5l45 214q-21 34 -60 52.5t-82 18.5q-41 0 -76.5 -15t-62 -42
t-42 -63.5t-15.5 -79.5q0 -69 39 -110.5t104 -41.5zM430 710h100l-153 -165h-73z" />
    <glyph glyph-name="acircumflex" unicode="&#xe2;" horiz-adv-x="610" 
d="M408 44q-29 -23 -65.5 -37.5t-86.5 -14.5t-90 18t-68 49t-42.5 72.5t-14.5 87.5q0 57 21 109.5t59.5 92t91.5 63.5t118 24q51 0 91 -16t68 -43l11 51h87l-106 -500h-83zM275 74q42 0 81.5 17.5t68.5 49.5l45 214q-21 34 -60 52.5t-82 18.5q-41 0 -76.5 -15t-62 -42
t-42 -63.5t-15.5 -79.5q0 -69 39 -110.5t104 -41.5zM186 612l196 106l148 -113l-40 -52l-114 87l-158 -87z" />
    <glyph glyph-name="atilde" unicode="&#xe3;" horiz-adv-x="610" 
d="M408 44q-29 -23 -65.5 -37.5t-86.5 -14.5t-90 18t-68 49t-42.5 72.5t-14.5 87.5q0 57 21 109.5t59.5 92t91.5 63.5t118 24q51 0 91 -16t68 -43l11 51h87l-106 -500h-83zM275 74q42 0 81.5 17.5t68.5 49.5l45 214q-21 34 -60 52.5t-82 18.5q-41 0 -76.5 -15t-62 -42
t-42 -63.5t-15.5 -79.5q0 -69 39 -110.5t104 -41.5zM186 566l7 19q19 45 45 69.5t68 24.5q21 0 39 -7t33.5 -15t29 -15t25.5 -7q21 0 32.5 11t21.5 33h69l-7 -18q-17 -42 -42.5 -68t-70.5 -26q-21 0 -39 7t-33.5 15t-29 15t-26.5 7q-20 0 -31.5 -11t-21.5 -34h-69z" />
    <glyph glyph-name="adieresis" unicode="&#xe4;" horiz-adv-x="610" 
d="M408 44q-29 -23 -65.5 -37.5t-86.5 -14.5t-90 18t-68 49t-42.5 72.5t-14.5 87.5q0 57 21 109.5t59.5 92t91.5 63.5t118 24q51 0 91 -16t68 -43l11 51h87l-106 -500h-83zM275 74q42 0 81.5 17.5t68.5 49.5l45 214q-21 34 -60 52.5t-82 18.5q-41 0 -76.5 -15t-62 -42
t-42 -63.5t-15.5 -79.5q0 -69 39 -110.5t104 -41.5zM320 631q0 -26 -17.5 -43t-43.5 -17q-24 0 -42 17t-18 43q0 25 18 42t42 17q26 0 43.5 -17t17.5 -42zM544 631q0 -26 -17 -43t-43 -17q-25 0 -42.5 17t-17.5 43q0 25 17.5 42t42.5 17q26 0 43 -17t17 -42z" />
    <glyph glyph-name="aring" unicode="&#xe5;" horiz-adv-x="610" 
d="M408 44q-29 -23 -65.5 -37.5t-86.5 -14.5t-90 18t-68 49t-42.5 72.5t-14.5 87.5q0 57 21 109.5t59.5 92t91.5 63.5t118 24q51 0 91 -16t68 -43l11 51h87l-106 -500h-83zM275 74q42 0 81.5 17.5t68.5 49.5l45 214q-21 34 -60 52.5t-82 18.5q-41 0 -76.5 -15t-62 -42
t-42 -63.5t-15.5 -79.5q0 -69 39 -110.5t104 -41.5zM478 660q0 -20 -7.5 -37t-21 -30t-31.5 -20t-39 -7t-39 7t-31.5 20t-21 30t-7.5 37q0 42 29 68.5t70 26.5t70 -26.5t29 -68.5zM379 613q20 0 34 13t14 34q0 22 -14 35t-34 13t-34 -13t-14 -35q0 -21 14 -34t34 -13z" />
    <glyph glyph-name="ae" unicode="&#xe6;" horiz-adv-x="919" 
d="M828 70q-38 -36 -89 -57t-111 -21q-67 0 -114.5 26t-76.5 69q-52 -45 -107 -70t-129 -25q-50 0 -85.5 11.5t-58.5 31.5t-34 47t-11 57q0 39 15.5 72t46 58t76.5 39t106 14q51 0 85.5 -12.5t58.5 -27.5q5 27 7.5 39t2.5 19q0 26 -9.5 43t-25.5 26.5t-37 13.5t-44 4
q-44 0 -83.5 -14.5t-69.5 -36.5l-29 78q43 25 87.5 39.5t101.5 14.5q29 0 56 -5t49 -15.5t38.5 -27t25.5 -40.5q37 41 89.5 64.5t115.5 23.5q55 0 95.5 -18.5t67.5 -49t40.5 -70t13.5 -82.5q0 -31 -6 -59h-405q1 -37 13.5 -66t33.5 -48.5t48.5 -30t58.5 -10.5q41 0 75 15
t60 41zM201 73q56 0 100.5 22t71.5 55l12 56q-22 20 -54.5 31.5t-82.5 11.5q-29 0 -55.5 -6.5t-46.5 -19t-31.5 -31.5t-11.5 -43q0 -22 8 -36.5t21.5 -23.5t31 -12.5t37.5 -3.5zM668 429q-63 0 -110 -33.5t-67 -91.5h307q-1 58 -37 91.5t-93 33.5z" />
    <glyph glyph-name="ccedilla" unicode="&#xe7;" horiz-adv-x="529" 
d="M239 -5q-48 7 -84.5 28t-61.5 52.5t-38 70.5t-13 81q0 58 21.5 109.5t59.5 89.5t90 60t113 22q69 0 118 -27.5t78 -78.5l-73 -49q-20 35 -53.5 54t-76.5 19q-40 0 -74 -14.5t-59 -40t-39.5 -61t-14.5 -76.5q0 -38 12.5 -68t33.5 -50.5t49 -31t60 -10.5q40 0 72 14.5
t58 39.5l58 -60q-36 -32 -79.5 -52t-97.5 -23l-62 -128h-98z" />
    <glyph glyph-name="egrave" unicode="&#xe8;" horiz-adv-x="570" 
d="M479 70q-38 -36 -89 -57t-111 -21q-57 0 -101 19.5t-74.5 52t-46 75t-15.5 88.5q0 58 21.5 109.5t59.5 89.5t90 60t113 22q55 0 95.5 -18.5t67.5 -49t40.5 -70t13.5 -82.5q0 -31 -6 -59h-405q1 -37 13.5 -66t33.5 -48.5t48.5 -30t58.5 -10.5q41 0 75 15t60 41zM319 429
q-63 0 -110 -33.5t-67 -91.5h307q-1 58 -37 91.5t-93 33.5zM227 710h104l56 -165h-61z" />
    <glyph glyph-name="eacute" unicode="&#xe9;" horiz-adv-x="570" 
d="M384 710h100l-153 -165h-73zM479 70q-38 -36 -89 -57t-111 -21q-57 0 -101 19.5t-74.5 52t-46 75t-15.5 88.5q0 58 21.5 109.5t59.5 89.5t90 60t113 22q55 0 95.5 -18.5t67.5 -49t40.5 -70t13.5 -82.5q0 -31 -6 -59h-405q1 -37 13.5 -66t33.5 -48.5t48.5 -30t58.5 -10.5
q41 0 75 15t60 41zM319 429q-63 0 -110 -33.5t-67 -91.5h307q-1 58 -37 91.5t-93 33.5z" />
    <glyph glyph-name="ecircumflex" unicode="&#xea;" horiz-adv-x="570" 
d="M164 612l196 106l148 -113l-40 -52l-114 87l-158 -87zM479 70q-38 -36 -89 -57t-111 -21q-57 0 -101 19.5t-74.5 52t-46 75t-15.5 88.5q0 58 21.5 109.5t59.5 89.5t90 60t113 22q55 0 95.5 -18.5t67.5 -49t40.5 -70t13.5 -82.5q0 -31 -6 -59h-405q1 -37 13.5 -66
t33.5 -48.5t48.5 -30t58.5 -10.5q41 0 75 15t60 41zM319 429q-63 0 -110 -33.5t-67 -91.5h307q-1 58 -37 91.5t-93 33.5z" />
    <glyph glyph-name="edieresis" unicode="&#xeb;" horiz-adv-x="570" 
d="M300 631q0 -26 -17.5 -43t-43.5 -17q-24 0 -42 17t-18 43q0 25 18 42t42 17q26 0 43.5 -17t17.5 -42zM524 631q0 -26 -17 -43t-43 -17q-25 0 -42.5 17t-17.5 43q0 25 17.5 42t42.5 17q26 0 43 -17t17 -42zM479 70q-38 -36 -89 -57t-111 -21q-57 0 -101 19.5t-74.5 52
t-46 75t-15.5 88.5q0 58 21.5 109.5t59.5 89.5t90 60t113 22q55 0 95.5 -18.5t67.5 -49t40.5 -70t13.5 -82.5q0 -31 -6 -59h-405q1 -37 13.5 -66t33.5 -48.5t48.5 -30t58.5 -10.5q41 0 75 15t60 41zM319 429q-63 0 -110 -33.5t-67 -91.5h307q-1 58 -37 91.5t-93 33.5z" />
    <glyph glyph-name="igrave" unicode="&#xec;" horiz-adv-x="237" 
d="M128 500h87l-106 -500h-87zM75 710h104l56 -165h-61z" />
    <glyph glyph-name="iacute" unicode="&#xed;" horiz-adv-x="237" 
d="M232 710h100l-153 -165h-73zM128 500h87l-106 -500h-87z" />
    <glyph glyph-name="icircumflex" unicode="&#xee;" horiz-adv-x="237" 
d="M21 612l196 106l148 -113l-40 -52l-114 87l-158 -87zM128 500h87l-106 -500h-87z" />
    <glyph glyph-name="idieresis" unicode="&#xef;" horiz-adv-x="237" 
d="M147 631q0 -26 -17.5 -43t-43.5 -17q-24 0 -42 17t-18 43q0 25 18 42t42 17q26 0 43.5 -17t17.5 -42zM371 631q0 -26 -17 -43t-43 -17q-25 0 -42.5 17t-17.5 43q0 25 17.5 42t42.5 17q26 0 43 -17t17 -42zM128 500h87l-106 -500h-87z" />
    <glyph glyph-name="eth" unicode="&#xf0;" horiz-adv-x="606" 
d="M246 629h88l-38 81h91l38 -81h126l-15 -67h-80l69 -148q19 -41 29 -72t10 -68q0 -59 -21.5 -110.5t-59.5 -89.5t-90 -60t-112 -22q-57 0 -101.5 19.5t-75 52t-46.5 75t-16 88.5q0 58 21.5 109.5t60 89.5t90.5 60t112 22q18 0 38.5 -4t34.5 -12l-33 70h-135zM132 234
q0 -38 12.5 -67.5t34 -50t49.5 -31t60 -10.5q40 0 74 14t59 39.5t39.5 60.5t14.5 77q0 38 -12.5 67.5t-34 50t-50 31t-59.5 10.5q-40 0 -74 -14t-59 -39.5t-39.5 -60.5t-14.5 -77z" />
    <glyph glyph-name="ntilde" unicode="&#xf1;" horiz-adv-x="584" 
d="M128 500h83l-10 -46q66 54 154 54q37 0 69 -12t55 -34.5t36.5 -55t13.5 -72.5q0 -26 -6 -56l-59 -278h-87l57 270q2 12 3.5 22.5t1.5 21.5q0 54 -31 83t-85 29q-41 0 -76.5 -18t-62.5 -52l-75 -356h-87zM189 566l7 19q19 45 45 69.5t68 24.5q21 0 39 -7t33.5 -15t29 -15
t25.5 -7q21 0 32.5 11t21.5 33h69l-7 -18q-17 -42 -42.5 -68t-70.5 -26q-21 0 -39 7t-33.5 15t-29 15t-26.5 7q-20 0 -31.5 -11t-21.5 -34h-69z" />
    <glyph glyph-name="ograve" unicode="&#xf2;" horiz-adv-x="605" 
d="M132 234q0 -38 12.5 -67.5t34 -50t49.5 -31.5t60 -11q40 0 74 14.5t59 40t39.5 60.5t14.5 77q0 38 -12.5 67.5t-34 50t-50 31.5t-59.5 11q-40 0 -74 -14.5t-59 -40t-39.5 -60.5t-14.5 -77zM564 274q0 -59 -21.5 -110.5t-59.5 -89.5t-90 -60t-112 -22q-57 0 -101.5 19.5
t-75 52t-46.5 75t-16 88.5q0 58 21.5 109.5t60 89.5t90.5 60t112 22q57 0 101.5 -19.5t74.5 -52t46 -74.5t16 -88zM259 710h104l56 -165h-61z" />
    <glyph glyph-name="oacute" unicode="&#xf3;" horiz-adv-x="605" 
d="M416 710h100l-153 -165h-73zM132 234q0 -38 12.5 -67.5t34 -50t49.5 -31.5t60 -11q40 0 74 14.5t59 40t39.5 60.5t14.5 77q0 38 -12.5 67.5t-34 50t-50 31.5t-59.5 11q-40 0 -74 -14.5t-59 -40t-39.5 -60.5t-14.5 -77zM564 274q0 -59 -21.5 -110.5t-59.5 -89.5t-90 -60
t-112 -22q-57 0 -101.5 19.5t-75 52t-46.5 75t-16 88.5q0 58 21.5 109.5t60 89.5t90.5 60t112 22q57 0 101.5 -19.5t74.5 -52t46 -74.5t16 -88z" />
    <glyph glyph-name="ocircumflex" unicode="&#xf4;" horiz-adv-x="605" 
d="M196 612l196 106l148 -113l-40 -52l-114 87l-158 -87zM132 234q0 -38 12.5 -67.5t34 -50t49.5 -31.5t60 -11q40 0 74 14.5t59 40t39.5 60.5t14.5 77q0 38 -12.5 67.5t-34 50t-50 31.5t-59.5 11q-40 0 -74 -14.5t-59 -40t-39.5 -60.5t-14.5 -77zM564 274
q0 -59 -21.5 -110.5t-59.5 -89.5t-90 -60t-112 -22q-57 0 -101.5 19.5t-75 52t-46.5 75t-16 88.5q0 58 21.5 109.5t60 89.5t90.5 60t112 22q57 0 101.5 -19.5t74.5 -52t46 -74.5t16 -88z" />
    <glyph glyph-name="otilde" unicode="&#xf5;" horiz-adv-x="605" 
d="M132 234q0 -38 12.5 -67.5t34 -50t49.5 -31.5t60 -11q40 0 74 14.5t59 40t39.5 60.5t14.5 77q0 38 -12.5 67.5t-34 50t-50 31.5t-59.5 11q-40 0 -74 -14.5t-59 -40t-39.5 -60.5t-14.5 -77zM564 274q0 -59 -21.5 -110.5t-59.5 -89.5t-90 -60t-112 -22q-57 0 -101.5 19.5
t-75 52t-46.5 75t-16 88.5q0 58 21.5 109.5t60 89.5t90.5 60t112 22q57 0 101.5 -19.5t74.5 -52t46 -74.5t16 -88zM197 566l7 19q19 45 45 69.5t68 24.5q21 0 39 -7t33.5 -15t29 -15t25.5 -7q21 0 32.5 11t21.5 33h69l-7 -18q-17 -42 -42.5 -68t-70.5 -26q-21 0 -39 7
t-33.5 15t-29 15t-26.5 7q-20 0 -31.5 -11t-21.5 -34h-69z" />
    <glyph glyph-name="odieresis" unicode="&#xf6;" horiz-adv-x="605" 
d="M332 631q0 -26 -17.5 -43t-43.5 -17q-24 0 -42 17t-18 43q0 25 18 42t42 17q26 0 43.5 -17t17.5 -42zM556 631q0 -26 -17 -43t-43 -17q-25 0 -42.5 17t-17.5 43q0 25 17.5 42t42.5 17q26 0 43 -17t17 -42zM132 234q0 -38 12.5 -67.5t34 -50t49.5 -31.5t60 -11
q40 0 74 14.5t59 40t39.5 60.5t14.5 77q0 38 -12.5 67.5t-34 50t-50 31.5t-59.5 11q-40 0 -74 -14.5t-59 -40t-39.5 -60.5t-14.5 -77zM564 274q0 -59 -21.5 -110.5t-59.5 -89.5t-90 -60t-112 -22q-57 0 -101.5 19.5t-75 52t-46.5 75t-16 88.5q0 58 21.5 109.5t60 89.5
t90.5 60t112 22q57 0 101.5 -19.5t74.5 -52t46 -74.5t16 -88z" />
    <glyph glyph-name="divide" unicode="&#xf7;" 
d="M301 69q-27 0 -47 19t-20 47t20 47t47 19q28 0 47 -19t19 -47t-19 -47t-47 -19zM301 348q-27 0 -47 19.5t-20 47.5q0 27 20 46.5t47 19.5q28 0 47 -19.5t19 -46.5q0 -28 -19 -47.5t-47 -19.5zM82 310h438v-70h-438v70z" />
    <glyph glyph-name="oslash" unicode="&#xf8;" horiz-adv-x="605" 
d="M41 34l47 48q-46 63 -46 145q0 58 21.5 109.5t60 89.5t90.5 60t112 22q42 0 77 -11t63 -30l47 48l50 -50l-46 -47q23 -30 35 -67.5t12 -76.5q0 -59 -21.5 -110.5t-59.5 -89.5t-90 -60t-112 -22q-43 0 -78 10.5t-64 30.5l-48 -49zM475 266q0 50 -22 86l-251 -255
q38 -23 86 -23q40 0 74 14.5t59 40t39.5 60.5t14.5 77zM132 234q0 -26 5.5 -47t15.5 -39l250 255q-37 23 -84 23q-40 0 -74 -14.5t-59 -40t-39.5 -60.5t-14.5 -77z" />
    <glyph glyph-name="ugrave" unicode="&#xf9;" horiz-adv-x="578" 
d="M377 46q-32 -27 -71 -40.5t-80 -13.5q-38 0 -69 11.5t-54 33.5t-35.5 53.5t-12.5 71.5q0 26 6 56l60 282h87l-58 -274q-6 -29 -6 -50q0 -51 28.5 -76.5t82.5 -25.5q41 0 76.5 17.5t62.5 52.5l75 356h87l-106 -500h-83zM241 710h104l56 -165h-61z" />
    <glyph glyph-name="uacute" unicode="&#xfa;" horiz-adv-x="578" 
d="M398 710h100l-153 -165h-73zM377 46q-32 -27 -71 -40.5t-80 -13.5q-38 0 -69 11.5t-54 33.5t-35.5 53.5t-12.5 71.5q0 26 6 56l60 282h87l-58 -274q-6 -29 -6 -50q0 -51 28.5 -76.5t82.5 -25.5q41 0 76.5 17.5t62.5 52.5l75 356h87l-106 -500h-83z" />
    <glyph glyph-name="ucircumflex" unicode="&#xfb;" horiz-adv-x="578" 
d="M178 612l196 106l148 -113l-40 -52l-114 87l-158 -87zM377 46q-32 -27 -71 -40.5t-80 -13.5q-38 0 -69 11.5t-54 33.5t-35.5 53.5t-12.5 71.5q0 26 6 56l60 282h87l-58 -274q-6 -29 -6 -50q0 -51 28.5 -76.5t82.5 -25.5q41 0 76.5 17.5t62.5 52.5l75 356h87l-106 -500
h-83z" />
    <glyph glyph-name="udieresis" unicode="&#xfc;" horiz-adv-x="578" 
d="M314 631q0 -26 -17.5 -43t-43.5 -17q-24 0 -42 17t-18 43q0 25 18 42t42 17q26 0 43.5 -17t17.5 -42zM538 631q0 -26 -17 -43t-43 -17q-25 0 -42.5 17t-17.5 43q0 25 17.5 42t42.5 17q26 0 43 -17t17 -42zM377 46q-32 -27 -71 -40.5t-80 -13.5q-38 0 -69 11.5t-54 33.5
t-35.5 53.5t-12.5 71.5q0 26 6 56l60 282h87l-58 -274q-6 -29 -6 -50q0 -51 28.5 -76.5t82.5 -25.5q41 0 76.5 17.5t62.5 52.5l75 356h87l-106 -500h-83z" />
    <glyph glyph-name="yacute" unicode="&#xfd;" horiz-adv-x="513" 
d="M161 30l-103 470h89l80 -377l239 377h98l-444 -684h-98zM366 710h100l-153 -165h-73z" />
    <glyph glyph-name="thorn" unicode="&#xfe;" horiz-adv-x="609" 
d="M173 710h83l-54 -254q29 23 66 37.5t87 14.5t89.5 -18t67.5 -49t42.5 -72.5t14.5 -87.5q0 -57 -21 -109.5t-59.5 -92t-91.5 -63.5t-117 -24q-51 0 -91.5 15.5t-68.5 42.5l-50 -234h-87zM335 426q-42 0 -81 -17.5t-68 -49.5l-46 -215q21 -34 60 -52t82 -18q41 0 77 15
t62.5 42t41.5 63.5t15 79.5q0 69 -39 110.5t-104 41.5z" />
    <glyph glyph-name="ydieresis" unicode="&#xff;" horiz-adv-x="513" 
d="M161 30l-103 470h89l80 -377l239 377h98l-444 -684h-98zM283 631q0 -26 -17.5 -43t-43.5 -17q-24 0 -42 17t-18 43q0 25 18 42t42 17q26 0 43.5 -17t17.5 -42zM507 631q0 -26 -17 -43t-43 -17q-25 0 -42.5 17t-17.5 43q0 25 17.5 42t42.5 17q26 0 43 -17t17 -42z" />
    <glyph glyph-name="Amacron" unicode="&#x100;" horiz-adv-x="670" 
d="M435 718l190 -718h-95l-48 186h-312l-127 -186h-104zM227 270h234l-64 249zM321 868h292l-14 -65h-292z" />
    <glyph glyph-name="amacron" unicode="&#x101;" horiz-adv-x="610" 
d="M408 44q-29 -23 -65.5 -37.5t-86.5 -14.5t-90 18t-68 49t-42.5 72.5t-14.5 87.5q0 57 21 109.5t59.5 92t91.5 63.5t118 24q51 0 91 -16t68 -43l11 51h87l-106 -500h-83zM275 74q42 0 81.5 17.5t68.5 49.5l45 214q-21 34 -60 52.5t-82 18.5q-41 0 -76.5 -15t-62 -42
t-42 -63.5t-15.5 -79.5q0 -69 39 -110.5t104 -41.5zM238 679h292l-14 -65h-292z" />
    <glyph glyph-name="Abreve" unicode="&#x102;" horiz-adv-x="670" 
d="M435 718l190 -718h-95l-48 186h-312l-127 -186h-104zM227 270h234l-64 249zM621 909q-11 -62 -55.5 -99.5t-120.5 -37.5q-71 0 -109.5 39.5t-40.5 97.5h63q2 -42 29 -60.5t63 -18.5q42 0 71.5 20t37.5 59h62z" />
    <glyph glyph-name="abreve" unicode="&#x103;" horiz-adv-x="610" 
d="M408 44q-29 -23 -65.5 -37.5t-86.5 -14.5t-90 18t-68 49t-42.5 72.5t-14.5 87.5q0 57 21 109.5t59.5 92t91.5 63.5t118 24q51 0 91 -16t68 -43l11 51h87l-106 -500h-83zM275 74q42 0 81.5 17.5t68.5 49.5l45 214q-21 34 -60 52.5t-82 18.5q-41 0 -76.5 -15t-62 -42
t-42 -63.5t-15.5 -79.5q0 -69 39 -110.5t104 -41.5zM537 710q-11 -62 -55.5 -99.5t-120.5 -37.5q-71 0 -109.5 39.5t-40.5 97.5h63q2 -42 29 -60.5t63 -18.5q42 0 71.5 20t37.5 59h62z" />
    <glyph glyph-name="Aogonek" unicode="&#x104;" horiz-adv-x="670" 
d="M435 718l190 -718q-53 -21 -78.5 -47t-25.5 -46q0 -17 11 -24t32 -7q11 0 20.5 2.5t15.5 4.5l-13 -62q-10 -5 -29 -7.5t-36 -2.5q-19 0 -35.5 6.5t-29 17.5t-19.5 25.5t-7 31.5q0 22 8.5 38.5t23 29.5t32 22.5t35.5 17.5l-48 186h-312l-127 -186h-104zM227 270h234
l-64 249z" />
    <glyph glyph-name="aogonek" unicode="&#x105;" horiz-adv-x="610" 
d="M446 -169q-14 -5 -30 -7t-33 -2q-37 0 -62.5 21t-25.5 54q0 39 31 64t73 39l9 44q-29 -23 -65.5 -37.5t-86.5 -14.5t-90 18t-68 49t-42.5 72.5t-14.5 87.5q0 57 21 109.5t59.5 92t91.5 63.5t118 24q51 0 91 -16t68 -43l11 51h87l-106 -500q-99 -46 -99 -85q0 -28 43 -28
q20 0 34 9zM275 74q42 0 81.5 17.5t68.5 49.5l45 214q-21 34 -60 52.5t-82 18.5q-41 0 -76.5 -15t-62 -42t-42 -63.5t-15.5 -79.5q0 -69 39 -110.5t104 -41.5z" />
    <glyph glyph-name="Cacute" unicode="&#x106;" horiz-adv-x="689" 
d="M643 65q-99 -73 -240 -73q-81 0 -143 27.5t-104.5 74t-64.5 106.5t-22 125q0 75 27 146t79.5 125.5t128 88t173.5 33.5q85 0 146.5 -29.5t103.5 -80.5l-69 -61q-32 38 -79 61t-109 23q-69 0 -125 -24t-96.5 -65t-62.5 -95t-22 -114q0 -50 15.5 -95.5t46 -81t76.5 -56.5
t106 -21q57 0 102.5 16.5t82.5 44.5l50 -75v0zM527 913h105l-146 -145h-73z" />
    <glyph glyph-name="cacute" unicode="&#x107;" horiz-adv-x="529" 
d="M386 710h100l-153 -165h-73zM475 68q-39 -35 -87.5 -55.5t-108.5 -20.5q-57 0 -101 19.5t-74.5 52t-46 75t-15.5 88.5q0 58 21.5 109.5t59.5 89.5t90 60t113 22q69 0 118 -27.5t78 -78.5l-73 -49q-20 35 -53.5 54t-76.5 19q-40 0 -74 -14.5t-59 -40t-39.5 -61
t-14.5 -76.5q0 -38 12.5 -68t33.5 -50.5t49 -31t60 -10.5q40 0 72 14.5t58 39.5l58 -60v0z" />
    <glyph glyph-name="Ccircumflex" unicode="&#x108;" horiz-adv-x="689" 
d="M643 65q-99 -73 -240 -73q-81 0 -143 27.5t-104.5 74t-64.5 106.5t-22 125q0 75 27 146t79.5 125.5t128 88t173.5 33.5q85 0 146.5 -29.5t103.5 -80.5l-69 -61q-32 38 -79 61t-109 23q-69 0 -125 -24t-96.5 -65t-62.5 -95t-22 -114q0 -50 15.5 -95.5t46 -81t76.5 -56.5
t106 -21q57 0 102.5 16.5t82.5 44.5l50 -75v0zM345 766l-31 61l195 99l150 -103l-39 -57l-117 80z" />
    <glyph glyph-name="ccircumflex" unicode="&#x109;" horiz-adv-x="529" 
d="M166 612l196 106l148 -113l-40 -52l-114 87l-158 -87zM475 68q-39 -35 -87.5 -55.5t-108.5 -20.5q-57 0 -101 19.5t-74.5 52t-46 75t-15.5 88.5q0 58 21.5 109.5t59.5 89.5t90 60t113 22q69 0 118 -27.5t78 -78.5l-73 -49q-20 35 -53.5 54t-76.5 19q-40 0 -74 -14.5
t-59 -40t-39.5 -61t-14.5 -76.5q0 -38 12.5 -68t33.5 -50.5t49 -31t60 -10.5q40 0 72 14.5t58 39.5l58 -60v0z" />
    <glyph glyph-name="Cdotaccent" unicode="&#x10a;" horiz-adv-x="689" 
d="M567 844q0 -27 -18.5 -45.5t-45.5 -18.5q-25 0 -43.5 18.5t-18.5 45.5q0 26 18.5 44t43.5 18q27 0 45.5 -18t18.5 -44zM643 65q-99 -73 -240 -73q-81 0 -143 27.5t-104.5 74t-64.5 106.5t-22 125q0 75 27 146t79.5 125.5t128 88t173.5 33.5q85 0 146.5 -29.5t103.5 -80.5
l-69 -61q-32 38 -79 61t-109 23q-69 0 -125 -24t-96.5 -65t-62.5 -95t-22 -114q0 -50 15.5 -95.5t46 -81t76.5 -56.5t106 -21q57 0 102.5 16.5t82.5 44.5l50 -75v0z" />
    <glyph glyph-name="cdotaccent" unicode="&#x10b;" horiz-adv-x="529" 
d="M475 68q-39 -35 -87.5 -55.5t-108.5 -20.5q-57 0 -101 19.5t-74.5 52t-46 75t-15.5 88.5q0 58 21.5 109.5t59.5 89.5t90 60t113 22q69 0 118 -27.5t78 -78.5l-73 -49q-20 35 -53.5 54t-76.5 19q-40 0 -74 -14.5t-59 -40t-39.5 -61t-14.5 -76.5q0 -38 12.5 -68t33.5 -50.5
t49 -31t60 -10.5q40 0 72 14.5t58 39.5l58 -60v0zM416 631q0 -26 -18 -44t-44 -18t-44 18t-18 44t18 43.5t44 17.5t44 -17.5t18 -43.5z" />
    <glyph glyph-name="Ccaron" unicode="&#x10c;" horiz-adv-x="689" 
d="M643 65q-99 -73 -240 -73q-81 0 -143 27.5t-104.5 74t-64.5 106.5t-22 125q0 75 27 146t79.5 125.5t128 88t173.5 33.5q85 0 146.5 -29.5t103.5 -80.5l-69 -61q-32 38 -79 61t-109 23q-69 0 -125 -24t-96.5 -65t-62.5 -95t-22 -114q0 -50 15.5 -95.5t46 -81t76.5 -56.5
t106 -21q57 0 102.5 16.5t82.5 44.5l50 -75v0zM650 926l31 -61l-195 -99l-150 103l39 57l117 -80z" />
    <glyph glyph-name="ccaron" unicode="&#x10d;" horiz-adv-x="529" 
d="M537 675l-196 -106l-148 113l40 52l114 -87l158 87zM475 68q-39 -35 -87.5 -55.5t-108.5 -20.5q-57 0 -101 19.5t-74.5 52t-46 75t-15.5 88.5q0 58 21.5 109.5t59.5 89.5t90 60t113 22q69 0 118 -27.5t78 -78.5l-73 -49q-20 35 -53.5 54t-76.5 19q-40 0 -74 -14.5
t-59 -40t-39.5 -61t-14.5 -76.5q0 -38 12.5 -68t33.5 -50.5t49 -31t60 -10.5q40 0 72 14.5t58 39.5l58 -60v0z" />
    <glyph glyph-name="Dcaron" unicode="&#x10e;" horiz-adv-x="736" 
d="M261 85q82 0 149 26.5t114.5 71t73 102.5t25.5 122q0 46 -15.5 86t-45 69.5t-72.5 46t-98 16.5h-127l-115 -540h111zM192 710h197q78 0 139.5 -23t103.5 -63t64 -94t22 -116q0 -88 -34.5 -163.5t-95.5 -131t-145 -87.5t-184 -32h-218zM610 926l31 -61l-195 -99l-150 103
l39 57l117 -80z" />
    <glyph glyph-name="dcaron" unicode="&#x10f;" horiz-adv-x="634" 
d="M407 43q-29 -22 -65.5 -36.5t-86.5 -14.5t-89.5 18t-67.5 49t-42.5 72.5t-14.5 87.5q0 57 21 109.5t59.5 92t91.5 63.5t118 24q51 0 90.5 -16t68.5 -43l56 261h87l-151 -710h-83zM275 74q42 0 81.5 17.5t68.5 49.5l45 214q-21 34 -60 52.5t-82 18.5q-41 0 -76.5 -15
t-62 -42t-42 -63.5t-15.5 -79.5q0 -69 39 -110.5t104 -41.5zM716 545h-60l59 165h85z" />
    <glyph glyph-name="Dcroat" unicode="&#x110;" horiz-adv-x="763" 
d="M45 399h108l66 311h197q78 0 139.5 -23t103.5 -63t64 -94t22 -116q0 -88 -34.5 -163.5t-95.5 -131t-145 -87.5t-184 -32h-218l66 312h-106zM288 85q82 0 149 26.5t114.5 71t73 102.5t25.5 122q0 46 -15.5 86t-45 69.5t-72.5 46t-98 16.5h-127l-48 -226h134l-17 -87h-136
l-48 -227h111z" />
    <glyph glyph-name="dcroat" unicode="&#x111;" horiz-adv-x="610" 
d="M362 642h169l15 68h87l-15 -68h71l-17 -74h-69l-121 -568h-83l8 43q-29 -22 -65.5 -36.5t-86.5 -14.5t-89.5 18t-67.5 49t-42.5 72.5t-14.5 87.5q0 57 21 109.5t59.5 92t91.5 63.5t118 24q51 0 90.5 -16t68.5 -43l25 119h-170zM275 74q42 0 81.5 17.5t68.5 49.5l45 214
q-21 34 -60 52.5t-82 18.5q-41 0 -76.5 -15t-62 -42t-42 -63.5t-15.5 -79.5q0 -69 39 -110.5t104 -41.5z" />
    <glyph glyph-name="Emacron" unicode="&#x112;" horiz-adv-x="555" 
d="M192 710h413l-19 -88h-323l-45 -215h262l-19 -88h-262l-49 -231h323l-19 -88h-413zM286 868h292l-14 -65h-292z" />
    <glyph glyph-name="emacron" unicode="&#x113;" horiz-adv-x="570" 
d="M479 70q-38 -36 -89 -57t-111 -21q-57 0 -101 19.5t-74.5 52t-46 75t-15.5 88.5q0 58 21.5 109.5t59.5 89.5t90 60t113 22q55 0 95.5 -18.5t67.5 -49t40.5 -70t13.5 -82.5q0 -31 -6 -59h-405q1 -37 13.5 -66t33.5 -48.5t48.5 -30t58.5 -10.5q41 0 75 15t60 41zM319 429
q-63 0 -110 -33.5t-67 -91.5h307q-1 58 -37 91.5t-93 33.5zM217 679h292l-14 -65h-292z" />
    <glyph glyph-name="Ebreve" unicode="&#x114;" horiz-adv-x="555" 
d="M192 710h413l-19 -88h-323l-45 -215h262l-19 -88h-262l-49 -231h323l-19 -88h-413zM585 909q-11 -62 -55.5 -99.5t-120.5 -37.5q-71 0 -109.5 39.5t-40.5 97.5h63q2 -42 29 -60.5t63 -18.5q42 0 71.5 20t37.5 59h62z" />
    <glyph glyph-name="ebreve" unicode="&#x115;" horiz-adv-x="570" 
d="M479 70q-38 -36 -89 -57t-111 -21q-57 0 -101 19.5t-74.5 52t-46 75t-15.5 88.5q0 58 21.5 109.5t59.5 89.5t90 60t113 22q55 0 95.5 -18.5t67.5 -49t40.5 -70t13.5 -82.5q0 -31 -6 -59h-405q1 -37 13.5 -66t33.5 -48.5t48.5 -30t58.5 -10.5q41 0 75 15t60 41zM319 429
q-63 0 -110 -33.5t-67 -91.5h307q-1 58 -37 91.5t-93 33.5zM514 710q-11 -62 -55.5 -99.5t-120.5 -37.5q-71 0 -109.5 39.5t-40.5 97.5h63q2 -42 29 -60.5t63 -18.5q42 0 71.5 20t37.5 59h62z" />
    <glyph glyph-name="Edotaccent" unicode="&#x116;" horiz-adv-x="555" 
d="M192 710h413l-19 -88h-323l-45 -215h262l-19 -88h-262l-49 -231h323l-19 -88h-413zM490 844q0 -27 -18.5 -45.5t-45.5 -18.5q-25 0 -43.5 18.5t-18.5 45.5q0 26 18.5 44t43.5 18q27 0 45.5 -18t18.5 -44z" />
    <glyph glyph-name="edotaccent" unicode="&#x117;" horiz-adv-x="570" 
d="M479 70q-38 -36 -89 -57t-111 -21q-57 0 -101 19.5t-74.5 52t-46 75t-15.5 88.5q0 58 21.5 109.5t59.5 89.5t90 60t113 22q55 0 95.5 -18.5t67.5 -49t40.5 -70t13.5 -82.5q0 -31 -6 -59h-405q1 -37 13.5 -66t33.5 -48.5t48.5 -30t58.5 -10.5q41 0 75 15t60 41zM319 429
q-63 0 -110 -33.5t-67 -91.5h307q-1 58 -37 91.5t-93 33.5zM414 631q0 -26 -18 -44t-44 -18t-44 18t-18 44t18 43.5t44 17.5t44 -17.5t18 -43.5z" />
    <glyph glyph-name="Eogonek" unicode="&#x118;" horiz-adv-x="555" 
d="M192 710h413l-19 -88h-323l-45 -215h262l-19 -88h-262l-49 -231h323l-19 -88q-53 -21 -78.5 -47t-25.5 -46q0 -17 11 -24t32 -7q11 0 20.5 2.5t15.5 4.5l-13 -62q-10 -5 -29 -7.5t-36 -2.5q-19 0 -35.5 6.5t-29 17.5t-19.5 25.5t-7 31.5q0 22 9 39t23.5 30t33 22.5
t37.5 16.5h-322z" />
    <glyph glyph-name="eogonek" unicode="&#x119;" horiz-adv-x="570" 
d="M312 -169q-14 -5 -30 -7t-33 -2q-37 0 -62.5 21t-25.5 54q0 35 25 59t60 38q-49 6 -87 27t-64 52.5t-39.5 71t-13.5 82.5q0 58 21.5 109.5t59.5 89.5t90 60t113 22q55 0 95.5 -18.5t67.5 -49t40.5 -70t13.5 -82.5q0 -31 -6 -59h-405q1 -37 13.5 -66t33.5 -48.5t48.5 -30
t58.5 -10.5q41 0 75 15t60 41l58 -60q-27 -26 -60.5 -44t-71.5 -26q-51 -23 -74.5 -44t-23.5 -41q0 -28 43 -28q20 0 34 9zM319 429q-63 0 -110 -33.5t-67 -91.5h307q-1 58 -37 91.5t-93 33.5z" />
    <glyph glyph-name="Ecaron" unicode="&#x11a;" horiz-adv-x="555" 
d="M192 710h413l-19 -88h-323l-45 -215h262l-19 -88h-262l-49 -231h323l-19 -88h-413zM574 926l31 -61l-195 -99l-150 103l39 57l117 -80z" />
    <glyph glyph-name="ecaron" unicode="&#x11b;" horiz-adv-x="570" 
d="M535 675l-196 -106l-148 113l40 52l114 -87l158 87zM479 70q-38 -36 -89 -57t-111 -21q-57 0 -101 19.5t-74.5 52t-46 75t-15.5 88.5q0 58 21.5 109.5t59.5 89.5t90 60t113 22q55 0 95.5 -18.5t67.5 -49t40.5 -70t13.5 -82.5q0 -31 -6 -59h-405q1 -37 13.5 -66
t33.5 -48.5t48.5 -30t58.5 -10.5q41 0 75 15t60 41zM319 429q-63 0 -110 -33.5t-67 -91.5h307q-1 58 -37 91.5t-93 33.5z" />
    <glyph glyph-name="Gcircumflex" unicode="&#x11c;" horiz-adv-x="770" 
d="M347 766l-31 61l195 99l150 -103l-39 -57l-117 80zM682 77q-58 -41 -131 -63t-148 -22q-81 0 -143 27.5t-104.5 74t-64.5 106.5t-22 125q0 75 27 146t79.5 125.5t128 88t173.5 33.5q85 0 153.5 -28.5t110.5 -81.5l-68 -61q-32 40 -86.5 62t-116.5 22q-69 0 -125 -24
t-96.5 -65t-62.5 -95t-22 -114q0 -50 15.5 -95.5t46 -81t76.5 -56.5t106 -21q58 0 107 13t87 41l40 186h-200l58 88h253l-71 -330v0z" />
    <glyph glyph-name="gcircumflex" unicode="&#x11d;" horiz-adv-x="599" 
d="M177 612l196 106l148 -113l-40 -52l-114 87l-158 -87zM493 54q0 -63 -21 -109.5t-58 -77.5t-87 -46t-108 -15q-27 0 -56.5 3.5t-57.5 11.5t-53 20.5t-44 30.5l54 73q26 -26 68.5 -41t92.5 -15q82 0 131 39.5t49 116.5q0 11 -3 20q-28 -20 -64.5 -33.5t-82.5 -13.5
q-48 0 -86.5 16.5t-65.5 45t-42 68t-15 84.5q0 57 20 107t57 87.5t90 59.5t118 22q47 0 84 -13.5t64 -36.5l9 42h87l-83 -391q2 -15 2.5 -28.5t0.5 -26.5zM272 100q39 0 76 16t66 45l44 205q-23 29 -59 44.5t-75 15.5t-74 -13t-60.5 -37.5t-40.5 -59t-15 -77.5
q0 -69 37.5 -104t100.5 -35z" />
    <glyph glyph-name="Gbreve" unicode="&#x11e;" horiz-adv-x="770" 
d="M682 77q-58 -41 -131 -63t-148 -22q-81 0 -143 27.5t-104.5 74t-64.5 106.5t-22 125q0 75 27 146t79.5 125.5t128 88t173.5 33.5q85 0 153.5 -28.5t110.5 -81.5l-68 -61q-32 40 -86.5 62t-116.5 22q-69 0 -125 -24t-96.5 -65t-62.5 -95t-22 -114q0 -50 15.5 -95.5t46 -81
t76.5 -56.5t106 -21q58 0 107 13t87 41l40 186h-200l58 88h253l-71 -330v0zM664 909q-11 -62 -55.5 -99.5t-120.5 -37.5q-71 0 -109.5 39.5t-40.5 97.5h63q2 -42 29 -60.5t63 -18.5q42 0 71.5 20t37.5 59h62z" />
    <glyph glyph-name="gbreve" unicode="&#x11f;" horiz-adv-x="599" 
d="M493 54q0 -63 -21 -109.5t-58 -77.5t-87 -46t-108 -15q-27 0 -56.5 3.5t-57.5 11.5t-53 20.5t-44 30.5l54 73q26 -26 68.5 -41t92.5 -15q82 0 131 39.5t49 116.5q0 11 -3 20q-28 -20 -64.5 -33.5t-82.5 -13.5q-48 0 -86.5 16.5t-65.5 45t-42 68t-15 84.5q0 57 20 107
t57 87.5t90 59.5t118 22q47 0 84 -13.5t64 -36.5l9 42h87l-83 -391q2 -15 2.5 -28.5t0.5 -26.5zM272 100q39 0 76 16t66 45l44 205q-23 29 -59 44.5t-75 15.5t-74 -13t-60.5 -37.5t-40.5 -59t-15 -77.5q0 -69 37.5 -104t100.5 -35zM528 710q-11 -62 -55.5 -99.5
t-120.5 -37.5q-71 0 -109.5 39.5t-40.5 97.5h63q2 -42 29 -60.5t63 -18.5q42 0 71.5 20t37.5 59h62z" />
    <glyph glyph-name="Gdotaccent" unicode="&#x120;" horiz-adv-x="770" 
d="M555 844q0 -27 -18.5 -45.5t-45.5 -18.5q-25 0 -43.5 18.5t-18.5 45.5q0 26 18.5 44t43.5 18q27 0 45.5 -18t18.5 -44zM682 77q-58 -41 -131 -63t-148 -22q-81 0 -143 27.5t-104.5 74t-64.5 106.5t-22 125q0 75 27 146t79.5 125.5t128 88t173.5 33.5q85 0 153.5 -28.5
t110.5 -81.5l-68 -61q-32 40 -86.5 62t-116.5 22q-69 0 -125 -24t-96.5 -65t-62.5 -95t-22 -114q0 -50 15.5 -95.5t46 -81t76.5 -56.5t106 -21q58 0 107 13t87 41l40 186h-200l58 88h253l-71 -330v0z" />
    <glyph glyph-name="gdotaccent" unicode="&#x121;" horiz-adv-x="599" 
d="M493 54q0 -63 -21 -109.5t-58 -77.5t-87 -46t-108 -15q-27 0 -56.5 3.5t-57.5 11.5t-53 20.5t-44 30.5l54 73q26 -26 68.5 -41t92.5 -15q82 0 131 39.5t49 116.5q0 11 -3 20q-28 -20 -64.5 -33.5t-82.5 -13.5q-48 0 -86.5 16.5t-65.5 45t-42 68t-15 84.5q0 57 20 107
t57 87.5t90 59.5t118 22q47 0 84 -13.5t64 -36.5l9 42h87l-83 -391q2 -15 2.5 -28.5t0.5 -26.5zM272 100q39 0 76 16t66 45l44 205q-23 29 -59 44.5t-75 15.5t-74 -13t-60.5 -37.5t-40.5 -59t-15 -77.5q0 -69 37.5 -104t100.5 -35zM427 631q0 -26 -18 -44t-44 -18t-44 18
t-18 44t18 43.5t44 17.5t44 -17.5t18 -43.5z" />
    <glyph glyph-name="uni0122" unicode="&#x122;" horiz-adv-x="770" 
d="M367 -50h100l-147 -179h-65zM682 77q-58 -41 -131 -63t-148 -22q-81 0 -143 27.5t-104.5 74t-64.5 106.5t-22 125q0 75 27 146t79.5 125.5t128 88t173.5 33.5q85 0 153.5 -28.5t110.5 -81.5l-68 -61q-32 40 -86.5 62t-116.5 22q-69 0 -125 -24t-96.5 -65t-62.5 -95
t-22 -114q0 -50 15.5 -95.5t46 -81t76.5 -56.5t106 -21q58 0 107 13t87 41l40 186h-200l58 88h253l-71 -330v0z" />
    <glyph glyph-name="uni0123" unicode="&#x123;" horiz-adv-x="599" 
d="M493 54q0 -63 -21 -109.5t-58 -77.5t-87 -46t-108 -15q-27 0 -56.5 3.5t-57.5 11.5t-53 20.5t-44 30.5l54 73q26 -26 68.5 -41t92.5 -15q82 0 131 39.5t49 116.5q0 11 -3 20q-28 -20 -64.5 -33.5t-82.5 -13.5q-48 0 -86.5 16.5t-65.5 45t-42 68t-15 84.5q0 57 20 107
t57 87.5t90 59.5t118 22q47 0 84 -13.5t64 -36.5l9 42h87l-83 -391q2 -15 2.5 -28.5t0.5 -26.5zM272 100q39 0 76 16t66 45l44 205q-23 29 -59 44.5t-75 15.5t-74 -13t-60.5 -37.5t-40.5 -59t-15 -77.5q0 -69 37.5 -104t100.5 -35zM376.006 543.997h-99.9941
l146.991 178.989h64.9961z" />
    <glyph glyph-name="Hcircumflex" unicode="&#x124;" horiz-adv-x="763" 
d="M192 710h91l-65 -303h392l65 303h91l-151 -710h-91l68 319h-392l-68 -319h-91zM350 766l-31 61l195 99l150 -103l-39 -57l-117 80z" />
    <glyph glyph-name="hcircumflex" unicode="&#x125;" horiz-adv-x="584" 
d="M173 710h86l-54 -253q32 26 70 38.5t80 12.5q37 0 69 -12t55 -34.5t36.5 -55t13.5 -72.5q0 -26 -6 -56l-59 -278h-87l57 270q2 12 3.5 22.5t1.5 21.5q0 54 -31 83t-85 29q-41 0 -76.5 -18t-63.5 -52l-75 -356h-86zM265 766l-31 61l195 99l150 -103l-39 -57l-117 80z" />
    <glyph glyph-name="Hbar" unicode="&#x126;" horiz-adv-x="769" 
d="M110 602h62l23 108h91l-23 -108h392l23 108h91l-23 -108h63l-19 -88h-63l-109 -514h-91l68 319h-392l-68 -319h-91l109 514h-62zM613 407l23 107h-392l-23 -107h392z" />
    <glyph glyph-name="hbar" unicode="&#x127;" horiz-adv-x="584" 
d="M90 642h68l15 68h86l-15 -68h173l-17 -74h-172l-23 -111q32 26 70 38.5t80 12.5q37 0 69 -12t55 -34.5t36.5 -55t13.5 -72.5q0 -26 -6 -56l-59 -278h-87l57 270q2 12 3.5 22.5t1.5 21.5q0 54 -31 83t-85 29q-41 0 -76.5 -18t-63.5 -52l-75 -356h-86l121 568h-70z" />
    <glyph glyph-name="Itilde" unicode="&#x128;" horiz-adv-x="280" 
d="M192 710h91l-151 -710h-91zM82 784l7 19q19 45 45 69.5t68 24.5q21 0 39 -7t33.5 -15t29 -15t25.5 -7q21 0 32.5 11t21.5 33h69l-7 -18q-17 -42 -42.5 -68t-70.5 -26q-21 0 -39 7t-33.5 15t-29 15t-26.5 7q-20 0 -31.5 -11t-21.5 -34h-69z" />
    <glyph glyph-name="itilde" unicode="&#x129;" horiz-adv-x="237" 
d="M128 500h87l-106 -500h-87zM13 566l7 19q19 45 45 69.5t68 24.5q21 0 39 -7t33.5 -15t29 -15t25.5 -7q21 0 32.5 11t21.5 33h69l-7 -18q-17 -42 -42.5 -68t-70.5 -26q-21 0 -39 7t-33.5 15t-29 15t-26.5 7q-20 0 -31.5 -11t-21.5 -34h-69z" />
    <glyph glyph-name="Imacron" unicode="&#x12a;" horiz-adv-x="280" 
d="M192 710h91l-151 -710h-91zM127 868h292l-14 -65h-292z" />
    <glyph glyph-name="imacron" unicode="&#x12b;" horiz-adv-x="237" 
d="M128 500h87l-106 -500h-87zM65 679h292l-14 -65h-292z" />
    <glyph glyph-name="Ibreve" unicode="&#x12c;" horiz-adv-x="280" 
d="M192 710h91l-151 -710h-91zM427 909q-11 -62 -55.5 -99.5t-120.5 -37.5q-71 0 -109.5 39.5t-40.5 97.5h63q2 -42 29 -60.5t63 -18.5q42 0 71.5 20t37.5 59h62z" />
    <glyph glyph-name="ibreve" unicode="&#x12d;" horiz-adv-x="237" 
d="M128 500h87l-106 -500h-87zM375 710q-11 -62 -55.5 -99.5t-120.5 -37.5q-71 0 -109.5 39.5t-40.5 97.5h63q2 -42 29 -60.5t63 -18.5q42 0 71.5 20t37.5 59h62z" />
    <glyph glyph-name="Iogonek" unicode="&#x12e;" horiz-adv-x="280" 
d="M29 -189q-19 0 -35.5 6.5t-29 17.5t-19.5 25.5t-7 31.5q0 22 9 39t23.5 30t33 22.5t37.5 16.5l151 710h91l-151 -710q-53 -21 -78.5 -47t-25.5 -46q0 -17 11 -24t32 -7q11 0 20.5 2.5t15.5 4.5l-13 -62q-10 -5 -29 -7.5t-36 -2.5z" />
    <glyph glyph-name="iogonek" unicode="&#x12f;" horiz-adv-x="236" 
d="M72 -169q-14 -5 -30 -7t-33 -2q-37 0 -62.5 21t-25.5 54q0 19 8.5 35t22.5 29t32 22.5t38 16.5l106 500h86l-106 -500q-99 -46 -99 -85q0 -28 43 -28q20 0 34 9zM152 609q-11 13 -11 32q0 33 21.5 55t50.5 22q23 0 38.5 -14t15.5 -34t-8 -35t-22 -26h-85z" />
    <glyph glyph-name="Idotaccent" unicode="&#x130;" horiz-adv-x="280" 
d="M192 710h91l-151 -710h-91zM330 844q0 -27 -18.5 -45.5t-45.5 -18.5q-25 0 -43.5 18.5t-18.5 45.5q0 26 18.5 44t43.5 18q27 0 45.5 -18t18.5 -44z" />
    <glyph glyph-name="dotlessi" unicode="&#x131;" horiz-adv-x="237" 
d="M128 500h87l-106 -500h-87z" />
    <glyph glyph-name="Jcircumflex" unicode="&#x134;" horiz-adv-x="529" 
d="M431 202q-12 -58 -34 -98t-52.5 -65t-69.5 -36t-85 -11q-39 0 -73 10.5t-59.5 31.5t-40.5 51t-15 69q0 12 1 23.5t4 25.5h91q-3 -20 -3 -35q0 -48 28 -68.5t73 -20.5q53 0 91 30.5t52 93.5l108 507h92l-108 -508v0zM364 766l-31 61l195 99l150 -103l-39 -57l-117 80z" />
    <glyph glyph-name="jcircumflex" unicode="&#x135;" horiz-adv-x="244" 
d="M-101 -102h32q24 0 40 4.5t26.5 14.5t17 26.5t11.5 39.5l110 517h86l-111 -526q-9 -43 -23.5 -73t-36.5 -49t-53 -27.5t-74 -8.5h-42zM30 612l196 106l148 -113l-40 -52l-114 87l-158 -87z" />
    <glyph glyph-name="uni0136" unicode="&#x136;" horiz-adv-x="629" 
d="M224 -50h100l-147 -179h-65zM192 710h91l-76 -354l391 354h115l-406 -369l279 -341h-103l-279 339l-72 -339h-91z" />
    <glyph glyph-name="uni0137" unicode="&#x137;" horiz-adv-x="509" 
d="M178 -50h100l-147 -179h-65zM173 710h87l-94 -439l271 229h111l-289 -243l203 -257h-99l-200 253l-54 -253h-87z" />
    <glyph glyph-name="Lacute" unicode="&#x139;" horiz-adv-x="519" 
d="M327 913h105l-146 -145h-73zM192 710h91l-132 -621h319l-19 -89h-410z" />
    <glyph glyph-name="lacute" unicode="&#x13a;" horiz-adv-x="237" 
d="M267 913h105l-146 -145h-73zM173 710h87l-151 -710h-87z" />
    <glyph glyph-name="uni013B" unicode="&#x13b;" horiz-adv-x="519" 
d="M206 -50h100l-147 -179h-65zM192 710h91l-132 -621h319l-19 -89h-410z" />
    <glyph glyph-name="uni013C" unicode="&#x13c;" horiz-adv-x="237" 
d="M5 -50h100l-147 -179h-65zM173 710h87l-151 -710h-87z" />
    <glyph glyph-name="Lcaron" unicode="&#x13d;" horiz-adv-x="521" 
d="M192 710h91l-132 -621h319l-19 -89h-410zM389 545h-60l59 165h85z" />
    <glyph glyph-name="lcaron" unicode="&#x13e;" horiz-adv-x="261" 
d="M173 710h87l-151 -710h-87zM344 545h-60l59 165h85z" />
    <glyph glyph-name="Ldot" unicode="&#x13f;" horiz-adv-x="525" 
d="M192 710h91l-132 -621h319l-19 -89h-410zM485 401q0 -26 -18 -44t-44 -18t-44 18t-18 44t18 43.5t44 17.5t44 -17.5t18 -43.5z" />
    <glyph glyph-name="ldot" unicode="&#x140;" horiz-adv-x="306" 
d="M355 353q0 -26 -18 -44t-44 -18t-44 18t-18 44t18 43.5t44 17.5t44 -17.5t18 -43.5zM173 710h87l-151 -710h-87z" />
    <glyph glyph-name="Lslash" unicode="&#x141;" horiz-adv-x="570" 
d="M13 276l153 83l75 351h91l-63 -295l184 100l41 -76l-249 -136l-45 -214h319l-19 -89h-410l52 247l-87 -47z" />
    <glyph glyph-name="lslash" unicode="&#x142;" horiz-adv-x="352" 
d="M22 320l141 76l67 314h87l-56 -260l88 47l37 -68l-146 -79l-74 -350h-87l63 297l-83 -45z" />
    <glyph glyph-name="Nacute" unicode="&#x143;" horiz-adv-x="782" 
d="M541 913h105l-146 -145h-73zM240 509l-108 -509h-91l153 718l391 -521l109 513h91l-153 -718z" />
    <glyph glyph-name="nacute" unicode="&#x144;" horiz-adv-x="584" 
d="M408 710h100l-153 -165h-73zM128 500h83l-10 -46q66 54 154 54q37 0 69 -12t55 -34.5t36.5 -55t13.5 -72.5q0 -26 -6 -56l-59 -278h-87l57 270q2 12 3.5 22.5t1.5 21.5q0 54 -31 83t-85 29q-41 0 -76.5 -18t-62.5 -52l-75 -356h-87z" />
    <glyph glyph-name="uni0145" unicode="&#x145;" horiz-adv-x="782" 
d="M298 -50h100l-147 -179h-65zM240 509l-108 -509h-91l153 718l391 -521l109 513h91l-153 -718z" />
    <glyph glyph-name="uni0146" unicode="&#x146;" horiz-adv-x="584" 
d="M203 -50h100l-147 -179h-65zM128 500h83l-10 -46q66 54 154 54q37 0 69 -12t55 -34.5t36.5 -55t13.5 -72.5q0 -26 -6 -56l-59 -278h-87l57 270q2 12 3.5 22.5t1.5 21.5q0 54 -31 83t-85 29q-41 0 -76.5 -18t-62.5 -52l-75 -356h-87z" />
    <glyph glyph-name="Ncaron" unicode="&#x147;" horiz-adv-x="782" 
d="M240 509l-108 -509h-91l153 718l391 -521l109 513h91l-153 -718zM665 926l31 -61l-195 -99l-150 103l39 57l117 -80z" />
    <glyph glyph-name="ncaron" unicode="&#x148;" horiz-adv-x="584" 
d="M559 675l-196 -106l-148 113l40 52l114 -87l158 87zM128 500h83l-10 -46q66 54 154 54q37 0 69 -12t55 -34.5t36.5 -55t13.5 -72.5q0 -26 -6 -56l-59 -278h-87l57 270q2 12 3.5 22.5t1.5 21.5q0 54 -31 83t-85 29q-41 0 -76.5 -18t-62.5 -52l-75 -356h-87z" />
    <glyph glyph-name="Omacron" unicode="&#x14c;" horiz-adv-x="832" 
d="M164 333q0 -51 15.5 -97t46 -81t76.5 -55.5t106 -20.5q69 0 125 24t96.5 65t62.5 95t22 114q0 51 -15.5 97t-46 81t-76.5 55.5t-106 20.5q-69 0 -125 -24t-96.5 -65t-62.5 -95t-22 -114zM808 385q0 -75 -27 -146t-79 -125.5t-128 -88t-174 -33.5q-80 0 -141.5 28
t-103.5 74t-64 106t-22 125q0 75 27 146t79.5 125.5t128 88t173.5 33.5q79 0 141 -28t104 -74t64 -106.5t22 -124.5zM393 868h292l-14 -65h-292z" />
    <glyph glyph-name="omacron" unicode="&#x14d;" horiz-adv-x="605" 
d="M249 679h292l-14 -65h-292zM132 234q0 -38 12.5 -67.5t34 -50t49.5 -31.5t60 -11q40 0 74 14.5t59 40t39.5 60.5t14.5 77q0 38 -12.5 67.5t-34 50t-50 31.5t-59.5 11q-40 0 -74 -14.5t-59 -40t-39.5 -60.5t-14.5 -77zM564 274q0 -59 -21.5 -110.5t-59.5 -89.5t-90 -60
t-112 -22q-57 0 -101.5 19.5t-75 52t-46.5 75t-16 88.5q0 58 21.5 109.5t60 89.5t90.5 60t112 22q57 0 101.5 -19.5t74.5 -52t46 -74.5t16 -88z" />
    <glyph glyph-name="Obreve" unicode="&#x14e;" horiz-adv-x="832" 
d="M164 333q0 -51 15.5 -97t46 -81t76.5 -55.5t106 -20.5q69 0 125 24t96.5 65t62.5 95t22 114q0 51 -15.5 97t-46 81t-76.5 55.5t-106 20.5q-69 0 -125 -24t-96.5 -65t-62.5 -95t-22 -114zM808 385q0 -75 -27 -146t-79 -125.5t-128 -88t-174 -33.5q-80 0 -141.5 28
t-103.5 74t-64 106t-22 125q0 75 27 146t79.5 125.5t128 88t173.5 33.5q79 0 141 -28t104 -74t64 -106.5t22 -124.5zM703 909q-11 -62 -55.5 -99.5t-120.5 -37.5q-71 0 -109.5 39.5t-40.5 97.5h63q2 -42 29 -60.5t63 -18.5q42 0 71.5 20t37.5 59h62z" />
    <glyph glyph-name="obreve" unicode="&#x14f;" horiz-adv-x="605" 
d="M132 234q0 -38 12.5 -67.5t34 -50t49.5 -31.5t60 -11q40 0 74 14.5t59 40t39.5 60.5t14.5 77q0 38 -12.5 67.5t-34 50t-50 31.5t-59.5 11q-40 0 -74 -14.5t-59 -40t-39.5 -60.5t-14.5 -77zM564 274q0 -59 -21.5 -110.5t-59.5 -89.5t-90 -60t-112 -22q-57 0 -101.5 19.5
t-75 52t-46.5 75t-16 88.5q0 58 21.5 109.5t60 89.5t90.5 60t112 22q57 0 101.5 -19.5t74.5 -52t46 -74.5t16 -88zM548 710q-11 -62 -55.5 -99.5t-120.5 -37.5q-71 0 -109.5 39.5t-40.5 97.5h63q2 -42 29 -60.5t63 -18.5q42 0 71.5 20t37.5 59h62z" />
    <glyph glyph-name="Ohungarumlaut" unicode="&#x150;" horiz-adv-x="832" 
d="M670 913h100l-146 -145h-68zM475 913h100l-146 -145h-68zM164 333q0 -51 15.5 -97t46 -81t76.5 -55.5t106 -20.5q69 0 125 24t96.5 65t62.5 95t22 114q0 51 -15.5 97t-46 81t-76.5 55.5t-106 20.5q-69 0 -125 -24t-96.5 -65t-62.5 -95t-22 -114zM808 385q0 -75 -27 -146
t-79 -125.5t-128 -88t-174 -33.5q-80 0 -141.5 28t-103.5 74t-64 106t-22 125q0 75 27 146t79.5 125.5t128 88t173.5 33.5q79 0 141 -28t104 -74t64 -106.5t22 -124.5z" />
    <glyph glyph-name="ohungarumlaut" unicode="&#x151;" horiz-adv-x="605" 
d="M500 710h91l-153 -165h-64zM341 710h91l-153 -165h-64zM132 234q0 -38 12.5 -67.5t34 -50t49.5 -31.5t60 -11q40 0 74 14.5t59 40t39.5 60.5t14.5 77q0 38 -12.5 67.5t-34 50t-50 31.5t-59.5 11q-40 0 -74 -14.5t-59 -40t-39.5 -60.5t-14.5 -77zM564 274
q0 -59 -21.5 -110.5t-59.5 -89.5t-90 -60t-112 -22q-57 0 -101.5 19.5t-75 52t-46.5 75t-16 88.5q0 58 21.5 109.5t60 89.5t90.5 60t112 22q57 0 101.5 -19.5t74.5 -52t46 -74.5t16 -88z" />
    <glyph glyph-name="OE" unicode="&#x152;" horiz-adv-x="1082" 
d="M573 25q-38 -16 -81 -24.5t-92 -8.5q-80 0 -141.5 28t-103.5 74t-64 106t-22 125q0 75 27 146t79.5 125.5t128 88t173.5 33.5q71 0 127.5 -22.5t98.5 -60.5l16 75h413l-19 -88h-322l-17 -84q14 -30 22.5 -63t10.5 -68h200l-19 -88h-186q-11 -66 -42.5 -125t-82.5 -104v-2
h323l-19 -88h-413zM164 333q0 -51 15.5 -97t46 -81t76.5 -55.5t106 -20.5q69 0 125 24t96.5 65t62.5 95t22 114q0 51 -15.5 97t-46 81t-76.5 55.5t-106 20.5q-69 0 -125 -24t-96.5 -65t-62.5 -95t-22 -114z" />
    <glyph glyph-name="oe" unicode="&#x153;" horiz-adv-x="1003" 
d="M508 103q-38 -51 -96.5 -81t-130.5 -30q-57 0 -101.5 19.5t-75 52t-46.5 75t-16 88.5q0 58 21.5 109.5t60 89.5t90.5 60t112 22q73 0 124.5 -31t80.5 -80q38 51 97 81t131 30q55 0 95.5 -18.5t67.5 -49t40.5 -70t13.5 -82.5q0 -31 -6 -59h-405q1 -37 13.5 -66t33.5 -48.5
t48.5 -30t58.5 -10.5q41 0 75 15t60 41l58 -60q-38 -36 -89 -57t-111 -21q-73 0 -124.5 31t-79.5 80zM288 75q40 0 74 14t59 39.5t39.5 60.5t14.5 77q0 38 -12.5 67.5t-34 50t-50 31t-59.5 10.5q-40 0 -74 -14t-59 -39.5t-39.5 -60.5t-14.5 -77q0 -38 12.5 -67.5t34 -50
t49.5 -31t60 -10.5zM882 304q-1 58 -37 91.5t-93 33.5q-63 0 -110 -33.5t-67 -91.5h307z" />
    <glyph glyph-name="Racute" unicode="&#x154;" horiz-adv-x="628" 
d="M295 315h-96l-67 -315h-91l151 710h199q51 0 89.5 -13t64 -36.5t38.5 -56t13 -71.5q0 -91 -54.5 -146.5t-151.5 -68.5l172 -318h-100zM335 394q82 0 125.5 37t43.5 96q0 47 -31 73.5t-95 26.5h-113l-49 -233h119zM434 913h105l-146 -145h-73z" />
    <glyph glyph-name="racute" unicode="&#x155;" horiz-adv-x="352" 
d="M318 710h100l-153 -165h-73zM128 500h87l-13 -61q28 32 67.5 50t86.5 18q9 0 17.5 -0.5t16.5 -1.5l-19 -91q-20 6 -48 6q-43 0 -79.5 -19.5t-61.5 -57.5l-73 -343h-87z" />
    <glyph glyph-name="uni0156" unicode="&#x156;" horiz-adv-x="628" 
d="M236 -50h100l-147 -179h-65zM295 315h-96l-67 -315h-91l151 710h199q51 0 89.5 -13t64 -36.5t38.5 -56t13 -71.5q0 -91 -54.5 -146.5t-151.5 -68.5l172 -318h-100zM335 394q82 0 125.5 37t43.5 96q0 47 -31 73.5t-95 26.5h-113l-49 -233h119z" />
    <glyph glyph-name="uni0157" unicode="&#x157;" horiz-adv-x="352" 
d="M5 -50h100l-147 -179h-65zM128 500h87l-13 -61q28 32 67.5 50t86.5 18q9 0 17.5 -0.5t16.5 -1.5l-19 -91q-20 6 -48 6q-43 0 -79.5 -19.5t-61.5 -57.5l-73 -343h-87z" />
    <glyph glyph-name="Rcaron" unicode="&#x158;" horiz-adv-x="628" 
d="M295 315h-96l-67 -315h-91l151 710h199q51 0 89.5 -13t64 -36.5t38.5 -56t13 -71.5q0 -91 -54.5 -146.5t-151.5 -68.5l172 -318h-100zM335 394q82 0 125.5 37t43.5 96q0 47 -31 73.5t-95 26.5h-113l-49 -233h119zM561 926l31 -61l-195 -99l-150 103l39 57l117 -80z" />
    <glyph glyph-name="rcaron" unicode="&#x159;" horiz-adv-x="352" 
d="M470 675l-196 -106l-148 113l40 52l114 -87l158 87zM128 500h87l-13 -61q28 32 67.5 50t86.5 18q9 0 17.5 -0.5t16.5 -1.5l-19 -91q-20 6 -48 6q-43 0 -79.5 -19.5t-61.5 -57.5l-73 -343h-87z" />
    <glyph glyph-name="Sacute" unicode="&#x15a;" horiz-adv-x="530" 
d="M480 189q0 -41 -16.5 -76.5t-47.5 -62.5t-75.5 -42.5t-99.5 -15.5q-41 0 -77.5 10.5t-66.5 29t-53 43.5t-38 55l83 51q9 -20 24 -39t34.5 -33t45 -22.5t55.5 -8.5q64 0 100.5 29t36.5 74q0 42 -23 71.5t-66 59.5l-60 42q-57 42 -87 85t-30 101q0 41 16.5 74t46 56
t68.5 35.5t84 12.5q62 0 116.5 -26t89.5 -84l-82 -52q-44 76 -132 76q-48 0 -81.5 -24t-33.5 -68q0 -37 21 -63t61 -55l61 -43q27 -19 50 -39.5t40 -43.5t26.5 -49.5t9.5 -57.5zM410 913h105l-146 -145h-73z" />
    <glyph glyph-name="sacute" unicode="&#x15b;" horiz-adv-x="422" 
d="M334 710h100l-153 -165h-73zM364 138q0 -33 -14 -59.5t-37.5 -46t-54.5 -30t-66 -10.5q-74 0 -120 31.5t-66 90.5l76 34q28 -79 114 -79q33 0 57.5 16t24.5 44q0 26 -17 43.5t-51 37.5l-39 23q-40 23 -68.5 57t-28.5 79q0 31 12 56.5t33.5 44t51.5 28.5t65 10
q54 0 96 -25t62 -75l-78 -35q-11 27 -32 42t-53 15q-31 0 -51 -14.5t-20 -41.5q0 -22 14 -38.5t42 -33.5l39 -24q21 -12 40.5 -25.5t34.5 -31t24.5 -38t9.5 -45.5z" />
    <glyph glyph-name="Scircumflex" unicode="&#x15c;" horiz-adv-x="530" 
d="M480 189q0 -41 -16.5 -76.5t-47.5 -62.5t-75.5 -42.5t-99.5 -15.5q-41 0 -77.5 10.5t-66.5 29t-53 43.5t-38 55l83 51q9 -20 24 -39t34.5 -33t45 -22.5t55.5 -8.5q64 0 100.5 29t36.5 74q0 42 -23 71.5t-66 59.5l-60 42q-57 42 -87 85t-30 101q0 41 16.5 74t46 56
t68.5 35.5t84 12.5q62 0 116.5 -26t89.5 -84l-82 -52q-44 76 -132 76q-48 0 -81.5 -24t-33.5 -68q0 -37 21 -63t61 -55l61 -43q27 -19 50 -39.5t40 -43.5t26.5 -49.5t9.5 -57.5zM224 766l-31 61l195 99l150 -103l-39 -57l-117 80z" />
    <glyph glyph-name="scircumflex" unicode="&#x15d;" horiz-adv-x="422" 
d="M86 612l196 106l148 -113l-40 -52l-114 87l-158 -87zM364 138q0 -33 -14 -59.5t-37.5 -46t-54.5 -30t-66 -10.5q-74 0 -120 31.5t-66 90.5l76 34q28 -79 114 -79q33 0 57.5 16t24.5 44q0 26 -17 43.5t-51 37.5l-39 23q-40 23 -68.5 57t-28.5 79q0 31 12 56.5t33.5 44
t51.5 28.5t65 10q54 0 96 -25t62 -75l-78 -35q-11 27 -32 42t-53 15q-31 0 -51 -14.5t-20 -41.5q0 -22 14 -38.5t42 -33.5l39 -24q21 -12 40.5 -25.5t34.5 -31t24.5 -38t9.5 -45.5z" />
    <glyph glyph-name="Scedilla" unicode="&#x15e;" horiz-adv-x="530" 
d="M480 189q0 -38 -14.5 -72t-42 -60t-67 -43t-88.5 -21l-62 -128h-98l100 129q-71 8 -123 45t-79 91l83 51q9 -20 24 -39t34.5 -33t45 -22.5t55.5 -8.5q64 0 100.5 29t36.5 74q0 42 -23 71.5t-66 59.5l-60 42q-57 42 -87 85t-30 101q0 41 16.5 74t46 56t68.5 35.5t84 12.5
q62 0 116.5 -26t89.5 -84l-82 -52q-44 76 -132 76q-48 0 -81.5 -24t-33.5 -68q0 -37 21 -63t61 -55l61 -43q27 -19 50 -39.5t40 -43.5t26.5 -49.5t9.5 -57.5z" />
    <glyph glyph-name="scedilla" unicode="&#x15f;" horiz-adv-x="422" 
d="M152 -5q-57 8 -93 38t-53 81l76 34q28 -79 114 -79q33 0 57.5 16t24.5 44q0 26 -17 43.5t-51 37.5l-39 23q-40 23 -68.5 57t-28.5 79q0 31 12 56.5t33.5 44t51.5 28.5t65 10q54 0 96 -25t62 -75l-78 -35q-11 27 -32 42t-53 15q-31 0 -51 -14.5t-20 -41.5q0 -22 14 -38.5
t42 -33.5l39 -24q21 -12 40.5 -25.5t34.5 -31t24.5 -38t9.5 -45.5q0 -30 -12 -55.5t-32.5 -44.5t-48.5 -30.5t-60 -14.5l-62 -128h-98z" />
    <glyph glyph-name="Scaron" unicode="&#x160;" horiz-adv-x="530" 
d="M480 189q0 -41 -16.5 -76.5t-47.5 -62.5t-75.5 -42.5t-99.5 -15.5q-41 0 -77.5 10.5t-66.5 29t-53 43.5t-38 55l83 51q9 -20 24 -39t34.5 -33t45 -22.5t55.5 -8.5q64 0 100.5 29t36.5 74q0 42 -23 71.5t-66 59.5l-60 42q-57 42 -87 85t-30 101q0 41 16.5 74t46 56
t68.5 35.5t84 12.5q62 0 116.5 -26t89.5 -84l-82 -52q-44 76 -132 76q-48 0 -81.5 -24t-33.5 -68q0 -37 21 -63t61 -55l61 -43q27 -19 50 -39.5t40 -43.5t26.5 -49.5t9.5 -57.5zM509 926l31 -61l-195 -99l-150 103l39 57l117 -80z" />
    <glyph glyph-name="scaron" unicode="&#x161;" horiz-adv-x="422" 
d="M447 675l-196 -106l-148 113l40 52l114 -87l158 87zM364 138q0 -33 -14 -59.5t-37.5 -46t-54.5 -30t-66 -10.5q-74 0 -120 31.5t-66 90.5l76 34q28 -79 114 -79q33 0 57.5 16t24.5 44q0 26 -17 43.5t-51 37.5l-39 23q-40 23 -68.5 57t-28.5 79q0 31 12 56.5t33.5 44
t51.5 28.5t65 10q54 0 96 -25t62 -75l-78 -35q-11 27 -32 42t-53 15q-31 0 -51 -14.5t-20 -41.5q0 -22 14 -38.5t42 -33.5l39 -24q21 -12 40.5 -25.5t34.5 -31t24.5 -38t9.5 -45.5z" />
    <glyph glyph-name="uni0162" unicode="&#x162;" horiz-adv-x="506" 
d="M138 -50h100l-147 -179h-65zM285 622h-193l19 88h478l-19 -88h-194l-132 -622h-91z" />
    <glyph glyph-name="uni0163" unicode="&#x163;" horiz-adv-x="357" 
d="M126 -50h100l-147 -179h-65zM60 500h98l23 105l98 45l-32 -150h133l-18 -78h-132l-54 -249q-4 -17 -5 -27t-1 -18q0 -25 14.5 -37.5t51.5 -12.5h59l-17 -78h-63q-135 0 -135 108q0 13 2 26.5t5 29.5l55 258h-82v78z" />
    <glyph glyph-name="Tcaron" unicode="&#x164;" horiz-adv-x="506" 
d="M285 622h-193l19 88h478l-19 -88h-194l-132 -622h-91zM526 926l31 -61l-195 -99l-150 103l39 57l117 -80z" />
    <glyph glyph-name="tcaron" unicode="&#x165;" horiz-adv-x="357" 
d="M60 500h98l23 105l98 45l-32 -150h133l-18 -78h-132l-54 -249q-4 -17 -5 -27t-1 -18q0 -25 14.5 -37.5t51.5 -12.5h59l-17 -78h-63q-135 0 -135 108q0 13 2 26.5t5 29.5l55 258h-82v78zM382 545h-60l59 165h85z" />
    <glyph glyph-name="Utilde" unicode="&#x168;" horiz-adv-x="730" 
d="M649 272q-14 -67 -40 -119t-65 -88t-92.5 -54.5t-123.5 -18.5q-54 0 -99 14.5t-77 42t-50 67t-18 90.5q0 34 7 66l93 438h91l-94 -440q-6 -29 -6 -52q0 -69 42.5 -104t114.5 -35q85 0 145 48.5t80 142.5l94 440h91l-93 -438v0zM306 784l7 19q19 45 45 69.5t68 24.5
q21 0 39 -7t33.5 -15t29 -15t25.5 -7q21 0 32.5 11t21.5 33h69l-7 -18q-17 -42 -42.5 -68t-70.5 -26q-21 0 -39 7t-33.5 15t-29 15t-26.5 7q-20 0 -31.5 -11t-21.5 -34h-69z" />
    <glyph glyph-name="utilde" unicode="&#x169;" horiz-adv-x="578" 
d="M377 46q-32 -27 -71 -40.5t-80 -13.5q-38 0 -69 11.5t-54 33.5t-35.5 53.5t-12.5 71.5q0 26 6 56l60 282h87l-58 -274q-6 -29 -6 -50q0 -51 28.5 -76.5t82.5 -25.5q41 0 76.5 17.5t62.5 52.5l75 356h87l-106 -500h-83zM179 566l7 19q19 45 45 69.5t68 24.5q21 0 39 -7
t33.5 -15t29 -15t25.5 -7q21 0 32.5 11t21.5 33h69l-7 -18q-17 -42 -42.5 -68t-70.5 -26q-21 0 -39 7t-33.5 15t-29 15t-26.5 7q-20 0 -31.5 -11t-21.5 -34h-69z" />
    <glyph glyph-name="Umacron" unicode="&#x16a;" horiz-adv-x="730" 
d="M649 272q-14 -67 -40 -119t-65 -88t-92.5 -54.5t-123.5 -18.5q-54 0 -99 14.5t-77 42t-50 67t-18 90.5q0 34 7 66l93 438h91l-94 -440q-6 -29 -6 -52q0 -69 42.5 -104t114.5 -35q85 0 145 48.5t80 142.5l94 440h91l-93 -438v0zM351 868h292l-14 -65h-292z" />
    <glyph glyph-name="umacron" unicode="&#x16b;" horiz-adv-x="578" 
d="M377 46q-32 -27 -71 -40.5t-80 -13.5q-38 0 -69 11.5t-54 33.5t-35.5 53.5t-12.5 71.5q0 26 6 56l60 282h87l-58 -274q-6 -29 -6 -50q0 -51 28.5 -76.5t82.5 -25.5q41 0 76.5 17.5t62.5 52.5l75 356h87l-106 -500h-83zM231 679h292l-14 -65h-292z" />
    <glyph glyph-name="Ubreve" unicode="&#x16c;" horiz-adv-x="730" 
d="M649 272q-14 -67 -40 -119t-65 -88t-92.5 -54.5t-123.5 -18.5q-54 0 -99 14.5t-77 42t-50 67t-18 90.5q0 34 7 66l93 438h91l-94 -440q-6 -29 -6 -52q0 -69 42.5 -104t114.5 -35q85 0 145 48.5t80 142.5l94 440h91l-93 -438v0zM651 909q-11 -62 -55.5 -99.5t-120.5 -37.5
q-71 0 -109.5 39.5t-40.5 97.5h63q2 -42 29 -60.5t63 -18.5q42 0 71.5 20t37.5 59h62z" />
    <glyph glyph-name="ubreve" unicode="&#x16d;" horiz-adv-x="578" 
d="M377 46q-32 -27 -71 -40.5t-80 -13.5q-38 0 -69 11.5t-54 33.5t-35.5 53.5t-12.5 71.5q0 26 6 56l60 282h87l-58 -274q-6 -29 -6 -50q0 -51 28.5 -76.5t82.5 -25.5q41 0 76.5 17.5t62.5 52.5l75 356h87l-106 -500h-83zM529 710q-11 -62 -55.5 -99.5t-120.5 -37.5
q-71 0 -109.5 39.5t-40.5 97.5h63q2 -42 29 -60.5t63 -18.5q42 0 71.5 20t37.5 59h62z" />
    <glyph glyph-name="Uring" unicode="&#x16e;" horiz-adv-x="730" 
d="M492 751q-42 0 -70.5 26.5t-28.5 67.5q0 42 29 68.5t70 26.5t70 -26.5t29 -68.5q0 -41 -28.5 -67.5t-70.5 -26.5zM492 798q20 0 34 13t14 34t-14 34.5t-34 13.5t-34 -13.5t-14 -34.5t14 -34t34 -13zM649 272q-14 -67 -40 -119t-65 -88t-92.5 -54.5t-123.5 -18.5
q-54 0 -99 14.5t-77 42t-50 67t-18 90.5q0 34 7 66l93 438h91l-94 -440q-6 -29 -6 -52q0 -69 42.5 -104t114.5 -35q85 0 145 48.5t80 142.5l94 440h91l-93 -438v0z" />
    <glyph glyph-name="uring" unicode="&#x16f;" horiz-adv-x="578" 
d="M471 660q0 -20 -7.5 -37t-21 -30t-31.5 -20t-39 -7t-39 7t-31.5 20t-21 30t-7.5 37q0 42 29 68.5t70 26.5t70 -26.5t29 -68.5zM372 613q20 0 34 13t14 34q0 22 -14 35t-34 13t-34 -13t-14 -35q0 -21 14 -34t34 -13zM377 46q-32 -27 -71 -40.5t-80 -13.5q-38 0 -69 11.5
t-54 33.5t-35.5 53.5t-12.5 71.5q0 26 6 56l60 282h87l-58 -274q-6 -29 -6 -50q0 -51 28.5 -76.5t82.5 -25.5q41 0 76.5 17.5t62.5 52.5l75 356h87l-106 -500h-83z" />
    <glyph glyph-name="Uhungarumlaut" unicode="&#x170;" horiz-adv-x="730" 
d="M648 913h100l-146 -145h-68zM453 913h100l-146 -145h-68zM649 272q-14 -67 -40 -119t-65 -88t-92.5 -54.5t-123.5 -18.5q-54 0 -99 14.5t-77 42t-50 67t-18 90.5q0 34 7 66l93 438h91l-94 -440q-6 -29 -6 -52q0 -69 42.5 -104t114.5 -35q85 0 145 48.5t80 142.5l94 440
h91l-93 -438v0z" />
    <glyph glyph-name="uhungarumlaut" unicode="&#x171;" horiz-adv-x="578" 
d="M377 46q-32 -27 -71 -40.5t-80 -13.5q-38 0 -69 11.5t-54 33.5t-35.5 53.5t-12.5 71.5q0 26 6 56l60 282h87l-58 -274q-6 -29 -6 -50q0 -51 28.5 -76.5t82.5 -25.5q41 0 76.5 17.5t62.5 52.5l75 356h87l-106 -500h-83zM507 710h91l-153 -165h-64zM348 710h91l-153 -165
h-64z" />
    <glyph glyph-name="Uogonek" unicode="&#x172;" horiz-adv-x="730" 
d="M309 -189q-19 0 -35.5 6.5t-29 17.5t-19.5 25.5t-7 31.5q0 38 26 62.5t59 38.5q-49 3 -89.5 19t-69 43t-44.5 65t-16 86q0 34 7 66l93 438h91l-94 -440q-6 -29 -6 -52q0 -69 42.5 -104t114.5 -35q85 0 145 48.5t80 142.5l94 440h91l-93 -438q-24 -112 -81 -182t-157 -90
q-52 -21 -77.5 -47t-25.5 -46q0 -17 11 -24t32 -7q11 0 20.5 2.5t15.5 4.5l-13 -62q-10 -5 -29 -7.5t-36 -2.5z" />
    <glyph glyph-name="uogonek" unicode="&#x173;" horiz-adv-x="578" 
d="M414 -169q-14 -5 -30 -7t-33 -2q-37 0 -62.5 21t-25.5 54q0 39 30.5 63.5t73.5 39.5l10 46q-32 -27 -71 -40.5t-80 -13.5q-38 0 -69 11.5t-54 33.5t-35.5 53.5t-12.5 71.5q0 26 6 56l60 282h87l-58 -274q-6 -29 -6 -50q0 -51 28.5 -76.5t82.5 -25.5q41 0 76.5 17.5
t62.5 52.5l75 356h87l-106 -500q-99 -46 -99 -85q0 -28 43 -28q20 0 34 9l-14 -65v0z" />
    <glyph glyph-name="Wcircumflex" unicode="&#x174;" horiz-adv-x="872" 
d="M402 766l-31 61l195 99l150 -103l-39 -57l-117 80zM104 710h86l54 -470l289 478l82 -484l253 476h95l-389 -718l-82 505l-305 -505z" />
    <glyph glyph-name="wcircumflex" unicode="&#x175;" horiz-adv-x="687" 
d="M234 612l196 106l148 -113l-40 -52l-114 87l-158 -87zM62 500h85l34 -363l214 371l58 -373l188 365h86l-253 -500h-73l-45 298l-169 -298h-74z" />
    <glyph glyph-name="Ycircumflex" unicode="&#x176;" horiz-adv-x="625" 
d="M278 300l-175 410h100l132 -322l267 322h114l-347 -410l-64 -300h-91zM275 766l-31 61l195 99l150 -103l-39 -57l-117 80z" />
    <glyph glyph-name="ycircumflex" unicode="&#x177;" horiz-adv-x="513" 
d="M161 30l-103 470h89l80 -377l239 377h98l-444 -684h-98zM147 612l196 106l148 -113l-40 -52l-114 87l-158 -87z" />
    <glyph glyph-name="Ydieresis" unicode="&#x178;" horiz-adv-x="625" 
d="M278 300l-175 410h100l132 -322l267 322h114l-347 -410l-64 -300h-91zM381 844q0 -26 -18 -44t-44 -18q-24 0 -42.5 18t-18.5 44q0 25 18.5 42.5t42.5 17.5q26 0 44 -17.5t18 -42.5zM606 844q0 -26 -18 -44t-44 -18q-25 0 -43 18t-18 44q0 25 18 42.5t43 17.5
q26 0 44 -17.5t18 -42.5z" />
    <glyph glyph-name="Zacute" unicode="&#x179;" horiz-adv-x="594" 
d="M480 622h-347l19 88h513l-525 -621h388l-19 -89h-554zM460 913h105l-146 -145h-73z" />
    <glyph glyph-name="zacute" unicode="&#x17a;" horiz-adv-x="496" 
d="M371 710h100l-153 -165h-73zM349 422h-263l16 78h421l-386 -422h285l-17 -78h-442z" />
    <glyph glyph-name="Zdotaccent" unicode="&#x17b;" horiz-adv-x="594" 
d="M498 844q0 -27 -18.5 -45.5t-45.5 -18.5q-25 0 -43.5 18.5t-18.5 45.5q0 26 18.5 44t43.5 18q27 0 45.5 -18t18.5 -44zM480 622h-347l19 88h513l-525 -621h388l-19 -89h-554z" />
    <glyph glyph-name="zdotaccent" unicode="&#x17c;" horiz-adv-x="496" 
d="M349 422h-263l16 78h421l-386 -422h285l-17 -78h-442zM400 631q0 -26 -18 -44t-44 -18t-44 18t-18 44t18 43.5t44 17.5t44 -17.5t18 -43.5z" />
    <glyph glyph-name="Zcaron" unicode="&#x17d;" horiz-adv-x="594" 
d="M480 622h-347l19 88h513l-525 -621h388l-19 -89h-554zM583 926l31 -61l-195 -99l-150 103l39 57l117 -80z" />
    <glyph glyph-name="zcaron" unicode="&#x17e;" horiz-adv-x="496" 
d="M522 675l-196 -106l-148 113l40 52l114 -87l158 87zM349 422h-263l16 78h421l-386 -422h285l-17 -78h-442z" />
    <glyph glyph-name="uni0218" unicode="&#x218;" horiz-adv-x="530" 
d="M183 -50h100l-147 -179h-65zM480 189q0 -41 -16.5 -76.5t-47.5 -62.5t-75.5 -42.5t-99.5 -15.5q-41 0 -77.5 10.5t-66.5 29t-53 43.5t-38 55l83 51q9 -20 24 -39t34.5 -33t45 -22.5t55.5 -8.5q64 0 100.5 29t36.5 74q0 42 -23 71.5t-66 59.5l-60 42q-57 42 -87 85
t-30 101q0 41 16.5 74t46 56t68.5 35.5t84 12.5q62 0 116.5 -26t89.5 -84l-82 -52q-44 76 -132 76q-48 0 -81.5 -24t-33.5 -68q0 -37 21 -63t61 -55l61 -43q27 -19 50 -39.5t40 -43.5t26.5 -49.5t9.5 -57.5z" />
    <glyph glyph-name="uni0219" unicode="&#x219;" horiz-adv-x="422" 
d="M132 -50h100l-147 -179h-65zM364 138q0 -33 -14 -59.5t-37.5 -46t-54.5 -30t-66 -10.5q-74 0 -120 31.5t-66 90.5l76 34q28 -79 114 -79q33 0 57.5 16t24.5 44q0 26 -17 43.5t-51 37.5l-39 23q-40 23 -68.5 57t-28.5 79q0 31 12 56.5t33.5 44t51.5 28.5t65 10
q54 0 96 -25t62 -75l-78 -35q-11 27 -32 42t-53 15q-31 0 -51 -14.5t-20 -41.5q0 -22 14 -38.5t42 -33.5l39 -24q21 -12 40.5 -25.5t34.5 -31t24.5 -38t9.5 -45.5z" />
    <glyph glyph-name="uni021A" unicode="&#x21a;" horiz-adv-x="506" 
d="M138 -50h100l-147 -179h-65zM285 622h-193l19 88h478l-19 -88h-194l-132 -622h-91z" />
    <glyph glyph-name="uni021B" unicode="&#x21b;" horiz-adv-x="357" 
d="M126 -50h100l-147 -179h-65zM60 500h98l23 105l98 45l-32 -150h133l-18 -78h-132l-54 -249q-4 -17 -5 -27t-1 -18q0 -25 14.5 -37.5t51.5 -12.5h59l-17 -78h-63q-135 0 -135 108q0 13 2 26.5t5 29.5l55 258h-82v78z" />
    <glyph glyph-name="uni0232" unicode="&#x232;" horiz-adv-x="625" 
d="M278 300l-175 410h100l132 -322l267 322h114l-347 -410l-64 -300h-91zM292 868h292l-14 -65h-292z" />
    <glyph glyph-name="uni0233" unicode="&#x233;" horiz-adv-x="513" 
d="M161 30l-103 470h89l80 -377l239 377h98l-444 -684h-98zM199 679h292l-14 -65h-292z" />
    <glyph glyph-name="uni0237" unicode="&#x237;" horiz-adv-x="244" 
d="M-101 -102h32q24 0 40 4.5t26.5 14.5t17 26.5t11.5 39.5l110 517h86l-111 -526q-9 -43 -23.5 -73t-36.5 -49t-53 -27.5t-74 -8.5h-42z" />
    <glyph glyph-name="circumflex" unicode="&#x2c6;" horiz-adv-x="405" 
d="M160 612l196 106l148 -113l-40 -52l-114 87l-158 -87z" />
    <glyph glyph-name="caron" unicode="&#x2c7;" horiz-adv-x="405" 
d="M519 675l-196 -106l-148 113l40 52l114 -87l158 87z" />
    <glyph glyph-name="breve" unicode="&#x2d8;" horiz-adv-x="386" 
d="M507 710q-11 -62 -55.5 -99.5t-120.5 -37.5q-71 0 -109.5 39.5t-40.5 97.5h63q2 -42 29 -60.5t63 -18.5q42 0 71.5 20t37.5 59h62z" />
    <glyph glyph-name="dotaccent" unicode="&#x2d9;" horiz-adv-x="187" 
d="M289 631q0 -26 -18 -44t-44 -18t-44 18t-18 44t18 43.5t44 17.5t44 -17.5t18 -43.5z" />
    <glyph glyph-name="ring" unicode="&#x2da;" horiz-adv-x="262" 
d="M370 660q0 -20 -7.5 -37t-21 -30t-31.5 -20t-39 -7t-39 7t-31.5 20t-21 30t-7.5 37q0 42 29 68.5t70 26.5t70 -26.5t29 -68.5zM271 613q20 0 34 13t14 34q0 22 -14 35t-34 13t-34 -13t-14 -35q0 -21 14 -34t34 -13z" />
    <glyph glyph-name="ogonek" unicode="&#x2db;" horiz-adv-x="238" 
d="M166 -169q-14 -5 -30 -7t-33 -2q-37 0 -62.5 21t-25.5 54q0 19 8.5 35t22.5 29t32 22.5t38 16.5h86q-99 -46 -99 -85q0 -28 43 -28q20 0 34 9l-14 -65v0z" />
    <glyph glyph-name="tilde" unicode="&#x2dc;" horiz-adv-x="436" 
d="M165 566l7 19q19 45 45 69.5t68 24.5q21 0 39 -7t33.5 -15t29 -15t25.5 -7q21 0 32.5 11t21.5 33h69l-7 -18q-17 -42 -42.5 -68t-70.5 -26q-21 0 -39 7t-33.5 15t-29 15t-26.5 7q-20 0 -31.5 -11t-21.5 -34h-69z" />
    <glyph glyph-name="hungarumlaut" unicode="&#x2dd;" horiz-adv-x="417" 
d="M434 710h91l-153 -165h-64zM275 710h91l-153 -165h-64z" />
    <glyph glyph-name="Wgrave" unicode="&#x1e80;" horiz-adv-x="872" 
d="M424 913h90l61 -145h-65zM104 710h86l54 -470l289 478l82 -484l253 476h95l-389 -718l-82 505l-305 -505z" />
    <glyph glyph-name="wgrave" unicode="&#x1e81;" horiz-adv-x="687" 
d="M62 500h85l34 -363l214 371l58 -373l188 365h86l-253 -500h-73l-45 298l-169 -298h-74zM273 710h104l56 -165h-61z" />
    <glyph glyph-name="Wacute" unicode="&#x1e82;" horiz-adv-x="872" 
d="M620 913h105l-146 -145h-73zM104 710h86l54 -470l289 478l82 -484l253 476h95l-389 -718l-82 505l-305 -505z" />
    <glyph glyph-name="wacute" unicode="&#x1e83;" horiz-adv-x="687" 
d="M493 710h100l-153 -165h-73zM62 500h85l34 -363l214 371l58 -373l188 365h86l-253 -500h-73l-45 298l-169 -298h-74z" />
    <glyph glyph-name="Wdieresis" unicode="&#x1e84;" horiz-adv-x="872" 
d="M104 710h86l54 -470l289 478l82 -484l253 476h95l-389 -718l-82 505l-305 -505zM509 844q0 -26 -18 -44t-44 -18q-24 0 -42.5 18t-18.5 44q0 25 18.5 42.5t42.5 17.5q26 0 44 -17.5t18 -42.5zM734 844q0 -26 -18 -44t-44 -18q-25 0 -43 18t-18 44q0 25 18 42.5t43 17.5
q26 0 44 -17.5t18 -42.5z" />
    <glyph glyph-name="wdieresis" unicode="&#x1e85;" horiz-adv-x="687" 
d="M368 631q0 -26 -17.5 -43t-43.5 -17q-24 0 -42 17t-18 43q0 25 18 42t42 17q26 0 43.5 -17t17.5 -42zM592 631q0 -26 -17 -43t-43 -17q-25 0 -42.5 17t-17.5 43q0 25 17.5 42t42.5 17q26 0 43 -17t17 -42zM62 500h85l34 -363l214 371l58 -373l188 365h86l-253 -500h-73
l-45 298l-169 -298h-74z" />
    <glyph glyph-name="uni1ECA" unicode="&#x1eca;" horiz-adv-x="280" 
d="M192 710h91l-151 -710h-91zM123 -130q0 -26 -18 -44t-44 -18t-44 18t-18 44t18 43.5t44 17.5t44 -17.5t18 -43.5z" />
    <glyph glyph-name="uni1ECB" unicode="&#x1ecb;" horiz-adv-x="236" 
d="M152 609q-11 13 -11 32q0 33 21.5 55t50.5 22q23 0 38.5 -14t15.5 -34t-8 -35t-22 -26h-85zM128 500h86l-106 -500h-86zM102 -130q0 -26 -18 -44t-44 -18t-44 18t-18 44t18 43.5t44 17.5t44 -17.5t18 -43.5z" />
    <glyph glyph-name="uni1ECC" unicode="&#x1ecc;" horiz-adv-x="832" 
d="M398 -130q0 -26 -18 -44t-44 -18t-44 18t-18 44t18 43.5t44 17.5t44 -17.5t18 -43.5zM164 333q0 -51 15.5 -97t46 -81t76.5 -55.5t106 -20.5q69 0 125 24t96.5 65t62.5 95t22 114q0 51 -15.5 97t-46 81t-76.5 55.5t-106 20.5q-69 0 -125 -24t-96.5 -65t-62.5 -95
t-22 -114zM808 385q0 -75 -27 -146t-79 -125.5t-128 -88t-174 -33.5q-80 0 -141.5 28t-103.5 74t-64 106t-22 125q0 75 27 146t79.5 125.5t128 88t173.5 33.5q79 0 141 -28t104 -74t64 -106.5t22 -124.5z" />
    <glyph glyph-name="uni1ECD" unicode="&#x1ecd;" horiz-adv-x="605" 
d="M285 -130q0 -26 -18 -44t-44 -18t-44 18t-18 44t18 43.5t44 17.5t44 -17.5t18 -43.5zM132 234q0 -38 12.5 -67.5t34 -50t49.5 -31.5t60 -11q40 0 74 14.5t59 40t39.5 60.5t14.5 77q0 38 -12.5 67.5t-34 50t-50 31.5t-59.5 11q-40 0 -74 -14.5t-59 -40t-39.5 -60.5
t-14.5 -77zM564 274q0 -59 -21.5 -110.5t-59.5 -89.5t-90 -60t-112 -22q-57 0 -101.5 19.5t-75 52t-46.5 75t-16 88.5q0 58 21.5 109.5t60 89.5t90.5 60t112 22q57 0 101.5 -19.5t74.5 -52t46 -74.5t16 -88z" />
    <glyph glyph-name="uni1EE4" unicode="&#x1ee4;" horiz-adv-x="730" 
d="M347 -130q0 -26 -18 -44t-44 -18t-44 18t-18 44t18 43.5t44 17.5t44 -17.5t18 -43.5zM649 272q-14 -67 -40 -119t-65 -88t-92.5 -54.5t-123.5 -18.5q-54 0 -99 14.5t-77 42t-50 67t-18 90.5q0 34 7 66l93 438h91l-94 -440q-6 -29 -6 -52q0 -69 42.5 -104t114.5 -35
q85 0 145 48.5t80 142.5l94 440h91l-93 -438v0z" />
    <glyph glyph-name="uni1EE5" unicode="&#x1ee5;" horiz-adv-x="578" 
d="M267 -130q0 -26 -18 -44t-44 -18t-44 18t-18 44t18 43.5t44 17.5t44 -17.5t18 -43.5zM377 46q-32 -27 -71 -40.5t-80 -13.5q-38 0 -69 11.5t-54 33.5t-35.5 53.5t-12.5 71.5q0 26 6 56l60 282h87l-58 -274q-6 -29 -6 -50q0 -51 28.5 -76.5t82.5 -25.5q41 0 76.5 17.5
t62.5 52.5l75 356h87l-106 -500h-83z" />
    <glyph glyph-name="Ygrave" unicode="&#x1ef2;" horiz-adv-x="625" 
d="M278 300l-175 410h100l132 -322l267 322h114l-347 -410l-64 -300h-91zM315 913h90l61 -145h-65z" />
    <glyph glyph-name="ygrave" unicode="&#x1ef3;" horiz-adv-x="513" 
d="M161 30l-103 470h89l80 -377l239 377h98l-444 -684h-98zM209 710h104l56 -165h-61z" />
    <glyph glyph-name="endash" unicode="&#x2013;" horiz-adv-x="570" 
d="M82 314h434l-19 -81h-434z" />
    <glyph glyph-name="emdash" unicode="&#x2014;" horiz-adv-x="867" 
d="M82 314h731l-19 -81h-731z" />
    <glyph glyph-name="quoteleft" unicode="&#x2018;" horiz-adv-x="244" 
d="M197 568h51l-26 -123h-122l27 124l87 141h57z" />
    <glyph glyph-name="quoteright" unicode="&#x2019;" horiz-adv-x="233" 
d="M182 587h-51l26 123h122l-27 -124l-87 -141h-57z" />
    <glyph glyph-name="quotesinglbase" unicode="&#x201a;" horiz-adv-x="257" 
d="M73 0h-51l26 123h122l-27 -124l-87 -141h-57z" />
    <glyph glyph-name="quotedblleft" unicode="&#x201c;" horiz-adv-x="444" 
d="M197 568h51l-26 -123h-122l27 124l87 141h57zM397 568h51l-26 -123h-122l27 124l87 141h57z" />
    <glyph glyph-name="quotedblright" unicode="&#x201d;" horiz-adv-x="434" 
d="M182 587h-51l26 123h122l-27 -124l-87 -141h-57zM382 587h-51l26 123h122l-27 -124l-87 -141h-57z" />
    <glyph glyph-name="quotedblbase" unicode="&#x201e;" horiz-adv-x="457" 
d="M73 0h-51l26 123h122l-27 -124l-87 -141h-57zM273 0h-51l26 123h122l-27 -124l-87 -141h-57z" />
    <glyph glyph-name="bullet" unicode="&#x2022;" horiz-adv-x="421" 
d="M220 166q-28 0 -53 10.5t-43.5 29t-29 43.5t-10.5 53t10.5 53t29 43.5t43.5 29t53 10.5t53 -10.5t43.5 -29t29 -43.5t10.5 -53t-10.5 -53t-29 -43.5t-43.5 -29t-53 -10.5z" />
    <glyph glyph-name="ellipsis" unicode="&#x2026;" horiz-adv-x="685" 
d="M169 66q0 -31 -21.5 -52.5t-52.5 -21.5q-30 0 -52 21.5t-22 52.5t22 52.5t52 21.5q31 0 52.5 -21.5t21.5 -52.5zM387 66q0 -31 -21.5 -52.5t-52.5 -21.5q-30 0 -52 21.5t-22 52.5t22 52.5t52 21.5q31 0 52.5 -21.5t21.5 -52.5zM605 66q0 -31 -21.5 -52.5t-52.5 -21.5
q-30 0 -52 21.5t-22 52.5t22 52.5t52 21.5q31 0 52.5 -21.5t21.5 -52.5z" />
    <glyph glyph-name="guilsinglleft" unicode="&#x2039;" horiz-adv-x="311" 
d="M44 255l200 217l52 -48l-166 -178l87 -188l-67 -30z" />
    <glyph glyph-name="guilsinglright" unicode="&#x203a;" horiz-adv-x="311" 
d="M267 245l-200 -217l-52 48l166 178l-87 188l67 30z" />
    <glyph glyph-name="Euro" unicode="&#x20ac;" horiz-adv-x="745" 
d="M103 458h99q19 54 54.5 101.5t84 83t110.5 55.5t136 20q66 0 117 -19t89 -53l-47 -79q-29 29 -71.5 47t-94.5 18t-96 -13t-79.5 -36t-62.5 -55t-43 -70h383l-36 -61h-366q-6 -32 -6 -64v-19h323l-36 -60h-277q10 -37 30 -69t49 -56t68 -37.5t87 -13.5q34 0 63 6.5
t55 17.5l-21 -96q-23 -7 -50 -10.5t-52 -3.5q-69 0 -125 20.5t-97.5 56.5t-68 83.5t-36.5 101.5h-148l35 60h106v11q0 36 6 72h-118z" />
    <glyph glyph-name="minus" unicode="&#x2212;" 
d="M80 310h438v-70h-438v70z" />
    <glyph glyph-name="uniFB01" unicode="&#xfb01;" horiz-adv-x="594" 
d="M78 500h96q-13 14 -21 35t-8 44q0 57 46 94t127 37h113l-17 -78h-94q-43 0 -69.5 -17.5t-26.5 -53.5q0 -25 15 -42t44 -19h103l-16 -78h-132l-90 -422h-87l90 422h-89zM510 609q-11 13 -11 32q0 33 21.5 55t50.5 22q23 0 38.5 -14t15.5 -34t-8 -35t-22 -26h-85zM486 500
h86l-106 -500h-86z" />
    <glyph glyph-name="uniFB02" unicode="&#xfb02;" horiz-adv-x="595" 
d="M78 500h96q-13 14 -21 35t-8 44q0 57 46 94t127 37h113l-17 -78h-94q-43 0 -69.5 -17.5t-26.5 -53.5q0 -25 15 -42t44 -19h103l-16 -78h-132l-90 -422h-87l90 422h-89zM531 710h87l-151 -710h-87z" />
    <glyph glyph-name="glyph332" horiz-adv-x="187" 
d="M128 -130q0 -26 -18 -44t-44 -18t-44 18t-18 44t18 43.5t44 17.5t44 -17.5t18 -43.5z" />
    <glyph glyph-name="glyph334" horiz-adv-x="249" 
d="M95 -50h100l-147 -179h-65z" />
    <glyph glyph-name="glyph338" horiz-adv-x="500" 
d="M384 545h-60l59 165h85z" />
    <glyph glyph-name="glyph339" horiz-adv-x="270" 
d="M323 913h105l-146 -145h-73z" />
    <glyph glyph-name="glyph340" horiz-adv-x="386" 
d="M549 909q-11 -62 -55.5 -99.5t-120.5 -37.5q-71 0 -109.5 39.5t-40.5 97.5h63q2 -42 29 -60.5t63 -18.5q42 0 71.5 20t37.5 59h62z" />
    <glyph glyph-name="glyph341" horiz-adv-x="396" 
d="M524 926l31 -61l-195 -99l-150 103l39 57l117 -80z" />
    <glyph glyph-name="glyph342" horiz-adv-x="396" 
d="M232 766l-31 61l195 99l150 -103l-39 -57l-117 80z" />
    <glyph glyph-name="glyph343" horiz-adv-x="411" 
d="M334 844q0 -26 -18 -44t-44 -18q-24 0 -42.5 18t-18.5 44q0 25 18.5 42.5t42.5 17.5q26 0 44 -17.5t18 -42.5zM559 844q0 -26 -18 -44t-44 -18q-25 0 -43 18t-18 44q0 25 18 42.5t43 17.5q26 0 44 -17.5t18 -42.5z" />
    <glyph glyph-name="glyph344" horiz-adv-x="179" 
d="M332 844q0 -27 -18.5 -45.5t-45.5 -18.5q-25 0 -43.5 18.5t-18.5 45.5q0 26 18.5 44t43.5 18q27 0 45.5 -18t18.5 -44z" />
    <glyph glyph-name="glyph345" horiz-adv-x="283" 
d="M241 913h90l61 -145h-65z" />
    <glyph glyph-name="glyph346" horiz-adv-x="460" 
d="M518 913h100l-146 -145h-68zM323 913h100l-146 -145h-68z" />
    <glyph glyph-name="glyph347" horiz-adv-x="362" 
d="M220 868h292l-14 -65h-292z" />
    <glyph glyph-name="glyph348" horiz-adv-x="277" 
d="M318 751q-42 0 -70.5 26.5t-28.5 67.5q0 42 29 68.5t70 26.5t70 -26.5t29 -68.5q0 -41 -28.5 -67.5t-70.5 -26.5zM318 798q20 0 34 13t14 34t-14 34.5t-34 13.5t-34 -13.5t-14 -34.5t14 -34t34 -13z" />
    <glyph glyph-name="glyph349" horiz-adv-x="436" 
d="M212 784l7 19q19 45 45 69.5t68 24.5q21 0 39 -7t33.5 -15t29 -15t25.5 -7q21 0 32.5 11t21.5 33h69l-7 -18q-17 -42 -42.5 -68t-70.5 -26q-21 0 -39 7t-33.5 15t-29 15t-26.5 7q-20 0 -31.5 -11t-21.5 -34h-69z" />
    </font>
</defs>
</svg>
