<svg width="123" height="123" viewBox="0 0 123 123" fill="none" xmlns="http://www.w3.org/2000/svg"><g clip-path="url(#a)"><path d="M117.941 9.85H34.798a5.071 5.071 0 0 0-5.058 5.06v22.953l-3.803-5.709a5.877 5.877 0 0 0-7.94-1.785l-7.823 4.708a11.396 11.396 0 0 0-5.234 6.807C2.078 52.281 4.195 70.192 30.485 96.5 51.364 117.37 66.95 123 77.673 123c2.49.02 4.96-.314 7.372-.961a11.535 11.535 0 0 0 6.802-5.238l4.706-7.827c1.627-2.688.843-6.199-1.784-7.925L76.046 88.554c-2.568-1.707-6.019-1.138-7.92 1.275l-5.45 7.023a1.91 1.91 0 0 1-2.431.51l-1.04-.57c-3.41-1.863-7.665-4.178-16.252-12.77-.921-.922-1.764-1.805-2.568-2.629h77.556c2.784 0 5.058-2.256 5.058-5.041V14.91a5.071 5.071 0 0 0-5.058-5.06z" fill="#339AC3"/><path d="M113.981 0H30.817c-2.784 0-5.058 2.276-5.058 5.061v22.952l-3.803-5.708a5.877 5.877 0 0 0-7.94-1.785l-7.822 4.708a11.396 11.396 0 0 0-5.235 6.807C-1.903 42.432.214 60.343 26.504 86.649c20.899 20.873 36.465 26.503 47.209 26.503 2.49.02 4.96-.314 7.37-.961a11.54 11.54 0 0 0 6.804-5.238l4.705-7.827c1.627-2.688.843-6.2-1.784-7.925L72.085 78.704c-2.568-1.706-6.018-1.137-7.92 1.275l-5.45 7.023a1.91 1.91 0 0 1-2.431.51l-1.04-.569c-3.41-1.863-7.665-4.178-16.252-12.77-.92-.922-1.764-1.805-2.568-2.629h77.557c2.783 0 5.058-2.256 5.058-5.042V5.062c0-2.786-2.275-5.062-5.058-5.062zM53.324 90.416l1 .55a5.837 5.837 0 0 0 7.488-1.55l5.45-7.024a1.927 1.927 0 0 1 2.588-.412l18.723 12.497a1.953 1.953 0 0 1 .588 2.589l-4.705 7.827a7.485 7.485 0 0 1-4.45 3.453c-9.371 2.589-25.8.392-50.718-24.541C4.371 58.87 2.214 42.452 4.802 33.075a7.543 7.543 0 0 1 3.45-4.454l7.823-4.708a1.912 1.912 0 0 1 2.587.589l12.489 18.734a1.95 1.95 0 0 1-.412 2.59l-7.019 5.453a5.868 5.868 0 0 0-1.548 7.494l.549 1c1.98 3.65 4.45 8.181 13.448 17.166 8.999 9.024 13.528 11.496 17.155 13.477zm61.735-23.933c0 .588-.49 1.079-1.098 1.079H32.837a50.778 50.778 0 0 1-6.627-9.652l-.568-1.04a1.913 1.913 0 0 1 .51-2.432l7.018-5.454a5.912 5.912 0 0 0 1.274-7.925l-4.705-7.082V5.061c0-.294.118-.569.314-.784.196-.216.49-.314.784-.314h83.144c.294 0 .568.117.784.314.215.196.313.49.313.784l-.019 61.422z" fill="#fff"/><path d="M107.137 9.2 73.966 34.367a2.676 2.676 0 0 1-3.156 0L37.678 9.2a1.992 1.992 0 0 0-2.784.373 1.995 1.995 0 0 0 .372 2.786l33.152 25.169a6.673 6.673 0 0 0 7.94 0l33.171-25.17a2.02 2.02 0 0 0 .765-1.314 1.885 1.885 0 0 0-.393-1.471 1.965 1.965 0 0 0-2.764-.373zM55.459 37.684 35.129 59.46a1.985 1.985 0 0 0 2.901 2.707l20.33-21.795a2.005 2.005 0 0 0-.176-2.727 2.018 2.018 0 0 0-2.725.04zm34.015.001a1.985 1.985 0 0 0-2.901 2.707l20.329 21.776c.745.804 2 .843 2.804.098a1.986 1.986 0 0 0 .098-2.806l-20.33-21.775z" fill="#fff"/></g><defs><clipPath id="a"><path fill="#fff" d="M0 0h123v123H0z"/></clipPath></defs></svg>