<svg width="135" height="123" viewBox="0 0 135 123" fill="none" xmlns="http://www.w3.org/2000/svg"><g clip-path="url(#a)"><path d="m129.835 17.907-8.868 1.772-3.874-3.887a2.102 2.102 0 0 0-1.937-.59L75.087 22.88a8.665 8.665 0 0 0-4.861 2.8 8.666 8.666 0 0 0-4.862-2.8l-12.42-2.382v-.324a4.32 4.32 0 0 0-3.418-4.23L38.74 13.62a4.293 4.293 0 0 0-5.09 3.201l-8.374-1.6a2.205 2.205 0 0 0-1.937.59l-3.874 3.887-8.868-1.79a4.297 4.297 0 0 0-3.57.895 4.461 4.461 0 0 0-1.595 3.353v75.753a4.338 4.338 0 0 0 3.456 4.248l51.007 10.365c1.367 2.725 5.412 4.496 10.33 4.496 4.919 0 8.964-1.771 10.37-4.629l50.949-10.212a4.341 4.341 0 0 0 3.475-4.25v-75.77a4.279 4.279 0 0 0-1.576-3.334 4.276 4.276 0 0 0-3.608-.915z" fill="#339AC3"/><path d="m124.385 10.383-8.85 1.79-3.874-3.886a2.1 2.1 0 0 0-1.937-.59l-40.069 7.677a8.666 8.666 0 0 0-4.861 2.801 8.665 8.665 0 0 0-4.861-2.8l-12.42-2.382v-.343a4.32 4.32 0 0 0-3.418-4.23L33.289 6.096a4.293 4.293 0 0 0-5.089 3.2l-8.374-1.6c-.684-.133-1.406.096-1.918.59l-3.874 3.888-8.869-1.791a4.3 4.3 0 0 0-3.589.914A4.31 4.31 0 0 0 0 14.631v75.753a4.34 4.34 0 0 0 3.456 4.249l51.007 10.365c1.368 2.724 5.413 4.496 10.33 4.496 4.92 0 8.964-1.772 10.37-4.63l50.95-10.212a4.34 4.34 0 0 0 3.475-4.249V14.631c0-1.295-.57-2.514-1.576-3.334a4.365 4.365 0 0 0-3.627-.914zM17.281 15.05v61.044l-4.31 4.325V19.395l4.31-4.344zm2.867 64.283 38.968 7.45a4.325 4.325 0 0 1 3.513 4.248v2.82l-47.456-9.526 4.975-4.992zM66.94 92.156v-1.124a4.34 4.34 0 0 1 3.513-4.249l38.967-7.45 4.976 4.993-47.437 9.526v-1.696h-.02zm49.678-11.736-4.311-4.325V15.05l4.311 4.324V80.42zM70.453 19.623l37.524-7.183V75.2l-38.322 7.335c-.95.19-1.86.533-2.715 1.01V23.852c.019-2.077 1.481-3.849 3.513-4.23zM44.266 44.487a3.251 3.251 0 0 0 3.247-3.258V17.413l11.603 2.21a4.324 4.324 0 0 1 3.513 4.249v59.672a8.116 8.116 0 0 0-2.697-1.01L21.611 75.2V12.44l6.475 1.239v26.273c0 1.124.589 2.172 1.538 2.763.95.59 2.146.648 3.153.133l5.678-2.858 3.532 3.544c.589.61 1.424.953 2.279.953zM32.397 10.326l10.805 2.324v25.969l-2.24-2.249a3.226 3.226 0 0 0-3.742-.61l-4.823 2.42V10.326zm41.91 90.27a4.498 4.498 0 0 0-3.076 2.477c-.36.724-2.62 2.077-6.456 2.077-3.836 0-6.096-1.353-6.457-2.096a4.424 4.424 0 0 0-3.076-2.458L4.311 90.384V14.631l6.039 1.22-1.083 1.105c-.399.4-.627.953-.627 1.524v67.16c0 1.029.722 1.924 1.728 2.115l53.154 10.67c.835.17 1.709.17 2.544 0l53.153-10.67a2.159 2.159 0 0 0 1.728-2.115V18.48c0-.572-.227-1.124-.626-1.524l-1.102-1.105 6.058-1.22v75.753l-50.97 10.212z" fill="#fff"/><path d="M75.579 29.512c.132 0 .265-.02.398-.038l23.757-4.554a2.153 2.153 0 0 0 1.709-2.534 2.146 2.146 0 0 0-2.526-1.715l-23.756 4.554a2.15 2.15 0 0 0-1.747 2.324 2.17 2.17 0 0 0 2.165 1.963zm0 8.478c.132 0 .265-.02.398-.039l23.757-4.553a2.153 2.153 0 0 0 1.709-2.534 2.146 2.146 0 0 0-2.526-1.715l-23.756 4.553a2.15 2.15 0 0 0-1.747 2.325 2.184 2.184 0 0 0 2.165 1.962zm0 8.669c.132 0 .265-.02.398-.038l23.757-4.554a2.153 2.153 0 0 0 1.709-2.534 2.146 2.146 0 0 0-2.526-1.715l-23.756 4.554a2.15 2.15 0 0 0-1.747 2.324 2.184 2.184 0 0 0 2.165 1.963zm0 8.668c.132 0 .265-.02.398-.038l23.757-4.554a2.153 2.153 0 0 0 1.709-2.534 2.146 2.146 0 0 0-2.526-1.715L75.161 51.04a2.15 2.15 0 0 0-1.747 2.324 2.184 2.184 0 0 0 2.165 1.963zm0 8.669c.132 0 .265-.019.398-.038l23.757-4.553a2.153 2.153 0 0 0 1.709-2.534 2.146 2.146 0 0 0-2.526-1.715l-23.756 4.553a2.15 2.15 0 0 0-1.747 2.325 2.184 2.184 0 0 0 2.165 1.962zm.002 8.649c.133 0 .266-.019.399-.038l12.951-2.496a2.153 2.153 0 0 0 1.71-2.534 2.146 2.146 0 0 0-2.526-1.714l-12.951 2.496a2.166 2.166 0 0 0-1.748 2.324c.133 1.124 1.064 1.962 2.165 1.962zM28.104 48.201a2.167 2.167 0 0 0 1.71 2.534l23.756 4.554c.133.019.266.038.398.038 1.12 0 2.051-.858 2.146-1.963a2.15 2.15 0 0 0-1.747-2.324l-23.756-4.554c-1.14-.228-2.279.534-2.507 1.715zM54.386 59.69 30.63 55.137a2.16 2.16 0 0 0-2.526 1.715 2.167 2.167 0 0 0 1.71 2.534l23.756 4.553c.133.02.266.038.398.038 1.12 0 2.051-.857 2.146-1.962.133-1.105-.626-2.115-1.728-2.325zm0 8.668L30.63 63.805a2.16 2.16 0 0 0-2.526 1.714 2.175 2.175 0 0 0 1.71 2.534l23.756 4.554c.133.019.266.038.398.038 1.12 0 2.051-.857 2.146-1.962.133-1.105-.626-2.115-1.728-2.325z" fill="#fff"/></g><defs><clipPath id="a"><path fill="#fff" transform="translate(0 6)" d="M0 0h135v111H0z"/></clipPath></defs></svg>