<svg width="135" height="123" viewBox="0 0 135 123" fill="none" xmlns="http://www.w3.org/2000/svg"><path d="M125.227 11a1.85 1.85 0 0 0-.726-.137H66.275c-.49 0-.98.195-1.333.546L14.205 61.87c-.353.352-.549.82-.549 1.327v57.93A1.872 1.872 0 0 0 15.538 123h58.246c.49 0 .98-.195 1.333-.546l50.717-50.46c.353-.351.549-.82.549-1.327v-57.95c0-.76-.451-1.424-1.156-1.716z" fill="#339AC3"/><path d="M120.413.156a1.86 1.86 0 0 0-.725-.156h-17.35c-.51 0-1 .195-1.353.566L71.519 29.882v-7.997l7.136-7.1c.353-.37.569-.839.569-1.365V1.912A1.92 1.92 0 0 0 77.302 0h-17.35c-.51 0-1 .195-1.352.566L6.569 52.313c-.353.37-.569.858-.569 1.365v59.433c0 .507.196.995.569 1.365.352.351.843.566 1.372.566h59.735c.51 0 1-.215 1.373-.566l52.031-51.767c.353-.35.568-.838.568-1.346V1.913a2.003 2.003 0 0 0-1.235-1.756zM75.362 12.62l-7.137 7.1-41.032 40.824V54.46L75.362 6.554v6.066zM48.954 66.532c.353.351.843.566 1.372.566h1.137L21.41 96.98V67.098h3.862c.51 0 1-.215 1.373-.566l41.032-40.824v7.997L48.973 52.313c-.352.37-.568.839-.568 1.365v11.508c-.02.508.196.995.549 1.346zm5.215 3.277v29.882H24.134L54.17 69.81zm6.587-65.966h11.9L24.468 51.767h-11.88L60.755 3.843zm4.98 107.337H9.862V55.59H23.35v7.665h-3.862c-.51 0-1 .195-1.372.566-.353.37-.55.858-.55 1.365v36.417a1.92 1.92 0 0 0 1.922 1.911H56.09a1.935 1.935 0 0 0 1.94-1.931V65.186a1.92 1.92 0 0 0-1.92-1.911h-3.862V55.59h13.488v55.59zm1.117-59.413h-11.9L70.931 35.87l32.21-32.027h11.9L66.853 51.767zm50.894 8.777L69.578 108.47V54.48l48.169-47.925v53.99z" fill="#fff"/></svg>