<svg width="28" height="28" viewBox="0 0 28 28" fill="none" xmlns="http://www.w3.org/2000/svg"><g clip-path="url(#a)"><path d="M19.374 16.615c3.361-4.746 2.237-11.318-2.509-14.678C12.12-1.423 5.547-.3 2.187 4.447c-3.36 4.746-2.237 11.317 2.51 14.677a10.53 10.53 0 0 0 11.44.473l7.763 7.717a2.203 2.203 0 1 0 3.115-3.115l-7.64-7.584zm-8.6.72a6.79 6.79 0 1 1-.015-13.58 6.79 6.79 0 0 1 .02 13.58h-.005z" fill="#fff"/></g><defs><clipPath id="a"><path fill="#fff" d="M0 0h28v28H0z"/></clipPath></defs></svg>