<svg width="30" height="42" viewBox="0 0 30 42" fill="none" xmlns="http://www.w3.org/2000/svg"><g clip-path="url(#a)" fill="#fff"><path d="M15 41.797c-8.263 0-15-6.082-15-13.542V13.543C0 6.083 6.737 0 15 0s15 6.082 15 13.543v14.712c0 7.46-6.737 13.543-15 13.543zm0-38.8c-6.438 0-11.681 4.733-11.681 10.546v14.712C3.319 34.066 8.562 38.8 15 38.8c6.438 0 11.681-4.734 11.681-10.547v-14.71C26.681 7.73 21.438 2.996 15 2.996z"/><path d="M15 19.956c3.446 0 6.24-2.522 6.24-5.633S18.446 8.69 15 8.69c-3.445 0-6.238 2.522-6.238 5.633 0 3.11 2.793 5.633 6.239 5.633z"/></g><defs><clipPath id="a"><path fill="#fff" d="M0 0h30v41.797H0z"/></clipPath></defs></svg>