<svg width="135" height="123" viewBox="0 0 135 123" fill="none" xmlns="http://www.w3.org/2000/svg">
<g clip-path="url(#clip0)">
<path d="M129.835 17.9072L120.967 19.6791L117.093 15.7924C116.58 15.2779 115.859 15.0493 115.156 15.2017L75.087 22.8799C73.207 23.2419 71.4979 24.2326 70.2256 25.6806C68.9532 24.2326 67.2441 23.2419 65.3641 22.8799L52.9447 20.4983V20.1744C52.9447 18.1358 51.5204 16.3639 49.5265 15.9448L38.7401 13.6204C36.4613 13.125 34.2015 14.5349 33.6508 16.8212L25.2762 15.2208C24.5736 15.0874 23.852 15.3161 23.3392 15.8114L19.4653 19.6981L10.5969 17.9072C9.32459 17.6595 8.01428 17.9834 7.0268 18.8027C6.03932 19.6219 5.45063 20.8603 5.43164 22.1559V97.9087C5.43164 99.9664 6.87488 101.738 8.88782 102.157L59.895 112.522C61.2623 115.247 65.3072 117.018 70.2256 117.018C75.144 117.018 79.1889 115.247 80.5941 112.389L131.544 102.177C133.557 101.776 135.019 99.9855 135.019 97.9278V22.1559C135.019 20.8603 134.45 19.641 133.443 18.8217C132.437 17.9834 131.108 17.6405 129.835 17.9072Z" fill="#339AC3"/>
<path d="M124.385 10.3827L115.535 12.1737L111.661 8.28694C111.149 7.77252 110.427 7.54389 109.724 7.69631L69.6554 15.3745C67.7754 15.7365 66.0663 16.7272 64.7939 18.1752C63.5216 16.7272 61.8125 15.7365 59.9325 15.3745L47.513 12.9929V12.65C47.513 10.6114 46.0888 8.83947 44.0948 8.42031L33.2895 6.0959C31.0107 5.60054 28.7509 7.01042 28.2002 9.29673L19.8256 7.69631C19.1419 7.56295 18.4203 7.79158 17.9076 8.28694L14.0336 12.1737L5.16528 10.3827C3.89295 10.135 2.58264 10.4589 1.57617 11.2972C0.5697 12.1356 0 13.3359 0 14.6314V90.3843C0 92.4419 1.44324 94.2138 3.45618 94.633L54.4634 104.998C55.8306 107.722 59.8755 109.494 64.7939 109.494C69.7123 109.494 73.7572 107.722 75.1625 104.864L126.113 94.652C128.126 94.2519 129.588 92.461 129.588 90.4033V14.6314C129.588 13.3359 129.018 12.1165 128.012 11.2972C127.005 10.4589 125.676 10.135 124.385 10.3827ZM17.2809 15.0506V76.0949L12.9702 80.4198V19.3946L17.2809 15.0506ZM20.1484 79.3338L59.1159 86.7833C61.1478 87.1644 62.6291 88.9553 62.6291 91.0321V93.8518L15.173 84.3256L20.1484 79.3338ZM66.9398 92.1562V91.0321C66.9398 88.9553 68.421 87.1834 70.4529 86.7833L109.42 79.3338L114.396 84.3256L66.9588 93.8518V92.1562H66.9398ZM116.618 80.4198L112.307 76.0949V15.0506L116.618 19.3755V80.4198ZM70.4529 19.6232L107.977 12.4404V75.1994L69.6554 82.5346C68.7059 82.7252 67.7943 83.0681 66.9398 83.5444V23.8529C66.9588 21.7761 68.421 20.0042 70.4529 19.6232ZM44.2657 44.4867C46.0508 44.4867 47.513 43.0387 47.513 41.2288V17.4131L59.1159 19.6232C61.1478 20.0042 62.6291 21.7952 62.6291 23.8719V83.5444C61.7935 83.049 60.882 82.7061 59.9325 82.5346L21.6106 75.1994V12.4404L28.0862 13.6788V39.9522C28.0862 41.0763 28.6749 42.1242 29.6244 42.7149C30.5739 43.3055 31.7703 43.3626 32.7768 42.8482L38.4548 39.9903L41.9869 43.5341C42.5756 44.1438 43.4112 44.4867 44.2657 44.4867ZM32.397 10.3256L43.2023 12.65V38.6186L40.9615 36.3704C39.974 35.3796 38.4738 35.132 37.2204 35.7607L32.397 38.1804V10.3256ZM74.3079 100.596C72.9596 100.901 71.8202 101.816 71.2315 103.073C70.8707 103.797 68.6109 105.15 64.7749 105.15C60.939 105.15 58.6791 103.797 58.3183 103.054C57.7296 101.797 56.5902 100.882 55.242 100.596L4.31073 90.3843V14.6314L10.3496 15.8508L9.26713 16.9558C8.86834 17.3559 8.64046 17.9085 8.64046 18.48V85.6402C8.64046 86.669 9.36208 87.5645 10.3685 87.755L63.5216 98.4244C64.3572 98.5959 65.2307 98.5959 66.0663 98.4244L119.219 87.755C120.226 87.5454 120.947 86.669 120.947 85.6402V18.48C120.947 17.9085 120.72 17.3559 120.321 16.9558L119.219 15.8508L125.277 14.6314V90.3843L74.3079 100.596Z" fill="white"/>
<path d="M75.5785 29.5116C75.7114 29.5116 75.8444 29.4925 75.9773 29.4735L99.7338 24.9199C100.911 24.6913 101.671 23.5672 101.443 22.3859C101.215 21.2047 100.095 20.4426 98.9172 20.6712L75.1607 25.2247C74.0593 25.4343 73.2997 26.4441 73.4136 27.5491C73.5276 28.6732 74.4581 29.5116 75.5785 29.5116Z" fill="white"/>
<path d="M75.5785 37.9892C75.7114 37.9892 75.8444 37.9702 75.9773 37.9511L99.7338 33.3975C100.911 33.1689 101.671 32.0448 101.443 30.8636C101.215 29.6823 100.095 28.9202 98.9172 29.1488L75.1607 33.7024C74.0593 33.912 73.2997 34.9217 73.4136 36.0268C73.5276 37.1318 74.4581 37.9892 75.5785 37.9892Z" fill="white"/>
<path d="M75.5785 46.6587C75.7114 46.6587 75.8444 46.6397 75.9773 46.6206L99.7338 42.0671C100.911 41.8384 101.671 40.7143 101.443 39.5331C101.215 38.3518 100.095 37.5897 98.9172 37.8184L75.1607 42.3719C74.0593 42.5815 73.2997 43.5913 73.4136 44.6963C73.5276 45.8014 74.4581 46.6587 75.5785 46.6587Z" fill="white"/>
<path d="M75.5785 55.3267C75.7114 55.3267 75.8444 55.3076 75.9773 55.2886L99.7338 50.735C100.911 50.5064 101.671 49.3823 101.443 48.201C101.215 47.0198 100.095 46.2577 98.9172 46.4863L75.1607 51.0398C74.0593 51.2494 73.2997 52.2592 73.4136 53.3643C73.5276 54.4693 74.4581 55.3267 75.5785 55.3267Z" fill="white"/>
<path d="M75.5785 63.9962C75.7114 63.9962 75.8444 63.9772 75.9773 63.9581L99.7338 59.4046C100.911 59.1759 101.671 58.0518 101.443 56.8706C101.215 55.6893 100.095 54.9272 98.9172 55.1559L75.1607 59.7094C74.0593 59.919 73.2997 60.9288 73.4136 62.0338C73.5276 63.1389 74.4581 63.9962 75.5785 63.9962Z" fill="white"/>
<path d="M75.5812 72.6454C75.7142 72.6454 75.8471 72.6263 75.98 72.6073L88.9312 70.1114C90.1086 69.8828 90.8682 68.7587 90.6403 67.5774C90.4125 66.3961 89.2921 65.634 88.1147 65.8627L75.1635 68.3586C74.062 68.5681 73.3214 69.5779 73.4164 70.683C73.5493 71.8071 74.4798 72.6454 75.5812 72.6454Z" fill="white"/>
<path d="M28.1041 48.201C27.8762 49.3823 28.6548 50.5064 29.8132 50.735L53.5697 55.2886C53.7026 55.3076 53.8356 55.3267 53.9685 55.3267C55.0889 55.3267 56.0194 54.4693 56.1144 53.3643C56.2283 52.2592 55.4687 51.2494 54.3673 51.0398L30.6108 46.4863C29.4714 46.2577 28.332 47.0198 28.1041 48.201Z" fill="white"/>
<path d="M54.3863 59.6904L30.6298 55.1368C29.4524 54.9082 28.332 55.6893 28.1041 56.8515C27.8762 58.0328 28.6548 59.1569 29.8132 59.3855L53.5697 63.9391C53.7026 63.9581 53.8356 63.9772 53.9685 63.9772C55.0889 63.9772 56.0194 63.1198 56.1144 62.0148C56.2473 60.9097 55.4877 59.8999 54.3863 59.6904Z" fill="white"/>
<path d="M54.3863 68.3583L30.6298 63.8047C29.4524 63.5761 28.332 64.3572 28.1041 65.5194C27.8762 66.6816 28.6548 67.8248 29.8132 68.0534L53.5697 72.607C53.7026 72.626 53.8356 72.6451 53.9685 72.6451C55.0889 72.6451 56.0194 71.7877 56.1144 70.6827C56.2473 69.5776 55.4877 68.5678 54.3863 68.3583Z" fill="white"/>
</g>
<defs>
<clipPath id="clip0">
<rect width="135" height="111" fill="white" transform="translate(0 6)"/>
</clipPath>
</defs>
</svg>
