<svg width="135" height="123" viewBox="0 0 135 123" fill="none" xmlns="http://www.w3.org/2000/svg">
<path d="M125.227 10.9998C124.991 10.9023 124.756 10.8633 124.501 10.8633H66.2753C65.7852 10.8633 65.2951 11.0583 64.9422 11.4094L14.2052 61.8695C13.8523 62.2206 13.6562 62.6887 13.6562 63.1958V121.126C13.6562 121.614 13.8523 122.102 14.2052 122.453C14.5581 122.804 15.0286 122.999 15.5383 122.999H73.7839C74.274 122.999 74.7642 122.804 75.117 122.453L125.834 71.9927C126.187 71.6416 126.383 71.1735 126.383 70.6663V12.7163C126.383 11.9556 125.932 11.2924 125.227 10.9998Z" fill="#339AC3"/>
<path d="M120.413 0.156042C120.178 0.0585157 119.943 0 119.688 0H102.338C101.828 0 101.338 0.195052 100.985 0.565652L71.519 29.882V21.8849L78.6551 14.785C79.008 14.4144 79.2236 13.9462 79.2236 13.4196V1.91151C79.2236 0.85823 78.361 0 77.3024 0H59.9522C59.4425 0 58.9523 0.195052 58.5995 0.565652L6.56854 52.313C6.21565 52.6836 6 53.1713 6 53.6784V113.111C6 113.618 6.19605 114.106 6.56854 114.476C6.92142 114.827 7.41154 115.042 7.94087 115.042H67.6764C68.1862 115.042 68.6763 114.827 69.0488 114.476L121.08 62.7093C121.433 62.3582 121.648 61.8706 121.648 61.3635V1.91151C121.609 1.15081 121.139 0.44862 120.413 0.156042ZM75.3615 12.6199L68.2254 19.7198L27.1927 60.5442V54.4586L75.3615 6.55376V12.6199ZM48.9539 66.5323C49.3068 66.8834 49.7969 67.098 50.3263 67.098H51.4633L21.4093 96.98V67.098H25.2714C25.7812 67.098 26.2713 66.8834 26.6438 66.5323L67.6764 25.7079V33.705L48.9735 52.313C48.6207 52.6836 48.405 53.1518 48.405 53.6784V65.1865C48.3854 65.6936 48.6011 66.1812 48.9539 66.5323ZM54.1688 69.8092V99.6912H24.1344L54.1688 69.8092ZM60.756 3.84253H72.656L24.4676 51.7669H12.5872L60.756 3.84253ZM65.7356 111.18H9.86213V55.5899H23.3502V63.2555H19.488C18.9783 63.2555 18.4882 63.4505 18.1157 63.8211C17.7628 64.1917 17.5668 64.6793 17.5668 65.1865V101.603C17.5668 102.656 18.4294 103.514 19.488 103.514H56.0901C56.5998 103.514 57.0899 103.319 57.4624 102.949C57.8153 102.598 58.0309 102.11 58.0309 101.583V65.1865C58.0309 64.1332 57.1683 63.275 56.1097 63.275H52.2475V55.5899H65.7356V111.18ZM66.853 51.7669H54.953L70.9308 35.8701L103.141 3.84253H115.041L66.853 51.7669ZM117.747 60.5442L69.5781 108.469V54.4781L117.747 6.55376V60.5442Z" fill="white"/>
</svg>
