<svg width="30" height="42" viewBox="0 0 30 42" fill="none" xmlns="http://www.w3.org/2000/svg">
    <g clip-path="url(#clip0)">
        <path d="M15 41.7975C6.73673 41.7975 0 35.7152 0 28.2545V13.543C0 6.08236 6.73673 0 15 0C23.2633 0 30 6.08236 30 13.543V28.2545C30 35.7152 23.2633 41.7975 15 41.7975ZM15 2.99624C8.56195 2.99624 3.31858 7.7303 3.31858 13.543V28.2545C3.31858 34.0672 8.56195 38.8013 15 38.8013C21.4381 38.8013 26.6814 34.0672 26.6814 28.2545V13.543C26.6814 7.7303 21.4381 2.99624 15 2.99624Z" fill="white"/>
        <path d="M15.0007 19.9558C18.4463 19.9558 21.2396 17.4339 21.2396 14.3229C21.2396 11.2119 18.4463 8.68994 15.0007 8.68994C11.555 8.68994 8.76172 11.2119 8.76172 14.3229C8.76172 17.4339 11.555 19.9558 15.0007 19.9558Z" fill="white"/>
    </g>
    <defs>
        <clipPath id="clip0">
            <rect width="30" height="41.7975" fill="white"/>
        </clipPath>
    </defs>
</svg>
