<svg width="28" height="28" viewBox="0 0 28 28" fill="none" xmlns="http://www.w3.org/2000/svg">
<g clip-path="url(#clip0)">
<path d="M19.3744 16.6152C22.7355 11.869 21.6114 5.29699 16.8652 1.93669C12.119 -1.4236 5.54699 -0.300291 2.18669 4.44668C-1.1736 9.19284 -0.0502909 15.7641 4.69668 19.1244C8.08427 21.5228 12.5631 21.7074 16.1361 19.5973L23.8997 27.3143C24.738 28.1968 26.1327 28.2321 27.0151 27.3938C27.8976 26.5564 27.9329 25.1617 27.0954 24.2792C27.0689 24.2511 27.0432 24.2254 27.0151 24.1989L19.3744 16.6152ZM10.7741 17.3346C7.02359 17.3354 3.98287 14.2971 3.98046 10.5466C3.97965 6.79607 7.01797 3.75535 10.7693 3.75374C14.515 3.75214 17.5541 6.78564 17.5613 10.5313C17.5678 14.2827 14.5311 17.3282 10.7789 17.3346C10.7773 17.3346 10.7765 17.3346 10.7741 17.3346Z" fill="white"/>
</g>
<defs>
<clipPath id="clip0">
<rect width="28" height="28" fill="white"/>
</clipPath>
</defs>
</svg>
