<svg width="123" height="123" viewBox="0 0 123 123" fill="none" xmlns="http://www.w3.org/2000/svg">
<g clip-path="url(#clip0)">
<path d="M117.941 9.84921H34.7978C32.0139 9.84921 29.7398 12.1248 29.7398 14.9105V37.8626L25.9365 32.154C24.1917 29.5253 20.702 28.7406 17.9966 30.3688L10.1743 35.077C7.60607 36.5875 5.72402 39.02 4.93983 41.8841C2.07754 52.2813 4.19485 70.1918 30.4848 96.4985C51.3638 117.371 66.9496 123.001 77.6733 123.001C80.1631 123.021 82.6333 122.687 85.0447 122.04C87.907 121.236 90.338 119.353 91.8475 116.802L96.5527 108.975C98.1799 106.287 97.3957 102.776 94.7687 101.05L76.0462 88.5535C73.4779 86.8468 70.0275 87.4157 68.1258 89.8286L62.6757 96.8516C62.1072 97.5971 61.0681 97.8129 60.2447 97.3617L59.2057 96.7928C55.7945 94.9291 51.5402 92.6143 42.9534 84.0219C42.032 83.0999 41.189 82.2172 40.3852 81.3932H117.941C120.725 81.3932 122.999 79.1372 122.999 76.3516V14.9105C122.999 12.1248 120.725 9.84921 117.941 9.84921Z" fill="#339AC3"/>
<path d="M113.981 0H30.8173C28.0335 0 25.7593 2.2756 25.7593 5.06124V28.0134L21.956 22.3048C20.2112 19.6761 16.7215 18.8914 14.0161 20.5196L6.19382 25.2278C3.6256 26.7383 1.74355 29.1708 0.959358 32.0349C-1.90293 42.4321 0.214381 60.3426 26.5043 86.6493C47.4029 107.522 62.9691 113.152 73.7125 113.152C76.2023 113.172 78.6725 112.838 81.0838 112.191C83.9461 111.387 86.3771 109.503 87.8867 106.953L92.5918 99.1258C94.219 96.4383 93.4348 92.9268 90.8078 91.2005L72.0853 78.7043C69.5171 76.9976 66.0666 77.5665 64.165 79.9794L58.7149 87.0024C58.1463 87.7478 57.1073 87.9636 56.2839 87.5124L55.2448 86.9435C51.8336 85.0799 47.5794 82.7651 38.9925 74.1727C38.0711 73.2507 37.2281 72.368 36.4243 71.544H113.981C116.764 71.544 119.039 69.288 119.039 66.5024V5.06124C119.039 2.2756 116.764 0 113.981 0ZM53.3236 90.4158L54.3234 90.9651C56.8524 92.3775 60.048 91.7302 61.8124 89.4153L67.2625 82.3923C67.8899 81.6077 69.0073 81.4115 69.8503 81.9804L88.5728 94.4766C89.4158 95.0455 89.6707 96.1833 89.161 97.066L84.4558 104.893C83.4756 106.58 81.8876 107.816 80.0056 108.346C70.6345 110.935 54.2058 108.738 29.2882 83.8048C4.37058 58.8713 2.21406 42.4517 4.80188 33.0746C5.33121 31.211 6.56631 29.6024 8.25231 28.6215L16.0746 23.9134C16.9568 23.3837 18.0939 23.6388 18.6624 24.5019L31.1506 43.2364C31.6996 44.0799 31.5231 45.1981 30.7389 45.8258L23.7204 51.2794C21.4267 53.045 20.7601 56.2426 22.1717 58.7732L22.7206 59.7737C24.7007 63.4225 27.1709 67.9541 36.1694 76.9388C45.168 85.9627 49.6967 88.4345 53.3236 90.4158ZM115.059 66.4828C115.059 67.0713 114.569 67.5617 113.961 67.5617H32.8366C30.2684 64.6191 28.0335 61.3627 26.2102 57.9101L25.6417 56.8703C25.1908 56.0464 25.4064 55.0067 26.1514 54.4378L33.1699 48.9842C35.6009 47.0813 36.1498 43.6287 34.4442 41.0589L29.7391 33.977V5.06124C29.7391 4.76699 29.8567 4.49234 30.0528 4.27656C30.2488 4.06077 30.5429 3.96268 30.8369 3.96268H113.981C114.275 3.96268 114.549 4.08038 114.765 4.27656C114.98 4.47273 115.078 4.76699 115.078 5.06124L115.059 66.4828Z" fill="white"/>
<path d="M107.137 9.1993L73.966 34.3682C73.025 35.0548 71.7507 35.0548 70.8097 34.3682L37.6777 9.1993C36.7955 8.53232 35.5604 8.70887 34.8938 9.57203C34.2273 10.4548 34.4037 11.6907 35.2663 12.3577L68.4179 37.5266C70.7705 39.2725 74.0053 39.2725 76.3578 37.5266L109.529 12.3577C109.941 12.0438 110.215 11.573 110.294 11.0433C110.372 10.5137 110.235 9.98399 109.901 9.57203C109.255 8.70887 108.019 8.53232 107.137 9.1993Z" fill="white"/>
<path d="M55.4587 37.6844L35.1286 59.4596C34.3836 60.2639 34.4229 61.5194 35.2266 62.2648C36.0304 63.0103 37.2851 62.971 38.0301 62.1667L58.3602 40.372C59.0268 39.5677 58.9483 38.371 58.1838 37.6452C57.4192 36.9586 56.2233 36.9586 55.4587 37.6844Z" fill="white"/>
<path d="M89.4735 37.6853C88.7285 36.881 87.4738 36.8418 86.67 37.5872C85.8662 38.3327 85.827 39.5882 86.572 40.3925L106.902 62.1676C107.647 62.9719 108.902 63.0111 109.706 62.2657C110.509 61.5202 110.549 60.2647 109.804 59.4604L89.4735 37.6853Z" fill="white"/>
</g>
<defs>
<clipPath id="clip0">
<rect width="123" height="123" fill="white"/>
</clipPath>
</defs>
</svg>
